<svg width="204" height="120" viewBox="0 0 204 120" fill="none" xmlns="http://www.w3.org/2000/svg">
<g id="3" clipPath="url(#clip0_1975_3157)">
<path id="Vector" d="M83.3154 60.3507C98.6319 63.4456 108.542 78.3967 105.457 93.7494C102.372 109.102 87.4541 119.039 72.1408 115.947C56.8276 112.852 46.914 97.8979 49.9991 82.5452C53.0874 67.1957 68.0022 57.2558 83.3154 60.3507Z" fill="#9C3A1E"/>
<path id="Vector_2" d="M101.108 104.134C92.2184 116.573 74.719 119.259 62.0232 110.139C49.3308 101.016 46.2458 83.5428 55.1354 71.1072C64.0284 58.6683 81.5278 55.9816 94.2202 65.1017C106.916 74.2251 110.001 91.6982 101.108 104.134Z" fill="#B74429"/>
<path id="Vector_3" d="M99.2543 106.728C91.2635 117.906 77.8335 114.607 65.309 105.609C52.7878 96.6106 46.0613 83.9742 54.0554 72.7963C56.4458 69.4512 61.1836 64.4631 64.8415 62.7313C68.799 60.8612 73.662 60.2718 78.311 60.3739C83.7172 60.4957 89.5316 61.7337 94.253 65.1249C99.9654 69.2306 103.202 75.7562 104.634 82.1963C105.553 86.3316 105.875 91.3098 105.125 95.2146C104.479 98.5598 101.259 103.926 99.2543 106.728Z" fill="#BA4736"/>
<path id="Vector_4" d="M102.78 99.6067C96.7947 107.979 84.5929 103.969 72.6413 95.3792C60.6897 86.7925 53.5121 75.7924 59.4978 67.4197C61.2922 64.9141 65.3979 62.234 68.4664 61.1772C71.7885 60.0281 75.6308 59.0766 79.753 59.6132C84.5501 60.2421 89.8147 61.8225 94.3188 65.059C99.7744 68.977 103.268 74.6334 105.161 80.0495C106.372 83.5231 106.353 87.2139 106.07 90.3384C105.823 93.0119 104.282 97.5061 102.78 99.6067Z" fill="#C54B3C"/>
<path id="Vector_5" d="M70.8371 103.373C69.2238 102.237 68.3249 101.444 67.9858 101.144C67.9693 101.128 67.9529 101.111 67.9397 101.101C67.9759 101.039 68.0286 100.963 68.0813 100.881C68.4369 100.347 69.1744 99.2346 70.3004 97.0748C70.735 96.2451 71.0741 95.2376 71.3046 94.0787C71.8479 91.3755 71.7326 88.3267 71.6536 86.3085L71.6404 85.9199C71.5482 83.444 71.4363 80.3623 71.917 72.6744C72.0487 70.6133 72.289 68.6971 72.6348 66.9784C72.9047 65.6384 73.2307 64.4531 73.6027 63.4522C74.2744 61.6578 75.216 60.4758 75.2259 60.4627L75.7955 59.6758L75.1732 59.7186L74.6333 59.7746L74.146 60.2585C74.0933 60.3145 72.8224 61.671 72.0421 64.3873C71.9203 64.812 71.8018 65.3026 71.6931 65.8458C71.3375 67.6205 71.1103 69.7112 70.9293 71.3936C70.8667 71.9764 70.8041 72.5295 70.7482 72.9971C70.2148 77.3299 70.1029 81.8011 70.3728 88.4321C70.4354 89.996 70.3103 91.5599 70.0041 93.0843C69.7045 94.5791 69.0591 96.8311 67.6994 99.0667C67.6697 99.1128 67.65 99.149 67.6335 99.1754C67.3833 99.61 66.9454 100.17 66.9421 100.176L66.8828 100.255L66.8894 100.282C66.5997 100.16 65.6284 99.4849 62.5862 95.9652C57.6936 90.3055 56.3141 86.6739 54.6184 81.3632C53.7624 78.67 53.9731 76.1578 54.3024 74.5215C54.6119 72.9806 54.8621 71.4463 54.8621 71.4463L54.4176 72.0752L54.1048 72.5394L53.522 74.7519C53.4825 74.8968 53.443 75.0581 53.4101 75.2293C53.173 76.4015 53.1171 77.9127 53.2521 79.2791C53.3706 80.4578 53.657 81.5937 53.9106 82.5979C53.9863 82.9008 54.0554 83.1905 54.1213 83.4605C54.7073 85.9858 57.2722 91.1056 60.5547 95.2936C63.1821 98.642 64.9699 100.357 65.6416 101.003C65.714 101.072 65.7832 101.141 65.8325 101.19C65.6482 101.437 64.993 102.096 64.081 102.54C62.9681 103.08 61.3844 103.383 59.8501 103.347C57.4203 103.288 55.6193 101.717 54.0324 100.331L53.7295 100.064C52.1063 98.6585 51.033 97.5522 51.0264 97.539L51.2107 98.0494L51.3721 98.4774C51.382 98.4905 52.1228 99.5771 53.173 100.746C53.8085 101.454 54.7929 102.237 55.8037 102.837L56.1 103.011C57.8582 104.061 58.7406 104.588 61.605 104.555C64.2456 104.522 66.4186 102.655 66.9717 102.076C67.0804 102.158 67.2582 102.303 67.4458 102.451C67.8475 102.777 68.4599 103.268 69.2797 103.87C70.0337 104.424 70.6955 104.917 71.2058 105.296C71.6536 105.629 71.9433 105.846 72.1178 105.971C71.6141 106.468 69.7012 108.042 68.3908 109.119C67.9529 109.477 67.5479 109.81 67.2121 110.09C65.5922 111.433 62.4611 112.026 62.4314 112.029L62.9253 112.339L63.3698 112.605C63.4159 112.605 64.6176 112.546 65.9181 112.118C66.8631 111.805 67.943 111.091 68.6542 110.62C69.8921 109.8 71.512 108.365 72.48 107.509C72.8488 107.179 73.2011 106.867 73.3262 106.778C73.4151 106.807 73.639 106.936 73.9155 107.097C74.2579 107.295 74.7749 107.594 75.5288 107.996C76.6911 108.615 77.636 109.01 78.199 109.247C78.3175 109.3 78.4328 109.346 78.5217 109.385C78.4426 109.484 78.3274 109.619 78.2122 109.751C77.6525 110.413 76.7141 111.512 75.9898 112.931C75.8515 113.198 75.756 113.461 75.7066 113.718C75.3444 115.522 77.2146 116.513 77.2343 116.52L78.7291 116.51L78.1957 116.056C78.1891 116.049 77.4878 115.476 77.208 114.854C77.0532 114.512 77.1487 113.998 77.231 113.54L77.2409 113.488C77.4747 112.322 79.3283 110.307 79.7201 109.915C79.865 109.955 80.1942 110.08 80.5399 110.208C82.0578 110.775 85.2119 111.95 87.9513 111.937C91.6586 111.917 94.8654 110.709 94.8983 110.696L95.9651 109.84C95.9651 109.84 94.174 110.297 92.7023 110.659C91.4182 110.976 89.8872 111.035 87.7405 110.854C84.188 110.554 81.6166 109.366 80.9449 109.023C81.2775 108.612 82.5121 107.469 84.053 106.419C85.956 105.125 88.3431 103.963 88.3694 103.953C88.7513 103.758 89.3407 103.505 90.0189 103.209C91.7277 102.461 94.3123 101.332 96.561 99.9689C98.902 98.5498 100.835 96.7027 101.872 95.7084L102.056 95.5339C104.282 93.4103 106.182 88.8404 106.182 88.8404L106.191 88.0172L106.149 86.4204C106.145 86.4369 105.227 88.9227 104.45 90.4471C103.735 91.8595 102.629 93.1436 101.559 94.3816C99.1423 97.1801 95.221 99.6627 89.2123 102.195C84.3098 104.259 80.8363 107.321 79.5687 108.542C79.5555 108.559 79.5423 108.569 79.5292 108.579C79.3678 108.565 78.8015 108.282 77.9619 107.864C77.7315 107.749 77.4714 107.617 77.1816 107.476C75.7856 106.781 74.7683 106.205 74.3402 105.958C74.788 105.457 76.1182 103.959 78.5941 101.098C81.7318 97.4699 81.7318 97.4699 86.0713 90.9344L86.3083 90.5788C92.159 81.8274 95.0432 74.7421 95.7873 71.0315C95.8795 70.5738 95.9453 70.1491 95.9783 69.7672C96.2022 67.3735 95.5074 66.073 95.4185 66.0072C95.3165 65.9314 95.1486 65.7965 95.0794 65.7438C94.8819 65.5989 94.8522 65.5693 94.8522 65.5693C94.8522 65.5693 94.8753 66.4582 94.9774 67.9958C95.0202 68.6016 94.9576 69.293 94.793 70.1129C94.4604 71.7756 93.6604 74.0836 92.3533 77.1686C90.2724 82.0744 86.3643 87.9975 82.8644 93.1666C81.1754 95.659 78.5151 99.1029 76.2433 101.74C74.8144 103.406 73.6422 104.618 73.257 105.019C73.2241 105.052 73.1978 105.082 73.1747 105.105C73.0759 105.043 72.885 104.898 72.6776 104.733C72.2989 104.44 71.726 103.999 70.8371 103.373Z" fill="#393536"/>
<path id="Vector_6" d="M115.69 5.77832V5.7882H86.7065V8.1423C86.7065 9.05761 87.4473 9.8017 88.3594 9.8017H114.037C114.949 9.8017 115.69 9.05761 115.69 8.1423V5.77832Z" fill="#393536"/>
<path id="Vector_7" d="M131.073 19.0765C129.535 22.415 119.793 29.2172 115.473 31.2816C114.245 31.8676 113.129 32.885 112.141 34.0703C117.804 23.5937 129.272 15.6227 133.055 13.1863C132.877 15.1518 132.011 17.0351 131.073 19.0765ZM107.591 42.2422L107.558 42.3706C107.229 44.3065 106.228 49.5383 105.382 51.5335L105.375 51.5071C105.121 49.3374 103.926 46.7067 103.577 45.9758C103.643 44.8959 104.18 39.3547 108.121 36.51C108.707 36.0886 109.296 35.5684 109.889 34.9823C108.806 37.287 107.992 39.7169 107.591 42.2422ZM105.408 72.6612C106.096 76.7998 105.787 79.3646 105.408 80.7837C104.799 78.6469 105.013 75.4038 105.408 72.6612ZM106.129 83.4143C107.031 83.3814 108.174 84.1946 108.667 85.2252C108.898 85.7092 109.069 86.4039 108.579 86.9735C108.305 87.2896 107.989 87.441 107.578 87.4509H107.535C106.465 87.4509 105.102 86.5455 104.091 85.7125C104.46 85.4721 104.641 85.054 104.677 84.6589C105.023 83.8555 105.51 83.4374 106.129 83.4143ZM103.143 84.1749C102.603 83.8588 101.226 82.7262 98.2204 78.7489L102.995 65.2466L104.568 68.483C104.117 70.363 102.343 78.4954 104.341 82.4562C103.897 82.8085 103.469 83.3485 103.143 84.1749ZM95.7116 86.6475C94.8391 86.4138 94.7502 83.9477 95.0136 82.15C95.9651 80.8791 96.6763 80.2404 97.101 79.9309C99.0073 82.4431 100.361 83.951 101.355 84.8235C99.5638 85.7981 96.8672 86.957 95.7116 86.6475ZM94.0291 80.7902C92.4125 79.9013 89.4954 78.2649 88.7316 77.6888C88.2344 77.2673 87.3586 74.3305 86.7824 71.624L91.168 69.3292C92.001 70.1721 92.8537 71.4232 93.0315 73.0958C93.3377 75.9405 94.8918 77.8303 95.9355 78.8016C95.435 79.1967 94.7963 79.819 94.0291 80.7902ZM87.3191 84.3395L74.8012 75.7561C75.0481 75.0219 75.6243 73.6621 76.7306 72.8093C77.6064 72.1344 79.1571 72.7632 80.4017 73.2703C81.1458 73.5765 81.7351 73.8168 82.2454 73.8168C83.1114 73.8168 84.3987 73.1188 85.3338 72.5262C85.8342 74.7881 86.7396 78.2024 87.7669 78.9728C88.6229 79.6181 91.4808 81.2216 92.9624 82.0381C91.247 83.546 88.2641 84.1749 87.3191 84.3395ZM71.433 73.132C70.0535 72.9608 68.6575 73.718 67.2681 75.3807C67.0903 75.0087 66.8861 74.3502 66.7511 73.6983L67.7685 71.759C72.0158 71.9204 78.7324 67.469 80.8264 65.9972L84.7148 71.0117C83.7303 71.6471 82.657 72.2068 82.2454 72.2068C82.0479 72.2068 81.4454 71.9599 81.0042 71.7821C79.4666 71.1532 77.3594 70.2939 75.7527 71.5352C74.709 72.3385 74.0406 73.4448 73.6324 74.3469C73.1089 73.7872 72.378 73.2505 71.433 73.132ZM62.2141 69.4807C62.4578 69.2732 62.7442 69.2041 62.8331 69.1876V69.1843C62.9945 69.158 63.1525 69.0823 63.2743 68.9539C63.3072 68.9209 66.1486 66.0236 69.3357 65.2959L66.8532 70.047L62.2141 69.4807ZM65.5527 72.5262C65.4045 72.4636 65.2432 72.4011 65.0687 72.3319C64.4892 72.108 63.2908 71.6372 62.5236 71.1401L66.0564 71.5681L65.5527 72.5262ZM61.5754 63.6168C60.8873 60.4593 59.5308 57.1043 58.0228 54.0358C57.4631 52.7583 56.3272 49.153 57.5619 47.2862L57.5586 46.394L56.1659 44.3065C57.203 44.3987 58.1414 44.5864 58.734 44.9354C59.1258 45.1626 59.5769 45.3931 60.1037 45.663C60.772 46.0055 61.5326 46.4005 62.3129 46.8615C62.5664 47.3323 62.8232 47.8097 63.0735 48.2838C62.6092 49.5317 61.3614 53.825 61.6841 63.3139C61.6445 63.416 61.6116 63.518 61.5754 63.6168ZM60.9926 68.4238L61.3844 67.8344L61.503 68.0188C61.3252 68.1275 61.1507 68.2657 60.9926 68.4238ZM60.4329 69.2601L59.544 69.1514L56.4886 67.4328C56.9561 67.2912 57.7331 67.2319 58.5595 67.2813C58.9842 68.1703 59.3102 68.7234 59.3596 68.8057L60.6568 68.8386C60.5712 68.967 60.4955 69.1086 60.4329 69.2601ZM53.9797 71.2224C53.9237 70.6199 53.792 70.1424 53.6768 69.8297C53.8579 69.0922 53.6768 68.2756 53.3476 67.5118L57.6047 69.9087C56.0638 70.0964 54.8456 70.6659 53.9797 71.2224ZM57.7035 57.1471C58.9349 59.9589 59.9259 62.8859 60.2946 65.5528C60.0971 65.6186 59.8699 65.6746 59.6197 65.7306C58.7077 63.6464 57.5915 60.3869 57.7035 57.1471ZM55.4185 49.1958C54.197 47.1018 53.071 45.3832 52.3203 44.3C52.8833 44.2637 53.5221 44.2341 54.1838 44.2308L55.9486 46.878C55.6029 47.5891 55.4514 48.3859 55.4185 49.1958ZM51.6124 38.3604C51.7178 37.9422 51.8396 36.7866 52.0569 34.607C52.3137 32.0882 52.666 28.6114 53.0677 26.2375C54.0686 27.9595 55.0596 29.6189 55.942 31.0807L54.0917 42.6175C52.9591 42.6241 51.9483 42.7031 51.326 42.7624C51.1581 41.8438 51.3194 39.5457 51.6124 38.3604ZM57.2294 33.1978C58.0854 34.5971 58.7208 35.621 58.9777 36.0359C59.274 42.1664 59.8502 42.7426 60.0345 42.9303C60.1597 43.0653 60.4626 43.5559 60.8609 44.244L60.8346 44.2308C60.3309 43.974 59.8963 43.7468 59.5407 43.5427C58.5892 42.9863 57.1536 42.7426 55.7115 42.657L57.2294 33.1978ZM57.9965 28.4139C58.0228 28.4106 58.0591 28.404 58.0854 28.4007L58.5463 32.2726C58.25 31.7886 57.9405 31.2783 57.6212 30.7515L57.9965 28.4139ZM66.0136 37.32L63.755 45.8672C63.676 45.8145 63.6003 45.7651 63.5212 45.7157C62.6553 44.1189 61.661 42.3574 61.233 41.8602C61.0025 41.3466 60.7589 38.9662 60.6206 36.6944L66.0136 37.32ZM67.2286 39.0057L70.5243 46.2359L67.9101 49.716C67.1265 48.5736 66.1618 47.6352 65.1543 46.8516L67.2286 39.0057ZM71.433 47.7011L76.4013 54.7206L75.6704 55.9684L69.1612 52.1788C69.0493 51.8529 68.9176 51.5401 68.7793 51.2372L71.433 47.7011ZM82.1302 30.5869C83.0422 31.6372 85.1066 34.0275 87.25 36.5528C84.4481 40.2338 79.1736 49.7029 77.2705 53.1665L72.187 45.9824L82.1302 30.5869ZM91.326 41.4256C90.9211 42.308 90.6313 42.9731 90.526 43.2167C89.2551 44.8959 85.6861 49.1728 83.4933 50.0091C81.8932 50.6215 80.3589 51.8594 79.2328 52.9328C82.1993 47.5694 86.1931 40.6848 88.3036 37.7941C89.3835 39.0748 90.4371 40.3358 91.326 41.4256ZM89.4131 36.51C91.0034 35.3642 93.2422 32.3714 94.5526 30.5112C95.0926 31.3837 95.9091 32.2035 96.4458 32.6941L96.4491 32.6973C96.2087 33.0398 96.0211 33.2834 95.896 33.4184C94.6942 34.7024 93.1994 37.5142 92.0866 39.8156C91.2503 38.8016 90.312 37.6821 89.3604 36.5561L89.4131 36.51ZM107.699 14.3057C103.791 20.9104 99.6 27.8969 97.3578 31.3441C96.4326 30.4552 95.626 29.3818 95.5996 28.9835C96.1758 28.2986 102.26 21.0552 107.699 14.3057ZM98.9514 36.0227C97.6969 37.7118 96.1067 40.1054 94.4275 42.7459C94.3485 42.6439 94.2695 42.5385 94.1872 42.4331C93.9106 42.0743 93.5781 41.6528 93.2093 41.1919C94.2991 38.8905 95.8861 35.7824 97.0681 34.5181C97.1669 34.4127 97.2986 34.2481 97.4566 34.0341L98.9514 36.0227ZM85.0638 61.4043C86.226 59.3992 90.4898 52.0767 94.5263 45.6038C96.2779 48.1192 97.5652 50.6544 97.3578 53.3575C97.157 55.9553 93.1105 63.4884 91.0363 67.1134C90.6972 66.8697 90.4173 66.7051 90.2659 66.6195L85.0638 61.4043ZM84.0826 62.6982L89.2156 67.8443L89.423 67.9925C89.4296 67.9958 89.581 68.0748 89.8148 68.2262L86.0976 70.1688L82.0314 64.9272L84.0826 62.6982ZM79.1341 55.3461C80.0165 54.3584 82.0347 52.2875 84.0662 51.5137C87.1775 50.3252 91.675 44.3625 91.866 44.1057L91.9615 43.9411C91.9714 43.9213 92.1524 43.4933 92.4553 42.8249C92.62 43.0324 92.778 43.2332 92.9163 43.4143C93.1171 43.6777 93.3147 43.9378 93.5089 44.2012C89.5679 50.4865 85.3667 57.6805 83.895 60.219L79.1341 55.3461ZM77.0006 56.8771L77.5175 55.9915L82.9533 61.5557L81.587 63.0505C80.8033 60.4132 78.1858 57.9077 77.0006 56.8771ZM72.6249 62.471L72.592 61.9376C73.2669 60.7161 74.3238 59.2708 75.9239 58.0723C77.4549 59.4057 80.1844 62.2438 80.2041 64.4695C77.8072 66.1981 72.2166 69.7375 68.6246 70.1194L72.6249 62.471ZM67.4327 53.0283L67.65 52.7418C67.673 52.8142 67.7027 52.8834 67.729 52.9591L68.0912 53.4168L74.5082 57.1438C73.2768 58.148 72.3582 59.274 71.6832 60.321C69.6222 57.2393 67.6697 54.0786 67.5348 53.4003C67.515 53.2917 67.4755 53.1632 67.4327 53.0283ZM63.3402 64.5782C63.3237 64.2391 63.3105 63.9098 63.3007 63.5839C63.6562 62.7048 64.1764 61.7664 64.9041 61.1936C66.1355 60.2256 66.7446 57.9307 67.0475 55.9948C68.1801 57.9702 69.9053 60.5647 70.8042 61.8948C70.4848 62.5665 70.2708 63.1427 70.1391 63.5444C67.0211 63.8012 64.1534 66.0005 62.8529 67.1496L62.3557 66.3759L62.4578 66.2211C63.327 65.4935 63.3467 64.7165 63.3402 64.5782ZM65.635 49.4428C66.0992 49.9366 66.524 50.4832 66.8828 51.0857L66.6919 51.3425C66.3593 50.6972 65.9807 50.0288 65.635 49.4428ZM65.7239 53.0316C65.6416 55.277 65.0917 59.0008 63.9098 59.9292C63.6694 60.1202 63.4455 60.3375 63.2381 60.5713C63.2216 55.1552 63.7682 51.8792 64.1896 50.1572C64.7856 51.1614 65.3914 52.2611 65.7239 53.0316ZM101.924 46.1207C101.605 47.0327 100.43 50.3778 99.3695 52.9756C98.1217 56.0277 101.062 61.9837 101.888 63.5608L96.9463 77.5439C96.1034 76.7339 94.872 75.1964 94.6284 72.9246C94.3979 70.7779 93.3246 69.214 92.2841 68.167C93.7065 65.691 98.7044 56.7915 98.958 53.4826C99.2181 50.0782 97.5784 47.0788 95.4515 44.1287C96.9561 41.7483 98.3916 39.5555 99.5769 37.8863L101.924 46.1207ZM102.395 60.9137C101.329 58.5069 100.193 55.2079 100.854 53.5847C101.562 51.8529 102.316 49.7984 102.843 48.3332C103.238 49.344 103.653 50.605 103.781 51.6948C103.956 53.1764 103.05 57.8649 102.395 60.9137ZM104.47 64.6111L103.61 62.8398C103.768 62.1549 104.124 60.5779 104.476 58.7868C104.43 60.7622 104.443 62.8398 104.47 64.6111ZM101.793 35.1008C101.948 34.9494 110.403 26.5865 119.032 18.5892L117.132 21.8322C117.08 21.9343 111.723 31.9236 107.179 35.2029C104.473 37.1619 103.172 40.1021 102.543 42.4397L100.782 36.2598C101.174 35.7626 101.513 35.3675 101.793 35.1008ZM123.042 14.9115C126.15 12.0964 129.11 9.51516 131.527 7.5792C131.701 7.90515 131.883 8.24427 132.07 8.59657C132.574 9.5448 132.867 10.4469 133.002 11.3161C131.435 12.2841 126.325 15.57 121.129 20.3836C120.158 21.2857 119.151 22.2734 118.14 23.3369C118.364 22.9352 118.502 22.6751 118.535 22.6191L123.042 14.9115ZM48.8896 67.683C48.1093 66.8994 48.3891 65.724 48.6822 64.9963L50.3383 65.826C51.1219 66.7216 51.9812 68.0682 52.1261 68.967C51.2997 68.8979 49.8411 68.6411 48.8896 67.683ZM134.559 10.9112C134.391 9.92672 134.052 8.90606 133.486 7.8393C133.249 7.39482 133.025 6.97668 132.808 6.57171C133.292 6.20295 133.746 5.86712 134.164 5.5708H130.444C130.546 5.75847 130.648 5.94943 130.756 6.14698C129.235 7.35531 127.513 8.81058 125.673 10.4173L128.508 5.5708H126.648L121.791 13.8744C112.18 22.5697 101.384 33.2439 100.673 33.9485C100.469 34.1427 100.235 34.4028 99.9753 34.7123L98.418 32.6414C102.056 27.1397 111.008 11.8857 114.696 5.5708H112.523C108.233 11.2404 99.1917 22.2076 95.4943 26.6195C94.8391 21.1902 94.4967 10.9803 98.4641 8.32988C99.8831 7.37836 101.022 6.44659 101.931 5.5708H99.4979C98.9316 6.03504 98.2929 6.50915 97.5751 6.98985C91.7409 10.8881 93.7361 25.8754 94.1049 28.325C92.9459 30.0601 90.121 34.0176 88.4781 35.2029C88.4287 35.2391 88.376 35.2819 88.3233 35.328C86.0384 32.6414 83.8719 30.1424 83.1179 29.2732C84.7971 22.4677 92.0438 11.2503 95.919 5.5708H93.9699C90.2955 10.9968 84.4316 20.2222 82.1368 26.9487C81.3532 25.1708 80.3655 22.1319 81.0964 19.2378C81.6396 17.1076 83.0488 15.3757 85.2943 14.095C89.7457 11.5532 91.4972 8.31342 92.0932 5.5708H90.447C89.851 7.87223 88.2673 10.549 84.5008 12.6957C81.8602 14.2036 80.1942 16.2713 79.5423 18.8427C78.4558 23.1393 80.5432 27.5084 81.3038 28.9044L71.3869 44.2572L67.8805 36.5594C73.2011 17.0648 77.2343 8.94886 79.7103 5.5708H77.8072C75.0251 9.81148 71.1861 18.4278 66.4351 35.7495L60.4922 35.0613L59.6691 28.1208C61.3548 27.7323 63.5015 26.9323 64.5024 25.2893C65.4144 23.7945 65.0753 20.6437 64.4497 16.0046C64.1633 13.8711 63.732 10.6412 64.0645 10.065C64.6209 9.23201 65.6185 7.32897 66.5042 5.5708H64.7032C63.946 7.0557 63.1722 8.50767 62.7311 9.16946C62.0824 10.1473 62.3426 12.373 62.8595 16.2186C63.2644 19.2213 63.8143 23.3303 63.1327 24.453C62.4775 25.5264 60.9136 26.1585 59.5045 26.5075C59.2542 23.6727 58.5727 15.2177 58.9777 11.9582C59.2806 9.54809 60.726 7.06558 61.7367 5.5708H59.8172C58.8065 7.20715 57.6706 9.47236 57.3841 11.7573C56.9462 15.2737 57.6738 24.0579 57.9208 26.8038C57.664 26.8335 57.4368 26.8565 57.259 26.8664L56.5116 27.5414L56.3371 28.618C55.435 27.1035 54.4966 25.5099 53.5879 23.9295C54.4505 20.3967 54.6975 8.70193 54.5592 7.67468C54.5559 7.39811 54.816 6.53878 55.1584 5.5708H53.4529C53.1138 6.58488 52.8866 7.49689 52.9755 7.93478C53.0644 8.61961 52.913 17.2689 52.3434 21.7433C50.1144 17.7792 48.2838 14.23 47.9907 12.8142C47.487 10.3646 49.2254 7.30922 50.414 5.5708H48.4945C47.2499 7.58908 45.8836 10.5358 46.4202 13.1402C46.7989 14.9773 49.2287 19.5539 51.8627 24.1534C51.2799 26.3396 50.8091 30.9951 50.4601 34.4456C50.2955 36.0919 50.1374 37.6459 50.0551 37.9719C50.0452 38.018 49.0542 42.8249 50.2197 44.1386L50.2395 44.1617L50.2658 44.1913C50.6049 44.5469 53.7459 49.0213 56.4556 54.4736C55.4613 58.497 56.6828 62.8134 57.8352 65.6482C56.854 65.6548 55.7576 65.8162 55.0728 66.4022L48.6822 63.1954L47.645 63.4851C47.5627 63.6168 45.6498 66.7117 47.7537 68.8222C49.1793 70.2511 51.2371 70.5375 52.2413 70.5902C52.3697 71.0347 52.5047 71.8183 52.2841 72.8423L52.396 73.5403L52.6101 73.9156L53.364 73.8893L53.6768 73.537C53.7031 73.5073 56.3042 70.5573 60.7885 71.7459C61.6215 72.7106 63.215 73.3361 64.4859 73.8333C64.746 73.9354 64.9996 74.0341 65.1971 74.1197C65.4671 75.4532 65.9807 76.9183 66.9421 77.1685C67.0211 77.1883 67.1232 77.2048 67.2417 77.2048C67.5479 77.2048 67.9595 77.0862 68.3513 76.5924C69.0888 75.6738 70.1819 74.607 71.2289 74.7288C72.2035 74.8441 72.9377 75.9931 73.1385 76.4244H73.1418C73.2011 76.5529 73.29 76.6681 73.4151 76.7537L86.6771 85.8508L87.2368 85.9825C87.4146 85.9594 90.8157 85.4787 93.2686 83.8193C93.2455 85.5643 93.5781 87.7439 95.3 88.2016C97.2689 88.7284 100.812 86.9537 102.208 86.1866C103.176 87.1151 105.454 89.0609 107.538 89.0609C107.564 89.0609 107.587 89.0609 107.611 89.0609C108.473 89.0411 109.227 88.6823 109.793 88.0238C110.607 87.0788 110.725 85.8047 110.113 84.5305C109.444 83.1312 108.104 82.0974 106.751 81.8603C107.406 79.9671 108.058 75.9339 106.188 68.618L106.195 68.5917L106.168 68.3481C105.981 62.8694 105.961 53.9897 106.692 52.5212C107.525 50.8519 108.401 46.6277 108.845 44.2769C108.928 44.1617 108.983 44.0234 109 43.8719C109.036 43.4637 109.089 43.0587 109.151 42.6537C109.546 41.6232 112.391 34.5345 116.161 32.7336C120.721 30.5572 130.766 23.5805 132.528 19.7514C133.588 17.4533 134.668 15.1025 134.688 12.5212L134.559 10.9112Z" fill="#444444"/>
<path id="Vector_8" d="M86.8022 8.72812V5.78467H86.0845L86.8022 8.72812Z" fill="#393536"/>
<g id="Clip path group">
<mask id="mask0_1975_3157" style="mask-type:luminance" maskUnits="userSpaceOnUse" x="137" y="10" width="25" height="16">
<g id="b65649973f">
<path id="Vector_9" d="M137.927 10.9575H161.468V25.2863H137.927V10.9575Z" fill="white"/>
</g>
</mask>
<g mask="url(#mask0_1975_3157)">
<g id="Group">
<path id="Vector_10" d="M161.416 24.8255H159.552L138.517 11.3462L161.416 24.8255Z" fill="#393536"/>
</g>
</g>
</g>
<g id="Clip path group_2">
<mask id="mask1_1975_3157" style="mask-type:luminance" maskUnits="userSpaceOnUse" x="137" y="0" width="25" height="26">
<g id="da30f5377a">
<path id="Vector_11" d="M137.927 0H161.468V25.2861H137.927V0Z" fill="white"/>
</g>
</mask>
<g mask="url(#mask1_1975_3157)">
<g id="Group_2">
<path id="Vector_12" d="M161.415 -0.00341797H138.306V11.1778H161.415V-0.00341797ZM161.415 11.1778V24.825L138.306 11.1778H161.415Z" fill="#C41E25"/>
</g>
</g>
</g>
<path id="Vector_13" d="M135.847 14.0228H94.4143C92.9393 14.0228 91.7441 12.8243 91.7441 11.346V5.56446C91.7441 4.08615 92.9393 2.8877 94.4143 2.8877H135.847C137.322 2.8877 138.517 4.08615 138.517 5.56446V11.346C138.517 12.8243 137.322 14.0228 135.847 14.0228Z" fill="#DC1E25"/>
<path id="Vector_14" d="M91.8165 11.9616V5.77832H90.3086L91.8165 11.9616Z" fill="#DC1E25"/>
<g id="Clip path group_3">
<mask id="mask2_1975_3157" style="mask-type:luminance" maskUnits="userSpaceOnUse" x="42" y="0" width="100" height="6">
<g id="0152be6b5e">
<path id="Vector_15" d="M42.2026 0H141.299V5.90008H42.2026V0Z" fill="white"/>
</g>
</mask>
<g mask="url(#mask2_1975_3157)">
<g id="Group_3">
<path id="Vector_16" d="M138.306 5.77814H45.1855C43.5919 5.77814 42.3013 4.4842 42.3013 2.88736C42.3013 1.29381 43.5919 -0.00341797 45.1855 -0.00341797H138.306C139.896 -0.00341797 141.187 1.29381 141.187 2.88736C141.187 4.4842 139.896 5.77814 138.306 5.77814Z" fill="#DC1E25"/>
</g>
</g>
</g>
<g id="Clip path group_4">
<mask id="mask3_1975_3157" style="mask-type:luminance" maskUnits="userSpaceOnUse" x="42" y="0" width="100" height="6">
<g id="82abac0a52">
<path id="Vector_17" d="M42.2026 0.842773H141.299V5.05712H42.2026V0.842773Z" fill="white"/>
</g>
</mask>
<g mask="url(#mask3_1975_3157)">
<g id="Group_4">
<path id="Vector_18" d="M140.792 1.51123V4.26702C141.013 4.26702 141.194 3.64803 141.194 2.88748C141.194 2.12692 141.013 1.51123 140.792 1.51123ZM42.2456 2.88748C42.2456 3.64803 42.4234 4.26702 42.6473 4.26702V1.51123C42.4234 1.51123 42.2456 2.12692 42.2456 2.88748ZM140.792 4.26702H42.6473V1.51123H140.792V4.26702Z" fill="#E32228"/>
</g>
</g>
</g>
<path id="Vector_19" d="M90.3086 5.77832H138.517V6.19975H90.4107L90.3086 5.77832Z" fill="#393536"/>
</g>
<defs>
<clipPath id="clip0_1975_3157">
<rect width="204" height="119.477" fill="white"/>
</clipPath>
</defs>
</svg>
