<svg width="200" height="165" viewBox="0 0 200 165" fill="none" xmlns="http://www.w3.org/2000/svg">
<path fill-rule="evenodd" clip-rule="evenodd" d="M8.703 122.606H21.7227L21.4464 123.934H8.42664L8.703 122.606ZM4.37154 143.414H17.3913L17.1149 144.742H4.09519L4.37154 143.414ZM2.92772 150.348H15.9475L15.6711 151.677H2.65137L2.92772 150.348ZM5.81536 136.477H18.8351L18.5587 137.808H5.539L5.81536 136.477ZM10.1468 115.671H23.1666L22.8902 117H9.87046L10.1468 115.671ZM7.25918 129.543H20.2789L20.0026 130.871H6.98282L7.25918 129.543ZM11.5906 108.734H24.7006C24.5822 109.019 24.4835 109.349 24.4045 109.73L24.334 110.063H11.3143L11.5906 108.734Z" fill="#BDBDBD"/>
<path fill-rule="evenodd" clip-rule="evenodd" d="M15.1968 156.899C15.1263 157.246 14.7738 157.438 14.4128 157.325C14.0519 157.215 13.815 156.84 13.8883 156.493L33.2389 63.3867C33.3094 63.0371 33.6619 62.8453 34.0228 62.9581C34.3838 63.0681 34.6206 63.4431 34.5473 63.79L15.1968 156.899Z" fill="#BDBDBD"/>
<path fill-rule="evenodd" clip-rule="evenodd" d="M17.3431 80.9973H30.3628L30.0836 82.3255H17.0667L17.3431 80.9973ZM13.0088 101.803H26.0285L25.7522 103.134H12.7324L13.0088 101.803ZM14.4554 94.8687H27.4723L27.196 96.1969H14.1762L14.4554 94.8687ZM18.7869 74.0603H31.8066L31.5303 75.3913H18.5105L18.7869 74.0603ZM15.8992 87.9316H28.919L28.6398 89.2626H15.6229L15.8992 87.9316ZM20.2307 67.126H33.3378C33.2222 67.408 33.1235 67.7407 33.0418 68.1214L32.9741 68.4542H19.9543L20.2307 67.126Z" fill="#BDBDBD"/>
<mask id="mask0_2016_2744" style="mask-type:luminance" maskUnits="userSpaceOnUse" x="0" y="62" width="22" height="96">
<path d="M0 62.9214H21.3725V157.491H0V62.9214Z" fill="white"/>
</mask>
<g mask="url(#mask0_2016_2744)">
<path fill-rule="evenodd" clip-rule="evenodd" d="M1.60999 156.899C1.53667 157.246 1.18699 157.438 0.823218 157.325C0.462264 157.215 0.228207 156.84 0.301526 156.493L19.6662 63.3867C19.7367 63.0371 20.0892 62.8453 20.4501 62.9581C20.8111 63.0681 21.0479 63.4431 20.9746 63.79L1.60999 156.899Z" fill="#BDBDBD"/>
</g>
<path fill-rule="evenodd" clip-rule="evenodd" d="M46.2412 28.8622L46.6811 29.4854L47.4905 28.7494C47.6709 28.6902 48.2293 28.4758 48.3364 28.332C48.5508 28.0472 48.6918 27.6834 48.9202 27.3817C49.0076 27.2661 49.4362 26.9869 49.157 27.001C48.8412 27.0179 48.5197 27.1928 48.2293 27.5227C48.156 27.6073 47.5807 27.8808 47.5807 27.878C47.5807 27.8132 47.7781 27.3986 47.9219 27.1533C48.108 26.8374 47.2113 27.5932 47.0872 28.2615L46.2412 28.8622Z" fill="#FDCFB9"/>
<path fill-rule="evenodd" clip-rule="evenodd" d="M47.5137 29.0795C45.551 31.5751 41.3323 36.0532 40.2156 36.9528C39.4345 37.5393 33.2785 39.801 32.5284 39.9278C30.1653 40.3311 28.0221 39.3131 27.7373 37.655C27.5596 36.6172 28.1518 35.5738 29.198 34.8406C29.2855 34.7448 29.3983 34.6686 29.5421 34.6179C30.1033 34.2908 30.7716 34.0426 31.5019 33.9185C32.2549 33.7916 33.3631 33.8706 34.6152 33.958L39.0707 33.4899C39.0369 33.5012 43.8505 29.8521 46.6282 28.1855C46.8764 28.5296 47.1753 28.8313 47.5137 29.0795Z" fill="#582DA6"/>
<path fill-rule="evenodd" clip-rule="evenodd" d="M12.9436 70.9922L13.8347 71.7056L11.9341 74.0744L11.043 73.361L12.9436 70.9922Z" fill="#E2E7E7"/>
<path fill-rule="evenodd" clip-rule="evenodd" d="M13.387 71.3452L13.8354 71.7062L11.9347 74.0749L11.4863 73.7168L13.387 71.3452Z" fill="#EBEFF0"/>
<path fill-rule="evenodd" clip-rule="evenodd" d="M11.0739 74.3396C10.9385 74.365 10.8088 74.3791 10.6904 74.3791C10.555 74.2635 10.4281 74.145 10.3125 74.0266C10.5889 73.6656 10.9132 73.3272 11.2741 73.0537C11.5448 73.3301 11.8466 73.581 12.168 73.7982C12.2442 74.475 12.5685 75.3661 12.9435 75.9357C12.9604 75.9611 12.9604 75.9949 12.9407 76.0231C12.9181 76.0513 12.8758 76.057 12.8448 76.0372C12.137 75.5832 11.5082 75.0784 11.0739 74.3396Z" fill="#3C0431"/>
<path fill-rule="evenodd" clip-rule="evenodd" d="M11.5479 72.5515C15.2561 62.0782 18.358 66.1586 20.0359 53.8072C21.6518 41.9268 40.4552 45.4094 29.4433 56.9176C24.9342 61.6326 16.573 70.9751 12.6758 73.4539C12.2839 73.1747 11.906 72.873 11.5479 72.5515Z" fill="#174ECF"/>
<path fill-rule="evenodd" clip-rule="evenodd" d="M11.5479 72.552C15.2561 62.0787 18.358 66.1592 20.0359 53.8077C21.1047 45.957 29.6717 44.8177 32.1899 48.2665C32.5255 49.9134 31.5385 52.3752 28.2533 55.5533C23.7921 59.8735 16.3869 69.2273 11.9737 72.9186C11.8298 72.8002 11.686 72.6761 11.5479 72.552Z" fill="#123FA6"/>
<path fill-rule="evenodd" clip-rule="evenodd" d="M26.0342 77.2188L27.1763 77.2075L27.1988 80.2474L26.0567 80.2559L26.0342 77.2188Z" fill="#E2E7E7"/>
<path fill-rule="evenodd" clip-rule="evenodd" d="M26.5977 77.2132L27.1757 77.2075L27.1983 80.2474L26.623 80.2503L26.5977 77.2132Z" fill="#EBEFF0"/>
<path fill-rule="evenodd" clip-rule="evenodd" d="M26.6996 80.9947C26.6093 81.099 26.5163 81.1893 26.426 81.2654C26.2484 81.2598 26.0764 81.2485 25.91 81.2287C25.8959 80.7775 25.9354 80.3094 26.0425 79.8667C26.426 79.9118 26.818 79.9175 27.2043 79.8836C27.6894 80.363 28.5043 80.848 29.1557 81.0511C29.1868 81.0595 29.2093 81.0877 29.2093 81.1216C29.2093 81.1582 29.1811 81.1893 29.1445 81.1921C28.3069 81.288 27.5033 81.2936 26.6996 80.9947Z" fill="#3C0431"/>
<path fill-rule="evenodd" clip-rule="evenodd" d="M25.9351 79.1191C23.414 68.2989 28.0642 69.7315 22.083 58.7957C15.0529 45.9367 35.193 40.2319 32.5817 56.3141C31.5383 62.7521 29.319 75.0865 27.3733 79.2714C26.891 79.2488 26.4088 79.1952 25.9351 79.1191Z" fill="#174ECF"/>
<path fill-rule="evenodd" clip-rule="evenodd" d="M25.9352 79.1191C23.4141 68.2989 28.0642 69.7314 22.0831 58.7957C18.812 52.8117 21.4232 48.3815 24.8862 46.9688C27.3734 48.0516 29.3812 51.0351 29.1048 56.4664C28.789 62.7351 27.9909 74.5028 26.6035 79.2093C26.3779 79.1868 26.1551 79.1557 25.9352 79.1191Z" fill="#1B4DC2"/>
<path fill-rule="evenodd" clip-rule="evenodd" d="M31.7586 33.8081C28.5072 33.0016 23.9304 39.6341 21.5391 48.6213C21.4404 48.9879 21.3501 49.3517 21.2627 49.7127C22.8842 50.2795 24.3195 50.7222 26.3443 51.2242C28.3662 51.7261 31.0085 52.214 33.1855 52.4847C34.2683 48.7285 36.733 35.0461 31.7586 33.8081Z" fill="#582DA6"/>
<path fill-rule="evenodd" clip-rule="evenodd" d="M25.1259 50.9087C25.5094 51.013 25.9155 51.1173 26.3441 51.2245C28.366 51.7264 31.0083 52.2143 33.1854 52.485C34.0454 49.5015 35.7797 40.2408 33.9552 35.946C32.8695 35.6217 31.389 33.9071 30.6079 34.2399C25.8817 36.2392 23.0786 49.493 25.1259 50.9087Z" fill="#8645CC"/>
<path fill-rule="evenodd" clip-rule="evenodd" d="M30.1845 34.0059C29.832 34.1299 29.502 34.2907 29.237 34.4401L29.2031 34.4853V34.4881C29.5838 34.8716 30.0378 35.2156 30.5398 35.4807C31.5183 35.9939 32.4827 36.1208 33.2216 35.8981C33.5487 35.3848 33.2808 35.0577 32.745 34.928C32.745 34.928 31.0276 34.5106 30.8331 34.4063C30.6075 34.285 30.3903 34.1525 30.1845 34.0059Z" fill="#582DA6"/>
<path fill-rule="evenodd" clip-rule="evenodd" d="M34.7588 41.1883C34.756 38.9239 34.4768 36.8399 33.7182 35.4525L33.707 35.4328C33.7041 35.4271 33.7013 35.4215 33.6985 35.4159C33.6224 35.2833 33.5434 35.1564 33.4588 35.038C32.9879 34.9957 32.5677 34.9759 32.2152 34.9929C29.9423 35.1028 28.3801 36.6172 28.7269 38.374C29.0709 40.1336 31.1916 41.4703 33.4644 41.3631C33.879 41.3434 34.3132 41.2785 34.7588 41.1883Z" fill="#582DA6"/>
<path fill-rule="evenodd" clip-rule="evenodd" d="M29.2062 34.4769C29.6038 34.7589 30.0747 34.9845 30.5992 35.1255C31.6144 35.3962 32.6183 35.2975 33.3825 34.9168C33.7181 34.3444 33.4389 34.0906 32.8806 34.0906C32.8806 34.0906 31.0984 34.0793 30.8953 34.0257C30.5372 33.9298 30.2044 33.7917 29.9027 33.6253C29.3838 33.5886 29.1469 33.865 29.2062 34.4769Z" fill="#582DA6"/>
<path fill-rule="evenodd" clip-rule="evenodd" d="M33.6454 31.344L30.6252 30.6108C30.4871 31.6486 30.2643 32.6581 29.9033 33.6254C30.2051 33.7918 30.5378 33.9299 30.8959 34.0258C31.5868 34.2091 32.2721 34.2232 32.8812 34.0907C32.8784 33.2249 33.1745 32.2605 33.6454 31.344Z" fill="#FDCFB9"/>
<path fill-rule="evenodd" clip-rule="evenodd" d="M33.6451 31.3434L32.2182 30.9966C32.2211 31.1009 32.128 31.0332 32.4156 31.4224C32.5425 31.5916 32.864 31.992 33.2193 32.3191C33.3349 31.992 33.4788 31.6649 33.6451 31.3434Z" fill="#CCA293"/>
<path fill-rule="evenodd" clip-rule="evenodd" d="M32.639 31.0673C32.5826 31.1519 32.5093 31.2393 32.4219 31.3295C32.4332 31.431 32.4021 31.4846 32.7264 31.7018C33.0507 31.9189 34.5171 32.748 34.9373 31.7187C35.3603 30.6866 35.0529 29.2625 34.4974 28.6055C34.7399 28.1345 34.6271 27.8441 34.3 27.187C34.0039 27.3816 33.7162 27.5169 33.5245 27.5987C34.19 28.5575 33.626 29.3471 33.0874 29.6376C32.9238 29.7081 32.7293 29.677 32.6616 29.756C32.4191 30.2015 32.8674 30.7204 32.639 31.0673Z" fill="#FDCFB9"/>
<path fill-rule="evenodd" clip-rule="evenodd" d="M30.9664 25.7715C30.2332 25.1709 28.3777 26.4906 28.9727 27.3902C25.6452 28.411 30.253 32.1164 30.5152 32.2715C31.0256 32.5732 32.4102 31.6793 32.7515 31.0928C32.8558 30.9151 32.7148 30.588 32.681 30.2693C32.633 29.8097 32.7543 29.7843 33.087 29.6377C33.5523 29.429 33.9669 29.1075 34.0486 28.803C34.1727 28.3433 33.9471 27.8639 33.5241 27.5988C34.0007 27.3902 35.1061 26.8516 35.3627 25.8928C35.6222 24.9312 32.9911 23.1405 32.9009 24.322C32.8614 24.8381 32.3567 25.4331 31.6714 25.5177C31.0736 25.5938 31.4656 26.1832 30.9664 25.7715Z" fill="#3B3F4E"/>
<path fill-rule="evenodd" clip-rule="evenodd" d="M159.371 121.616H173.668L173.208 123.041H158.911L159.371 121.616ZM152.16 143.917H166.457L165.998 145.341H151.7L152.16 143.917ZM149.757 151.347H164.055L163.595 152.771H149.295L149.757 151.347ZM154.563 136.483H168.863L168.4 137.907H154.103L154.563 136.483ZM161.773 114.186H176.073L175.611 115.61H161.314L161.773 114.186ZM156.968 129.05H171.265L170.806 130.474H156.506L156.968 129.05ZM164.542 106.752H178.569C178.411 107.057 178.264 107.409 178.132 107.818L178.016 108.177H163.719C163.93 107.539 164.165 107.116 164.401 106.899C164.466 106.84 164.514 106.809 164.542 106.809V106.752Z" fill="#BDBDBD"/>
<mask id="mask1_2016_2744" style="mask-type:luminance" maskUnits="userSpaceOnUse" x="161" y="101" width="39" height="56">
<path d="M161.979 101.538H200V156.702H161.979V101.538Z" fill="white"/>
</mask>
<g mask="url(#mask1_2016_2744)">
<path fill-rule="evenodd" clip-rule="evenodd" d="M198.615 156.085C198.733 156.46 199.133 156.666 199.509 156.544C199.881 156.423 200.087 156.026 199.965 155.651L183.268 104.017C182.969 103.092 182.589 102.435 182.171 102.052C181.83 101.739 181.458 101.583 181.066 101.583C180.674 101.583 180.302 101.739 179.963 102.052C179.543 102.435 179.163 103.092 178.864 104.017L162.167 155.651C162.045 156.026 162.251 156.423 162.626 156.544C162.999 156.666 163.399 156.46 163.52 156.085L180.217 104.451C180.437 103.772 180.68 103.321 180.925 103.098C180.99 103.039 181.038 103.008 181.066 103.008C181.094 103.008 181.142 103.039 181.207 103.098C181.452 103.321 181.695 103.772 181.915 104.451L198.615 156.085Z" fill="#BDBDBD"/>
</g>
<path fill-rule="evenodd" clip-rule="evenodd" d="M184.003 156.084C184.124 156.459 184.525 156.665 184.897 156.544C185.272 156.423 185.478 156.025 185.356 155.65L168.66 104.017C168.361 103.092 167.98 102.435 167.56 102.051C167.221 101.738 166.846 101.583 166.457 101.583C166.065 101.583 165.693 101.738 165.352 102.051C164.934 102.435 164.554 103.092 164.255 104.017L147.555 155.65C147.437 156.025 147.642 156.423 148.015 156.544C148.39 156.665 148.79 156.459 148.909 156.084L165.608 104.451C165.828 103.771 166.071 103.32 166.316 103.097C166.381 103.038 166.429 103.007 166.457 103.007C166.485 103.007 166.533 103.038 166.598 103.097C166.843 103.32 167.086 103.771 167.306 104.451L184.003 156.084Z" fill="#BDBDBD"/>
<path fill-rule="evenodd" clip-rule="evenodd" d="M186.732 119.335H172.779L173.239 120.759H187.192L186.732 119.335ZM193.943 141.635H179.99L180.449 143.059H194.402L193.943 141.635ZM196.345 149.066H182.392L182.855 150.49H196.805L196.345 149.066ZM191.537 134.202H177.584L178.047 135.626H192L191.537 134.202ZM184.327 111.904H170.373L170.836 113.328H184.786L184.327 111.904ZM189.135 126.768H175.182L175.641 128.192H189.594L189.135 126.768ZM181.924 104.471H167.875C168.036 104.772 168.182 105.128 168.315 105.537L168.431 105.895H182.384L181.924 104.471Z" fill="#BDBDBD"/>
<path fill-rule="evenodd" clip-rule="evenodd" d="M177.993 100.001L176.724 99.9844L176.682 103.36L177.951 103.374L177.993 100.001Z" fill="#E3E7E7"/>
<path fill-rule="evenodd" clip-rule="evenodd" d="M177.364 99.9928L176.724 99.9844L176.682 103.36L177.322 103.368L177.364 99.9928Z" fill="#ECEFF1"/>
<path fill-rule="evenodd" clip-rule="evenodd" d="M177.234 104.192C177.333 104.31 177.434 104.412 177.536 104.496C177.733 104.493 177.925 104.479 178.108 104.46C178.125 103.955 178.086 103.436 177.97 102.945C177.542 102.993 177.107 102.996 176.679 102.954C176.134 103.484 175.226 104.02 174.502 104.242C174.468 104.254 174.445 104.282 174.442 104.319C174.442 104.361 174.473 104.395 174.513 104.4C175.443 104.508 176.337 104.519 177.234 104.192Z" fill="#3C3F4E"/>
<path fill-rule="evenodd" clip-rule="evenodd" d="M178.038 102.094C180.858 90.078 175.595 92.0717 181.357 79.4778C186.763 67.6593 167.285 59.4166 170.694 76.7452C172.093 83.8544 174.284 97.6045 176.439 102.26C176.972 102.235 177.507 102.178 178.038 102.094Z" fill="#EF862D"/>
<path fill-rule="evenodd" clip-rule="evenodd" d="M174.872 99.936L173.605 99.9924L173.761 103.365L175.03 103.306L174.872 99.936Z" fill="#E3E7E7"/>
<path fill-rule="evenodd" clip-rule="evenodd" d="M174.246 99.9648L173.605 99.993L173.761 103.366L174.401 103.335L174.246 99.9648Z" fill="#ECEFF1"/>
<path fill-rule="evenodd" clip-rule="evenodd" d="M174.361 104.164C174.465 104.274 174.572 104.37 174.679 104.449C174.877 104.434 175.066 104.409 175.249 104.378C175.235 103.873 175.164 103.36 175.02 102.875C174.597 102.948 174.163 102.977 173.732 102.962C173.221 103.521 172.344 104.11 171.634 104.375C171.603 104.386 171.58 104.418 171.58 104.454C171.583 104.496 171.617 104.527 171.656 104.53C172.592 104.584 173.486 104.544 174.361 104.164Z" fill="#3C3F4E"/>
<path fill-rule="evenodd" clip-rule="evenodd" d="M175.105 102.249C178.627 90.4188 173.374 91.6934 180.742 79.9681C189.403 66.1813 167.452 58.5025 169.265 76.5136C169.993 83.7214 171.626 97.5477 173.501 102.322C174.037 102.327 174.575 102.302 175.105 102.249Z" fill="#FEC105"/>
<path fill-rule="evenodd" clip-rule="evenodd" d="M171.973 73.547C171.942 73.64 171.913 73.7331 171.885 73.8261C171.454 75.3094 171.27 77.1424 171.437 79.3617C171.758 83.634 172.336 90.227 173.12 95.8839C173.45 98.2724 173.82 100.497 174.22 102.311C174.288 102.308 174.358 102.305 174.429 102.299C174.026 100.489 173.656 98.2526 173.323 95.85C172.542 90.196 171.964 83.6086 171.643 79.342C171.479 77.1481 171.657 75.3405 172.083 73.8797C172.119 73.7585 172.156 73.64 172.195 73.5244C172.119 73.5301 172.046 73.5385 171.973 73.547Z" fill="#EF862D"/>
<path fill-rule="evenodd" clip-rule="evenodd" d="M176.228 57.9639C178.565 59.2329 181.188 58.9312 182.082 57.2872C182.976 55.6431 181.803 53.2828 179.465 52.0138C177.657 51.0297 173.769 50.0963 171.217 48.9175C171.611 49.1375 166.659 45.0373 163.4 42.77C163.078 43.272 162.709 43.726 162.3 44.1349C164.612 47.1325 168.585 51.5091 169.124 51.9856C171.208 53.6776 173.845 56.6696 176.228 57.9639Z" fill="#E32EA6"/>
<path fill-rule="evenodd" clip-rule="evenodd" d="M179.186 52.0392C182.463 52.6399 184.561 58.2967 184.347 63.9958C184.16 68.9674 183.01 74.455 182.669 76.2514C178.219 76.1809 171.919 74.6609 167.805 73.1212C168.431 68.8095 173.563 51.0071 179.186 52.0392Z" fill="#EC3CB4"/>
<path fill-rule="evenodd" clip-rule="evenodd" d="M171.465 60.9476C172.373 58.7621 173.408 56.6922 174.527 55.0905C175.596 54.8988 176.558 54.7549 177.274 54.7465C179.877 54.7183 181.676 56.2467 181.292 58.1614C180.906 60.0762 178.484 61.6554 175.878 61.6864C174.524 61.7005 172.982 61.3536 171.465 60.9476Z" fill="#E32EA6"/>
<path fill-rule="evenodd" clip-rule="evenodd" d="M181.735 47.9167L178.179 52.8488C176.916 54.6028 180.571 55.7252 181.603 53.8273L183.935 49.5354C184.964 47.6347 182.999 46.1655 181.735 47.9167Z" fill="#ECC1AB"/>
<path fill-rule="evenodd" clip-rule="evenodd" d="M181.735 47.9164L178.636 52.2168C179.468 52.8513 181.202 52.8739 181.862 51.6585L184.008 47.7021C183.565 46.983 182.516 46.8335 181.735 47.9164Z" fill="#CCA293"/>
<path fill-rule="evenodd" clip-rule="evenodd" d="M183.884 46.5295C183.45 46.349 182.923 46.5379 182.469 46.9722C182.587 47.0596 182.7 47.1555 182.804 47.2542C182.951 47.4911 183.12 47.7872 183.109 48.1453L183.072 49.1915C181.939 52.6573 184.327 50.9343 184.305 49.1267C184.288 47.8915 184.592 46.8256 183.884 46.5295Z" fill="#3C3F4E"/>
<path fill-rule="evenodd" clip-rule="evenodd" d="M178.933 46.7041C178.084 49.0588 178.247 51.3148 179.499 51.8195C180.416 52.1889 181.609 51.5065 182.551 50.2093C182.573 50.2827 182.615 50.3362 182.675 50.3588C182.835 50.4265 183.064 50.2375 183.185 49.9386C183.301 49.6482 183.272 49.3605 183.123 49.2844C183.247 49.0475 183.363 48.7994 183.47 48.5371C183.557 48.32 183.633 48.1028 183.701 47.8885C184.259 46.1373 179.973 43.8165 178.933 46.7041Z" fill="#FECFB9"/>
<path fill-rule="evenodd" clip-rule="evenodd" d="M179.428 50.5475C179.403 50.5475 179.383 50.57 179.383 50.5954C179.386 50.6123 179.394 50.6264 179.408 50.6349C179.566 50.7421 179.764 50.7533 179.958 50.6885C180.15 50.6236 180.336 50.4854 180.474 50.2852C180.491 50.2655 180.491 50.2373 180.471 50.2204C180.452 50.2034 180.423 50.2034 180.406 50.2232L180.401 50.2288C180.274 50.4149 180.102 50.5418 179.93 50.6011C179.761 50.6575 179.591 50.6462 179.459 50.5588C179.45 50.5503 179.439 50.5475 179.428 50.5475Z" fill="#CCA293"/>
<path fill-rule="evenodd" clip-rule="evenodd" d="M179.586 47.7021C179.589 47.6767 179.569 47.6542 179.544 47.6514C179.519 47.6514 179.496 47.6711 179.493 47.6965C179.479 47.8685 179.352 48.0997 179.225 48.3338C179.093 48.5791 178.957 48.8273 178.946 49.0219C178.935 49.2249 179.05 49.3687 179.411 49.3885C179.437 49.3885 179.459 49.3715 179.459 49.3462C179.462 49.3208 179.442 49.2982 179.417 49.2954C179.124 49.2813 179.031 49.1741 179.039 49.0247C179.048 48.8527 179.177 48.6158 179.307 48.3789C179.44 48.1364 179.572 47.8939 179.586 47.7021Z" fill="#CCA293"/>
<path fill-rule="evenodd" clip-rule="evenodd" d="M184.908 47.3242C185.359 46.6249 184.812 45.4715 183.687 44.7496C182.562 44.0249 181.287 44.0023 180.836 44.6989C180.387 45.3954 180.932 46.5488 182.057 47.2735C183.182 47.9982 184.459 48.0208 184.908 47.3242Z" fill="#3C3F4E"/>
<path fill-rule="evenodd" clip-rule="evenodd" d="M182.618 47.209C183.026 46.5773 182.53 45.5311 181.512 44.8768C180.491 44.2198 179.335 44.1972 178.926 44.8317C178.52 45.4634 179.014 46.5068 180.035 47.1638C181.053 47.8209 182.212 47.8434 182.618 47.209Z" fill="#3C3F4E"/>
<path fill-rule="evenodd" clip-rule="evenodd" d="M184.995 49.0247C185.401 48.393 184.905 47.3468 183.887 46.6897C182.869 46.0327 181.71 46.0129 181.303 46.6446C180.895 47.2763 181.391 48.3225 182.409 48.9795C183.43 49.6366 184.586 49.6563 184.995 49.0247Z" fill="#3C3F4E"/>
<path fill-rule="evenodd" clip-rule="evenodd" d="M141.071 113.193C141.069 113.517 141.125 113.76 141.263 114.053C141.754 114.983 146.683 120.045 147.351 120.519C149.458 122.008 152.016 122.014 153.065 120.533C154.111 119.053 153.254 116.644 151.147 115.155C149.872 114.253 146.099 113.401 143.7 112.11L141.071 113.193Z" fill="#B586AB"/>
<path fill-rule="evenodd" clip-rule="evenodd" d="M141.015 113.385C141.151 113.667 141.303 113.856 141.545 114.047C143.125 115.221 144.791 113.782 143.821 111.315C142.862 108.887 138.565 102.731 138.556 102.706C138.669 102.536 138.762 102.333 138.79 102.206C138.852 101.992 138.852 101.132 138.675 101.132C138.587 101.132 138.494 101.358 138.491 101.713C138.491 102.113 138.271 101.902 138.212 101.665C138.145 101.408 137.795 100.151 137.634 100.201C137.575 100.221 137.606 100.495 137.705 100.856C137.823 101.307 137.832 101.499 137.64 100.878C137.49 100.407 137.313 100.044 137.245 100.063C137.175 100.086 137.239 100.486 137.386 100.96C137.547 101.473 137.586 101.628 137.332 100.988C137.22 100.695 137.107 100.5 137.056 100.517C136.986 100.537 137.127 101.14 137.211 101.406C137.293 101.665 137.251 101.563 137.177 101.42C137.014 101.101 136.915 100.864 136.867 100.881C136.811 100.901 136.878 101.304 137.048 101.769C137.18 102.133 137.448 102.785 137.868 102.962C138.773 105.793 139.428 109.662 141.015 113.385Z" fill="#ECC1AB"/>
<path fill-rule="evenodd" clip-rule="evenodd" d="M149.334 110.714C148.677 112.09 149.686 113.292 149.802 116.219C149.906 118.903 147.476 119.07 147.656 122.017C148.169 130.361 162.015 127.563 163.479 128.184C165.363 128.979 169.539 125.869 167.965 123.962C165.924 121.498 169.347 118.167 165.845 114.606C163.848 112.578 158.705 115.782 159.006 113.889C159.449 111.086 157.842 109.781 156.917 108.664C155.639 107.124 153.479 107 152.185 107.576C150.871 108.159 149.495 110.379 149.334 110.714Z" fill="#3B3F4E"/>
<path fill-rule="evenodd" clip-rule="evenodd" d="M155.292 110.32C155.636 110.54 156.056 110.858 156.445 111.231C157.083 111.843 157.638 112.604 157.663 113.334C157.669 113.518 157.641 113.698 157.573 113.87C157.438 114.225 157.596 114.902 157.92 115.475C158.067 115.737 158.25 115.979 158.453 116.154C158.65 116.326 158.87 116.439 159.099 116.448C159.33 116.459 159.575 116.363 159.815 116.118C159.987 115.943 160.165 115.869 160.334 115.875C160.509 115.878 160.678 115.968 160.825 116.118C160.966 116.261 161.093 116.465 161.191 116.701C161.448 117.322 161.527 118.188 161.25 118.892C160.932 119.71 161.437 119.958 161.953 120.212C162.488 120.477 163.038 120.745 162.801 121.597C162.618 122.257 163.024 122.64 163.442 123.032C163.757 123.331 164.079 123.633 164.18 124.067C164.209 124.186 164.257 124.214 164.327 124.197C164.389 124.183 164.468 124.14 164.558 124.092C165.007 123.858 165.743 123.475 166.685 124.882C166.755 124.989 167.319 125.711 167.807 126.247C167.787 126.278 167.765 126.306 167.745 126.334C167.251 125.793 166.67 125.051 166.597 124.941C165.706 123.613 165.024 123.968 164.606 124.186C164.508 124.236 164.423 124.281 164.35 124.298C164.217 124.329 164.127 124.287 164.079 124.092C163.983 123.686 163.673 123.396 163.371 123.108C162.928 122.694 162.503 122.291 162.7 121.569C162.914 120.802 162.404 120.551 161.908 120.305C161.346 120.032 160.799 119.761 161.152 118.856C161.417 118.176 161.344 117.339 161.095 116.741C160.999 116.515 160.884 116.326 160.748 116.191C160.622 116.061 160.478 115.982 160.331 115.979C160.19 115.974 160.041 116.042 159.891 116.191C159.626 116.459 159.355 116.566 159.093 116.552C158.842 116.541 158.6 116.419 158.383 116.233C158.171 116.047 157.982 115.799 157.827 115.528C157.491 114.93 157.328 114.217 157.477 113.833C157.539 113.673 157.562 113.506 157.559 113.337C157.537 112.641 156.992 111.902 156.372 111.307C156.008 110.957 155.616 110.655 155.289 110.441C155.292 110.402 155.292 110.359 155.292 110.32Z" fill="#575B6A"/>
<path fill-rule="evenodd" clip-rule="evenodd" d="M155.182 112.73C156.006 113.545 155.887 113.763 155.772 113.974C155.679 114.143 155.588 114.307 156.231 114.953C156.841 115.559 157.227 115.618 157.478 115.658C157.881 115.72 157.971 115.734 158.014 117.316C158.022 117.64 158.439 118.004 158.913 118.418C159.77 119.168 160.811 120.079 160.1 121.317C159.632 122.135 159.55 123.004 159.686 123.869C159.824 124.738 160.185 125.604 160.6 126.41C160.893 126.98 161.096 127.267 161.234 127.462C161.358 127.637 161.431 127.738 161.474 127.91C161.485 127.964 161.496 128.026 161.505 128.099L161.398 128.102C161.392 128.037 161.383 127.984 161.372 127.936C161.333 127.783 161.265 127.688 161.147 127.521C161.008 127.324 160.805 127.036 160.506 126.458C160.089 125.643 159.723 124.766 159.582 123.886C159.441 122.998 159.525 122.107 160.01 121.266C160.678 120.102 159.672 119.222 158.843 118.497C158.352 118.066 157.918 117.688 157.909 117.319C157.867 115.824 157.794 115.813 157.461 115.762C157.199 115.72 156.79 115.658 156.158 115.026C155.459 114.327 155.566 114.126 155.679 113.923C155.777 113.746 155.876 113.565 155.126 112.821C155.146 112.793 155.165 112.761 155.182 112.73Z" fill="#575B6A"/>
<path fill-rule="evenodd" clip-rule="evenodd" d="M154.522 113.12C154.003 113.901 153.953 114.631 154.291 115.742C154.711 116.453 152.889 117.874 151.085 117.2C150.326 116.918 149.816 116.21 150.112 115.971C150.831 115.125 151.801 113.469 150.549 112.601C149.415 111.704 152.108 107.708 154.508 109.008C155.472 109.53 155.394 110.531 155.083 111.304C154.968 111.586 154.813 111.834 154.632 112.037C155.467 111.151 155.605 113.151 154.522 113.12Z" fill="#FDCFB9"/>
<path fill-rule="evenodd" clip-rule="evenodd" d="M151.135 110.472C151.13 110.449 151.107 110.432 151.082 110.438C151.068 110.441 151.054 110.452 151.048 110.466C150.972 110.633 150.989 110.824 151.082 111.002C151.169 111.174 151.333 111.332 151.544 111.436C151.564 111.448 151.592 111.442 151.606 111.422C151.62 111.403 151.615 111.374 151.595 111.36L151.589 111.357C151.392 111.262 151.243 111.118 151.161 110.96C151.082 110.808 151.065 110.644 151.13 110.503C151.135 110.495 151.138 110.483 151.135 110.472Z" fill="#BD978A"/>
<path fill-rule="evenodd" clip-rule="evenodd" d="M153.392 109.634C153.412 109.617 153.415 109.589 153.401 109.569C153.387 109.549 153.358 109.546 153.339 109.561C153.203 109.659 152.949 109.713 152.698 109.766C152.433 109.823 152.165 109.879 152.016 109.992C151.858 110.113 151.824 110.288 152.039 110.567C152.053 110.587 152.081 110.593 152.101 110.576C152.12 110.562 152.126 110.533 152.109 110.514C151.937 110.288 151.954 110.153 152.07 110.063C152.205 109.961 152.462 109.907 152.715 109.854C152.978 109.797 153.24 109.744 153.392 109.634Z" fill="#BD978A"/>
<path fill-rule="evenodd" clip-rule="evenodd" d="M141.861 164.66C143.08 164.824 143.209 162.494 143.415 161.956C143.937 160.588 141.873 160.284 141.658 161.674C141.571 162.227 141.275 164.581 141.861 164.66Z" fill="#3C0431"/>
<path fill-rule="evenodd" clip-rule="evenodd" d="M143.55 160.377C143.584 160.252 143.615 160.128 143.646 160.001C143.488 160.018 143.324 160.035 143.164 160.049C142.707 160.092 142.256 160.114 141.813 160.123C141.833 160.836 141.833 161.555 141.802 162.28C141.782 162.728 141.864 163.075 142.241 163.14C143.059 163.281 143.389 160.983 143.55 160.377Z" fill="#FDCFB9"/>
<path fill-rule="evenodd" clip-rule="evenodd" d="M139.994 132.225C140.412 133.731 139.475 141.655 140.034 143.77C140.471 145.42 141.463 146.539 143.277 146.432C144.76 146.257 147.808 139.856 148.781 135.9C145.896 135.753 142.806 132.406 139.994 132.225Z" fill="#EF862D"/>
<path fill-rule="evenodd" clip-rule="evenodd" d="M143.877 160.038C145.118 155.072 145.541 146.942 144.673 143.491C143.759 139.85 139.924 140.36 139.825 144.294C140.149 149.675 141.455 154.79 141.622 160.14C142.233 160.131 143.268 160.111 143.877 160.038Z" fill="#EF862D"/>
<mask id="mask2_2016_2744" style="mask-type:luminance" maskUnits="userSpaceOnUse" x="155" y="160" width="2" height="5">
<path d="M155.053 160.627H156.925V164.753H155.053V160.627Z" fill="white"/>
</mask>
<g mask="url(#mask2_2016_2744)">
<path fill-rule="evenodd" clip-rule="evenodd" d="M155.69 164.753C156.917 164.741 156.713 162.418 156.84 161.857C157.162 160.427 155.075 160.421 155.061 161.826C155.055 162.387 155.098 164.758 155.69 164.753Z" fill="#3C0431"/>
</g>
<path fill-rule="evenodd" clip-rule="evenodd" d="M155.024 160.441C155.134 161.09 155.225 161.744 155.289 162.407C155.335 162.853 155.464 163.185 155.851 163.194C156.652 163.216 156.677 161.051 156.745 160.343C156.183 160.405 155.611 160.439 155.024 160.441Z" fill="#FDCFB9"/>
<path fill-rule="evenodd" clip-rule="evenodd" d="M146.018 136.353C146.376 137.01 147.422 139.495 148.065 140.668C148.809 142.027 149.616 143.508 150.194 144.588C150.998 146.094 152.221 146.956 153.961 146.435C155.185 145.989 155.823 143.223 155.989 139.819C156.012 139.362 156 136.54 156.006 136.063L146.018 136.353Z" fill="#FDC104"/>
<path fill-rule="evenodd" clip-rule="evenodd" d="M155.453 143.401C154.029 139.926 150.304 140.981 150.766 144.889C151.869 150.225 153.91 155.137 154.818 160.475C155.405 160.47 156.347 160.388 156.905 160.326C157.32 155.851 157.15 147.54 155.453 143.401Z" fill="#FDC104"/>
<path fill-rule="evenodd" clip-rule="evenodd" d="M152.668 114.191C146.729 112.877 141.154 128.023 139.104 135.313C144.397 136.81 150.677 138.367 156.294 139.32C157.608 131.562 158.254 115.423 152.668 114.191Z" fill="#6594E7"/>
<path fill-rule="evenodd" clip-rule="evenodd" d="M143.81 136.587C147.907 137.645 152.272 138.637 156.294 139.32C157.351 133.082 157.974 121.424 155.273 116.455C154.774 115.539 153.33 116.272 152.261 116.83C151.39 117.285 151.714 117.507 150.882 118.59C147.425 123.082 146.28 127.758 144.797 132.876C144.63 133.446 143.959 136.362 143.81 136.587Z" fill="#8EC8F2"/>
<path fill-rule="evenodd" clip-rule="evenodd" d="M154.457 117.113C153.851 116.871 152.932 116.701 151.903 116.529C150.532 117.429 149.215 119.033 147.994 120.996C153.442 125.638 156.4 121.131 154.457 117.113Z" fill="#6594E7"/>
<path fill-rule="evenodd" clip-rule="evenodd" d="M155.253 83.3495L138.756 79.472C136.681 78.9842 135.984 76.6436 136.243 75.541C136.807 73.1412 140.473 73.787 141.435 69.7065C143.324 61.6838 128.954 58.3026 127.064 66.3282C126.103 70.4059 129.67 71.4634 129.106 73.8603C128.847 74.9629 127.177 76.748 125.102 76.2601L108.605 72.3827L104.725 88.8653C104.237 90.938 106.022 92.6074 107.125 92.8668C109.524 93.4308 110.582 89.8664 114.665 90.8252C122.696 92.7146 119.312 107.071 111.281 105.184C107.201 104.226 107.844 100.563 105.447 99.9985C104.341 99.7391 102.001 100.436 101.51 102.508L97.627 118.994L114.124 122.871C116.199 123.359 116.899 125.7 116.639 126.805C116.072 129.199 112.406 128.556 111.448 132.637C109.558 140.659 123.929 144.041 125.818 136.015C126.777 131.937 123.21 130.88 123.774 128.483C124.033 127.38 125.702 125.595 127.781 126.083L144.275 129.961L155.253 83.3495Z" fill="#F553C6"/>
<path fill-rule="evenodd" clip-rule="evenodd" d="M137.747 79.032C136.458 78.1606 136.033 76.4376 136.244 75.5409C136.808 73.1411 140.474 73.7869 141.436 69.7064C141.777 68.2569 141.585 66.9626 141.035 65.8543C137.412 62.4394 129.733 62.3689 128.388 68.0849C127.426 72.1626 130.993 73.2201 130.429 75.617C130.17 76.7196 128.5 78.5047 126.425 78.0168L109.928 74.1394L106.048 90.622C105.898 91.2509 105.961 91.8459 106.149 92.376C106.485 92.627 106.832 92.7962 107.125 92.8667C109.525 93.4307 110.582 89.8663 114.666 90.8251C116.561 91.2706 117.818 92.4127 118.532 93.8706C123.069 97.8947 119.603 108.585 112.604 106.941C110.45 106.434 109.612 105.173 108.95 104.014C108.304 103.43 107.901 102.742 107.534 102.096C107.314 101.941 107.066 101.823 106.77 101.755C105.664 101.496 103.324 102.192 102.833 104.268L99.2744 119.38L114.124 122.871C115.362 123.161 116.11 124.115 116.459 125.068C117.748 125.939 118.174 127.662 117.959 128.562C117.395 130.956 113.732 130.313 112.771 134.393C112.43 135.843 112.621 137.14 113.171 138.245C116.795 141.66 124.471 141.731 125.819 136.015C126.777 131.937 123.21 130.88 123.774 128.483C124.034 127.38 125.703 125.595 127.781 126.083L144.275 129.96L154.932 84.7198L140.079 81.2287C138.841 80.9355 138.094 79.9851 137.747 79.032Z" fill="#F673D0"/>
<path fill-rule="evenodd" clip-rule="evenodd" d="M177.906 20.0528L127.239 2.76367L121.12 20.6648C120.35 22.9179 117.669 23.4396 116.47 23.0307C113.864 22.1396 114.978 18.1381 110.545 16.6238C101.823 13.6487 96.4935 29.2431 105.216 32.2209C109.649 33.7353 111.216 29.886 113.822 30.7743C115.021 31.1832 116.825 33.2333 116.056 35.4865L109.936 53.3904L127.854 59.504C130.107 60.2739 132.157 58.4719 132.569 57.2734C133.457 54.6706 129.605 53.1055 131.123 48.6754C134.1 39.9589 149.709 45.2858 146.728 54.0023C145.214 58.4324 141.21 57.3157 140.321 59.9214C139.912 61.117 140.431 63.796 142.684 64.5659L160.602 70.6795L177.906 20.0528Z" fill="#E25B44"/>
<path fill-rule="evenodd" clip-rule="evenodd" d="M101.626 29.243C102.334 30.5655 103.504 31.6371 105.216 32.2208C109.649 33.7352 111.217 29.8859 113.822 30.7742C114.773 31.0985 116.107 32.4577 116.231 34.13C116.817 35.0041 117.153 36.1631 116.738 37.3814L111.127 53.7963L127.855 59.5039C130.108 60.2738 132.158 58.4718 132.57 57.2733C132.685 56.9349 132.719 56.6163 132.696 56.3061C132.257 55.4855 131.735 54.6057 131.532 53.5087C130.906 52.2707 130.395 50.8015 131.123 48.6753C133.706 41.115 145.784 44.1211 147.005 50.7367C147.82 52.2143 148.071 53.974 147.411 55.8944C145.897 60.3245 141.892 59.2107 141.004 61.8135C140.883 62.1688 140.843 62.651 140.905 63.1755C141.303 63.779 141.884 64.2922 142.685 64.5658L160.603 70.6794L177.398 21.5417L127.922 4.65576L121.803 22.5597C121.033 24.8128 118.351 25.3317 117.153 24.9228C114.547 24.0345 115.664 20.033 111.231 18.5187C104.982 16.3868 100.476 23.7807 101.626 29.243Z" fill="#FF6F41"/>
<mask id="mask3_2016_2744" style="mask-type:luminance" maskUnits="userSpaceOnUse" x="37" y="0" width="64" height="63">
<path d="M37.9766 0H100.783V62.1998H37.9766V0Z" fill="white"/>
</mask>
<g mask="url(#mask3_2016_2744)">
<path fill-rule="evenodd" clip-rule="evenodd" d="M38.4307 8.18634L91.8886 0L94.7875 18.8881C95.1513 21.2681 92.9912 22.9855 91.7279 23.1772C88.9784 23.5974 88.107 19.4944 83.4287 20.2106C74.2244 21.6206 76.7482 38.0751 85.9526 36.6651C90.6281 35.9488 90.2305 31.7725 92.9799 31.3495C94.2461 31.1577 96.8207 32.1503 97.1845 34.5276L100.081 53.4156L81.1756 56.3117C78.7984 56.6755 77.0782 54.5211 76.8836 53.2549C76.4634 50.5083 80.5721 49.6369 79.8558 44.9614C78.4459 35.7655 61.9773 38.2866 63.3873 47.4853C64.1036 52.1579 68.2856 51.7603 68.7057 54.507C68.9003 55.7731 67.9049 58.3449 65.5276 58.7087L46.6226 61.602C40.4582 21.4063 44.5951 48.382 38.4307 8.18634Z" fill="#6594E7"/>
</g>
<path fill-rule="evenodd" clip-rule="evenodd" d="M93.5858 22.1479C92.9823 22.7288 92.2717 23.0954 91.7274 23.1771C88.978 23.5973 88.1066 19.4943 83.4283 20.2106C80.8029 20.611 79.1335 22.2381 78.2988 24.3221C74.2606 29.116 77.3259 39.7529 84.8016 38.608C89.4799 37.8917 89.0823 33.7153 91.8318 33.2923C93.0951 33.1006 95.6697 34.0932 96.0335 36.4704L98.6673 53.6327L81.1751 56.3116C78.7979 56.6754 77.0777 54.521 76.8832 53.2548C76.8296 52.908 76.8493 52.5893 76.9226 52.2904C77.4782 51.5967 78.0901 50.8466 78.4567 49.8624C79.3506 48.709 80.2164 47.3216 79.8554 44.9613C78.6287 36.9696 66.0263 37.8296 63.6773 44.2309C62.5268 45.5761 61.9148 47.3273 62.2363 49.4281C62.9526 54.1008 67.1346 53.7032 67.5576 56.4526C67.6112 56.808 67.5717 57.2704 67.4307 57.7583C66.9428 58.2292 66.3083 58.5873 65.5272 58.7086L46.6222 61.6019L38.6953 9.91207L90.7404 1.94287L93.6365 20.8338C93.707 21.2991 93.6817 21.739 93.5858 22.1479Z" fill="#8EC8F2"/>
<path fill-rule="evenodd" clip-rule="evenodd" d="M143.107 113.179C143.242 113.458 143.395 113.647 143.637 113.841C145.216 115.012 146.886 113.576 145.913 111.106C144.954 108.678 140.657 102.522 140.648 102.497C140.761 102.33 140.854 102.124 140.882 101.997C140.944 101.783 140.944 100.923 140.767 100.923C140.679 100.923 140.586 101.146 140.586 101.504C140.583 101.904 140.366 101.696 140.304 101.456C140.239 101.199 139.89 99.9417 139.726 99.9925C139.667 100.012 139.701 100.286 139.796 100.647C139.915 101.098 139.923 101.29 139.732 100.672C139.582 100.198 139.407 99.8345 139.337 99.8543C139.266 99.8768 139.331 100.277 139.478 100.751C139.639 101.261 139.678 101.419 139.427 100.779C139.311 100.486 139.201 100.291 139.148 100.308C139.08 100.331 139.218 100.932 139.303 101.197C139.385 101.459 139.342 101.354 139.269 101.211C139.108 100.892 139.007 100.655 138.959 100.672C138.903 100.692 138.97 101.095 139.139 101.56C139.272 101.924 139.54 102.576 139.96 102.753C140.865 105.584 141.519 109.453 143.107 113.179Z" fill="#FDCFB9"/>
<path fill-rule="evenodd" clip-rule="evenodd" d="M143.025 113.001C143.023 113.326 143.217 113.551 143.355 113.844C143.846 114.778 148.772 119.837 149.444 120.311C151.55 121.8 154.108 121.805 155.157 120.325C156.206 118.844 155.346 116.436 153.239 114.947C151.965 114.047 148.558 113.272 146.158 111.98C145.383 112.781 144.449 113.337 143.025 113.001Z" fill="#8EC8F2"/>
<path fill-rule="evenodd" clip-rule="evenodd" d="M158.55 49.6455C158.285 49.5215 158.084 49.4622 158.062 49.5074C158.028 49.5666 158.51 49.8796 158.736 50.0037C158.959 50.1249 158.863 50.0826 158.722 50.0347C158.409 49.9247 158.189 49.8288 158.169 49.874C158.144 49.9219 158.448 50.1475 158.86 50.3505C159.184 50.5113 159.785 50.7735 160.177 50.6212L161.054 51.095L161.378 50.4972L160.473 50.0093C160.442 49.8232 160.371 49.6286 160.309 49.5243C160.253 49.4171 160.044 49.1803 159.855 49.0195C159.102 48.3878 159.511 49.0562 159.81 49.4058C160.01 49.6399 159.759 49.6484 159.573 49.5327C159.365 49.403 158.321 48.7855 158.245 48.9265C158.217 48.9744 158.417 49.138 158.713 49.3184C159.083 49.544 159.212 49.6653 158.685 49.3748C158.282 49.1549 157.986 49.0393 157.952 49.0985C157.921 49.1577 158.163 49.3692 158.567 49.592C159.004 49.8317 159.131 49.9106 158.55 49.6455Z" fill="#FDCFB9"/>
<path fill-rule="evenodd" clip-rule="evenodd" d="M177.246 60.474C179.851 61.021 182.273 59.9805 182.66 58.1503C183.043 56.3202 181.244 54.3913 178.639 53.8442C176.625 53.4241 172.629 53.6412 169.849 53.2436C170.289 53.3423 164.575 50.841 160.8 49.603L160.14 51.2245C163.216 53.4325 168.072 56.4809 168.726 56.7855C171.208 57.8063 174.592 59.9184 177.246 60.474Z" fill="#EC3CB4"/>
<path fill-rule="evenodd" clip-rule="evenodd" d="M50.641 30.5202C50.9061 30.3989 51.1063 30.3397 51.1317 30.3848C51.1627 30.444 50.6833 30.757 50.4549 30.8811C50.2321 31.0024 50.328 30.9601 50.469 30.9121C50.782 30.8022 51.002 30.7063 51.0245 30.7514C51.0471 30.7993 50.7454 31.0249 50.3308 31.228C50.0065 31.3887 49.4087 31.651 49.0139 31.4987L48.1369 31.9724L47.8154 31.3746L48.7178 30.8868C48.7517 30.7006 48.8193 30.5061 48.8842 30.4017C48.9378 30.2946 49.1493 30.0577 49.3382 29.897C50.0911 29.2653 49.6794 29.9336 49.3805 30.2833C49.1803 30.5173 49.4341 30.5258 49.6202 30.4102C49.8261 30.2805 50.8723 29.6629 50.9484 29.8039C50.9738 29.8518 50.7764 30.0154 50.4803 30.1959C50.1081 30.4186 49.9783 30.5427 50.5085 30.2523C50.9089 30.0323 51.205 29.9167 51.2389 29.9759C51.2699 30.0351 51.0274 30.2466 50.6269 30.4694C50.1898 30.7091 50.0629 30.7881 50.641 30.5202Z" fill="#FDCFB9"/>
<path fill-rule="evenodd" clip-rule="evenodd" d="M33.6257 40.3847C31.2851 40.9036 29.094 39.9899 28.7302 38.3459C28.3665 36.7019 29.9682 34.9507 32.3059 34.4318C34.1163 34.0314 37.7118 34.1921 40.2131 33.8058C39.8183 33.896 45.1198 31.5836 48.5066 30.4331C48.6589 30.9463 48.8647 31.4314 49.1185 31.8854C46.3691 33.9045 41.843 36.7019 41.2593 36.981C39.0343 37.9257 36.0085 39.8574 33.6257 40.3847Z" fill="#8645CC"/>
<path fill-rule="evenodd" clip-rule="evenodd" d="M13.226 153.155L14.1791 153.832L12.38 156.364L11.4297 155.687L13.226 153.155Z" fill="#E2E6E7"/>
<path fill-rule="evenodd" clip-rule="evenodd" d="M13.6995 153.49L14.1789 153.831L12.3798 156.364L11.9004 156.023L13.6995 153.49Z" fill="#EBEFF0"/>
<path fill-rule="evenodd" clip-rule="evenodd" d="M11.5198 156.682C11.3817 156.716 11.2519 156.739 11.1307 156.747C10.9869 156.637 10.8515 156.524 10.7246 156.409C10.984 156.025 11.2971 155.661 11.6496 155.357C11.94 155.625 12.2643 155.862 12.6027 156.065C12.6422 156.29 12.7099 156.541 12.7973 156.792C13.099 157.029 13.7645 157.303 13.8576 157.334C13.8886 157.342 13.9083 157.37 13.9083 157.404C13.9083 157.441 13.8801 157.472 13.8435 157.478C13.2851 157.534 12.7381 157.554 12.1994 157.475C11.9739 157.21 11.7454 157.018 11.5198 156.682Z" fill="#3B3F4E"/>
<path fill-rule="evenodd" clip-rule="evenodd" d="M11.957 154.666C15.1154 143.759 18.5501 147.36 18.6798 134.622C18.6883 133.844 18.7052 131.678 18.818 131.007C20.9894 136.791 27.1369 137.397 25.6141 142.177C21.3841 147.306 16.0488 153.44 13.164 155.521C12.7466 155.258 12.3434 154.974 11.957 154.666Z" fill="#772D66"/>
<path fill-rule="evenodd" clip-rule="evenodd" d="M29.5986 153.439L30.7576 153.298L31.1299 156.381L29.9709 156.522L29.5986 153.439Z" fill="#E2E6E7"/>
<path fill-rule="evenodd" clip-rule="evenodd" d="M30.1738 153.369L30.7576 153.298L31.1298 156.381L30.5461 156.451L30.1738 153.369Z" fill="#EBEFF0"/>
<path fill-rule="evenodd" clip-rule="evenodd" d="M30.7092 157.198C30.6303 157.314 30.5457 157.418 30.4611 157.506C30.2806 157.52 30.103 157.528 29.9338 157.528C29.8689 157.069 29.8548 156.589 29.9112 156.13C30.306 156.13 30.7064 156.09 31.0928 156.011C31.6427 156.443 32.5281 156.84 33.2105 156.973C33.2444 156.978 33.2698 157.004 33.2726 157.038C33.2754 157.074 33.2528 157.111 33.2162 157.119C32.3758 157.311 31.5609 157.407 30.7092 157.198Z" fill="#3B3F4E"/>
<path fill-rule="evenodd" clip-rule="evenodd" d="M29.7398 155.574C24.7372 145.377 29.7003 145.735 21.2264 136.218C11.2635 125.031 30.0077 114.719 31.1103 131.337C31.5502 137.989 32.1819 150.78 31.2062 155.397C30.7212 155.481 30.2305 155.543 29.7398 155.574Z" fill="#853672"/>
<path fill-rule="evenodd" clip-rule="evenodd" d="M29.334 129.87C30.149 133.816 30.6847 137.868 30.9075 142.039C31.1303 146.206 31.0429 150.496 30.6058 154.917L30.6819 154.929C31.119 150.501 31.2064 146.206 30.9837 142.033C30.7581 137.859 30.2223 133.804 29.4073 129.854L29.334 129.87Z" fill="#3B0331"/>
<path fill-rule="evenodd" clip-rule="evenodd" d="M27.5598 130.35C27.4019 131.833 26.2006 132.642 24.8526 132.535L24.7793 133.48C25.5463 133.542 26.2344 133.466 26.8181 133.201C27.7628 132.769 28.2817 131.802 28.4509 130.826C28.4706 130.711 28.4875 130.584 28.5016 130.445L27.5598 130.35Z" fill="#772D66"/>
<path fill-rule="evenodd" clip-rule="evenodd" d="M27.9934 130.392C27.9793 130.513 27.9652 130.628 27.9455 130.738C27.9257 130.851 27.9032 130.958 27.8778 131.06C27.875 131.071 27.7763 131.074 27.6776 131.074C27.5535 131.077 27.4322 131.077 27.4125 131.139C27.3928 131.204 27.4886 131.291 27.5845 131.376C27.6578 131.443 27.7312 131.511 27.7255 131.525C27.483 132.123 27.0967 132.512 26.6032 132.738C26.1097 132.963 25.5034 133.023 24.8181 132.969L24.8125 133.045C25.509 133.102 26.1266 133.037 26.637 132.805C27.1474 132.571 27.545 132.171 27.796 131.553C27.8242 131.489 27.7283 131.407 27.6353 131.319C27.5591 131.252 27.4802 131.181 27.4858 131.161C27.4886 131.153 27.5817 131.15 27.6776 131.15C27.8045 131.147 27.9342 131.147 27.9511 131.08C27.9765 130.975 27.9991 130.868 28.0188 130.753C28.0385 130.64 28.0554 130.524 28.0667 130.4L27.9934 130.392Z" fill="#3B0331"/>
<path fill-rule="evenodd" clip-rule="evenodd" d="M27.4665 117.186C25.109 116.526 23.5749 114.648 24.0431 112.99C24.5055 111.335 26.7953 110.525 29.1528 111.188C30.9773 111.698 34.1413 113.577 36.5806 114.434L35.7177 117.942C33.2559 117.722 29.8691 117.863 27.4665 117.186Z" fill="#D05241"/>
<path fill-rule="evenodd" clip-rule="evenodd" d="M28.0134 110.156C24.6351 109.597 20.5151 116.729 18.8119 126.08C18.7442 126.461 18.6793 126.839 18.6201 127.216C20.3206 127.659 21.8179 127.992 23.9216 128.339C26.0225 128.686 28.755 128.965 30.9969 129.063C31.7893 125.152 33.1824 111.007 28.0134 110.156Z" fill="#E25B44"/>
<path fill-rule="evenodd" clip-rule="evenodd" d="M31.4989 125.564C31.716 123.455 31.8598 120.874 31.7386 118.427C31.4284 117.651 31.0928 116.89 30.7262 116.227C29.57 114.132 27.362 113.424 26.1269 114.51C24.8776 115.612 25.3627 117.485 26.5188 119.431C27.8414 121.653 30.0579 124.179 31.4989 125.564Z" fill="#D05241"/>
<path fill-rule="evenodd" clip-rule="evenodd" d="M28.9524 106.23C27.8047 107.412 27.1138 109.056 26.4962 110.943C26.0225 111.476 30.4808 113.723 30.2214 112.491C29.8914 112.02 29.5841 110.404 29.7674 109.473C30.1114 107.756 29.0032 106.755 28.9524 106.23Z" fill="#EBC1AB"/>
<path fill-rule="evenodd" clip-rule="evenodd" d="M32.2377 110.032C30.8109 111.789 29.931 111.008 29.1668 109.313C28.7354 108.349 28.662 106.716 28.6 105.853C28.4731 104.104 29.838 103.865 31.2931 103.994C32.3139 104.085 34.5163 105.464 33.6646 106.589C33.6082 106.662 33.7239 108.208 32.2377 110.032Z" fill="#FDCFB8"/>
<path fill-rule="evenodd" clip-rule="evenodd" d="M33.2082 103.977C31.9844 103.47 30.7295 103.69 30.408 104.465C30.0837 105.244 30.8141 106.284 32.038 106.795C33.2618 107.302 34.5139 107.085 34.8382 106.307C35.1625 105.528 34.4321 104.488 33.2082 103.977Z" fill="#3B3F4E"/>
<path fill-rule="evenodd" clip-rule="evenodd" d="M28.5319 108.693C27.1445 108.777 27.6577 107.536 27.48 107.046C27.1275 106.081 26.9809 104.987 27.277 104.262C28.3035 101.753 32.0202 103.354 32.7957 104.282C32.5221 105.805 31.0557 107.861 29.5696 108.459C29.6486 107.562 29.2876 106.91 28.7462 106.597L28.5319 108.693Z" fill="#3B3F4E"/>
<path fill-rule="evenodd" clip-rule="evenodd" d="M28.5236 106.561C28.2388 106.628 28.095 107.06 28.205 107.525C28.3149 107.988 28.6364 108.309 28.924 108.241C29.2089 108.174 29.3527 107.742 29.2427 107.28C29.1327 106.814 28.8112 106.496 28.5236 106.561Z" fill="#FDCFB8"/>
<path fill-rule="evenodd" clip-rule="evenodd" d="M32.029 110.094C32.0177 110.125 32.0064 110.159 31.9951 110.187C31.9415 110.198 31.8851 110.204 31.8259 110.201C31.6483 110.193 31.4509 110.119 31.2845 109.981C31.2648 109.97 31.2591 109.944 31.2704 109.925C31.2845 109.905 31.3099 109.899 31.3268 109.911L31.3324 109.916C31.4875 110.043 31.668 110.111 31.8287 110.119C31.8992 110.122 31.9669 110.114 32.029 110.094Z" fill="#CCA293"/>
<path fill-rule="evenodd" clip-rule="evenodd" d="M33.0107 107.88C33.0248 107.86 33.0501 107.852 33.0699 107.866C33.0896 107.877 33.0952 107.903 33.0868 107.922C33.005 108.06 32.9825 108.303 32.9571 108.545C32.9317 108.805 32.9063 109.062 32.8133 109.214C32.7146 109.375 32.5538 109.425 32.2662 109.25C32.2464 109.239 32.2408 109.214 32.2549 109.194C32.2662 109.174 32.2916 109.166 32.3113 109.177C32.5425 109.318 32.6694 109.287 32.7399 109.169C32.8245 109.033 32.8471 108.785 32.8725 108.54C32.8979 108.286 32.9232 108.035 33.0107 107.88Z" fill="#CCA293"/>
<path fill-rule="evenodd" clip-rule="evenodd" d="M41.3748 110.026C41.4565 109.916 41.7132 109.648 41.8401 109.637C42.4435 109.578 42.3307 109.152 42.7537 108.915C42.8778 108.847 42.8524 108.656 42.8383 108.523C42.8299 108.413 42.3928 108.819 42.2518 108.893C42.1361 108.952 42.06 108.943 42.0121 108.785C41.8513 108.241 42.6719 108.114 42.6635 108.021C42.6466 107.827 42.4633 106.696 42.2546 107.195C42.1446 107.46 41.6455 107.736 41.527 107.838C41.3043 108.032 41.2704 108.571 41.3071 108.814C41.3325 108.963 40.8249 109.307 40.8164 109.299L41.3748 110.026Z" fill="#FDCFB8"/>
<path fill-rule="evenodd" clip-rule="evenodd" d="M34.0113 115.105C34.0903 114.877 37.9451 111.256 40.7961 108.969C41.1232 109.409 41.4927 109.803 41.8903 110.15C39.9586 113.049 36.5887 117.319 36.1235 117.79C35.4495 118.441 33.8026 116.929 34.0113 115.105Z" fill="#D05241"/>
<path fill-rule="evenodd" clip-rule="evenodd" d="M36.668 79.5453L53.0886 77.6785C55.1556 77.4416 56.1003 75.2562 55.9762 74.1564C55.7027 71.7707 52.079 71.9737 51.6166 67.9158C50.7085 59.9269 65.0114 58.2997 65.9222 66.2887C66.3847 70.3466 62.8062 70.9642 63.0797 73.3499C63.2038 74.4468 64.6166 76.3672 66.6836 76.1332L83.1042 74.2663L84.971 90.6729C85.2079 92.7371 87.3962 93.6789 88.496 93.5549C90.8816 93.2841 90.6786 89.6633 94.7422 89.2008C102.737 88.2928 104.364 102.587 96.3693 103.495C92.3085 103.955 91.691 100.382 89.3025 100.653C88.2055 100.78 86.2823 102.19 86.5192 104.254L88.386 120.663L71.9654 122.53C69.9012 122.764 68.9565 124.952 69.0806 126.049C69.3541 128.435 72.9749 128.232 73.4374 132.293C74.3482 140.282 60.0426 141.906 59.1346 133.917C58.6721 129.859 62.2478 129.244 61.9771 126.856C61.853 125.759 60.4402 123.838 58.3732 124.075L41.9526 125.942C37.9764 91.0282 40.6469 114.459 36.668 79.5453Z" fill="#FED149"/>
<path fill-rule="evenodd" clip-rule="evenodd" d="M53.8732 77.4811C55.396 76.8664 56.0841 75.1067 55.9769 74.1564C55.7034 71.7707 52.0797 71.9738 51.6173 67.9158C51.434 66.2915 51.8767 64.9323 52.7058 63.8607C56.6932 61.3002 63.6782 62.2393 64.3071 67.7438C64.7696 71.8017 61.191 72.4193 61.4646 74.805C61.5886 75.902 63.0014 77.8223 65.0657 77.5883L81.4891 75.7215L83.3559 92.128C83.5928 94.1922 85.7811 95.1369 86.878 95.01C87.8537 94.9 88.398 94.2317 88.9761 93.4449C89.9123 93.115 90.4114 92.1816 91.1305 91.2707C91.6578 90.9746 92.3064 90.7518 93.127 90.656C99.3902 89.9453 101.745 98.5659 98.626 102.768C97.983 103.143 97.2329 103.397 96.37 103.495C92.3093 103.955 91.6917 100.382 89.3032 100.653C88.5954 100.734 87.5407 101.352 86.9457 102.336C85.9023 102.83 84.7151 104.062 84.904 105.709L86.627 120.863L71.9661 122.53C70.8296 122.66 70.0344 123.379 69.5663 124.182C68.0463 124.797 67.3583 126.557 67.4654 127.504C67.7362 129.89 71.3598 129.687 71.8223 133.748C72.0084 135.369 71.5657 136.731 70.7338 137.8C66.7463 140.361 59.7613 139.421 59.1353 133.917C58.6728 129.859 62.2485 129.244 61.9778 126.856C61.8537 125.759 60.4409 123.838 58.3739 124.075L41.9533 125.942L36.8125 80.8002L51.4735 79.1336C52.6099 79.0039 53.4079 78.2848 53.8732 77.4811Z" fill="#FEC105"/>
<path fill-rule="evenodd" clip-rule="evenodd" d="M40.9464 124.845C41.0789 124.89 41.4427 124.952 41.5527 124.89C42.0744 124.583 42.2351 124.994 42.7145 124.935C42.8555 124.918 42.9486 125.087 43.0162 125.203C43.0726 125.296 42.4804 125.226 42.3225 125.248C42.1956 125.268 42.1392 125.322 42.1928 125.477C42.3817 126.012 43.2841 125.736 43.3321 125.818C43.4336 125.984 43.6987 126.466 43.4364 126.34C43.1798 126.213 42.6271 126.258 42.4692 126.244C42.1759 126.218 41.7191 126.083 41.6063 125.866C41.5386 125.733 40.9238 125.75 40.9238 125.764L40.9464 124.845Z" fill="#FDCFB8"/>
<path fill-rule="evenodd" clip-rule="evenodd" d="M26.1269 114.374C27.362 113.055 29.57 113.354 30.7262 115.235C32.0854 117.443 33.0499 121.1 33.783 121.892C35.585 122.53 39.3891 123.835 41.2249 124.741L41.0614 125.931C38.7857 125.908 34.4598 125.437 32.218 124.944C30.9236 124.109 28.0867 121.568 26.5188 119.222C25.3627 117.491 24.8776 115.708 26.1269 114.374Z" fill="#E25B44"/>
</svg>
