<svg width="1080" height="1080" viewBox="0 0 1080 1080" fill="none" xmlns="http://www.w3.org/2000/svg">
<mask id="mask0_847_751" style="mask-type:luminance" maskUnits="userSpaceOnUse" x="722" y="14" width="264" height="636">
<path d="M722.666 14.7397H985.333V649.334H722.666V14.7397Z" fill="white"/>
</mask>
<g mask="url(#mask0_847_751)">
<path d="M755.51 425.688L744.036 646.115L753.87 648.573C761.245 644.474 768.62 641.198 776.813 640.38L789.104 425.688H919.396L929.229 614.974C936.604 611.698 944.797 610.057 952.995 610.057C956.271 610.057 958.729 610.057 962.005 610.88L952.172 425.688C970.203 425.688 984.953 410.938 984.953 392.911V360.13C984.953 343.745 972.661 329.813 956.271 328.172V294.578C956.271 278.188 944.797 265.078 929.229 261.802L961.188 194.604C966.104 184.771 965.286 173.302 959.547 163.469C954.63 156.094 947.255 150.354 938.245 148.719C933.328 123.318 915.297 102.01 891.536 90.5365C896.453 83.1615 898.911 74.151 898.911 65.1354C898.911 38.0938 876.786 15.9688 849.745 15.9688C822.703 15.9688 800.578 38.0938 800.578 65.1354C800.578 74.9688 803.036 83.1615 807.953 90.5365C784.188 102.01 766.979 122.495 761.245 147.078C752.229 148.719 744.854 153.635 739.938 161.01C734.203 170.021 733.385 181.495 737.479 192.146L769.438 260.979C762.885 262.62 757.146 265.078 753.052 269.995C746.495 276.547 743.219 284.745 743.219 293.755V328.995C730.927 333.911 722.734 345.38 722.734 359.313V392.089C722.729 410.938 737.479 425.688 755.51 425.688ZM849.745 48.7448C858.76 48.7448 866.135 56.1198 866.135 65.1354C866.135 74.151 858.76 81.526 849.745 81.526C840.729 81.526 833.354 74.151 833.354 65.1354C833.354 56.1198 840.729 48.7448 849.745 48.7448ZM849.745 114.302C875.146 114.302 896.453 128.229 904.646 147.896H899.729C890.714 147.896 883.339 155.271 883.339 164.286C883.339 181.495 868.589 196.245 850.563 196.245C832.536 196.245 817.786 181.495 817.786 163.469C817.786 154.453 810.411 147.078 801.396 147.078H796.479C803.854 128.229 825.161 114.302 849.745 114.302ZM767.802 179.854H786.646C794.021 207.719 819.427 229.021 849.745 229.021C879.245 229.021 905.464 208.536 912.839 181.495H931.688L893.172 261.802H805.495L767.802 179.854ZM923.495 326.536H775.995V293.755L923.495 294.578V326.536ZM755.51 360.13H952.172V392.911H755.51V360.13Z" fill="#AD0000"/>
</g>
<path d="M354.808 483.865C356.443 484.688 358.084 484.688 360.542 484.688C367.1 484.688 373.652 480.589 376.11 474.031L414.626 365.87C417.902 357.672 412.985 347.839 404.792 345.38C396.6 342.104 386.766 347.021 383.485 355.214L344.152 463.38C341.693 471.573 345.792 480.589 354.808 483.865Z" fill="#AD0000"/>
<path d="M422.001 490.422C423.642 491.24 425.277 491.24 427.735 491.24C434.293 491.24 440.845 487.146 443.303 480.589L476.084 387.995C479.36 379.797 474.444 369.964 466.251 367.505C458.053 364.229 448.22 369.146 444.944 377.339L412.168 469.938C408.892 478.13 412.985 487.146 422.001 490.422Z" fill="#AD0000"/>
<path d="M27.8483 604.323L69.64 618.255L56.5306 657.589C54.0723 665.781 58.1712 675.615 67.1817 678.073L131.916 700.198C133.557 701.016 135.197 701.016 136.833 701.016C139.291 701.016 141.749 700.198 144.208 699.38C148.307 697.74 150.765 693.641 152.406 689.547L165.515 650.214L191.739 659.224C187.64 675.615 196.656 692.823 213.041 697.74L244.182 708.391L243.364 710.849C240.083 721.505 241.723 732.974 249.098 741.99C255.656 749.365 264.666 754.281 274.499 754.281C275.317 754.281 276.958 754.281 277.775 754.281L353.166 746.084C351.525 760.834 360.541 776.406 375.291 781.323L407.249 791.974C405.609 806.724 414.624 821.474 429.374 826.391L460.51 837.042C463.791 837.865 467.885 838.682 471.166 838.682C476.083 838.682 480.999 837.865 485.916 835.406C494.109 831.307 499.843 824.75 502.301 816.557L694.052 894.401C694.052 908.334 702.244 920.625 716.177 925.542L747.312 936.193C741.578 960.776 754.687 986.182 779.27 994.375L810.411 1005.03L809.593 1008.31C807.135 1016.5 807.953 1024.69 810.411 1031.25H34.4056C25.39 1031.25 18.015 1038.63 18.015 1047.64C18.015 1056.65 25.39 1064.03 34.4056 1064.03H1048.86C1057.88 1064.03 1065.25 1056.65 1065.25 1047.64C1065.25 1038.63 1057.88 1031.25 1048.86 1031.25H903.005L1015.27 695.281C1021 678.073 1011.99 659.224 994.786 653.49L963.645 642.839C955.453 640.38 946.437 640.38 938.244 644.474C930.046 648.573 924.312 655.13 921.854 663.323L921.036 665.781L889.895 655.13C877.604 651.031 864.494 651.849 852.203 657.589C841.552 662.505 834.177 671.516 829.26 682.172L798.119 671.516C789.927 669.057 780.911 669.057 772.718 673.156C767.802 675.615 764.52 678.891 761.244 682.99L562.942 630.547V629.724C568.676 612.516 559.666 593.672 542.458 587.932L511.317 577.281C503.124 574.823 494.109 574.823 485.916 578.922C480.176 581.38 476.083 586.297 472.801 591.214L440.843 580.557C432.65 578.099 423.64 578.099 415.442 582.198C409.708 585.474 404.791 589.573 401.515 595.307L346.609 542.865C338.416 535.49 326.942 532.214 316.291 534.672C305.64 537.13 296.624 545.323 293.348 555.979L292.525 558.438L262.208 548.604C254.015 546.146 244.999 546.146 236.807 550.24C229.432 553.521 224.515 559.255 221.239 566.63L195.015 557.615L208.124 518.281C210.583 510.089 206.489 500.255 197.473 497.797L132.739 475.672C128.64 474.031 123.723 474.854 120.447 476.49C116.348 478.13 113.89 482.229 112.255 486.323L99.14 525.656L58.1712 511.729C54.0723 510.089 49.1556 510.906 45.8796 512.547C41.7806 514.188 39.3223 518.281 37.6817 522.38L16.3796 584.656C14.7389 592.031 18.8379 601.865 27.8483 604.323ZM952.994 675.615L984.13 686.266L869.411 1030.43L838.27 1019.78L952.994 675.615ZM858.76 698.557C861.218 690.365 871.052 685.448 879.244 687.906L910.38 698.557L818.604 974.709L787.468 964.057C779.27 960.776 774.354 951.766 776.812 942.75C777.635 942.75 858.76 698.557 858.76 698.557ZM788.286 704.297L819.427 714.948L755.51 905.875L724.369 895.224L788.286 704.297ZM552.291 660.865L749.77 714.948L700.609 862.448L510.499 786.24L552.291 660.865ZM500.666 608.422L531.801 619.073L469.525 806.724L438.385 796.073L500.666 608.422ZM431.01 611.698L462.15 622.349L415.442 761.656L384.307 751L431.01 611.698ZM325.307 566.63L390.859 628.906L362.999 713.307L273.682 722.323L325.307 566.63ZM251.557 578.922L282.692 589.573L253.197 678.073L222.057 667.422L251.557 578.922ZM63.9056 546.964L104.88 560.896C108.973 562.531 113.89 561.714 117.171 560.073C121.265 558.438 123.723 554.339 125.364 550.24L138.473 510.906L172.072 522.38L158.958 561.714C156.499 569.906 160.598 579.74 169.614 582.198L210.583 596.13L199.932 627.266L158.958 613.339C154.864 611.698 149.947 612.516 146.666 614.156C142.572 615.797 140.114 619.891 138.473 623.99L125.364 663.323L91.765 651.849L104.88 612.516C107.338 604.323 103.239 594.49 94.2233 592.031L52.4317 578.104L63.9056 546.964Z" fill="#AD0000"/>
</svg>
