<svg width="1080" height="1080" viewBox="0 0 1080 1080" fill="none" xmlns="http://www.w3.org/2000/svg">
<mask id="mask0_847_778" style="mask-type:luminance" maskUnits="userSpaceOnUse" x="262" y="216" width="665" height="849">
<path d="M262.666 216H926.275V1064.63H262.666V216Z" fill="white"/>
</mask>
<g mask="url(#mask0_847_778)">
<path d="M673.296 894.156C679.4 891.599 685.182 888.687 690.624 885.453C687.51 906.266 685.468 926.474 684.619 945.219C684.494 948.026 684.395 950.786 684.322 953.516C683.229 956.802 679.796 965.437 671.619 974.641C670.801 952.359 670.947 925.208 673.296 894.156ZM613.374 1002.39V907.427C621.327 906.901 628.994 905.984 636.364 904.708C635.072 926.307 634.817 945.396 635.072 961.474C635.291 974.729 635.859 986.672 636.593 997.187C629.812 999.495 622.104 1001.31 613.374 1002.39ZM554.213 997.703C554.952 987.078 555.515 974.969 555.718 961.516C555.968 945.359 555.682 926.146 554.348 904.422C561.697 905.76 569.327 906.724 577.234 907.318V1002.59C568.577 1001.61 560.942 999.906 554.213 997.703ZM506.301 953.927C506.229 951.078 506.124 948.172 505.994 945.219C505.13 926.161 503.041 905.599 499.838 884.427C505.348 887.781 511.192 890.786 517.354 893.448C519.369 919.115 519.848 941.516 519.598 959.797C519.525 965.302 519.385 970.573 519.197 975.599C510.854 966.286 507.416 957.406 506.301 953.927ZM613.374 764.859C628.494 764.469 643.27 763.583 657.452 762.24C648.447 800.25 642.843 835.635 639.484 867.214C631.718 869.057 623.057 870.448 613.374 871.203V764.859ZM533.109 762.229C547.307 763.583 562.098 764.469 577.234 764.859V871.062C567.577 870.208 558.916 868.724 551.161 866.792C547.755 835.302 542.114 800.078 533.109 762.229ZM487.562 819.604L486.968 819.781C480.973 795.667 474.031 773.547 466.531 754.818C466.005 753.5 465.473 752.214 464.942 750.932C474.213 753.297 484.15 755.375 494.624 757.177C503.083 790.198 508.838 821.292 512.676 849.656C493.411 835.865 487.885 820.542 487.489 819.38L487.562 819.604ZM703.551 820.172L703.26 820.094C703.26 820.094 703.281 820.016 703.333 819.854C702.968 821.026 697.729 836.865 677.817 850.755C681.645 821.833 687.432 790.448 695.911 757.182C706.416 755.391 716.38 753.297 725.671 750.932C725.14 752.214 724.614 753.5 724.083 754.818C716.536 773.651 709.562 795.906 703.551 820.172ZM475.307 674.073C508.135 665.891 550.755 661.385 595.307 661.385C639.859 661.385 682.479 665.891 715.312 674.073C747.979 682.214 760.432 691.437 763.27 695.172C762.9 695.656 762.374 696.229 761.671 696.875C760.348 697.792 759.031 698.802 757.734 699.906C751.01 704.401 738.077 710.599 715.312 716.271C682.479 724.453 639.859 728.958 595.307 728.958C550.755 728.958 508.135 724.453 475.307 716.271C452.536 710.599 439.598 704.401 432.88 699.901C431.577 698.802 430.27 697.792 428.947 696.875C428.239 696.229 427.708 695.656 427.343 695.172C430.187 691.437 442.63 682.214 475.307 674.073ZM926.505 385.349C924.255 346.224 901.072 309.521 859.348 279.115C820.208 250.583 767.067 229.25 705.666 217.411C695.874 215.516 686.395 221.937 684.499 231.729C682.614 241.536 689.025 251.01 698.827 252.896C755.041 263.74 803.192 282.901 838.062 308.312C861.176 325.167 889.031 352.776 890.479 388.661C890.489 388.974 890.51 389.297 890.541 389.615V636.318L774.838 658.526C764.02 651.854 749.739 646.031 731.994 641.099C695.244 630.875 646.702 625.245 595.307 625.245C543.911 625.245 495.369 630.875 458.624 641.099C440.874 646.031 426.593 651.854 415.781 658.526L300.077 636.318V536.104C300.077 526.13 291.984 518.036 282.005 518.036C272.025 518.036 263.932 526.13 263.932 536.104V651.255C263.932 659.922 270.088 667.365 278.598 668.995L391.093 690.578C390.89 692.094 390.781 693.62 390.781 695.172C390.781 706.208 395.885 716.094 406.005 724.766C406.343 725.078 406.697 725.365 407.062 725.656C408.15 726.542 409.291 727.427 410.484 728.292C423.541 740.385 443.614 786.292 457.541 853.302C471.765 921.745 474.354 985.338 464.135 1015.32C460.911 1024.77 465.963 1035.05 475.406 1038.26C477.338 1038.92 479.307 1039.24 481.239 1039.24C488.76 1039.24 495.781 1034.5 498.343 1026.98C500.088 1021.86 501.551 1016.18 502.734 1009.97C506.577 1013.23 510.947 1016.48 515.9 1019.57C514.202 1034.1 512.567 1042.11 512.536 1042.26C510.479 1052.02 516.734 1061.61 526.499 1063.66C527.755 1063.93 529.005 1064.05 530.239 1064.05C538.604 1064.05 546.114 1058.21 547.906 1049.7C548.015 1049.18 549.114 1043.85 550.463 1034.3C558.531 1036.44 567.442 1038.03 577.234 1038.91V1045.98C577.234 1055.96 585.327 1064.05 595.307 1064.05C605.286 1064.05 613.374 1055.96 613.374 1045.98V1038.75C623.255 1037.78 632.223 1036.08 640.359 1033.83C641.739 1043.65 642.874 1049.11 642.989 1049.65C644.791 1058.15 652.291 1063.98 660.645 1063.98C661.895 1063.98 663.15 1063.85 664.411 1063.59C674.171 1061.52 680.411 1051.93 678.354 1042.16C678.275 1041.85 676.598 1033.64 674.89 1018.78C679.718 1015.72 683.994 1012.53 687.755 1009.32C688.963 1015.79 690.463 1021.69 692.27 1026.98C694.833 1034.5 701.859 1039.24 709.374 1039.24C711.307 1039.24 713.281 1038.92 715.208 1038.26C724.656 1035.05 729.702 1024.77 726.479 1015.32C716.255 985.338 718.843 921.745 733.072 853.302C746.999 786.292 767.072 740.385 780.13 728.292C781.327 727.427 782.458 726.542 783.551 725.646C783.916 725.365 784.275 725.078 784.609 724.771C794.734 716.094 799.833 706.208 799.833 695.172C799.833 693.62 799.723 692.094 799.52 690.578L912.015 668.995C920.531 667.365 926.682 659.922 926.682 651.255V387.927C926.682 387.057 926.619 386.193 926.505 385.349Z" fill="#AD0000"/>
</g>
<mask id="mask1_847_778" style="mask-type:luminance" maskUnits="userSpaceOnUse" x="153" y="15" width="513" height="513">
<path d="M153.275 15.625H665.333V528H153.275V15.625Z" fill="white"/>
</mask>
<g mask="url(#mask1_847_778)">
<path d="M400.665 52.2448C398.738 90.1146 384.65 123.229 358.587 151.313C323.551 127.339 292.837 109.927 272.775 99.3333C309.264 70.3854 353.671 53.9583 400.665 52.2448ZM550.733 104.109L440.197 214.646C425.592 201.734 410.145 189.078 393.889 176.75C391.967 175.286 390.046 173.849 388.134 172.417C418.061 138.75 434.535 98.8281 436.775 53.8333C478.895 59.151 518.228 76.4688 550.733 104.109ZM445.853 487.792C450.796 464.62 460.842 427.115 479.514 390.182C488.322 372.766 498.025 357.391 508.598 344.052C527.77 371.693 544.28 401.896 555.978 434.396C524.103 463.229 485.743 481.021 445.853 487.792ZM583.254 404.786C570.921 375.094 554.488 345.849 534.108 317.318C561.066 294.151 592.447 281.578 628.046 279.74C626.405 324.01 611.478 367.885 583.254 404.786ZM576.285 129.667C604.509 162.927 621.223 202.682 626.431 243.63C583.322 245.802 544.874 261.047 512.129 288.672C511.113 287.438 510.103 286.208 509.072 284.984C496.124 269.484 481.967 254.224 466.681 239.271L576.285 129.667ZM441.061 264.896C456.551 280.073 471.869 296.604 486.301 314.406C471.801 331.318 458.738 351.161 447.259 373.88C423.634 420.609 412.728 467.391 408.353 490.906C357.967 490.797 307.624 473.479 266.973 438.99L441.061 264.896ZM244.91 125.646C261.139 133.849 292.999 150.917 330.712 176.115C318.941 184.875 305.707 193.005 290.999 200.484C253.947 219.339 215.999 229.521 192.608 234.521C199.29 195.156 216.733 157.271 244.91 125.646ZM189.493 272.047C213.004 267.672 259.785 256.766 306.52 233.135C327.306 222.63 345.691 210.807 361.624 197.76C365.077 200.302 368.551 202.885 372.046 205.542C385.592 215.823 399.967 227.427 414.561 240.281L241.415 413.427C206.915 372.771 189.603 322.432 189.493 272.047ZM408.848 527.156C414.374 527.156 419.879 526.969 425.353 526.62C425.4 526.615 425.447 526.615 425.493 526.609C452.858 524.854 479.54 518.776 505.03 508.438C536.572 495.651 564.884 476.891 589.186 452.688C589.29 452.589 589.395 452.49 589.499 452.38C589.53 452.354 589.561 452.323 589.592 452.292C589.624 452.266 589.65 452.234 589.676 452.203C589.77 452.115 589.863 452.01 589.957 451.922C614.176 427.609 632.941 399.286 645.744 367.724C658.155 337.094 664.457 304.734 664.457 271.542C664.457 268.188 664.379 264.833 664.249 261.49C664.249 261.146 664.228 260.802 664.207 260.458C662.967 231.151 656.775 202.573 645.744 175.37C632.884 143.651 613.988 115.198 589.592 90.8073C565.197 66.4115 536.749 47.5156 505.03 34.6563C477.811 23.6198 449.233 17.4271 419.915 16.1823C419.587 16.1667 419.254 16.151 418.921 16.151C415.572 16.0208 412.217 15.9375 408.848 15.9375C375.66 15.9375 343.301 22.2344 312.676 34.6563C281.092 47.4635 252.754 66.25 228.431 90.4844C228.212 90.6875 228.004 90.9063 227.796 91.125C203.551 115.453 184.764 143.786 171.957 175.37C161.613 200.885 155.53 227.609 153.78 255.005C153.749 255.375 153.723 255.74 153.717 256.115C153.41 261.229 153.238 266.38 153.238 271.542C153.238 304.734 159.54 337.094 171.957 367.724C184.822 399.448 203.712 427.896 228.108 452.292C252.499 476.688 280.952 495.578 312.676 508.438C343.301 520.859 375.66 527.156 408.848 527.156Z" fill="#AD0000"/>
</g>
</svg>
