<svg width="1080" height="1080" viewBox="0 0 1080 1080" fill="none" xmlns="http://www.w3.org/2000/svg">
<g clipPath="url(#clip0_847_716)">
<path d="M1079.22 583.125V368.651H894.875V184.344H710.568V0H496.057L176.266 639.62L138.875 676.974L402.208 940.307L439.563 902.953L1079.22 583.125ZM350.964 783.672L295.547 728.255L424.292 567.37L511.922 654.927L350.964 783.672ZM269.031 701.776L214.214 646.958L310.781 453.823L397.776 540.818L269.031 701.776ZM377.443 810.188L538.359 681.443L625.359 768.438L432.224 865.005L377.443 810.188ZM1041.97 560.146L660.474 750.859L567.672 658.057L882.807 405.896H1041.97V560.146ZM857.594 221.589V378.333L541.12 631.542L447.641 538.063L700.844 221.589H857.594ZM673.286 37.2396V196.411L421.125 511.547L328.318 418.74L519.073 37.2396H673.286Z" fill="#AD0000"/>
<path d="M73.0684 742.781C0.485026 815.365 0.485026 933.531 73.0684 1006.11C145.652 1078.7 263.818 1078.7 336.402 1006.11L375.917 966.636L112.579 703.302L73.0684 742.781Z" fill="#AD0000"/>
</g>
<defs>
<clipPath id="clip0_847_716">
<rect width="1080" height="1080" fill="white"/>
</clipPath>
</defs>
</svg>
