<svg width="1080" height="1080" viewBox="0 0 1080 1080" fill="none" xmlns="http://www.w3.org/2000/svg">
<g clipPath="url(#clip0_847_721)">
<mask id="mask0_847_721" style="mask-type:luminance" maskUnits="userSpaceOnUse" x="0" y="51" width="1080" height="978">
<path d="M0 51.3022H1080V1028.3H0V51.3022Z" fill="white"/>
</mask>
<g mask="url(#mask0_847_721)">
<path d="M1080 848.568C1080 849.411 1079.96 850.25 1079.88 851.089C1079.79 851.927 1079.67 852.755 1079.51 853.583C1079.34 854.411 1079.14 855.224 1078.89 856.031C1078.65 856.839 1078.36 857.63 1078.04 858.406C1077.72 859.188 1077.36 859.948 1076.96 860.688C1076.57 861.432 1076.14 862.151 1075.67 862.854C1075.2 863.552 1074.7 864.229 1074.16 864.88C1073.63 865.531 1073.06 866.156 1072.47 866.75C1071.88 867.344 1071.25 867.911 1070.6 868.443C1069.95 868.979 1069.27 869.479 1068.57 869.948C1067.87 870.417 1067.15 870.849 1066.41 871.245C1065.67 871.641 1064.91 872 1064.13 872.323C1063.35 872.646 1062.56 872.927 1061.75 873.172C1060.94 873.417 1060.13 873.625 1059.3 873.786C1058.47 873.953 1057.65 874.073 1056.81 874.156C1055.97 874.24 1055.13 874.281 1054.29 874.281C1047.47 874.495 1040.67 874.432 1033.86 874.083C1027.05 873.74 1020.27 873.115 1013.52 872.214C1006.76 871.313 1000.05 870.135 993.396 868.682C986.734 867.224 980.146 865.5 973.63 863.505C967.115 861.51 960.693 859.25 954.359 856.729C948.031 854.203 941.813 851.427 935.708 848.391C929.609 845.354 923.641 842.078 917.807 838.552C911.974 835.026 906.297 831.266 900.771 827.276C899.526 826.214 898.198 825.271 896.781 824.448C895.37 823.62 893.896 822.927 892.359 822.359C890.828 821.797 889.25 821.37 887.641 821.083C886.031 820.797 884.406 820.651 882.771 820.651C881.135 820.651 879.51 820.797 877.901 821.083C876.292 821.37 874.719 821.797 873.182 822.359C871.646 822.927 870.172 823.62 868.76 824.448C867.349 825.271 866.016 826.214 864.771 827.276C859.25 831.266 853.568 835.026 847.734 838.552C841.901 842.078 835.938 845.354 829.833 848.391C823.729 851.427 817.516 854.203 811.182 856.729C804.854 859.25 798.427 861.51 791.911 863.505C785.396 865.5 778.807 867.224 772.151 868.682C765.49 870.135 758.781 871.313 752.026 872.214C745.271 873.115 738.49 873.74 731.688 874.083C724.88 874.432 718.068 874.495 711.255 874.281C704.448 874.495 697.641 874.427 690.833 874.083C684.031 873.74 677.25 873.115 670.5 872.208C663.745 871.307 657.042 870.13 650.385 868.677C643.729 867.219 637.141 865.495 630.63 863.5C624.115 861.505 617.693 859.245 611.365 856.724C605.036 854.198 598.823 851.422 592.719 848.385C586.62 845.354 580.656 842.073 574.823 838.547C568.995 835.026 563.318 831.266 557.792 827.276C556.547 826.219 555.219 825.276 553.802 824.453C552.391 823.63 550.917 822.938 549.38 822.37C547.844 821.807 546.271 821.385 544.661 821.099C543.052 820.813 541.427 820.667 539.792 820.667C538.156 820.667 536.536 820.813 534.927 821.099C533.318 821.385 531.745 821.807 530.208 822.37C528.672 822.938 527.198 823.63 525.786 824.453C524.37 825.276 523.042 826.219 521.792 827.276C516.271 831.266 510.594 835.026 504.766 838.547C498.932 842.073 492.969 845.354 486.87 848.385C480.766 851.422 474.552 854.198 468.224 856.724C461.896 859.245 455.474 861.505 448.958 863.5C442.443 865.495 435.859 867.219 429.203 868.677C422.547 870.13 415.844 871.307 409.089 872.208C402.339 873.115 395.557 873.74 388.755 874.083C381.948 874.427 375.141 874.495 368.333 874.281C361.521 874.495 354.708 874.432 347.901 874.083C341.099 873.74 334.318 873.115 327.563 872.214C320.807 871.313 314.099 870.135 307.438 868.682C300.781 867.224 294.193 865.5 287.677 863.505C281.161 861.51 274.734 859.25 268.406 856.729C262.073 854.203 255.859 851.427 249.755 848.391C243.651 845.354 237.688 842.078 231.854 838.552C226.021 835.026 220.339 831.266 214.818 827.276C213.573 826.214 212.24 825.271 210.828 824.448C209.417 823.62 207.943 822.927 206.406 822.359C204.87 821.797 203.297 821.37 201.688 821.083C200.078 820.797 198.453 820.651 196.818 820.651C195.182 820.651 193.557 820.797 191.948 821.083C190.333 821.37 188.76 821.797 187.229 822.359C185.693 822.927 184.219 823.62 182.807 824.448C181.391 825.271 180.063 826.214 178.818 827.276C173.307 831.255 167.641 835.005 161.823 838.521C156.01 842.042 150.057 845.313 143.969 848.344C137.885 851.37 131.682 854.146 125.37 856.667C119.057 859.188 112.651 861.443 106.151 863.438C99.6563 865.432 93.0833 867.161 86.4427 868.615C79.8021 870.073 73.1146 871.255 66.3802 872.161C59.6406 873.073 52.8802 873.703 46.0885 874.057C39.3021 874.411 32.5104 874.484 25.7135 874.281C24.8698 874.281 24.0313 874.24 23.1927 874.156C22.3542 874.073 21.526 873.953 20.6979 873.786C19.8698 873.625 19.0573 873.417 18.25 873.172C17.4427 872.927 16.651 872.646 15.875 872.323C15.0937 872 14.3333 871.641 13.5937 871.245C12.849 870.849 12.1302 870.417 11.4271 869.948C10.7292 869.479 10.0521 868.979 9.40104 868.443C8.75 867.911 8.125 867.344 7.53125 866.75C6.9375 866.156 6.36979 865.531 5.83854 864.88C5.30208 864.229 4.80208 863.552 4.33333 862.854C3.86458 862.151 3.43229 861.432 3.03646 860.688C2.64063 859.948 2.28125 859.188 1.95833 858.406C1.63542 857.63 1.35417 856.839 1.10937 856.031C0.864584 855.224 0.656251 854.411 0.494792 853.583C0.328125 852.755 0.208333 851.927 0.125 851.089C0.0416667 850.25 0 849.411 0 848.568C0 847.724 0.0416667 846.885 0.125 846.047C0.208333 845.208 0.328125 844.375 0.494792 843.552C0.656251 842.724 0.864584 841.906 1.10937 841.104C1.35417 840.297 1.63542 839.505 1.95833 838.724C2.28125 837.948 2.64063 837.188 3.03646 836.443C3.43229 835.703 3.86458 834.979 4.33333 834.281C4.80208 833.578 5.30208 832.906 5.83854 832.255C6.36979 831.604 6.9375 830.979 7.53125 830.385C8.125 829.786 8.75 829.224 9.40104 828.688C10.0521 828.156 10.7292 827.656 11.4271 827.188C12.1302 826.719 12.849 826.286 13.5937 825.891C14.3333 825.49 15.0937 825.13 15.875 824.807C16.651 824.49 17.4427 824.203 18.25 823.958C19.0573 823.714 19.8698 823.51 20.6979 823.349C21.526 823.182 22.3542 823.057 23.1927 822.974C24.0313 822.896 24.8698 822.854 25.7135 822.854C36.4531 823.234 47.151 822.755 57.8073 821.417C68.4688 820.073 78.9531 817.891 89.2604 814.859C99.5677 811.833 109.568 808 119.26 803.365C128.953 798.724 138.208 793.339 147.036 787.214C148.792 785.786 150.604 784.438 152.474 783.172C154.344 781.901 156.26 780.708 158.234 779.604C160.203 778.495 162.219 777.479 164.276 776.542C166.339 775.609 168.432 774.76 170.563 774.005C172.693 773.25 174.849 772.589 177.036 772.016C179.224 771.443 181.432 770.964 183.661 770.583C185.891 770.198 188.13 769.911 190.38 769.719C192.635 769.526 194.891 769.427 197.151 769.427C199.411 769.427 201.667 769.526 203.922 769.719C206.172 769.911 208.411 770.198 210.641 770.583C212.87 770.964 215.078 771.443 217.266 772.016C219.453 772.589 221.609 773.25 223.74 774.005C225.87 774.76 227.964 775.609 230.026 776.542C232.083 777.479 234.099 778.495 236.068 779.604C238.042 780.708 239.964 781.901 241.833 783.172C243.703 784.438 245.516 785.786 247.271 787.214C251.823 789.938 256.469 792.51 261.193 794.927C265.922 797.339 270.729 799.594 275.609 801.682C280.49 803.771 285.438 805.698 290.448 807.453C295.458 809.208 300.521 810.797 305.641 812.214C310.755 813.625 315.917 814.87 321.12 815.932C326.318 817 331.552 817.891 336.813 818.604C342.073 819.318 347.354 819.854 352.651 820.214C357.948 820.573 363.255 820.75 368.563 820.75C373.875 820.75 379.177 820.573 384.474 820.214C389.771 819.854 395.052 819.318 400.313 818.604C405.573 817.891 410.807 817 416.005 815.932C421.208 814.87 426.37 813.625 431.484 812.214C436.604 810.797 441.667 809.208 446.677 807.453C451.688 805.698 456.635 803.771 461.516 801.682C466.396 799.594 471.203 797.339 475.932 794.927C480.661 792.51 485.302 789.938 489.859 787.214C491.615 785.786 493.427 784.443 495.297 783.172C497.172 781.901 499.094 780.714 501.063 779.609C503.036 778.5 505.052 777.479 507.115 776.547C509.172 775.615 511.271 774.766 513.401 774.01C515.531 773.255 517.693 772.594 519.88 772.021C522.068 771.448 524.276 770.974 526.505 770.589C528.734 770.203 530.974 769.917 533.229 769.724C535.479 769.531 537.74 769.438 540 769.438C542.26 769.438 544.521 769.531 546.771 769.724C549.026 769.917 551.266 770.203 553.495 770.589C555.724 770.974 557.932 771.448 560.12 772.021C562.307 772.594 564.469 773.255 566.599 774.01C568.729 774.766 570.828 775.615 572.885 776.547C574.948 777.479 576.964 778.5 578.938 779.609C580.906 780.714 582.828 781.901 584.703 783.172C586.573 784.443 588.385 785.786 590.141 787.214C598.964 793.339 608.219 798.719 617.906 803.359C627.589 807.995 637.589 811.828 647.891 814.854C658.193 817.885 668.672 820.068 679.328 821.411C689.984 822.75 700.677 823.234 711.411 822.854C722.151 823.234 732.849 822.755 743.505 821.417C754.167 820.073 764.651 817.891 774.958 814.859C785.266 811.833 795.266 808 804.958 803.365C814.651 798.724 823.906 793.339 832.729 787.214C834.484 785.786 836.297 784.438 838.167 783.172C840.036 781.901 841.958 780.708 843.932 779.604C845.901 778.495 847.917 777.479 849.974 776.542C852.036 775.609 854.13 774.76 856.26 774.005C858.391 773.25 860.547 772.589 862.734 772.016C864.922 771.443 867.13 770.964 869.359 770.583C871.589 770.198 873.828 769.911 876.078 769.719C878.333 769.526 880.589 769.427 882.849 769.427C885.109 769.427 887.365 769.526 889.62 769.719C891.87 769.911 894.109 770.198 896.339 770.583C898.568 770.964 900.776 771.443 902.964 772.016C905.151 772.589 907.307 773.25 909.438 774.005C911.568 774.76 913.661 775.609 915.724 776.542C917.781 777.479 919.797 778.495 921.766 779.604C923.74 780.708 925.656 781.901 927.526 783.172C929.396 784.438 931.208 785.786 932.964 787.214C941.792 793.339 951.047 798.724 960.74 803.365C970.432 808 980.432 811.833 990.74 814.859C1001.05 817.891 1011.53 820.073 1022.19 821.417C1032.85 822.755 1043.55 823.234 1054.29 822.854C1055.13 822.854 1055.97 822.896 1056.81 822.974C1057.65 823.057 1058.47 823.182 1059.3 823.349C1060.13 823.51 1060.94 823.714 1061.75 823.958C1062.56 824.203 1063.35 824.49 1064.13 824.807C1064.91 825.13 1065.67 825.49 1066.41 825.891C1067.15 826.286 1067.87 826.719 1068.57 827.188C1069.27 827.656 1069.95 828.156 1070.6 828.688C1071.25 829.224 1071.88 829.786 1072.47 830.385C1073.06 830.979 1073.63 831.604 1074.16 832.255C1074.7 832.906 1075.2 833.578 1075.67 834.281C1076.14 834.979 1076.57 835.703 1076.96 836.443C1077.36 837.188 1077.72 837.948 1078.04 838.724C1078.36 839.505 1078.65 840.297 1078.89 841.104C1079.14 841.906 1079.34 842.724 1079.51 843.552C1079.67 844.375 1079.79 845.208 1079.88 846.047C1079.96 846.885 1080 847.724 1080 848.568ZM1054.29 977.141C1043.55 977.521 1032.85 977.042 1022.19 975.698C1011.53 974.359 1001.05 972.177 990.74 969.146C980.432 966.12 970.432 962.286 960.74 957.646C951.047 953.01 941.792 947.625 932.964 941.5C931.208 940.073 929.396 938.724 927.526 937.453C925.656 936.182 923.74 934.995 921.766 933.891C919.797 932.781 917.781 931.76 915.724 930.828C913.661 929.891 911.568 929.047 909.438 928.292C907.307 927.536 905.151 926.87 902.964 926.302C900.776 925.729 898.568 925.25 896.339 924.865C894.109 924.484 891.87 924.193 889.62 924C887.365 923.813 885.109 923.714 882.849 923.714C880.589 923.714 878.333 923.813 876.078 924C873.828 924.193 871.589 924.484 869.359 924.865C867.13 925.25 864.922 925.729 862.734 926.302C860.547 926.87 858.391 927.536 856.26 928.292C854.13 929.047 852.036 929.891 849.974 930.828C847.917 931.76 845.901 932.781 843.932 933.891C841.958 934.995 840.036 936.182 838.167 937.453C836.297 938.724 834.484 940.073 832.729 941.5C823.906 947.625 814.651 953.01 804.958 957.646C795.266 962.286 785.266 966.12 774.958 969.146C764.651 972.177 754.167 974.359 743.505 975.698C732.849 977.042 722.151 977.521 711.411 977.141C700.677 977.516 689.984 977.036 679.328 975.698C668.672 974.354 658.193 972.172 647.891 969.141C637.589 966.115 627.589 962.281 617.906 957.646C608.219 953.005 598.964 947.625 590.141 941.5C588.385 940.073 586.573 938.724 584.703 937.458C582.828 936.188 580.906 935 578.938 933.891C576.964 932.786 574.948 931.766 572.885 930.833C570.828 929.901 568.729 929.052 566.599 928.297C564.469 927.542 562.307 926.88 560.12 926.307C557.932 925.734 555.724 925.26 553.495 924.875C551.266 924.49 549.026 924.203 546.771 924.01C544.521 923.818 542.26 923.724 540 923.724C537.74 923.724 535.479 923.818 533.229 924.01C530.974 924.203 528.734 924.49 526.505 924.875C524.276 925.26 522.068 925.734 519.88 926.307C517.693 926.88 515.531 927.542 513.401 928.297C511.271 929.052 509.172 929.901 507.115 930.833C505.052 931.766 503.036 932.786 501.063 933.891C499.094 935 497.172 936.188 495.297 937.458C493.427 938.724 491.615 940.073 489.859 941.5C485.302 944.229 480.661 946.797 475.932 949.214C471.203 951.63 466.396 953.885 461.516 955.974C456.635 958.068 451.693 959.99 446.682 961.75C441.672 963.505 436.604 965.094 431.49 966.51C426.37 967.927 421.208 969.167 416.01 970.234C410.807 971.302 405.578 972.193 400.313 972.906C395.052 973.62 389.771 974.156 384.474 974.516C379.177 974.875 373.875 975.052 368.563 975.052C363.255 975.052 357.948 974.875 352.651 974.516C347.354 974.156 342.073 973.62 336.813 972.906C331.552 972.193 326.318 971.302 321.115 970.234C315.917 969.167 310.755 967.927 305.635 966.51C300.521 965.094 295.458 963.505 290.443 961.75C285.432 959.99 280.49 958.068 275.609 955.974C270.729 953.885 265.922 951.63 261.193 949.214C256.464 946.797 251.823 944.229 247.271 941.5C245.516 940.073 243.703 938.724 241.833 937.453C239.964 936.182 238.042 934.995 236.068 933.891C234.099 932.781 232.083 931.76 230.026 930.828C227.964 929.891 225.87 929.047 223.74 928.292C221.609 927.536 219.453 926.87 217.266 926.302C215.078 925.729 212.87 925.25 210.641 924.865C208.411 924.484 206.172 924.193 203.922 924C201.667 923.813 199.411 923.714 197.151 923.714C194.891 923.714 192.635 923.813 190.38 924C188.13 924.193 185.891 924.484 183.661 924.865C181.432 925.25 179.224 925.729 177.036 926.302C174.849 926.87 172.693 927.536 170.563 928.292C168.432 929.047 166.339 929.891 164.276 930.828C162.219 931.76 160.203 932.781 158.234 933.891C156.26 934.995 154.344 936.182 152.474 937.453C150.604 938.724 148.792 940.073 147.036 941.5C138.208 947.625 128.953 953.01 119.26 957.646C109.568 962.286 99.5677 966.12 89.2604 969.146C78.9531 972.177 68.4688 974.359 57.8073 975.698C47.151 977.042 36.4531 977.521 25.7135 977.141C24.8698 977.141 24.0313 977.177 23.1927 977.26C22.3542 977.344 21.526 977.469 20.6979 977.63C19.8698 977.797 19.0573 978 18.25 978.245C17.4427 978.49 16.651 978.771 15.875 979.094C15.0937 979.417 14.3333 979.776 13.5937 980.172C12.849 980.573 12.1302 981.005 11.4271 981.474C10.7292 981.938 10.0521 982.443 9.40104 982.974C8.75 983.51 8.125 984.073 7.53125 984.672C6.9375 985.266 6.36979 985.891 5.83854 986.542C5.30208 987.193 4.80208 987.865 4.33333 988.568C3.86458 989.266 3.43229 989.99 3.03646 990.729C2.64063 991.474 2.28125 992.234 1.95833 993.01C1.63542 993.792 1.35417 994.583 1.10937 995.385C0.864584 996.193 0.656251 997.01 0.494792 997.833C0.328125 998.661 0.208333 999.495 0.125 1000.33C0.0416667 1001.17 0 1002.01 0 1002.85C0 1003.69 0.0416667 1004.54 0.125 1005.38C0.208333 1006.21 0.328125 1007.04 0.494792 1007.87C0.656251 1008.69 0.864584 1009.51 1.10937 1010.32C1.35417 1011.13 1.63542 1011.92 1.95833 1012.69C2.28125 1013.47 2.64063 1014.23 3.03646 1014.97C3.43229 1015.72 3.86458 1016.44 4.33333 1017.14C4.80208 1017.84 5.30208 1018.52 5.83854 1019.17C6.36979 1019.82 6.9375 1020.44 7.53125 1021.04C8.125 1021.63 8.75 1022.2 9.40104 1022.73C10.0521 1023.27 10.7292 1023.77 11.4271 1024.23C12.1302 1024.7 12.849 1025.14 13.5937 1025.53C14.3333 1025.93 15.0937 1026.29 15.875 1026.61C16.651 1026.93 17.4427 1027.21 18.25 1027.46C19.0573 1027.7 19.8698 1027.91 20.6979 1028.07C21.526 1028.23 22.3542 1028.36 23.1927 1028.44C24.0313 1028.53 24.8698 1028.57 25.7135 1028.57C32.526 1028.78 39.3333 1028.72 46.1406 1028.37C52.9479 1028.03 59.7292 1027.4 66.4844 1026.5C73.2396 1025.6 79.9479 1024.42 86.6042 1022.96C93.2656 1021.51 99.8542 1019.79 106.37 1017.79C112.885 1015.8 119.307 1013.54 125.641 1011.02C131.969 1008.49 138.188 1005.71 144.292 1002.68C150.391 999.641 156.359 996.359 162.193 992.839C168.026 989.313 173.703 985.552 179.229 981.563C180.474 980.5 181.802 979.557 183.219 978.734C184.63 977.906 186.104 977.214 187.641 976.646C189.172 976.083 190.745 975.656 192.359 975.37C193.969 975.083 195.594 974.938 197.229 974.938C198.865 974.938 200.49 975.083 202.099 975.37C203.708 975.656 205.281 976.083 206.818 976.646C208.354 977.214 209.828 977.906 211.24 978.734C212.651 979.557 213.984 980.5 215.229 981.563C220.75 985.552 226.432 989.313 232.266 992.839C238.099 996.359 244.063 999.641 250.167 1002.68C256.271 1005.71 262.484 1008.49 268.818 1011.02C275.146 1013.54 281.573 1015.8 288.089 1017.79C294.604 1019.79 301.193 1021.51 307.849 1022.96C314.51 1024.42 321.219 1025.6 327.974 1026.5C334.729 1027.4 341.51 1028.03 348.313 1028.37C355.12 1028.72 361.932 1028.78 368.745 1028.57C375.552 1028.78 382.359 1028.71 389.167 1028.37C395.969 1028.02 402.75 1027.4 409.5 1026.49C416.255 1025.59 422.958 1024.42 429.615 1022.96C436.271 1021.51 442.854 1019.78 449.37 1017.79C455.885 1015.79 462.307 1013.53 468.635 1011.01C474.964 1008.48 481.177 1005.71 487.281 1002.67C493.38 999.641 499.344 996.359 505.177 992.833C511.005 989.307 516.682 985.552 522.203 981.563C523.453 980.505 524.781 979.563 526.198 978.74C527.609 977.917 529.083 977.224 530.62 976.656C532.156 976.094 533.729 975.672 535.339 975.385C536.948 975.099 538.568 974.953 540.203 974.953C541.844 974.953 543.464 975.099 545.073 975.385C546.682 975.672 548.255 976.094 549.792 976.656C551.328 977.224 552.802 977.917 554.214 978.74C555.63 979.563 556.958 980.505 558.203 981.563C563.729 985.552 569.406 989.307 575.234 992.833C581.068 996.359 587.031 999.641 593.13 1002.67C599.234 1005.71 605.448 1008.48 611.776 1011.01C618.104 1013.53 624.526 1015.79 631.042 1017.79C637.557 1019.78 644.141 1021.51 650.797 1022.96C657.453 1024.42 664.156 1025.59 670.911 1026.49C677.661 1027.4 684.443 1028.02 691.245 1028.37C698.052 1028.71 704.859 1028.78 711.667 1028.57C718.479 1028.78 725.292 1028.72 732.099 1028.37C738.901 1028.03 745.682 1027.4 752.438 1026.5C759.193 1025.6 765.901 1024.42 772.563 1022.96C779.219 1021.51 785.807 1019.79 792.323 1017.79C798.839 1015.8 805.266 1013.54 811.594 1011.02C817.927 1008.49 824.141 1005.71 830.245 1002.68C836.349 999.641 842.313 996.359 848.146 992.839C853.979 989.313 859.661 985.552 865.182 981.563C866.427 980.5 867.76 979.557 869.172 978.734C870.583 977.906 872.057 977.208 873.594 976.646C875.13 976.083 876.703 975.656 878.313 975.37C879.922 975.083 881.547 974.938 883.182 974.938C884.818 974.938 886.443 975.083 888.052 975.37C889.661 975.656 891.24 976.083 892.771 976.646C894.307 977.208 895.781 977.906 897.193 978.729C898.609 979.557 899.938 980.5 901.182 981.563C906.693 985.542 912.359 989.292 918.172 992.807C923.99 996.323 929.943 999.599 936.031 1002.63C942.115 1005.66 948.318 1008.43 954.63 1010.95C960.943 1013.47 967.349 1015.73 973.849 1017.72C980.344 1019.72 986.917 1021.45 993.557 1022.9C1000.19 1024.36 1006.89 1025.54 1013.62 1026.45C1020.36 1027.36 1027.12 1027.99 1033.91 1028.34C1040.7 1028.69 1047.49 1028.77 1054.29 1028.57C1055.13 1028.57 1055.97 1028.53 1056.81 1028.44C1057.65 1028.36 1058.47 1028.23 1059.3 1028.07C1060.13 1027.91 1060.94 1027.7 1061.75 1027.46C1062.56 1027.21 1063.35 1026.93 1064.13 1026.61C1064.91 1026.29 1065.67 1025.93 1066.41 1025.53C1067.15 1025.14 1067.87 1024.7 1068.57 1024.23C1069.27 1023.77 1069.95 1023.27 1070.6 1022.73C1071.25 1022.2 1071.88 1021.63 1072.47 1021.04C1073.06 1020.44 1073.63 1019.82 1074.16 1019.17C1074.7 1018.52 1075.2 1017.84 1075.67 1017.14C1076.14 1016.44 1076.57 1015.72 1076.96 1014.97C1077.36 1014.23 1077.72 1013.47 1078.04 1012.69C1078.36 1011.92 1078.65 1011.13 1078.89 1010.32C1079.14 1009.51 1079.34 1008.69 1079.51 1007.87C1079.67 1007.04 1079.79 1006.21 1079.88 1005.38C1079.96 1004.54 1080 1003.69 1080 1002.85C1080 1002.01 1079.96 1001.17 1079.88 1000.33C1079.79 999.495 1079.67 998.661 1079.51 997.833C1079.34 997.01 1079.14 996.193 1078.89 995.385C1078.65 994.583 1078.36 993.792 1078.04 993.01C1077.72 992.234 1077.36 991.474 1076.96 990.729C1076.57 989.99 1076.14 989.266 1075.67 988.568C1075.2 987.865 1074.7 987.193 1074.16 986.542C1073.63 985.891 1073.06 985.266 1072.47 984.672C1071.88 984.073 1071.25 983.51 1070.6 982.974C1069.95 982.443 1069.27 981.938 1068.57 981.474C1067.87 981.005 1067.15 980.573 1066.41 980.172C1065.67 979.776 1064.91 979.417 1064.13 979.094C1063.35 978.771 1062.56 978.49 1061.75 978.245C1060.94 978 1060.13 977.797 1059.3 977.63C1058.47 977.469 1057.65 977.344 1056.81 977.26C1055.97 977.177 1055.13 977.141 1054.29 977.141ZM720 694.281V565.708H360V694.281C360 695.125 359.958 695.964 359.875 696.802C359.792 697.641 359.672 698.474 359.505 699.297C359.344 700.125 359.135 700.938 358.891 701.745C358.646 702.552 358.365 703.344 358.042 704.12C357.719 704.901 357.359 705.661 356.964 706.401C356.568 707.146 356.135 707.865 355.667 708.568C355.198 709.266 354.698 709.943 354.161 710.594C353.63 711.245 353.063 711.87 352.469 712.464C351.875 713.057 351.25 713.625 350.599 714.156C349.948 714.693 349.271 715.193 348.573 715.661C347.87 716.13 347.151 716.563 346.406 716.958C345.667 717.354 344.906 717.714 344.125 718.036C343.349 718.359 342.557 718.646 341.75 718.885C340.943 719.13 340.13 719.339 339.302 719.5C338.474 719.667 337.646 719.786 336.807 719.87C335.969 719.953 335.13 719.995 334.286 719.995C333.443 719.995 332.604 719.953 331.766 719.87C330.927 719.786 330.094 719.667 329.271 719.5C328.443 719.339 327.625 719.13 326.823 718.885C326.016 718.646 325.224 718.359 324.443 718.036C323.667 717.714 322.906 717.354 322.161 716.958C321.422 716.563 320.698 716.13 320 715.661C319.297 715.193 318.625 714.693 317.974 714.156C317.323 713.625 316.698 713.057 316.104 712.464C315.505 711.87 314.943 711.245 314.406 710.594C313.875 709.943 313.375 709.266 312.906 708.568C312.438 707.865 312.005 707.146 311.609 706.401C311.208 705.661 310.849 704.901 310.531 704.12C310.208 703.344 309.922 702.552 309.677 701.745C309.432 700.938 309.229 700.125 309.068 699.297C308.901 698.474 308.776 697.641 308.693 696.802C308.615 695.964 308.573 695.125 308.573 694.281V282.854C308.578 279.068 308.672 275.281 308.865 271.5C309.052 267.719 309.333 263.943 309.708 260.177C310.083 256.406 310.552 252.651 311.109 248.906C311.667 245.161 312.318 241.432 313.063 237.719C313.802 234.005 314.635 230.318 315.557 226.641C316.479 222.969 317.495 219.323 318.594 215.703C319.698 212.078 320.885 208.484 322.161 204.922C323.443 201.354 324.807 197.828 326.255 194.328C327.708 190.833 329.245 187.37 330.865 183.948C332.484 180.526 334.188 177.146 335.974 173.807C337.76 170.469 339.625 167.177 341.573 163.932C343.521 160.682 345.547 157.484 347.651 154.339C349.755 151.193 351.938 148.099 354.193 145.057C356.448 142.016 358.781 139.031 361.182 136.104C363.583 133.177 366.057 130.313 368.599 127.505C371.141 124.703 373.755 121.958 376.432 119.281C379.109 116.604 381.849 113.995 384.656 111.453C387.458 108.911 390.328 106.438 393.25 104.036C396.177 101.63 399.161 99.3021 402.203 97.0469C405.245 94.7917 408.339 92.6094 411.484 90.5052C414.635 88.401 417.833 86.375 421.078 84.4271C424.323 82.4792 427.62 80.6146 430.958 78.8281C434.297 77.0417 437.677 75.3385 441.099 73.7188C444.521 72.0938 447.979 70.5625 451.474 69.1094C454.974 67.6563 458.505 66.2917 462.068 65.0156C465.63 63.7396 469.224 62.5469 472.849 61.4479C476.469 60.3437 480.12 59.3333 483.792 58.4115C487.464 57.4896 491.156 56.6563 494.87 55.9115C498.583 55.1719 502.313 54.5208 506.057 53.9635C509.802 53.401 513.557 52.9375 517.323 52.5625C521.094 52.1875 524.865 51.9063 528.646 51.7135C532.427 51.526 536.214 51.4271 540 51.4219C540.844 51.4219 541.682 51.4635 542.521 51.5469C543.359 51.6302 544.193 51.7552 545.016 51.9167C545.844 52.0833 546.656 52.2865 547.464 52.5313C548.271 52.776 549.063 53.0573 549.839 53.3802C550.62 53.7031 551.38 54.0625 552.12 54.4583C552.865 54.8594 553.583 55.2917 554.286 55.7552C554.984 56.224 555.661 56.724 556.313 57.2604C556.964 57.7969 557.589 58.3594 558.182 58.9531C558.776 59.5521 559.344 60.1719 559.875 60.8229C560.411 61.474 560.911 62.151 561.38 62.8542C561.849 63.5521 562.281 64.276 562.677 65.0156C563.073 65.7604 563.432 66.5208 563.755 67.2969C564.078 68.0781 564.365 68.8698 564.609 69.6719C564.849 70.4792 565.057 71.2969 565.219 72.1198C565.385 72.9479 565.51 73.7813 565.589 74.6198C565.672 75.4583 565.714 76.2969 565.714 77.1406C565.714 77.9792 565.672 78.8229 565.589 79.6563C565.51 80.4948 565.385 81.3281 565.219 82.1563C565.057 82.9792 564.849 83.7969 564.609 84.6042C564.365 85.4063 564.078 86.2031 563.755 86.9792C563.432 87.7552 563.073 88.5156 562.677 89.2604C562.281 90 561.849 90.724 561.38 91.4219C560.911 92.125 560.411 92.8021 559.875 93.4531C559.344 94.1042 558.776 94.724 558.182 95.3229C557.589 95.9167 556.964 96.4792 556.313 97.0156C555.661 97.5521 554.984 98.0521 554.286 98.5208C553.583 98.9844 552.865 99.4167 552.12 99.8177C551.38 100.214 550.62 100.573 549.839 100.896C549.063 101.219 548.271 101.5 547.464 101.745C546.656 101.99 545.844 102.193 545.016 102.359C544.193 102.521 543.359 102.646 542.521 102.729C541.682 102.813 540.844 102.854 540 102.854C537.328 102.859 534.661 102.927 531.995 103.052C529.328 103.182 526.667 103.365 524.005 103.609C521.349 103.854 518.698 104.161 516.052 104.526C513.406 104.885 510.771 105.307 508.146 105.792C505.521 106.271 502.906 106.813 500.302 107.406C497.703 108.005 495.115 108.661 492.542 109.375C489.969 110.083 487.411 110.854 484.875 111.682C482.333 112.51 479.818 113.391 477.318 114.328C474.818 115.271 472.339 116.266 469.885 117.313C467.432 118.359 465 119.464 462.594 120.625C460.188 121.781 457.807 122.99 455.458 124.255C453.104 125.521 450.781 126.833 448.49 128.203C446.198 129.568 443.938 130.984 441.703 132.453C439.474 133.922 437.281 135.438 435.115 137.005C432.953 138.573 430.828 140.182 428.74 141.844C426.646 143.505 424.594 145.214 422.578 146.964C420.568 148.719 418.594 150.51 416.656 152.354C414.724 154.193 412.828 156.073 410.979 158C409.13 159.922 407.323 161.891 405.563 163.896C403.797 165.901 402.078 167.943 400.406 170.026C398.734 172.104 397.109 174.224 395.536 176.375C393.958 178.531 392.427 180.719 390.948 182.943C389.469 185.161 388.036 187.417 386.661 189.703C385.281 191.99 383.953 194.302 382.677 196.651C381.401 198.995 380.177 201.365 379.005 203.766C377.833 206.167 376.719 208.589 375.656 211.042C374.594 213.49 373.589 215.964 372.635 218.453C371.682 220.948 370.786 223.464 369.948 226C369.104 228.531 368.323 231.083 367.599 233.651C366.87 236.224 366.203 238.807 365.589 241.406C364.979 244.005 364.427 246.615 363.932 249.24C363.438 251.859 363 254.495 362.625 257.141H722.625C723.005 253.651 723.469 250.172 724.01 246.708C724.552 243.24 725.172 239.792 725.87 236.349C726.568 232.911 727.344 229.495 728.198 226.089C729.052 222.688 729.984 219.307 730.995 215.948C732 212.583 733.089 209.25 734.25 205.938C735.406 202.63 736.646 199.344 737.953 196.094C739.266 192.839 740.651 189.615 742.104 186.422C743.563 183.229 745.094 180.073 746.693 176.953C748.297 173.833 749.964 170.75 751.708 167.703C753.448 164.656 755.26 161.651 757.135 158.688C759.016 155.729 760.964 152.807 762.974 149.932C764.984 147.057 767.063 144.234 769.203 141.453C771.344 138.672 773.547 135.943 775.807 133.266C778.073 130.583 780.401 127.958 782.781 125.385C785.167 122.813 787.609 120.297 790.109 117.833C792.609 115.37 795.161 112.969 797.771 110.62C800.38 108.276 803.042 105.99 805.755 103.766C808.469 101.542 811.229 99.3802 814.042 97.2813C816.854 95.1823 819.714 93.151 822.615 91.1823C825.521 89.2135 828.469 87.3125 831.458 85.4792C834.448 83.6458 837.479 81.8802 840.552 80.1875C843.625 78.4896 846.729 76.8646 849.875 75.3125C853.021 73.7552 856.203 72.276 859.417 70.8646C862.625 69.4583 865.87 68.1198 869.146 66.8594C872.417 65.599 875.719 64.4115 879.047 63.3021C882.375 62.1927 885.724 61.1563 889.099 60.1979C892.474 59.2396 895.87 58.3594 899.286 57.5573C902.703 56.7552 906.13 56.0313 909.583 55.3802C913.031 54.7344 916.49 54.1667 919.964 53.6771C923.438 53.1875 926.922 52.7813 930.417 52.4479C933.906 52.1198 937.406 51.8698 940.911 51.6979C944.411 51.526 947.922 51.4375 951.427 51.4219C952.271 51.4219 953.109 51.4635 953.948 51.5469C954.786 51.6302 955.62 51.7552 956.443 51.9167C957.271 52.0833 958.089 52.2865 958.891 52.5313C959.698 52.776 960.49 53.0573 961.271 53.3802C962.047 53.7031 962.807 54.0625 963.552 54.4583C964.292 54.8594 965.016 55.2917 965.714 55.7552C966.417 56.224 967.089 56.724 967.74 57.2604C968.391 57.7969 969.016 58.3594 969.609 58.9531C970.208 59.5521 970.771 60.1719 971.307 60.8229C971.839 61.474 972.339 62.151 972.807 62.8542C973.276 63.5521 973.708 64.276 974.104 65.0156C974.505 65.7604 974.865 66.5208 975.188 67.2969C975.505 68.0781 975.792 68.8698 976.036 69.6719C976.281 70.4792 976.484 71.2969 976.651 72.1198C976.813 72.9479 976.938 73.7813 977.021 74.6198C977.099 75.4583 977.141 76.2969 977.141 77.1406C977.141 77.9792 977.099 78.8229 977.021 79.6563C976.938 80.4948 976.813 81.3281 976.651 82.1563C976.484 82.9792 976.281 83.7969 976.036 84.6042C975.792 85.4063 975.505 86.2031 975.188 86.9792C974.865 87.7552 974.505 88.5156 974.104 89.2604C973.708 90 973.276 90.724 972.807 91.4219C972.339 92.125 971.839 92.8021 971.307 93.4531C970.771 94.1042 970.208 94.724 969.609 95.3229C969.016 95.9167 968.391 96.4792 967.74 97.0156C967.089 97.5521 966.417 98.0521 965.714 98.5208C965.016 98.9844 964.292 99.4167 963.552 99.8177C962.807 100.214 962.047 100.573 961.271 100.896C960.49 101.219 959.698 101.5 958.891 101.745C958.089 101.99 957.271 102.193 956.443 102.359C955.62 102.521 954.786 102.646 953.948 102.729C953.109 102.813 952.271 102.854 951.427 102.854C948.484 102.854 945.536 102.927 942.594 103.068C939.656 103.214 936.719 103.432 933.786 103.719C930.854 104.01 927.932 104.37 925.016 104.802C922.104 105.234 919.203 105.734 916.313 106.313C913.422 106.885 910.552 107.531 907.693 108.245C904.833 108.964 901.995 109.75 899.177 110.604C896.359 111.458 893.563 112.38 890.786 113.375C888.016 114.365 885.266 115.427 882.547 116.552C879.823 117.682 877.13 118.875 874.469 120.135C871.807 121.396 869.177 122.719 866.578 124.104C863.979 125.495 861.417 126.948 858.891 128.464C856.365 129.974 853.875 131.552 851.427 133.188C848.974 134.823 846.568 136.521 844.203 138.276C841.839 140.031 839.516 141.844 837.24 143.708C834.958 145.578 832.729 147.505 830.547 149.479C828.365 151.458 826.234 153.49 824.151 155.573C822.068 157.656 820.036 159.792 818.057 161.974C816.078 164.156 814.156 166.385 812.286 168.661C810.417 170.938 808.604 173.26 806.849 175.625C805.099 177.995 803.401 180.401 801.766 182.849C800.125 185.297 798.552 187.786 797.036 190.313C795.521 192.839 794.073 195.401 792.682 198C791.292 200.599 789.969 203.229 788.708 205.891C787.453 208.557 786.255 211.25 785.13 213.969C784.005 216.693 782.943 219.438 781.953 222.214C780.958 224.984 780.036 227.781 779.177 230.599C778.323 233.422 777.536 236.26 776.823 239.115C776.109 241.974 775.464 244.849 774.885 247.734C774.313 250.625 773.807 253.526 773.375 256.443C772.943 259.354 772.583 262.276 772.297 265.208C772.005 268.141 771.792 271.078 771.646 274.021C771.5 276.964 771.427 279.906 771.427 282.854V694.281C771.427 695.125 771.385 695.964 771.302 696.802C771.224 697.641 771.099 698.474 770.932 699.297C770.771 700.125 770.568 700.938 770.323 701.745C770.078 702.552 769.792 703.344 769.469 704.12C769.151 704.901 768.792 705.661 768.391 706.401C767.995 707.146 767.563 707.865 767.094 708.568C766.625 709.266 766.125 709.943 765.594 710.594C765.057 711.245 764.495 711.87 763.896 712.464C763.302 713.057 762.677 713.625 762.026 714.156C761.375 714.693 760.703 715.193 760 715.661C759.302 716.13 758.578 716.563 757.833 716.958C757.094 717.354 756.333 717.714 755.552 718.036C754.776 718.359 753.984 718.646 753.177 718.885C752.375 719.13 751.557 719.339 750.729 719.5C749.906 719.667 749.073 719.786 748.234 719.87C747.396 719.953 746.557 719.995 745.714 719.995C744.87 719.995 744.031 719.953 743.193 719.87C742.354 719.786 741.526 719.667 740.698 719.5C739.87 719.339 739.057 719.13 738.25 718.885C737.443 718.646 736.651 718.359 735.875 718.036C735.094 717.714 734.333 717.354 733.594 716.958C732.849 716.563 732.13 716.13 731.427 715.661C730.729 715.193 730.052 714.693 729.401 714.156C728.75 713.625 728.125 713.057 727.531 712.464C726.938 711.87 726.37 711.245 725.839 710.594C725.302 709.943 724.802 709.266 724.333 708.568C723.865 707.865 723.432 707.146 723.036 706.401C722.641 705.661 722.281 704.901 721.958 704.12C721.635 703.344 721.354 702.552 721.109 701.745C720.865 700.938 720.656 700.125 720.495 699.297C720.328 698.474 720.208 697.641 720.125 696.802C720.042 695.964 720 695.125 720 694.281ZM720 514.281V308.568H360V514.281H720Z" fill="#AD0000"/>
</g>
</g>
<defs>
<clipPath id="clip0_847_721">
<rect width="1080" height="1080" fill="white"/>
</clipPath>
</defs>
</svg>
