<svg width="1080" height="1080" viewBox="0 0 1080 1080" fill="none" xmlns="http://www.w3.org/2000/svg">
<path d="M539.702 691.453H324.088C323.124 691.453 322.176 691.359 321.234 691.172C320.291 690.984 319.38 690.708 318.489 690.339C317.604 689.969 316.76 689.521 315.963 688.99C315.166 688.453 314.426 687.849 313.744 687.167C313.067 686.49 312.463 685.75 311.926 684.953C311.395 684.156 310.942 683.313 310.577 682.422C310.208 681.536 309.932 680.62 309.744 679.682C309.557 678.74 309.463 677.786 309.463 676.828V323.964C309.463 323.005 309.557 322.052 309.744 321.115C309.932 320.172 310.208 319.255 310.577 318.37C310.942 317.484 311.395 316.641 311.926 315.839C312.463 315.042 313.067 314.302 313.744 313.625C314.426 312.948 315.166 312.339 315.963 311.807C316.76 311.271 317.604 310.823 318.489 310.453C319.38 310.089 320.291 309.807 321.234 309.62C322.176 309.432 323.124 309.344 324.088 309.344H445.718C447.494 309.344 449.27 309.391 451.046 309.479C452.817 309.568 454.593 309.698 456.359 309.875C458.13 310.052 459.89 310.271 461.645 310.531C463.406 310.797 465.156 311.099 466.895 311.448C468.64 311.797 470.374 312.187 472.098 312.62C473.822 313.052 475.531 313.526 477.234 314.047C478.932 314.563 480.619 315.12 482.291 315.719C483.963 316.323 485.619 316.958 487.26 317.641C488.906 318.323 490.525 319.042 492.135 319.802C493.739 320.563 495.327 321.365 496.89 322.203C498.458 323.042 500.005 323.917 501.525 324.833C503.051 325.745 504.551 326.698 506.031 327.682C507.505 328.672 508.958 329.693 510.385 330.755C511.812 331.813 513.213 332.906 514.588 334.031C515.958 335.161 517.307 336.323 518.619 337.516C519.937 338.708 521.223 339.932 522.484 341.188C523.739 342.448 524.963 343.734 526.156 345.047C527.348 346.365 528.51 347.708 529.64 349.083C530.765 350.458 531.859 351.859 532.916 353.286C533.973 354.714 534.999 356.161 535.989 357.641C536.973 359.12 537.926 360.62 538.838 362.141C539.755 363.667 540.63 365.214 541.468 366.776C542.307 368.344 543.104 369.932 543.864 371.536C544.624 373.146 545.348 374.766 546.031 376.406C546.708 378.052 547.348 379.708 547.947 381.38C548.551 383.052 549.109 384.74 549.624 386.438C550.14 388.141 550.619 389.849 551.051 391.573C551.484 393.297 551.874 395.031 552.223 396.771C552.572 398.516 552.874 400.266 553.14 402.021C553.4 403.781 553.619 405.542 553.796 407.313C553.973 409.078 554.104 410.849 554.192 412.625C554.281 414.401 554.327 416.177 554.327 417.953V676.828C554.327 677.786 554.234 678.74 554.046 679.682C553.859 680.625 553.583 681.536 553.213 682.427C552.848 683.313 552.395 684.156 551.864 684.953C551.333 685.75 550.723 686.49 550.046 687.167C549.364 687.849 548.63 688.453 547.827 688.99C547.031 689.521 546.187 689.969 545.301 690.339C544.416 690.708 543.499 690.984 542.557 691.172C541.614 691.359 540.666 691.453 539.702 691.453ZM338.713 662.203H525.083V417.953C525.077 415.354 524.947 412.76 524.692 410.177C524.432 407.589 524.051 405.021 523.541 402.474C523.031 399.927 522.4 397.411 521.645 394.922C520.885 392.438 520.01 389.995 519.015 387.594C518.02 385.193 516.911 382.849 515.682 380.557C514.458 378.266 513.124 376.042 511.676 373.88C510.234 371.719 508.687 369.635 507.041 367.63C505.39 365.62 503.645 363.698 501.812 361.859C499.973 360.021 498.051 358.281 496.041 356.63C494.031 354.979 491.947 353.438 489.786 351.99C487.63 350.547 485.4 349.214 483.109 347.984C480.822 346.76 478.473 345.651 476.072 344.651C473.676 343.656 471.229 342.781 468.744 342.026C466.26 341.271 463.744 340.635 461.192 340.13C458.645 339.62 456.077 339.234 453.494 338.979C450.906 338.724 448.317 338.594 445.718 338.589H338.713V662.203Z" fill="#AD0000"/>
<path d="M761.26 358.474H755.594V387.724H761.26C762.042 387.724 762.818 387.766 763.599 387.844C764.375 387.917 765.146 388.037 765.917 388.188C766.682 388.339 767.438 388.531 768.188 388.761C768.932 388.985 769.672 389.25 770.391 389.547C771.115 389.849 771.818 390.182 772.51 390.552C773.198 390.922 773.87 391.323 774.516 391.755C775.167 392.193 775.797 392.656 776.401 393.151C777.005 393.646 777.583 394.172 778.135 394.724C778.688 395.276 779.214 395.854 779.708 396.458C780.203 397.068 780.667 397.693 781.104 398.344C781.536 398.99 781.938 399.662 782.307 400.349C782.677 401.042 783.01 401.745 783.313 402.469C783.609 403.188 783.875 403.927 784.104 404.672C784.328 405.422 784.521 406.177 784.672 406.943C784.828 407.714 784.943 408.485 785.016 409.261C785.094 410.042 785.135 410.818 785.135 411.599V687.448C785.135 688.229 785.094 689.011 785.021 689.787C784.943 690.568 784.828 691.339 784.672 692.104C784.521 692.87 784.328 693.63 784.104 694.375C783.875 695.125 783.609 695.86 783.313 696.584C783.01 697.302 782.677 698.011 782.307 698.698C781.938 699.391 781.536 700.057 781.104 700.709C780.667 701.36 780.203 701.985 779.708 702.589C779.214 703.193 778.688 703.771 778.135 704.323C777.583 704.875 777.005 705.401 776.401 705.896C775.797 706.396 775.167 706.86 774.516 707.292C773.87 707.729 773.198 708.13 772.51 708.5C771.818 708.87 771.115 709.203 770.391 709.5C769.672 709.802 768.932 710.063 768.188 710.292C767.438 710.521 766.682 710.709 765.917 710.865C765.146 711.016 764.375 711.13 763.599 711.209C762.818 711.287 762.042 711.323 761.26 711.328H318.844C318.063 711.323 317.286 711.287 316.505 711.209C315.729 711.13 314.958 711.016 314.188 710.865C313.422 710.709 312.667 710.521 311.917 710.292C311.172 710.063 310.432 709.802 309.714 709.5C308.99 709.203 308.286 708.87 307.594 708.5C306.906 708.13 306.234 707.729 305.589 707.292C304.938 706.86 304.307 706.396 303.703 705.896C303.099 705.401 302.521 704.875 301.969 704.323C301.417 703.771 300.891 703.193 300.396 702.589C299.901 701.985 299.438 701.36 299 700.709C298.568 700.057 298.167 699.391 297.797 698.698C297.427 698.011 297.094 697.302 296.792 696.584C296.495 695.86 296.229 695.125 296.005 694.375C295.776 693.63 295.583 692.87 295.432 692.104C295.281 691.339 295.161 690.568 295.089 689.787C295.01 689.011 294.969 688.229 294.969 687.448V411.599C294.969 410.818 295.01 410.042 295.089 409.261C295.161 408.485 295.281 407.714 295.432 406.943C295.583 406.177 295.776 405.422 296.005 404.672C296.229 403.927 296.495 403.193 296.792 402.469C297.094 401.745 297.427 401.042 297.797 400.349C298.167 399.662 298.568 398.99 299 398.344C299.438 397.693 299.901 397.068 300.396 396.458C300.891 395.854 301.417 395.276 301.969 394.724C302.521 394.172 303.099 393.646 303.703 393.151C304.307 392.656 304.938 392.193 305.589 391.755C306.234 391.323 306.906 390.922 307.594 390.552C308.286 390.182 308.99 389.849 309.714 389.547C310.432 389.25 311.172 388.985 311.917 388.761C312.667 388.531 313.422 388.339 314.188 388.188C314.958 388.037 315.729 387.917 316.505 387.844C317.286 387.766 318.063 387.724 318.844 387.724H324.089V358.474H318.844C317.104 358.479 315.37 358.563 313.641 358.735C311.911 358.912 310.193 359.167 308.484 359.505C306.781 359.849 305.094 360.271 303.432 360.776C301.766 361.281 300.13 361.87 298.526 362.537C296.917 363.203 295.349 363.948 293.813 364.766C292.281 365.589 290.792 366.479 289.344 367.448C287.901 368.417 286.505 369.448 285.161 370.552C283.818 371.656 282.526 372.823 281.297 374.052C280.068 375.281 278.901 376.573 277.797 377.917C276.693 379.261 275.656 380.656 274.693 382.099C273.724 383.547 272.833 385.037 272.01 386.568C271.193 388.104 270.448 389.672 269.781 391.281C269.115 392.886 268.526 394.521 268.021 396.188C267.516 397.849 267.094 399.537 266.75 401.24C266.411 402.948 266.151 404.667 265.979 406.396C265.807 408.125 265.724 409.86 265.719 411.599V687.448C265.724 689.188 265.807 690.922 265.979 692.656C266.151 694.386 266.411 696.104 266.75 697.807C267.094 699.516 267.516 701.198 268.021 702.865C268.526 704.526 269.115 706.162 269.781 707.771C270.448 709.375 271.193 710.948 272.01 712.479C272.833 714.016 273.724 715.505 274.693 716.948C275.656 718.396 276.693 719.792 277.797 721.136C278.901 722.479 280.068 723.766 281.297 724.995C282.526 726.229 283.813 727.396 285.161 728.495C286.505 729.599 287.901 730.636 289.344 731.604C290.792 732.568 292.281 733.464 293.813 734.281C295.349 735.104 296.917 735.849 298.526 736.516C300.13 737.182 301.766 737.766 303.432 738.276C305.094 738.781 306.781 739.203 308.484 739.542C310.193 739.886 311.911 740.141 313.641 740.313C315.37 740.485 317.104 740.573 318.844 740.573H761.255C762.995 740.573 764.734 740.485 766.464 740.313C768.193 740.141 769.911 739.886 771.62 739.542C773.323 739.203 775.01 738.781 776.672 738.276C778.339 737.766 779.974 737.182 781.578 736.516C783.188 735.849 784.755 735.104 786.286 734.287C787.823 733.464 789.313 732.568 790.76 731.604C792.203 730.636 793.599 729.599 794.943 728.495C796.286 727.396 797.573 726.229 798.807 724.995C800.036 723.766 801.203 722.479 802.307 721.136C803.411 719.792 804.443 718.396 805.411 716.948C806.38 715.505 807.271 714.016 808.094 712.479C808.911 710.948 809.656 709.375 810.323 707.771C810.99 706.162 811.578 704.526 812.083 702.865C812.589 701.198 813.01 699.516 813.354 697.807C813.693 696.104 813.948 694.386 814.12 692.656C814.292 690.922 814.38 689.188 814.385 687.448V411.599C814.38 409.86 814.292 408.125 814.12 406.396C813.948 404.667 813.693 402.948 813.354 401.24C813.01 399.537 812.589 397.849 812.083 396.188C811.578 394.521 810.99 392.886 810.323 391.281C809.656 389.672 808.911 388.104 808.094 386.568C807.271 385.037 806.38 383.547 805.411 382.099C804.443 380.656 803.411 379.261 802.307 377.917C801.203 376.573 800.036 375.281 798.807 374.052C797.578 372.823 796.286 371.656 794.943 370.552C793.599 369.448 792.203 368.417 790.76 367.448C789.313 366.479 787.823 365.589 786.292 364.766C784.755 363.948 783.188 363.203 781.578 362.537C779.974 361.87 778.339 361.281 776.672 360.776C775.01 360.271 773.323 359.849 771.62 359.505C769.911 359.167 768.193 358.912 766.464 358.74C764.734 358.563 763 358.479 761.26 358.474Z" fill="#AD0000"/>
<path d="M755.593 691.453H539.973C539.015 691.453 538.062 691.359 537.124 691.172C536.182 690.984 535.265 690.708 534.38 690.338C533.489 689.969 532.65 689.521 531.848 688.989C531.051 688.453 530.312 687.849 529.635 687.167C528.958 686.489 528.348 685.75 527.817 684.953C527.281 684.156 526.833 683.312 526.463 682.422C526.098 681.536 525.817 680.62 525.63 679.682C525.442 678.739 525.354 677.786 525.354 676.828V417.953C525.354 416.177 525.4 414.401 525.489 412.625C525.577 410.849 525.708 409.078 525.885 407.312C526.062 405.542 526.281 403.781 526.541 402.021C526.807 400.265 527.109 398.515 527.458 396.771C527.807 395.031 528.197 393.297 528.63 391.573C529.062 389.849 529.536 388.14 530.057 386.437C530.572 384.739 531.13 383.052 531.729 381.38C532.333 379.708 532.968 378.047 533.65 376.406C534.333 374.765 535.051 373.146 535.812 371.536C536.572 369.932 537.374 368.344 538.213 366.776C539.051 365.213 539.926 363.667 540.838 362.14C541.755 360.62 542.708 359.12 543.692 357.64C544.682 356.161 545.702 354.713 546.76 353.286C547.822 351.859 548.916 350.458 550.041 349.083C551.171 347.708 552.327 346.364 553.525 345.047C554.718 343.734 555.942 342.448 557.197 341.187C558.452 339.932 559.739 338.708 561.057 337.515C562.374 336.323 563.718 335.161 565.093 334.031C566.468 332.906 567.864 331.812 569.291 330.755C570.718 329.693 572.171 328.672 573.65 327.682C575.124 326.698 576.624 325.745 578.15 324.833C579.676 323.917 581.218 323.042 582.786 322.203C584.354 321.364 585.937 320.562 587.546 319.802C589.15 319.042 590.775 318.323 592.416 317.64C594.057 316.958 595.713 316.318 597.385 315.719C599.062 315.12 600.744 314.562 602.447 314.047C604.145 313.526 605.859 313.052 607.583 312.62C609.307 312.187 611.036 311.797 612.781 311.448C614.52 311.099 616.27 310.797 618.031 310.531C619.786 310.271 621.551 310.052 623.317 309.875C625.088 309.698 626.859 309.568 628.635 309.479C630.406 309.385 632.182 309.344 633.958 309.338H755.588C756.551 309.338 757.499 309.432 758.442 309.62C759.385 309.807 760.301 310.083 761.187 310.453C762.072 310.823 762.916 311.271 763.713 311.802C764.515 312.338 765.249 312.943 765.932 313.625C766.609 314.302 767.218 315.042 767.749 315.838C768.281 316.635 768.734 317.479 769.098 318.37C769.468 319.255 769.744 320.172 769.932 321.109C770.119 322.052 770.213 323.005 770.213 323.963V676.828C770.213 677.786 770.119 678.739 769.932 679.677C769.744 680.62 769.468 681.536 769.104 682.422C768.734 683.307 768.286 684.151 767.749 684.953C767.218 685.75 766.609 686.489 765.932 687.167C765.255 687.844 764.515 688.453 763.718 688.984C762.916 689.521 762.077 689.969 761.187 690.338C760.301 690.703 759.39 690.984 758.447 691.172C757.505 691.359 756.551 691.453 755.593 691.453ZM554.598 662.203H740.968V338.588H633.958C631.364 338.594 628.77 338.724 626.182 338.979C623.598 339.234 621.031 339.62 618.484 340.13C615.937 340.64 613.416 341.271 610.932 342.026C608.447 342.781 606.005 343.656 603.604 344.656C601.202 345.651 598.859 346.76 596.567 347.984C594.275 349.213 592.046 350.547 589.89 351.989C587.729 353.437 585.645 354.984 583.635 356.63C581.63 358.281 579.702 360.021 577.869 361.859C576.031 363.698 574.286 365.62 572.64 367.63C570.989 369.635 569.442 371.724 567.999 373.88C566.551 376.042 565.218 378.265 563.994 380.557C562.765 382.849 561.656 385.198 560.661 387.594C559.666 389.995 558.791 392.437 558.031 394.927C557.275 397.411 556.645 399.927 556.135 402.474C555.624 405.026 555.244 407.594 554.984 410.177C554.729 412.76 554.598 415.354 554.593 417.953L554.598 662.203Z" fill="#AD0000"/>
<path d="M482.859 468.13H380.932C379.973 468.13 379.02 468.036 378.077 467.849C377.14 467.661 376.223 467.385 375.338 467.021C374.447 466.651 373.604 466.203 372.807 465.667C372.01 465.135 371.27 464.526 370.593 463.849C369.911 463.172 369.307 462.432 368.77 461.63C368.239 460.833 367.791 459.989 367.421 459.104C367.051 458.219 366.775 457.302 366.588 456.359C366.4 455.422 366.307 454.469 366.307 453.51C366.307 452.547 366.4 451.599 366.588 450.656C366.775 449.713 367.051 448.797 367.421 447.911C367.791 447.026 368.239 446.182 368.77 445.385C369.307 444.583 369.911 443.844 370.593 443.167C371.27 442.489 372.01 441.88 372.807 441.349C373.604 440.812 374.447 440.364 375.338 439.995C376.223 439.63 377.14 439.354 378.077 439.167C379.02 438.979 379.973 438.885 380.932 438.885H482.859C483.822 438.885 484.77 438.979 485.713 439.167C486.656 439.354 487.567 439.63 488.458 439.995C489.343 440.364 490.187 440.812 490.984 441.349C491.786 441.88 492.52 442.489 493.202 443.167C493.88 443.844 494.484 444.583 495.02 445.385C495.551 446.182 496.005 447.026 496.369 447.911C496.739 448.797 497.015 449.713 497.202 450.656C497.39 451.599 497.484 452.547 497.484 453.51C497.484 454.469 497.39 455.422 497.202 456.359C497.015 457.302 496.739 458.219 496.369 459.104C496.005 459.989 495.551 460.833 495.02 461.63C494.484 462.432 493.88 463.172 493.202 463.849C492.52 464.526 491.786 465.135 490.984 465.667C490.187 466.203 489.343 466.651 488.458 467.021C487.567 467.385 486.656 467.661 485.713 467.849C484.77 468.036 483.822 468.13 482.859 468.13Z" fill="#AD0000"/>
<path d="M482.859 520.438H380.932C379.973 520.438 379.02 520.344 378.077 520.156C377.14 519.969 376.223 519.693 375.338 519.323C374.447 518.958 373.604 518.505 372.807 517.974C372.01 517.438 371.27 516.833 370.593 516.156C369.911 515.474 369.307 514.734 368.77 513.938C368.239 513.141 367.791 512.297 367.421 511.411C367.051 510.521 366.775 509.609 366.588 508.667C366.4 507.724 366.307 506.776 366.307 505.813C366.307 504.854 366.4 503.901 366.588 502.958C366.775 502.021 367.051 501.104 367.421 500.219C367.791 499.328 368.239 498.49 368.77 497.688C369.307 496.891 369.911 496.151 370.593 495.474C371.27 494.792 372.01 494.187 372.807 493.656C373.604 493.12 374.447 492.672 375.338 492.302C376.223 491.938 377.14 491.656 378.077 491.469C379.02 491.281 379.973 491.188 380.932 491.188H482.859C483.822 491.188 484.77 491.281 485.713 491.469C486.656 491.656 487.567 491.938 488.458 492.302C489.343 492.672 490.187 493.12 490.984 493.656C491.786 494.187 492.52 494.792 493.202 495.474C493.88 496.151 494.484 496.891 495.02 497.688C495.551 498.49 496.005 499.328 496.369 500.219C496.739 501.104 497.015 502.021 497.202 502.958C497.39 503.901 497.484 504.854 497.484 505.813C497.484 506.776 497.39 507.724 497.202 508.667C497.015 509.609 496.739 510.521 496.369 511.411C496.005 512.297 495.551 513.141 495.02 513.938C494.484 514.734 493.88 515.474 493.202 516.156C492.52 516.833 491.786 517.438 490.984 517.974C490.187 518.505 489.343 518.958 488.458 519.323C487.567 519.693 486.656 519.969 485.713 520.156C484.77 520.344 483.822 520.438 482.859 520.438Z" fill="#AD0000"/>
<path d="M482.859 572.745H380.932C379.973 572.745 379.02 572.651 378.077 572.463C377.14 572.276 376.223 571.995 375.338 571.63C374.447 571.26 373.604 570.812 372.807 570.276C372.01 569.745 371.27 569.14 370.593 568.458C369.911 567.781 369.307 567.042 368.77 566.245C368.239 565.443 367.791 564.604 367.421 563.713C367.051 562.828 366.775 561.911 366.588 560.974C366.4 560.031 366.307 559.078 366.307 558.12C366.307 557.156 366.4 556.208 366.588 555.265C366.775 554.323 367.051 553.411 367.421 552.521C367.791 551.635 368.239 550.792 368.77 549.995C369.307 549.193 369.911 548.458 370.593 547.776C371.27 547.099 372.01 546.495 372.807 545.958C373.604 545.427 374.447 544.974 375.338 544.609C376.223 544.239 377.14 543.963 378.077 543.776C379.02 543.588 379.973 543.495 380.932 543.495H482.859C483.822 543.495 484.77 543.588 485.713 543.776C486.656 543.963 487.567 544.239 488.458 544.609C489.343 544.974 490.187 545.427 490.984 545.958C491.786 546.495 492.52 547.099 493.202 547.776C493.88 548.458 494.484 549.193 495.02 549.995C495.551 550.792 496.005 551.635 496.369 552.521C496.739 553.411 497.015 554.323 497.202 555.265C497.39 556.208 497.484 557.156 497.484 558.12C497.484 559.078 497.39 560.031 497.202 560.974C497.015 561.911 496.739 562.828 496.369 563.713C496.005 564.604 495.551 565.443 495.02 566.245C494.484 567.042 493.88 567.781 493.202 568.458C492.52 569.14 491.786 569.745 490.984 570.276C490.187 570.812 489.343 571.26 488.458 571.63C487.567 571.995 486.656 572.276 485.713 572.463C484.77 572.651 483.822 572.745 482.859 572.745Z" fill="#AD0000"/>
<path d="M482.859 625.047H380.932C379.973 625.047 379.02 624.953 378.077 624.766C377.14 624.578 376.223 624.302 375.338 623.932C374.447 623.568 373.604 623.115 372.807 622.583C372.01 622.047 371.27 621.443 370.593 620.766C369.911 620.083 369.307 619.344 368.77 618.547C368.239 617.75 367.791 616.906 367.421 616.021C367.051 615.13 366.775 614.219 366.588 613.276C366.4 612.333 366.307 611.385 366.307 610.422C366.307 609.464 366.4 608.51 366.588 607.568C366.775 606.63 367.051 605.714 367.421 604.828C367.791 603.937 368.239 603.099 368.77 602.297C369.307 601.5 369.911 600.76 370.593 600.083C371.27 599.401 372.01 598.797 372.807 598.266C373.604 597.729 374.447 597.281 375.338 596.911C376.223 596.547 377.14 596.266 378.077 596.078C379.02 595.891 379.973 595.797 380.932 595.797H482.859C483.822 595.797 484.77 595.891 485.713 596.078C486.656 596.266 487.567 596.547 488.458 596.911C489.343 597.281 490.187 597.729 490.984 598.266C491.786 598.797 492.52 599.401 493.202 600.083C493.88 600.76 494.484 601.5 495.02 602.297C495.551 603.099 496.005 603.937 496.369 604.828C496.739 605.714 497.015 606.63 497.202 607.568C497.39 608.51 497.484 609.464 497.484 610.422C497.484 611.385 497.39 612.333 497.202 613.276C497.015 614.219 496.739 615.13 496.369 616.021C496.005 616.906 495.551 617.75 495.02 618.547C494.484 619.344 493.88 620.083 493.202 620.766C492.52 621.443 491.786 622.047 490.984 622.583C490.187 623.115 489.343 623.568 488.458 623.932C487.567 624.302 486.656 624.578 485.713 624.766C484.77 624.953 483.822 625.047 482.859 625.047Z" fill="#AD0000"/>
<path d="M698.749 468.13H596.822C595.859 468.13 594.911 468.036 593.968 467.849C593.025 467.661 592.109 467.385 591.223 467.021C590.338 466.651 589.494 466.203 588.697 465.667C587.895 465.135 587.156 464.526 586.479 463.849C585.801 463.172 585.192 462.432 584.661 461.63C584.124 460.833 583.676 459.989 583.307 459.104C582.942 458.219 582.666 457.302 582.479 456.359C582.291 455.422 582.197 454.469 582.197 453.51C582.197 452.547 582.291 451.599 582.479 450.656C582.666 449.713 582.942 448.797 583.307 447.911C583.676 447.026 584.124 446.182 584.661 445.385C585.192 444.583 585.801 443.844 586.479 443.167C587.156 442.489 587.895 441.88 588.697 441.349C589.494 440.812 590.338 440.364 591.223 439.995C592.109 439.63 593.025 439.354 593.968 439.167C594.911 438.979 595.859 438.885 596.822 438.885H698.749C699.708 438.885 700.661 438.979 701.604 439.167C702.541 439.354 703.458 439.63 704.343 439.995C705.234 440.364 706.072 440.812 706.874 441.349C707.671 441.88 708.411 442.489 709.088 443.167C709.77 443.844 710.374 444.583 710.906 445.385C711.442 446.182 711.89 447.026 712.26 447.911C712.624 448.797 712.906 449.713 713.093 450.656C713.281 451.599 713.374 452.547 713.374 453.51C713.374 454.469 713.281 455.422 713.093 456.359C712.906 457.302 712.624 458.219 712.26 459.104C711.89 459.989 711.442 460.833 710.906 461.63C710.374 462.432 709.77 463.172 709.088 463.849C708.411 464.526 707.671 465.135 706.874 465.667C706.072 466.203 705.234 466.651 704.343 467.021C703.458 467.385 702.541 467.661 701.604 467.849C700.661 468.036 699.708 468.13 698.749 468.13Z" fill="#AD0000"/>
<path d="M698.749 520.438H596.822C595.859 520.438 594.911 520.344 593.968 520.156C593.025 519.969 592.109 519.693 591.223 519.323C590.338 518.958 589.494 518.505 588.697 517.974C587.895 517.438 587.156 516.833 586.479 516.156C585.801 515.474 585.192 514.734 584.661 513.938C584.124 513.141 583.676 512.297 583.307 511.411C582.942 510.521 582.666 509.609 582.479 508.667C582.291 507.724 582.197 506.776 582.197 505.813C582.197 504.854 582.291 503.901 582.479 502.958C582.666 502.021 582.942 501.104 583.307 500.219C583.676 499.328 584.124 498.49 584.661 497.688C585.192 496.891 585.801 496.151 586.479 495.474C587.156 494.792 587.895 494.187 588.697 493.656C589.494 493.12 590.338 492.672 591.223 492.302C592.109 491.938 593.025 491.656 593.968 491.469C594.911 491.281 595.859 491.188 596.822 491.188H698.749C699.708 491.188 700.661 491.281 701.604 491.469C702.541 491.656 703.458 491.938 704.343 492.302C705.234 492.672 706.072 493.12 706.874 493.656C707.671 494.187 708.411 494.792 709.088 495.474C709.77 496.151 710.374 496.891 710.906 497.688C711.442 498.49 711.89 499.328 712.26 500.219C712.624 501.104 712.906 502.021 713.093 502.958C713.281 503.901 713.374 504.854 713.374 505.813C713.374 506.776 713.281 507.724 713.093 508.667C712.906 509.609 712.624 510.521 712.26 511.411C711.89 512.297 711.442 513.141 710.906 513.938C710.374 514.734 709.77 515.474 709.088 516.156C708.411 516.833 707.671 517.438 706.874 517.974C706.072 518.505 705.234 518.958 704.343 519.323C703.458 519.693 702.541 519.969 701.604 520.156C700.661 520.344 699.708 520.438 698.749 520.438Z" fill="#AD0000"/>
<path d="M698.749 572.745H596.822C595.859 572.745 594.911 572.651 593.968 572.463C593.025 572.276 592.109 571.995 591.223 571.63C590.338 571.26 589.494 570.812 588.697 570.276C587.895 569.745 587.156 569.14 586.479 568.458C585.801 567.781 585.192 567.042 584.661 566.245C584.124 565.443 583.676 564.604 583.307 563.713C582.942 562.828 582.666 561.911 582.479 560.974C582.291 560.031 582.197 559.078 582.197 558.12C582.197 557.156 582.291 556.208 582.479 555.265C582.666 554.323 582.942 553.411 583.307 552.521C583.676 551.635 584.124 550.792 584.661 549.995C585.192 549.193 585.801 548.458 586.479 547.776C587.156 547.099 587.895 546.495 588.697 545.958C589.494 545.427 590.338 544.974 591.223 544.609C592.109 544.239 593.025 543.963 593.968 543.776C594.911 543.588 595.859 543.495 596.822 543.495H698.749C699.708 543.495 700.661 543.588 701.604 543.776C702.541 543.963 703.458 544.239 704.343 544.609C705.234 544.974 706.072 545.427 706.874 545.958C707.671 546.495 708.411 547.099 709.088 547.776C709.77 548.458 710.374 549.193 710.906 549.995C711.442 550.792 711.89 551.635 712.26 552.521C712.624 553.411 712.906 554.323 713.093 555.265C713.281 556.208 713.374 557.156 713.374 558.12C713.374 559.078 713.281 560.031 713.093 560.974C712.906 561.911 712.624 562.828 712.26 563.713C711.89 564.604 711.442 565.443 710.906 566.245C710.374 567.042 709.77 567.781 709.088 568.458C708.411 569.14 707.671 569.745 706.874 570.276C706.072 570.812 705.234 571.26 704.343 571.63C703.458 571.995 702.541 572.276 701.604 572.463C700.661 572.651 699.708 572.745 698.749 572.745Z" fill="#AD0000"/>
<path d="M698.749 625.047H596.822C595.859 625.047 594.911 624.953 593.968 624.766C593.025 624.578 592.109 624.302 591.223 623.932C590.338 623.568 589.494 623.115 588.697 622.583C587.895 622.047 587.156 621.443 586.479 620.766C585.801 620.083 585.192 619.344 584.661 618.547C584.124 617.75 583.676 616.906 583.307 616.021C582.942 615.13 582.666 614.219 582.479 613.276C582.291 612.333 582.197 611.385 582.197 610.422C582.197 609.464 582.291 608.51 582.479 607.568C582.666 606.63 582.942 605.714 583.307 604.828C583.676 603.937 584.124 603.099 584.661 602.297C585.192 601.5 585.801 600.76 586.479 600.083C587.156 599.401 587.895 598.797 588.697 598.266C589.494 597.729 590.338 597.281 591.223 596.911C592.109 596.547 593.025 596.266 593.968 596.078C594.911 595.891 595.859 595.797 596.822 595.797H698.749C699.708 595.797 700.661 595.891 701.604 596.078C702.541 596.266 703.458 596.547 704.343 596.911C705.234 597.281 706.072 597.729 706.874 598.266C707.671 598.797 708.411 599.401 709.088 600.083C709.77 600.76 710.374 601.5 710.906 602.297C711.442 603.099 711.89 603.937 712.26 604.828C712.624 605.714 712.906 606.63 713.093 607.568C713.281 608.51 713.374 609.464 713.374 610.422C713.374 611.385 713.281 612.333 713.093 613.276C712.906 614.219 712.624 615.13 712.26 616.021C711.89 616.906 711.442 617.75 710.906 618.547C710.374 619.344 709.77 620.083 709.088 620.766C708.411 621.443 707.671 622.047 706.874 622.583C706.072 623.115 705.234 623.568 704.343 623.932C703.458 624.302 702.541 624.578 701.604 624.766C700.661 624.953 699.708 625.047 698.749 625.047Z" fill="#AD0000"/>
<path d="M136.885 681.047H82.0573C79.375 681.042 76.7031 680.911 74.0417 680.646C71.375 680.38 68.7292 679.984 66.1042 679.458C63.474 678.937 60.8802 678.281 58.3177 677.505C55.7552 676.724 53.2396 675.823 50.7656 674.797C48.2917 673.771 45.8698 672.625 43.5104 671.359C41.1458 670.099 38.8542 668.719 36.625 667.234C34.401 665.745 32.25 664.151 30.1823 662.448C28.1094 660.75 26.1302 658.953 24.2344 657.062C22.3438 655.167 20.5469 653.182 18.8437 651.114C17.1458 649.042 15.5521 646.896 14.0625 644.667C12.5729 642.443 11.1979 640.146 9.9375 637.786C8.67187 635.422 7.52604 633.005 6.5 630.531C5.47396 628.057 4.57292 625.542 3.79167 622.979C3.01042 620.417 2.35937 617.823 1.83333 615.193C1.3125 612.568 0.916667 609.922 0.651041 607.255C0.385416 604.588 0.25 601.917 0.25 599.239V447.89C0.25 445.213 0.385416 442.542 0.651041 439.875C0.916667 437.213 1.3125 434.568 1.83854 431.937C2.35937 429.312 3.01042 426.719 3.79167 424.156C4.57292 421.594 5.47396 419.073 6.5 416.599C7.52604 414.125 8.67187 411.708 9.9375 409.349C11.1979 406.984 12.5729 404.693 14.0625 402.463C15.5521 400.239 17.1458 398.088 18.8437 396.021C20.5469 393.948 22.3438 391.969 24.2344 390.073C26.1302 388.182 28.1146 386.385 30.1823 384.682C32.2552 382.984 34.401 381.39 36.6302 379.901C38.8542 378.411 41.151 377.036 43.5104 375.771C45.8698 374.51 48.2917 373.364 50.7656 372.338C53.2396 371.312 55.7552 370.411 58.3177 369.63C60.8802 368.849 63.474 368.198 66.1042 367.672C68.7292 367.151 71.375 366.755 74.0417 366.489C76.7031 366.224 79.375 366.088 82.0573 366.088H149.135C149.734 366.088 150.328 366.125 150.922 366.198C151.516 366.271 152.104 366.38 152.682 366.526C153.26 366.667 153.828 366.849 154.385 367.062C154.948 367.276 155.49 367.526 156.016 367.807C156.542 368.088 157.052 368.401 157.542 368.745C158.031 369.088 158.495 369.458 158.938 369.859C159.38 370.26 159.797 370.687 160.193 371.14C160.583 371.588 160.943 372.062 161.276 372.562C161.609 373.057 161.911 373.573 162.182 374.104C162.453 374.635 162.688 375.187 162.891 375.745C163.094 376.307 163.26 376.88 163.396 377.463C163.526 378.047 163.625 378.635 163.682 379.229C163.745 379.823 163.766 380.422 163.755 381.015C163.745 381.614 163.693 382.208 163.609 382.802C163.521 383.39 163.401 383.979 163.245 384.552C163.089 385.13 162.896 385.693 162.672 386.25C158.245 397.12 154.292 408.167 150.813 419.38C147.339 430.588 144.349 441.932 141.844 453.401C139.344 464.875 137.339 476.432 135.833 488.073C134.323 499.713 133.318 511.401 132.818 523.13C132.313 534.859 132.318 546.588 132.823 558.318C133.328 570.047 134.339 581.734 135.849 593.375C137.359 605.015 139.365 616.573 141.87 628.042C144.375 639.51 147.37 650.854 150.849 662.068C151.021 662.609 151.156 663.167 151.26 663.724C151.365 664.286 151.438 664.854 151.479 665.422C151.516 665.995 151.521 666.562 151.495 667.135C151.464 667.703 151.406 668.271 151.313 668.833C151.214 669.401 151.089 669.953 150.927 670.505C150.771 671.052 150.578 671.588 150.354 672.114C150.135 672.64 149.88 673.151 149.599 673.651C149.318 674.146 149.005 674.625 148.667 675.083C148.328 675.547 147.964 675.984 147.573 676.401C147.182 676.818 146.771 677.213 146.333 677.583C145.901 677.948 145.443 678.292 144.969 678.609C144.49 678.922 144 679.208 143.49 679.469C142.979 679.724 142.453 679.953 141.917 680.151C141.38 680.344 140.839 680.51 140.281 680.646C139.724 680.776 139.161 680.875 138.594 680.943C138.026 681.01 137.458 681.042 136.885 681.042V681.047ZM82.0573 395.333C80.3333 395.338 78.6198 395.422 76.9063 395.594C75.1927 395.765 73.4948 396.015 71.8073 396.354C70.1198 396.693 68.4531 397.109 66.8073 397.609C65.1615 398.109 63.5417 398.693 61.9531 399.349C60.3646 400.01 58.8073 400.745 57.2917 401.557C55.776 402.37 54.3021 403.255 52.8698 404.208C51.4375 405.167 50.0573 406.193 48.7292 407.281C47.401 408.375 46.125 409.531 44.9115 410.745C43.6927 411.963 42.5365 413.234 41.4479 414.568C40.3542 415.896 39.3281 417.276 38.375 418.708C37.4167 420.135 36.5313 421.609 35.724 423.13C34.9115 424.646 34.1719 426.198 33.5156 427.786C32.8542 429.375 32.276 430.995 31.776 432.64C31.276 434.286 30.8542 435.953 30.5156 437.64C30.1823 439.328 29.9271 441.031 29.7552 442.739C29.5833 444.453 29.5 446.172 29.5 447.89V599.239C29.5 600.958 29.5833 602.677 29.7552 604.39C29.9271 606.104 30.1823 607.802 30.5156 609.489C30.8542 611.177 31.276 612.844 31.776 614.489C32.276 616.135 32.8542 617.755 33.5156 619.344C34.1719 620.932 34.9115 622.484 35.724 624.005C36.5313 625.521 37.4167 626.995 38.375 628.427C39.3281 629.854 40.3542 631.234 41.4479 632.568C42.5365 633.896 43.6927 635.167 44.9115 636.385C46.125 637.604 47.401 638.755 48.7292 639.849C50.0573 640.943 51.4375 641.963 52.8698 642.922C54.3021 643.875 55.776 644.76 57.2917 645.573C58.8073 646.385 60.3646 647.12 61.9531 647.781C63.5417 648.437 65.1615 649.021 66.8073 649.521C68.4531 650.021 70.1198 650.437 71.8073 650.776C73.4948 651.114 75.1927 651.37 76.9063 651.536C78.6198 651.708 80.3333 651.797 82.0573 651.797H117.479C114.734 641.292 112.38 630.698 110.422 620.021C108.458 609.338 106.896 598.604 105.729 587.807C104.568 577.01 103.802 566.187 103.443 555.338C103.078 544.484 103.12 533.635 103.557 522.786C104 511.937 104.844 501.12 106.089 490.333C107.333 479.547 108.974 468.818 111.01 458.156C113.052 447.489 115.484 436.917 118.307 426.432C121.13 415.948 124.333 405.578 127.927 395.333H82.0573Z" fill="#AD0000"/>
<path d="M998.046 681.047H943.218C942.645 681.047 942.077 681.016 941.51 680.948C940.942 680.88 940.38 680.781 939.822 680.646C939.27 680.516 938.723 680.349 938.187 680.156C937.65 679.958 937.124 679.729 936.614 679.474C936.103 679.214 935.614 678.927 935.135 678.615C934.661 678.297 934.202 677.953 933.77 677.583C933.333 677.214 932.921 676.823 932.531 676.406C932.14 675.99 931.775 675.547 931.437 675.089C931.098 674.63 930.786 674.151 930.505 673.651C930.223 673.156 929.968 672.646 929.749 672.12C929.525 671.594 929.333 671.057 929.176 670.505C929.015 669.958 928.89 669.401 928.791 668.839C928.697 668.276 928.64 667.708 928.609 667.141C928.583 666.568 928.588 665.995 928.624 665.427C928.666 664.859 928.739 664.292 928.843 663.729C928.947 663.167 929.083 662.615 929.255 662.068C932.734 650.859 935.728 639.516 938.234 628.047C940.739 616.578 942.744 605.021 944.255 593.38C945.77 581.734 946.775 570.052 947.281 558.323C947.786 546.594 947.791 534.865 947.286 523.135C946.786 511.406 945.781 499.719 944.27 488.078C942.765 476.432 940.76 464.88 938.26 453.406C935.755 441.938 932.765 430.594 929.291 419.38C925.812 408.167 921.859 397.125 917.432 386.25C917.208 385.698 917.015 385.135 916.859 384.557C916.702 383.979 916.583 383.396 916.494 382.807C916.411 382.214 916.359 381.62 916.348 381.021C916.338 380.427 916.359 379.828 916.421 379.234C916.478 378.641 916.577 378.052 916.708 377.469C916.843 376.885 917.01 376.313 917.213 375.75C917.416 375.188 917.65 374.641 917.921 374.109C918.192 373.578 918.494 373.063 918.827 372.563C919.161 372.068 919.52 371.594 919.916 371.141C920.307 370.693 920.723 370.266 921.166 369.865C921.609 369.464 922.077 369.094 922.562 368.75C923.051 368.406 923.562 368.094 924.088 367.813C924.614 367.531 925.156 367.281 925.718 367.068C926.275 366.854 926.843 366.672 927.421 366.526C927.999 366.385 928.588 366.276 929.182 366.203C929.775 366.13 930.369 366.094 930.968 366.094H998.046C1000.73 366.094 1003.4 366.229 1006.06 366.495C1008.73 366.76 1011.37 367.151 1014 367.677C1016.63 368.203 1019.22 368.854 1021.79 369.635C1024.35 370.411 1026.86 371.318 1029.34 372.344C1031.81 373.37 1034.23 374.516 1036.59 375.776C1038.96 377.042 1041.25 378.417 1043.47 379.906C1045.7 381.396 1047.85 382.99 1049.92 384.688C1051.99 386.385 1053.97 388.182 1055.87 390.078C1057.76 391.974 1059.56 393.953 1061.26 396.026C1062.96 398.094 1064.55 400.245 1066.04 402.469C1067.53 404.698 1068.91 406.99 1070.17 409.354C1071.43 411.714 1072.58 414.13 1073.6 416.604C1074.63 419.078 1075.53 421.599 1076.31 424.161C1077.09 426.724 1077.74 429.318 1078.27 431.943C1078.79 434.568 1079.19 437.214 1079.45 439.88C1079.72 442.547 1079.85 445.219 1079.85 447.896V599.245C1079.85 601.922 1079.72 604.594 1079.45 607.26C1079.19 609.927 1078.79 612.573 1078.26 615.198C1077.74 617.823 1077.09 620.417 1076.31 622.979C1075.53 625.542 1074.63 628.063 1073.6 630.536C1072.58 633.01 1071.43 635.427 1070.17 637.786C1068.91 640.151 1067.53 642.443 1066.04 644.672C1064.55 646.896 1062.96 649.047 1061.25 651.115C1059.56 653.188 1057.76 655.167 1055.86 657.063C1053.97 658.953 1051.99 660.75 1049.92 662.453C1047.85 664.151 1045.7 665.745 1043.47 667.234C1041.25 668.724 1038.95 670.099 1036.59 671.359C1034.23 672.625 1031.81 673.771 1029.34 674.797C1026.86 675.823 1024.35 676.724 1021.79 677.505C1019.22 678.281 1016.63 678.938 1014 679.458C1011.37 679.984 1008.73 680.38 1006.06 680.646C1003.4 680.911 1000.73 681.042 998.046 681.047ZM962.624 651.797H998.046C999.77 651.797 1001.48 651.708 1003.2 651.542C1004.91 651.37 1006.61 651.115 1008.3 650.776C1009.98 650.443 1011.65 650.021 1013.3 649.521C1014.94 649.021 1016.56 648.443 1018.15 647.781C1019.74 647.12 1021.3 646.385 1022.81 645.573C1024.33 644.76 1025.8 643.88 1027.23 642.922C1028.67 641.964 1030.05 640.943 1031.37 639.849C1032.7 638.76 1033.98 637.604 1035.19 636.385C1036.41 635.172 1037.57 633.896 1038.66 632.568C1039.75 631.234 1040.78 629.854 1041.73 628.427C1042.69 626.995 1043.57 625.521 1044.38 624.005C1045.19 622.484 1045.93 620.932 1046.59 619.344C1047.25 617.755 1047.83 616.135 1048.33 614.49C1048.83 612.844 1049.25 611.177 1049.59 609.49C1049.92 607.802 1050.18 606.104 1050.35 604.391C1050.52 602.677 1050.6 600.964 1050.6 599.24V447.891C1050.6 446.172 1050.51 444.453 1050.35 442.745C1050.18 441.031 1049.92 439.328 1049.59 437.641C1049.25 435.958 1048.83 434.286 1048.33 432.641C1047.83 430.995 1047.25 429.38 1046.59 427.792C1045.93 426.198 1045.19 424.646 1044.38 423.13C1043.57 421.609 1042.69 420.135 1041.73 418.708C1040.78 417.276 1039.75 415.896 1038.66 414.568C1037.57 413.234 1036.41 411.964 1035.19 410.745C1033.98 409.531 1032.7 408.375 1031.37 407.281C1030.05 406.193 1028.67 405.167 1027.23 404.214C1025.8 403.255 1024.33 402.37 1022.81 401.557C1021.3 400.75 1019.74 400.01 1018.15 399.354C1016.56 398.693 1014.94 398.115 1013.3 397.615C1011.65 397.109 1009.98 396.693 1008.3 396.354C1006.61 396.021 1004.91 395.766 1003.2 395.594C1001.48 395.422 999.77 395.339 998.046 395.333H952.182C955.775 405.583 958.978 415.948 961.801 426.432C964.624 436.917 967.057 447.495 969.098 458.156C971.135 468.823 972.775 479.547 974.02 490.333C975.265 501.12 976.109 511.938 976.551 522.786C976.989 533.635 977.031 544.49 976.666 555.339C976.307 566.193 975.541 577.016 974.38 587.813C973.213 598.604 971.65 609.344 969.687 620.021C967.728 630.703 965.374 641.292 962.63 651.797H962.624Z" fill="#AD0000"/>
<path d="M942.574 370.536C940.152 364.786 937.6 359.089 934.933 353.443C932.261 347.802 929.47 342.219 926.563 336.698C923.652 331.172 920.626 325.714 917.485 320.323C914.339 314.927 911.084 309.604 907.709 304.354C904.339 299.099 900.855 293.922 897.261 288.818C893.668 283.714 889.97 278.688 886.157 273.74C882.35 268.797 878.438 263.932 874.418 259.156C870.402 254.38 866.282 249.688 862.069 245.089C857.85 240.484 853.532 235.979 849.121 231.563C844.709 227.146 840.204 222.823 835.61 218.599C831.011 214.38 826.324 210.255 821.553 206.234C816.777 202.208 811.923 198.292 806.98 194.479C802.037 190.661 797.016 186.958 791.918 183.359C786.813 179.76 781.641 176.271 776.391 172.896C771.141 169.516 765.819 166.255 760.433 163.104C755.042 159.958 749.584 156.922 744.063 154.01C738.548 151.094 732.964 148.297 727.329 145.62C721.688 142.948 715.99 140.391 710.24 137.958C704.496 135.526 698.694 133.219 692.845 131.036C687.001 128.854 681.105 126.797 675.173 124.865C669.235 122.937 663.261 121.135 657.246 119.458C651.23 117.781 645.183 116.24 639.105 114.823C633.027 113.406 626.917 112.125 620.782 110.969C614.647 109.818 608.49 108.797 602.313 107.906C596.136 107.016 589.938 106.26 583.73 105.635C577.516 105.01 571.298 104.521 565.063 104.161C558.834 103.807 552.595 103.583 546.355 103.49C540.11 103.401 533.871 103.443 527.631 103.625C521.391 103.802 515.157 104.109 508.933 104.557C502.704 105 496.49 105.578 490.287 106.292C484.089 107 477.902 107.844 471.735 108.823C465.574 109.797 459.428 110.906 453.313 112.146C447.194 113.385 441.105 114.755 435.048 116.255C428.985 117.755 422.964 119.385 416.975 121.141C410.985 122.901 405.032 124.786 399.126 126.802C393.214 128.812 387.355 130.953 381.537 133.219C375.72 135.484 369.954 137.875 364.24 140.385C358.527 142.896 352.865 145.531 347.266 148.286C341.662 151.042 336.126 153.917 330.647 156.906C325.167 159.901 319.756 163.005 314.407 166.229C309.063 169.453 303.792 172.792 298.589 176.245C293.386 179.693 288.261 183.255 283.209 186.922C278.162 190.594 273.194 194.37 268.303 198.255C263.417 202.135 258.615 206.125 253.897 210.214C249.183 214.302 244.553 218.49 240.016 222.776C235.48 227.063 231.037 231.448 226.688 235.922C222.339 240.401 218.084 244.969 213.933 249.63C209.782 254.292 205.73 259.036 201.777 263.87C197.829 268.703 193.985 273.62 190.246 278.62C186.506 283.615 182.876 288.693 179.35 293.849C175.829 299 172.423 304.229 169.126 309.531C165.824 314.828 162.641 320.198 159.574 325.635C156.506 331.073 153.558 336.573 150.725 342.135C147.897 347.698 145.183 353.318 142.595 359C140.001 364.677 137.532 370.411 135.188 376.193C132.845 381.979 130.626 387.813 128.532 393.693C126.433 399.573 124.464 405.495 122.626 411.464C120.782 417.427 119.074 423.427 117.49 429.464C115.902 435.505 114.449 441.573 113.126 447.672C111.803 453.776 110.61 459.901 109.548 466.052C108.49 472.203 107.558 478.375 106.761 484.568C105.97 490.755 105.303 496.964 104.772 503.182C104.24 509.401 103.845 515.63 103.584 521.87C103.319 528.104 103.188 534.344 103.194 540.589C103.194 541.547 103.287 542.495 103.475 543.438C103.662 544.38 103.938 545.297 104.308 546.182C104.673 547.068 105.126 547.911 105.657 548.708C106.194 549.51 106.798 550.25 107.475 550.927C108.157 551.604 108.897 552.214 109.694 552.745C110.49 553.281 111.334 553.729 112.22 554.099C113.11 554.464 114.022 554.74 114.964 554.927C115.907 555.115 116.855 555.208 117.819 555.208C118.777 555.208 119.73 555.115 120.673 554.927C121.61 554.74 122.527 554.464 123.412 554.099C124.303 553.729 125.141 553.281 125.944 552.745C126.74 552.214 127.48 551.604 128.157 550.927C128.839 550.25 129.444 549.51 129.975 548.708C130.511 547.911 130.959 547.068 131.329 546.182C131.694 545.297 131.975 544.38 132.162 543.438C132.35 542.495 132.444 541.547 132.444 540.589C132.444 534.339 132.595 528.099 132.881 521.859C133.173 515.625 133.61 509.396 134.183 503.177C134.761 496.958 135.48 490.755 136.345 484.573C137.204 478.385 138.209 472.224 139.355 466.083C140.501 459.948 141.787 453.839 143.214 447.755C144.636 441.677 146.204 435.635 147.907 429.625C149.61 423.62 151.454 417.651 153.433 411.729C155.412 405.807 157.522 399.932 159.772 394.104C162.022 388.281 164.402 382.505 166.917 376.792C169.428 371.073 172.074 365.417 174.845 359.823C177.621 354.229 180.522 348.698 183.548 343.24C186.579 337.776 189.73 332.385 193.006 327.068C196.282 321.755 199.678 316.516 203.194 311.354C206.709 306.193 210.345 301.115 214.095 296.12C217.845 291.13 221.704 286.224 225.678 281.406C229.657 276.589 233.74 271.87 237.933 267.24C242.126 262.615 246.423 258.083 250.824 253.651C255.225 249.219 259.725 244.896 264.324 240.672C268.923 236.448 273.615 232.328 278.407 228.323C283.194 224.313 288.074 220.417 293.042 216.635C298.011 212.849 303.063 209.182 308.199 205.63C313.334 202.078 318.548 198.646 323.845 195.333C329.136 192.021 334.506 188.833 339.949 185.771C345.386 182.703 350.897 179.766 356.475 176.953C362.048 174.141 367.688 171.458 373.386 168.906C379.084 166.354 384.839 163.932 390.652 161.646C396.459 159.359 402.324 157.203 408.23 155.187C414.141 153.167 420.095 151.286 426.089 149.542C432.084 147.797 438.121 146.187 444.188 144.719C450.261 143.25 456.36 141.927 462.49 140.74C468.621 139.552 474.777 138.505 480.954 137.599C487.136 136.698 493.329 135.932 499.548 135.312C505.761 134.698 511.985 134.219 518.22 133.885C524.459 133.552 530.699 133.365 536.944 133.318C543.188 133.271 549.428 133.365 555.667 133.609C561.912 133.849 568.141 134.234 574.365 134.76C580.584 135.286 586.792 135.958 592.985 136.771C599.178 137.583 605.35 138.536 611.496 139.63C617.641 140.729 623.761 141.964 629.855 143.344C635.944 144.719 642.001 146.234 648.022 147.891C654.042 149.547 660.027 151.339 665.964 153.271C671.902 155.203 677.792 157.266 683.636 159.469C689.48 161.672 695.272 164.005 701.006 166.474C706.746 168.943 712.423 171.542 718.037 174.271C723.657 176.995 729.209 179.854 734.694 182.839C740.178 185.823 745.595 188.932 750.938 192.161C756.282 195.396 761.548 198.75 766.735 202.224C771.923 205.698 777.032 209.292 782.053 213C787.079 216.714 792.011 220.536 796.86 224.469C801.709 228.406 806.464 232.453 811.126 236.609C815.787 240.766 820.35 245.026 824.819 249.391C829.282 253.755 833.647 258.219 837.907 262.786C842.168 267.349 846.324 272.01 850.371 276.766C854.418 281.526 858.35 286.37 862.173 291.307C865.996 296.245 869.704 301.271 873.298 306.375C876.891 311.484 880.365 316.672 883.72 321.943C887.074 327.208 890.303 332.552 893.412 337.969C896.522 343.38 899.506 348.87 902.36 354.422C905.22 359.974 907.944 365.589 910.543 371.271C913.141 376.948 915.61 382.682 917.944 388.474C920.277 394.266 922.48 400.109 924.543 406.005C926.61 411.896 928.543 417.833 930.334 423.818C932.126 429.797 933.782 435.818 935.298 441.875C936.813 447.932 938.188 454.021 939.428 460.146C940.662 466.266 941.761 472.411 942.714 478.583C943.668 484.755 944.48 490.948 945.147 497.156C945.819 503.365 946.345 509.583 946.725 515.818C947.11 522.052 947.35 528.292 947.449 534.531C947.543 540.776 947.496 547.021 947.303 553.26C947.115 559.505 946.782 565.74 946.303 571.964C945.829 578.193 945.209 584.406 944.444 590.604C943.683 596.802 942.777 602.979 941.73 609.135C940.683 615.292 939.496 621.422 938.168 627.521C936.839 633.625 935.371 639.693 933.761 645.729C932.157 651.76 930.412 657.755 928.527 663.708C926.647 669.667 924.626 675.573 922.47 681.432C920.319 687.297 918.027 693.104 915.605 698.859C913.183 704.62 910.631 710.313 907.949 715.953C905.266 721.594 902.454 727.167 899.516 732.677C896.574 738.188 893.511 743.625 890.319 748.995C887.131 754.365 883.819 759.656 880.386 764.87C876.954 770.089 873.402 775.224 869.73 780.276C866.063 785.328 862.277 790.297 858.381 795.177C854.485 800.057 850.475 804.844 846.36 809.536C842.24 814.234 838.016 818.833 833.688 823.333C829.36 827.833 824.928 832.234 820.397 836.531C815.865 840.828 811.24 845.016 806.516 849.104C801.793 853.188 796.975 857.161 792.069 861.026C787.162 864.885 782.173 868.635 777.089 872.271C772.011 875.901 766.855 879.417 761.61 882.813C756.371 886.208 751.058 889.484 745.662 892.635C740.272 895.786 734.813 898.818 729.282 901.719C723.751 904.62 718.157 907.391 712.501 910.036C706.845 912.677 701.126 915.193 695.355 917.573C689.584 919.953 683.756 922.198 677.881 924.313C672.006 926.427 666.084 928.406 660.115 930.245C662.157 933.422 663.704 936.818 664.766 940.443C665.829 944.063 666.355 947.76 666.35 951.536V955.026C666.35 956.359 666.282 957.677 666.152 958.974C673.464 956.766 680.709 954.365 687.897 951.776C695.079 949.188 702.194 946.411 709.23 943.448C716.272 940.49 723.225 937.344 730.1 934.016C736.975 930.693 743.756 927.188 750.449 923.505C757.141 919.823 763.73 915.969 770.22 911.943C776.704 907.911 783.084 903.719 789.355 899.359C795.626 894.995 801.772 890.474 807.808 885.792C813.839 881.109 819.746 876.271 825.522 871.276C831.303 866.281 836.944 861.141 842.454 855.854C847.964 850.563 853.329 845.135 858.553 839.568C863.782 833.995 868.855 828.292 873.782 822.458C878.709 816.62 883.475 810.661 888.089 804.573C892.704 798.49 897.157 792.286 901.444 785.969C905.735 779.651 909.855 773.224 913.803 766.688C917.756 760.151 921.537 753.521 925.141 746.786C928.746 740.052 932.173 733.229 935.418 726.318C938.662 719.406 941.73 712.417 944.61 705.344C947.49 698.271 950.183 691.125 952.688 683.911C955.194 676.698 957.511 669.422 959.636 662.089C961.761 654.755 963.694 647.365 965.433 639.932C967.173 632.495 968.714 625.016 970.058 617.5C971.407 609.984 972.558 602.438 973.506 594.859C974.459 587.281 975.209 579.682 975.761 572.068C976.319 564.448 976.668 556.823 976.824 549.188C976.975 541.552 976.933 533.917 976.683 526.286C976.438 518.651 975.99 511.031 975.345 503.422C974.699 495.813 973.855 488.224 972.813 480.661C971.772 473.094 970.532 465.563 969.095 458.063C967.652 450.563 966.022 443.104 964.194 435.688C962.365 428.276 960.345 420.911 958.126 413.604C955.912 406.297 953.511 399.047 950.918 391.865C948.324 384.682 945.543 377.573 942.574 370.536Z" fill="#AD0000"/>
<mask id="mask0_847_729" style="mask-type:luminance" maskUnits="userSpaceOnUse" x="388" y="897" width="294" height="112">
<path d="M388 897.333H681.333V1008.88H388V897.333Z" fill="white"/>
</mask>
<g mask="url(#mask0_847_729)">
<path d="M626.848 1009.15H442.4C440.63 1009.15 438.864 1009.06 437.098 1008.89C435.333 1008.71 433.583 1008.45 431.848 1008.1C430.109 1007.76 428.39 1007.32 426.697 1006.81C424.999 1006.29 423.333 1005.69 421.697 1005.02C420.062 1004.34 418.463 1003.58 416.9 1002.74C415.338 1001.91 413.817 1000.99 412.348 1000.01C410.874 999.026 409.452 997.974 408.083 996.849C406.713 995.724 405.4 994.537 404.145 993.281C402.895 992.026 401.708 990.719 400.583 989.349C399.458 987.979 398.4 986.557 397.416 985.083C396.432 983.61 395.52 982.094 394.687 980.531C393.848 978.969 393.093 977.37 392.416 975.729C391.734 974.094 391.135 972.427 390.619 970.735C390.104 969.037 389.676 967.318 389.327 965.583C388.979 963.844 388.718 962.094 388.541 960.333C388.369 958.568 388.281 956.802 388.275 955.026V951.537C388.281 949.761 388.369 947.995 388.541 946.229C388.718 944.469 388.979 942.719 389.327 940.979C389.676 939.245 390.104 937.526 390.619 935.828C391.135 934.136 391.734 932.469 392.411 930.833C393.093 929.193 393.848 927.594 394.687 926.031C395.52 924.469 396.432 922.953 397.416 921.479C398.4 920.005 399.458 918.583 400.583 917.214C401.708 915.844 402.895 914.537 404.145 913.281C405.4 912.026 406.713 910.839 408.083 909.714C409.452 908.589 410.874 907.537 412.348 906.552C413.817 905.568 415.338 904.656 416.9 903.818C418.463 902.985 420.062 902.224 421.697 901.547C423.333 900.87 424.999 900.271 426.697 899.755C428.39 899.24 430.109 898.807 431.848 898.458C433.583 898.115 435.333 897.854 437.098 897.677C438.864 897.5 440.63 897.412 442.4 897.412H626.848C628.619 897.412 630.39 897.5 632.15 897.677C633.916 897.854 635.666 898.115 637.406 898.458C639.14 898.807 640.859 899.24 642.551 899.755C644.249 900.271 645.916 900.87 647.551 901.547C649.187 902.224 650.786 902.985 652.348 903.818C653.911 904.656 655.432 905.568 656.906 906.552C658.38 907.537 659.796 908.589 661.166 909.714C662.536 910.839 663.848 912.026 665.104 913.281C666.354 914.537 667.546 915.844 668.666 917.214C669.791 918.583 670.848 920.005 671.833 921.479C672.817 922.953 673.729 924.469 674.562 926.031C675.4 927.594 676.156 929.193 676.838 930.833C677.515 932.469 678.114 934.136 678.63 935.828C679.145 937.526 679.577 939.245 679.921 940.979C680.27 942.719 680.531 944.469 680.708 946.229C680.885 947.995 680.973 949.761 680.973 951.537V955.026C680.973 956.802 680.885 958.568 680.708 960.333C680.531 962.094 680.27 963.844 679.921 965.583C679.577 967.323 679.145 969.037 678.63 970.735C678.114 972.427 677.515 974.094 676.838 975.729C676.156 977.37 675.4 978.969 674.562 980.531C673.729 982.094 672.817 983.61 671.833 985.083C670.848 986.557 669.791 987.979 668.666 989.349C667.546 990.719 666.354 992.026 665.104 993.281C663.848 994.537 662.536 995.724 661.166 996.849C659.796 997.974 658.38 999.026 656.906 1000.01C655.432 1000.99 653.911 1001.91 652.348 1002.74C650.786 1003.58 649.187 1004.34 647.551 1005.02C645.916 1005.69 644.249 1006.29 642.551 1006.81C640.859 1007.32 639.14 1007.76 637.406 1008.1C635.666 1008.45 633.916 1008.71 632.15 1008.89C630.39 1009.06 628.619 1009.15 626.848 1009.15ZM442.4 926.656C441.588 926.656 440.775 926.698 439.963 926.781C439.156 926.86 438.348 926.979 437.551 927.141C436.749 927.302 435.963 927.5 435.182 927.735C434.406 927.974 433.64 928.245 432.885 928.557C432.135 928.87 431.4 929.219 430.682 929.604C429.963 929.99 429.265 930.406 428.588 930.86C427.911 931.313 427.26 931.797 426.63 932.313C425.999 932.828 425.395 933.375 424.822 933.953C424.244 934.526 423.697 935.13 423.182 935.761C422.666 936.391 422.182 937.042 421.729 937.719C421.275 938.396 420.854 939.094 420.473 939.813C420.088 940.531 419.739 941.266 419.426 942.021C419.114 942.771 418.838 943.537 418.604 944.318C418.364 945.094 418.166 945.886 418.01 946.682C417.848 947.479 417.729 948.287 417.65 949.094C417.567 949.906 417.525 950.719 417.525 951.531V955.026C417.525 955.839 417.567 956.651 417.65 957.464C417.729 958.276 417.848 959.078 418.01 959.875C418.166 960.677 418.364 961.464 418.604 962.245C418.838 963.021 419.114 963.787 419.426 964.542C419.739 965.292 420.088 966.031 420.473 966.745C420.854 967.464 421.275 968.162 421.729 968.839C422.182 969.516 422.666 970.172 423.182 970.802C423.697 971.427 424.244 972.031 424.822 972.61C425.395 973.182 425.999 973.729 426.63 974.245C427.26 974.766 427.911 975.25 428.588 975.703C429.265 976.151 429.963 976.573 430.682 976.958C431.4 977.339 432.135 977.688 432.885 978C433.64 978.313 434.406 978.589 435.182 978.823C435.963 979.063 436.749 979.261 437.551 979.422C438.348 979.578 439.156 979.698 439.963 979.781C440.775 979.86 441.588 979.901 442.4 979.901H626.848C627.661 979.901 628.473 979.86 629.286 979.781C630.098 979.698 630.9 979.578 631.697 979.422C632.499 979.261 633.286 979.063 634.067 978.823C634.843 978.589 635.609 978.313 636.364 978C637.114 977.688 637.854 977.339 638.567 976.958C639.286 976.573 639.984 976.156 640.661 975.703C641.338 975.25 641.994 974.766 642.619 974.245C643.249 973.729 643.854 973.182 644.432 972.61C645.005 972.031 645.551 971.427 646.067 970.802C646.588 970.172 647.072 969.516 647.525 968.839C647.973 968.162 648.395 967.464 648.781 966.745C649.161 966.031 649.51 965.292 649.822 964.542C650.135 963.792 650.411 963.026 650.645 962.245C650.885 961.464 651.083 960.677 651.239 959.875C651.4 959.078 651.52 958.276 651.604 957.464C651.682 956.651 651.723 955.839 651.723 955.026V951.531C651.723 950.719 651.682 949.906 651.604 949.094C651.52 948.287 651.4 947.479 651.239 946.682C651.083 945.886 650.885 945.094 650.645 944.318C650.411 943.537 650.135 942.771 649.822 942.021C649.51 941.266 649.161 940.531 648.781 939.813C648.395 939.094 647.973 938.396 647.525 937.719C647.072 937.042 646.588 936.391 646.067 935.761C645.551 935.13 645.005 934.526 644.432 933.953C643.854 933.375 643.249 932.828 642.619 932.313C641.994 931.797 641.338 931.313 640.661 930.86C639.984 930.406 639.286 929.99 638.567 929.604C637.854 929.219 637.114 928.87 636.364 928.557C635.609 928.245 634.843 927.974 634.067 927.735C633.286 927.5 632.499 927.302 631.697 927.141C630.9 926.979 630.098 926.86 629.286 926.781C628.473 926.698 627.661 926.656 626.848 926.656H442.4Z" fill="#AD0000"/>
</g>
</svg>
