<svg width="1080" height="1080" viewBox="0 0 1080 1080" fill="none" xmlns="http://www.w3.org/2000/svg">
<g clipPath="url(#clip0_847_762)">
<mask id="mask0_847_762" style="mask-type:luminance" maskUnits="userSpaceOnUse" x="0" y="43" width="1076" height="995">
<path d="M0 43.1978H1076V1037.2H0V43.1978Z" fill="white"/>
</mask>
<g mask="url(#mask0_847_762)">
<path d="M1073.15 734.291C1069.81 721.786 1061.8 711.323 1050.59 704.843C1039.38 698.359 1026.32 696.63 1013.8 699.979L879.958 735.838L863.365 673.896L886.432 667.713C895.682 665.234 901.172 655.729 898.693 646.479C896.214 637.229 886.703 631.744 877.464 634.224L837.682 644.88C837.672 644.885 837.656 644.885 837.646 644.89C837.63 644.896 837.62 644.896 837.604 644.901L797.828 655.562C788.578 658.041 783.089 667.547 785.568 676.791C787.646 684.536 794.646 689.646 802.302 689.646C803.792 689.646 805.297 689.453 806.797 689.052L829.875 682.869L846.469 744.817L362.49 874.5L345.896 812.557L368.969 806.375C378.219 803.896 383.703 794.39 381.229 785.14C378.75 775.896 369.24 770.411 359.995 772.885L320.198 783.547C320.193 783.547 320.182 783.547 320.177 783.552C320.167 783.552 320.161 783.557 320.151 783.557L280.359 794.218C271.109 796.698 265.62 806.203 268.099 815.453C270.177 823.198 277.177 828.307 284.833 828.307C286.323 828.307 287.828 828.114 289.333 827.713L312.406 821.531L329.005 883.474L195.182 919.328C182.677 922.672 172.214 930.682 165.729 941.896C159.25 953.099 157.521 966.161 160.865 978.672C164.203 991.182 172.219 1001.64 183.427 1008.12C190.901 1012.44 199.198 1014.66 207.609 1014.66C211.813 1014.66 216.042 1014.1 220.208 1012.99L563.708 920.948L544.198 1015.4C543.146 1020.5 544.443 1025.81 547.734 1029.85C551.026 1033.9 555.964 1036.24 561.177 1036.24H688.911C694.125 1036.24 699.063 1033.9 702.354 1029.85C705.646 1025.81 706.943 1020.5 705.891 1015.4L679.948 889.802L1038.83 793.64C1064.66 786.734 1080.05 760.109 1073.15 734.291ZM667.63 1001.56H582.453L601.182 910.901L646.401 898.786L667.63 1001.56ZM1038.27 753.713C1036.42 756.906 1033.44 759.187 1029.87 760.14L211.255 979.489C207.693 980.437 203.969 979.942 200.781 978.099C197.589 976.255 195.313 973.276 194.359 969.718C192.396 962.364 196.776 954.781 204.141 952.817L872.172 773.817C872.177 773.817 872.182 773.817 872.188 773.817C872.193 773.812 872.203 773.812 872.208 773.807L1022.76 733.468C1023.95 733.151 1025.15 732.994 1026.34 732.994C1028.74 732.994 1031.1 733.625 1033.23 734.854C1036.42 736.698 1038.7 739.677 1039.66 743.239C1040.6 746.802 1040.11 750.521 1038.27 753.713ZM163.635 577.364C163.635 563.135 153.234 551.323 139.641 549.047L230.833 141H293.922V450.916H279.37C261.047 450.916 246.141 465.823 246.141 484.146V522.297C246.141 540.614 261.047 555.521 279.37 555.521H534.026C552.349 555.521 567.255 540.614 567.255 522.297V484.146C567.255 465.823 552.349 450.916 534.026 450.916H519.469V141H582.563L673.729 548.932C660.208 550.849 649.76 562.463 649.76 576.505V607.14C649.76 622.515 662.271 635.026 677.646 635.026H785.51C800.885 635.026 813.396 622.515 813.396 607.14V576.505C813.396 561.13 800.885 548.625 785.51 548.625H772.828L676.333 116.833C666.745 73.932 629.443 43.9736 585.625 43.9736H227.776C183.953 43.9736 146.651 73.932 137.063 116.833L40.5625 548.619H28.7448C12.8958 548.619 0 561.515 0 577.364V610.474C0 626.323 12.8958 639.218 28.7448 639.218H134.891C150.74 639.218 163.635 626.323 163.635 610.474V577.364ZM532.583 520.854H280.813V485.593H532.583V520.854ZM484.802 450.916H328.594V141H484.802V450.916ZM778.724 600.354H684.432V583.291H778.724V600.354ZM170.901 124.396C176.922 97.458 200.307 78.6455 227.776 78.6455H585.625C613.089 78.6455 636.479 97.4632 642.495 124.396L737.302 548.619H709.188L615.682 130.234C612.49 115.937 600.411 106.328 585.62 106.328H227.771C212.99 106.328 200.911 115.937 197.714 130.229L104.208 548.619H76.0938L170.901 124.396ZM128.964 604.547H34.6719V583.291H128.964V604.547Z" fill="#AD0000"/>
</g>
</g>
<defs>
<clipPath id="clip0_847_762">
<rect width="1080" height="1080" fill="white"/>
</clipPath>
</defs>
</svg>
