<svg width="1080" height="1080" viewBox="0 0 1080 1080" fill="none" xmlns="http://www.w3.org/2000/svg">
<g clipPath="url(#clip0_847_708)">
<path d="M880.083 637.651H830.854V560.24C830.854 526.063 813.87 495.792 787.917 477.365V14.9844C787.917 6.70833 781.208 0 772.932 0H37.5469C29.2708 0 22.5625 6.70833 22.5625 14.9844V652.63C22.5625 660.906 29.2708 667.615 37.5469 667.615H379.219C382.63 703.719 398.328 737.214 424.297 763.182C427.224 766.109 431.057 767.573 434.891 767.573C438.724 767.573 442.563 766.109 445.49 763.182C451.339 757.333 451.339 747.844 445.484 741.995C425.188 721.693 412.682 695.698 409.38 667.615H444.557C447.63 686.365 456.432 703.651 470.13 717.349C473.052 720.276 476.891 721.74 480.724 721.74C484.557 721.74 488.396 720.276 491.318 717.349C497.172 711.5 497.172 702.01 491.318 696.161C483.307 688.156 477.781 678.328 475.115 667.615H563.432V745.026C563.432 831.406 629.833 902.531 714.266 910.135V1027.47H688.703C680.427 1027.47 673.719 1034.18 673.719 1042.45C673.719 1050.73 680.427 1057.44 688.703 1057.44H769.807C778.078 1057.44 784.786 1050.73 784.786 1042.45C784.786 1034.18 778.078 1027.47 769.807 1027.47H744.24V910.135C828.672 902.531 895.073 831.406 895.073 745.026V652.635C895.068 644.359 888.359 637.651 880.083 637.651ZM800.885 560.24V745.026C800.885 784.526 768.75 816.661 729.25 816.661C689.75 816.661 657.615 784.526 657.615 745.026V560.24C657.615 520.74 689.75 488.604 729.25 488.604C768.75 488.604 800.885 520.74 800.885 560.24ZM52.526 29.9688H757.953V462.792C748.844 460.104 739.219 458.635 729.25 458.635C673.229 458.635 627.651 504.214 627.651 560.24V637.646H475.115C477.781 626.938 483.313 617.109 491.318 609.099C497.172 603.25 497.172 593.766 491.318 587.911C485.469 582.063 475.979 582.063 470.13 587.911C456.432 601.615 447.63 618.901 444.557 637.646H409.38C412.682 609.568 425.188 583.573 445.484 563.276C451.339 557.422 451.339 547.932 445.49 542.083C439.641 536.234 430.151 536.234 424.297 542.083C398.328 568.052 382.635 601.547 379.219 637.651H52.526V29.9688ZM865.099 745.026C865.099 819.938 804.156 880.875 729.25 880.875C654.339 880.875 593.401 819.938 593.401 745.026V667.62H627.646V745.026C627.646 801.052 673.229 846.63 729.25 846.63C785.276 846.63 830.854 801.052 830.854 745.026V667.62H865.099V745.026ZM1080 652.635C1080 694.396 1063.73 733.656 1034.2 763.188C1031.28 766.109 1027.44 767.573 1023.61 767.573C1019.77 767.573 1015.94 766.109 1013.02 763.182C1007.16 757.333 1007.16 747.844 1013.02 741.995C1036.88 718.125 1050.03 686.391 1050.03 652.635C1050.03 618.875 1036.88 587.141 1013.02 563.276C1007.16 557.422 1007.16 547.932 1013.02 542.083C1018.86 536.234 1028.35 536.234 1034.2 542.083C1063.73 571.609 1080 610.87 1080 652.635ZM1015.18 652.63C1015.18 677.083 1005.66 700.063 988.375 717.349C985.448 720.276 981.615 721.74 977.781 721.74C973.943 721.74 970.109 720.276 967.182 717.349C961.333 711.5 961.333 702.01 967.188 696.161C978.813 684.536 985.214 669.078 985.214 652.63C985.214 636.188 978.813 620.729 967.188 609.099C961.333 603.25 961.333 593.766 967.188 587.911C973.036 582.063 982.526 582.063 988.375 587.911C1005.66 605.203 1015.18 628.182 1015.18 652.63ZM405.24 511.432C503.182 511.432 582.859 431.75 582.859 333.813C582.859 235.865 503.177 156.188 405.24 156.188C307.297 156.188 227.615 235.87 227.615 333.813C227.615 431.75 307.297 511.432 405.24 511.432ZM405.24 186.151C486.656 186.151 552.891 252.391 552.891 333.807C552.891 415.224 486.656 481.464 405.24 481.464C323.823 481.464 257.583 415.224 257.583 333.807C257.583 252.391 323.823 186.151 405.24 186.151ZM355.813 406.229C358.13 407.568 360.714 408.24 363.302 408.24C365.891 408.24 368.479 407.573 370.797 406.229L473.76 346.786C478.396 344.109 481.25 339.161 481.25 333.813C481.25 328.458 478.396 323.51 473.76 320.833L370.797 261.391C366.161 258.714 360.453 258.714 355.813 261.391C351.177 264.068 348.318 269.01 348.318 274.365V393.255C348.318 398.609 351.177 403.552 355.813 406.229ZM378.286 300.313L436.297 333.807L378.286 367.297V300.313Z" fill="#AD0000"/>
</g>
<defs>
<clipPath id="clip0_847_708">
<rect width="1080" height="1080" fill="white"/>
</clipPath>
</defs>
</svg>
