<svg xmlns="http://www.w3.org/2000/svg" xmlns:xlink="http://www.w3.org/1999/xlink" width="1080" zoomAndPan="magnify" viewBox="0 0 810 809.999993" height="1080" preserveAspectRatio="xMidYMid meet" version="1.0"><defs><clipPath id="54d046ca51"><path d="M 41 135 L 771 135 L 771 710.980469 L 41 710.980469 Z M 41 135 " clip-rule="nonzero"/></clipPath></defs><g clipPath="url(#54d046ca51)"><path fill="#ad0000" d="M 599.765625 330.464844 C 614.417969 333.75 627.445312 341.421875 637.40625 352.039062 C 647.328125 362.625 654.167969 376.113281 656.492188 391.078125 C 657.363281 396.695312 662.621094 400.546875 668.242188 399.675781 C 672.839844 398.964844 676.25 395.3125 676.863281 390.929688 C 679.207031 376.023438 686.035156 362.585938 695.925781 352.039062 C 705.917969 341.382812 719 333.695312 733.714844 330.429688 C 739.265625 329.207031 742.773438 323.707031 741.546875 318.15625 C 740.644531 314.0625 737.421875 311.085938 733.566406 310.289062 C 718.914062 307.007812 705.886719 299.332031 695.929688 288.714844 C 686.003906 278.136719 679.164062 264.644531 676.839844 249.683594 C 675.972656 244.0625 670.710938 240.210938 665.089844 241.082031 C 660.496094 241.792969 657.082031 245.445312 656.46875 249.828125 C 654.125 264.734375 647.296875 278.167969 637.402344 288.71875 C 627.414062 299.371094 614.332031 307.058594 599.621094 310.324219 C 594.070312 311.550781 590.5625 317.046875 591.789062 322.597656 C 592.691406 326.691406 595.914062 329.671875 599.765625 330.464844 Z M 559.847656 330.53125 C 603.527344 374.210938 603.527344 445.03125 559.847656 488.710938 C 516.171875 532.390625 445.347656 532.390625 401.667969 488.710938 C 357.988281 445.03125 357.988281 374.207031 401.667969 330.53125 C 445.347656 286.851562 516.171875 286.851562 559.847656 330.53125 Z M 480.757812 277.097656 C 430.992188 277.097656 386.773438 304.671875 364.050781 346.792969 C 360.382812 341.675781 355.597656 337.246094 349.8125 333.90625 L 218.003906 257.804688 L 250.535156 226.824219 L 375.652344 226.824219 C 380.183594 226.824219 384.03125 223.910156 385.429688 219.851562 L 408.625 164.175781 C 408.703125 163.988281 408.789062 163.863281 408.875 163.804688 L 552.226562 163.761719 L 552.6875 163.835938 L 552.679688 163.847656 C 552.742188 163.890625 552.816406 164 552.890625 164.175781 L 576.335938 220.445312 C 577.980469 224.410156 581.820312 226.804688 585.863281 226.808594 L 585.863281 226.824219 L 725.691406 226.824219 C 739.1875 226.824219 750.265625 237.902344 750.265625 251.398438 L 750.265625 567.839844 C 750.265625 581.335938 739.1875 592.417969 725.691406 592.417969 L 235.824219 592.417969 L 232.097656 592.132812 C 229.003906 591.636719 226.347656 590.691406 223.625 589.144531 L 222.863281 588.6875 L 221.871094 588.03125 L 221.390625 587.6875 L 220.453125 586.96875 L 216.695312 583.210938 L 215.976562 582.273438 L 215.632812 581.792969 L 215.296875 581.300781 L 214.976562 580.800781 L 214.820312 580.550781 L 214.519531 580.039062 L 214.371094 579.78125 L 213.949219 578.992188 L 213.679688 578.460938 L 213.429688 577.921875 L 213.308594 577.644531 L 213.1875 577.371094 L 213.074219 577.097656 L 212.960938 576.816406 L 212.746094 576.257812 L 212.644531 575.976562 L 212.546875 575.691406 L 212.359375 575.121094 L 212.1875 574.542969 L 212.105469 574.25 L 212.027344 573.957031 L 211.953125 573.660156 L 211.882812 573.367188 L 211.75 572.773438 L 211.691406 572.472656 L 211.582031 571.871094 L 211.488281 571.261719 L 211.445312 570.953125 L 211.410156 570.648438 L 211.375 570.339844 L 211.320312 569.722656 L 211.28125 569.097656 L 211.265625 568.785156 L 211.257812 568.46875 L 211.25 568.15625 L 211.25 523.484375 L 253.171875 547.691406 C 264.105469 554 276.59375 555.273438 287.914062 552.242188 C 310.136719 546.289062 324.515625 524.839844 321.429688 501.976562 C 339.84375 505.191406 358.839844 496.859375 368.679688 480.359375 C 392.488281 518.007812 434.171875 542.144531 480.757812 542.144531 C 553.945312 542.144531 613.28125 482.804688 613.28125 409.621094 C 613.28125 336.433594 553.945312 277.097656 480.757812 277.097656 Z M 282.109375 206.152344 C 295.914062 206.152344 307.246094 194.820312 307.246094 181.015625 C 307.246094 167.207031 295.910156 155.878906 282.109375 155.878906 L 233.808594 155.878906 L 152.566406 207.824219 C 141.988281 214.585938 136.277344 225.070312 136.277344 237.664062 L 136.277344 280.652344 L 194.875 251.355469 L 238.792969 209.53125 C 240.683594 207.453125 243.40625 206.152344 246.4375 206.152344 Z M 210.558594 605.339844 L 210.109375 605.03125 L 209.222656 604.398438 L 208.351562 603.746094 L 207.496094 603.074219 L 206.246094 602.027344 L 205.433594 601.304688 L 202.359375 598.234375 L 201.640625 597.421875 L 200.59375 596.167969 L 199.917969 595.3125 L 199.265625 594.441406 L 198.632812 593.554688 L 198.324219 593.105469 L 197.433594 591.734375 L 197.144531 591.269531 C 197.050781 591.113281 196.957031 590.957031 196.867188 590.800781 C 196.773438 590.640625 196.679688 590.484375 196.589844 590.328125 L 196.320312 589.851562 C 196.230469 589.695312 196.144531 589.535156 196.054688 589.371094 L 195.054688 587.421875 L 194.816406 586.925781 C 194.738281 586.761719 194.664062 586.59375 194.589844 586.425781 C 194.511719 586.257812 194.4375 586.09375 194.363281 585.921875 L 194.144531 585.417969 L 193.929688 584.910156 C 193.859375 584.738281 193.792969 584.570312 193.726562 584.398438 C 193.65625 584.226562 193.589844 584.054688 193.523438 583.882812 C 193.460938 583.710938 193.394531 583.539062 193.332031 583.367188 C 193.269531 583.195312 193.207031 583.019531 193.144531 582.84375 L 192.960938 582.320312 L 192.785156 581.792969 L 192.457031 580.734375 C 192.402344 580.554688 192.351562 580.378906 192.300781 580.199219 C 192.25 580.019531 192.199219 579.84375 192.152344 579.660156 C 192.101562 579.480469 192.054688 579.304688 192.007812 579.121094 C 191.960938 578.941406 191.917969 578.757812 191.871094 578.578125 L 191.738281 578.03125 C 191.695312 577.851562 191.65625 577.667969 191.617188 577.484375 C 191.574219 577.300781 191.539062 577.117188 191.5 576.933594 L 191.390625 576.382812 C 191.355469 576.199219 191.320312 576.011719 191.285156 575.828125 C 191.253906 575.640625 191.222656 575.457031 191.191406 575.269531 C 191.160156 575.085938 191.128906 574.898438 191.101562 574.710938 C 191.070312 574.523438 191.042969 574.335938 191.015625 574.148438 C 190.992188 573.960938 190.964844 573.773438 190.941406 573.585938 L 190.871094 573.019531 C 190.851562 572.832031 190.828125 572.640625 190.8125 572.449219 L 190.757812 571.878906 C 190.738281 571.691406 190.722656 571.5 190.707031 571.308594 C 190.695312 571.117188 190.679688 570.925781 190.667969 570.734375 C 190.65625 570.542969 190.644531 570.351562 190.636719 570.160156 C 190.625 569.96875 190.617188 569.773438 190.609375 569.582031 C 190.601562 569.386719 190.59375 569.195312 190.589844 569 C 190.585938 568.808594 190.582031 568.613281 190.578125 568.417969 C 190.574219 568.226562 190.574219 568.03125 190.574219 567.835938 L 190.574219 517.1875 L 169.984375 519.566406 C 164.320312 520.210938 159.203125 516.144531 158.558594 510.480469 C 157.910156 504.816406 161.980469 499.699219 167.644531 499.054688 L 199.742188 495.351562 C 202.191406 495.070312 204.535156 495.671875 206.460938 496.902344 L 263.511719 529.839844 C 275.4375 536.726562 290.96875 532.574219 297.875 520.609375 C 304.765625 508.679688 300.613281 493.152344 288.648438 486.242188 L 288.660156 486.226562 L 238.300781 457.152344 L 175.898438 456.542969 C 170.210938 456.496094 165.640625 451.851562 165.683594 446.164062 C 165.726562 440.476562 170.375 435.902344 176.0625 435.949219 L 241.179688 436.585938 C 243.152344 436.601562 244.988281 437.171875 246.546875 438.144531 C 264.019531 448.234375 281.527344 458.285156 298.976562 468.414062 L 298.988281 468.398438 C 299.378906 468.621094 299.761719 468.851562 300.140625 469.085938 L 316.800781 478.683594 C 328.730469 485.570312 344.257812 481.421875 351.167969 469.453125 L 351.1875 469.464844 C 354.621094 463.496094 355.296875 456.632812 353.621094 450.378906 C 351.917969 444.027344 347.929688 438.554688 341.9375 435.089844 L 304.007812 413.1875 L 304.015625 413.171875 L 303.457031 412.847656 L 303.441406 412.867188 L 303.203125 412.703125 L 222.34375 366.019531 L 171.84375 384.949219 C 166.511719 386.933594 160.582031 384.222656 158.597656 378.890625 C 156.613281 373.5625 159.324219 367.632812 164.652344 365.648438 L 219.683594 345.019531 C 222.789062 343.863281 226.097656 344.304688 228.710938 345.925781 L 313.484375 394.867188 L 315.179688 395.824219 C 320.941406 398.847656 327.457031 399.390625 333.414062 397.792969 C 339.472656 396.171875 344.925781 392.328125 348.398438 386.632812 C 348.585938 386.265625 348.792969 385.902344 349.03125 385.546875 L 349.042969 385.554688 C 355.472656 373.671875 351.222656 358.527344 339.476562 351.746094 L 200.542969 271.535156 L 88.9375 327.335938 C 66.847656 351.621094 59.828125 414.710938 62.703125 482.355469 C 66.105469 562.292969 83.550781 647.265625 106.582031 683.097656 C 107.953125 684.851562 108.773438 687.0625 108.773438 689.464844 L 108.773438 695.03125 L 316.191406 695.03125 C 327.566406 668.59375 335.902344 641.214844 341.414062 613.085938 L 235.828125 613.085938 C 231.410156 613.085938 227.167969 612.460938 222.933594 611.207031 L 217.742188 609.300781 L 214.292969 607.609375 L 213.339844 607.074219 C 213.183594 606.984375 213.023438 606.890625 212.867188 606.800781 L 212.398438 606.515625 Z M 42.109375 483.167969 C 38.972656 409.46875 47.957031 339.640625 75.320312 311.738281 C 76.285156 310.757812 77.398438 310.011719 78.585938 309.5 L 115.605469 290.988281 L 115.605469 237.664062 C 115.605469 218.128906 125.011719 201 141.503906 190.457031 L 225.335938 136.859375 C 227.050781 135.761719 228.96875 135.242188 230.867188 135.246094 L 230.867188 135.203125 L 282.105469 135.203125 C 307.320312 135.203125 327.914062 155.796875 327.914062 181.011719 C 327.914062 190.28125 325.132812 198.925781 320.363281 206.148438 L 368.777344 206.148438 L 389.566406 156.261719 C 392.914062 148.226562 400.636719 143.085938 409.285156 143.085938 L 552.226562 143.085938 C 556.527344 143.085938 560.59375 144.355469 564.058594 146.65625 L 564.066406 146.644531 C 567.519531 148.949219 570.269531 152.234375 571.945312 156.261719 L 592.734375 206.148438 L 725.6875 206.148438 C 750.597656 206.148438 770.9375 226.492188 770.9375 251.398438 L 770.9375 567.839844 C 770.9375 592.75 750.597656 613.089844 725.6875 613.089844 L 362.414062 613.089844 C 357.171875 641.214844 349.316406 668.472656 338.550781 695.03125 L 347.273438 695.03125 C 352.980469 695.03125 357.609375 699.660156 357.609375 705.371094 L 357.609375 808.738281 C 357.609375 814.445312 352.980469 819.074219 347.273438 819.074219 L 74.089844 819.074219 C 68.382812 819.074219 63.753906 814.449219 63.753906 808.738281 L 63.753906 705.371094 C 63.753906 699.660156 68.382812 695.03125 74.089844 695.03125 L 88.097656 695.03125 L 88.097656 692.367188 C 63.792969 652.625 45.585938 564.902344 42.109375 483.167969 Z M 84.425781 715.707031 L 84.425781 798.402344 L 336.9375 798.402344 L 336.9375 715.707031 Z M 348.308594 414 C 348.019531 414.152344 347.722656 414.304688 347.429688 414.449219 L 348.34375 414.976562 C 348.332031 414.652344 348.320312 414.324219 348.308594 414 Z M 480.292969 352.953125 C 448.714844 352.953125 423.121094 378.550781 423.121094 410.128906 C 423.121094 441.707031 448.714844 467.304688 480.292969 467.304688 C 511.871094 467.304688 537.46875 441.707031 537.46875 410.128906 C 537.46875 378.550781 511.871094 352.953125 480.292969 352.953125 Z M 480.757812 332.277344 C 459.402344 332.277344 440.066406 340.9375 426.070312 354.933594 C 406.558594 374.445312 399.097656 402.714844 405.851562 428.949219 L 407.183594 433.523438 L 409.132812 438.855469 L 411.457031 443.992188 L 414.617188 449.726562 L 417.152344 453.628906 L 420.492188 458.097656 L 426.070312 464.308594 C 426.292969 464.53125 426.511719 464.746094 426.730469 464.960938 C 426.953125 465.179688 427.175781 465.394531 427.398438 465.605469 C 427.621094 465.820312 427.847656 466.03125 428.074219 466.242188 C 428.300781 466.453125 428.527344 466.660156 428.757812 466.871094 C 428.988281 467.078125 429.214844 467.285156 429.449219 467.488281 C 429.679688 467.695312 429.914062 467.898438 430.148438 468.101562 C 430.382812 468.300781 430.613281 468.503906 430.851562 468.703125 C 431.085938 468.902344 431.324219 469.101562 431.5625 469.296875 C 431.804688 469.492188 432.042969 469.6875 432.28125 469.882812 C 432.523438 470.078125 432.765625 470.269531 433.011719 470.460938 C 433.253906 470.652344 433.5 470.84375 433.746094 471.03125 C 433.992188 471.222656 434.238281 471.40625 434.484375 471.59375 C 434.734375 471.78125 434.984375 471.964844 435.230469 472.148438 C 435.484375 472.328125 435.734375 472.511719 435.988281 472.691406 C 436.238281 472.871094 436.492188 473.046875 436.75 473.226562 C 437.003906 473.402344 437.261719 473.578125 437.519531 473.753906 C 437.773438 473.925781 438.035156 474.097656 438.292969 474.269531 C 438.550781 474.4375 438.8125 474.609375 439.074219 474.777344 C 439.335938 474.945312 439.597656 475.109375 439.863281 475.273438 C 440.125 475.4375 440.390625 475.601562 440.65625 475.765625 C 440.921875 475.925781 441.191406 476.085938 441.457031 476.246094 C 441.726562 476.402344 441.996094 476.558594 442.265625 476.714844 C 442.535156 476.871094 442.804688 477.023438 443.078125 477.175781 C 443.347656 477.328125 443.621094 477.476562 443.894531 477.625 C 444.167969 477.773438 444.445312 477.921875 444.722656 478.066406 C 444.996094 478.214844 445.273438 478.355469 445.554688 478.5 C 445.828125 478.644531 446.109375 478.785156 446.390625 478.921875 C 446.671875 479.0625 446.949219 479.199219 447.230469 479.335938 C 447.515625 479.472656 447.796875 479.605469 448.082031 479.738281 C 448.363281 479.871094 448.648438 480 448.933594 480.132812 C 449.21875 480.261719 449.507812 480.386719 449.792969 480.511719 C 450.078125 480.640625 450.367188 480.761719 450.65625 480.882812 C 450.945312 481.007812 451.238281 481.128906 451.527344 481.246094 C 451.820312 481.367188 452.113281 481.484375 452.40625 481.597656 C 452.699219 481.714844 452.992188 481.828125 453.285156 481.941406 C 453.582031 482.050781 453.875 482.160156 454.171875 482.269531 C 454.46875 482.378906 454.765625 482.484375 455.0625 482.589844 C 455.363281 482.695312 455.660156 482.796875 455.960938 482.898438 C 456.261719 483 456.558594 483.101562 456.859375 483.199219 C 457.164062 483.296875 457.464844 483.390625 457.765625 483.484375 C 458.070312 483.578125 458.375 483.671875 458.679688 483.761719 C 458.984375 483.851562 459.289062 483.941406 459.59375 484.027344 C 459.898438 484.113281 460.207031 484.199219 460.511719 484.28125 C 460.820312 484.367188 461.128906 484.445312 461.4375 484.527344 C 461.746094 484.605469 462.058594 484.683594 462.367188 484.757812 C 462.675781 484.835938 462.988281 484.910156 463.300781 484.980469 C 463.613281 485.054688 463.925781 485.125 464.238281 485.191406 C 464.550781 485.261719 464.863281 485.328125 465.179688 485.390625 C 465.496094 485.453125 465.808594 485.515625 466.125 485.578125 C 466.441406 485.636719 466.757812 485.695312 467.074219 485.753906 C 467.394531 485.808594 467.710938 485.863281 468.027344 485.917969 C 468.347656 485.96875 468.667969 486.019531 468.988281 486.070312 C 469.308594 486.117188 469.628906 486.164062 469.949219 486.210938 C 470.269531 486.253906 470.589844 486.296875 470.914062 486.339844 C 471.238281 486.378906 471.558594 486.417969 471.882812 486.457031 C 472.207031 486.492188 472.53125 486.527344 472.855469 486.5625 C 473.183594 486.59375 473.507812 486.625 473.832031 486.65625 C 474.160156 486.683594 474.484375 486.710938 474.8125 486.734375 C 475.140625 486.761719 475.46875 486.78125 475.796875 486.804688 C 476.125 486.824219 476.453125 486.84375 476.78125 486.863281 C 477.113281 486.878906 477.445312 486.894531 477.773438 486.90625 C 478.105469 486.917969 478.433594 486.929688 478.765625 486.9375 C 479.097656 486.945312 479.429688 486.953125 479.761719 486.957031 L 481.761719 486.957031 C 482.09375 486.949219 482.425781 486.945312 482.757812 486.933594 C 483.085938 486.925781 483.417969 486.917969 483.75 486.90625 C 484.082031 486.890625 484.410156 486.878906 484.738281 486.859375 C 485.070312 486.84375 485.398438 486.824219 485.726562 486.804688 C 486.054688 486.78125 486.382812 486.761719 486.707031 486.734375 C 487.035156 486.710938 487.363281 486.683594 487.6875 486.652344 C 488.015625 486.625 488.339844 486.59375 488.664062 486.558594 C 488.988281 486.527344 489.3125 486.492188 489.636719 486.457031 C 489.960938 486.417969 490.285156 486.378906 490.609375 486.335938 C 490.929688 486.296875 491.253906 486.253906 491.574219 486.207031 C 491.894531 486.164062 492.214844 486.117188 492.535156 486.066406 C 492.855469 486.019531 493.175781 485.96875 493.492188 485.914062 C 493.808594 485.863281 494.128906 485.808594 494.445312 485.75 C 494.761719 485.695312 495.078125 485.636719 495.394531 485.574219 C 495.710938 485.515625 496.027344 485.453125 496.339844 485.390625 C 496.65625 485.324219 496.96875 485.257812 497.285156 485.191406 C 497.597656 485.121094 497.910156 485.054688 498.21875 484.980469 C 498.53125 484.90625 498.84375 484.832031 499.15625 484.757812 C 499.464844 484.683594 499.773438 484.605469 500.082031 484.523438 C 500.394531 484.445312 500.699219 484.363281 501.007812 484.28125 C 501.316406 484.199219 501.621094 484.113281 501.925781 484.027344 C 502.234375 483.9375 502.539062 483.851562 502.84375 483.757812 C 503.148438 483.667969 503.449219 483.578125 503.753906 483.480469 C 504.058594 483.386719 504.359375 483.292969 504.660156 483.195312 C 504.960938 483.097656 505.261719 483 505.5625 482.898438 C 505.859375 482.796875 506.160156 482.695312 506.457031 482.585938 C 506.753906 482.480469 507.050781 482.375 507.347656 482.265625 C 507.644531 482.160156 507.941406 482.050781 508.234375 481.9375 C 508.53125 481.824219 508.824219 481.710938 509.117188 481.597656 C 509.410156 481.480469 509.699219 481.363281 509.992188 481.242188 C 510.28125 481.125 510.570312 481.003906 510.859375 480.882812 C 511.152344 480.757812 511.441406 480.636719 511.726562 480.507812 C 512.011719 480.382812 512.300781 480.257812 512.585938 480.128906 C 512.871094 480 513.15625 479.867188 513.4375 479.734375 C 513.722656 479.601562 514.003906 479.472656 514.285156 479.335938 C 514.570312 479.199219 514.851562 479.0625 515.128906 478.921875 C 515.410156 478.78125 515.6875 478.640625 515.964844 478.5 C 516.242188 478.355469 516.519531 478.214844 516.796875 478.066406 C 517.070312 477.921875 517.347656 477.773438 517.621094 477.625 C 517.894531 477.476562 518.167969 477.324219 518.441406 477.171875 C 518.710938 477.019531 518.984375 476.867188 519.253906 476.714844 C 519.523438 476.558594 519.792969 476.402344 520.058594 476.242188 C 520.328125 476.085938 520.59375 475.925781 520.859375 475.761719 C 521.125 475.601562 521.390625 475.4375 521.65625 475.273438 C 521.917969 475.109375 522.179688 474.941406 522.441406 474.773438 C 522.707031 474.609375 522.964844 474.4375 523.226562 474.265625 C 523.484375 474.097656 523.742188 473.925781 524 473.75 C 524.257812 473.578125 524.511719 473.402344 524.769531 473.226562 C 525.023438 473.046875 525.277344 472.871094 525.53125 472.691406 C 525.78125 472.511719 526.035156 472.332031 526.285156 472.148438 C 526.535156 471.964844 526.785156 471.78125 527.035156 471.59375 C 527.28125 471.410156 527.527344 471.222656 527.773438 471.03125 C 528.019531 470.84375 528.265625 470.652344 528.507812 470.460938 C 528.75 470.269531 528.996094 470.078125 529.234375 469.882812 C 529.476562 469.6875 529.71875 469.496094 529.957031 469.296875 C 530.195312 469.101562 530.433594 468.902344 530.667969 468.703125 C 530.902344 468.503906 531.140625 468.300781 531.371094 468.101562 C 531.605469 467.898438 531.839844 467.695312 532.070312 467.488281 C 532.300781 467.285156 532.53125 467.078125 532.761719 466.871094 C 532.992188 466.660156 533.21875 466.453125 533.445312 466.242188 C 533.671875 466.03125 533.894531 465.820312 534.121094 465.605469 C 534.34375 465.394531 534.566406 465.179688 534.789062 464.960938 C 535.007812 464.746094 535.230469 464.53125 535.449219 464.308594 L 537.382812 462.308594 L 542.175781 456.636719 L 544.894531 452.863281 L 548.316406 447.304688 L 552.386719 438.855469 L 554.039062 434.429688 L 555.667969 428.949219 C 562.824219 401.15625 554 371.183594 532.074219 351.753906 C 531.839844 351.550781 531.609375 351.34375 531.375 351.140625 C 531.140625 350.941406 530.90625 350.738281 530.667969 350.539062 L 528.511719 348.777344 C 528.269531 348.585938 528.023438 348.398438 527.777344 348.210938 L 524.003906 345.492188 L 515.96875 340.742188 L 508.238281 337.304688 L 499.160156 334.484375 L 492.539062 333.171875 L 487.691406 332.589844 Z M 666.667969 357.675781 C 658.246094 342.082031 645.585938 329.140625 630.167969 320.378906 C 645.585938 311.617188 658.246094 298.675781 666.667969 283.082031 C 675.085938 298.675781 687.75 311.617188 703.164062 320.378906 C 687.75 329.136719 675.085938 342.082031 666.667969 357.675781 Z M 666.667969 357.675781 " fill-opacity="1" fill-rule="evenodd"/></g></svg>