<svg width="9" height="9" viewBox="0 0 9 9" fill="none" xmlns="http://www.w3.org/2000/svg">
<circle cx="4.5" cy="4.5" r="4.25" stroke="#AD0000" stroke-width="0.5"/>
<path d="M3.4376 4.82489L3.37313 4.913L3.30784 5.00593L3.13578 4.82322L3.20107 4.73029C3.30906 4.58022 3.40262 4.4277 3.48173 4.27273C3.5646 4.1151 3.63433 3.96679 3.69092 3.82782C3.75072 3.68938 3.8011 3.56751 3.84208 3.4622C3.88305 3.3569 3.91886 3.28208 3.94949 3.23775C3.97527 3.2025 4.00773 3.17664 4.04684 3.16016C4.08971 3.14102 4.13176 3.12669 4.17299 3.11718C4.21744 3.10821 4.25785 3.10351 4.29425 3.10308C4.33385 3.10319 4.36167 3.10461 4.37772 3.10733C4.44832 3.11931 4.49241 3.14164 4.50998 3.17434C4.53075 3.20758 4.53488 3.2611 4.52236 3.33492C4.51637 3.37022 4.49338 3.45712 4.45338 3.59561C4.41713 3.73143 4.37142 3.90362 4.31623 4.11217C4.2648 4.31806 4.20874 4.55123 4.14806 4.81167C4.09113 5.06946 4.03898 5.33795 3.99162 5.61717C3.95732 5.81936 3.93973 5.98146 3.93885 6.10347C3.93851 6.22228 3.94788 6.31301 3.96696 6.37568C3.98926 6.43889 4.0167 6.48152 4.04928 6.50355C4.08507 6.52613 4.12222 6.54069 4.16073 6.54722C4.21208 6.55593 4.27366 6.54326 4.34547 6.50922C4.41728 6.47517 4.50604 6.40934 4.61174 6.31171C4.71799 6.21087 4.84361 6.07369 4.9886 5.90019C5.13414 5.72347 5.30764 5.49867 5.5091 5.22578L5.57921 5.13367L5.75127 5.31638L5.68117 5.40849C5.51893 5.6253 5.35723 5.8389 5.19608 6.04929C5.03814 6.26022 4.88134 6.44493 4.72569 6.60343C4.57325 6.76247 4.42492 6.88753 4.28071 6.97863C4.13703 7.06652 4.00261 7.09985 3.87745 7.07862C3.74586 7.0563 3.63628 7.0113 3.54871 6.94362C3.4649 6.87327 3.40124 6.77168 3.35774 6.63883C3.31744 6.50653 3.29813 6.33817 3.29978 6.13375C3.3052 5.92666 3.33294 5.67548 3.38302 5.38022C3.39718 5.29678 3.41188 5.21012 3.42712 5.12026C3.44291 5.02719 3.46245 4.93145 3.48574 4.83305L3.4376 4.82489ZM4.90135 2.18087C4.8823 2.2932 4.82773 2.38135 4.73764 2.44531C4.6513 2.5066 4.55197 2.52772 4.43964 2.50867C4.33052 2.49016 4.24371 2.43747 4.17921 2.35059C4.11525 2.2605 4.09279 2.15929 4.11185 2.04696C4.13036 1.93784 4.18466 1.8513 4.27475 1.78734C4.36484 1.72338 4.46444 1.70066 4.57356 1.71916C4.68589 1.73822 4.77242 1.79252 4.83318 1.88206C4.89714 1.97215 4.91986 2.07176 4.90135 2.18087Z" fill="#AD0000"/>
</svg>
