<svg width="204" height="120" viewBox="0 0 204 120" fill="none" xmlns="http://www.w3.org/2000/svg">
<g id="5" clipPath="url(#clip0_1975_3457)">
<g id="Clip path group">
<mask id="mask0_1975_3457" style="mask-type:luminance" maskUnits="userSpaceOnUse" x="44" y="51" width="76" height="69">
<g id="da63650151">
<path id="Vector" d="M44.3687 51.415H119.384V119.266H44.3687V51.415Z" fill="white"/>
</g>
</mask>
<g mask="url(#mask0_1975_3457)">
<g id="Group">
<path id="Vector_2" d="M50.0216 51.9614C46.5579 61.8585 44.3289 74.2316 44.5792 91.0593C44.5792 92.294 45.073 93.532 45.8138 94.523C53.2383 103.676 60.9097 111.841 69.5722 118.028C70.8102 119.019 72.542 119.266 74.0269 119.019C84.4179 116.543 94.8122 112.338 104.96 106.646C105.947 106.152 106.938 105.161 107.432 103.926C112.631 91.8001 116.342 79.1802 118.567 66.0663L50.0216 51.9614Z" fill="#B6BFCD"/>
</g>
</g>
</g>
<path id="Vector_3" d="M118.568 65.8195L91.1019 74.7256C89.617 75.2228 88.3791 75.4697 86.8942 75.4697C84.4183 76.9546 77.4909 87.8428 75.5122 99.4717V99.7186C78.7289 84.3758 73.5301 71.5089 72.5424 70.7681L50.022 51.9616C59.4252 48.7448 70.8105 46.2722 84.9154 44.7873C85.9032 44.5404 87.1411 44.7873 88.1321 45.2812C101.743 51.4677 111.146 58.642 118.568 65.8195Z" fill="#CED5E0"/>
<path id="Vector_4" d="M91.7209 53.8318C91.6847 54.0228 91.609 54.2071 91.497 54.3783C91.3851 54.5528 91.2336 54.7142 91.0493 54.8623C90.8616 55.0105 90.6443 55.1422 90.3908 55.2607C90.1405 55.3792 89.8607 55.478 89.5545 55.5603C89.245 55.6459 88.9158 55.7085 88.5635 55.7513C88.2112 55.7974 87.8457 55.8204 87.4605 55.8237C87.0786 55.8303 86.6901 55.8139 86.2884 55.7776C85.89 55.7414 85.4916 55.6854 85.0932 55.6097C84.6948 55.5373 84.303 55.4451 83.9178 55.3332C83.5326 55.2212 83.1638 55.0961 82.8082 54.9545C82.4527 54.8097 82.1201 54.6549 81.8073 54.487C81.4946 54.3191 81.2114 54.138 80.9546 53.9503C80.6978 53.7627 80.4706 53.5684 80.2796 53.3676C80.0887 53.1667 79.9339 52.9626 79.8121 52.7585C79.6936 52.551 79.6113 52.3469 79.5685 52.1461C79.5257 51.9419 79.5224 51.7444 79.5586 51.5534C79.5948 51.3625 79.6705 51.1781 79.7825 51.0069C79.8944 50.8324 80.0459 50.671 80.2303 50.5229C80.4179 50.3747 80.6352 50.243 80.8887 50.1245C81.139 50.006 81.4188 49.9072 81.7283 49.8249C82.0345 49.7426 82.3638 49.6767 82.7161 49.6339C83.0683 49.5878 83.4338 49.5648 83.819 49.5615C84.201 49.5549 84.5928 49.5714 84.9911 49.6076C85.3895 49.6438 85.7879 49.6998 86.1863 49.7755C86.5847 49.8479 86.9765 49.9434 87.3617 50.0521C87.7469 50.164 88.1157 50.2891 88.4713 50.434C88.8269 50.5756 89.1594 50.7303 89.4722 50.8982C89.785 51.0661 90.0681 51.2472 90.3249 51.4349C90.5817 51.6226 90.8089 51.8168 90.9999 52.0177C91.1908 52.2185 91.3489 52.4226 91.4674 52.6268C91.5859 52.8342 91.6682 53.0383 91.711 53.2392C91.7538 53.4433 91.7571 53.6408 91.7209 53.8318Z" fill="#496673"/>
<path id="Vector_5" d="M88.5339 66.9718C88.4977 67.1627 88.4253 67.3438 88.31 67.5183C88.1981 67.6928 88.0466 67.8542 87.8623 68.0023C87.6746 68.1505 87.4573 68.2822 87.2071 68.4007C86.9535 68.5192 86.6737 68.618 86.3675 68.7003C86.058 68.7826 85.7287 68.8485 85.3764 68.8913C85.0242 68.9341 84.6587 68.9604 84.2735 68.9637C83.8915 68.967 83.503 68.9538 83.1047 68.9176C82.7063 68.8814 82.3046 68.8254 81.9062 68.7497C81.5078 68.674 81.116 68.5818 80.7308 68.4731C80.3456 68.3612 79.9768 68.2361 79.6212 68.0912C79.2656 67.9496 78.9331 67.7949 78.6203 67.627C78.3075 67.4558 78.0244 67.278 77.7676 67.0903C77.5108 66.9026 77.2869 66.7084 77.0926 66.5075C76.9017 66.3067 76.7469 66.1026 76.6251 65.8951C76.5066 65.691 76.4243 65.4869 76.3815 65.2827C76.3387 65.0819 76.3354 64.8844 76.3716 64.6934C76.4078 64.5024 76.4835 64.3181 76.5955 64.1468C76.7107 63.9723 76.8589 63.811 77.0432 63.6629C77.2309 63.5147 77.4482 63.3797 77.7017 63.2645C77.952 63.1459 78.2318 63.0439 78.5413 62.9616C78.8475 62.8793 79.1768 62.8167 79.529 62.7739C79.8813 62.7278 80.2501 62.7048 80.632 62.6982C81.0139 62.6949 81.4057 62.7113 81.8041 62.7476C82.2025 62.7838 82.6009 62.8397 82.9993 62.9122C83.401 62.9879 83.7928 63.0801 84.1747 63.192C84.5599 63.304 84.932 63.4291 85.2843 63.5707C85.6398 63.7122 85.9757 63.8703 86.2852 64.0382C86.5979 64.2061 86.8844 64.3839 87.1412 64.5749C87.398 64.7625 87.6219 64.9568 87.8129 65.1576C88.0038 65.3585 88.1619 65.5626 88.2804 65.7667C88.3989 65.9742 88.4812 66.1783 88.524 66.3791C88.5668 66.5833 88.5701 66.7808 88.5339 66.9718Z" fill="#496673"/>
<path id="Vector_6" d="M104.578 63.0177C104.542 63.2086 104.469 63.3897 104.354 63.5642C104.242 63.7354 104.094 63.8968 103.906 64.0449C103.722 64.1931 103.501 64.3281 103.251 64.4466C102.998 64.5618 102.718 64.6639 102.412 64.7462C102.105 64.8285 101.773 64.8911 101.421 64.9372C101.072 64.98 100.703 65.0063 100.321 65.0096C99.9389 65.0129 99.5471 64.9964 99.1487 64.9602C98.7503 64.9273 98.3519 64.8713 97.9503 64.7956C97.5519 64.7199 97.1601 64.6277 96.7749 64.5157C96.3896 64.4071 96.0209 64.2787 95.6653 64.1371C95.3097 63.9955 94.9772 63.8408 94.6644 63.6696C94.3549 63.5017 94.0685 63.3239 93.8117 63.1362C93.5548 62.9452 93.331 62.751 93.14 62.5501C92.9457 62.3493 92.791 62.1485 92.6725 61.941C92.5506 61.7369 92.4716 61.5328 92.4288 61.3286C92.386 61.1278 92.3827 60.9303 92.4189 60.7393C92.4519 60.545 92.5276 60.364 92.6395 60.1895C92.7548 60.0182 92.9029 59.8569 93.0906 59.7088C93.275 59.5606 93.4956 59.4256 93.7458 59.3071C93.9993 59.1918 94.2792 59.0898 94.5854 59.0075C94.8916 58.9251 95.2241 58.8626 95.5731 58.8165C95.9254 58.7737 96.2942 58.7474 96.6761 58.7441C97.058 58.7408 97.4498 58.7572 97.8482 58.7935C98.2466 58.8297 98.645 58.8823 99.0467 58.9581C99.445 59.0338 99.8368 59.126 100.222 59.2379C100.604 59.3466 100.976 59.475 101.332 59.6166C101.687 59.7581 102.02 59.9162 102.333 60.0841C102.642 60.252 102.928 60.4298 103.185 60.6175C103.442 60.8084 103.666 61.0027 103.857 61.2035C104.051 61.4044 104.206 61.6085 104.324 61.8126C104.446 62.0168 104.525 62.2209 104.568 62.425C104.611 62.6259 104.614 62.8234 104.578 63.0177Z" fill="#496673"/>
<path id="Vector_7" d="M76.3977 57.5787C76.3615 57.7697 76.2857 57.9508 76.1738 58.1253C76.0619 58.2965 75.9104 58.4578 75.726 58.606C75.5384 58.7541 75.321 58.8891 75.0675 59.0076C74.8173 59.1229 74.5374 59.2249 74.2312 59.3072C73.9218 59.3896 73.5925 59.4521 73.2402 59.4982C72.8879 59.541 72.5225 59.5674 72.1372 59.5706C71.7553 59.5739 71.3668 59.5575 70.9684 59.5213C70.5667 59.4883 70.1684 59.4324 69.77 59.3566C69.3716 59.2809 68.9798 59.1887 68.5946 59.0768C68.2093 58.9681 67.8406 58.8397 67.485 58.6981C67.1294 58.5566 66.7969 58.4018 66.4841 58.2306C66.1713 58.0627 65.8882 57.8849 65.6313 57.6972C65.3745 57.5096 65.1507 57.312 64.9564 57.1112C64.7654 56.9103 64.6107 56.7095 64.4889 56.5021C64.3703 56.2979 64.288 56.0938 64.2452 55.8897C64.2024 55.6888 64.1991 55.4913 64.2353 55.3003C64.2716 55.1061 64.3473 54.925 64.4592 54.7505C64.5712 54.5793 64.7226 54.4179 64.907 54.2698C65.0947 54.1216 65.312 53.9866 65.5655 53.8681C65.8157 53.7529 66.0956 53.6508 66.4051 53.5685C66.7113 53.4862 67.0405 53.4236 67.3928 53.3775C67.7451 53.3347 68.1139 53.3117 68.4958 53.3051C68.8777 53.3018 69.2695 53.3183 69.6679 53.3545C70.0663 53.3907 70.4647 53.4434 70.8631 53.5191C71.2614 53.5948 71.6565 53.687 72.0385 53.799C72.4237 53.9076 72.7924 54.036 73.148 54.1776C73.5036 54.3192 73.8394 54.4772 74.1489 54.6451C74.4617 54.813 74.7449 54.9908 75.005 55.1785C75.2618 55.3695 75.4857 55.5637 75.6766 55.7646C75.8676 55.9654 76.0256 56.1695 76.1442 56.3737C76.2627 56.5778 76.345 56.7819 76.3878 56.9861C76.4306 57.1869 76.4339 57.3845 76.3977 57.5787Z" fill="#496673"/>
<path id="Vector_8" d="M57.1767 68.0386C57.2031 68.3612 57.2097 68.6839 57.1998 69.0065C57.1866 69.3259 57.157 69.6387 57.1076 69.9449C57.0582 70.2511 56.9924 70.5408 56.9068 70.8207C56.8212 71.0972 56.7191 71.3574 56.6006 71.5977C56.482 71.8381 56.3503 72.0554 56.2022 72.2496C56.0573 72.4406 55.8993 72.6085 55.7281 72.7468C55.5601 72.8851 55.3823 72.9937 55.198 73.0727C55.0136 73.1517 54.8226 73.2011 54.6284 73.2176C54.4341 73.2341 54.2399 73.2176 54.0423 73.1715C53.8481 73.1221 53.6538 73.0431 53.4628 72.9344C53.2752 72.8258 53.0908 72.6875 52.913 72.5229C52.7385 72.355 52.5706 72.164 52.4158 71.9467C52.2578 71.7294 52.1162 71.4891 51.9845 71.2289C51.8528 70.9688 51.7409 70.6923 51.6388 70.3992C51.54 70.1062 51.4577 69.8033 51.3952 69.4905C51.3293 69.1745 51.2832 68.8551 51.2569 68.5324C51.2306 68.2065 51.224 67.8871 51.2339 67.5644C51.247 67.2451 51.2767 66.9323 51.326 66.6261C51.3754 66.3199 51.4413 66.0269 51.5269 65.7503C51.6125 65.4704 51.7146 65.2136 51.8331 64.9733C51.9516 64.7329 52.0833 64.5156 52.2315 64.3214C52.3763 64.1271 52.5344 63.9625 52.7056 63.8242C52.8735 63.6859 53.0513 63.574 53.2357 63.495C53.4233 63.416 53.611 63.3699 53.8053 63.3534C53.9995 63.3369 54.1938 63.3534 54.3913 63.3995C54.5856 63.4489 54.7798 63.5246 54.9708 63.6333C55.1585 63.7419 55.3428 63.8802 55.5206 64.0481C55.6951 64.2127 55.863 64.407 56.0178 64.6243C56.1758 64.8416 56.3174 65.0786 56.4491 65.3387C56.5808 65.5988 56.6927 65.8787 56.7948 66.1684C56.8936 66.4615 56.9759 66.7677 57.0385 67.0805C57.1043 67.3965 57.1504 67.7159 57.1767 68.0386Z" fill="#496673"/>
<path id="Vector_9" d="M62.1479 83.882C62.3948 86.6049 61.1569 88.8306 59.672 89.0775C58.1871 89.3277 56.4552 85.6138 56.2083 84.3759C55.9614 81.6563 57.1993 79.4273 58.6842 79.1804C60.1691 78.9334 61.901 81.1591 62.1479 83.882Z" fill="#496673"/>
<path id="Vector_10" d="M67.3269 98.7309C67.3533 99.0536 67.3631 99.3763 67.35 99.6989C67.3401 100.018 67.3072 100.331 67.2578 100.637C67.2084 100.943 67.1425 101.233 67.0569 101.513C66.9713 101.79 66.8693 102.05 66.7507 102.29C66.6322 102.53 66.5005 102.748 66.3523 102.942C66.2075 103.136 66.0494 103.301 65.8815 103.439C65.7103 103.577 65.5325 103.686 65.3482 103.765C65.1638 103.844 64.9728 103.894 64.7786 103.91C64.5843 103.926 64.39 103.91 64.1925 103.864C63.9982 103.814 63.804 103.739 63.6163 103.627C63.4254 103.518 63.241 103.383 63.0665 103.215C62.8887 103.047 62.7241 102.856 62.566 102.639C62.4113 102.422 62.2664 102.181 62.1347 101.921C62.0063 101.661 61.8911 101.385 61.7923 101.092C61.6935 100.799 61.6112 100.496 61.5454 100.183C61.4828 99.8668 61.4367 99.5475 61.4104 99.2248C61.3807 98.9021 61.3742 98.5795 61.3873 98.2568C61.3972 97.9375 61.4268 97.6247 61.4762 97.3185C61.5256 97.0123 61.5948 96.7225 61.6804 96.4427C61.766 96.1661 61.868 95.906 61.9866 95.6657C62.1018 95.4253 62.2368 95.208 62.3816 95.0138C62.5298 94.8228 62.6878 94.6549 62.8558 94.5166C63.0237 94.3783 63.2015 94.2697 63.3891 94.1906C63.5735 94.1116 63.7645 94.0622 63.9587 94.0458C64.153 94.0293 64.3472 94.0458 64.5415 94.0919C64.739 94.1413 64.93 94.217 65.121 94.3289C65.3119 94.4376 65.493 94.5726 65.6708 94.7405C65.8486 94.9084 66.0132 95.0994 66.1713 95.3167C66.326 95.534 66.4709 95.7743 66.5993 96.0344C66.731 96.2945 66.8462 96.5711 66.945 96.8641C67.0438 97.1571 67.1261 97.4601 67.1886 97.7728C67.2545 98.0889 67.3006 98.4083 67.3269 98.7309Z" fill="#496673"/>
<path id="Vector_11" d="M106.922 85.8078C106.721 86.1996 106.497 86.5717 106.254 86.9306C106.007 87.2895 105.747 87.622 105.467 87.9348C105.187 88.2476 104.894 88.5307 104.591 88.7842C104.288 89.0377 103.979 89.2583 103.662 89.4427C103.346 89.6304 103.03 89.7785 102.714 89.8905C102.398 90.0024 102.089 90.0716 101.786 90.1045C101.483 90.1374 101.19 90.1308 100.91 90.0815C100.63 90.0321 100.367 89.9465 100.12 89.8181C99.8762 89.6929 99.6523 89.5283 99.4514 89.3275C99.2506 89.1299 99.0728 88.8962 98.9246 88.6295C98.7732 88.3628 98.6514 88.0698 98.5592 87.7471C98.467 87.4244 98.4044 87.082 98.3748 86.7166C98.3419 86.3511 98.3419 85.9725 98.3748 85.5774C98.4044 85.1823 98.4637 84.7806 98.5559 84.3723C98.6481 83.9641 98.7699 83.5558 98.918 83.1475C99.0695 82.7426 99.244 82.3442 99.4448 81.9524C99.6457 81.5639 99.8696 81.1885 100.113 80.8329C100.36 80.4741 100.62 80.1382 100.9 79.8287C101.18 79.516 101.473 79.2328 101.776 78.9793C102.079 78.7258 102.388 78.5052 102.704 78.3208C103.02 78.1331 103.337 77.985 103.653 77.873C103.969 77.7611 104.278 77.6886 104.581 77.659C104.884 77.6261 105.177 77.6327 105.457 77.6821C105.737 77.7282 106 77.8171 106.244 77.9422C106.491 78.0706 106.715 78.2319 106.915 78.4327C107.116 78.6336 107.294 78.8673 107.442 79.134C107.594 79.4007 107.715 79.6938 107.808 80.0164C107.9 80.3358 107.962 80.6815 107.992 81.047C108.025 81.4124 108.025 81.791 107.992 82.1861C107.962 82.5812 107.9 82.9829 107.811 83.3912C107.719 83.7994 107.597 84.2077 107.449 84.6127C107.297 85.0209 107.123 85.4193 106.922 85.8078Z" fill="#496673"/>
<path id="Vector_12" d="M91.8989 101.618C91.6981 102.01 91.4742 102.382 91.2272 102.741C90.9836 103.1 90.7202 103.432 90.4403 103.745C90.1605 104.058 89.8708 104.338 89.5678 104.594C89.2616 104.848 88.9522 105.065 88.6361 105.253C88.32 105.441 88.0072 105.589 87.6911 105.701C87.3751 105.809 87.0656 105.882 86.7594 105.915C86.4565 105.948 86.1634 105.938 85.8836 105.892C85.6037 105.842 85.3403 105.757 85.0967 105.628C84.8498 105.503 84.6259 105.339 84.425 105.138C84.2242 104.94 84.0497 104.706 83.8982 104.44C83.7501 104.173 83.6283 103.88 83.5361 103.557C83.4439 103.235 83.3813 102.892 83.3484 102.527C83.3188 102.161 83.3188 101.783 83.3484 101.388C83.378 100.993 83.4406 100.591 83.5328 100.183C83.625 99.7743 83.7435 99.3661 83.8949 98.9578C84.0431 98.5528 84.2176 98.1545 84.4184 97.7627C84.6193 97.3741 84.8432 96.9988 85.0901 96.6432C85.3337 96.2843 85.5971 95.9485 85.877 95.639C86.1569 95.3262 86.4466 95.0431 86.7495 94.7896C87.0557 94.536 87.3652 94.3155 87.6813 94.1278C87.9941 93.9434 88.3101 93.7952 88.6262 93.6833C88.9423 93.5714 89.2518 93.4989 89.558 93.466C89.8609 93.4364 90.1506 93.443 90.4338 93.4923C90.7136 93.5384 90.9737 93.6273 91.2207 93.7524C91.4676 93.8808 91.6882 94.0422 91.8923 94.243C92.0932 94.4439 92.2677 94.6776 92.4191 94.9443C92.5673 95.2077 92.6891 95.504 92.7813 95.8234C92.8735 96.1461 92.936 96.4918 92.969 96.8539C92.9986 97.2194 92.9986 97.6013 92.969 97.9964C92.9393 98.3882 92.8768 98.7899 92.7846 99.2015C92.6924 99.6097 92.5739 100.018 92.4224 100.423C92.2742 100.831 92.0997 101.23 91.8989 101.618Z" fill="#496673"/>
<path id="Vector_13" d="M153.955 7.42432C157.422 17.3214 159.647 29.6912 159.401 46.5189C159.401 47.7569 158.907 48.9916 158.163 49.9826C150.738 59.1389 143.067 67.3042 134.408 73.4907C133.17 74.4785 131.438 74.7254 129.953 74.4785C119.559 72.0058 109.164 67.7981 99.0202 62.1087C98.0292 61.6116 97.0414 60.6238 96.5443 59.3859C91.3488 47.2597 87.6349 34.643 85.4092 21.5259L153.955 7.42432Z" fill="#58C1AD"/>
<path id="Vector_14" d="M131.438 25.981C130.447 25.2401 117.827 21.5263 117.086 30.6826C119.559 32.1675 126.489 43.0556 128.468 54.6846V54.9315C126.983 46.0254 127.477 35.6311 131.438 25.981C131.685 25.981 131.685 25.981 131.438 25.981Z" fill="#2DB39B"/>
<path id="Vector_15" d="M119.065 0C133.17 1.73183 144.552 3.95753 153.955 7.42449L131.438 26.4746C126.489 30.6824 119.559 32.1673 113.125 30.1885L85.4092 21.2791C92.8337 14.1049 102.237 7.17426 115.848 0.493869C116.836 0 118.074 0 119.065 0Z" fill="#2DB39B"/>
<path id="Vector_16" d="M114.33 15.0994C114.294 14.9084 114.297 14.7109 114.34 14.5067C114.383 14.3059 114.465 14.1018 114.584 13.8943C114.705 13.6902 114.86 13.4861 115.051 13.2852C115.245 13.0844 115.469 12.8901 115.726 12.7025C115.983 12.5148 116.266 12.3337 116.579 12.1658C116.892 11.9979 117.224 11.8431 117.58 11.7016C117.935 11.5567 118.304 11.4316 118.689 11.3196C119.075 11.211 119.466 11.1155 119.865 11.0431C120.263 10.9673 120.661 10.9114 121.063 10.8752C121.462 10.8389 121.85 10.8225 122.232 10.8291C122.617 10.8323 122.983 10.8554 123.335 10.9015C123.687 10.9443 124.016 11.0101 124.326 11.0925C124.632 11.1748 124.912 11.2735 125.162 11.3921C125.416 11.5106 125.633 11.6423 125.821 11.7905C126.005 11.9386 126.157 12.0999 126.269 12.2744C126.38 12.4457 126.456 12.63 126.492 12.821C126.529 13.012 126.525 13.2095 126.483 13.4136C126.44 13.6145 126.357 13.8186 126.239 14.026C126.12 14.2302 125.962 14.4343 125.771 14.6351C125.58 14.836 125.357 15.0302 125.096 15.2179C124.84 15.4056 124.556 15.5867 124.244 15.7546C123.934 15.9225 123.598 16.0772 123.243 16.2221C122.887 16.3637 122.518 16.4888 122.133 16.6007C121.751 16.7127 121.356 16.8049 120.958 16.8773C120.559 16.953 120.161 17.009 119.763 17.0452C119.364 17.0814 118.972 17.0979 118.591 17.0913C118.209 17.088 117.84 17.065 117.488 17.0189C117.135 16.9761 116.806 16.9135 116.5 16.8312C116.19 16.7456 115.91 16.6468 115.66 16.5283C115.407 16.4098 115.189 16.2781 115.002 16.1299C114.817 15.9818 114.666 15.8204 114.554 15.6459C114.442 15.4747 114.366 15.2903 114.33 15.0994Z" fill="#E7EAED"/>
<path id="Vector_17" d="M97.5947 18.4114C97.5585 18.2204 97.5618 18.0229 97.6046 17.8187C97.6474 17.6179 97.7297 17.4138 97.8482 17.2063C97.9668 17.0022 98.1248 16.7981 98.3158 16.5972C98.5067 16.3964 98.7339 16.2021 98.9907 16.0145C99.2475 15.8268 99.5307 15.6457 99.8435 15.4778C100.156 15.3099 100.489 15.1551 100.844 15.0136C101.2 14.8687 101.569 14.7436 101.954 14.6316C102.339 14.523 102.731 14.4275 103.129 14.3551C103.528 14.2794 103.926 14.2234 104.325 14.1872C104.723 14.1509 105.115 14.1345 105.497 14.1411C105.879 14.1444 106.247 14.1674 106.6 14.2135C106.952 14.2563 107.281 14.3222 107.587 14.4045C107.897 14.4868 108.177 14.5856 108.427 14.7041C108.68 14.8226 108.898 14.9543 109.085 15.1025C109.27 15.2506 109.421 15.412 109.533 15.5865C109.645 15.7577 109.721 15.942 109.757 16.133C109.793 16.324 109.79 16.5215 109.747 16.7256C109.704 16.9265 109.622 17.1306 109.504 17.338C109.382 17.5422 109.227 17.7463 109.036 17.9471C108.845 18.148 108.618 18.3422 108.361 18.5299C108.104 18.7176 107.821 18.8987 107.508 19.0666C107.196 19.2345 106.863 19.3892 106.507 19.5341C106.152 19.6757 105.783 19.8008 105.398 19.9127C105.013 20.0247 104.621 20.1169 104.222 20.1893C103.824 20.265 103.426 20.321 103.027 20.3572C102.626 20.3934 102.237 20.4099 101.855 20.4033C101.47 20.4 101.104 20.377 100.752 20.3309C100.4 20.2881 100.071 20.2255 99.7612 20.1399C99.455 20.0576 99.1751 19.9588 98.9249 19.8403C98.6714 19.7218 98.4541 19.5901 98.2664 19.4419C98.082 19.2938 97.9306 19.1324 97.8186 18.9579C97.7067 18.7867 97.6309 18.6023 97.5947 18.4114Z" fill="#E7EAED"/>
<path id="Vector_18" d="M131.135 12.5012C131.099 12.3103 131.102 12.1127 131.145 11.9119C131.187 11.7077 131.266 11.5036 131.388 11.2995C131.507 11.0921 131.662 10.8879 131.856 10.6871C132.047 10.4862 132.271 10.292 132.527 10.1043C132.784 9.91665 133.071 9.73886 133.38 9.56765C133.693 9.39973 134.026 9.24499 134.381 9.10341C134.737 8.95855 135.105 8.83343 135.491 8.72149C135.876 8.61284 136.268 8.51736 136.666 8.44492C137.068 8.3692 137.466 8.31322 137.865 8.27701C138.263 8.24079 138.655 8.22433 139.037 8.23091C139.419 8.23421 139.787 8.25725 140.136 8.30335C140.489 8.34615 140.821 8.412 141.127 8.49431C141.434 8.57662 141.713 8.67539 141.967 8.79392C142.217 8.91245 142.438 9.04415 142.622 9.19231C142.81 9.34047 142.958 9.5018 143.07 9.6763C143.185 9.8508 143.258 10.0319 143.294 10.2228C143.33 10.4138 143.327 10.6114 143.284 10.8155C143.241 11.0163 143.162 11.2205 143.04 11.4279C142.922 11.632 142.767 11.8362 142.573 12.037C142.382 12.2378 142.158 12.4321 141.901 12.6198C141.644 12.8074 141.358 12.9885 141.048 13.1564C140.736 13.3243 140.403 13.4791 140.047 13.624C139.692 13.7655 139.32 13.8906 138.938 14.0026C138.553 14.1145 138.161 14.2067 137.762 14.2824C137.361 14.3549 136.962 14.4109 136.564 14.4471C136.166 14.4833 135.774 14.4997 135.392 14.4932C135.01 14.4899 134.641 14.4668 134.289 14.4207C133.94 14.3779 133.607 14.3154 133.301 14.2331C132.995 14.1475 132.715 14.0487 132.462 13.9302C132.211 13.8116 131.991 13.6799 131.806 13.5318C131.619 13.3836 131.471 13.2223 131.355 13.0478C131.243 12.8766 131.168 12.6922 131.135 12.5012Z" fill="#E7EAED"/>
<path id="Vector_19" d="M144.723 25.9082C144.749 25.5855 144.795 25.2662 144.858 24.9501C144.924 24.6373 145.006 24.3311 145.105 24.0381C145.203 23.745 145.319 23.4685 145.45 23.2084C145.579 22.9483 145.724 22.7112 145.878 22.4939C146.036 22.2766 146.201 22.0824 146.379 21.9177C146.557 21.7498 146.738 21.6115 146.929 21.5029C147.12 21.3942 147.311 21.3152 147.508 21.2691C147.702 21.223 147.897 21.2066 148.091 21.223C148.285 21.2395 148.476 21.2856 148.66 21.3646C148.848 21.4436 149.023 21.5523 149.194 21.6938C149.362 21.8321 149.52 21.9967 149.668 22.191C149.813 22.3853 149.945 22.6026 150.063 22.8429C150.182 23.0833 150.284 23.3401 150.369 23.6199C150.455 23.8965 150.524 24.1895 150.573 24.4957C150.623 24.8019 150.652 25.1147 150.662 25.4341C150.675 25.7534 150.666 26.0761 150.639 26.4021C150.613 26.7247 150.567 27.0441 150.504 27.3569C150.438 27.6729 150.356 27.9759 150.257 28.2689C150.159 28.5619 150.043 28.8385 149.912 29.0986C149.783 29.3587 149.638 29.599 149.484 29.8163C149.326 30.0336 149.161 30.2246 148.983 30.3925C148.805 30.5571 148.624 30.6954 148.433 30.8041C148.242 30.9127 148.051 30.9917 147.854 31.0378C147.66 31.0872 147.465 31.1004 147.271 31.0872C147.077 31.0708 146.886 31.0214 146.701 30.9424C146.514 30.8633 146.339 30.7547 146.168 30.6164C146 30.4781 145.842 30.3102 145.694 30.1192C145.549 29.925 145.417 29.7077 145.299 29.4673C145.18 29.227 145.078 28.9669 144.993 28.6903C144.907 28.4105 144.838 28.1207 144.789 27.8145C144.739 27.5083 144.71 27.1955 144.7 26.8762C144.686 26.5535 144.696 26.2308 144.723 25.9082Z" fill="#E7EAED"/>
<path id="Vector_20" d="M133.611 36.7207C133.641 36.398 133.687 36.0787 133.749 35.7626C133.815 35.4498 133.894 35.1436 133.996 34.8506C134.095 34.5575 134.21 34.281 134.339 34.0209C134.47 33.7608 134.612 33.5237 134.77 33.3064C134.928 33.0891 135.093 32.8949 135.27 32.7302C135.445 32.5623 135.629 32.424 135.82 32.3154C136.008 32.2067 136.202 32.131 136.396 32.0816C136.594 32.0355 136.788 32.0191 136.982 32.0355C137.177 32.052 137.368 32.0981 137.552 32.1771C137.736 32.2561 137.914 32.3648 138.085 32.5063C138.253 32.6446 138.411 32.8092 138.556 33.0035C138.704 33.1978 138.836 33.4151 138.955 33.6554C139.073 33.8958 139.175 34.1526 139.261 34.4324C139.346 34.709 139.412 35.002 139.462 35.3082C139.511 35.6144 139.544 35.9272 139.554 36.2466C139.567 36.5659 139.557 36.8886 139.531 37.2146C139.504 37.5372 139.458 37.8566 139.392 38.1694C139.33 38.4854 139.248 38.7883 139.149 39.0814C139.05 39.3744 138.935 39.651 138.803 39.9111C138.675 40.1712 138.53 40.4115 138.372 40.6288C138.217 40.8461 138.049 41.0371 137.875 41.205C137.697 41.3696 137.516 41.5079 137.325 41.6166C137.134 41.7252 136.943 41.8042 136.745 41.8503C136.551 41.8997 136.354 41.9162 136.159 41.8997C135.965 41.8833 135.777 41.8339 135.59 41.7549C135.405 41.6758 135.227 41.5672 135.06 41.4289C134.892 41.2906 134.734 41.1227 134.585 40.9317C134.441 40.7375 134.306 40.5202 134.187 40.2798C134.072 40.0395 133.97 39.7794 133.884 39.5028C133.799 39.223 133.729 38.9332 133.68 38.627C133.631 38.3208 133.601 38.008 133.588 37.6887C133.578 37.366 133.585 37.0433 133.611 36.7207Z" fill="#E7EAED"/>
<path id="Vector_21" d="M149.773 43.747C149.8 43.4243 149.846 43.105 149.912 42.7922C149.974 42.4761 150.057 42.1732 150.155 41.8802C150.254 41.5872 150.369 41.3106 150.501 41.0505C150.63 40.7904 150.774 40.55 150.929 40.3327C151.087 40.1154 151.255 39.9245 151.43 39.7565C151.607 39.5919 151.788 39.4536 151.979 39.345C152.17 39.2363 152.361 39.1573 152.559 39.1112C152.753 39.0618 152.951 39.0454 153.145 39.0618C153.339 39.0783 153.527 39.1277 153.711 39.2067C153.899 39.2857 154.077 39.3944 154.245 39.5327C154.413 39.6709 154.571 39.8389 154.719 40.0298C154.864 40.2241 154.999 40.4414 155.114 40.6817C155.232 40.9221 155.334 41.1822 155.42 41.4587C155.506 41.7386 155.575 42.0283 155.624 42.3345C155.674 42.6407 155.703 42.9535 155.716 43.2729C155.726 43.5955 155.72 43.9182 155.69 44.2409C155.664 44.5635 155.618 44.8829 155.555 45.199C155.489 45.5118 155.407 45.818 155.308 46.111C155.209 46.404 155.094 46.6806 154.966 46.9407C154.834 47.2008 154.689 47.4378 154.534 47.6551C154.376 47.8724 154.212 48.0667 154.034 48.2313C153.859 48.3992 153.675 48.5375 153.484 48.6462C153.296 48.7548 153.102 48.8306 152.908 48.8799C152.71 48.926 152.516 48.9425 152.322 48.926C152.128 48.9096 151.937 48.8635 151.752 48.7845C151.568 48.7054 151.39 48.5968 151.219 48.4552C151.051 48.3169 150.893 48.1523 150.748 47.9581C150.6 47.7638 150.468 47.5465 150.35 47.3061C150.231 47.0658 150.129 46.809 150.043 46.5291C149.958 46.2526 149.892 45.9595 149.843 45.6533C149.793 45.3471 149.76 45.0344 149.75 44.715C149.737 44.3956 149.747 44.073 149.773 43.747Z" fill="#E7EAED"/>
<path id="Vector_22" d="M137.812 51.5498C137.842 51.2271 137.885 50.9078 137.95 50.5917C138.016 50.2789 138.095 49.976 138.197 49.683C138.296 49.3899 138.411 49.1134 138.54 48.8533C138.671 48.5932 138.813 48.3528 138.971 48.1355C139.126 47.9182 139.294 47.7272 139.471 47.5593C139.646 47.3947 139.83 47.2564 140.018 47.1478C140.209 47.0391 140.403 46.9601 140.597 46.9107C140.795 46.8646 140.989 46.8482 141.184 46.8646C141.378 46.8811 141.569 46.9305 141.753 47.0095C141.938 47.0885 142.115 47.1972 142.283 47.3354C142.454 47.4737 142.612 47.6416 142.757 47.8326C142.906 48.0269 143.037 48.2442 143.156 48.4845C143.274 48.7249 143.376 48.985 143.462 49.2615C143.548 49.5414 143.613 49.8311 143.663 50.1373C143.712 50.4435 143.742 50.7563 143.755 51.0757C143.765 51.3983 143.758 51.721 143.732 52.0437C143.706 52.3663 143.659 52.6857 143.594 53.0018C143.531 53.3145 143.449 53.6207 143.35 53.9138C143.251 54.2068 143.136 54.4834 143.004 54.7435C142.873 55.0036 142.731 55.2406 142.573 55.4579C142.418 55.6752 142.25 55.8695 142.076 56.0341C141.898 56.202 141.714 56.3403 141.526 56.449C141.335 56.5576 141.141 56.6333 140.946 56.6827C140.752 56.7288 140.555 56.7453 140.36 56.7288C140.166 56.7124 139.979 56.6663 139.791 56.5872C139.606 56.5082 139.429 56.3963 139.261 56.258C139.09 56.1197 138.935 55.9551 138.787 55.7608C138.638 55.5666 138.507 55.3493 138.388 55.1089C138.27 54.8686 138.168 54.6118 138.082 54.3319C137.996 54.0553 137.931 53.7623 137.881 53.4561C137.832 53.1499 137.802 52.8371 137.789 52.5178C137.779 52.1951 137.786 51.8757 137.812 51.5498Z" fill="#E7EAED"/>
<path id="Vector_23" d="M103.623 52.643C103.37 52.1491 103.149 51.6486 102.965 51.135C102.777 50.6214 102.629 50.1078 102.517 49.5909C102.405 49.0739 102.329 48.5669 102.296 48.0664C102.263 47.566 102.27 47.0853 102.313 46.6244C102.359 46.1601 102.444 45.7255 102.569 45.314C102.691 44.9057 102.853 44.5336 103.047 44.1945C103.244 43.8554 103.475 43.5558 103.735 43.299C103.998 43.0422 104.288 42.8314 104.608 42.6701C104.924 42.5055 105.263 42.3903 105.625 42.3277C105.984 42.2618 106.362 42.2487 106.751 42.2849C107.143 42.3211 107.541 42.4067 107.943 42.5417C108.348 42.68 108.753 42.8644 109.158 43.0948C109.559 43.3253 109.958 43.6019 110.343 43.918C110.731 44.234 111.1 44.5896 111.456 44.9814C111.811 45.3699 112.144 45.7914 112.457 46.2424C112.766 46.6902 113.049 47.161 113.3 47.6516C113.553 48.1422 113.774 48.6459 113.961 49.1595C114.146 49.6732 114.297 50.1868 114.409 50.7037C114.521 51.2206 114.594 51.7277 114.626 52.2281C114.663 52.7253 114.656 53.206 114.61 53.6702C114.564 54.1344 114.482 54.5691 114.356 54.9773C114.235 55.3856 114.073 55.7609 113.876 56.1C113.678 56.4392 113.451 56.7388 113.188 56.9923C112.924 57.2491 112.635 57.4598 112.318 57.6244C111.999 57.7891 111.66 57.901 111.301 57.9669C110.939 58.0327 110.564 58.0459 110.172 58.0097C109.783 57.9734 109.385 57.8878 108.98 57.7496C108.575 57.6146 108.17 57.4302 107.768 57.1964C107.363 56.966 106.968 56.6927 106.58 56.3766C106.194 56.0572 105.822 55.7049 105.467 55.3131C105.111 54.9213 104.779 54.5032 104.469 54.0521C104.16 53.6011 103.877 53.1335 103.623 52.643Z" fill="#E7EAED"/>
</g>
<defs>
<clipPath id="clip0_1975_3457">
<rect width="204" height="119.477" fill="white"/>
</clipPath>
</defs>
</svg>
