<svg width="79" height="21" viewBox="0 0 79 21" fill="none" xmlns="http://www.w3.org/2000/svg">
<g filter="url(#filter0_d_356_127)">
<path d="M2 4C2 2.89543 2.89543 2 4 2H75C76.1046 2 77 2.89543 77 4V15.4545C77 16.5591 76.1046 17.4545 75 17.4545H3.42512C3.35163 17.4545 3.28187 17.4869 3.23437 17.5429L2.26445 18.6878C2.17416 18.7944 2 18.7306 2 18.5909V4Z" fill="#FF516E" fill-opacity="0.03" shape-rendering="crispEdges"/>
<path d="M2.25 4C2.25 3.0335 3.0335 2.25 4 2.25H75C75.9665 2.25 76.75 3.0335 76.75 4V15.4545C76.75 16.421 75.9665 17.2045 75 17.2045H3.42512C3.27815 17.2045 3.13862 17.2692 3.04362 17.3813L2.25 18.3181V4ZM2.0737 18.5262C2.07374 18.5262 2.07378 18.5261 2.07382 18.5261L2.0737 18.5262Z" stroke="#4D0000" stroke-width="0.5" shape-rendering="crispEdges"/>
</g>
<path d="M8.12888 6.204V6.436H6.89688V7.48H7.93688V7.712H6.89688V9H6.61688V6.204H8.12888ZM9.54553 9.032C9.3402 9.032 9.15486 8.98667 8.98953 8.896C8.82686 8.80267 8.69753 8.672 8.60153 8.504C8.5082 8.33333 8.46153 8.13467 8.46153 7.908C8.46153 7.68133 8.50953 7.484 8.60553 7.316C8.70153 7.14533 8.8322 7.01467 8.99753 6.924C9.16286 6.83067 9.3482 6.784 9.55353 6.784C9.75886 6.784 9.9442 6.83067 10.1095 6.924C10.2775 7.01467 10.4082 7.14533 10.5015 7.316C10.5975 7.484 10.6455 7.68133 10.6455 7.908C10.6455 8.132 10.5975 8.32933 10.5015 8.5C10.4055 8.67067 10.2735 8.80267 10.1055 8.896C9.93753 8.98667 9.75086 9.032 9.54553 9.032ZM9.54553 8.788C9.68953 8.788 9.82286 8.756 9.94553 8.692C10.0682 8.62533 10.1669 8.52667 10.2415 8.396C10.3189 8.26267 10.3575 8.1 10.3575 7.908C10.3575 7.716 10.3202 7.55467 10.2455 7.424C10.1709 7.29067 10.0722 7.192 9.94953 7.128C9.82686 7.06133 9.69353 7.028 9.54953 7.028C9.40553 7.028 9.2722 7.06133 9.14953 7.128C9.02686 7.192 8.9282 7.29067 8.85353 7.424C8.78153 7.55467 8.74553 7.716 8.74553 7.908C8.74553 8.1 8.78153 8.26267 8.85353 8.396C8.9282 8.52667 9.02553 8.62533 9.14553 8.692C9.2682 8.756 9.40153 8.788 9.54553 8.788ZM11.4359 7.204C11.4973 7.068 11.5906 6.96267 11.7159 6.888C11.8439 6.81333 11.9999 6.776 12.1839 6.776V7.068H12.1079C11.9053 7.068 11.7426 7.12267 11.6199 7.232C11.4973 7.34133 11.4359 7.524 11.4359 7.78V9H11.1559V6.816H11.4359V7.204ZM14.4788 8.728L15.2148 6.816H15.5108L14.6348 9H14.3188L13.4428 6.816H13.7428L14.4788 8.728ZM16.0303 6.404C15.9743 6.404 15.9263 6.384 15.8863 6.344C15.8463 6.304 15.8263 6.25467 15.8263 6.196C15.8263 6.13733 15.8463 6.08933 15.8863 6.052C15.9263 6.012 15.9743 5.992 16.0303 5.992C16.0863 5.992 16.1343 6.012 16.1743 6.052C16.2143 6.08933 16.2343 6.13733 16.2343 6.196C16.2343 6.25467 16.2143 6.304 16.1743 6.344C16.1343 6.384 16.0863 6.404 16.0303 6.404ZM16.1703 6.816V9H15.8903V6.816H16.1703ZM16.6764 7.904C16.6764 7.68 16.7217 7.484 16.8124 7.316C16.903 7.14533 17.027 7.01467 17.1844 6.924C17.3444 6.83067 17.5244 6.784 17.7244 6.784C17.9164 6.784 18.0897 6.83067 18.2444 6.924C18.399 7.01733 18.5124 7.13867 18.5844 7.288V6.04H18.8644V9H18.5844V8.512C18.5177 8.664 18.4084 8.78933 18.2564 8.888C18.1044 8.984 17.9257 9.032 17.7204 9.032C17.5204 9.032 17.3404 8.98533 17.1804 8.892C17.023 8.79867 16.899 8.66667 16.8084 8.496C16.7204 8.32533 16.6764 8.128 16.6764 7.904ZM18.5844 7.908C18.5844 7.732 18.5484 7.57733 18.4764 7.444C18.4044 7.31067 18.3057 7.208 18.1804 7.136C18.0577 7.064 17.9217 7.028 17.7724 7.028C17.6177 7.028 17.479 7.06267 17.3564 7.132C17.2337 7.20133 17.1364 7.30267 17.0644 7.436C16.995 7.56667 16.9604 7.72267 16.9604 7.904C16.9604 8.08267 16.995 8.24 17.0644 8.376C17.1364 8.50933 17.2337 8.612 17.3564 8.684C17.479 8.75333 17.6177 8.788 17.7724 8.788C17.9217 8.788 18.0577 8.752 18.1804 8.68C18.3057 8.608 18.4044 8.50533 18.4764 8.372C18.5484 8.23867 18.5844 8.084 18.5844 7.908ZM21.4796 7.796C21.4796 7.892 21.4769 7.96533 21.4716 8.016H19.6596C19.6676 8.18133 19.7076 8.32267 19.7796 8.44C19.8516 8.55733 19.9463 8.64667 20.0636 8.708C20.1809 8.76667 20.3089 8.796 20.4476 8.796C20.6289 8.796 20.7809 8.752 20.9036 8.664C21.0289 8.576 21.1116 8.45733 21.1516 8.308H21.4476C21.3943 8.52133 21.2796 8.696 21.1036 8.832C20.9303 8.96533 20.7116 9.032 20.4476 9.032C20.2423 9.032 20.0583 8.98667 19.8956 8.896C19.7329 8.80267 19.6049 8.672 19.5116 8.504C19.4209 8.33333 19.3756 8.13467 19.3756 7.908C19.3756 7.68133 19.4209 7.48267 19.5116 7.312C19.6023 7.14133 19.7289 7.01067 19.8916 6.92C20.0543 6.82933 20.2396 6.784 20.4476 6.784C20.6556 6.784 20.8369 6.82933 20.9916 6.92C21.1489 7.01067 21.2689 7.13333 21.3516 7.288C21.4369 7.44 21.4796 7.60933 21.4796 7.796ZM21.1956 7.788C21.1983 7.62533 21.1649 7.48667 21.0956 7.372C21.0289 7.25733 20.9369 7.17067 20.8196 7.112C20.7023 7.05333 20.5743 7.024 20.4356 7.024C20.2276 7.024 20.0503 7.09067 19.9036 7.224C19.7569 7.35733 19.6756 7.54533 19.6596 7.788H21.1956ZM22.9479 9.032C22.7425 9.032 22.5572 8.98667 22.3919 8.896C22.2292 8.80267 22.0999 8.672 22.0039 8.504C21.9105 8.33333 21.8639 8.13467 21.8639 7.908C21.8639 7.68133 21.9119 7.484 22.0079 7.316C22.1039 7.14533 22.2345 7.01467 22.3999 6.924C22.5652 6.83067 22.7505 6.784 22.9559 6.784C23.1612 6.784 23.3465 6.83067 23.5119 6.924C23.6799 7.01467 23.8105 7.14533 23.9039 7.316C23.9999 7.484 24.0479 7.68133 24.0479 7.908C24.0479 8.132 23.9999 8.32933 23.9039 8.5C23.8079 8.67067 23.6759 8.80267 23.5079 8.896C23.3399 8.98667 23.1532 9.032 22.9479 9.032ZM22.9479 8.788C23.0919 8.788 23.2252 8.756 23.3479 8.692C23.4705 8.62533 23.5692 8.52667 23.6439 8.396C23.7212 8.26267 23.7599 8.1 23.7599 7.908C23.7599 7.716 23.7225 7.55467 23.6479 7.424C23.5732 7.29067 23.4745 7.192 23.3519 7.128C23.2292 7.06133 23.0959 7.028 22.9519 7.028C22.8079 7.028 22.6745 7.06133 22.5519 7.128C22.4292 7.192 22.3305 7.29067 22.2559 7.424C22.1839 7.55467 22.1479 7.716 22.1479 7.908C22.1479 8.1 22.1839 8.26267 22.2559 8.396C22.3305 8.52667 22.4279 8.62533 22.5479 8.692C22.6705 8.756 22.8039 8.788 22.9479 8.788ZM25.5279 7.908C25.5279 7.68133 25.5733 7.484 25.6639 7.316C25.7546 7.14533 25.8799 7.01467 26.0399 6.924C26.1999 6.83067 26.3826 6.784 26.5879 6.784C26.8573 6.784 27.0786 6.85067 27.2519 6.984C27.4279 7.11733 27.5413 7.29867 27.5919 7.528H27.2919C27.2546 7.37067 27.1733 7.248 27.0479 7.16C26.9253 7.06933 26.7719 7.024 26.5879 7.024C26.4413 7.024 26.3093 7.05733 26.1919 7.124C26.0746 7.19067 25.9813 7.29067 25.9119 7.424C25.8453 7.55467 25.8119 7.716 25.8119 7.908C25.8119 8.1 25.8453 8.26267 25.9119 8.396C25.9813 8.52933 26.0746 8.62933 26.1919 8.696C26.3093 8.76267 26.4413 8.796 26.5879 8.796C26.7719 8.796 26.9253 8.752 27.0479 8.664C27.1733 8.57333 27.2546 8.448 27.2919 8.288H27.5919C27.5413 8.512 27.4279 8.692 27.2519 8.828C27.0759 8.964 26.8546 9.032 26.5879 9.032C26.3826 9.032 26.1999 8.98667 26.0399 8.896C25.8799 8.80267 25.7546 8.672 25.6639 8.504C25.5733 8.33333 25.5279 8.13467 25.5279 7.908ZM29.0651 9.032C28.8597 9.032 28.6744 8.98667 28.5091 8.896C28.3464 8.80267 28.2171 8.672 28.1211 8.504C28.0277 8.33333 27.9811 8.13467 27.9811 7.908C27.9811 7.68133 28.0291 7.484 28.1251 7.316C28.2211 7.14533 28.3517 7.01467 28.5171 6.924C28.6824 6.83067 28.8677 6.784 29.0731 6.784C29.2784 6.784 29.4637 6.83067 29.6291 6.924C29.7971 7.01467 29.9277 7.14533 30.0211 7.316C30.1171 7.484 30.1651 7.68133 30.1651 7.908C30.1651 8.132 30.1171 8.32933 30.0211 8.5C29.9251 8.67067 29.7931 8.80267 29.6251 8.896C29.4571 8.98667 29.2704 9.032 29.0651 9.032ZM29.0651 8.788C29.2091 8.788 29.3424 8.756 29.4651 8.692C29.5877 8.62533 29.6864 8.52667 29.7611 8.396C29.8384 8.26267 29.8771 8.1 29.8771 7.908C29.8771 7.716 29.8397 7.55467 29.7651 7.424C29.6904 7.29067 29.5917 7.192 29.4691 7.128C29.3464 7.06133 29.2131 7.028 29.0691 7.028C28.9251 7.028 28.7917 7.06133 28.6691 7.128C28.5464 7.192 28.4477 7.29067 28.3731 7.424C28.3011 7.55467 28.2651 7.716 28.2651 7.908C28.2651 8.1 28.3011 8.26267 28.3731 8.396C28.4477 8.52667 28.5451 8.62533 28.6651 8.692C28.7877 8.756 28.9211 8.788 29.0651 8.788ZM32.5675 6.816V9H32.2875V8.616C32.2235 8.752 32.1248 8.856 31.9915 8.928C31.8581 9 31.7088 9.036 31.5435 9.036C31.2821 9.036 31.0688 8.956 30.9035 8.796C30.7381 8.63333 30.6555 8.39867 30.6555 8.092V6.816H30.9315V8.06C30.9315 8.29733 30.9901 8.47867 31.1075 8.604C31.2275 8.72933 31.3901 8.792 31.5955 8.792C31.8061 8.792 31.9741 8.72533 32.0995 8.592C32.2248 8.45867 32.2875 8.26267 32.2875 8.004V6.816H32.5675ZM34.2307 6.776C34.4921 6.776 34.7054 6.85733 34.8707 7.02C35.0361 7.18 35.1187 7.41333 35.1187 7.72V9H34.8427V7.752C34.8427 7.51467 34.7827 7.33333 34.6627 7.208C34.5454 7.08267 34.3841 7.02 34.1787 7.02C33.9681 7.02 33.8001 7.08667 33.6747 7.22C33.5494 7.35333 33.4867 7.54933 33.4867 7.808V9H33.2067V6.816H33.4867V7.188C33.5561 7.05467 33.6561 6.95333 33.7867 6.884C33.9174 6.812 34.0654 6.776 34.2307 6.776ZM36.49 9.032C36.2393 9.032 36.034 8.97467 35.874 8.86C35.7166 8.74267 35.6286 8.584 35.61 8.384H35.898C35.9113 8.50667 35.9686 8.60667 36.07 8.684C36.174 8.75867 36.3126 8.796 36.486 8.796C36.638 8.796 36.7566 8.76 36.842 8.688C36.93 8.616 36.974 8.52667 36.974 8.42C36.974 8.34533 36.95 8.284 36.902 8.236C36.854 8.188 36.7926 8.15067 36.718 8.124C36.646 8.09467 36.5473 8.064 36.422 8.032C36.2593 7.98933 36.1273 7.94667 36.026 7.904C35.9246 7.86133 35.838 7.79867 35.766 7.716C35.6966 7.63067 35.662 7.51733 35.662 7.376C35.662 7.26933 35.694 7.17067 35.758 7.08C35.822 6.98933 35.9126 6.91733 36.03 6.864C36.1473 6.81067 36.2806 6.784 36.43 6.784C36.6646 6.784 36.854 6.844 36.998 6.964C37.142 7.08133 37.2193 7.244 37.23 7.452H36.95C36.942 7.324 36.8913 7.22133 36.798 7.144C36.7073 7.064 36.582 7.024 36.422 7.024C36.2806 7.024 36.166 7.05733 36.078 7.124C35.99 7.19067 35.946 7.27333 35.946 7.372C35.946 7.45733 35.9713 7.528 36.022 7.584C36.0753 7.63733 36.1406 7.68 36.218 7.712C36.2953 7.74133 36.3993 7.77467 36.53 7.812C36.6873 7.85467 36.8126 7.896 36.906 7.936C36.9993 7.976 37.0793 8.03467 37.146 8.112C37.2126 8.18933 37.2473 8.292 37.25 8.42C37.25 8.53733 37.218 8.64267 37.154 8.736C37.09 8.82667 37.0006 8.89867 36.886 8.952C36.7713 9.00533 36.6393 9.032 36.49 9.032ZM39.753 7.796C39.753 7.892 39.7504 7.96533 39.745 8.016H37.933C37.941 8.18133 37.981 8.32267 38.053 8.44C38.125 8.55733 38.2197 8.64667 38.337 8.708C38.4544 8.76667 38.5824 8.796 38.721 8.796C38.9024 8.796 39.0544 8.752 39.177 8.664C39.3024 8.576 39.385 8.45733 39.425 8.308H39.721C39.6677 8.52133 39.553 8.696 39.377 8.832C39.2037 8.96533 38.985 9.032 38.721 9.032C38.5157 9.032 38.3317 8.98667 38.169 8.896C38.0064 8.80267 37.8784 8.672 37.785 8.504C37.6944 8.33333 37.649 8.13467 37.649 7.908C37.649 7.68133 37.6944 7.48267 37.785 7.312C37.8757 7.14133 38.0024 7.01067 38.165 6.92C38.3277 6.82933 38.513 6.784 38.721 6.784C38.929 6.784 39.1104 6.82933 39.265 6.92C39.4224 7.01067 39.5424 7.13333 39.625 7.288C39.7104 7.44 39.753 7.60933 39.753 7.796ZM39.469 7.788C39.4717 7.62533 39.4384 7.48667 39.369 7.372C39.3024 7.25733 39.2104 7.17067 39.093 7.112C38.9757 7.05333 38.8477 7.024 38.709 7.024C38.501 7.024 38.3237 7.09067 38.177 7.224C38.0304 7.35733 37.949 7.54533 37.933 7.788H39.469ZM40.5453 6.04V9H40.2653V6.04H40.5453ZM41.3194 6.404C41.2634 6.404 41.2154 6.384 41.1754 6.344C41.1354 6.304 41.1154 6.25467 41.1154 6.196C41.1154 6.13733 41.1354 6.08933 41.1754 6.052C41.2154 6.012 41.2634 5.992 41.3194 5.992C41.3754 5.992 41.4234 6.012 41.4634 6.052C41.5034 6.08933 41.5234 6.13733 41.5234 6.196C41.5234 6.25467 41.5034 6.304 41.4634 6.344C41.4234 6.384 41.3754 6.404 41.3194 6.404ZM41.4594 6.816V9H41.1794V6.816H41.4594ZM43.1174 6.776C43.3788 6.776 43.5921 6.85733 43.7574 7.02C43.9228 7.18 44.0054 7.41333 44.0054 7.72V9H43.7294V7.752C43.7294 7.51467 43.6694 7.33333 43.5494 7.208C43.4321 7.08267 43.2708 7.02 43.0654 7.02C42.8548 7.02 42.6868 7.08667 42.5614 7.22C42.4361 7.35333 42.3734 7.54933 42.3734 7.808V9H42.0934V6.816H42.3734V7.188C42.4428 7.05467 42.5428 6.95333 42.6734 6.884C42.8041 6.812 42.9521 6.776 43.1174 6.776ZM45.5407 6.784C45.746 6.784 45.9247 6.832 46.0767 6.928C46.2287 7.024 46.338 7.14533 46.4047 7.292V6.816H46.6847V9.056C46.6847 9.256 46.6407 9.43333 46.5527 9.588C46.4674 9.74267 46.3474 9.86133 46.1927 9.944C46.038 10.0293 45.862 10.072 45.6647 10.072C45.3847 10.072 45.1514 10.0053 44.9647 9.872C44.7807 9.73867 44.666 9.55733 44.6207 9.328H44.8967C44.9447 9.48 45.0354 9.60133 45.1687 9.692C45.3047 9.78267 45.47 9.828 45.6647 9.828C45.806 9.828 45.9327 9.79733 46.0447 9.736C46.1567 9.67733 46.2447 9.58933 46.3087 9.472C46.3727 9.35467 46.4047 9.216 46.4047 9.056V8.516C46.3354 8.66533 46.2247 8.78933 46.0727 8.888C45.9234 8.984 45.746 9.032 45.5407 9.032C45.3407 9.032 45.1607 8.98533 45.0007 8.892C44.8434 8.79867 44.7194 8.66667 44.6287 8.496C44.5407 8.32533 44.4967 8.128 44.4967 7.904C44.4967 7.68 44.5407 7.484 44.6287 7.316C44.7194 7.14533 44.8434 7.01467 45.0007 6.924C45.1607 6.83067 45.3407 6.784 45.5407 6.784ZM46.4047 7.908C46.4047 7.732 46.3687 7.57733 46.2967 7.444C46.2247 7.31067 46.126 7.208 46.0007 7.136C45.878 7.064 45.742 7.028 45.5927 7.028C45.438 7.028 45.2994 7.06267 45.1767 7.132C45.054 7.20133 44.9567 7.30267 44.8847 7.436C44.8154 7.56667 44.7807 7.72267 44.7807 7.904C44.7807 8.08267 44.8154 8.24 44.8847 8.376C44.9567 8.50933 45.054 8.612 45.1767 8.684C45.2994 8.75333 45.438 8.788 45.5927 8.788C45.742 8.788 45.878 8.752 46.0007 8.68C46.126 8.608 46.2247 8.50533 46.2967 8.372C46.3687 8.23867 46.4047 8.084 46.4047 7.908ZM50.3136 6.816V9H50.0336V8.616C49.9696 8.752 49.8709 8.856 49.7376 8.928C49.6042 9 49.4549 9.036 49.2896 9.036C49.0282 9.036 48.8149 8.956 48.6496 8.796C48.4842 8.63333 48.4016 8.39867 48.4016 8.092V6.816H48.6776V8.06C48.6776 8.29733 48.7362 8.47867 48.8536 8.604C48.9736 8.72933 49.1362 8.792 49.3416 8.792C49.5522 8.792 49.7202 8.72533 49.8456 8.592C49.9709 8.45867 50.0336 8.26267 50.0336 8.004V6.816H50.3136ZM51.7048 9.032C51.4541 9.032 51.2488 8.97467 51.0888 8.86C50.9315 8.74267 50.8435 8.584 50.8248 8.384H51.1128C51.1261 8.50667 51.1835 8.60667 51.2848 8.684C51.3888 8.75867 51.5275 8.796 51.7008 8.796C51.8528 8.796 51.9715 8.76 52.0568 8.688C52.1448 8.616 52.1888 8.52667 52.1888 8.42C52.1888 8.34533 52.1648 8.284 52.1168 8.236C52.0688 8.188 52.0075 8.15067 51.9328 8.124C51.8608 8.09467 51.7621 8.064 51.6368 8.032C51.4741 7.98933 51.3421 7.94667 51.2408 7.904C51.1395 7.86133 51.0528 7.79867 50.9808 7.716C50.9115 7.63067 50.8768 7.51733 50.8768 7.376C50.8768 7.26933 50.9088 7.17067 50.9728 7.08C51.0368 6.98933 51.1275 6.91733 51.2448 6.864C51.3621 6.81067 51.4955 6.784 51.6448 6.784C51.8795 6.784 52.0688 6.844 52.2128 6.964C52.3568 7.08133 52.4341 7.244 52.4448 7.452H52.1648C52.1568 7.324 52.1061 7.22133 52.0128 7.144C51.9221 7.064 51.7968 7.024 51.6368 7.024C51.4955 7.024 51.3808 7.05733 51.2928 7.124C51.2048 7.19067 51.1608 7.27333 51.1608 7.372C51.1608 7.45733 51.1861 7.528 51.2368 7.584C51.2901 7.63733 51.3555 7.68 51.4328 7.712C51.5101 7.74133 51.6141 7.77467 51.7448 7.812C51.9021 7.85467 52.0275 7.896 52.1208 7.936C52.2141 7.976 52.2941 8.03467 52.3608 8.112C52.4275 8.18933 52.4621 8.292 52.4648 8.42C52.4648 8.53733 52.4328 8.64267 52.3688 8.736C52.3048 8.82667 52.2155 8.89867 52.1008 8.952C51.9861 9.00533 51.8541 9.032 51.7048 9.032ZM54.9679 7.796C54.9679 7.892 54.9652 7.96533 54.9599 8.016H53.1479C53.1559 8.18133 53.1959 8.32267 53.2679 8.44C53.3399 8.55733 53.4345 8.64667 53.5519 8.708C53.6692 8.76667 53.7972 8.796 53.9359 8.796C54.1172 8.796 54.2692 8.752 54.3919 8.664C54.5172 8.576 54.5999 8.45733 54.6399 8.308H54.9359C54.8825 8.52133 54.7679 8.696 54.5919 8.832C54.4185 8.96533 54.1999 9.032 53.9359 9.032C53.7305 9.032 53.5465 8.98667 53.3839 8.896C53.2212 8.80267 53.0932 8.672 52.9999 8.504C52.9092 8.33333 52.8639 8.13467 52.8639 7.908C52.8639 7.68133 52.9092 7.48267 52.9999 7.312C53.0905 7.14133 53.2172 7.01067 53.3799 6.92C53.5425 6.82933 53.7279 6.784 53.9359 6.784C54.1439 6.784 54.3252 6.82933 54.4799 6.92C54.6372 7.01067 54.7572 7.13333 54.8399 7.288C54.9252 7.44 54.9679 7.60933 54.9679 7.796ZM54.6839 7.788C54.6865 7.62533 54.6532 7.48667 54.5839 7.372C54.5172 7.25733 54.4252 7.17067 54.3079 7.112C54.1905 7.05333 54.0625 7.024 53.9239 7.024C53.7159 7.024 53.5385 7.09067 53.3919 7.224C53.2452 7.35733 53.1639 7.54533 53.1479 7.788H54.6839ZM55.7602 7.204C55.8215 7.068 55.9148 6.96267 56.0402 6.888C56.1682 6.81333 56.3242 6.776 56.5082 6.776V7.068H56.4322C56.2295 7.068 56.0668 7.12267 55.9442 7.232C55.8215 7.34133 55.7602 7.524 55.7602 7.78V9H55.4802V6.816H55.7602V7.204ZM59.067 6.776C59.2324 6.776 59.3804 6.81067 59.511 6.88C59.6444 6.94933 59.7484 7.056 59.823 7.2C59.9004 7.34133 59.939 7.51467 59.939 7.72V9H59.663V7.752C59.663 7.51467 59.603 7.33333 59.483 7.208C59.3657 7.08267 59.2044 7.02 58.999 7.02C58.7884 7.02 58.6204 7.08667 58.495 7.22C58.3697 7.35333 58.307 7.54933 58.307 7.808V9H58.027V6.04H58.307V7.188C58.3764 7.05733 58.4777 6.956 58.611 6.884C58.747 6.812 58.899 6.776 59.067 6.776ZM60.4303 7.904C60.4303 7.68 60.4743 7.484 60.5623 7.316C60.6529 7.14533 60.7769 7.01467 60.9343 6.924C61.0943 6.83067 61.2743 6.784 61.4743 6.784C61.6823 6.784 61.8609 6.832 62.0103 6.928C62.1623 7.024 62.2716 7.14667 62.3383 7.296V6.816H62.6183V9H62.3383V8.516C62.2689 8.66533 62.1583 8.78933 62.0063 8.888C61.8569 8.984 61.6783 9.032 61.4703 9.032C61.2729 9.032 61.0943 8.98533 60.9343 8.892C60.7769 8.79867 60.6529 8.66667 60.5623 8.496C60.4743 8.32533 60.4303 8.128 60.4303 7.904ZM62.3383 7.908C62.3383 7.732 62.3023 7.57733 62.2303 7.444C62.1583 7.31067 62.0596 7.208 61.9343 7.136C61.8116 7.064 61.6756 7.028 61.5263 7.028C61.3716 7.028 61.2329 7.06267 61.1103 7.132C60.9876 7.20133 60.8903 7.30267 60.8183 7.436C60.7489 7.56667 60.7143 7.72267 60.7143 7.904C60.7143 8.08267 60.7489 8.24 60.8183 8.376C60.8903 8.50933 60.9876 8.612 61.1103 8.684C61.2329 8.75333 61.3716 8.788 61.5263 8.788C61.6756 8.788 61.8116 8.752 61.9343 8.68C62.0596 8.608 62.1583 8.50533 62.2303 8.372C62.3023 8.23867 62.3383 8.084 62.3383 7.908ZM64.0335 8.728L64.7695 6.816H65.0655L64.1895 9H63.8735L62.9975 6.816H63.2975L64.0335 8.728ZM67.421 7.796C67.421 7.892 67.4183 7.96533 67.413 8.016H65.601C65.609 8.18133 65.649 8.32267 65.721 8.44C65.793 8.55733 65.8877 8.64667 66.005 8.708C66.1223 8.76667 66.2503 8.796 66.389 8.796C66.5703 8.796 66.7223 8.752 66.845 8.664C66.9703 8.576 67.053 8.45733 67.093 8.308H67.389C67.3357 8.52133 67.221 8.696 67.045 8.832C66.8717 8.96533 66.653 9.032 66.389 9.032C66.1837 9.032 65.9997 8.98667 65.837 8.896C65.6743 8.80267 65.5463 8.672 65.453 8.504C65.3623 8.33333 65.317 8.13467 65.317 7.908C65.317 7.68133 65.3623 7.48267 65.453 7.312C65.5437 7.14133 65.6703 7.01067 65.833 6.92C65.9957 6.82933 66.181 6.784 66.389 6.784C66.597 6.784 66.7783 6.82933 66.933 6.92C67.0903 7.01067 67.2103 7.13333 67.293 7.288C67.3783 7.44 67.421 7.60933 67.421 7.796ZM67.137 7.788C67.1397 7.62533 67.1063 7.48667 67.037 7.372C66.9703 7.25733 66.8783 7.17067 66.761 7.112C66.6437 7.05333 66.5157 7.024 66.377 7.024C66.169 7.024 65.9917 7.09067 65.845 7.224C65.6983 7.35733 65.617 7.54533 65.601 7.788H67.137ZM69.3949 7.052V8.408C69.3949 8.54133 69.4203 8.63333 69.4709 8.684C69.5216 8.73467 69.6109 8.76 69.7389 8.76H69.9949V9H69.6949C69.4976 9 69.3509 8.95467 69.2549 8.864C69.1589 8.77067 69.1109 8.61867 69.1109 8.408V7.052H68.8069V6.816H69.1109V6.268H69.3949V6.816H69.9949V7.052H69.3949ZM71.4127 9.032C71.2074 9.032 71.0221 8.98667 70.8567 8.896C70.6941 8.80267 70.5647 8.672 70.4687 8.504C70.3754 8.33333 70.3287 8.13467 70.3287 7.908C70.3287 7.68133 70.3767 7.484 70.4727 7.316C70.5687 7.14533 70.6994 7.01467 70.8647 6.924C71.0301 6.83067 71.2154 6.784 71.4207 6.784C71.6261 6.784 71.8114 6.83067 71.9767 6.924C72.1447 7.01467 72.2754 7.14533 72.3687 7.316C72.4647 7.484 72.5127 7.68133 72.5127 7.908C72.5127 8.132 72.4647 8.32933 72.3687 8.5C72.2727 8.67067 72.1407 8.80267 71.9727 8.896C71.8047 8.98667 71.6181 9.032 71.4127 9.032ZM71.4127 8.788C71.5567 8.788 71.6901 8.756 71.8127 8.692C71.9354 8.62533 72.0341 8.52667 72.1087 8.396C72.1861 8.26267 72.2247 8.1 72.2247 7.908C72.2247 7.716 72.1874 7.55467 72.1127 7.424C72.0381 7.29067 71.9394 7.192 71.8167 7.128C71.6941 7.06133 71.5607 7.028 71.4167 7.028C71.2727 7.028 71.1394 7.06133 71.0167 7.128C70.8941 7.192 70.7954 7.29067 70.7207 7.424C70.6487 7.55467 70.6127 7.716 70.6127 7.908C70.6127 8.1 70.6487 8.26267 70.7207 8.396C70.7954 8.52667 70.8927 8.62533 71.0127 8.692C71.1354 8.756 71.2687 8.788 71.4127 8.788ZM21.348 11.296C21.4173 11.1493 21.5266 11.028 21.676 10.932C21.828 10.8333 22.008 10.784 22.216 10.784C22.4133 10.784 22.5906 10.8307 22.748 10.924C22.908 11.0147 23.032 11.1453 23.12 11.316C23.2106 11.484 23.256 11.68 23.256 11.904C23.256 12.128 23.2106 12.3253 23.12 12.496C23.032 12.6667 22.908 12.7987 22.748 12.892C22.5906 12.9853 22.4133 13.032 22.216 13.032C22.0106 13.032 21.832 12.984 21.68 12.888C21.528 12.7893 21.4173 12.6667 21.348 12.52V14.032H21.072V10.816H21.348V11.296ZM22.972 11.904C22.972 11.7227 22.936 11.5667 22.864 11.436C22.7946 11.3027 22.6986 11.2013 22.576 11.132C22.4533 11.0627 22.3146 11.028 22.16 11.028C22.0106 11.028 21.8733 11.064 21.748 11.136C21.6253 11.208 21.528 11.3107 21.456 11.444C21.384 11.5773 21.348 11.732 21.348 11.908C21.348 12.084 21.384 12.2387 21.456 12.372C21.528 12.5053 21.6253 12.608 21.748 12.68C21.8733 12.752 22.0106 12.788 22.16 12.788C22.3146 12.788 22.4533 12.7533 22.576 12.684C22.6986 12.612 22.7946 12.5093 22.864 12.376C22.936 12.24 22.972 12.0827 22.972 11.904ZM23.6432 11.904C23.6432 11.68 23.6872 11.484 23.7752 11.316C23.8658 11.1453 23.9898 11.0147 24.1472 10.924C24.3072 10.8307 24.4872 10.784 24.6872 10.784C24.8952 10.784 25.0738 10.832 25.2232 10.928C25.3752 11.024 25.4845 11.1467 25.5512 11.296V10.816H25.8312V13H25.5512V12.516C25.4818 12.6653 25.3712 12.7893 25.2192 12.888C25.0698 12.984 24.8912 13.032 24.6832 13.032C24.4858 13.032 24.3072 12.9853 24.1472 12.892C23.9898 12.7987 23.8658 12.6667 23.7752 12.496C23.6872 12.3253 23.6432 12.128 23.6432 11.904ZM25.5512 11.908C25.5512 11.732 25.5152 11.5773 25.4432 11.444C25.3712 11.3107 25.2725 11.208 25.1472 11.136C25.0245 11.064 24.8885 11.028 24.7392 11.028C24.5845 11.028 24.4458 11.0627 24.3232 11.132C24.2005 11.2013 24.1032 11.3027 24.0312 11.436C23.9618 11.5667 23.9272 11.7227 23.9272 11.904C23.9272 12.0827 23.9618 12.24 24.0312 12.376C24.1032 12.5093 24.2005 12.612 24.3232 12.684C24.4458 12.7533 24.5845 12.788 24.7392 12.788C24.8885 12.788 25.0245 12.752 25.1472 12.68C25.2725 12.608 25.3712 12.5053 25.4432 12.372C25.5152 12.2387 25.5512 12.084 25.5512 11.908ZM28.2704 10.816L26.9744 14.028H26.6824L27.1064 12.988L26.2104 10.816H26.5184L27.2624 12.68L27.9824 10.816H28.2704ZM29.6197 11.904C29.6197 11.68 29.6637 11.484 29.7517 11.316C29.8424 11.1453 29.9664 11.0147 30.1237 10.924C30.2837 10.8307 30.4637 10.784 30.6637 10.784C30.8717 10.784 31.0504 10.832 31.1997 10.928C31.3517 11.024 31.4611 11.1467 31.5277 11.296V10.816H31.8077V13H31.5277V12.516C31.4584 12.6653 31.3477 12.7893 31.1957 12.888C31.0464 12.984 30.8677 13.032 30.6597 13.032C30.4624 13.032 30.2837 12.9853 30.1237 12.892C29.9664 12.7987 29.8424 12.6667 29.7517 12.496C29.6637 12.3253 29.6197 12.128 29.6197 11.904ZM31.5277 11.908C31.5277 11.732 31.4917 11.5773 31.4197 11.444C31.3477 11.3107 31.2491 11.208 31.1237 11.136C31.0011 11.064 30.8651 11.028 30.7157 11.028C30.5611 11.028 30.4224 11.0627 30.2997 11.132C30.1771 11.2013 30.0797 11.3027 30.0077 11.436C29.9384 11.5667 29.9037 11.7227 29.9037 11.904C29.9037 12.0827 29.9384 12.24 30.0077 12.376C30.0797 12.5093 30.1771 12.612 30.2997 12.684C30.4224 12.7533 30.5611 12.788 30.7157 12.788C30.8651 12.788 31.0011 12.752 31.1237 12.68C31.2491 12.608 31.3477 12.5053 31.4197 12.372C31.4917 12.2387 31.5277 12.084 31.5277 11.908ZM33.8246 10.04V13H33.5446V10.04H33.8246ZM34.5987 10.404C34.5427 10.404 34.4947 10.384 34.4547 10.344C34.4147 10.304 34.3947 10.2547 34.3947 10.196C34.3947 10.1373 34.4147 10.0893 34.4547 10.052C34.4947 10.012 34.5427 9.992 34.5987 9.992C34.6547 9.992 34.7027 10.012 34.7427 10.052C34.7827 10.0893 34.8027 10.1373 34.8027 10.196C34.8027 10.2547 34.7827 10.304 34.7427 10.344C34.7027 10.384 34.6547 10.404 34.5987 10.404ZM34.7387 10.816V13H34.4587V10.816H34.7387ZM35.7367 11.052V12.408C35.7367 12.5413 35.7621 12.6333 35.8127 12.684C35.8634 12.7347 35.9527 12.76 36.0807 12.76H36.3367V13H36.0367C35.8394 13 35.6927 12.9547 35.5967 12.864C35.5007 12.7707 35.4527 12.6187 35.4527 12.408V11.052H35.1487V10.816H35.4527V10.268H35.7367V10.816H36.3367V11.052H35.7367ZM37.1625 11.052V12.408C37.1625 12.5413 37.1878 12.6333 37.2385 12.684C37.2892 12.7347 37.3785 12.76 37.5065 12.76H37.7625V13H37.4625C37.2652 13 37.1185 12.9547 37.0225 12.864C36.9265 12.7707 36.8785 12.6187 36.8785 12.408V11.052H36.5745V10.816H36.8785V10.268H37.1625V10.816H37.7625V11.052H37.1625ZM38.5043 10.04V13H38.2243V10.04H38.5043ZM41.1144 11.796C41.1144 11.892 41.1117 11.9653 41.1064 12.016H39.2944C39.3024 12.1813 39.3424 12.3227 39.4144 12.44C39.4864 12.5573 39.581 12.6467 39.6984 12.708C39.8157 12.7667 39.9437 12.796 40.0824 12.796C40.2637 12.796 40.4157 12.752 40.5384 12.664C40.6637 12.576 40.7464 12.4573 40.7864 12.308H41.0824C41.029 12.5213 40.9144 12.696 40.7384 12.832C40.565 12.9653 40.3464 13.032 40.0824 13.032C39.877 13.032 39.693 12.9867 39.5304 12.896C39.3677 12.8027 39.2397 12.672 39.1464 12.504C39.0557 12.3333 39.0104 12.1347 39.0104 11.908C39.0104 11.6813 39.0557 11.4827 39.1464 11.312C39.237 11.1413 39.3637 11.0107 39.5264 10.92C39.689 10.8293 39.8744 10.784 40.0824 10.784C40.2904 10.784 40.4717 10.8293 40.6264 10.92C40.7837 11.0107 40.9037 11.1333 40.9864 11.288C41.0717 11.44 41.1144 11.6093 41.1144 11.796ZM40.8304 11.788C40.833 11.6253 40.7997 11.4867 40.7304 11.372C40.6637 11.2573 40.5717 11.1707 40.4544 11.112C40.337 11.0533 40.209 11.024 40.0704 11.024C39.8624 11.024 39.685 11.0907 39.5384 11.224C39.3917 11.3573 39.3104 11.5453 39.2944 11.788H40.8304ZM42.5963 11.904C42.5963 11.68 42.6403 11.484 42.7283 11.316C42.819 11.1453 42.943 11.0147 43.1003 10.924C43.2603 10.8307 43.4403 10.784 43.6403 10.784C43.8483 10.784 44.027 10.832 44.1763 10.928C44.3283 11.024 44.4376 11.1467 44.5043 11.296V10.816H44.7843V13H44.5043V12.516C44.435 12.6653 44.3243 12.7893 44.1723 12.888C44.023 12.984 43.8443 13.032 43.6363 13.032C43.439 13.032 43.2603 12.9853 43.1003 12.892C42.943 12.7987 42.819 12.6667 42.7283 12.496C42.6403 12.3253 42.5963 12.128 42.5963 11.904ZM44.5043 11.908C44.5043 11.732 44.4683 11.5773 44.3963 11.444C44.3243 11.3107 44.2256 11.208 44.1003 11.136C43.9776 11.064 43.8416 11.028 43.6923 11.028C43.5376 11.028 43.399 11.0627 43.2763 11.132C43.1536 11.2013 43.0563 11.3027 42.9843 11.436C42.915 11.5667 42.8803 11.7227 42.8803 11.904C42.8803 12.0827 42.915 12.24 42.9843 12.376C43.0563 12.5093 43.1536 12.612 43.2763 12.684C43.399 12.7533 43.5376 12.788 43.6923 12.788C43.8416 12.788 43.9776 12.752 44.1003 12.68C44.2256 12.608 44.3243 12.5053 44.3963 12.372C44.4683 12.2387 44.5043 12.084 44.5043 11.908ZM48.0235 10.776C48.2795 10.776 48.4875 10.8573 48.6475 11.02C48.8102 11.18 48.8915 11.4133 48.8915 11.72V13H48.6155V11.752C48.6155 11.5147 48.5582 11.3333 48.4435 11.208C48.3288 11.0827 48.1728 11.02 47.9755 11.02C47.7702 11.02 47.6062 11.088 47.4835 11.224C47.3608 11.36 47.2995 11.5573 47.2995 11.816V13H47.0235V11.752C47.0235 11.5147 46.9662 11.3333 46.8515 11.208C46.7368 11.0827 46.5795 11.02 46.3795 11.02C46.1742 11.02 46.0102 11.088 45.8875 11.224C45.7648 11.36 45.7035 11.5573 45.7035 11.816V13H45.4235V10.816H45.7035V11.192C45.7728 11.056 45.8715 10.9533 45.9995 10.884C46.1275 10.812 46.2702 10.776 46.4275 10.776C46.6168 10.776 46.7822 10.8213 46.9235 10.912C47.0675 11.0027 47.1715 11.136 47.2355 11.312C47.2942 11.1387 47.3942 11.0067 47.5355 10.916C47.6795 10.8227 47.8422 10.776 48.0235 10.776ZM50.4694 13.032C50.264 13.032 50.0787 12.9867 49.9134 12.896C49.7507 12.8027 49.6214 12.672 49.5254 12.504C49.432 12.3333 49.3854 12.1347 49.3854 11.908C49.3854 11.6813 49.4334 11.484 49.5294 11.316C49.6254 11.1453 49.756 11.0147 49.9214 10.924C50.0867 10.8307 50.272 10.784 50.4774 10.784C50.6827 10.784 50.868 10.8307 51.0334 10.924C51.2014 11.0147 51.332 11.1453 51.4254 11.316C51.5214 11.484 51.5694 11.6813 51.5694 11.908C51.5694 12.132 51.5214 12.3293 51.4254 12.5C51.3294 12.6707 51.1974 12.8027 51.0294 12.896C50.8614 12.9867 50.6747 13.032 50.4694 13.032ZM50.4694 12.788C50.6134 12.788 50.7467 12.756 50.8694 12.692C50.992 12.6253 51.0907 12.5267 51.1654 12.396C51.2427 12.2627 51.2814 12.1 51.2814 11.908C51.2814 11.716 51.244 11.5547 51.1694 11.424C51.0947 11.2907 50.996 11.192 50.8734 11.128C50.7507 11.0613 50.6174 11.028 50.4734 11.028C50.3294 11.028 50.196 11.0613 50.0734 11.128C49.9507 11.192 49.852 11.2907 49.7774 11.424C49.7054 11.5547 49.6694 11.716 49.6694 11.908C49.6694 12.1 49.7054 12.2627 49.7774 12.396C49.852 12.5267 49.9494 12.6253 50.0694 12.692C50.192 12.756 50.3254 12.788 50.4694 12.788ZM53.9718 10.816V13H53.6918V12.616C53.6278 12.752 53.5291 12.856 53.3958 12.928C53.2624 13 53.1131 13.036 52.9478 13.036C52.6864 13.036 52.4731 12.956 52.3078 12.796C52.1424 12.6333 52.0598 12.3987 52.0598 12.092V10.816H52.3358V12.06C52.3358 12.2973 52.3944 12.4787 52.5118 12.604C52.6318 12.7293 52.7944 12.792 52.9998 12.792C53.2104 12.792 53.3784 12.7253 53.5038 12.592C53.6291 12.4587 53.6918 12.2627 53.6918 12.004V10.816H53.9718ZM55.635 10.776C55.8963 10.776 56.1097 10.8573 56.275 11.02C56.4403 11.18 56.523 11.4133 56.523 11.72V13H56.247V11.752C56.247 11.5147 56.187 11.3333 56.067 11.208C55.9497 11.0827 55.7883 11.02 55.583 11.02C55.3723 11.02 55.2043 11.0867 55.079 11.22C54.9537 11.3533 54.891 11.5493 54.891 11.808V13H54.611V10.816H54.891V11.188C54.9603 11.0547 55.0603 10.9533 55.191 10.884C55.3217 10.812 55.4697 10.776 55.635 10.776ZM57.5063 11.052V12.408C57.5063 12.5413 57.5316 12.6333 57.5823 12.684C57.6329 12.7347 57.7223 12.76 57.8503 12.76H58.1063V13H57.8063C57.6089 13 57.4623 12.9547 57.3663 12.864C57.2703 12.7707 57.2223 12.6187 57.2223 12.408V11.052H56.9183V10.816H57.2223V10.268H57.5063V10.816H58.1063V11.052H57.5063Z" fill="black"/>
<defs>
<filter id="filter0_d_356_127" x="0" y="0" width="79" height="20.7412" filterUnits="userSpaceOnUse" color-interpolation-filters="sRGB">
<feFlood flood-opacity="0" result="BackgroundImageFix"/>
<feColorMatrix in="SourceAlpha" type="matrix" values="0 0 0 0 0 0 0 0 0 0 0 0 0 0 0 0 0 0 127 0" result="hardAlpha"/>
<feOffset/>
<feGaussianBlur stdDeviation="1"/>
<feComposite in2="hardAlpha" operator="out"/>
<feColorMatrix type="matrix" values="0 0 0 0 0 0 0 0 0 0 0 0 0 0 0 0 0 0 0.25 0"/>
<feBlend mode="normal" in2="BackgroundImageFix" result="effect1_dropShadow_356_127"/>
<feBlend mode="normal" in="SourceGraphic" in2="effect1_dropShadow_356_127" result="shape"/>
</filter>
</defs>
</svg>
