<svg width="167" height="120" viewBox="0 0 167 120" fill="none" xmlns="http://www.w3.org/2000/svg">
<path d="M84 106.874C121.555 106.874 152 104.799 152 102.24C152 99.681 121.555 97.6064 84 97.6064C46.4446 97.6064 16 99.681 16 102.24C16 104.799 46.4446 106.874 84 106.874Z" fill="#E9CEC2"/>
<path d="M138.873 30.9603V91.3479C138.873 93.6687 137.018 95.5504 134.729 95.5504H33.6129C31.3241 95.5504 29.4688 93.6689 29.4688 91.3479V30.9603C29.4688 28.6395 31.3241 26.7578 33.6129 26.7578H134.729C137.018 26.7578 138.873 28.6393 138.873 30.9603Z" fill="#1B3431"/>
<path d="M134.013 34.0871V84.4548C134.013 85.9368 132.749 87.1386 131.189 87.1386H37.1547C36.321 87.1386 35.5709 86.7954 35.0533 86.248C34.6025 85.7737 34.3291 85.1438 34.3291 84.4548V34.0871C34.3291 32.6052 35.5945 31.4033 37.1545 31.4033H131.189C131.711 31.4033 132.199 31.5376 132.618 31.7724C133.453 32.2382 134.013 33.1011 134.013 34.0871Z" fill="#EFE3DF"/>
<path d="M149.093 93.1577V93.5404C149.093 95.4443 148.491 97.2053 147.469 98.6373C145.91 100.824 143.372 102.247 140.507 102.247H27.8356C24.9708 102.247 22.4333 100.824 20.8742 98.6373C19.8517 97.2053 19.2495 95.4443 19.2495 93.5404V93.1577H149.093Z" fill="#414F50"/>
<path d="M85.1302 97.7024C85.1302 98.3975 84.5744 98.961 83.8891 98.961C83.2037 98.961 82.6479 98.3975 82.6479 97.7024C82.6479 97.0074 83.2035 96.4438 83.8891 96.4438C84.5747 96.4438 85.1302 97.0074 85.1302 97.7024Z" fill="#1B3431"/>
<path d="M80.7464 97.7024C80.7464 98.3975 80.1907 98.961 79.5053 98.961C78.8199 98.961 78.2642 98.3975 78.2642 97.7024C78.2642 97.0074 78.8199 96.4438 79.5053 96.4438C80.1909 96.4438 80.7464 97.0074 80.7464 97.7024Z" fill="#1B3431"/>
<path d="M89.514 97.7024C89.514 98.3975 88.9582 98.961 88.2729 98.961C87.5875 98.961 87.0317 98.3975 87.0317 97.7024C87.0317 97.0074 87.5875 96.4438 88.2729 96.4438C88.9585 96.4438 89.514 97.0074 89.514 97.7024Z" fill="#1B3431"/>
<path d="M133.041 97.7024C133.041 98.3975 132.486 98.961 131.8 98.961C131.115 98.961 130.559 98.3975 130.559 97.7024C130.559 97.0074 131.115 96.4438 131.8 96.4438C132.486 96.4438 133.041 97.0074 133.041 97.7024Z" fill="#D76751"/>
<path d="M137.425 97.7024C137.425 98.3975 136.869 98.961 136.183 98.961C135.498 98.961 134.942 98.3975 134.942 97.7024C134.942 97.0074 135.498 96.4438 136.183 96.4438C136.869 96.4438 137.425 97.0074 137.425 97.7024Z" fill="#F5BF69"/>
<path d="M69.6187 93.1577V93.2451C69.6187 93.9345 70.0739 94.4934 70.6354 94.4934H97.1425C97.704 94.4934 98.1592 93.9345 98.1592 93.2451V93.1577H69.6187Z" fill="#647A7A"/>
<path d="M134.014 34.2685V37.4409H34.3296V34.2685C34.3296 33.6578 34.5172 33.0931 34.8391 32.6291C35.3486 31.8879 36.196 31.4033 37.155 31.4033H131.189C132.148 31.4033 132.996 31.8879 133.504 32.6291C133.826 33.0931 134.014 33.6578 134.014 34.2685Z" fill="white"/>
<path d="M125.99 34.5764C125.99 34.9952 125.655 35.3345 125.242 35.3345C124.829 35.3345 124.495 34.9952 124.495 34.5764C124.495 34.1579 124.829 33.8184 125.242 33.8184C125.655 33.8184 125.99 34.1577 125.99 34.5764Z" fill="#468280"/>
<path d="M128.413 34.5764C128.413 34.9952 128.078 35.3345 127.665 35.3345C127.252 35.3345 126.917 34.9952 126.917 34.5764C126.917 34.1579 127.252 33.8184 127.665 33.8184C128.078 33.8184 128.413 34.1577 128.413 34.5764Z" fill="#78B1DE"/>
<path d="M130.717 34.5764C130.717 34.9952 130.383 35.3345 129.97 35.3345C129.557 35.3345 129.223 34.9952 129.223 34.5764C129.223 34.1579 129.557 33.8184 129.97 33.8184C130.383 33.8184 130.717 34.1577 130.717 34.5764Z" fill="#E2534D"/>
<path d="M120.725 35.3784H44.7959C44.3799 35.3784 44.0396 35.0332 44.0396 34.6112V34.5414C44.0396 34.1193 44.3799 33.7744 44.7959 33.7744H120.725C121.141 33.7744 121.481 34.1196 121.481 34.5414V34.6112C121.481 35.0332 121.141 35.3784 120.725 35.3784Z" fill="#E9CEC2"/>
<path d="M39.0538 34.5765V35.3188C39.0538 35.4236 38.942 35.4892 38.8523 35.4367L38.2185 35.0655L37.5846 34.6943C37.4952 34.6418 37.4952 34.5109 37.5846 34.4586L38.2185 34.0874L38.8523 33.7162C38.9418 33.6637 39.0538 33.7294 39.0538 33.8341V34.5765Z" fill="#1B3431"/>
<path d="M40.1675 34.5765V35.3188C40.1675 35.4236 40.2793 35.4892 40.3687 35.4367L41.0026 35.0655L41.6364 34.6943C41.7259 34.6418 41.7259 34.5109 41.6364 34.4586L41.0026 34.0874L40.3687 33.7162C40.2793 33.6637 40.1675 33.7294 40.1675 33.8341V34.5765Z" fill="#1B3431"/>
<path d="M120.577 81.1708H51.5667C50.6297 81.1708 49.8701 80.4006 49.8701 79.4504V41.6775C49.8701 40.7273 50.6297 39.957 51.5667 39.957H120.577C121.514 39.957 122.273 40.7273 122.273 41.6775V79.4504C122.273 80.4003 121.514 81.1708 120.577 81.1708Z" fill="white"/>
<path d="M108.213 68.8699C108.206 69.145 108.277 69.4034 108.405 69.6237C108.467 69.7306 108.531 69.836 108.591 69.9445L109.605 71.8L110.27 70.5847C110.446 70.262 110.638 69.948 110.824 69.6307C110.948 69.418 111.02 69.1698 111.02 68.905C111.02 68.0874 110.339 67.4297 109.52 67.4852C108.803 67.533 108.23 68.1411 108.213 68.8699ZM109.024 68.7347C109.024 68.4026 109.289 68.1338 109.616 68.1338C109.943 68.1338 110.209 68.4026 110.209 68.7347C110.209 69.0667 109.943 69.3355 109.616 69.3355C109.289 69.3355 109.024 69.0667 109.024 68.7347Z" fill="#E9CEC2"/>
<path d="M102.577 69.6816C102.577 70.8591 103.522 71.8173 104.683 71.8173C105.844 71.8173 106.789 70.8591 106.789 69.6816C106.789 68.5038 105.845 67.5459 104.683 67.5459C103.522 67.5459 102.577 68.5041 102.577 69.6816ZM103.759 70.4701C103.69 70.2379 103.652 69.9862 103.646 69.7219H104.598V70.4701H103.759ZM104.255 71.5973C103.72 71.4749 103.265 71.1309 102.994 70.6421H103.636C103.724 70.8947 103.847 71.1237 104.002 71.3229C104.08 71.4232 104.165 71.5152 104.255 71.5973ZM104.598 70.6419V71.6434C104.535 71.6052 104.333 71.4724 104.131 71.2108C104.002 71.0433 103.896 70.8519 103.816 70.6419H104.598ZM103.863 68.6301C104.087 68.1254 104.418 67.8151 104.523 67.7245C104.548 67.7223 104.574 67.7207 104.599 67.7198V68.6301H103.863ZM103.049 68.6301C103.318 68.2004 103.744 67.8915 104.228 67.7725C104.133 67.8747 104.044 67.9864 103.962 68.1055C103.849 68.2697 103.753 68.4462 103.678 68.6301H103.049ZM103.647 69.5501C103.657 69.2945 103.707 69.043 103.794 68.8019H104.599V69.5501H103.647ZM102.751 69.5501C102.768 69.2879 102.836 69.0362 102.952 68.8019H103.614C103.533 69.0444 103.487 69.2961 103.478 69.5501H102.751ZM103.477 69.7219C103.483 69.9848 103.518 70.2363 103.582 70.4701H102.91C102.807 70.2334 102.752 69.982 102.747 69.7219H103.477ZM105.87 69.7219H106.619C106.614 69.982 106.559 70.2337 106.456 70.4701H105.764C105.829 70.2363 105.864 69.9848 105.87 69.7219ZM104.768 68.6301V67.7198C104.786 67.7205 104.804 67.7214 104.821 67.7228C104.894 67.7852 105.072 67.949 105.249 68.2077C105.34 68.3408 105.419 68.4828 105.484 68.6301H104.768ZM105.553 68.8019C105.64 69.044 105.689 69.2954 105.699 69.5501H104.768V68.8019H105.553ZM105.669 68.6301C105.594 68.4462 105.498 68.2697 105.385 68.1055C105.302 67.9841 105.211 67.8704 105.113 67.7666C105.608 67.881 106.043 68.1922 106.318 68.6301H105.669ZM105.7 69.7219C105.694 69.9872 105.656 70.2388 105.588 70.4701H104.768V69.7219H105.7ZM105.869 69.5501C105.859 69.2959 105.814 69.0444 105.733 68.8019H106.414C106.531 69.0367 106.598 69.2884 106.615 69.5501H105.869ZM106.372 70.6419C106.099 71.1326 105.625 71.4862 105.085 71.6027C105.178 71.5195 105.265 71.4255 105.345 71.3226C105.499 71.1237 105.623 70.8947 105.711 70.6419H106.372ZM105.53 70.6419C105.296 71.2572 104.896 71.5502 104.768 71.6312V70.6419H105.53Z" fill="#E9CEC2"/>
<path d="M114.508 68.9345C114.508 68.7496 114.332 68.654 114.114 68.654C113.861 68.654 113.626 68.8091 113.502 69.0596L112.455 68.5286C112.755 67.9559 113.349 67.562 114.291 67.562C115.214 67.562 115.903 67.9559 115.903 68.7016C115.903 69.6145 114.961 69.7755 114.961 70.235H113.749C113.75 69.5133 114.508 69.2986 114.508 68.9345ZM113.579 71.178C113.579 70.7782 113.897 70.4738 114.355 70.4738C114.814 70.4738 115.132 70.778 115.132 71.178C115.132 71.5717 114.814 71.8939 114.355 71.8939C113.897 71.8939 113.579 71.5717 113.579 71.178Z" fill="#E9CEC2"/>
<path d="M126.337 63.0878H122.612C122.317 63.0878 122.077 62.8448 122.077 62.5453V48.5161C122.077 48.2164 122.317 47.9736 122.612 47.9736H126.337C126.632 47.9736 126.872 48.2166 126.872 48.5161V62.5453C126.872 62.8448 126.632 63.0878 126.337 63.0878Z" fill="white"/>
<path d="M125.134 56.205H123.268C123.056 56.205 122.884 56.0306 122.884 55.8153V54.5335C122.884 54.3184 123.056 54.144 123.268 54.144H125.134C125.346 54.144 125.518 54.3184 125.518 54.5335V55.8153C125.518 56.0306 125.346 56.205 125.134 56.205Z" fill="#1B3431"/>
<path d="M126.281 54.1445V56.2052L125.46 55.5046V54.845L126.281 54.1445Z" fill="#1B3431"/>
<path d="M124.582 61.5766C125.517 61.5766 126.274 60.8084 126.274 59.8608C126.274 58.9132 125.517 58.145 124.582 58.145C123.648 58.145 122.89 58.9132 122.89 59.8608C122.89 60.8084 123.648 61.5766 124.582 61.5766Z" fill="#D76751"/>
<path d="M123.785 60.8505C123.83 60.8505 123.875 60.833 123.91 60.7978L125.506 59.1795C125.575 59.1092 125.575 58.9951 125.506 58.9248C125.437 58.8545 125.324 58.8545 125.255 58.9248L123.659 60.5431C123.59 60.6134 123.59 60.7275 123.659 60.7978C123.694 60.8327 123.739 60.8505 123.785 60.8505Z" fill="white"/>
<path d="M125.38 60.8505C125.426 60.8505 125.471 60.833 125.506 60.7978C125.575 60.7275 125.575 60.6134 125.506 60.5431L123.91 58.9248C123.841 58.8545 123.728 58.8545 123.659 58.9248C123.59 58.9951 123.59 59.1092 123.659 59.1795L125.255 60.7978C125.289 60.8327 125.335 60.8505 125.38 60.8505Z" fill="white"/>
<path d="M124.538 51.4744H124.627C124.859 51.4744 125.048 51.2822 125.048 51.0477V49.4404C125.048 49.2056 124.859 49.0137 124.627 49.0137H124.538C124.306 49.0137 124.117 49.2058 124.117 49.4404V51.0477C124.117 51.2825 124.306 51.4744 124.538 51.4744Z" fill="#1B3431"/>
<path d="M124.573 52.0579H124.592C124.639 52.0579 124.677 52.0188 124.677 51.9707V50.991C124.677 50.9429 124.639 50.9038 124.592 50.9038H124.573C124.526 50.9038 124.487 50.9429 124.487 50.991V51.9707C124.487 52.0188 124.526 52.0579 124.573 52.0579Z" fill="#1B3431"/>
<path d="M123.828 52.1466H125.336C125.436 52.1466 125.517 52.0641 125.517 51.9631V51.9242C125.517 51.8232 125.436 51.7407 125.336 51.7407H123.828C123.729 51.7407 123.647 51.8232 123.647 51.9242V51.9631C123.647 52.0641 123.729 52.1466 123.828 52.1466Z" fill="#1B3431"/>
<path d="M69.8437 70.3053H53.0834C52.6437 70.3053 52.2871 69.9438 52.2871 69.4978V60.6649C52.2871 60.219 52.6437 59.8574 53.0834 59.8574H69.8437C70.2834 59.8574 70.64 60.219 70.64 60.6649V69.4978C70.64 69.9438 70.2834 70.3053 69.8437 70.3053Z" fill="#EFE3DF"/>
<path d="M116.983 53.9025H100.223C99.7833 53.9025 99.4268 53.5409 99.4268 53.095V44.2621C99.4268 43.8162 99.7833 43.4546 100.223 43.4546H116.983C117.423 43.4546 117.78 43.8162 117.78 44.2621V53.095C117.78 53.5409 117.423 53.9025 116.983 53.9025Z" fill="#EFE3DF"/>
<path d="M117.358 61.0253H99.8211C99.5882 61.0253 99.3994 60.8339 99.3994 60.5976V60.5585C99.3994 60.3223 99.5882 60.1309 99.8211 60.1309H117.358C117.591 60.1309 117.78 60.3223 117.78 60.5585V60.5976C117.78 60.8339 117.591 61.0253 117.358 61.0253Z" fill="#EFE3DF"/>
<path d="M117.358 57.2416H99.8211C99.5882 57.2416 99.3994 57.0502 99.3994 56.814V56.7748C99.3994 56.5386 99.5882 56.3472 99.8211 56.3472H117.358C117.591 56.3472 117.78 56.5386 117.78 56.7748V56.814C117.78 57.0502 117.591 57.2416 117.358 57.2416Z" fill="#EFE3DF"/>
<path d="M117.358 64.809H99.8211C99.5882 64.809 99.3994 64.6175 99.3994 64.3813V64.3422C99.3994 64.106 99.5882 63.9146 99.8211 63.9146H117.358C117.591 63.9146 117.78 64.106 117.78 64.3422V64.3813C117.78 64.6175 117.591 64.809 117.358 64.809Z" fill="#EFE3DF"/>
<path d="M70.2182 52.1791H52.6815C52.4486 52.1791 52.2598 51.9877 52.2598 51.7515V51.7123C52.2598 51.4761 52.4486 51.2847 52.6815 51.2847H70.2182C70.4511 51.2847 70.6399 51.4761 70.6399 51.7123V51.7515C70.6399 51.9877 70.4511 52.1791 70.2182 52.1791Z" fill="#EFE3DF"/>
<path d="M70.2182 48.3954H52.6815C52.4486 48.3954 52.2598 48.204 52.2598 47.9678V47.9286C52.2598 47.6924 52.4486 47.501 52.6815 47.501H70.2182C70.4511 47.501 70.6399 47.6924 70.6399 47.9286V47.9678C70.6399 48.204 70.4511 48.3954 70.2182 48.3954Z" fill="#EFE3DF"/>
<path d="M70.2182 55.9633H52.6815C52.4486 55.9633 52.2598 55.7718 52.2598 55.5356V55.4965C52.2598 55.2603 52.4486 55.0688 52.6815 55.0688H70.2182C70.4511 55.0688 70.6399 55.2603 70.6399 55.4965V55.5356C70.6399 55.7718 70.4511 55.9633 70.2182 55.9633Z" fill="#EFE3DF"/>
<path d="M49.8701 74.7705H122.273V80.79C122.273 80.9997 122.105 81.1706 121.897 81.1706H50.2461C50.0383 81.1706 49.8701 80.9997 49.8701 80.79V74.7705Z" fill="#1B3431"/>
<path d="M117.082 77.1436V76.6009H117.752V76.1182H116.844C116.712 76.1182 116.606 76.2262 116.606 76.3595V77.1436H117.082Z" fill="white"/>
<path d="M117.082 78.1094H116.606V78.9347C116.606 79.068 116.712 79.1761 116.844 79.1761H117.752V78.6933H117.082V78.1094Z" fill="white"/>
<path d="M119.145 77.1436H119.621V76.3595C119.621 76.2262 119.515 76.1182 119.383 76.1182H118.51V76.6009H119.145V77.1436Z" fill="white"/>
<path d="M119.145 78.1094V78.6933H118.51V79.1761H119.383C119.515 79.1761 119.621 79.068 119.621 78.9347V78.1094H119.145Z" fill="white"/>
<path d="M122.273 73.5669H49.8701V74.7704H122.273V73.5669Z" fill="#EFE3DF"/>
<path d="M55.1304 42.21H55.9472V44.0246H57.0409V44.6669H55.1304V42.21Z" fill="#1B3431"/>
<path d="M57.2656 42.21H58.0825V44.6669H57.2656V42.21Z" fill="#1B3431"/>
<path d="M61.0658 42.21L60.0415 44.6669H59.2385L58.2139 42.21H59.0931L59.6713 43.6455L60.2631 42.21H61.0658Z" fill="#1B3431"/>
<path d="M63.1593 44.0422V44.6669H61.145V42.21H63.1145V42.8347H61.948V43.1224H62.9726V43.7191H61.948V44.042H63.1593V44.0422Z" fill="#1B3431"/>
<path d="M53.7853 43.4189C53.7853 43.9768 53.3393 44.4291 52.7891 44.4291C52.2389 44.4291 51.793 43.9768 51.793 43.4189C51.793 42.861 52.2389 42.4087 52.7891 42.4087C53.3393 42.4087 53.7853 42.8607 53.7853 43.4189Z" fill="#D76751"/>
<mask id="mask0_1970_1564" style="mask-type:luminance" maskUnits="userSpaceOnUse" x="50" y="13" width="69" height="61">
<path d="M118.149 13H50.1543V73.5748H118.149V13Z" fill="white"/>
</mask>
<g mask="url(#mask0_1970_1564)">
<path d="M105.853 34.0412C105.853 34.0412 106.713 36.0211 108.309 35.9983C109.598 35.9794 110.44 34.4993 110.717 33.9308C110.783 33.7947 110.816 33.7113 110.816 33.7113C110.816 33.7113 110.909 33.6972 111.043 33.6597C111.358 33.5728 111.903 33.36 112.023 32.9082C112.194 32.2645 110.955 32.1794 110.955 32.1794C110.955 32.1794 111.405 31.4964 111.161 31.1493C110.92 30.8084 110.115 30.9347 110.115 30.9347C110.115 30.9347 110.818 30.1569 110.412 29.7457C109.8 29.1273 109.13 30.159 109.072 30.2214C109.111 30.1429 109.913 28.7071 109.262 28.6574C108.693 28.6138 107.984 29.4359 107.569 30.1754C107.503 30.2924 107.467 30.3601 107.467 30.3601C107.467 30.3601 107.426 30.3427 107.356 30.3184C107.024 30.2005 106.025 29.9139 105.592 30.5274C105.067 31.2686 105.853 34.0412 105.853 34.0412Z" fill="#F49D8B"/>
<path d="M107.743 34.8998C107.785 34.9082 107.83 34.8949 107.86 34.8602C107.905 34.8086 107.901 34.7297 107.85 34.684C107.576 34.4372 107.437 34.1488 107.438 33.8265C107.439 33.0005 108.323 32.1975 108.332 32.1895C108.384 32.1438 108.388 32.0651 108.343 32.0133C108.298 31.9617 108.22 31.9568 108.169 32.0025C108.129 32.0384 107.193 32.889 107.191 33.8263C107.191 34.223 107.357 34.5745 107.686 34.8707C107.703 34.8857 107.723 34.8956 107.743 34.8998Z" fill="#D37363"/>
<path d="M108.026 31.647C108.063 31.79 108.151 31.8886 108.278 31.9322C108.305 31.9418 108.334 31.9474 108.366 31.9519C108.433 31.9603 108.51 31.9566 108.593 31.9449C108.545 31.9992 108.502 32.0548 108.472 32.1112C108.442 32.1663 108.422 32.2221 108.417 32.2772C108.41 32.3559 108.427 32.4695 108.547 32.5682C108.804 32.7751 109.272 32.7648 109.642 32.7135C109.424 32.9345 109.253 33.2023 109.232 33.4312C109.22 33.5793 109.268 33.7028 109.372 33.7877C109.445 33.8462 109.553 33.8865 109.68 33.9123C109.996 33.9775 110.429 33.9564 110.716 33.9304C110.783 33.794 110.816 33.7106 110.816 33.7106C110.816 33.7106 110.909 33.6967 111.043 33.6595C111.023 33.6496 110.999 33.6466 110.975 33.6501C110.52 33.7134 109.725 33.7544 109.526 33.5927C109.5 33.5709 109.471 33.536 109.478 33.4533C109.501 33.2011 109.851 32.7833 110.198 32.5935C110.254 32.5637 110.278 32.497 110.254 32.4381C110.231 32.3779 110.167 32.3467 110.108 32.3636C109.815 32.4463 108.991 32.6076 108.701 32.3723C108.658 32.3381 108.661 32.313 108.662 32.2999C108.667 32.2401 108.72 32.1651 108.8 32.0852C108.962 31.9226 109.234 31.7405 109.437 31.6316C109.461 31.6187 109.479 31.6002 109.489 31.5777C109.507 31.543 109.509 31.5001 109.489 31.4628C109.457 31.4022 109.383 31.3785 109.322 31.4111C109.283 31.4317 109.203 31.476 109.106 31.5374C108.912 31.6133 108.721 31.6752 108.572 31.6984C108.483 31.7124 108.408 31.7126 108.356 31.6953C108.324 31.6843 108.285 31.6613 108.264 31.5821C108.237 31.4828 108.253 31.3379 108.298 31.1819C108.313 31.1329 108.295 31.0807 108.254 31.0495C108.254 31.049 108.252 31.0481 108.251 31.0471C108.184 30.9951 108.086 31.0275 108.062 31.1099C108.006 31.3051 107.987 31.4959 108.026 31.647Z" fill="#D37363"/>
<path d="M108.324 29.1561C108.151 29.3389 108.003 29.5055 107.872 29.7182C107.744 29.9263 107.658 30.0369 107.569 30.1754C107.581 30.1862 107.558 30.1639 107.569 30.1754L107.351 19.7198C107.347 19.5595 107.582 19.5473 107.594 19.7074L108.324 29.1561C108.325 29.1551 108.324 29.157 108.324 29.1561Z" fill="#414F50"/>
<path d="M107.726 35.1507C108.652 35.4624 108.777 35.0195 108.777 35.0195L108.59 32.5993C108.575 32.5899 108.561 32.5791 108.547 32.5681C108.427 32.4695 108.41 32.3558 108.417 32.2771C108.422 32.2218 108.442 32.1663 108.473 32.1112C108.492 32.0749 108.517 32.0392 108.544 32.0041L108.54 31.9514C108.477 31.9572 108.418 31.9582 108.366 31.9518C108.334 31.9476 108.305 31.942 108.279 31.9322C108.194 31.9031 108.127 31.8497 108.082 31.7754C108.009 31.894 107.903 31.9795 107.766 32.0313C107.729 32.0456 107.691 32.0561 107.651 32.0653L107.726 35.1507Z" fill="#414F50"/>
<path d="M106.116 31.7172C106.143 31.7317 106.573 31.9504 107.033 32.045C107.289 32.0973 107.554 32.1118 107.766 32.0317C107.94 31.9656 108.064 31.8447 108.134 31.6717C108.381 31.0583 107.887 30.471 107.569 30.1753C107.503 30.2922 107.466 30.3599 107.466 30.3599C107.466 30.3599 107.426 30.3426 107.356 30.3182C107.626 30.5596 108.106 31.0803 107.906 31.5773C107.863 31.6844 107.789 31.7566 107.68 31.7978C107.271 31.9527 106.492 31.6319 106.227 31.495C106.167 31.4636 106.093 31.4878 106.062 31.5496C106.031 31.6106 106.055 31.6858 106.116 31.7172Z" fill="#D37363"/>
<path d="M93.2437 32.5365L93.2427 32.532C93.2427 32.5311 93.2416 32.5271 93.2432 32.5309L93.2494 32.5433L93.2631 32.5709L93.2954 32.6382L93.3671 32.787C93.3913 32.8376 93.417 32.8892 93.4435 32.9419C93.4694 32.9939 93.4958 33.0464 93.5237 33.0994C93.6314 33.3107 93.7453 33.5258 93.8641 33.7386C94.104 34.1639 94.3524 34.5897 94.6206 35.0021C94.8894 35.4143 95.1623 35.8232 95.4551 36.2155C95.6027 36.4105 95.749 36.6064 95.9022 36.7955C96.0506 36.989 96.2079 37.1735 96.3618 37.3609C96.6779 37.7274 97.0017 38.0848 97.34 38.4229C97.4218 38.5108 97.5096 38.5909 97.5944 38.6748C97.6806 38.7568 97.7633 38.8435 97.852 38.922C98.0279 39.0809 98.2005 39.2442 98.3812 39.3954C98.7354 39.7085 99.11 39.9892 99.4834 40.2692C99.8649 40.5356 100.249 40.7967 100.649 41.0277C100.748 41.0856 100.847 41.1461 100.947 41.2028L101.252 41.3647L101.404 41.4463L101.442 41.4666L101.422 41.4563L101.396 41.4434C101.361 41.4268 101.325 41.4135 101.287 41.4015C101.131 41.341 100.951 41.3113 100.79 41.3092C100.75 41.3094 100.715 41.3071 100.678 41.3101C100.659 41.3113 100.641 41.3134 100.623 41.316L100.576 41.3197C100.546 41.3228 100.514 41.3296 100.486 41.3361C100.463 41.3394 100.439 41.3446 100.416 41.3516C100.405 41.3544 100.392 41.3603 100.384 41.3619C100.375 41.3638 100.367 41.3661 100.359 41.3685C100.344 41.3729 100.326 41.3814 100.314 41.3863C100.304 41.3891 100.295 41.3928 100.286 41.3975L100.273 41.4048C100.272 41.4053 100.27 41.406 100.268 41.4067C100.236 41.427 100.302 41.3982 100.394 41.3253C100.487 41.2534 100.608 41.1419 100.737 41.0109C100.867 40.8789 101.003 40.7252 101.141 40.5588C101.419 40.227 101.701 39.8418 101.978 39.4387C102.255 39.0331 102.529 38.6066 102.797 38.1668C103.066 37.7284 103.331 37.2768 103.588 36.8173C103.847 36.3584 104.104 35.8933 104.353 35.4232C104.48 35.1891 104.604 34.9539 104.726 34.7184L105.083 34.0355L109.673 35.9538L109.595 36.1839L109.52 36.3978L109.368 36.8189C109.264 37.0973 109.158 37.3731 109.049 37.6487C108.829 38.1977 108.599 38.7435 108.354 39.2864C108.105 39.828 107.848 40.3695 107.57 40.9092C107.43 41.1787 107.287 41.4479 107.137 41.7174C106.987 41.9864 106.831 42.2554 106.668 42.5249C106.341 43.0643 105.987 43.6031 105.572 44.1493C105.363 44.422 105.14 44.6964 104.889 44.9746C104.639 45.253 104.36 45.533 104.024 45.8177C103.687 46.1006 103.294 46.3932 102.762 46.6594L102.664 46.7082C102.629 46.7243 102.591 46.7405 102.555 46.7562C102.482 46.7879 102.409 46.8183 102.335 46.8481C102.258 46.8776 102.174 46.906 102.093 46.9327L101.969 46.972C101.929 46.9849 101.881 46.9964 101.836 47.0081C101.746 47.0311 101.655 47.0522 101.564 47.0716C101.467 47.0897 101.367 47.1047 101.268 47.1178C101.218 47.1241 101.169 47.1307 101.118 47.1354C101.065 47.1394 101.012 47.1426 100.959 47.1452C100.852 47.1497 100.749 47.1546 100.639 47.1508C100.2 47.141 99.7459 47.0538 99.327 46.9041C99.2256 46.8657 99.126 46.8239 99.0268 46.7799L98.9529 46.7464L98.8859 46.7147L98.8316 46.6866L98.6146 46.5734L98.1813 46.3459C98.0387 46.2669 97.8987 46.184 97.7573 46.1029C97.1905 45.7807 96.652 45.4154 96.1227 45.0404C95.602 44.6552 95.0925 44.255 94.6133 43.8254C94.1271 43.4025 93.6723 42.9495 93.2307 42.4876L92.9063 42.1354C92.7986 42.0176 92.6965 41.8957 92.5916 41.7757C92.4871 41.6558 92.3831 41.5353 92.2838 41.4116L91.9827 41.0427C91.1935 40.0496 90.4948 38.9973 89.8801 37.9001C89.5753 37.3494 89.2853 36.791 89.0247 36.2125C88.8941 35.9231 88.7663 35.6318 88.6468 35.33C88.6168 35.2552 88.5872 35.1791 88.5581 35.102C88.5288 35.026 88.4997 34.9485 88.4708 34.8693C88.4421 34.7917 88.4128 34.7097 88.3841 34.6281L88.2861 34.3362L93.2437 32.5365Z" fill="#78B1DE"/>
<path d="M107.009 36.0179C107.04 36.207 106.915 36.3863 106.728 36.4182C106.542 36.45 106.365 36.3228 106.333 36.1337C106.302 35.9446 106.428 35.7653 106.614 35.7335C106.8 35.7014 106.977 35.8288 107.009 36.0179Z" fill="#4E88AF"/>
<path d="M101.586 43.6008C101.522 43.6175 101.453 43.5891 101.421 43.5279C100.88 42.5184 100.569 41.1558 100.556 41.0984C100.538 41.0185 100.587 40.9395 100.666 40.9208C100.745 40.9025 100.823 40.9524 100.841 41.0323C100.844 41.0459 101.157 42.4135 101.678 43.3864C101.716 43.4583 101.69 43.5483 101.619 43.5875C101.608 43.5936 101.597 43.598 101.586 43.6008Z" fill="#4E88AF"/>
<path d="M100.414 42.7978C100.393 42.8034 100.37 42.8041 100.347 42.7992C100.268 42.7821 100.217 42.7031 100.234 42.6232C100.244 42.5787 100.465 41.5303 100.611 41.1971C100.644 41.1221 100.73 41.0886 100.804 41.1216C100.878 41.1549 100.911 41.2425 100.878 41.3173C100.745 41.6224 100.523 42.6745 100.52 42.6851C100.509 42.742 100.466 42.7842 100.414 42.7978Z" fill="#4E88AF"/>
<path d="M108.737 38.5417C108.7 38.5513 108.659 38.5464 108.624 38.5246C107.123 37.5948 103.946 36.3357 103.915 36.3231C103.839 36.2933 103.802 36.2073 103.831 36.1312C103.861 36.0548 103.945 36.017 104.021 36.0468C104.053 36.0595 107.253 37.3279 108.777 38.2715C108.846 38.3142 108.867 38.4056 108.825 38.4754C108.805 38.5096 108.773 38.5324 108.737 38.5417Z" fill="#4E88AF"/>
<path d="M107.322 37.7815C107.29 37.79 107.254 37.7874 107.222 37.7719C107.149 37.7368 107.118 37.6484 107.153 37.5744L108.141 35.4574C108.176 35.3834 108.263 35.3518 108.336 35.3869C108.409 35.4221 108.44 35.5104 108.405 35.5845L107.417 37.7014C107.398 37.7427 107.362 37.7708 107.322 37.7815Z" fill="#4E88AF"/>
<path d="M77.6647 66.7499C77.6966 66.8788 77.7311 67.0054 77.7687 67.1284C77.7701 67.1331 77.7713 67.1382 77.7727 67.1427C77.824 67.3095 77.8806 67.4701 77.9423 67.6233C78.492 68.981 82.7221 69.172 86.885 68.6916C90.1138 68.319 93.3024 67.5418 94.7014 66.5904C96.015 65.6976 93.1982 57.4868 93.1982 57.4868L77.4076 60.8797C77.4076 60.8797 77.0586 64.2967 77.6647 66.7499Z" fill="#1B3431"/>
<path d="M88.6324 81.123H96.4687C96.1847 76.7269 95.7466 71.7923 95.2107 66.6094C95.1964 66.4711 95.1825 66.3331 95.1673 66.1942C95.1199 65.7337 95.0712 65.2706 95.0212 64.8062C95.0081 64.6825 94.9949 64.5585 94.9817 64.4341L93.4624 65.1472L93.0899 65.3222L87.1226 68.1234L87.1843 68.656L88.6324 81.123Z" fill="#1B3431"/>
<path d="M89.5679 81.1228H89.9589L88.3557 68.8944C88.3416 68.7869 88.2439 68.7107 88.138 68.7255C88.032 68.7398 87.9573 68.8386 87.9714 68.9462L89.5679 81.1228Z" fill="#414F50"/>
<path d="M91.4042 61.7931C91.4231 61.8945 91.8088 63.9018 93.0899 65.3216C93.3489 65.6087 93.644 65.8716 93.9802 66.0898C94.2427 66.2604 94.5177 66.3953 94.8054 66.4938C94.9378 66.5406 95.073 66.5791 95.2107 66.6088C95.1964 66.4706 95.1825 66.3325 95.1672 66.1936C95.1019 66.1767 95.0374 66.1577 94.9734 66.1364C94.6993 66.046 94.4375 65.9206 94.1891 65.7591C93.9199 65.5841 93.678 65.3755 93.4624 65.1466C92.1838 63.7968 91.7898 61.7443 91.7852 61.7202C91.7656 61.614 91.6646 61.5435 91.5587 61.5634C91.4536 61.584 91.3847 61.6865 91.4042 61.7931Z" fill="#414F50"/>
<path d="M88.2222 67.8367C88.2266 67.9232 88.1584 67.9975 88.0699 68.0029C88.0692 68.0029 88.0692 68.0029 88.0685 68.0029C87.9795 68.0075 87.9037 67.9403 87.8994 67.8534C87.8698 67.261 87.8342 66.6545 87.7954 66.0488C87.7887 65.9421 87.7817 65.8355 87.7743 65.7289C87.6436 63.7493 87.4786 61.8057 87.3542 60.4335C87.3441 60.3226 87.3346 60.2148 87.3247 60.1115C87.2969 59.8104 87.272 59.5435 87.2505 59.3174C87.3577 59.3002 87.4647 59.2824 87.5703 59.2642C87.5918 59.4903 87.617 59.7598 87.6447 60.0642C87.6546 60.1675 87.6639 60.2753 87.6743 60.3861C87.7972 61.7462 87.9611 63.6726 88.0918 65.6406C88.0995 65.7491 88.1064 65.8583 88.1138 65.9668C88.1545 66.5943 88.1914 67.2237 88.2222 67.8367Z" fill="#414F50"/>
<path d="M88.6788 65.7465C88.6284 65.7708 88.4022 65.8782 88.115 65.9667C88.0145 65.9979 87.9068 66.0265 87.7961 66.049C87.6951 66.0689 87.5923 66.0839 87.4904 66.0898C87.2949 66.1013 87.1061 66.0809 86.9483 66.0047C86.7519 65.91 86.6241 65.7371 86.5797 65.5054C86.4612 64.8949 86.2098 62.373 86.0404 60.5895C86.0295 60.4799 86.0196 60.3728 86.0097 60.269C85.9828 59.9838 85.9588 59.7241 85.9385 59.5036C86.0452 59.4903 86.1525 59.4769 86.2597 59.4624C86.2802 59.6841 86.3043 59.9468 86.332 60.2359C86.3417 60.3393 86.3519 60.4464 86.362 60.5565C86.5317 62.3355 86.7821 64.8537 86.8972 65.4454C86.9231 65.582 86.9853 65.6694 87.0922 65.7214C87.2632 65.8039 87.5197 65.7861 87.7748 65.7291C87.8835 65.705 87.9918 65.6738 88.0926 65.6406C88.2774 65.5796 88.4385 65.5105 88.5353 65.4636C88.6153 65.4247 88.7123 65.4564 88.7516 65.5344C88.7914 65.6124 88.7585 65.7076 88.6788 65.7465Z" fill="#414F50"/>
<path d="M77.7681 67.1241C77.7688 67.1253 77.7688 67.1271 77.7688 67.1286C77.7688 67.133 77.7695 67.1379 77.7707 67.1429C77.7827 67.2703 77.7947 67.4001 77.8067 67.5321C78.1573 71.28 78.6987 76.9143 79.1648 81.1226H86.9089L86.8804 66.0886C86.8804 66.0886 84.7226 65.0493 82.4056 64.2545C82.2804 64.2114 82.1547 64.1696 82.0283 64.1277C81.7891 64.0497 81.5495 63.9742 81.311 63.9037C81.1839 63.8662 81.0578 63.8301 80.9318 63.7952C79.5047 63.4017 78.1795 63.2077 77.437 63.5227C77.437 63.5227 77.5514 64.797 77.7335 66.7499C77.7448 66.8717 77.7568 66.9959 77.7681 67.1241Z" fill="#1B3431"/>
<path d="M80.2744 81.1229C79.8291 75.9922 79.2805 68.2245 79.2736 68.1249C79.2659 68.0167 79.173 67.9354 79.0663 67.9429C78.9595 67.9506 78.8791 68.0446 78.8867 68.1531C78.8939 68.2524 79.4397 75.9851 79.8852 81.1231L80.2744 81.1229Z" fill="#414F50"/>
<path d="M77.7676 67.1238C77.7683 67.125 77.7683 67.1268 77.7683 67.1283C77.7683 67.1327 77.769 67.1376 77.7701 67.1425C77.7821 67.27 77.7942 67.3998 77.8062 67.5318C78.3561 67.6248 78.8934 67.5756 79.4149 67.3823C80.4067 67.0155 81.1841 66.1909 81.7477 65.3698C82.015 64.9806 82.2341 64.5923 82.4048 64.2542C82.6946 63.681 82.8476 63.2512 82.8647 63.2034C82.9005 63.1003 82.8469 62.9888 82.7466 62.9525C82.6445 62.9157 82.5349 62.9698 82.4991 63.0722C82.4947 63.0835 82.336 63.5315 82.0275 64.1274C81.8646 64.4428 81.6603 64.7999 81.4147 65.1556C80.8874 65.9219 80.1731 66.6844 79.2809 67.0132C78.7949 67.1934 78.2887 67.2302 77.7676 67.1238Z" fill="#414F50"/>
<path d="M75.0446 49.1564C75.0723 49.5744 75.1068 49.9927 75.1495 50.4103C75.3628 52.5066 76.1559 59.5209 76.8687 61.485C79.4993 62.7776 82.4458 63.2472 85.255 63.1237C85.7902 63.0998 86.3205 63.0546 86.8427 62.9892C87.3049 62.9316 87.7608 62.858 88.2081 62.7701C91.1283 62.1974 93.6835 61.0049 95.2685 59.4988C94.5193 56.5549 93.6438 51.2187 93.3166 48.9296C93.2551 48.5026 93.2006 48.0876 93.1518 47.6815C93.1035 47.2862 93.061 46.9002 93.0236 46.5241C92.9808 46.0953 92.9438 45.677 92.9136 45.2723C92.881 44.8372 92.8551 44.4163 92.835 44.0095C92.8142 43.5748 92.7997 43.1554 92.7913 42.7512C92.676 37.2406 93.6687 34.5203 93.4062 33.1996C93.012 31.212 91.1987 31.2396 89.5479 30.6161C89.4516 30.5802 89.3554 30.5418 89.2602 30.5001C89.1958 30.4717 89.1327 30.4426 89.0701 30.4131C88.5035 30.1399 87.9766 29.753 87.5586 29.1367L82.7104 29.1461C82.7104 29.1461 82.3141 29.4732 81.6139 29.8369C81.5483 29.8718 81.4803 29.9056 81.4078 29.94C81.2342 30.0234 81.0431 30.1073 80.834 30.1882C80.3314 30.3831 79.7237 30.5622 79.0104 30.6784C76.8371 31.0336 75.5906 33.3781 75.3616 37.1799C75.2466 39.0996 75.1232 40.9088 75.0421 42.6527C75.0367 42.7687 75.0312 42.884 75.0264 42.9993C74.9339 45.1195 74.9097 47.1453 75.0446 49.1564Z" fill="white"/>
<path d="M88.444 51.9468L87.614 53.9895V53.99L87.2412 54.9076L86.1882 57.5007L85.6759 56.5013L85.4941 56.147L85.083 55.3461L84.9018 54.9917L84.49 54.1908L84.3086 53.8365L83.8975 53.0355V53.0351L83.7157 52.6812L83.3291 51.9283L83.3374 51.8465L83.3959 51.2481L83.5299 49.892L83.5891 49.2928L83.7224 47.9367L83.7813 47.3382L83.9149 45.9822L83.9738 45.3837L84.1074 44.0271L84.1663 43.4286L84.2999 42.0726L84.3588 41.4741L84.4923 40.118L84.5513 39.5188L84.6848 38.1634L84.7438 37.5643L84.8773 36.2082L84.9362 35.6097L85.0007 34.9566L85.0742 34.2079L86.096 34.165L86.1261 34.3982L86.1889 34.8732L86.2079 35.0187L86.3308 35.9488L86.3936 36.4233L86.536 37.4989L86.5984 37.9739L86.7407 39.0497L86.8029 39.524L86.9455 40.5998L87.0083 41.0741L87.1502 42.1504L87.2128 42.6246L87.3547 43.7005L87.4175 44.1748L87.5594 45.2506L87.6223 45.726L87.7642 46.8018L87.827 47.2761L87.9689 48.352L88.0317 48.8269L88.1736 49.9025L88.2365 50.377L88.3784 51.4526L88.4412 51.9276L88.444 51.9468Z" fill="#E2534D"/>
<path d="M86.2081 35.0187L85.6029 36.11L85.001 34.9566L85.0745 34.2079L86.0963 34.165L86.1263 34.3982L86.1892 34.8732L86.2081 35.0187Z" fill="#BA4131"/>
<path d="M75.0446 49.1564C75.0723 49.5745 75.1068 49.9928 75.1495 50.4104C75.3628 52.5067 76.1559 59.5209 76.8687 61.4851C79.4993 62.7777 82.4458 63.2473 85.255 63.1238L86.7309 60.7575L88.2081 62.7702C91.1283 62.1975 93.6835 61.005 95.2685 59.4989C94.9972 58.4325 94.709 57.0515 94.4364 55.6156C94.3714 55.2711 94.3063 54.9226 94.2432 54.5749C93.8434 52.375 93.497 50.1901 93.3166 48.9296C93.2551 48.5027 93.2006 48.0877 93.1518 47.6816C93.1035 47.2862 93.061 46.9003 93.0236 46.5242C92.9808 46.0954 92.9438 45.6771 92.9136 45.2724C92.881 44.8372 92.8551 44.4164 92.835 44.0096C92.8142 43.5749 92.7997 43.1554 92.7913 42.7512C92.676 37.2407 93.6687 34.5203 93.4062 33.1996C93.012 31.212 91.1987 31.2397 89.5479 30.6161C89.5204 30.6295 89.4929 30.6435 89.4654 30.6574L85.8636 46.8225L80.9246 30.2093C80.9246 30.2093 80.8927 30.2011 80.834 30.188C80.3314 30.383 79.7237 30.562 79.0104 30.6782C76.8371 31.0335 75.5906 33.3779 75.3616 37.1797C75.2466 39.0994 75.1232 40.9087 75.0421 42.6526C75.0367 42.7686 75.0312 42.8838 75.0264 42.9991C74.9339 45.1196 74.9097 47.1454 75.0446 49.1564Z" fill="#78B1DE"/>
<path d="M78.1071 62.2614C78.0371 62.2614 77.971 62.2178 77.9449 62.1475C75.5733 55.747 75.6112 43.5598 75.6119 43.4375C75.6124 43.3407 75.6898 43.2627 75.7852 43.2627C75.7852 43.2627 75.7857 43.2627 75.7862 43.2627C75.8821 43.2634 75.9592 43.3424 75.9585 43.4394C75.9578 43.5612 75.9202 55.6842 78.2693 62.024C78.3028 62.1149 78.2575 62.2161 78.1679 62.2504C78.148 62.2576 78.1274 62.2614 78.1071 62.2614Z" fill="#4E88AF"/>
<path d="M90.1514 54.3128C91.521 54.8773 93.2656 55.3382 94.4365 55.6154C94.3715 55.271 94.3064 54.9225 94.2433 54.5748C92.4515 54.1291 90.3739 53.4619 90.3739 53.4619L90.1514 54.3128Z" fill="#4E88AF"/>
<path d="M82.844 54.146C82.844 54.146 79.3159 56.2951 77.7007 56.909L78.1922 57.7805C78.1922 57.7805 81.26 56.3672 83.256 54.9207L82.844 54.146Z" fill="#4E88AF"/>
<path d="M89.4648 30.657C89.4648 30.657 90.721 29.9943 91.6467 31.2731L90.8386 36.5699L89.0122 37.6706L90.2505 38.4202L88.8652 44.5777L85.8633 46.8224L89.4648 30.657Z" fill="#4E88AF"/>
<path d="M81.6329 30.187C81.6329 30.187 80.3012 29.3286 79.3804 30.6111L80.5189 36.5906L82.3495 37.684L81.1139 38.4385L82.5223 44.5904L85.8635 46.8229L81.6329 30.187Z" fill="#4E88AF"/>
<path d="M86.8859 59.1171C86.869 59.3212 86.6922 59.4728 86.491 59.4557C86.2897 59.4386 86.1402 59.2594 86.1571 59.0553C86.1739 58.8512 86.3507 58.6995 86.552 58.7166C86.7532 58.7338 86.9027 58.913 86.8859 59.1171Z" fill="#4E88AF"/>
<path d="M86.7308 56.3701C86.7139 56.5742 86.5372 56.7258 86.3359 56.7087C86.1346 56.6916 85.9851 56.5123 86.0018 56.3082C86.0186 56.1041 86.1954 55.9525 86.3967 55.9696C86.5979 55.9864 86.7474 56.1659 86.7308 56.3701Z" fill="#4E88AF"/>
<path d="M86.5758 53.6225C86.5589 53.8266 86.3822 53.9782 86.1809 53.9611C85.9796 53.944 85.8301 53.7647 85.847 53.5606C85.8639 53.3565 86.0406 53.2049 86.2419 53.222C86.4432 53.2391 86.5927 53.4184 86.5758 53.6225Z" fill="#4E88AF"/>
<path d="M86.4205 50.8744C86.4037 51.0785 86.2269 51.2302 86.0256 51.2131C85.8244 51.196 85.6749 51.0167 85.6917 50.8126C85.7086 50.6085 85.8854 50.4569 86.0866 50.474C86.2879 50.4911 86.4374 50.6703 86.4205 50.8744Z" fill="#4E88AF"/>
<path d="M86.2658 48.1269C86.2489 48.331 86.0721 48.4826 85.8709 48.4655C85.6696 48.4484 85.5201 48.2691 85.5369 48.065C85.5538 47.8609 85.7306 47.7093 85.9319 47.7264C86.1331 47.7435 86.2826 47.9228 86.2658 48.1269Z" fill="#4E88AF"/>
<path d="M92.6563 42.9482C92.7543 43.0403 92.9137 42.9684 92.9137 42.833C92.914 41.6222 92.9579 40.3219 93.0459 38.9527C93.0501 38.8903 93.0531 38.8404 93.0554 38.8039C93.0605 38.7164 92.9951 38.6415 92.9089 38.6361C92.8204 38.6304 92.7488 38.6972 92.7434 38.7846C92.7414 38.8207 92.7381 38.8702 92.7342 38.9318C92.6457 40.3059 92.6018 41.6116 92.6016 42.8292C92.6016 42.8735 92.6207 42.915 92.6529 42.9452C92.6542 42.9461 92.6552 42.9473 92.6563 42.9482Z" fill="#4E88AF"/>
<path d="M82.2008 23.4444C82.2008 23.4444 81.0921 22.6406 80.8296 21.3771C80.5985 20.264 81.5228 20.264 81.5228 20.264C81.5228 20.264 80.7665 19.0556 81.2194 18.1515C81.786 17.0207 82.9192 17.2376 82.9192 17.2376C82.9192 17.2376 82.6146 15.4394 85.4363 15.5856C88.258 15.7321 89.9375 15.8401 90.395 17.0769C90.8525 18.3135 89.7006 18.6757 89.7006 18.6757C89.7006 18.6757 90.8405 19.3783 90.2836 20.1087C89.7267 20.8391 89.0305 20.6237 89.0305 20.6237L82.2008 23.4444Z" fill="#1B3431"/>
<path d="M87.8979 22.948C87.8979 22.948 88.2478 21.6128 89.3179 21.8621C90.388 22.1114 90.5935 25.673 88.5782 25.6578L87.8979 22.948Z" fill="#D37363"/>
<path d="M82.8316 29.5248C82.8316 29.5248 82.5805 29.9747 84.5442 30.5251C85.5803 30.8157 86.8351 30.5397 87.4592 30.1666C87.7129 30.0152 87.858 29.8992 87.858 29.8992C87.5382 28.3885 87.7963 27.4078 87.8705 27.1737C87.8821 27.1379 87.889 27.1198 87.889 27.1198L82.7729 24.5405L82.8316 29.5248Z" fill="#F49D8B"/>
<path d="M83.4985 26.5762C83.4985 26.5762 84.729 30.0033 87.4587 30.1668C87.7125 30.0155 87.8576 29.8995 87.8576 29.8995C87.5378 28.3887 87.7959 27.4081 87.8701 27.174L83.4985 26.5762Z" fill="#1B3431"/>
<path d="M85.4832 28.3651C87.5925 28.7598 89.2613 27.825 89.4448 25.9923C89.4894 25.5503 89.5065 24.9113 89.5081 24.2453C89.5081 24.2383 89.5084 24.232 89.5084 24.225C89.5084 24.0837 89.5079 23.9403 89.5077 23.7975C89.5072 23.6942 89.5063 23.5909 89.5049 23.4885C89.4922 22.3006 89.4478 21.2248 89.4478 21.2248C89.1153 18.2783 86.2245 17.2095 83.9292 18.3531C81.6346 19.4971 82.5578 23.0777 82.5825 24.8305C82.6065 26.5837 83.6743 28.0272 85.4832 28.3651Z" fill="#F49D8B"/>
<path d="M85.9004 24.8667C85.9004 24.8667 86.1985 25.8446 86.9869 26.003C87.8844 26.1834 88.0862 25.0448 88.0862 25.0448L85.9004 24.8667Z" fill="white"/>
<path d="M85.3322 21.9632C84.736 22.0918 84.5666 21.4446 85.1048 21.1074C85.3504 20.9534 85.6196 20.8217 85.8965 20.8199C86.6828 20.8142 86.7069 21.3764 86.3131 21.6044C86.1248 21.7134 85.6746 21.8894 85.3322 21.9632Z" fill="#1B3431"/>
<path d="M88.7211 21.6413C89.3284 21.6952 89.4187 21.032 88.844 20.7637C88.5817 20.6412 88.2987 20.5439 88.0237 20.576C87.2426 20.6676 87.2861 21.2284 87.7041 21.4063C87.9045 21.4911 88.3722 21.6104 88.7211 21.6413Z" fill="#1B3431"/>
<path d="M89.2691 24.2758C89.3513 24.2695 89.4317 24.259 89.5075 24.2449C89.5075 24.2379 89.5078 24.2315 89.5078 24.2245C89.5078 24.0832 89.5073 23.9398 89.5071 23.7971C89.5066 23.6937 89.5057 23.5904 89.5043 23.488C89.4112 23.4836 89.312 23.4845 89.2104 23.4925C88.6807 23.5332 88.2653 23.7413 88.2812 23.9576C88.2972 24.1739 88.7394 24.3166 89.2691 24.2758Z" fill="#D37363"/>
<path d="M89.0725 24.1107C88.3631 24.252 87.6729 23.7817 87.5335 23.0623C87.3942 22.3431 87.8579 21.6429 88.5674 21.5016C89.2765 21.3603 89.967 21.8306 90.1063 22.55C90.2454 23.2694 89.7817 23.9696 89.0725 24.1107ZM88.6043 21.6931C87.9989 21.8135 87.6033 22.4111 87.7221 23.0248C87.8408 23.6385 88.4301 24.0399 89.0353 23.9195C89.6405 23.799 90.0363 23.2015 89.9173 22.5878C89.7988 21.974 89.2095 21.5726 88.6043 21.6931Z" fill="white"/>
<path d="M87.4934 24.4599C87.5095 24.4588 87.5255 24.4534 87.5396 24.4433C88.0151 24.1113 88.1057 23.9362 88.1191 23.9046C88.1316 23.8748 88.1286 23.8408 88.111 23.8139L87.4224 22.7631C87.4203 22.7599 87.4183 22.757 87.4157 22.754C87.2681 22.578 87.2403 22.2132 87.2216 21.7897C87.2193 21.737 87.1752 21.696 87.1229 21.6983C87.0702 21.7016 87.0305 21.7454 87.0328 21.7984C87.0531 22.2544 87.085 22.6504 87.268 22.8735L87.9192 23.8671C87.8702 23.9299 87.7408 24.0702 87.4326 24.2856C87.3896 24.3156 87.3787 24.3751 87.4083 24.4187C87.428 24.4478 87.4608 24.4625 87.4934 24.4599Z" fill="#1B3431"/>
<path d="M83.7397 23.8767C83.7559 24.0929 84.1982 24.2352 84.7278 24.1944C85.2572 24.1536 85.6734 23.9453 85.6572 23.729C85.641 23.5127 85.1987 23.3705 84.6691 23.4113C84.1397 23.452 83.7235 23.6604 83.7397 23.8767Z" fill="#D37363"/>
<path d="M85.9494 24.1976C85.2403 24.3389 84.5498 23.8686 84.4105 23.1492C84.2711 22.4298 84.7349 21.7299 85.4443 21.5886C86.1537 21.4472 86.8439 21.9176 86.9833 22.637C87.1224 23.3563 86.6586 24.0565 85.9494 24.1976ZM85.4813 21.78C84.8761 21.9004 84.4803 22.498 84.599 23.1117C84.7178 23.7254 85.3071 24.1268 85.9122 24.0064C86.5174 23.8859 86.9133 23.2884 86.7945 22.6747C86.6757 22.0607 86.0865 21.6596 85.4813 21.78Z" fill="white"/>
<path d="M87.6173 22.9071C87.6166 22.9074 87.6159 22.9074 87.6152 22.9076C87.563 22.9167 87.5131 22.8814 87.5041 22.8282C87.5022 22.8183 87.4569 22.5772 87.2765 22.5861C87.0759 22.5962 87.0003 22.8223 86.9996 22.8244C86.9832 22.8755 86.9289 22.9036 86.8783 22.8867C86.8279 22.8701 86.8002 22.815 86.8168 22.7637C86.8215 22.7492 86.9349 22.4075 87.2672 22.3911C87.5475 22.3773 87.6688 22.6489 87.6936 22.7947C87.7023 22.8471 87.6684 22.8971 87.6173 22.9071Z" fill="white"/>
<path d="M84.5274 22.7328C84.4876 22.7408 84.4456 22.7223 84.4248 22.6846C83.9053 21.7372 82.9378 22.203 82.8969 22.2234C82.8493 22.2468 82.7917 22.2271 82.7682 22.1789C82.7448 22.1306 82.7642 22.0723 82.8118 22.0486C82.8236 22.0427 83.9836 21.4789 84.5928 22.5899C84.6186 22.637 84.6018 22.6963 84.5556 22.7225C84.5465 22.7274 84.5371 22.731 84.5274 22.7328Z" fill="white"/>
<path d="M89.4478 21.426C89.5122 20.8132 89.5663 19.6771 88.5919 18.5409C87.1363 16.8434 84.1663 16.938 82.9818 18.6644C81.7973 20.3907 82.3793 21.8923 82.3793 21.8923C82.3793 21.8923 82.857 22.0676 83.0894 23.015L83.7212 22.9885C83.7212 22.9885 83.9597 22.1957 83.7096 20.9041C83.4596 19.6125 85.708 18.3201 87.2343 18.6126C88.7605 18.9048 89.246 20.3122 89.246 20.3122C89.246 20.3122 89.4154 20.8282 89.4478 21.426Z" fill="#1B3431"/>
<path d="M84.5244 19.3582C84.5244 19.3582 85.5869 18.9362 86.1004 19.1412C86.6136 19.3463 87.3581 19.6148 87.918 19.2052C88.4781 18.7956 89.1215 20.009 89.1215 20.009C89.1215 20.009 88.4093 17.8489 86.651 18.2983C84.8925 18.7476 84.8995 18.5788 84.5244 19.3582Z" fill="#1B3431"/>
<path d="M87.2539 26.4103C87.2938 26.3993 87.3186 26.3892 87.3225 26.3876C87.3706 26.3674 87.3934 26.3112 87.3736 26.2625C87.3537 26.2137 87.2989 26.19 87.2504 26.2107C87.2363 26.2165 86.92 26.3421 86.6572 26.1144C86.6177 26.0799 86.5581 26.0846 86.5241 26.1249C86.4901 26.1652 86.495 26.2254 86.5345 26.2599C86.807 26.4956 87.1182 26.4478 87.2539 26.4103Z" fill="#D37363"/>
<path d="M82.9825 22.4189C82.9825 22.4189 82.3715 21.4387 81.3846 21.9268C80.3976 22.4149 80.9908 25.9315 82.9504 25.4551L82.9825 22.4189Z" fill="#F49D8B"/>
<path d="M82.5488 24.2114C82.5555 24.2109 82.5622 24.2097 82.5689 24.2076C82.6188 24.1924 82.6472 24.1389 82.6322 24.0883C82.6195 24.0452 82.3087 23.0301 81.3917 22.8883C81.3404 22.8803 81.2922 22.9162 81.2843 22.9685C81.2764 23.0207 81.3118 23.0695 81.3633 23.0774C82.1635 23.2011 82.4485 24.1338 82.4512 24.1432C82.4642 24.1872 82.5053 24.2146 82.5488 24.2114Z" fill="#1B3431"/>
<path d="M81.6983 23.8994C81.7219 23.8975 81.745 23.8867 81.7619 23.8673C81.7637 23.8652 81.941 23.6627 82.1524 23.46C82.1903 23.4237 82.1921 23.3632 82.1563 23.3246C82.1205 23.2859 82.0609 23.2843 82.0228 23.3206C81.8046 23.5294 81.6278 23.7319 81.6205 23.7403C81.5858 23.7799 81.5895 23.8404 81.6285 23.8755C81.6484 23.8933 81.6738 23.9013 81.6983 23.8994Z" fill="#1B3431"/>
<path d="M85.5787 22.8727C85.581 23.0855 85.6801 23.257 85.8 23.2556C85.92 23.2542 86.0152 23.0805 86.0128 22.8678C86.0105 22.655 85.9114 22.4837 85.7915 22.4849C85.6716 22.4863 85.5763 22.6599 85.5787 22.8727Z" fill="#1B3431"/>
<path d="M88.0245 22.8795C88.0268 23.0923 88.1259 23.2638 88.2458 23.2624C88.3658 23.261 88.4612 23.0874 88.4587 22.8746C88.4563 22.6618 88.3572 22.4905 88.2373 22.4917C88.1174 22.4931 88.0219 22.6668 88.0245 22.8795Z" fill="#1B3431"/>
<path d="M82.7558 28.2896C82.7558 28.2896 82.0254 28.514 81.6328 30.1862C82.1414 31.7061 83.5727 32.9825 85.5808 33.3556L85.575 30.366C85.575 30.366 83.8029 29.9203 82.7558 28.2896Z" fill="white"/>
<path d="M87.7547 28.7119C87.7547 28.7119 88.9619 28.9894 89.4649 30.6571C88.1713 32.2597 87.48 32.8629 85.581 33.3557L85.5752 30.3661C85.5752 30.3661 86.7142 30.3466 87.7547 28.7119Z" fill="white"/>
<path d="M84.2173 32.922L85.5841 34.9738L86.8862 32.9168L85.5769 31.2036L84.2173 32.922Z" fill="#E2534D"/>
<path d="M88.3313 35.0188C88.3643 35.0188 88.3974 35.0082 88.4255 34.9862C88.4942 34.933 88.5073 34.8336 88.4549 34.7641L85.7011 31.1071C85.6727 31.0693 85.6288 31.0464 85.5819 31.045C85.5352 31.0438 85.4899 31.0635 85.459 31.0993L82.738 34.2687C82.6814 34.3348 82.6884 34.4348 82.7533 34.4922C82.8185 34.5496 82.9169 34.5428 82.9737 34.4768L85.5687 31.4539L88.2062 34.9567C88.2374 34.9974 88.2841 35.0188 88.3313 35.0188Z" fill="#E9CEC2"/>
<path d="M85.577 31.3619C85.5774 31.3619 85.5777 31.3619 85.5781 31.3619C85.6643 31.3612 85.7336 31.2895 85.733 31.2021L85.7267 30.5051C85.726 30.418 85.656 30.3479 85.57 30.3481C85.57 30.3481 85.5694 30.3481 85.5689 30.3481C85.4827 30.3488 85.4134 30.4206 85.4141 30.508L85.4203 31.2049C85.4212 31.292 85.4913 31.3621 85.577 31.3619Z" fill="#E9CEC2"/>
<path d="M77.5814 60.6872C77.9239 60.5918 78.4253 60.9552 78.8782 61.0764C79.4758 61.2364 80.3232 61.6636 80.7386 62.032C80.991 62.2555 82.2469 63.7091 82.8133 64.3423C82.9436 64.488 82.9436 64.7186 82.7994 64.8503C82.6134 65.0202 82.2235 65.0171 81.4712 64.3132C81.4356 64.2839 81.205 64.0805 81.1812 64.0613C80.8429 63.7862 80.5131 63.7269 80.5131 63.7269C80.5131 63.7269 80.932 64.1091 81.6484 64.8004C80.8667 66.1792 79.5948 67.4924 77.9006 67.1491C77.6142 66.7378 77.3141 66.0245 77.2332 65.8762C76.9125 65.2861 75.9193 63.7684 75.6344 62.9367C75.441 62.3711 76.4975 60.9894 77.5814 60.6872Z" fill="#F49D8B"/>
<path d="M76.8847 31.9316L76.7298 32.0579L76.6078 32.1603L76.3788 32.3574C76.2303 32.4872 76.0868 32.6159 75.9458 32.7452C75.6653 33.0049 75.3947 33.2666 75.1299 33.5319C74.6 34.0619 74.0937 34.6068 73.6045 35.1671C72.6317 36.2916 71.7307 37.4804 70.9159 38.7401C70.0984 39.9973 69.3733 41.3286 68.7496 42.7205C68.442 43.4188 68.1594 44.1314 67.9108 44.86C67.7848 45.2234 67.6698 45.5918 67.56 45.962C67.5069 46.1481 67.4526 46.3332 67.4038 46.5209L67.3664 46.6613L67.3476 46.7313L67.3109 46.8764C67.2511 47.1252 67.2162 47.3549 67.197 47.5602C67.1773 47.7675 67.1706 47.9595 67.1727 48.134C67.1739 48.3119 67.1836 48.4731 67.1965 48.628C67.2238 48.9345 67.267 49.2068 67.3169 49.4597C67.4181 49.9623 67.5445 50.3942 67.679 50.801C67.814 51.2068 67.9586 51.5834 68.1086 51.9469C68.2579 52.3105 68.4145 52.658 68.5751 52.9978C68.8961 53.6765 69.2318 54.3218 69.5764 54.9522C69.9202 55.5825 70.2772 56.1944 70.64 56.7971C71.3645 58.0027 72.1203 59.1668 72.8958 60.3118C73.2859 60.8826 73.6805 61.4483 74.0805 62.0105C74.2807 62.2914 74.4817 62.5719 74.6855 62.8512L74.9949 63.2693L75.3152 63.6967L79.4898 60.713L79.2405 60.3078L78.9861 59.8891L78.4766 59.0473C78.139 58.484 77.8064 57.9174 77.4804 57.3489C76.8244 56.2143 76.1903 55.0719 75.5932 53.9307C75.2955 53.3599 75.0097 52.7879 74.7366 52.2203C74.4648 51.6528 74.2093 51.0864 73.9837 50.5327C73.7605 49.9808 73.5583 49.4358 73.4257 48.9558C73.3596 48.7185 73.3111 48.497 73.2896 48.3356C73.2789 48.2564 73.2757 48.1936 73.2773 48.1633C73.2785 48.1497 73.2799 48.142 73.2824 48.1509C73.2838 48.1565 73.2861 48.1795 73.2838 48.2189C73.2812 48.2561 73.2755 48.3189 73.2561 48.404L73.2482 48.4361L73.2461 48.4441C73.2457 48.4457 73.2473 48.4408 73.2477 48.4396L73.2519 48.4267L73.2683 48.3752L73.3009 48.2723C73.3429 48.1347 73.3905 47.9984 73.4361 47.8617C73.531 47.5892 73.6292 47.3174 73.7372 47.0481C73.9488 46.5085 74.1898 45.9773 74.4487 45.4526C74.9653 44.4018 75.5786 43.3869 76.255 42.4065C76.5937 41.9165 76.9524 41.438 77.3246 40.9691C77.696 40.4995 78.0851 40.0421 78.487 39.5976C78.8865 39.1514 79.3001 38.7174 79.7241 38.3041C79.9358 38.0971 80.1502 37.8956 80.364 37.7023C80.4701 37.605 80.5761 37.5099 80.6799 37.4192L80.8319 37.2882L80.9419 37.1964L76.8847 31.9316Z" fill="#78B1DE"/>
<path d="M73.1388 48.4354C73.2102 48.4352 73.2744 48.3853 73.2908 48.3119C73.3098 48.2266 73.2569 48.1418 73.1728 48.1226C73.1182 48.1102 71.8242 47.8166 70.7446 47.7711C70.6593 47.768 70.5856 47.8353 70.5822 47.9227C70.5787 48.0101 70.6455 48.0839 70.7317 48.0877C71.7826 48.132 73.091 48.4286 73.1041 48.4317C73.1157 48.4343 73.1272 48.4354 73.1388 48.4354Z" fill="#4E88AF"/>
<path d="M73.048 48.4154C73.0949 48.4154 73.1414 48.3938 73.1721 48.353C73.2243 48.2835 73.2111 48.1841 73.1425 48.1311C72.6175 47.7253 71.8806 47.2721 71.8494 47.2529C71.7757 47.2076 71.6796 47.2315 71.635 47.3063C71.5901 47.381 71.6139 47.4785 71.6877 47.5237C71.695 47.5284 72.4417 47.9875 72.9533 48.383C72.9814 48.4051 73.015 48.4156 73.048 48.4154Z" fill="#4E88AF"/>
<path d="M75.0447 44.7631C75.096 44.7628 75.1462 44.7373 75.176 44.6902C75.204 44.6461 77.9857 40.2709 79.7851 38.6957C79.8504 38.6386 79.8576 38.5385 79.8012 38.4724C79.7448 38.4061 79.6462 38.3988 79.5808 38.456C77.747 40.0614 75.0279 44.3377 74.913 44.5191C74.8663 44.5927 74.8874 44.6906 74.9599 44.738C74.9863 44.7548 75.0156 44.7631 75.0447 44.7631Z" fill="#4E88AF"/>
<path d="M78.7282 39.7014C78.7358 39.7014 78.7439 39.7007 78.7517 39.6995L80.0911 39.4917C80.1763 39.4786 80.2348 39.3977 80.2218 39.3113C80.2089 39.2248 80.129 39.1653 80.0437 39.1786L78.7044 39.3862C78.6191 39.3994 78.5606 39.4802 78.5736 39.5667C78.5854 39.6452 78.6521 39.7014 78.7282 39.7014Z" fill="#4E88AF"/>
<path d="M73.9183 61.6966C73.9488 61.6966 73.9795 61.6875 74.0065 61.6685L78.1433 58.7776C78.2142 58.7279 78.2322 58.6292 78.1832 58.5573C78.1343 58.4853 78.037 58.4671 77.966 58.5167L73.8293 61.4077C73.7583 61.4574 73.7403 61.556 73.7893 61.628C73.8196 61.6727 73.8686 61.6966 73.9183 61.6966Z" fill="#4E88AF"/>
<path d="M76.4124 62.8881C76.442 62.8881 76.472 62.8794 76.4984 62.8616C76.5702 62.8131 76.5899 62.7149 76.542 62.642L75.2649 60.6919C75.2173 60.619 75.1202 60.5991 75.0483 60.6476C74.9765 60.6961 74.9568 60.7943 75.0047 60.8672L76.2818 62.8171C76.3119 62.8632 76.3616 62.8883 76.4124 62.8881Z" fill="#4E88AF"/>
<path d="M77.0998 61.261C77.0074 61.4431 76.7869 61.5148 76.6071 61.421C76.4276 61.3273 76.3569 61.1038 76.4493 60.9214C76.5417 60.7394 76.7622 60.6677 76.942 60.7614C77.1215 60.8551 77.1922 61.0789 77.0998 61.261Z" fill="#4E88AF"/>
</g>
</svg>
