<svg width="245" height="229" viewBox="0 0 245 229" fill="none" xmlns="http://www.w3.org/2000/svg">
<path d="M52.328 202.567C5.12078 167.875 -10.1458 121.799 6.52835 64.3387C23.2025 6.87897 55.0348 -12.0936 102.025 7.42105C149.016 26.9357 189.727 56.2077 224.158 95.2369C258.589 134.266 250.36 170.585 199.472 204.194C148.583 237.802 99.5352 237.26 52.328 202.567Z" fill="#FFE3E8"/>
<mask id="mask0_2017_2764" style="mask-type:luminance" maskUnits="userSpaceOnUse" x="39" y="15" width="168" height="125">
<path d="M39.2705 15.9995H206.115V139.058H39.2705V15.9995Z" fill="white"/>
</mask>
<g mask="url(#mask0_2017_2764)">
<path d="M195.717 138.41H109.782H175.847V113.805H158.353V90.5614L200.097 70.7494L116.919 41.875L44.5511 70.6834C56.105 38.7855 86.7366 15.9912 122.706 15.9912C168.591 15.9912 205.786 53.0866 205.786 98.8401C205.786 113.174 202.139 126.654 195.717 138.41ZM48.5853 136.307C47.7356 134.636 46.9394 132.937 46.2011 131.204C48.1563 126.386 51.1551 122.08 54.9789 118.578V124.217C52.0255 127.677 49.8104 131.79 48.5853 136.307ZM44.3573 126.469C41.2924 117.827 39.626 108.53 39.626 98.8401C39.626 91.0564 40.7026 83.5202 42.7197 76.3758L70.4102 88.8784C70.0018 89.1135 69.6141 89.3404 69.2511 89.5632C68.5086 90.0251 67.927 91.7947 67.5599 93.2797C66.145 93.4158 65.0396 94.6079 65.0396 96.0558C65.0396 97.3345 65.9017 98.4111 67.0814 98.7411C67.069 98.902 67.0649 99.0711 67.0608 99.2485C66.6483 101.129 66.1863 103.91 65.8315 107.853V107.857C61.9376 109.247 58.2706 111.268 54.9954 113.805H54.9789V113.822C52.2317 115.95 49.7691 118.442 47.6778 121.23C46.4238 122.901 45.3142 124.65 44.3573 126.469ZM72.5675 113.805H70.0472C69.874 112.011 69.6223 110.031 69.2717 107.845C68.5952 103.637 68.3807 100.7 68.3395 98.7947C69.6388 98.5555 70.6288 97.4211 70.6288 96.0558C70.6288 95.1318 70.1751 94.3109 69.4821 93.8036C69.8946 92.5372 70.4597 91.242 71.1114 90.9161C71.6353 90.6521 72.2087 90.3799 72.8191 90.0911V113.756C72.7366 113.772 72.6542 113.789 72.5675 113.805ZM69.4945 113.805H69.181C69.0861 112.048 68.9046 110.113 68.6282 107.981C68.4591 106.673 68.3312 105.489 68.2281 104.417C68.3601 105.473 68.5251 106.64 68.7314 107.931C69.0779 110.085 69.3253 112.036 69.4945 113.805ZM68.6324 113.805H68.1209C68.125 112.914 68.1085 111.978 68.0672 110.992C68.1786 110.955 68.2941 110.918 68.4055 110.885C68.5045 111.912 68.5787 112.881 68.6324 113.805ZM67.5681 113.805H66.9081C66.97 113.017 67.0236 112.197 67.0649 111.33C67.2175 111.277 67.3701 111.223 67.5228 111.174C67.5558 112.093 67.5723 112.968 67.5681 113.805ZM62.8905 113.805H61.587C61.9376 113.611 62.2924 113.422 62.6512 113.236L62.8905 113.805ZM66.4338 112.704L66.0213 111.718C66.1822 111.656 66.343 111.594 66.5039 111.537C66.4833 111.933 66.4585 112.324 66.4338 112.704ZM68.3849 110.658L67.9889 109.396C67.96 108.843 67.9188 108.278 67.8734 107.696C67.7785 106.463 67.7084 105.337 67.663 104.31C67.7661 105.432 67.9023 106.673 68.0837 108.051C68.2034 108.958 68.3024 109.825 68.3849 110.658ZM66.4049 107.659C66.4957 106.657 66.5947 105.729 66.6978 104.875C66.6648 105.712 66.64 106.611 66.6235 107.585C66.5493 107.61 66.475 107.634 66.4049 107.659ZM67.1804 107.403C67.1845 106.958 67.1969 106.525 67.2093 106.108C67.234 106.517 67.2629 106.933 67.2959 107.37C67.2546 107.379 67.2175 107.395 67.1804 107.403Z" fill="#F7CD5A"/>
</g>
<mask id="mask1_2017_2764" style="mask-type:luminance" maskUnits="userSpaceOnUse" x="40" y="184" width="191" height="25">
<path d="M40.3262 184.465H231V208.039H40.3262V184.465Z" fill="white"/>
</mask>
<g mask="url(#mask1_2017_2764)">
<path d="M135.582 208.051C83.0971 208.051 40.5527 202.095 40.5527 194.744C40.5527 190.611 54.0206 186.919 75.1484 184.478V187.254L74.5173 192.513L74.443 193.136H69.4519V198.647H88.179V193.136H83.4436L82.8331 187.435H157.774L155.531 188.78L160.513 191.758V191.766H207.562H209.167V186.325C222.573 188.619 230.616 191.552 230.616 194.744C230.616 202.095 188.072 208.051 135.582 208.051ZM169.753 203.106H171.358V198.647H214.744V192.674H167.695L162.716 195.66L165.183 197.133H122.704L117.726 200.119L119.24 201.027L122.704 203.102V203.106H169.753ZM214.744 198.647H216.348V192.674H214.744V198.647ZM151.657 194.753H153.262V188.78H151.657V194.753ZM104.608 194.753H151.657V188.78H104.608L100.686 191.135L99.6297 191.766L104.608 194.744V194.753ZM205.892 185.793H196.017V184.478C199.531 184.882 202.831 185.323 205.892 185.793Z" fill="#F1AF23"/>
</g>
<path d="M75.1494 187.435H196.018V162.834H75.1494V187.435Z" fill="#8E6BBC"/>
<path d="M75.1494 182.993H188.803V167.277H75.1494V182.993Z" fill="#FDE5DB"/>
<path d="M157.776 187.436H82.8341L82.3845 183.278C83.1806 183.208 83.9685 183.113 84.7563 182.993H188.803V167.277H182.311C182.055 165.858 181.712 164.439 181.374 163.016H196.018V185.794H160.514L157.776 187.436ZM75.1494 187.254V183.249C75.3062 183.261 75.467 183.278 75.6238 183.29L75.1494 187.254Z" fill="#8662B7"/>
<path d="M188.804 182.993H84.7568C88.098 182.49 91.3691 181.561 94.4586 180.225C102.201 180.213 109.944 180.2 117.686 180.2C126.113 180.2 134.54 180.217 142.972 180.266C148.796 180.299 154.62 180.411 160.449 180.415C160.54 180.415 160.63 180.415 160.725 180.415C161.509 180.415 162.289 180.411 163.072 180.411C163.852 180.406 164.632 180.406 165.415 180.406C166.372 180.406 167.329 180.406 168.286 180.419C170.473 180.444 172.646 180.716 174.833 180.716C175.026 180.716 175.22 180.712 175.41 180.708C178.194 180.646 180.69 179.734 181.936 177.123C183.124 174.636 182.872 171.559 182.559 168.91C182.493 168.366 182.406 167.821 182.311 167.277H188.804V182.993Z" fill="#EAC9D2"/>
<path d="M54.9785 138.411H175.847V113.806H54.9785V138.411Z" fill="#F03098"/>
<path d="M79.1426 130.021H151.683V122.196H79.1426V130.021Z" fill="#FCCE2C"/>
<path d="M151.683 130.021H106.824C106.432 129.27 106.003 128.536 105.554 127.818C110.999 127.863 116.443 127.909 121.892 127.942C125.527 127.962 129.156 127.979 132.791 127.983C135.043 127.987 137.344 128.251 139.621 128.251C140.384 128.251 141.148 128.218 141.902 128.14C143.486 127.975 145.499 127.08 145.99 125.034C146.221 124.093 146.234 123.145 146.172 122.196H151.683V130.021Z" fill="#FABB25"/>
<path d="M65.126 135.197H70.3811V117.815H65.126V135.197Z" fill="#FCCE2C"/>
<path d="M158.663 135.197H163.922V117.815H158.663V135.197Z" fill="#FCCE2C"/>
<path d="M158.663 134.488V133.11C159.03 133.147 159.397 133.172 159.748 133.172C161.221 133.172 162.491 132.735 162.887 130.957C163.258 129.29 163.114 120.41 163.13 117.815H163.922V132.722C162.549 134.071 160.627 134.381 158.663 134.488Z" fill="#FABB25"/>
<path d="M175.847 138.411H109.783C109.519 137.074 109.168 135.767 108.739 134.5C122.64 134.608 136.17 134.686 145.265 134.686C150.892 134.686 154.827 134.653 156.102 134.591C156.939 134.55 157.805 134.537 158.663 134.488V135.197H163.922V132.723C164.19 132.454 164.438 132.149 164.665 131.799C166.166 129.423 166.855 126.23 166.756 123.429C166.637 120.179 166.744 117.044 166.624 113.806H175.847V138.411Z" fill="#EF2292"/>
<path d="M163.922 135.198H158.663V134.488C160.627 134.381 162.549 134.072 163.922 132.723V135.198Z" fill="#F68A29"/>
<path d="M132.346 163.016H219.344V138.411H132.346V163.016Z" fill="#6BB4E6"/>
<path d="M219.344 163.016H133.728V158.932C153.148 159.134 175.6 159.287 188.766 159.287C194.393 159.287 198.324 159.258 199.602 159.196C202.708 159.035 206.301 159.332 208.162 156.399C209.667 154.028 209.552 150.711 209.374 148.034C209.152 144.788 208.483 141.566 207.683 138.411H219.344V163.016Z" fill="#58A0DD"/>
<path d="M143.953 158.825H148.858V142.602H143.953V158.825Z" fill="#FCCE2C"/>
<path d="M148.858 158.825H143.953V156.874C144.295 156.911 144.634 156.932 144.964 156.932C146.341 156.932 147.525 156.523 147.892 154.865C148.243 153.31 148.107 145.023 148.123 142.602H148.858V158.825Z" fill="#FABB25"/>
<path d="M151.415 158.825H156.315V142.602H151.415V158.825Z" fill="#FCCE2C"/>
<path d="M156.315 158.825H151.415V156.874C151.753 156.911 152.092 156.932 152.422 156.932C153.795 156.932 154.979 156.523 155.35 154.865C155.701 153.31 155.565 145.023 155.577 142.602H156.315V158.825Z" fill="#FABB25"/>
<path d="M158.869 158.825H163.774V142.602H158.869V158.825Z" fill="#FCCE2C"/>
<path d="M163.774 158.825H158.869V156.874C159.212 156.911 159.55 156.936 159.88 156.936C161.253 156.936 162.441 156.523 162.813 154.865C163.159 153.31 163.023 145.023 163.035 142.602H163.774V158.825Z" fill="#FABB25"/>
<path d="M69.7461 163.016H133.728V138.411H69.7461V163.016Z" fill="#6BB4E6"/>
<path d="M69.7461 160.421H130.465V141.005H69.7461V160.421Z" fill="#FDE5DB"/>
<path d="M133.727 163.016H104.329C104.944 162.178 105.513 161.316 106.041 160.421H130.465V141.005H127.948C127.919 140.139 127.886 139.277 127.853 138.411H133.727V163.016Z" fill="#58A0DD"/>
<path d="M130.465 160.421H106.041C106.528 159.596 106.981 158.747 107.394 157.876C109.522 157.893 111.54 157.901 113.387 157.901C119.15 157.901 123.238 157.81 123.84 157.542C127.041 156.131 127.396 153.689 127.598 152.106C128.068 148.426 128.064 144.718 127.948 141.005H130.465V160.421Z" fill="#C8C1D1"/>
<path d="M167.696 198.647H214.745V192.674H167.696V198.647Z" fill="#F03098"/>
<path d="M214.745 198.647H171.359V197.133H169.755H167.696V192.674H169.986C170.34 193.396 170.819 194.027 171.541 194.472C172.84 195.268 174.556 195.339 176.012 195.631C178.083 196.048 180.104 196.164 182.208 196.291C184.563 196.436 186.914 196.646 189.274 196.778C193.865 197.038 198.563 197.405 203.162 197.405C205.303 197.405 207.427 197.426 209.552 197.426C211.276 197.426 213.004 197.413 214.745 197.364V198.647Z" fill="#EF2292"/>
<path d="M167.697 192.674L162.718 195.66L167.697 198.638V192.674Z" fill="#FDDDD1"/>
<path d="M166.938 197.133H165.184L162.718 195.661L164.236 196.564V195.784C164.854 196.494 165.865 196.935 166.938 197.133Z" fill="#F9ADA1"/>
<path d="M164.236 194.749L162.718 195.66L164.236 196.563V194.749Z" fill="#F03098"/>
<path d="M164.236 196.564L162.718 195.66L163.044 195.466C163.18 195.697 163.349 195.871 163.654 195.986C163.836 196.052 164.029 196.093 164.236 196.11V196.564Z" fill="#EF2292"/>
<path d="M214.745 198.647H216.35V192.674H214.745V198.647Z" fill="#2D54AD"/>
<path d="M216.35 198.647H214.745V192.674H215.351C215.339 193.717 215.281 194.761 215.285 195.805C215.285 196.415 215.434 197.067 216.115 197.186C216.197 197.199 216.275 197.207 216.35 197.207V198.647Z" fill="#21418A"/>
<path d="M104.609 194.753H151.658V188.78H104.609V194.753Z" fill="#6BB4E6"/>
<path d="M151.658 194.753H104.609V188.78H106.899C107.253 189.502 107.732 190.133 108.454 190.579C109.749 191.379 111.469 191.445 112.925 191.738C114.996 192.159 117.017 192.27 119.117 192.398C121.476 192.542 123.827 192.753 126.183 192.885C130.778 193.144 135.476 193.512 140.071 193.516C142.212 193.516 144.332 193.532 146.452 193.532C148.181 193.532 149.913 193.52 151.658 193.47V194.753Z" fill="#5AA5D6"/>
<path d="M104.61 188.78L99.6309 191.767L104.61 194.745V188.78Z" fill="#FDDDD1"/>
<path d="M104.61 194.745L99.6309 191.766L101.145 192.674V191.894C101.912 192.769 103.277 193.231 104.61 193.346V194.745Z" fill="#F9ADA1"/>
<path d="M101.145 190.859L99.6309 191.767L101.145 192.674V190.859Z" fill="#6BB4E6"/>
<path d="M101.145 192.674L99.6309 191.766L99.9567 191.572C100.089 191.803 100.258 191.977 100.567 192.092C100.749 192.158 100.943 192.199 101.145 192.216V192.674Z" fill="#4FA2D6"/>
<path d="M151.658 194.753H153.263V188.78H151.658V194.753Z" fill="#2D54AD"/>
<path d="M153.263 194.753H151.658V188.78H152.265C152.252 189.824 152.194 190.867 152.194 191.915C152.194 192.526 152.347 193.173 153.028 193.293C153.106 193.309 153.184 193.314 153.263 193.314V194.753Z" fill="#21418A"/>
<path d="M122.705 203.106H169.754V197.133H122.705V203.106Z" fill="#8E6BBC"/>
<path d="M169.754 203.106H122.705V197.133H124.994C125.349 197.859 125.828 198.486 126.549 198.936C127.849 199.732 129.569 199.802 131.021 200.095C133.092 200.512 135.113 200.623 137.217 200.755C139.572 200.899 141.927 201.106 144.282 201.238C148.874 201.497 153.572 201.865 158.171 201.865C160.308 201.865 162.424 201.885 164.548 201.885C166.277 201.885 168.009 201.873 169.754 201.827V203.106Z" fill="#7C54A6"/>
<path d="M122.705 197.133L117.727 200.12L122.705 203.102V197.133Z" fill="#FDDDD1"/>
<path d="M122.705 203.102L119.24 201.027V200.247C120.008 201.122 121.373 201.584 122.705 201.699V203.102Z" fill="#F9ADA1"/>
<path d="M119.24 199.212L117.727 200.119L119.24 201.027V199.212Z" fill="#8E6BBC"/>
<path d="M119.24 201.027L117.727 200.119L118.052 199.925C118.184 200.16 118.358 200.33 118.663 200.445C118.844 200.515 119.042 200.552 119.24 200.569V201.027Z" fill="#7C54A6"/>
<path d="M169.754 203.106H171.358V197.133H169.754V203.106Z" fill="#2D54AD"/>
<path d="M171.358 203.106H169.754V197.133H170.364C170.348 198.181 170.29 199.225 170.294 200.264C170.294 200.879 170.443 201.526 171.123 201.646C171.206 201.662 171.284 201.667 171.358 201.667V203.106Z" fill="#21418A"/>
<path d="M160.515 191.766H207.563V185.793H160.515V191.766Z" fill="#2D54AD"/>
<path d="M207.563 191.766H160.515V185.793H162.8C163.155 186.515 163.633 187.146 164.355 187.592C165.654 188.392 167.374 188.458 168.826 188.751C170.897 189.172 172.918 189.283 175.022 189.411C177.381 189.555 179.733 189.766 182.088 189.898C186.683 190.158 191.377 190.525 195.977 190.529C198.117 190.529 200.238 190.545 202.366 190.545C204.09 190.545 205.819 190.533 207.563 190.488V191.766Z" fill="#20448D"/>
<path d="M160.515 185.793L155.532 188.78L160.515 191.758V185.793Z" fill="#FDDDD1"/>
<path d="M160.515 191.758L155.532 188.78L157.046 189.688V188.908C157.813 189.782 159.179 190.244 160.515 190.36V191.758Z" fill="#F9ADA1"/>
<path d="M157.046 187.872L155.532 188.78L157.046 189.687V187.872Z" fill="#2D54AD"/>
<path d="M157.046 189.687L155.532 188.78L155.858 188.586C155.994 188.821 156.163 188.99 156.469 189.106C156.65 189.176 156.848 189.213 157.046 189.229V189.687Z" fill="#20448D"/>
<path d="M207.563 191.766H209.168V185.793H207.563V191.766Z" fill="#2D54AD"/>
<path d="M209.168 191.766H207.563V185.793H208.17C208.153 186.837 208.1 187.881 208.1 188.924C208.104 189.539 208.248 190.186 208.929 190.306C209.011 190.323 209.086 190.327 209.168 190.327V191.766Z" fill="#21418A"/>
<path d="M72.8193 114.989H158.354V80.4966H72.8193V114.989Z" fill="#2D54AD"/>
<path d="M36.8701 73.7358L117.298 110.047L200.097 70.7494L116.918 41.875L36.8701 73.7358Z" fill="#22397C"/>
<path d="M117.298 110.048L72.9549 90.0255C76.4899 88.3714 81.3614 86.3048 86.5588 84.1805C92.3708 85.7232 98.2942 86.8411 104.251 87.5671C109.572 88.2105 114.893 88.3467 120.243 88.4787C122.441 88.5323 124.636 88.5777 126.83 88.5777C130.489 88.5777 134.144 88.4539 137.782 88.0456C147.851 86.9236 159.347 83.1658 164.858 74.0332C166.128 71.9295 166.97 69.5866 167.51 67.1982C168.063 64.7439 168.112 62.2648 168.343 59.7734L168.348 59.728L200.097 70.7498L117.298 110.048ZM70.4098 88.8788L36.8701 73.7362L51.5218 67.9077C58.1959 72.9937 65.7486 76.8877 73.553 79.9401C76.5641 81.1198 79.6248 82.1717 82.7226 83.0998C77.8511 85.1416 73.4498 87.1546 70.4098 88.8788Z" fill="#182F65"/>
<path d="M68.7598 96.5262L67.1016 95.4909C67.1016 95.4909 67.91 90.3925 69.2506 89.5634C80.0084 82.914 115.149 70.9312 115.149 70.9312L115.887 72.7379C115.887 72.7379 82.4792 85.257 71.111 90.9164C69.7498 91.597 68.7598 96.5262 68.7598 96.5262Z" fill="#6BB4E6"/>
<path d="M121.617 71.8344C121.617 73.934 118.886 75.6335 115.516 75.6335C112.15 75.6335 109.424 73.934 109.424 71.8344C109.424 69.7348 112.15 68.0312 115.516 68.0312C118.886 68.0312 121.617 69.7348 121.617 71.8344Z" fill="#6BB4E6"/>
<path d="M63.5586 134.925L63.0059 134.9C63.076 133.184 63.6782 131.72 64.4413 129.863C66.0789 125.895 68.3187 120.459 67.3246 107.737C66.6275 98.8317 67.3906 95.5565 67.4236 95.4204L67.9599 95.5524C67.9516 95.5813 67.1885 98.9018 67.8733 107.696C68.8756 120.549 66.6069 126.052 64.9528 130.074C64.2103 131.876 63.6205 133.304 63.5586 134.925Z" fill="#6BB4E6"/>
<path d="M60.915 134.583C61.08 132.846 61.707 131.398 62.5031 129.563C64.1737 125.702 66.463 120.418 66.6239 107.754C66.7353 98.9063 67.8366 95.8085 67.882 95.6807L68.4018 95.8704C68.3894 95.8993 67.288 99.0342 67.1725 107.763C67.0117 120.533 64.6976 125.879 63.0064 129.781C62.2309 131.572 61.6204 132.986 61.4595 134.636L60.915 134.583Z" fill="#6BB4E6"/>
<path d="M65.9223 135.317L65.3695 135.321C65.353 133.606 65.8563 132.129 66.4915 130.256C67.8569 126.234 69.7296 120.728 68.0837 108.052C66.9329 99.1955 67.5269 95.8832 67.5516 95.7471L68.092 95.8461C68.0879 95.8791 67.4939 99.2326 68.6282 107.982C70.2947 120.781 68.3972 126.362 67.0154 130.429C66.3925 132.257 65.9058 133.696 65.9223 135.317Z" fill="#6BB4E6"/>
<path d="M58.208 134.187C58.505 132.475 59.2269 131.081 60.1343 129.311C62.0607 125.582 64.6924 120.48 65.8308 107.853C66.6228 99.0385 67.9634 96.0315 68.017 95.9077L68.5203 96.1346C68.5079 96.1635 67.1632 99.2076 66.3795 107.899C65.2327 120.632 62.568 125.793 60.6293 129.563C59.7384 131.287 59.033 132.648 58.7525 134.282L58.208 134.187Z" fill="#6BB4E6"/>
<path d="M67.8401 135.33C67.7081 133.597 68.0587 132.067 68.5042 130.128C69.4488 126.049 70.744 120.451 68.731 107.932C67.3245 99.1955 67.8772 95.9533 67.9019 95.8213L68.4464 95.9203C68.4382 95.9492 67.8896 99.2243 69.2714 107.845C71.3009 120.472 69.9974 126.123 69.0404 130.256C68.6032 132.145 68.2608 133.638 68.3887 135.288L67.8401 135.33Z" fill="#6BB4E6"/>
<path d="M70.6283 96.056C70.6283 97.5946 69.3743 98.8403 67.8316 98.8403C66.2889 98.8403 65.0391 97.5946 65.0391 96.056C65.0391 94.5133 66.2889 93.2676 67.8316 93.2676C69.3743 93.2676 70.6283 94.5133 70.6283 96.056Z" fill="#6BB4E6"/>
<path d="M67.8325 98.8403C67.8284 98.8403 67.8243 98.8403 67.8243 98.8403C67.8202 98.8403 67.8202 98.8403 67.8202 98.8403C67.816 98.8403 67.8119 98.8403 67.8119 98.8403C67.8078 98.8403 67.8078 98.8403 67.8078 98.8403C67.8037 98.8403 67.8037 98.8403 67.7995 98.8403C67.7913 98.8403 67.7913 98.8403 67.7872 98.8403C67.7872 98.8403 67.7872 98.8403 67.783 98.8403C67.783 98.8403 67.7789 98.8403 67.7748 98.8403C67.7707 98.8403 67.7665 98.8403 67.7624 98.8403C66.7931 98.8156 65.9475 98.3 65.4648 97.5286C65.8278 97.7555 66.2775 97.8627 66.6693 97.9329C66.9457 97.9824 67.2303 98.0112 67.5067 98.0112C68.1997 98.0112 68.8555 97.8174 69.2969 97.2192C69.928 96.3571 69.5856 94.9794 68.9463 94.2411C68.509 93.7337 68.014 93.4614 67.4613 93.2965C67.5809 93.2758 67.7047 93.2676 67.8284 93.2676H67.8325C69.3753 93.2676 70.6292 94.5133 70.6292 96.056C70.6292 97.5946 69.3753 98.8403 67.8325 98.8403Z" fill="#5E9DCA"/>
<path d="M90.5889 179.833L61.9043 111.455L65.3115 110.027L93.9961 178.41L90.5889 179.833Z" fill="#6B63B8"/>
<path d="M83.775 196.25H74.0732L75.8305 181.586H82.2076L83.775 196.25Z" fill="#6B63B8"/>
<path d="M83.4449 193.136H74.4443L74.5186 192.513C76.6635 192.497 78.627 192.138 79.5386 189.712C80.31 187.666 80.3966 185.542 80.4007 183.401C81.0607 183.376 81.7248 183.335 82.3848 183.277L83.4449 193.136Z" fill="#6051AD"/>
<path d="M78.9406 183.429C57.4251 183.429 39.9189 165.973 39.9189 144.515C39.9189 136.047 42.6043 127.991 47.6779 121.23C52.5824 114.688 59.57 109.763 67.3537 107.35L68.451 110.872C53.5972 115.472 43.6149 128.993 43.6149 144.515C43.6149 163.939 59.4628 179.742 78.9406 179.742C84.6578 179.742 90.3378 178.348 95.3619 175.712L97.082 178.975C91.5299 181.887 85.2559 183.429 78.9406 183.429Z" fill="#2D54AD"/>
<path d="M110.38 144.516C110.38 161.836 96.3021 175.873 78.9362 175.873C61.5744 175.873 47.4961 161.836 47.4961 144.516C47.4961 127.199 61.5744 113.162 78.9362 113.162C96.3021 113.162 110.38 127.199 110.38 144.516Z" fill="#6BB4E6"/>
<mask id="mask2_2017_2764" style="mask-type:luminance" maskUnits="userSpaceOnUse" x="47" y="126" width="26" height="45">
<path d="M47.0713 126.609H72.5674V170.531H47.0713V126.609Z" fill="white"/>
</mask>
<g mask="url(#mask2_2017_2764)">
<mask id="mask3_2017_2764" style="mask-type:luminance" maskUnits="userSpaceOnUse" x="47" y="113" width="64" height="63">
<path d="M110.379 144.516C110.379 161.836 96.3011 175.873 78.9352 175.873C61.5734 175.873 47.4951 161.836 47.4951 144.516C47.4951 127.199 61.5734 113.162 78.9352 113.162C96.3011 113.162 110.379 127.199 110.379 144.516Z" fill="white"/>
</mask>
<g mask="url(#mask3_2017_2764)">
<path d="M40.6118 132.751L41.1522 132.949L41.742 132.801L42.0349 132.999L42.5299 132.359L43.8004 132.165L44.3944 132.264C44.3944 132.264 45.0296 132.31 45.1781 132.359C45.3266 132.409 46.4073 132.751 46.6507 133.341C46.8982 133.927 47.3396 134.512 47.3396 134.512C47.3396 134.512 48.4203 136.035 49.303 136.571C50.1899 137.111 49.303 138.287 49.7444 139.805C50.1899 141.323 50.5281 141.471 50.5281 141.471L51.0726 141.715L51.514 142.304L51.8068 143.084L52.1492 143.476L51.6583 143.624L52.1038 143.963L52.4957 144.359L52.8876 144.895L53.2794 145.241L52.7886 143.868L52.0543 142.548L52.2523 142.449C52.2523 142.449 52.6937 142.498 53.1351 143.282C53.5764 144.062 53.6754 144.507 53.6754 144.507L54.2158 145.241C54.2158 145.241 54.4592 145.827 54.2158 146.12C53.9683 146.413 56.2782 147.444 56.5711 147.444C56.864 147.444 57.3095 147.246 57.5528 147.687C57.8003 148.129 58.2417 148.129 58.7821 148.273C59.3183 148.422 59.3678 148.913 59.2234 149.255C59.0749 149.597 60.1557 149.548 60.4032 149.94C60.5269 150.142 60.597 149.981 60.6878 149.828C60.7744 149.68 60.8693 149.527 61.0384 149.696C61.3849 150.039 61.4798 150.525 61.1374 151.066C60.795 151.602 60.498 152.192 60.5475 152.633C60.597 153.075 60.6465 153.318 60.4485 154.003C60.2505 154.692 61.3849 154.692 61.5788 156.354C61.7726 158.02 63.3978 156.453 63.1998 159.241C63.0018 162.034 62.808 160.763 62.8575 162.327L62.2676 163.894L62.313 164.678L62.1191 165.264L61.9706 165.953V166.493L61.7726 167.471V168.939C61.7726 168.939 62.6595 170.799 64.3754 170.263C64.3754 170.263 63.9836 169.822 63.6907 169.281C63.6907 169.281 63.1998 168.399 63.6907 168.448C64.1816 168.498 63.7402 167.664 64.2311 167.52C64.7219 167.372 63.4927 167.079 64.2806 166.344C65.0643 165.61 64.0331 165.561 64.5776 165.119C65.1138 164.678 65.2623 164.29 65.9512 164.336C66.64 164.385 66.7844 163.845 66.7844 163.308C66.7844 162.768 67.6671 163.11 67.9641 161.642C68.257 160.174 69.5316 158.998 70.2204 159.196C70.9093 159.39 71.1527 156.944 71.1527 156.255C71.1527 155.57 72.9223 154.593 71.495 153.611C70.5669 152.971 70.4762 153 70.3071 153.029C70.2163 153.046 70.1008 153.062 69.8286 152.976C69.0407 152.728 68.9912 152.782 68.5994 152.097C68.2075 151.408 68.2075 150.674 67.5681 150.575C66.9288 150.48 65.6047 149.647 65.2128 148.962L64.4249 149.012L63.8846 148.814L63.3483 149.012L63.2493 148.521L63.0513 148.57V149.012L63.0018 149.449L62.709 149.205L62.7585 148.715L62.8575 148.372L62.2676 148.57L62.0201 149.012L61.5788 149.354H61.1374L60.597 149.205C60.597 149.205 59.8092 149.304 59.8092 148.372C59.8092 147.444 59.8092 147.296 58.5841 147.345C58.5841 147.345 58.6831 146.025 59.0254 145.679C59.3678 145.336 58.2417 145.386 58.0932 145.827C58.0932 145.827 57.8952 146.755 56.963 146.611C56.963 146.611 55.8327 145.629 56.4226 144.165C57.0125 142.692 57.161 142.985 57.9447 143.134C58.3489 143.212 58.4026 143.076 58.4521 142.944C58.5016 142.82 58.5469 142.696 58.8769 142.742C59.5658 142.841 59.5163 142.841 59.7143 143.183C59.9123 143.525 60.2505 144.21 60.0567 144.507C59.8628 144.8 61.1374 144.895 60.5475 143.035C59.9577 141.174 61.5334 141.323 61.8716 141.372C62.2181 141.422 61.1374 139.561 62.3625 139.314C63.5917 139.07 63.2988 139.021 63.2988 139.021C63.2988 139.021 63.0513 138.089 64.3301 138.089L64.5776 138.332L65.1633 137.994L65.7037 137.503L65.8522 137.062L66.5369 137.012L66.8793 137.305L67.5681 137.21L67.3248 136.377C67.3248 136.377 66.6895 136.278 66.5905 135.886C66.4874 135.494 67.2753 135.643 66.8339 134.958C66.3925 134.269 66.1904 134.026 65.5552 133.683C64.9199 133.341 64.9694 132.409 64.4249 131.922C64.1609 131.679 64.0619 131.988 63.963 132.297C63.864 132.611 63.7691 132.928 63.4927 132.656C62.9523 132.116 62.6595 131.138 61.1869 131.283C61.1869 131.283 61.5788 132.264 61.0384 132.656C61.0384 132.656 62.313 133.782 60.8445 134.22C60.8445 134.22 61.5788 135.251 60.7455 135.395C59.9123 135.544 60.201 134.418 60.1557 134.026C60.1557 134.026 58.8769 133.927 58.5841 133.584C58.2871 133.242 57.6023 133.341 57.6023 133.341L57.4043 132.706L57.062 132.508C57.062 132.508 57.161 131.576 57.359 131.576C57.5528 131.576 58.2417 131.039 58.2417 131.039L58.5841 130.404L58.9759 129.913V129.422L59.4173 129.814L59.8092 130.062L60.201 129.179L60.3042 128.54L59.4173 128.494L57.8003 128.936L57.0125 128.445L56.4721 128.738L55.346 128.787H54.4097L53.7208 128.589L53.5764 128.936L53.0361 129.228L52.3472 129.03H51.8068L51.8605 128.738L51.4645 128.445L51.0726 128.296L50.6312 128.197L50.1404 128.003L49.7444 128.152C49.7444 128.152 49.0596 128.346 48.6678 127.562C48.6678 127.562 46.6053 128.296 46.2093 128.247C45.8175 128.197 41.643 127.76 41.3502 127.269C41.0532 126.778 40.6613 127.364 40.1705 127.76C39.6796 128.152 39.5847 128.54 38.9907 128.589C38.4009 128.639 40.121 129.278 40.418 129.571C40.5417 129.695 40.2571 129.641 39.89 129.591C39.3867 129.517 38.7267 129.447 38.6979 129.814C38.6484 130.454 39.7786 130.355 40.4674 130.454C41.1522 130.548 40.1705 130.891 39.6796 130.845C39.1887 130.796 39.2382 131.774 39.2382 131.774L39.6796 132.264L40.6118 132.751Z" fill="#FDE5DB"/>
</g>
</g>
<mask id="mask4_2017_2764" style="mask-type:luminance" maskUnits="userSpaceOnUse" x="50" y="126" width="6" height="3">
<path d="M50.8877 126.032H55.7633V128.923H50.8877V126.032Z" fill="white"/>
</mask>
<g mask="url(#mask4_2017_2764)">
<mask id="mask5_2017_2764" style="mask-type:luminance" maskUnits="userSpaceOnUse" x="47" y="113" width="64" height="63">
<path d="M110.382 144.515C110.382 161.836 96.304 175.873 78.9381 175.873C61.5764 175.873 47.498 161.836 47.498 144.515C47.498 127.199 61.5764 113.162 78.9381 113.162C96.304 113.162 110.382 127.199 110.382 144.515Z" fill="white"/>
</mask>
<g mask="url(#mask5_2017_2764)">
<path d="M54.5591 127.487L54.8767 127.661H55.1985L55.3181 127.854L55.4171 127.953L55.4418 128.246L55.0252 128.127L54.852 128.395L54.1177 128.444L53.9239 128.321L53.5774 128.444L53.2103 128.539L52.5956 128.613L52.2244 128.395L52.0553 128.345L51.5149 128.176L51.2427 127.929C51.2427 127.929 52.1048 127.76 52.3976 127.834C52.6946 127.904 52.3481 127.512 51.1932 127.586L51.5149 127.343L51.1478 127.145L51.123 126.902L51.3417 126.605L51.882 126.534L52.1254 126.386L52.2244 126.605H52.6204L52.9628 126.827L53.0865 126.728L53.3794 126.679L53.5526 126.877L53.7506 127.071V126.411H54.0187L54.093 126.217L54.6333 126.266L54.6581 126.534L54.6086 126.757L54.4106 126.827L54.5096 127.046L54.5591 127.487Z" fill="#FDE5DB"/>
</g>
</g>
<mask id="mask6_2017_2764" style="mask-type:luminance" maskUnits="userSpaceOnUse" x="48" y="125" width="4" height="3">
<path d="M48.8076 125.454H51.9426V127.768H48.8076V125.454Z" fill="white"/>
</mask>
<g mask="url(#mask6_2017_2764)">
<mask id="mask7_2017_2764" style="mask-type:luminance" maskUnits="userSpaceOnUse" x="47" y="113" width="64" height="63">
<path d="M110.381 144.516C110.381 161.836 96.303 175.873 78.9372 175.873C61.5754 175.873 47.4971 161.836 47.4971 144.516C47.4971 127.199 61.5754 113.162 78.9372 113.162C96.303 113.162 110.381 127.199 110.381 144.516Z" fill="white"/>
</mask>
<g mask="url(#mask7_2017_2764)">
<path d="M50.2522 125.879C50.2522 125.879 50.8256 126.11 51.1391 125.994C51.4484 125.879 52.0218 126.337 51.8073 126.403C51.5928 126.469 50.9906 126.502 50.8256 126.811C50.6647 127.121 50.5492 126.96 50.5492 126.96L50.5286 127.203L50.2687 127.302L49.9923 127.479L49.683 127.22L49.1055 127.104L49.452 126.65L49.617 126.469L49.7325 126.192L49.452 125.949L50.2522 125.879Z" fill="#FDE5DB"/>
</g>
</g>
<mask id="mask8_2017_2764" style="mask-type:luminance" maskUnits="userSpaceOnUse" x="54" y="125" width="3" height="3">
<path d="M54.6035 125.454H56.9217V127.768H54.6035V125.454Z" fill="white"/>
</mask>
<g mask="url(#mask8_2017_2764)">
<mask id="mask9_2017_2764" style="mask-type:luminance" maskUnits="userSpaceOnUse" x="47" y="113" width="64" height="63">
<path d="M110.382 144.516C110.382 161.836 96.304 175.873 78.9381 175.873C61.5764 175.873 47.498 161.836 47.498 144.516C47.498 127.199 61.5764 113.162 78.9381 113.162C96.304 113.162 110.382 127.199 110.382 144.516Z" fill="white"/>
</mask>
<g mask="url(#mask9_2017_2764)">
<path d="M55.5246 126.485V126.712H55.2606L55.0832 126.584C55.0832 126.584 54.8522 126.811 55.2771 126.976C55.7061 127.137 55.6401 127.154 55.7514 127.286C55.8669 127.414 55.9164 127.595 56.0814 127.463C56.2464 127.335 56.2794 127.236 56.5063 127.253C56.7332 127.269 56.7002 126.96 56.5847 126.828C56.4733 126.696 56.2794 126.518 56.3619 126.386C56.4403 126.259 56.3248 125.9 56.1433 126.028C55.9659 126.16 55.7679 126.259 55.6071 126.16C55.4421 126.061 55.2771 126.242 55.2977 126.37C55.3101 126.502 55.5246 126.485 55.5246 126.485Z" fill="#FDE5DB"/>
</g>
</g>
<mask id="mask10_2017_2764" style="mask-type:luminance" maskUnits="userSpaceOnUse" x="55" y="123" width="4" height="2">
<path d="M55.7627 123.219H58.0809V124.877H55.7627V123.219Z" fill="white"/>
</mask>
<g mask="url(#mask10_2017_2764)">
<mask id="mask11_2017_2764" style="mask-type:luminance" maskUnits="userSpaceOnUse" x="47" y="113" width="64" height="63">
<path d="M110.382 144.516C110.382 161.836 96.304 175.873 78.9381 175.873C61.5764 175.873 47.498 161.836 47.498 144.516C47.498 127.199 61.5764 113.162 78.9381 113.162C96.304 113.162 110.382 127.199 110.382 144.516Z" fill="white"/>
</mask>
<g mask="url(#mask11_2017_2764)">
<path d="M56.4077 123.71V123.941H56.1437L55.9664 123.809C55.9664 123.809 55.7395 124.04 56.1602 124.2C56.5851 124.361 56.5232 124.378 56.6387 124.51C56.7542 124.642 56.8037 124.819 56.9646 124.691C57.1296 124.559 57.1626 124.46 57.3894 124.477C57.6204 124.493 57.5874 124.184 57.4719 124.052C57.3606 123.924 57.1626 123.743 57.2451 123.615C57.3234 123.483 57.208 123.124 57.0306 123.252C56.8491 123.384 56.6511 123.483 56.4902 123.384C56.3252 123.285 56.1602 123.466 56.1808 123.594C56.1973 123.726 56.4077 123.71 56.4077 123.71Z" fill="#FDE5DB"/>
</g>
</g>
<mask id="mask12_2017_2764" style="mask-type:luminance" maskUnits="userSpaceOnUse" x="56" y="125" width="3" height="4">
<path d="M56.3438 125.454H58.2783V128.346H56.3438V125.454Z" fill="white"/>
</mask>
<g mask="url(#mask12_2017_2764)">
<mask id="mask13_2017_2764" style="mask-type:luminance" maskUnits="userSpaceOnUse" x="47" y="113" width="64" height="63">
<path d="M110.381 144.516C110.381 161.836 96.303 175.873 78.9372 175.873C61.5754 175.873 47.4971 161.836 47.4971 144.516C47.4971 127.199 61.5754 113.162 78.9372 113.162C96.303 113.162 110.381 127.199 110.381 144.516Z" fill="white"/>
</mask>
<g mask="url(#mask13_2017_2764)">
<path d="M57.586 128.053C57.586 128.053 57.8788 127.954 57.8128 127.855C57.751 127.76 57.6355 127.578 57.6355 127.578L57.454 127.434L57.322 127.17H57.1281L57.2725 126.861L57.421 126.667H57.7345L57.8788 126.32L58.1593 126.127C58.1593 126.127 57.2931 125.929 57.0126 126.061C56.7321 126.193 56.6702 126.308 56.7527 126.518C56.8311 126.729 56.9301 126.91 56.9301 126.91L56.8311 127.22L56.6372 127.335L56.4062 127.463L56.5382 127.727L56.4227 127.904L56.6867 128.053L57.0621 128.119L57.1281 128.263L57.3591 128.102L57.586 128.053Z" fill="#FDE5DB"/>
</g>
</g>
<mask id="mask14_2017_2764" style="mask-type:luminance" maskUnits="userSpaceOnUse" x="51" y="123" width="6" height="4">
<path d="M51.126 123.219H56.1666V126.032H51.126V123.219Z" fill="white"/>
</mask>
<g mask="url(#mask14_2017_2764)">
<mask id="mask15_2017_2764" style="mask-type:luminance" maskUnits="userSpaceOnUse" x="47" y="113" width="64" height="63">
<path d="M110.382 144.516C110.382 161.836 96.304 175.873 78.9381 175.873C61.5764 175.873 47.498 161.836 47.498 144.516C47.498 127.199 61.5764 113.162 78.9381 113.162C96.304 113.162 110.382 127.199 110.382 144.516Z" fill="white"/>
</mask>
<g mask="url(#mask15_2017_2764)">
<path d="M55.1167 124.782L55.4343 124.951H55.752L55.8757 125.145L55.9747 125.244L55.9994 125.541L55.5828 125.417L55.4096 125.685L54.6712 125.735L54.4774 125.615L54.135 125.735L53.7637 125.834L53.1491 125.904L52.782 125.685L52.6129 125.636L52.0725 125.463L51.8003 125.219C51.8003 125.219 52.6624 125.05 52.9553 125.12C53.2481 125.195 52.9058 124.803 51.7508 124.877L52.0725 124.634L51.7013 124.436L51.6807 124.192L51.8993 123.899L52.4396 123.825L52.683 123.677L52.782 123.899H53.1739L53.5204 124.118L53.6441 124.023L53.937 123.974L54.1102 124.168L54.3041 124.361V123.701H54.5764L54.6506 123.503L55.191 123.553L55.2116 123.825L55.1662 124.044L54.9682 124.118L55.0672 124.337L55.1167 124.782Z" fill="#FDE5DB"/>
</g>
</g>
<mask id="mask16_2017_2764" style="mask-type:luminance" maskUnits="userSpaceOnUse" x="48" y="122" width="2" height="3">
<path d="M48.2305 122.567H49.9671V124.877H48.2305V122.567Z" fill="white"/>
</mask>
<g mask="url(#mask16_2017_2764)">
<mask id="mask17_2017_2764" style="mask-type:luminance" maskUnits="userSpaceOnUse" x="47" y="113" width="64" height="63">
<path d="M110.382 144.516C110.382 161.836 96.304 175.873 78.9381 175.873C61.5764 175.873 47.498 161.836 47.498 144.516C47.498 127.199 61.5764 113.162 78.9381 113.162C96.304 113.162 110.382 127.199 110.382 144.516Z" fill="white"/>
</mask>
<g mask="url(#mask17_2017_2764)">
<path d="M48.813 123.285V123.516H48.5532L48.3717 123.384C48.3717 123.384 48.1407 123.615 48.5697 123.776C48.9945 123.941 48.9285 123.957 49.044 124.085C49.1554 124.217 49.2049 124.399 49.3699 124.267C49.5349 124.135 49.5679 124.04 49.7989 124.052C50.0258 124.069 49.9928 123.759 49.8773 123.631C49.7618 123.499 49.5679 123.322 49.6463 123.19C49.7329 123.058 49.6174 122.699 49.4359 122.827C49.2544 122.963 49.0605 123.058 48.8955 122.963C48.7305 122.86 48.5697 123.041 48.582 123.169C48.5985 123.301 48.813 123.285 48.813 123.285Z" fill="#FDE5DB"/>
</g>
</g>
<mask id="mask18_2017_2764" style="mask-type:luminance" maskUnits="userSpaceOnUse" x="49" y="122" width="3" height="4">
<path d="M49.3896 122.567H51.7078V125.331H49.3896V122.567Z" fill="white"/>
</mask>
<g mask="url(#mask18_2017_2764)">
<mask id="mask19_2017_2764" style="mask-type:luminance" maskUnits="userSpaceOnUse" x="47" y="113" width="64" height="63">
<path d="M110.382 144.516C110.382 161.836 96.304 175.873 78.9381 175.873C61.5764 175.873 47.498 161.836 47.498 144.516C47.498 127.199 61.5764 113.162 78.9381 113.162C96.304 113.162 110.382 127.199 110.382 144.516Z" fill="white"/>
</mask>
<g mask="url(#mask19_2017_2764)">
<path d="M50.876 124.852C50.876 124.852 51.173 124.757 51.107 124.658C51.041 124.559 50.9255 124.378 50.9255 124.378L50.7481 124.233L50.612 123.973H50.4181L50.5666 123.66L50.711 123.466H51.0245L51.173 123.124L51.4494 122.926C51.4494 122.926 50.5831 122.732 50.3027 122.86C50.0263 122.992 49.9603 123.107 50.0387 123.322C50.1253 123.532 50.2202 123.709 50.2202 123.709L50.1253 124.023L49.9273 124.134L49.6963 124.266L49.8283 124.526L49.7128 124.708L49.9768 124.852L50.3522 124.918L50.4181 125.066L50.645 124.901L50.876 124.852Z" fill="#FDE5DB"/>
</g>
</g>
<mask id="mask20_2017_2764" style="mask-type:luminance" maskUnits="userSpaceOnUse" x="59" y="126" width="7" height="6">
<path d="M59.2402 126.032H65.6173V131.666H59.2402V126.032Z" fill="white"/>
</mask>
<g mask="url(#mask20_2017_2764)">
<mask id="mask21_2017_2764" style="mask-type:luminance" maskUnits="userSpaceOnUse" x="47" y="113" width="64" height="63">
<path d="M110.382 144.516C110.382 161.836 96.304 175.873 78.9381 175.873C61.5764 175.873 47.498 161.836 47.498 144.516C47.498 127.199 61.5764 113.162 78.9381 113.162C96.304 113.162 110.382 127.199 110.382 144.516Z" fill="white"/>
</mask>
<g mask="url(#mask21_2017_2764)">
<path d="M62.2694 129.913L61.8734 129.979H61.3165L61.1226 130.19L61.1886 130.305L61.3866 130.388L61.6135 130.355C61.6135 130.355 62.0054 130.272 62.0879 130.355C62.1704 130.437 62.2034 130.437 62.3807 130.532C62.5622 130.631 62.6777 130.747 62.7767 130.908C62.8716 131.073 63.1026 131.238 63.3006 131.217C63.4945 131.205 63.676 131.238 63.808 131.332C63.9358 131.431 64.0513 131.448 64.1668 131.448C64.2823 131.448 63.577 131.023 63.4285 130.759C63.2841 130.499 64.1998 130.846 64.4927 131.106C64.7897 131.365 64.5422 130.664 64.5422 130.664L64.1338 130.124L63.841 129.897L63.973 129.555L64.2658 129.682C64.2658 129.682 64.4267 129.831 64.5422 130.078C64.6577 130.322 64.9217 130.173 65.0001 130.029C65.0867 129.88 64.8557 129.748 65.1651 129.571C65.4785 129.39 65.5569 129.212 65.2805 129.08C65.0001 128.948 64.4267 129.031 64.3153 128.886C64.1998 128.738 63.5605 128.622 63.676 128.54C63.7915 128.461 64.0513 128.527 63.9565 128.313C63.8575 128.103 63.5935 127.855 63.4285 127.773C63.2676 127.694 62.9376 127.628 62.9376 127.628L62.5787 127.236H62.1209L61.8899 127.092L61.696 126.778H61.3536L61.2051 126.877L60.9576 126.96L60.5658 126.745C60.5658 126.745 60.4833 126.679 60.4049 126.486C60.3183 126.288 59.9594 126.16 59.8645 126.308C59.7655 126.453 59.3695 126.519 59.3695 126.618C59.3695 126.712 59.2417 126.91 59.452 127.203C59.6665 127.496 59.7655 127.48 59.848 127.694C59.9264 127.905 60.1368 128.086 60.3678 128.037C60.5988 127.987 60.8628 128.02 60.9411 128.053C61.0278 128.086 61.0401 127.839 61.3165 128.02C61.597 128.197 61.8404 128.461 61.8404 128.461L61.5351 128.54L61.7579 128.606L62.0549 128.639L62.4179 128.886C62.4179 128.886 62.6612 128.915 62.4962 129.196C62.3354 129.472 62.1044 129.538 62.1044 129.538L62.2694 129.913Z" fill="#FDE5DB"/>
</g>
</g>
<mask id="mask22_2017_2764" style="mask-type:luminance" maskUnits="userSpaceOnUse" x="74" y="123" width="37" height="43">
<path d="M74.1191 123.722H110.818V165.907H74.1191V123.722Z" fill="white"/>
</mask>
<g mask="url(#mask22_2017_2764)">
<mask id="mask23_2017_2764" style="mask-type:luminance" maskUnits="userSpaceOnUse" x="47" y="113" width="64" height="63">
<path d="M110.382 144.516C110.382 161.836 96.304 175.873 78.9381 175.873C61.5764 175.873 47.498 161.836 47.498 144.516C47.498 127.199 61.5764 113.162 78.9381 113.162C96.304 113.162 110.382 127.199 110.382 144.516Z" fill="white"/>
</mask>
<g mask="url(#mask23_2017_2764)">
<path d="M126.911 128.28L125.595 128.016H125.014C125.014 128.016 125.067 128.437 124.799 128.544C124.539 128.651 124.119 128.28 124.065 128.123C124.011 127.966 123.747 127.859 123.219 128.016C122.695 128.177 121.586 128.333 121.586 128.016C121.586 127.702 121.586 127.335 121.058 127.385C120.53 127.438 119.581 127.913 119.424 127.756C119.268 127.599 118.95 126.807 118.686 126.758C118.422 126.704 117.63 126.597 117.106 126.704C116.578 126.807 116.1 127.228 115.947 127.282C115.786 127.335 115.522 127.385 115.316 127.125C115.101 126.861 114.573 126.964 114.417 127.335C114.256 127.702 113.361 127.599 113.414 127.282C113.468 126.964 113.625 126.597 113.468 126.337C113.307 126.073 112.779 125.97 112.466 126.019C112.148 126.073 112.255 126.494 111.678 126.494C111.096 126.494 110.197 126.283 109.776 126.176C109.599 126.135 109.421 126.209 109.269 126.287C109.058 126.391 108.889 126.498 108.827 126.283C108.72 125.912 108.827 125.702 109.091 125.335C109.355 124.967 108.089 124.126 107.829 124.023C107.561 123.916 107.19 123.916 106.984 124.072C106.773 124.233 106.402 124.444 105.82 124.444C105.243 124.444 104.505 124.547 104.451 124.811C104.397 125.075 104.241 124.811 103.399 125.075C102.553 125.335 101.708 125.231 101.708 125.702C101.708 126.176 101.551 126.44 101.027 126.44C100.499 126.44 101.13 127.125 101.13 127.125C101.13 127.125 100.235 126.964 99.864 126.861C99.4969 126.758 99.336 126.547 98.9153 127.071C98.4945 127.599 97.8593 127.546 97.4386 127.438C97.0178 127.335 96.5971 127.599 97.1787 128.49C97.7562 129.385 95.8587 127.859 94.9636 127.756C94.0644 127.649 95.438 128.387 95.1204 128.597C94.9595 128.701 94.5553 128.581 94.151 128.465C93.7509 128.346 93.3549 128.226 93.2229 128.333C92.9589 128.544 91.7462 129.278 91.3254 129.385C90.9006 129.488 91.0615 128.911 91.3254 128.911C91.5894 128.911 91.111 128.28 90.5871 128.651C90.0591 129.014 90.5871 129.385 90.6902 129.542C90.7315 129.604 90.6696 129.592 90.5665 129.583C90.4056 129.567 90.154 129.546 90.0591 129.806C89.9024 130.227 90.0591 130.751 89.8487 130.804C89.6384 130.858 89.0072 130.54 89.0072 130.54L88.636 130.751L87.6873 129.385C87.6873 129.385 90.6407 130.276 89.9519 128.965C89.4156 127.933 88.5205 127.97 87.9018 128.008C87.7368 128.016 87.5883 128.028 87.4769 128.016C86.9489 127.966 86.6313 127.492 86.3178 127.438C86.0002 127.385 85.5258 127.702 85.5258 127.702L84.1564 128.49L83.5211 128.437L83.2571 128.808L82.9973 129.278L82.362 129.699C82.362 129.699 82.098 129.876 82.0609 130.19C82.0279 130.507 81.9578 130.647 81.7474 130.751C81.537 130.858 81.2895 131.175 81.2895 131.175C81.2895 131.175 80.9018 130.961 80.7615 131.208C80.6213 131.452 80.4109 131.559 80.4109 131.662C80.4109 131.769 80.3078 132.046 80.3078 132.26C80.3078 132.471 80.3078 132.714 80.4481 132.957C80.5883 133.205 81.042 133.345 81.2194 133.275C81.3968 133.205 81.7103 132.541 81.7474 132.784C81.7804 133.028 81.9206 133.523 81.9206 133.523C81.9206 133.523 82.1681 133.663 82.3084 133.906C82.4486 134.15 82.3084 134.327 82.2713 134.5C82.2383 134.678 82.7663 134.5 82.8364 134.36C82.9065 134.22 83.3974 134.046 83.4675 133.275C83.5376 132.504 83.9584 132.924 84.0656 132.924C84.1729 132.924 83.9584 132.33 83.8181 132.12C83.6779 131.906 83.6449 131.279 84.0656 131.138C84.4863 130.998 85.0515 129.488 85.4722 130.016C85.8929 130.54 85.365 130.718 84.8411 131.175C84.3131 131.629 84.5606 131.84 84.6637 132.046C84.771 132.26 84.7338 132.401 84.8741 132.541C85.0143 132.681 85.0515 132.714 85.4722 132.611C85.8929 132.504 86.3178 132.12 86.5282 132.297C86.7385 132.471 86.7715 132.714 86.4911 132.714C86.2106 132.714 85.8228 132.751 85.6496 132.924C85.4722 133.102 85.2618 132.887 85.4351 133.345C85.6124 133.803 85.365 133.803 85.0845 133.556C84.804 133.308 84.5936 133.803 84.7008 134.084C84.804 134.36 84.7338 134.537 84.4162 134.607C84.1027 134.678 84.2059 134.958 83.9955 134.855C83.7851 134.748 83.5747 134.785 83.2901 134.925C83.0138 135.061 82.8364 135.239 82.6961 135.061C82.5559 134.888 82.3414 134.925 82.2383 134.958C82.131 134.995 81.9206 135.098 81.6773 135.028C81.4298 134.958 81.537 134.467 81.6402 134.397C81.7474 134.327 81.7474 133.976 81.7474 133.873C81.7474 133.766 81.537 133.345 81.1864 133.766C80.8317 134.187 81.0792 134.467 81.0792 134.855C81.0792 135.144 81.0173 135.135 80.8564 135.127C80.8028 135.127 80.7368 135.123 80.6584 135.131C80.3408 135.168 80.1304 135.239 80.1304 135.519C80.1304 135.8 80.2377 135.977 80.0232 136.01C79.8128 136.047 79.6726 136.15 79.5694 136.29C79.4622 136.431 79.5694 136.431 79.2518 136.641C78.9342 136.851 78.6207 136.884 78.6207 136.884L78.0886 137.062L77.6679 137.342L78.1629 137.763C78.1629 137.763 79.0043 138.815 78.5135 139.058C78.0185 139.306 78.0556 139.198 77.3544 138.988C76.649 138.778 76.9295 139.095 76.7191 139.376C76.5088 139.656 76.4386 140.564 76.4386 140.564L76.8965 141.546L77.5276 141.723L77.9154 141.616L78.5877 141.48L78.8311 141.125L79.0373 140.428C79.0373 140.428 79.5323 140.003 79.7798 139.937C80.0232 139.867 79.6024 139.058 80.5512 139.339C81.0255 139.479 81.1245 139.285 81.1575 139.095C81.1947 138.901 81.1658 138.708 81.3968 138.848C81.8505 139.128 81.7474 139.376 81.7474 139.376L82.5559 139.97L82.9065 140.213L83.1169 140.428C83.1169 140.428 83.22 140.881 83.1169 141.162C83.0138 141.442 83.5005 140.919 83.5005 140.919L83.6449 140.601L83.5376 140.25L83.9254 140.531L84.0326 140.283L83.6449 139.9L83.2571 139.759L82.659 139.269L82.3414 138.745L82.3785 138.394L82.9065 138.675L83.9584 139.376L84.276 139.97L84.771 141.092L84.9112 141.583L85.4021 141.442L85.2618 140.811V140.391L86.1404 140.213L86.0373 140.778L86.3508 141.335L86.8417 141.546L87.0892 141.162L87.4068 141.372L87.8976 141.653L88.4586 141.793L88.669 141.896L88.5288 142.494L88.3184 143.092L87.9306 143.546L87.2294 143.406L86.7715 143.719L86.0002 143.406L85.7527 143.476L85.5093 143.228L85.0845 143.125C85.0845 143.125 84.6307 142.915 84.3461 143.266C84.0656 143.616 84.1729 143.893 84.1729 143.893C84.1729 143.893 83.715 143.579 83.4675 143.546C83.22 143.509 83.0468 143.299 83.0138 143.125C82.9766 142.948 82.3785 142.915 81.8876 142.808C81.3968 142.705 81.6773 142.284 81.8505 142.177C82.0279 142.073 82.0609 141.513 81.7804 141.442C81.4999 141.372 81.1163 141.513 80.6213 141.546C80.1304 141.583 78.8641 141.83 78.5465 142.073C78.233 142.317 77.2801 142.247 77.4575 141.97C77.5482 141.826 77.3997 142.111 77.1729 142.399C76.9543 142.672 76.6655 142.948 76.4386 142.845C75.9808 142.634 76.2613 143.616 76.2984 144C76.3314 144.388 75.5972 144.421 75.3497 144.598C75.1022 144.771 74.2978 145.963 74.3679 147.118C74.4381 148.277 74.7516 148.488 74.2978 149.259C73.8399 150.03 74.4711 149.853 74.2607 150.208C74.0503 150.554 75.4198 150.695 75.4198 151.536C75.4198 152.378 76.1911 151.924 76.7563 152.518C77.0698 152.852 77.375 152.724 77.6555 152.596C77.8741 152.497 78.0804 152.394 78.266 152.518C78.431 152.629 78.695 152.456 78.992 152.287C79.4457 152.019 79.9654 151.755 80.3078 152.518C80.8688 153.78 81.8505 152.204 81.4298 154.304C81.4298 154.304 82.2383 155.323 82.3414 156.585C82.4486 157.847 83.0138 157.534 82.6961 158.02C82.3785 158.511 81.7804 158.652 82.5188 160.718C83.2571 162.789 83.0138 161.386 82.9766 162.475C82.9436 163.56 84.1027 164.402 83.8882 164.996C83.6779 165.59 84.5235 165.907 85.6124 165.383C86.7014 164.855 87.7574 164.121 87.7574 162.335L88.5288 161.947L88.4256 160.405L89.23 159.703C89.23 159.703 90.4633 159.142 89.6549 157.212C89.6549 157.212 89.197 155.426 90.781 153.64C90.781 153.64 92.9218 151.713 92.7485 150.063L91.2718 150.521L90.9913 150.591L90.781 150.101L90.5335 149.783L89.6549 149.049L89.197 147.824L88.8464 147.329L88.7391 146.665L88.3885 146.277L88.2111 145.089L88.5659 144.701L89.0939 145.93C89.0939 145.93 89.4404 146.454 89.4074 146.805C89.3702 147.155 89.9684 147.506 90.0756 148.03C90.1828 148.558 90.3932 149.96 91.4492 149.643L92.8517 148.979C92.8517 148.979 93.3095 148.31 93.6973 148.418C94.0809 148.521 94.2253 147.749 94.4356 147.749C94.646 147.749 94.679 146.945 94.679 146.945L95.0296 146.347L94.3655 145.996L94.0479 145.332L93.4498 145.86L92.9218 145.996L92.3278 145.402L91.8699 144.491L92.4309 143.893L93.0662 144.874L93.59 145.089L94.151 145.019L94.4686 145.365C94.4686 145.365 95.1369 145.72 95.8051 145.65C96.4733 145.58 97.2818 145.893 97.3519 146.384C97.4221 146.875 98.4409 147.469 98.4409 147.469L98.7957 149.502C98.7957 149.502 99.1793 151.784 99.8805 151.293C100.586 150.802 100.305 151.396 100.479 151.854C100.656 152.307 101.25 151.957 100.866 150.975C100.479 149.993 100.446 149.189 100.656 148.768C100.866 148.347 101.568 148.38 102.624 147.085C103.68 145.79 104.311 147.89 104.311 148.451C104.311 149.016 105.507 149.189 105.507 150.835C105.507 152.485 106.559 152.939 106.068 153.046C105.853 153.087 105.536 152.868 105.231 152.65C104.839 152.365 104.476 152.081 104.418 152.378C104.311 152.901 105.75 153.462 105.82 153.99C105.891 154.514 107.437 155.673 107.437 155.673L107.718 154.795L107.404 154.271L106.913 153.817L107.054 152.658L106.456 151.817L106.208 151.433L105.82 150.662L105.961 149.853C105.961 149.853 106.489 150.03 106.629 150.03C106.773 150.03 107.157 150.802 107.157 150.802L107.054 151.185L107.474 151.012L107.792 150.348L108.246 149.89C108.246 149.89 108.46 149.156 107.437 148.03C106.596 147.102 107.73 147.11 108.225 147.122C108.324 147.127 108.398 147.127 108.423 147.118C108.563 147.085 109.582 146.735 109.582 146.735C109.582 146.735 111.377 146.454 111.727 143.649C111.727 143.649 111.62 142.214 111.34 142.247C111.059 142.284 111.55 141.442 111.868 141.442C112.185 141.442 111.868 140.741 112.185 140.741C112.499 140.741 113.307 141.059 113.307 141.405C113.307 141.76 113.311 141.583 113.06 142.144C112.816 142.705 114.012 142.214 113.975 141.933C113.942 141.653 113.484 140.353 114.045 139.759C114.606 139.161 114.891 139.128 115.172 139.231C115.452 139.339 116.228 136.954 116.929 136.15C117.63 135.342 116.896 137.586 116.896 138.006C116.896 138.427 117.56 138.114 117.774 137.553C117.985 136.992 117.597 135.87 117.597 135.87L117.317 134.995L116.929 135.309L116.261 134.855L115.737 135.098C115.737 135.098 115.662 134.397 116.471 133.803C117.279 133.205 118.999 132.471 119.812 132.751L120.055 132.995L121.111 132.681L120.868 132.153L121.078 131.662L121.99 131.559L122.658 131.522L122.939 131.732L121.532 133.065C121.532 133.065 120.658 133.939 121.078 135.729L121.215 136.22L121.85 135.379L122.097 135.131V134.855L122.551 134.785L122.658 134.29L122.836 134.009L122.939 133.345L123.079 132.957L123.43 132.541C123.43 132.541 123.43 132.26 123.995 132.401C124.556 132.541 124.799 132.644 124.799 132.644L125.364 132.083L126.14 131.732L126.523 131.629H127.014C127.014 131.629 127.229 131.349 127.055 130.858L127.332 130.33L126.911 128.28Z" fill="#FDE5DB"/>
</g>
</g>
<mask id="mask24_2017_2764" style="mask-type:luminance" maskUnits="userSpaceOnUse" x="107" y="150" width="4" height="6">
<path d="M107.917 150.884H110.817V155.508H107.917V150.884Z" fill="white"/>
</mask>
<g mask="url(#mask24_2017_2764)">
<mask id="mask25_2017_2764" style="mask-type:luminance" maskUnits="userSpaceOnUse" x="47" y="113" width="64" height="63">
<path d="M110.378 144.515C110.378 161.836 96.3001 175.873 78.9342 175.873C61.5725 175.873 47.4941 161.836 47.4941 144.515C47.4941 127.199 61.5725 113.162 78.9342 113.162C96.3001 113.162 110.378 127.199 110.378 144.515Z" fill="white"/>
</mask>
<g mask="url(#mask25_2017_2764)">
<path d="M109.719 155.005L109.826 155.393L110.177 155.182L110.424 154.233L110.812 153.85L110.985 153.499L110.845 152.938V152.414L111.055 152.06L110.812 151.606L110.775 151.045L110.494 151.713L110.004 152.237L109.335 152.414L109.088 153.046L108.56 153.359L108.242 153.499L108.349 154.271L108.7 154.902L109.158 155.005L109.579 154.972L109.719 155.005Z" fill="#FDE5DB"/>
</g>
</g>
<mask id="mask26_2017_2764" style="mask-type:luminance" maskUnits="userSpaceOnUse" x="109" y="157" width="2" height="11">
<path d="M109.077 157.241H110.818V167.644H109.077V157.241Z" fill="white"/>
</mask>
<g mask="url(#mask26_2017_2764)">
<mask id="mask27_2017_2764" style="mask-type:luminance" maskUnits="userSpaceOnUse" x="47" y="113" width="64" height="63">
<path d="M110.382 144.516C110.382 161.836 96.304 175.873 78.9381 175.873C61.5764 175.873 47.498 161.836 47.498 144.516C47.498 127.199 61.5764 113.162 78.9381 113.162C96.304 113.162 110.382 127.199 110.382 144.516Z" fill="white"/>
</mask>
<g mask="url(#mask27_2017_2764)">
<path d="M116.825 159.741C116.825 159.741 116.78 159.716 116.71 159.679C116.524 159.576 116.161 159.365 116.087 159.213C115.98 159.002 115.315 158.829 115.315 158.829L115.839 158.021C115.839 158.021 114.676 157.249 114.218 157.567C113.765 157.88 114.045 158.478 113.835 158.689C113.624 158.899 113.447 158.652 113.026 158.619C112.605 158.582 112.007 159.246 111.904 159.526C111.797 159.811 111.236 160.438 110.708 160.438C110.18 160.438 109.512 161.106 109.512 161.737C109.512 162.368 110.04 163.35 109.97 163.981C109.899 164.612 110.531 164.893 110.077 165.173C109.619 165.45 110.007 165.945 111.059 165.239C112.115 164.542 112.325 164.645 112.849 164.682C113.377 164.719 114.189 164.262 114.466 164.682C114.75 165.103 114.928 165.066 115.452 165.276C115.98 165.487 116.26 165.346 116.26 165.804C116.26 166.258 117.069 166.225 117.246 166.609C117.419 166.992 117.984 167.277 117.984 167.52C117.984 167.764 118.859 167.277 119.036 166.889C119.214 166.501 119.634 166.015 119.704 165.627C119.775 165.239 120.199 163.944 120.373 163.701C120.55 163.457 120.55 162.752 120.302 162.368C120.055 161.981 118.966 161.457 119.036 161.106C119.106 160.755 118.653 160.194 118.475 159.984C118.298 159.774 117.807 159.143 117.914 158.862C118.017 158.582 117.349 158.334 117.349 158.021C117.349 157.707 117.139 157.356 117.139 157.356C117.139 157.356 116.545 157.319 116.825 159.741Z" fill="#FDE5DB"/>
</g>
</g>
<mask id="mask28_2017_2764" style="mask-type:luminance" maskUnits="userSpaceOnUse" x="107" y="155" width="4" height="3">
<path d="M107.341 155.508H110.818V157.241H107.341V155.508Z" fill="white"/>
</mask>
<g mask="url(#mask28_2017_2764)">
<mask id="mask29_2017_2764" style="mask-type:luminance" maskUnits="userSpaceOnUse" x="47" y="113" width="64" height="63">
<path d="M110.382 144.516C110.382 161.836 96.304 175.873 78.9381 175.873C61.5764 175.873 47.498 161.836 47.498 144.516C47.498 127.199 61.5764 113.162 78.9381 113.162C96.304 113.162 110.382 127.199 110.382 144.516Z" fill="white"/>
</mask>
<g mask="url(#mask29_2017_2764)">
<path d="M107.998 155.917L108.531 156.094L109.265 155.987L109.723 156.234L109.83 156.477L110.849 156.585L111.307 156.477L111.76 156.688L112.709 156.725L112.466 157.076L111.587 157.212L110.461 157.038H109.793L109.339 156.828L108.778 156.515L108.106 156.655L107.475 156.411L107.998 155.917Z" fill="#FDE5DB"/>
</g>
</g>
<mask id="mask30_2017_2764" style="mask-type:luminance" maskUnits="userSpaceOnUse" x="60" y="121" width="17" height="12">
<path d="M60.9805 121.412H76.0447V132.393H60.9805V121.412Z" fill="white"/>
</mask>
<g mask="url(#mask30_2017_2764)">
<mask id="mask31_2017_2764" style="mask-type:luminance" maskUnits="userSpaceOnUse" x="47" y="113" width="64" height="63">
<path d="M110.379 144.516C110.379 161.836 96.3011 175.873 78.9352 175.873C61.5734 175.873 47.4951 161.836 47.4951 144.516C47.4951 127.199 61.5734 113.162 78.9352 113.162C96.3011 113.162 110.379 127.199 110.379 144.516Z" fill="white"/>
</mask>
<g mask="url(#mask31_2017_2764)">
<path d="M63.5912 125.038L65.2123 125.722L66.1445 127.047L67.1262 128.024L66.8334 128.808L66.8787 129.641L66.1899 130.132L67.4727 131.798C67.4727 131.798 68.0585 132.285 68.2565 132.285C68.4503 132.285 69.1887 131.6 69.1887 131.452C69.1887 131.303 69.7291 130.082 69.7291 130.082L71.544 129.055L72.7732 128.857L73.5611 128.416L73.953 127.632L73.5075 126.898L74.2458 125.821L74.9347 125.479L75.0337 123.763L75.4256 123.128L75.7184 122.493C75.7184 122.493 74.3943 122.588 74.0973 122.637C73.8045 122.687 72.8227 123.128 72.6289 122.687C72.4268 122.249 72.3814 121.758 71.9854 121.758C71.5935 121.758 70.6613 121.758 70.4179 121.758C70.1704 121.758 69.7786 121.808 69.4362 121.808C69.0897 121.808 69.3372 121.416 68.7473 121.511C68.1575 121.61 68.108 121.56 67.6666 121.903C67.2252 122.249 67.0767 122.2 66.6849 122.295C66.293 122.394 66.0455 122.295 65.7031 122.249C65.3608 122.2 65.7526 121.56 64.7214 122.394C63.6902 123.227 63.3478 123.033 63.0508 123.421C62.758 123.813 61.4792 123.961 61.4792 123.961C61.4792 123.961 61.0874 123.862 61.2854 124.353C61.4792 124.84 61.7267 125.574 62.1681 125.628C62.6095 125.673 63.5912 125.038 63.5912 125.038Z" fill="#FDE5DB"/>
</g>
</g>
<path d="M69.4531 198.647H88.1802V193.136H69.4531V198.647Z" fill="#2D54AD"/>
<path d="M88.1802 198.647H69.4531V197.34C70.9092 197.335 72.3612 197.327 73.8173 197.327C74.4525 197.327 75.0878 197.327 75.7189 197.331C77.1626 197.34 78.6682 197.496 80.149 197.496C80.8544 197.496 81.5556 197.463 82.2404 197.356C83.7542 197.125 84.9587 195.809 85.3918 194.407C85.5155 193.998 85.5733 193.569 85.5857 193.136H88.1802V198.647Z" fill="#20448D"/>
<path d="M107.395 157.876C107.593 157.455 107.782 157.026 107.964 156.597C108.046 156.395 108.129 156.193 108.211 155.987C108.364 155.599 108.508 155.203 108.649 154.803C108.925 154.015 109.168 153.215 109.379 152.402C109.882 150.468 110.204 148.455 110.327 146.397C110.36 145.774 110.381 145.151 110.381 144.516C110.381 149.296 109.308 153.821 107.395 157.876Z" fill="#B0B3CD"/>
<path d="M78.9362 175.873C61.5744 175.873 47.4961 161.836 47.4961 144.516C47.4961 143.427 47.5538 142.35 47.6611 141.29C47.9251 142.573 48.0612 143.897 48.2757 145.027C48.8243 147.947 50.004 150.509 51.5591 153.038C54.2445 157.406 57.7878 161.411 62.2674 163.919L62.3128 164.678L62.1189 165.264L61.9704 165.953V166.493L61.7724 167.471V168.939C61.7724 168.939 62.4489 170.358 63.7647 170.358C63.9545 170.358 64.1607 170.329 64.3752 170.263C64.3752 170.263 63.9834 169.822 63.6905 169.282C63.6905 169.282 63.2244 168.448 63.6534 168.448C63.6616 168.448 63.6781 168.448 63.6905 168.448C63.7029 168.452 63.7194 168.452 63.7276 168.452C64.1566 168.452 63.7524 167.66 64.2309 167.52C64.7217 167.372 63.4925 167.079 64.2804 166.345C65.0641 165.61 64.0329 165.561 64.5774 165.12C64.598 165.103 64.6186 165.082 64.6392 165.066C64.796 165.132 64.9568 165.194 65.1177 165.256C68.3022 166.468 71.7795 167.079 75.2691 167.079C78.3669 167.079 81.473 166.6 84.3934 165.635C84.4512 165.643 84.5131 165.652 84.5832 165.652C84.8678 165.652 85.2267 165.569 85.6103 165.384C85.9485 165.219 86.2868 165.033 86.5879 164.802C90.2013 163.247 93.427 160.891 95.8401 157.736C97.4735 155.599 98.5419 153.227 99.1359 150.744C99.2761 151.087 99.4617 151.359 99.6845 151.359C99.7464 151.359 99.8124 151.338 99.8784 151.293C100.064 151.161 100.184 151.107 100.258 151.107C100.468 151.107 100.349 151.52 100.476 151.854C100.53 151.986 100.617 152.052 100.703 152.052C100.918 152.052 101.141 151.672 100.864 150.975C100.476 149.993 100.443 149.189 100.654 148.768C100.864 148.348 101.565 148.381 102.621 147.085C102.865 146.788 103.083 146.673 103.277 146.673C103.933 146.673 104.309 148.018 104.309 148.451C104.309 149.016 105.505 149.189 105.505 150.835C105.505 152.485 106.557 152.939 106.066 153.046C106.045 153.05 106.024 153.05 106.004 153.05C105.793 153.05 105.505 152.848 105.228 152.65C104.956 152.452 104.696 152.25 104.544 152.25C104.478 152.25 104.432 152.291 104.416 152.378C104.309 152.902 105.748 153.463 105.818 153.99C105.888 154.514 107.435 155.673 107.435 155.673L107.716 154.795L107.402 154.271L106.911 153.817L107.052 152.658L106.453 151.817L106.206 151.433L105.818 150.662L105.958 149.853C105.958 149.853 106.486 150.031 106.627 150.031C106.771 150.031 107.155 150.802 107.155 150.802L107.052 151.186L107.472 151.012L107.79 150.348L108.244 149.89C108.244 149.89 108.458 149.156 107.435 148.03C106.68 147.201 107.514 147.118 108.05 147.118C108.112 147.118 108.169 147.118 108.223 147.123C108.273 147.123 108.318 147.127 108.351 147.127C108.384 147.127 108.409 147.123 108.421 147.118C108.561 147.085 109.58 146.735 109.58 146.735C109.58 146.735 109.914 146.681 110.327 146.397C110.203 148.455 109.881 150.468 109.378 152.402L109.337 152.415L109.089 153.046L108.561 153.359L108.244 153.5L108.351 154.271L108.648 154.803C108.508 155.203 108.363 155.599 108.211 155.987L107.996 155.917L107.472 156.412L107.963 156.597C107.782 157.026 107.592 157.455 107.394 157.876C106.981 158.747 106.528 159.596 106.041 160.421C105.513 161.316 104.944 162.178 104.329 163.016C101.12 167.388 96.8012 170.903 91.7894 173.142C90.6674 173.642 89.5125 174.083 88.3286 174.45C85.3628 175.374 82.2114 175.873 78.9362 175.873ZM97.2302 128.771C96.9497 128.771 95.6544 127.839 94.9615 127.756C94.8996 127.748 94.8542 127.744 94.813 127.744C94.2355 127.744 95.4152 128.4 95.1182 128.598C95.0728 128.626 95.0151 128.635 94.9367 128.635C94.7965 128.635 94.6108 128.598 94.4128 128.54C93.9014 127.74 93.3569 126.972 92.7959 126.238C88.0605 120.059 81.3616 115.79 74.0028 113.546C75.595 113.298 77.2326 113.166 78.8949 113.162C78.8991 113.162 78.8991 113.162 78.9032 113.162C78.9156 113.162 78.9238 113.162 78.9362 113.162C88.9143 113.162 97.8077 117.799 103.566 125.025C103.512 125.038 103.459 125.054 103.397 125.075C102.551 125.335 101.706 125.232 101.706 125.702C101.706 126.176 101.549 126.44 101.025 126.44C100.497 126.44 101.128 127.125 101.128 127.125C101.128 127.125 100.233 126.964 99.8619 126.861C99.6762 126.811 99.5442 126.729 99.4081 126.729C99.2679 126.729 99.1235 126.811 98.9131 127.071C98.6409 127.41 98.2861 127.509 97.952 127.509C97.7664 127.509 97.589 127.476 97.4364 127.438C97.3828 127.426 97.3209 127.418 97.2673 127.418C96.9208 127.418 96.6733 127.719 97.1765 128.49C97.3044 128.692 97.3085 128.771 97.2302 128.771Z" fill="#5098D8"/>
<path d="M63.7648 170.358C62.4489 170.358 61.7725 168.939 61.7725 168.939V167.471L61.9705 166.493V165.953L62.119 165.264L62.3128 164.678L62.2675 163.919C63.0306 164.348 63.8225 164.732 64.6393 165.066C64.6186 165.083 64.598 165.103 64.5774 165.12C64.0329 165.561 65.0641 165.611 64.2804 166.345C63.4925 167.079 64.7218 167.372 64.2309 167.52C63.7524 167.661 64.1567 168.453 63.7277 168.453C63.7194 168.453 63.7029 168.453 63.6905 168.449C63.6782 168.449 63.6617 168.449 63.6534 168.449C63.2244 168.449 63.6905 169.282 63.6905 169.282C63.9834 169.822 64.3753 170.264 64.3753 170.264C64.1608 170.33 63.9545 170.358 63.7648 170.358Z" fill="#B0B3CD"/>
<path d="M84.5833 165.652C84.5132 165.652 84.4513 165.643 84.3936 165.635C85.136 165.392 85.8703 165.111 86.588 164.802C86.2869 165.033 85.9486 165.219 85.6104 165.384C85.2268 165.569 84.8679 165.652 84.5833 165.652ZM107.435 155.673C107.435 155.673 105.888 154.514 105.818 153.991C105.748 153.463 104.309 152.902 104.416 152.378C104.432 152.291 104.478 152.25 104.544 152.25C104.696 152.25 104.956 152.452 105.228 152.65C105.505 152.848 105.794 153.05 106.004 153.05C106.025 153.05 106.045 153.05 106.066 153.046C106.557 152.939 105.505 152.485 105.505 150.835C105.505 149.189 104.309 149.016 104.309 148.451C104.309 148.018 103.933 146.673 103.277 146.673C103.084 146.673 102.865 146.788 102.622 147.085C101.566 148.381 100.864 148.348 100.654 148.768C100.444 149.189 100.477 149.993 100.864 150.975C101.141 151.672 100.918 152.052 100.703 152.052C100.617 152.052 100.53 151.986 100.477 151.854C100.349 151.52 100.468 151.107 100.258 151.107C100.184 151.107 100.064 151.161 99.8785 151.293C99.8125 151.338 99.7465 151.359 99.6846 151.359C99.4619 151.359 99.2762 151.087 99.136 150.744C100.91 143.352 98.5049 134.938 94.413 128.54C94.611 128.598 94.7966 128.635 94.9368 128.635C95.0152 128.635 95.073 128.626 95.1183 128.598C95.4153 128.4 94.2356 127.744 94.8131 127.744C94.8543 127.744 94.8997 127.748 94.9616 127.756C95.6546 127.839 96.9498 128.771 97.2303 128.771C97.3087 128.771 97.3045 128.692 97.1767 128.49C96.6734 127.719 96.9209 127.418 97.2674 127.418C97.321 127.418 97.3829 127.426 97.4365 127.438C97.5891 127.476 97.7665 127.509 97.9521 127.509C98.2863 127.509 98.641 127.41 98.9132 127.071C99.1236 126.811 99.268 126.729 99.4082 126.729C99.5444 126.729 99.6764 126.811 99.862 126.861C100.233 126.964 101.128 127.125 101.128 127.125C101.128 127.125 100.497 126.44 101.025 126.44C101.549 126.44 101.706 126.176 101.706 125.702C101.706 125.232 102.551 125.335 103.397 125.075C103.459 125.054 103.513 125.038 103.566 125.025C107.831 130.375 110.381 137.149 110.381 144.516C110.381 145.151 110.36 145.774 110.327 146.397C109.914 146.681 109.58 146.735 109.58 146.735C109.58 146.735 108.561 147.085 108.421 147.118C108.409 147.123 108.384 147.127 108.351 147.127C108.318 147.127 108.273 147.123 108.223 147.123C108.17 147.118 108.112 147.118 108.05 147.118C107.514 147.118 106.68 147.201 107.435 148.03C108.458 149.156 108.244 149.89 108.244 149.89L107.79 150.348L107.472 151.012L107.052 151.186L107.155 150.802C107.155 150.802 106.771 150.031 106.627 150.031C106.487 150.031 105.959 149.853 105.959 149.853L105.818 150.662L106.206 151.433L106.454 151.817L107.052 152.658L106.911 153.817L107.402 154.271L107.716 154.795L107.435 155.673Z" fill="#B0B3CD"/>
<path d="M108.648 154.803L108.351 154.271L108.244 153.5L108.562 153.359L109.09 153.046L109.337 152.415L109.378 152.402C109.168 153.215 108.925 154.015 108.648 154.803Z" fill="#B0B3CD"/>
<path d="M107.964 156.598L107.473 156.412L107.997 155.917L108.211 155.987C108.129 156.193 108.046 156.395 107.964 156.598Z" fill="#B0B3CD"/>
<path d="M84.8063 173.184C84.8063 173.184 84.7692 173.188 84.695 173.192C84.464 173.2 83.903 173.225 83.0904 173.233C82.7728 173.238 82.517 173.502 82.5211 173.819C82.5253 174.141 82.7893 174.397 83.1069 174.393C84.2041 174.376 84.8641 174.343 84.8682 174.343C85.1899 174.322 85.4333 174.05 85.4168 173.733C85.4003 173.415 85.1281 173.172 84.8063 173.184ZM80.2153 173.213C79.6667 173.2 79.0892 173.18 78.487 173.151C78.1693 173.134 77.893 173.378 77.8765 173.7C77.86 174.017 78.1075 174.285 78.4292 174.306C79.0397 174.335 79.6296 174.355 80.1823 174.372C80.4999 174.38 80.768 174.129 80.7763 173.807C80.7845 173.489 80.5329 173.225 80.2153 173.213ZM75.616 172.945C75.0509 172.891 74.4817 172.829 73.9042 172.755C73.5866 172.718 73.2978 172.941 73.2566 173.258C73.2153 173.572 73.4422 173.865 73.7598 173.902C74.3497 173.976 74.9313 174.042 75.5088 174.096C75.8264 174.124 76.111 173.893 76.1399 173.572C76.1688 173.254 75.9336 172.974 75.616 172.945ZM71.0745 172.314C70.5094 172.206 69.9484 172.087 69.3998 171.955C69.0863 171.88 68.7728 172.07 68.6986 172.384C68.6243 172.689 68.8182 173.007 69.1275 173.081C69.6968 173.213 70.2743 173.341 70.8559 173.448C71.1694 173.51 71.4746 173.304 71.5324 172.99C71.5942 172.677 71.388 172.371 71.0745 172.314ZM66.6773 171.155C66.1329 170.961 65.609 170.75 65.1181 170.519C64.8253 170.383 64.4829 170.511 64.3468 170.8C64.2106 171.089 64.3344 171.431 64.6273 171.567C65.1594 171.814 65.7121 172.037 66.2855 172.243C66.5866 172.351 66.9207 172.194 67.028 171.893C67.1352 171.596 66.9785 171.262 66.6773 171.155ZM62.7587 169.1C62.3214 168.754 61.9337 168.383 61.6078 167.982C61.4057 167.735 61.0427 167.694 60.7952 167.896C60.5436 168.098 60.5065 168.461 60.7086 168.708C61.0922 169.183 61.5418 169.616 62.0368 170.008C62.2884 170.206 62.6514 170.165 62.8494 169.913C63.0515 169.665 63.0062 169.298 62.7587 169.1ZM60.4941 165.66C60.4199 165.31 60.3827 164.938 60.3827 164.546C60.3827 164.398 60.3869 164.249 60.3992 164.097C60.424 163.779 60.1806 163.503 59.863 163.478C59.5454 163.457 59.2649 163.697 59.2443 164.014C59.2278 164.196 59.2236 164.373 59.2236 164.546C59.2236 165.013 59.269 165.462 59.3556 165.891C59.4216 166.205 59.7269 166.407 60.0404 166.345C60.3539 166.279 60.556 165.974 60.4941 165.66ZM61.0468 161.506C61.2902 160.97 61.5831 160.566 61.8966 160.265C62.1276 160.046 62.1399 159.683 61.9172 159.448C61.6986 159.217 61.3315 159.209 61.1005 159.427C60.6632 159.844 60.292 160.376 59.9909 161.024C59.8589 161.317 59.9867 161.659 60.2796 161.791C60.5683 161.927 60.9107 161.795 61.0468 161.506ZM64.1116 159.522C64.5819 159.563 65.0893 159.691 65.609 159.91C65.9019 160.034 66.2442 159.898 66.368 159.601C66.4917 159.308 66.3515 158.97 66.0586 158.842C65.444 158.586 64.8211 158.421 64.2024 158.371C63.8848 158.347 63.6043 158.586 63.5795 158.904C63.5548 159.221 63.7899 159.498 64.1116 159.522ZM67.8777 161.366C68.2819 161.721 68.6738 162.113 69.0409 162.542C69.2513 162.785 69.6143 162.814 69.8618 162.604C70.101 162.397 70.1299 162.03 69.9236 161.791C69.5194 161.321 69.0904 160.888 68.6408 160.5C68.4016 160.289 68.0344 160.314 67.8241 160.553C67.6137 160.793 67.6384 161.156 67.8777 161.366ZM70.596 164.823C70.8518 165.305 71.0786 165.813 71.2601 166.332C71.3715 166.634 71.7015 166.79 72.0026 166.683C72.3037 166.576 72.4605 166.246 72.3532 165.945C72.1511 165.371 71.9036 164.815 71.619 164.282C71.4705 163.998 71.1199 163.891 70.8394 164.039C70.5548 164.188 70.4475 164.538 70.596 164.823ZM71.8211 168.993C71.8294 169.166 71.8376 169.34 71.8376 169.517C71.8376 169.88 71.8129 170.247 71.7634 170.606C71.7221 170.924 71.9407 171.216 72.2584 171.262C72.576 171.303 72.8688 171.08 72.9142 170.763C72.9678 170.346 72.9967 169.934 72.9967 169.517C72.9967 169.319 72.9885 169.121 72.9761 168.923C72.9596 168.601 72.6832 168.358 72.3615 168.378C72.0439 168.399 71.8005 168.671 71.8211 168.993ZM70.9466 173.151C70.7033 173.609 70.4063 174.063 70.0515 174.5C69.8494 174.751 69.8907 175.114 70.1423 175.317C70.3898 175.515 70.7528 175.477 70.9549 175.23C71.355 174.731 71.6932 174.215 71.9737 173.691C72.1222 173.411 72.0109 173.06 71.7304 172.912C71.4457 172.759 71.0951 172.87 70.9466 173.151ZM68.0592 176.373C67.6343 176.686 67.1682 176.983 66.6567 177.272C66.3762 177.428 66.2772 177.783 66.4381 178.06C66.5948 178.34 66.9496 178.435 67.226 178.278C67.7746 177.969 68.2819 177.643 68.7439 177.305C69.0038 177.119 69.0574 176.756 68.8677 176.496C68.6821 176.241 68.3149 176.187 68.0592 176.373ZM64.1116 178.456C63.6043 178.649 63.0722 178.835 62.5071 179.004C62.1977 179.099 62.0286 179.421 62.1234 179.726C62.2142 180.031 62.5401 180.205 62.8453 180.11C63.4352 179.932 63.9962 179.738 64.5283 179.536C64.8253 179.421 64.9738 179.087 64.8583 178.79C64.7469 178.489 64.4128 178.34 64.1116 178.456ZM59.7599 179.701C59.1989 179.804 58.6461 179.883 58.1017 179.924C57.7799 179.949 57.5448 180.229 57.5695 180.547C57.5943 180.865 57.8748 181.104 58.1924 181.079C58.7823 181.03 59.3762 180.951 59.9785 180.84C60.292 180.778 60.4982 180.473 60.4364 180.159C60.3786 179.846 60.0775 179.644 59.7599 179.701ZM55.3256 179.883C54.7687 179.817 54.2201 179.726 53.6797 179.598C53.3663 179.528 53.0569 179.722 52.9826 180.031C52.9125 180.341 53.1064 180.654 53.4199 180.724C54.0015 180.86 54.5955 180.964 55.1936 181.03C55.5112 181.067 55.7958 180.84 55.8329 180.518C55.8701 180.205 55.6432 179.916 55.3215 179.883H55.3256ZM51.0398 178.724C50.5324 178.501 50.0292 178.253 49.5383 177.977C49.2578 177.82 48.9031 177.923 48.7505 178.2C48.5937 178.48 48.6927 178.831 48.9691 178.988C49.4971 179.281 50.0333 179.549 50.5737 179.784C50.8707 179.912 51.213 179.776 51.3368 179.483C51.4688 179.194 51.3327 178.852 51.0398 178.724ZM47.1995 176.43C46.7581 176.092 46.325 175.733 45.896 175.35C45.6568 175.135 45.2938 175.156 45.0793 175.395C44.8648 175.63 44.8854 175.997 45.1206 176.208C45.5702 176.612 46.0239 176.987 46.49 177.346C46.7458 177.544 47.1088 177.494 47.3026 177.243C47.5006 176.987 47.4511 176.624 47.1995 176.43ZM43.8996 173.345C43.5283 172.928 43.1612 172.495 42.8024 172.045C42.6002 171.798 42.2372 171.757 41.9856 171.955C41.734 172.153 41.6969 172.516 41.8949 172.767C42.2661 173.233 42.6497 173.683 43.0375 174.116C43.252 174.355 43.615 174.376 43.8542 174.162C44.0934 173.951 44.1141 173.584 43.9037 173.345H43.8996ZM41.1235 169.752C40.8059 169.286 40.5006 168.803 40.1995 168.312C40.0345 168.04 39.6757 167.954 39.4034 168.119C39.1312 168.284 39.0446 168.638 39.2096 168.911C39.5189 169.418 39.8324 169.913 40.1583 170.396C40.3357 170.66 40.6986 170.73 40.9626 170.552C41.2308 170.375 41.3009 170.016 41.1235 169.752ZM38.7971 165.825C38.5331 165.322 38.2773 164.81 38.034 164.291C37.8937 164.006 37.5472 163.878 37.2585 164.018C36.9697 164.155 36.846 164.501 36.9862 164.786C37.242 165.322 37.5018 165.846 37.77 166.357C37.9185 166.642 38.2691 166.753 38.5496 166.605C38.8342 166.456 38.9456 166.11 38.7971 165.825ZM36.8749 161.675C36.6562 161.152 36.4459 160.619 36.2437 160.079C36.1324 159.782 35.7983 159.629 35.4971 159.741C35.2001 159.852 35.0475 160.186 35.1589 160.483C35.3651 161.036 35.5796 161.581 35.8024 162.113C35.922 162.41 36.2602 162.554 36.5572 162.43C36.8542 162.311 36.9945 161.972 36.8749 161.675ZM35.3033 157.373C35.13 156.833 34.9609 156.284 34.8 155.731C34.7093 155.422 34.3875 155.249 34.0823 155.335C33.7729 155.426 33.5997 155.748 33.6863 156.053C33.8513 156.614 34.0204 157.175 34.2019 157.728C34.2968 158.029 34.6226 158.198 34.9279 158.099C35.2331 158.004 35.3981 157.678 35.3033 157.373ZM34.0617 152.964C33.9255 152.407 33.7977 151.846 33.678 151.285C33.6079 150.975 33.2986 150.777 32.9851 150.843C32.6757 150.909 32.4736 151.219 32.5437 151.528C32.6674 152.102 32.7953 152.671 32.9356 153.236C33.0098 153.545 33.3233 153.735 33.6327 153.661C33.9462 153.582 34.1359 153.273 34.0617 152.964ZM33.1336 148.476C33.0346 147.911 32.9438 147.346 32.8613 146.776C32.8159 146.463 32.5189 146.244 32.2055 146.29C31.8878 146.335 31.6651 146.628 31.7146 146.945C31.7971 147.519 31.8878 148.096 31.9868 148.67C32.0446 148.987 32.3416 149.193 32.6592 149.14C32.9727 149.086 33.1872 148.789 33.1336 148.476ZM32.5066 143.934C32.4488 143.361 32.3952 142.792 32.3539 142.218C32.3292 141.901 32.0487 141.661 31.7311 141.686C31.4093 141.711 31.1742 141.991 31.1948 142.309C31.2402 142.886 31.2938 143.472 31.3557 144.05C31.3846 144.367 31.6733 144.598 31.991 144.569C32.3086 144.532 32.5396 144.248 32.5066 143.934ZM32.1931 139.356C32.1725 138.782 32.1642 138.209 32.1601 137.635C32.1601 137.318 31.8961 137.058 31.5743 137.062C31.2567 137.062 31.001 137.322 31.001 137.644C31.0051 138.225 31.0175 138.807 31.034 139.393C31.0464 139.71 31.3145 139.962 31.6362 139.95C31.9538 139.941 32.2055 139.673 32.1931 139.356ZM32.2096 134.773C32.2302 134.199 32.2632 133.626 32.3044 133.057C32.3251 132.739 32.0817 132.463 31.7641 132.442C31.4465 132.417 31.1701 132.657 31.1453 132.974C31.1041 133.556 31.0752 134.142 31.0505 134.723C31.0381 135.045 31.2856 135.313 31.6073 135.326C31.925 135.338 32.1972 135.09 32.2096 134.773ZM32.5767 130.211C32.6468 129.637 32.7211 129.072 32.8118 128.511C32.8613 128.198 32.6427 127.901 32.3251 127.851C32.0116 127.802 31.7146 128.016 31.6651 128.334C31.5743 128.911 31.496 129.489 31.4258 130.07C31.3846 130.388 31.6115 130.677 31.9291 130.714C32.2467 130.751 32.5354 130.524 32.5767 130.211ZM33.3316 125.702C33.4512 125.141 33.5832 124.588 33.7234 124.04C33.8018 123.73 33.6162 123.413 33.3068 123.334C32.9974 123.256 32.6798 123.442 32.6014 123.751C32.4571 124.312 32.3251 124.885 32.1972 125.459C32.1312 125.772 32.3292 126.077 32.6427 126.148C32.9562 126.214 33.2614 126.016 33.3316 125.702ZM34.5278 121.305C34.7093 120.756 34.9031 120.224 35.1011 119.696C35.2166 119.395 35.0681 119.061 34.7711 118.95C34.47 118.834 34.1359 118.983 34.0204 119.28C33.8142 119.824 33.6162 120.377 33.4264 120.938C33.3274 121.243 33.4924 121.569 33.7977 121.668C34.0988 121.771 34.4288 121.606 34.5278 121.305ZM36.2314 117.089C36.4789 116.574 36.7429 116.07 37.0151 115.575C37.1718 115.299 37.0687 114.944 36.7882 114.792C36.5077 114.635 36.1571 114.738 36.0004 115.019C35.7158 115.526 35.4435 116.05 35.1878 116.582C35.0475 116.875 35.1671 117.217 35.46 117.357C35.7446 117.498 36.0911 117.374 36.2314 117.089ZM38.5083 113.171C38.8342 112.704 39.1724 112.251 39.523 111.809C39.721 111.562 39.6798 111.199 39.4282 111.001C39.1807 110.799 38.8177 110.84 38.6156 111.088C38.2484 111.55 37.8937 112.024 37.5555 112.511C37.374 112.775 37.44 113.133 37.6998 113.315C37.9638 113.496 38.3268 113.43 38.5083 113.171ZM41.4081 109.714C41.6886 109.442 41.9732 109.174 42.262 108.918C42.5012 108.707 42.5219 108.34 42.3115 108.105C42.097 107.866 41.7299 107.841 41.4948 108.056C41.1854 108.328 40.8884 108.604 40.5955 108.889C40.3687 109.116 40.3645 109.479 40.5914 109.706C40.8183 109.937 41.1854 109.937 41.4081 109.714Z" fill="white"/>
<path d="M166.125 141.406C166.125 141.406 166.15 141.377 166.203 141.323C166.36 141.162 166.752 140.762 167.346 140.176C167.573 139.95 167.573 139.587 167.35 139.356C167.123 139.133 166.756 139.129 166.529 139.356C165.729 140.143 165.288 140.605 165.283 140.61C165.065 140.841 165.073 141.208 165.304 141.426C165.535 141.645 165.902 141.637 166.125 141.406ZM169.429 138.176C169.821 137.805 170.246 137.413 170.699 137C170.939 136.786 170.955 136.419 170.737 136.183C170.522 135.944 170.155 135.932 169.92 136.146C169.462 136.563 169.033 136.959 168.633 137.33C168.402 137.553 168.39 137.916 168.608 138.151C168.827 138.382 169.194 138.394 169.429 138.176ZM172.857 135.078C173.278 134.711 173.719 134.336 174.169 133.952C174.416 133.746 174.445 133.379 174.239 133.135C174.028 132.892 173.665 132.863 173.422 133.069C172.964 133.457 172.519 133.836 172.094 134.208C171.85 134.418 171.826 134.785 172.036 135.024C172.25 135.264 172.613 135.288 172.857 135.078ZM176.396 132.112C176.837 131.757 177.291 131.399 177.753 131.036C178.005 130.842 178.046 130.475 177.852 130.227C177.654 129.975 177.291 129.93 177.035 130.128C176.573 130.491 176.115 130.854 175.666 131.213C175.418 131.415 175.377 131.778 175.579 132.026C175.781 132.277 176.148 132.314 176.396 132.112ZM180.051 129.295C180.509 128.957 180.975 128.614 181.449 128.28C181.709 128.095 181.771 127.732 181.585 127.476C181.4 127.216 181.037 127.154 180.777 127.34C180.298 127.678 179.824 128.02 179.358 128.363C179.102 128.552 179.048 128.915 179.238 129.175C179.428 129.427 179.791 129.485 180.051 129.295ZM183.825 126.651C184.303 126.333 184.786 126.024 185.273 125.714C185.545 125.545 185.623 125.186 185.454 124.918C185.281 124.646 184.926 124.568 184.654 124.737C184.159 125.05 183.672 125.368 183.186 125.69C182.917 125.863 182.843 126.222 183.021 126.486C183.198 126.754 183.557 126.824 183.825 126.651ZM187.739 124.234C188.239 123.945 188.742 123.664 189.245 123.396C189.526 123.244 189.633 122.893 189.48 122.613C189.332 122.332 188.977 122.225 188.696 122.377C188.181 122.654 187.669 122.938 187.162 123.231C186.882 123.388 186.787 123.743 186.948 124.019C187.108 124.295 187.459 124.39 187.739 124.234ZM191.807 122.109C192.331 121.866 192.854 121.631 193.374 121.412C193.671 121.284 193.807 120.946 193.683 120.653C193.56 120.36 193.217 120.22 192.925 120.344C192.384 120.575 191.848 120.814 191.316 121.062C191.027 121.198 190.899 121.54 191.035 121.829C191.171 122.118 191.518 122.245 191.807 122.109ZM196.043 120.397C196.592 120.216 197.136 120.051 197.676 119.898C197.986 119.816 198.167 119.494 198.081 119.189C197.994 118.879 197.676 118.698 197.367 118.785C196.806 118.941 196.241 119.11 195.676 119.3C195.371 119.403 195.21 119.729 195.313 120.034C195.412 120.336 195.742 120.496 196.043 120.397ZM200.444 119.296C201.005 119.205 201.566 119.135 202.119 119.094C202.441 119.069 202.676 118.793 202.655 118.475C202.63 118.153 202.35 117.918 202.032 117.943C201.447 117.988 200.853 118.059 200.259 118.153C199.945 118.203 199.726 118.5 199.78 118.813C199.83 119.131 200.127 119.346 200.444 119.296ZM204.92 119.102C205.481 119.152 206.029 119.23 206.57 119.341C206.883 119.407 207.193 119.205 207.254 118.892C207.32 118.578 207.122 118.273 206.805 118.211C206.219 118.092 205.625 118.001 205.019 117.951C204.701 117.922 204.421 118.158 204.392 118.475C204.363 118.793 204.602 119.073 204.92 119.102ZM209.201 120.187C209.705 120.41 210.191 120.67 210.67 120.963C210.942 121.132 211.301 121.045 211.466 120.773C211.635 120.505 211.553 120.15 211.28 119.981C210.757 119.655 210.224 119.374 209.68 119.131C209.387 118.999 209.041 119.131 208.913 119.42C208.781 119.713 208.913 120.055 209.201 120.187ZM212.856 122.658C213.029 122.827 213.203 122.996 213.372 123.178C213.594 123.417 213.805 123.648 213.999 123.879C214.205 124.122 214.572 124.155 214.815 123.949C215.063 123.743 215.092 123.38 214.886 123.136C214.675 122.885 214.452 122.637 214.213 122.386C214.028 122.192 213.842 122.002 213.656 121.825C213.425 121.606 213.058 121.61 212.835 121.841C212.613 122.072 212.625 122.439 212.856 122.658ZM215.537 126.152C215.797 126.684 215.97 127.179 216.065 127.645C216.131 127.958 216.437 128.156 216.75 128.095C217.063 128.029 217.266 127.723 217.2 127.414C217.084 126.841 216.878 126.251 216.577 125.644C216.437 125.356 216.09 125.24 215.801 125.38C215.513 125.521 215.397 125.867 215.537 126.152ZM215.797 130.087C215.583 130.52 215.277 130.92 214.877 131.283C214.642 131.502 214.626 131.865 214.84 132.1C215.059 132.335 215.422 132.351 215.661 132.137C216.152 131.687 216.552 131.176 216.837 130.598C216.977 130.314 216.861 129.967 216.573 129.827C216.288 129.683 215.942 129.802 215.797 130.087ZM212.58 132.615C212.093 132.801 211.561 132.95 210.992 133.069C210.678 133.135 210.48 133.445 210.546 133.758C210.612 134.067 210.917 134.265 211.231 134.199C211.85 134.072 212.435 133.902 212.984 133.7C213.285 133.589 213.438 133.259 213.326 132.958C213.215 132.661 212.881 132.504 212.58 132.615ZM208.22 133.387C208.059 133.387 207.894 133.391 207.729 133.391C207.337 133.391 206.941 133.379 206.533 133.354C206.215 133.333 205.943 133.577 205.922 133.894C205.901 134.212 206.141 134.488 206.462 134.509C206.891 134.534 207.312 134.546 207.729 134.546C207.902 134.546 208.079 134.546 208.253 134.542C208.57 134.529 208.826 134.265 208.818 133.948C208.805 133.626 208.541 133.374 208.22 133.387ZM203.74 132.991C203.191 132.884 202.643 132.752 202.09 132.599C201.781 132.516 201.463 132.694 201.376 132.999C201.29 133.308 201.471 133.626 201.781 133.713C202.358 133.874 202.94 134.01 203.513 134.121C203.827 134.187 204.132 133.981 204.194 133.667C204.256 133.358 204.054 133.053 203.74 132.991ZM199.421 131.679C198.902 131.465 198.386 131.229 197.879 130.974C197.594 130.829 197.243 130.945 197.103 131.229C196.955 131.514 197.07 131.861 197.359 132.005C197.891 132.277 198.431 132.521 198.972 132.747C199.269 132.871 199.611 132.731 199.731 132.434C199.854 132.141 199.714 131.803 199.421 131.679ZM195.445 129.546C194.983 129.233 194.529 128.899 194.084 128.548C193.832 128.35 193.465 128.392 193.267 128.639C193.069 128.891 193.11 129.254 193.358 129.452C193.828 129.823 194.306 130.178 194.797 130.503C195.061 130.685 195.42 130.615 195.602 130.351C195.779 130.087 195.709 129.728 195.445 129.546ZM192.001 126.655C191.613 126.255 191.237 125.834 190.874 125.397C190.672 125.149 190.309 125.112 190.062 125.314C189.814 125.516 189.777 125.879 189.979 126.127C190.359 126.593 190.755 127.034 191.163 127.459C191.382 127.686 191.749 127.694 191.98 127.476C192.211 127.253 192.219 126.886 192.001 126.655ZM189.241 123.107C188.948 122.637 188.672 122.146 188.412 121.639C188.263 121.354 187.917 121.243 187.628 121.387C187.343 121.536 187.232 121.882 187.381 122.167C187.657 122.703 187.95 123.215 188.255 123.714C188.424 123.986 188.779 124.069 189.055 123.904C189.328 123.734 189.41 123.38 189.241 123.107ZM187.282 119.061C187.092 118.537 186.915 118.005 186.758 117.452C186.667 117.147 186.345 116.97 186.04 117.056C185.731 117.143 185.553 117.465 185.644 117.77C185.809 118.347 185.995 118.912 186.193 119.457C186.304 119.754 186.638 119.911 186.935 119.799C187.236 119.692 187.393 119.358 187.282 119.061ZM186.123 114.701C186.028 114.156 185.945 113.595 185.879 113.018C185.846 112.704 185.557 112.473 185.24 112.511C184.922 112.548 184.691 112.832 184.728 113.15C184.794 113.748 184.881 114.33 184.98 114.899C185.038 115.212 185.335 115.423 185.652 115.369C185.966 115.311 186.176 115.014 186.123 114.701ZM185.689 110.192C185.685 109.928 185.677 109.656 185.677 109.384C185.677 109.091 185.685 108.79 185.689 108.489C185.698 108.167 185.446 107.903 185.128 107.895C184.807 107.887 184.539 108.138 184.53 108.46C184.526 108.769 184.518 109.079 184.518 109.384C184.518 109.664 184.526 109.945 184.53 110.221C184.539 110.539 184.803 110.791 185.124 110.786C185.442 110.778 185.698 110.51 185.689 110.192ZM185.871 105.647C185.925 105.09 185.991 104.525 186.073 103.947C186.114 103.634 185.896 103.341 185.578 103.296C185.26 103.254 184.968 103.473 184.922 103.791C184.84 104.38 184.77 104.962 184.716 105.535C184.687 105.853 184.918 106.133 185.236 106.166C185.553 106.195 185.838 105.964 185.871 105.647ZM186.498 101.093C186.58 100.507 186.659 99.9337 186.733 99.3686C186.774 99.051 186.552 98.7623 186.234 98.721C185.916 98.6756 185.628 98.9025 185.582 99.216C185.512 99.7811 185.434 100.35 185.347 100.932C185.302 101.245 185.524 101.538 185.842 101.584C186.16 101.629 186.453 101.41 186.498 101.093ZM187.084 96.4894C187.15 95.8996 187.207 95.3221 187.265 94.757C187.294 94.4394 187.063 94.1547 186.741 94.1259C186.428 94.097 186.143 94.328 186.11 94.6456C186.057 95.2066 185.995 95.78 185.933 96.3616C185.896 96.6792 186.127 96.9638 186.444 97.0009C186.762 97.0339 187.047 96.8071 187.084 96.4894ZM187.513 91.8613C187.554 91.2714 187.591 90.6939 187.624 90.1247C187.64 89.8071 187.393 89.5307 187.075 89.5142C186.758 89.4977 186.481 89.7411 186.465 90.0587C186.436 90.6197 186.399 91.193 186.358 91.7788C186.333 92.0964 186.572 92.3728 186.894 92.3975C187.212 92.4223 187.488 92.183 187.513 91.8613ZM187.739 87.2208C187.756 86.6226 187.76 86.041 187.764 85.4718C187.764 85.1542 187.504 84.8943 187.183 84.8943C186.865 84.8902 186.605 85.1501 186.605 85.4677C186.601 86.0287 186.597 86.602 186.58 87.1878C186.572 87.5095 186.828 87.7735 187.15 87.7817C187.467 87.79 187.731 87.5384 187.739 87.2208ZM187.711 82.5596C187.686 81.9615 187.657 81.3799 187.616 80.8148C187.595 80.4972 187.319 80.2579 186.997 80.2785C186.675 80.2992 186.436 80.5755 186.461 80.8973C186.498 81.45 186.527 82.0192 186.552 82.605C186.564 82.9267 186.832 83.1742 187.154 83.1618C187.475 83.1495 187.723 82.8813 187.711 82.5596ZM187.331 77.9108C187.253 77.3086 187.17 76.7311 187.071 76.1742C187.018 75.8607 186.717 75.6463 186.403 75.6999C186.09 75.7535 185.875 76.0546 185.929 76.3681C186.024 76.9085 186.106 77.4695 186.18 78.0552C186.222 78.3728 186.51 78.5956 186.832 78.5584C187.15 78.5172 187.372 78.2284 187.331 77.9108ZM186.457 73.3033C186.3 72.7093 186.135 72.1442 185.953 71.608C185.854 71.3027 185.529 71.1418 185.223 71.2408C184.918 71.344 184.757 71.6657 184.856 71.971C185.025 72.4824 185.186 73.0228 185.335 73.5962C185.417 73.9055 185.735 74.0912 186.044 74.0087C186.354 73.9303 186.535 73.6127 186.457 73.3033ZM184.84 68.8649C184.563 68.2998 184.275 67.7759 183.973 67.2974C183.8 67.0252 183.445 66.9427 183.173 67.1118C182.905 67.2851 182.818 67.6357 182.988 67.9079C183.268 68.3534 183.54 68.8401 183.8 69.3723C183.94 69.6569 184.287 69.7765 184.576 69.6363C184.86 69.496 184.98 69.1495 184.84 68.8649ZM182.13 64.9256C181.688 64.4636 181.235 64.0635 180.781 63.7088C180.529 63.5149 180.166 63.5603 179.968 63.8119C179.774 64.0635 179.82 64.4265 180.071 64.6204C180.48 64.9421 180.892 65.3092 181.296 65.7258C181.519 65.9568 181.886 65.961 182.117 65.7423C182.348 65.5196 182.352 65.1525 182.13 64.9256ZM178.199 62.1537C177.6 61.8773 177.039 61.6628 176.532 61.4854C176.227 61.3782 175.897 61.5391 175.79 61.8402C175.686 62.1413 175.847 62.4713 176.148 62.5744C176.635 62.7477 177.163 62.9456 177.712 63.2014C178.001 63.3334 178.343 63.2055 178.479 62.9168C178.615 62.628 178.487 62.2857 178.199 62.1537Z" fill="white"/>
</svg>
