<svg width="204" height="120" viewBox="0 0 204 120" fill="none" xmlns="http://www.w3.org/2000/svg">
<g id="2" clipPath="url(#clip0_1975_3250)">
<g id="Clip path group">
<mask id="mask0_1975_3250" style="mask-type:luminance" maskUnits="userSpaceOnUse" x="8" y="88" width="188" height="31">
<g id="8c939e1792">
<path id="Vector" d="M8.44482 88.501H195.232V118.844H8.44482V88.501Z" fill="white"/>
</g>
</mask>
<g mask="url(#mask0_1975_3250)">
<g id="Group">
<path id="Vector_2" d="M159.061 112.664C157.672 110.995 155.822 110.01 153.83 109.276C160.816 109.009 167.8 108.674 174.766 108.308C177.437 108.167 179.995 108.252 182.662 108.328C184.723 108.387 187.139 108.387 188.924 107.202C190.392 106.227 191.196 104.443 190.807 102.751C190.435 101.121 188.529 100.232 186.912 99.7182C189.625 97.9172 193.214 97.8118 195.035 94.74C195.15 94.5424 195.14 94.2099 194.949 94.0584C191.765 91.5792 187.716 90.8812 183.791 90.5586C178.151 90.0877 172.422 90.6639 166.818 91.3092C161.416 91.9282 156.046 92.8007 150.646 93.4526C143.584 94.3021 136.511 93.8181 129.462 93.0049C120.974 92.0303 112.588 90.71 104.044 90.3544C95.5598 90.0054 87.0817 89.528 78.5905 89.3008C64.0181 88.9123 49.2251 89.4688 34.9062 92.4287C25.8091 91.6385 16.396 92.4649 8.93531 97.7756C8.57314 98.0357 8.55338 98.6909 9.06701 98.8029C13.9168 99.8565 19.3131 98.467 24.0213 100.064C21.3116 101.687 18.3254 102.777 15.6914 104.542C15.3819 104.749 15.3227 105.144 15.5762 105.421C18.2299 108.325 22.5529 108.588 26.2372 108.736C28.5979 108.835 30.9651 108.769 33.3258 108.795C34.3959 108.805 35.4593 108.855 36.5228 108.937C38.248 109.075 38.6333 108.858 38.6333 110.524C38.6333 110.787 38.8045 110.978 39.0415 111.064C48.7674 114.613 59.705 112.766 69.9643 111.294C82.6896 119.078 97.6407 118.116 112.17 117.814C127.625 117.488 144.061 119.246 158.814 113.602C159.226 113.444 159.348 113.003 159.061 112.664Z" fill="#729E46"/>
</g>
</g>
</g>
<path id="Vector_3" d="M64.7754 25.553C62.2896 25.553 60.2681 27.5778 60.2681 30.0669C60.2681 32.556 62.2896 34.5809 64.7754 34.5809C67.2612 34.5809 69.2828 32.556 69.2828 30.0669C69.2828 27.5778 67.2612 25.553 64.7754 25.553ZM64.7754 36.2238C61.3875 36.2238 58.6284 33.4647 58.6284 30.0669C58.6284 26.6691 61.3875 23.9067 64.7754 23.9067C68.1667 23.9067 70.9224 26.6691 70.9224 30.0669C70.9224 33.4647 68.1667 36.2238 64.7754 36.2238Z" fill="#A8804F"/>
<path id="Vector_4" d="M64.9467 9.64384C65.1871 9.64384 65.3879 9.44629 65.3879 9.20265V7.99432C65.3879 7.74739 65.1871 7.54984 64.9467 7.54984H64.6076C64.364 7.54984 64.1631 7.74739 64.1631 7.99432V9.20265C64.1631 9.44629 64.364 9.64384 64.6076 9.64384H64.9467ZM64.6076 7.11523H64.9467C65.4274 7.11523 65.8225 7.51033 65.8225 7.99432V9.20265C65.8225 9.68664 65.4274 10.0784 64.9467 10.0784H64.6076C64.1236 10.0784 63.7285 9.68664 63.7285 9.20265V7.99432C63.7285 7.51033 64.1236 7.11523 64.6076 7.11523Z" fill="#A5401E"/>
<path id="Vector_5" d="M64.7754 4.83984C64.8939 4.83984 64.9927 4.93532 64.9927 5.06044V7.58904C64.9927 7.71087 64.8939 7.80964 64.7754 7.80964C64.6569 7.80964 64.5581 7.71087 64.5581 7.58904V5.06044C64.5581 4.93532 64.6569 4.83984 64.7754 4.83984Z" fill="#C04B24"/>
<path id="Vector_6" d="M64.9467 14.1642C65.1871 14.1642 65.3879 13.9634 65.3879 13.7164V12.5114C65.3879 12.2678 65.1871 12.0669 64.9467 12.0669H64.6076C64.364 12.0669 64.1631 12.2678 64.1631 12.5114V13.7164C64.1631 13.9634 64.364 14.1642 64.6076 14.1642H64.9467ZM64.6076 11.6323H64.9467C65.4274 11.6323 65.8225 12.0241 65.8225 12.5114V13.7164C65.8225 14.2037 65.4274 14.5988 64.9467 14.5988H64.6076C64.1236 14.5988 63.7285 14.2037 63.7285 13.7164V12.5114C63.7285 12.0241 64.1236 11.6323 64.6076 11.6323Z" fill="#A5401E"/>
<path id="Vector_7" d="M64.7754 9.36035C64.8939 9.36035 64.9927 9.45583 64.9927 9.57436V12.1063C64.9927 12.2281 64.8939 12.3236 64.7754 12.3236C64.6569 12.3236 64.5581 12.2281 64.5581 12.1063V9.57436C64.5581 9.45583 64.6569 9.36035 64.7754 9.36035Z" fill="#C04B24"/>
<path id="Vector_8" d="M64.9467 18.6813C65.1871 18.6813 65.3879 18.4805 65.3879 18.2368V17.0318C65.3879 16.7849 65.1871 16.584 64.9467 16.584H64.6076C64.364 16.584 64.1631 16.7849 64.1631 17.0318V18.2368C64.1631 18.4805 64.364 18.6813 64.6076 18.6813H64.9467ZM64.6076 16.1494H64.9467C65.4274 16.1494 65.8225 16.5445 65.8225 17.0318V18.2368C65.8225 18.7241 65.4274 19.1159 64.9467 19.1159H64.6076C64.1236 19.1159 63.7285 18.7241 63.7285 18.2368V17.0318C63.7285 16.5445 64.1236 16.1494 64.6076 16.1494Z" fill="#A5401E"/>
<path id="Vector_9" d="M64.7754 13.8745C64.8939 13.8745 64.9927 13.9733 64.9927 14.0951V16.627C64.9927 16.7488 64.8939 16.8443 64.7754 16.8443C64.6569 16.8443 64.5581 16.7488 64.5581 16.627V14.0951C64.5581 13.9733 64.6569 13.8745 64.7754 13.8745Z" fill="#C04B24"/>
<path id="Vector_10" d="M64.9467 23.1985C65.1871 23.1985 65.3879 22.9977 65.3879 22.754V21.5457C65.3879 21.3021 65.1871 21.1012 64.9467 21.1012H64.6076C64.364 21.1012 64.1631 21.3021 64.1631 21.5457V22.754C64.1631 22.9977 64.364 23.1985 64.6076 23.1985H64.9467ZM64.6076 20.6699H64.9467C65.4274 20.6699 65.8225 21.0617 65.8225 21.5457V22.754C65.8225 23.238 65.4274 23.6364 64.9467 23.6364H64.6076C64.1236 23.6364 63.7285 23.238 63.7285 22.754V21.5457C63.7285 21.0617 64.1236 20.6699 64.6076 20.6699Z" fill="#A5401E"/>
<path id="Vector_11" d="M64.7754 18.395C64.8939 18.395 64.9927 18.4938 64.9927 18.6123V21.1442C64.9927 21.266 64.8939 21.3582 64.7754 21.3582C64.6569 21.3582 64.5581 21.266 64.5581 21.1442V18.6123C64.5581 18.4938 64.6569 18.395 64.7754 18.395Z" fill="#C04B24"/>
<path id="Vector_12" d="M64.7754 22.9121C64.8939 22.9121 64.9927 23.0109 64.9927 23.1294V25.6613C64.9927 25.7831 64.8939 25.8786 64.7754 25.8786C64.6569 25.8786 64.5581 25.7831 64.5581 25.6613V23.1294C64.5581 23.0109 64.6569 22.9121 64.7754 22.9121Z" fill="#C04B24"/>
<path id="Vector_13" d="M79.9209 25.553C77.4351 25.553 75.4103 27.5778 75.4103 30.0669C75.4103 32.556 77.4351 34.5809 79.9209 34.5809C82.4067 34.5809 84.425 32.556 84.425 30.0669C84.425 27.5778 82.4067 25.553 79.9209 25.553ZM79.9209 36.2238C76.5297 36.2238 73.7739 33.4647 73.7739 30.0669C73.7739 26.6691 76.5297 23.9067 79.9209 23.9067C83.3089 23.9067 86.068 26.6691 86.068 30.0669C86.068 33.4647 83.3089 36.2238 79.9209 36.2238Z" fill="#A8804F"/>
<path id="Vector_14" d="M80.0889 9.64384C80.3326 9.64384 80.5301 9.44629 80.5301 9.20265V7.99432C80.5301 7.74739 80.3326 7.54984 80.0889 7.54984H79.7531C79.5062 7.54984 79.3086 7.74739 79.3086 7.99432V9.20265C79.3086 9.44629 79.5062 9.64384 79.7531 9.64384H80.0889ZM79.7531 7.11523H80.0889C80.5729 7.11523 80.968 7.51033 80.968 7.99432V9.20265C80.968 9.68664 80.5729 10.0784 80.0889 10.0784H79.7531C79.2691 10.0784 78.874 9.68664 78.874 9.20265V7.99432C78.874 7.51033 79.2691 7.11523 79.7531 7.11523Z" fill="#A5401E"/>
<path id="Vector_15" d="M79.9209 4.83984C80.0394 4.83984 80.1382 4.93532 80.1382 5.06044V7.58904C80.1382 7.71087 80.0394 7.80964 79.9209 7.80964C79.7991 7.80964 79.7036 7.71087 79.7036 7.58904V5.06044C79.7036 4.93532 79.7991 4.83984 79.9209 4.83984Z" fill="#C04B24"/>
<path id="Vector_16" d="M80.0889 14.1642C80.3326 14.1642 80.5301 13.9634 80.5301 13.7164V12.5114C80.5301 12.2678 80.3326 12.0669 80.0889 12.0669H79.7531C79.5062 12.0669 79.3086 12.2678 79.3086 12.5114V13.7164C79.3086 13.9634 79.5062 14.1642 79.7531 14.1642H80.0889ZM79.7531 11.6323H80.0889C80.5729 11.6323 80.968 12.0241 80.968 12.5114V13.7164C80.968 14.2037 80.5729 14.5988 80.0889 14.5988H79.7531C79.2691 14.5988 78.874 14.2037 78.874 13.7164V12.5114C78.874 12.0241 79.2691 11.6323 79.7531 11.6323Z" fill="#A5401E"/>
<path id="Vector_17" d="M79.9209 9.36035C80.0394 9.36035 80.1382 9.45583 80.1382 9.57436V12.1063C80.1382 12.2281 80.0394 12.3236 79.9209 12.3236C79.7991 12.3236 79.7036 12.2281 79.7036 12.1063V9.57436C79.7036 9.45583 79.7991 9.36035 79.9209 9.36035Z" fill="#C04B24"/>
<path id="Vector_18" d="M80.0889 18.6813C80.3326 18.6813 80.5301 18.4805 80.5301 18.2368V17.0318C80.5301 16.7849 80.3326 16.584 80.0889 16.584H79.7531C79.5062 16.584 79.3086 16.7849 79.3086 17.0318V18.2368C79.3086 18.4805 79.5062 18.6813 79.7531 18.6813H80.0889ZM79.7531 16.1494H80.0889C80.5729 16.1494 80.968 16.5445 80.968 17.0318V18.2368C80.968 18.7241 80.5729 19.1159 80.0889 19.1159H79.7531C79.2691 19.1159 78.874 18.7241 78.874 18.2368V17.0318C78.874 16.5445 79.2691 16.1494 79.7531 16.1494Z" fill="#A5401E"/>
<path id="Vector_19" d="M79.9209 13.8745C80.0394 13.8745 80.1382 13.9733 80.1382 14.0951V16.627C80.1382 16.7488 80.0394 16.8443 79.9209 16.8443C79.7991 16.8443 79.7036 16.7488 79.7036 16.627V14.0951C79.7036 13.9733 79.7991 13.8745 79.9209 13.8745Z" fill="#C04B24"/>
<path id="Vector_20" d="M80.0889 23.1985C80.3326 23.1985 80.5301 22.9977 80.5301 22.754V21.5457C80.5301 21.3021 80.3326 21.1012 80.0889 21.1012H79.7531C79.5062 21.1012 79.3086 21.3021 79.3086 21.5457V22.754C79.3086 22.9977 79.5062 23.1985 79.7531 23.1985H80.0889ZM79.7531 20.6699H80.0889C80.5729 20.6699 80.968 21.0617 80.968 21.5457V22.754C80.968 23.238 80.5729 23.6364 80.0889 23.6364H79.7531C79.2691 23.6364 78.874 23.238 78.874 22.754V21.5457C78.874 21.0617 79.2691 20.6699 79.7531 20.6699Z" fill="#A5401E"/>
<path id="Vector_21" d="M79.9209 18.395C80.0394 18.395 80.1382 18.4938 80.1382 18.6123V21.1442C80.1382 21.266 80.0394 21.3582 79.9209 21.3582C79.7991 21.3582 79.7036 21.266 79.7036 21.1442V18.6123C79.7036 18.4938 79.7991 18.395 79.9209 18.395Z" fill="#C04B24"/>
<path id="Vector_22" d="M79.9209 22.9121C80.0394 22.9121 80.1382 23.0109 80.1382 23.1294V25.6613C80.1382 25.7831 80.0394 25.8786 79.9209 25.8786C79.7991 25.8786 79.7036 25.7831 79.7036 25.6613V23.1294C79.7036 23.0109 79.7991 22.9121 79.9209 22.9121Z" fill="#C04B24"/>
<path id="Vector_23" d="M96.5113 63.4391C96.7517 63.4391 96.9525 63.2416 96.9525 62.9979V61.7896C96.9525 61.546 96.7517 61.3451 96.5113 61.3451H96.1722C95.9285 61.3451 95.731 61.546 95.731 61.7896V62.9979C95.731 63.2416 95.9285 63.4391 96.1722 63.4391H96.5113ZM96.1722 60.9072H96.5113C96.992 60.9072 97.3871 61.3023 97.3871 61.7896V62.9979C97.3871 63.4819 96.992 63.8737 96.5113 63.8737H96.1722C95.6882 63.8737 95.2964 63.4819 95.2964 62.9979V61.7896C95.2964 61.3023 95.6882 60.9072 96.1722 60.9072Z" fill="#A5401E"/>
<path id="Vector_24" d="M96.5113 67.9563C96.7517 67.9563 96.9525 67.7588 96.9525 67.5119V66.3068C96.9525 66.0632 96.7517 65.8623 96.5113 65.8623H96.1722C95.9285 65.8623 95.731 66.0632 95.731 66.3068V67.5119C95.731 67.7588 95.9285 67.9563 96.1722 67.9563H96.5113ZM96.1722 65.4277H96.5113C96.992 65.4277 97.3871 65.8195 97.3871 66.3068V67.5119C97.3871 67.9991 96.992 68.3942 96.5113 68.3942H96.1722C95.6882 68.3942 95.2964 67.9991 95.2964 67.5119V66.3068C95.2964 65.8195 95.6882 65.4277 96.1722 65.4277Z" fill="#A5401E"/>
<path id="Vector_25" d="M96.3403 63.1528C96.4622 63.1528 96.5609 63.2516 96.5609 63.3701V65.902C96.5609 66.0239 96.4622 66.1193 96.3403 66.1193C96.2218 66.1193 96.123 66.0239 96.123 65.902V63.3701C96.123 63.2516 96.2218 63.1528 96.3403 63.1528Z" fill="#C04B24"/>
<path id="Vector_26" d="M96.5113 72.4766C96.7517 72.4766 96.9525 72.2758 96.9525 72.0321V70.8238C96.9525 70.5801 96.7517 70.3793 96.5113 70.3793H96.1722C95.9285 70.3793 95.731 70.5801 95.731 70.8238V72.0321C95.731 72.2758 95.9285 72.4766 96.1722 72.4766H96.5113ZM96.1722 69.9414H96.5113C96.992 69.9414 97.3871 70.3398 97.3871 70.8238V72.0321C97.3871 72.5194 96.992 72.9112 96.5113 72.9112H96.1722C95.6882 72.9112 95.2964 72.5194 95.2964 72.0321V70.8238C95.2964 70.3398 95.6882 69.9414 96.1722 69.9414Z" fill="#A5401E"/>
<path id="Vector_27" d="M96.3403 67.6699C96.4622 67.6699 96.5609 67.7687 96.5609 67.8872V70.4191C96.5609 70.5409 96.4622 70.6397 96.3403 70.6397C96.2218 70.6397 96.123 70.5409 96.123 70.4191V67.8872C96.123 67.7687 96.2218 67.6699 96.3403 67.6699Z" fill="#C04B24"/>
<path id="Vector_28" d="M96.3403 72.1904C96.4622 72.1904 96.5609 72.2859 96.5609 72.4044V74.9396C96.5609 75.0582 96.4622 75.1536 96.3403 75.1536C96.2218 75.1536 96.123 75.0582 96.123 74.9396V72.4044C96.123 72.2859 96.2218 72.1904 96.3403 72.1904Z" fill="#C04B24"/>
<path id="Vector_29" d="M96.5113 45.5085C96.7517 45.5085 96.9525 45.3076 96.9525 45.064V43.8556C96.9525 43.612 96.7517 43.4112 96.5113 43.4112H96.1722C95.9285 43.4112 95.731 43.612 95.731 43.8556V45.064C95.731 45.3076 95.9285 45.5085 96.1722 45.5085H96.5113ZM96.1722 42.9766H96.5113C96.992 42.9766 97.3871 43.3717 97.3871 43.8556V45.064C97.3871 45.548 96.992 45.9431 96.5113 45.9431H96.1722C95.6882 45.9431 95.2964 45.548 95.2964 45.064V43.8556C95.2964 43.3717 95.6882 42.9766 96.1722 42.9766Z" fill="#A5401E"/>
<path id="Vector_30" d="M96.5113 50.0256C96.7517 50.0256 96.9525 49.8247 96.9525 49.5844V48.3727C96.9525 48.1291 96.7517 47.9315 96.5113 47.9315H96.1722C95.9285 47.9315 95.731 48.1291 95.731 48.3727V49.5844C95.731 49.8247 95.9285 50.0256 96.1722 50.0256H96.5113ZM96.1722 47.4937H96.5113C96.992 47.4937 97.3871 47.892 97.3871 48.3727V49.5844C97.3871 50.0651 96.992 50.4602 96.5113 50.4602H96.1722C95.6882 50.4602 95.2964 50.0651 95.2964 49.5844V48.3727C95.2964 47.892 95.6882 47.4937 96.1722 47.4937Z" fill="#A5401E"/>
<path id="Vector_31" d="M96.3403 45.2217C96.4622 45.2217 96.5609 45.3172 96.5609 45.439V47.9709C96.5609 48.0894 96.4622 48.1882 96.3403 48.1882C96.2218 48.1882 96.123 48.0894 96.123 47.9709V45.439C96.123 45.3172 96.2218 45.2217 96.3403 45.2217Z" fill="#C04B24"/>
<path id="Vector_32" d="M96.5113 54.5426C96.7517 54.5426 96.9525 54.3451 96.9525 54.0982V52.8931C96.9525 52.6462 96.7517 52.4486 96.5113 52.4486H96.1722C95.9285 52.4486 95.731 52.6462 95.731 52.8931V54.0982C95.731 54.3451 95.9285 54.5426 96.1722 54.5426H96.5113ZM96.1722 52.0107H96.5113C96.992 52.0107 97.3871 52.4058 97.3871 52.8931V54.0982C97.3871 54.5854 96.992 54.9805 96.5113 54.9805H96.1722C95.6882 54.9805 95.2964 54.5854 95.2964 54.0982V52.8931C95.2964 52.4058 95.6882 52.0107 96.1722 52.0107Z" fill="#A5401E"/>
<path id="Vector_33" d="M96.3403 49.7393C96.4622 49.7393 96.5609 49.838 96.5609 49.9566V52.4918C96.5609 52.6103 96.4622 52.7058 96.3403 52.7058C96.2218 52.7058 96.123 52.6103 96.123 52.4918V49.9566C96.123 49.838 96.2218 49.7393 96.3403 49.7393Z" fill="#C04B24"/>
<path id="Vector_34" d="M96.5113 59.0599C96.7517 59.0599 96.9525 58.8623 96.9525 58.6187V57.4103C96.9525 57.1634 96.7517 56.9659 96.5113 56.9659H96.1722C95.9285 56.9659 95.731 57.1634 95.731 57.4103V58.6187C95.731 58.8623 95.9285 59.0599 96.1722 59.0599H96.5113ZM96.1722 56.5312H96.5113C96.992 56.5312 97.3871 56.9263 97.3871 57.4103V58.6187C97.3871 59.106 96.992 59.4978 96.5113 59.4978H96.1722C95.6882 59.4978 95.2964 59.106 95.2964 58.6187V57.4103C95.2964 56.9263 95.6882 56.5312 96.1722 56.5312Z" fill="#A5401E"/>
<path id="Vector_35" d="M96.3403 54.2563C96.4622 54.2563 96.5609 54.3551 96.5609 54.4769V57.0088C96.5609 57.1274 96.4622 57.2261 96.3403 57.2261C96.2218 57.2261 96.123 57.1274 96.123 57.0088V54.4769C96.123 54.3551 96.2218 54.2563 96.3403 54.2563Z" fill="#C04B24"/>
<path id="Vector_36" d="M96.3403 58.7734C96.4622 58.7734 96.5609 58.8755 96.5609 58.994V61.5226C96.5609 61.6445 96.4622 61.7432 96.3403 61.7432C96.2218 61.7432 96.123 61.6445 96.123 61.5226V58.994C96.123 58.8755 96.2218 58.7734 96.3403 58.7734Z" fill="#C04B24"/>
<path id="Vector_37" d="M96.5113 27.5745C96.7517 27.5745 96.9525 27.3802 96.9525 27.1333V25.9217C96.9525 25.6813 96.7517 25.4838 96.5113 25.4838H96.1722C95.9285 25.4838 95.731 25.6813 95.731 25.9217V27.1333C95.731 27.3802 95.9285 27.5745 96.1722 27.5745H96.5113ZM96.1722 25.0459H96.5113C96.992 25.0459 97.3871 25.4377 97.3871 25.9217V27.1333C97.3871 27.6173 96.992 28.0124 96.5113 28.0124H96.1722C95.6882 28.0124 95.2964 27.6173 95.2964 27.1333V25.9217C95.2964 25.4377 95.6882 25.0459 96.1722 25.0459Z" fill="#A5401E"/>
<path id="Vector_38" d="M96.5113 32.0916C96.7517 32.0916 96.9525 31.8973 96.9525 31.6504V30.4421C96.9525 30.1951 96.7517 30.0009 96.5113 30.0009H96.1722C95.9285 30.0009 95.731 30.1951 95.731 30.4421V31.6504C95.731 31.8973 95.9285 32.0916 96.1722 32.0916H96.5113ZM96.1722 29.563H96.5113C96.992 29.563 97.3871 29.9581 97.3871 30.4421V31.6504C97.3871 32.1377 96.992 32.5295 96.5113 32.5295H96.1722C95.6882 32.5295 95.2964 32.1377 95.2964 31.6504V30.4421C95.2964 29.9581 95.6882 29.563 96.1722 29.563Z" fill="#A5401E"/>
<path id="Vector_39" d="M96.3403 27.291C96.4622 27.291 96.5609 27.3898 96.5609 27.5083V30.0369C96.5609 30.1587 96.4622 30.2575 96.3403 30.2575C96.2218 30.2575 96.123 30.1587 96.123 30.0369V27.5083C96.123 27.3898 96.2218 27.291 96.3403 27.291Z" fill="#C04B24"/>
<path id="Vector_40" d="M96.5113 36.612C96.7517 36.612 96.9525 36.4144 96.9525 36.1708V34.9592C96.9525 34.7155 96.7517 34.518 96.5113 34.518H96.1722C95.9285 34.518 95.731 34.7155 95.731 34.9592V36.1708C95.731 36.4144 95.9285 36.612 96.1722 36.612H96.5113ZM96.1722 34.0801H96.5113C96.992 34.0801 97.3871 34.4785 97.3871 34.9592V36.1708C97.3871 36.6515 96.992 37.0466 96.5113 37.0466H96.1722C95.6882 37.0466 95.2964 36.6515 95.2964 36.1708V34.9592C95.2964 34.4785 95.6882 34.0801 96.1722 34.0801Z" fill="#A5401E"/>
<path id="Vector_41" d="M96.3403 31.8086C96.4622 31.8086 96.5609 31.9074 96.5609 32.0259V34.5578C96.5609 34.6796 96.4622 34.7751 96.3403 34.7751C96.2218 34.7751 96.123 34.6796 96.123 34.5578V32.0259C96.123 31.9074 96.2218 31.8086 96.3403 31.8086Z" fill="#C04B24"/>
<path id="Vector_42" d="M96.5113 41.1328C96.7517 41.1328 96.9525 40.932 96.9525 40.6884V39.48C96.9525 39.2331 96.7517 39.0356 96.5113 39.0356H96.1722C95.9285 39.0356 95.731 39.2331 95.731 39.48V40.6884C95.731 40.932 95.9285 41.1328 96.1722 41.1328H96.5113ZM96.1722 38.5977H96.5113C96.992 38.5977 97.3871 38.9928 97.3871 39.48V40.6884C97.3871 41.1724 96.992 41.5675 96.5113 41.5675H96.1722C95.6882 41.5675 95.2964 41.1724 95.2964 40.6884V39.48C95.2964 38.9928 95.6882 38.5977 96.1722 38.5977Z" fill="#A5401E"/>
<path id="Vector_43" d="M96.3403 36.3257C96.4622 36.3257 96.5609 36.4245 96.5609 36.543V39.0749C96.5609 39.1967 96.4622 39.2922 96.3403 39.2922C96.2218 39.2922 96.123 39.1967 96.123 39.0749V36.543C96.123 36.4245 96.2218 36.3257 96.3403 36.3257Z" fill="#C04B24"/>
<path id="Vector_44" d="M96.3403 40.8428C96.4622 40.8428 96.5609 40.9415 96.5609 41.0634V43.592C96.5609 43.7138 96.4622 43.8093 96.3403 43.8093C96.2218 43.8093 96.123 43.7138 96.123 43.592V41.0634C96.123 40.9415 96.2218 40.8428 96.3403 40.8428Z" fill="#C04B24"/>
<path id="Vector_45" d="M96.5113 9.64384C96.7517 9.64384 96.9525 9.44629 96.9525 9.20265V7.99432C96.9525 7.74739 96.7517 7.54984 96.5113 7.54984H96.1722C95.9285 7.54984 95.731 7.74739 95.731 7.99432V9.20265C95.731 9.44629 95.9285 9.64384 96.1722 9.64384H96.5113ZM96.1722 7.11523H96.5113C96.992 7.11523 97.3871 7.51033 97.3871 7.99432V9.20265C97.3871 9.68664 96.992 10.0784 96.5113 10.0784H96.1722C95.6882 10.0784 95.2964 9.68664 95.2964 9.20265V7.99432C95.2964 7.51033 95.6882 7.11523 96.1722 7.11523Z" fill="#A5401E"/>
<path id="Vector_46" d="M96.3403 4.83984C96.4622 4.83984 96.5609 4.93532 96.5609 5.06044V7.58904C96.5609 7.71087 96.4622 7.80964 96.3403 7.80964C96.2218 7.80964 96.123 7.71087 96.123 7.58904V5.06044C96.123 4.93532 96.2218 4.83984 96.3403 4.83984Z" fill="#C04B24"/>
<path id="Vector_47" d="M96.5113 14.1642C96.7517 14.1642 96.9525 13.9634 96.9525 13.7164V12.5114C96.9525 12.2678 96.7517 12.0669 96.5113 12.0669H96.1722C95.9285 12.0669 95.731 12.2678 95.731 12.5114V13.7164C95.731 13.9634 95.9285 14.1642 96.1722 14.1642H96.5113ZM96.1722 11.6323H96.5113C96.992 11.6323 97.3871 12.0241 97.3871 12.5114V13.7164C97.3871 14.2037 96.992 14.5988 96.5113 14.5988H96.1722C95.6882 14.5988 95.2964 14.2037 95.2964 13.7164V12.5114C95.2964 12.0241 95.6882 11.6323 96.1722 11.6323Z" fill="#A5401E"/>
<path id="Vector_48" d="M96.3403 9.36035C96.4622 9.36035 96.5609 9.45583 96.5609 9.57436V12.1063C96.5609 12.2281 96.4622 12.3236 96.3403 12.3236C96.2218 12.3236 96.123 12.2281 96.123 12.1063V9.57436C96.123 9.45583 96.2218 9.36035 96.3403 9.36035Z" fill="#C04B24"/>
<path id="Vector_49" d="M96.5113 18.6813C96.7517 18.6813 96.9525 18.4805 96.9525 18.2368V17.0318C96.9525 16.7849 96.7517 16.584 96.5113 16.584H96.1722C95.9285 16.584 95.731 16.7849 95.731 17.0318V18.2368C95.731 18.4805 95.9285 18.6813 96.1722 18.6813H96.5113ZM96.1722 16.1494H96.5113C96.992 16.1494 97.3871 16.5445 97.3871 17.0318V18.2368C97.3871 18.7241 96.992 19.1159 96.5113 19.1159H96.1722C95.6882 19.1159 95.2964 18.7241 95.2964 18.2368V17.0318C95.2964 16.5445 95.6882 16.1494 96.1722 16.1494Z" fill="#A5401E"/>
<path id="Vector_50" d="M96.3403 13.8745C96.4622 13.8745 96.5609 13.9733 96.5609 14.0951V16.627C96.5609 16.7488 96.4622 16.8443 96.3403 16.8443C96.2218 16.8443 96.123 16.7488 96.123 16.627V14.0951C96.123 13.9733 96.2218 13.8745 96.3403 13.8745Z" fill="#C04B24"/>
<path id="Vector_51" d="M96.5113 23.1985C96.7517 23.1985 96.9525 22.9977 96.9525 22.754V21.5457C96.9525 21.3021 96.7517 21.1012 96.5113 21.1012H96.1722C95.9285 21.1012 95.731 21.3021 95.731 21.5457V22.754C95.731 22.9977 95.9285 23.1985 96.1722 23.1985H96.5113ZM96.1722 20.6699H96.5113C96.992 20.6699 97.3871 21.0617 97.3871 21.5457V22.754C97.3871 23.238 96.992 23.6364 96.5113 23.6364H96.1722C95.6882 23.6364 95.2964 23.238 95.2964 22.754V21.5457C95.2964 21.0617 95.6882 20.6699 96.1722 20.6699Z" fill="#A5401E"/>
<path id="Vector_52" d="M96.3403 18.395C96.4622 18.395 96.5609 18.4938 96.5609 18.6123V21.1442C96.5609 21.266 96.4622 21.3582 96.3403 21.3582C96.2218 21.3582 96.123 21.266 96.123 21.1442V18.6123C96.123 18.4938 96.2218 18.395 96.3403 18.395Z" fill="#C04B24"/>
<path id="Vector_53" d="M96.3403 22.9121C96.4622 22.9121 96.5609 23.0109 96.5609 23.1294V25.6613C96.5609 25.7831 96.4622 25.8786 96.3403 25.8786C96.2218 25.8786 96.123 25.7831 96.123 25.6613V23.1294C96.123 23.0109 96.2218 22.9121 96.3403 22.9121Z" fill="#C04B24"/>
<path id="Vector_54" d="M120.681 63.4391C120.925 63.4391 121.126 63.2416 121.126 62.9979V61.7896C121.126 61.546 120.925 61.3451 120.681 61.3451H120.346C120.102 61.3451 119.904 61.546 119.904 61.7896V62.9979C119.904 63.2416 120.102 63.4391 120.346 63.4391H120.681ZM120.346 60.9072H120.681C121.165 60.9072 121.56 61.3023 121.56 61.7896V62.9979C121.56 63.4819 121.165 63.8737 120.681 63.8737H120.346C119.862 63.8737 119.47 63.4819 119.47 62.9979V61.7896C119.47 61.3023 119.862 60.9072 120.346 60.9072Z" fill="#A5401E"/>
<path id="Vector_55" d="M120.681 67.9563C120.925 67.9563 121.126 67.7588 121.126 67.5119V66.3068C121.126 66.0632 120.925 65.8623 120.681 65.8623H120.346C120.102 65.8623 119.904 66.0632 119.904 66.3068V67.5119C119.904 67.7588 120.102 67.9563 120.346 67.9563H120.681ZM120.346 65.4277H120.681C121.165 65.4277 121.56 65.8195 121.56 66.3068V67.5119C121.56 67.9991 121.165 68.3942 120.681 68.3942H120.346C119.862 68.3942 119.47 67.9991 119.47 67.5119V66.3068C119.47 65.8195 119.862 65.4277 120.346 65.4277Z" fill="#A5401E"/>
<path id="Vector_56" d="M120.514 63.1528C120.636 63.1528 120.734 63.2516 120.734 63.3701V65.902C120.734 66.0239 120.636 66.1193 120.514 66.1193C120.395 66.1193 120.296 66.0239 120.296 65.902V63.3701C120.296 63.2516 120.395 63.1528 120.514 63.1528Z" fill="#C04B24"/>
<path id="Vector_57" d="M120.681 72.4766C120.925 72.4766 121.126 72.2758 121.126 72.0321V70.8238C121.126 70.5801 120.925 70.3793 120.681 70.3793H120.346C120.102 70.3793 119.904 70.5801 119.904 70.8238V72.0321C119.904 72.2758 120.102 72.4766 120.346 72.4766H120.681ZM120.346 69.9414H120.681C121.165 69.9414 121.56 70.3398 121.56 70.8238V72.0321C121.56 72.5194 121.165 72.9112 120.681 72.9112H120.346C119.862 72.9112 119.47 72.5194 119.47 72.0321V70.8238C119.47 70.3398 119.862 69.9414 120.346 69.9414Z" fill="#A5401E"/>
<path id="Vector_58" d="M120.514 67.6699C120.636 67.6699 120.734 67.7687 120.734 67.8872V70.4191C120.734 70.5409 120.636 70.6397 120.514 70.6397C120.395 70.6397 120.296 70.5409 120.296 70.4191V67.8872C120.296 67.7687 120.395 67.6699 120.514 67.6699Z" fill="#C04B24"/>
<path id="Vector_59" d="M120.514 72.1904C120.636 72.1904 120.734 72.2859 120.734 72.4044V74.9396C120.734 75.0582 120.636 75.1536 120.514 75.1536C120.395 75.1536 120.296 75.0582 120.296 74.9396V72.4044C120.296 72.2859 120.395 72.1904 120.514 72.1904Z" fill="#C04B24"/>
<path id="Vector_60" d="M120.681 45.5085C120.925 45.5085 121.126 45.3076 121.126 45.064V43.8556C121.126 43.612 120.925 43.4112 120.681 43.4112H120.346C120.102 43.4112 119.904 43.612 119.904 43.8556V45.064C119.904 45.3076 120.102 45.5085 120.346 45.5085H120.681ZM120.346 42.9766H120.681C121.165 42.9766 121.56 43.3717 121.56 43.8556V45.064C121.56 45.548 121.165 45.9431 120.681 45.9431H120.346C119.862 45.9431 119.47 45.548 119.47 45.064V43.8556C119.47 43.3717 119.862 42.9766 120.346 42.9766Z" fill="#A5401E"/>
<path id="Vector_61" d="M120.681 50.0256C120.925 50.0256 121.126 49.8247 121.126 49.5844V48.3727C121.126 48.1291 120.925 47.9315 120.681 47.9315H120.346C120.102 47.9315 119.904 48.1291 119.904 48.3727V49.5844C119.904 49.8247 120.102 50.0256 120.346 50.0256H120.681ZM120.346 47.4937H120.681C121.165 47.4937 121.56 47.892 121.56 48.3727V49.5844C121.56 50.0651 121.165 50.4602 120.681 50.4602H120.346C119.862 50.4602 119.47 50.0651 119.47 49.5844V48.3727C119.47 47.892 119.862 47.4937 120.346 47.4937Z" fill="#A5401E"/>
<path id="Vector_62" d="M120.514 45.2217C120.636 45.2217 120.734 45.3172 120.734 45.439V47.9709C120.734 48.0894 120.636 48.1882 120.514 48.1882C120.395 48.1882 120.296 48.0894 120.296 47.9709V45.439C120.296 45.3172 120.395 45.2217 120.514 45.2217Z" fill="#C04B24"/>
<path id="Vector_63" d="M120.681 54.5426C120.925 54.5426 121.126 54.3451 121.126 54.0982V52.8931C121.126 52.6462 120.925 52.4486 120.681 52.4486H120.346C120.102 52.4486 119.904 52.6462 119.904 52.8931V54.0982C119.904 54.3451 120.102 54.5426 120.346 54.5426H120.681ZM120.346 52.0107H120.681C121.165 52.0107 121.56 52.4058 121.56 52.8931V54.0982C121.56 54.5854 121.165 54.9805 120.681 54.9805H120.346C119.862 54.9805 119.47 54.5854 119.47 54.0982V52.8931C119.47 52.4058 119.862 52.0107 120.346 52.0107Z" fill="#A5401E"/>
<path id="Vector_64" d="M120.514 49.7393C120.636 49.7393 120.734 49.838 120.734 49.9566V52.4918C120.734 52.6103 120.636 52.7058 120.514 52.7058C120.395 52.7058 120.296 52.6103 120.296 52.4918V49.9566C120.296 49.838 120.395 49.7393 120.514 49.7393Z" fill="#C04B24"/>
<path id="Vector_65" d="M120.681 59.0599C120.925 59.0599 121.126 58.8623 121.126 58.6187V57.4103C121.126 57.1634 120.925 56.9659 120.681 56.9659H120.346C120.102 56.9659 119.904 57.1634 119.904 57.4103V58.6187C119.904 58.8623 120.102 59.0599 120.346 59.0599H120.681ZM120.346 56.5312H120.681C121.165 56.5312 121.56 56.9263 121.56 57.4103V58.6187C121.56 59.106 121.165 59.4978 120.681 59.4978H120.346C119.862 59.4978 119.47 59.106 119.47 58.6187V57.4103C119.47 56.9263 119.862 56.5312 120.346 56.5312Z" fill="#A5401E"/>
<path id="Vector_66" d="M120.514 54.2563C120.636 54.2563 120.734 54.3551 120.734 54.4769V57.0088C120.734 57.1274 120.636 57.2261 120.514 57.2261C120.395 57.2261 120.296 57.1274 120.296 57.0088V54.4769C120.296 54.3551 120.395 54.2563 120.514 54.2563Z" fill="#C04B24"/>
<path id="Vector_67" d="M120.514 58.7734C120.636 58.7734 120.734 58.8755 120.734 58.994V61.5226C120.734 61.6445 120.636 61.7432 120.514 61.7432C120.395 61.7432 120.296 61.6445 120.296 61.5226V58.994C120.296 58.8755 120.395 58.7734 120.514 58.7734Z" fill="#C04B24"/>
<path id="Vector_68" d="M120.681 27.5745C120.925 27.5745 121.126 27.3802 121.126 27.1333V25.9217C121.126 25.6813 120.925 25.4838 120.681 25.4838H120.346C120.102 25.4838 119.904 25.6813 119.904 25.9217V27.1333C119.904 27.3802 120.102 27.5745 120.346 27.5745H120.681ZM120.346 25.0459H120.681C121.165 25.0459 121.56 25.4377 121.56 25.9217V27.1333C121.56 27.6173 121.165 28.0124 120.681 28.0124H120.346C119.862 28.0124 119.47 27.6173 119.47 27.1333V25.9217C119.47 25.4377 119.862 25.0459 120.346 25.0459Z" fill="#A5401E"/>
<path id="Vector_69" d="M120.681 32.0916C120.925 32.0916 121.126 31.8973 121.126 31.6504V30.4421C121.126 30.1951 120.925 30.0009 120.681 30.0009H120.346C120.102 30.0009 119.904 30.1951 119.904 30.4421V31.6504C119.904 31.8973 120.102 32.0916 120.346 32.0916H120.681ZM120.346 29.563H120.681C121.165 29.563 121.56 29.9581 121.56 30.4421V31.6504C121.56 32.1377 121.165 32.5295 120.681 32.5295H120.346C119.862 32.5295 119.47 32.1377 119.47 31.6504V30.4421C119.47 29.9581 119.862 29.563 120.346 29.563Z" fill="#A5401E"/>
<path id="Vector_70" d="M120.514 27.291C120.636 27.291 120.734 27.3898 120.734 27.5083V30.0369C120.734 30.1587 120.636 30.2575 120.514 30.2575C120.395 30.2575 120.296 30.1587 120.296 30.0369V27.5083C120.296 27.3898 120.395 27.291 120.514 27.291Z" fill="#C04B24"/>
<path id="Vector_71" d="M120.681 36.612C120.925 36.612 121.126 36.4144 121.126 36.1708V34.9592C121.126 34.7155 120.925 34.518 120.681 34.518H120.346C120.102 34.518 119.904 34.7155 119.904 34.9592V36.1708C119.904 36.4144 120.102 36.612 120.346 36.612H120.681ZM120.346 34.0801H120.681C121.165 34.0801 121.56 34.4785 121.56 34.9592V36.1708C121.56 36.6515 121.165 37.0466 120.681 37.0466H120.346C119.862 37.0466 119.47 36.6515 119.47 36.1708V34.9592C119.47 34.4785 119.862 34.0801 120.346 34.0801Z" fill="#A5401E"/>
<path id="Vector_72" d="M120.514 31.8086C120.636 31.8086 120.734 31.9074 120.734 32.0259V34.5578C120.734 34.6796 120.636 34.7751 120.514 34.7751C120.395 34.7751 120.296 34.6796 120.296 34.5578V32.0259C120.296 31.9074 120.395 31.8086 120.514 31.8086Z" fill="#C04B24"/>
<path id="Vector_73" d="M120.681 41.1328C120.925 41.1328 121.126 40.932 121.126 40.6884V39.48C121.126 39.2331 120.925 39.0356 120.681 39.0356H120.346C120.102 39.0356 119.904 39.2331 119.904 39.48V40.6884C119.904 40.932 120.102 41.1328 120.346 41.1328H120.681ZM120.346 38.5977H120.681C121.165 38.5977 121.56 38.9928 121.56 39.48V40.6884C121.56 41.1724 121.165 41.5675 120.681 41.5675H120.346C119.862 41.5675 119.47 41.1724 119.47 40.6884V39.48C119.47 38.9928 119.862 38.5977 120.346 38.5977Z" fill="#A5401E"/>
<path id="Vector_74" d="M120.514 36.3257C120.636 36.3257 120.734 36.4245 120.734 36.543V39.0749C120.734 39.1967 120.636 39.2922 120.514 39.2922C120.395 39.2922 120.296 39.1967 120.296 39.0749V36.543C120.296 36.4245 120.395 36.3257 120.514 36.3257Z" fill="#C04B24"/>
<path id="Vector_75" d="M120.514 40.8428C120.636 40.8428 120.734 40.9415 120.734 41.0634V43.592C120.734 43.7138 120.636 43.8093 120.514 43.8093C120.395 43.8093 120.296 43.7138 120.296 43.592V41.0634C120.296 40.9415 120.395 40.8428 120.514 40.8428Z" fill="#C04B24"/>
<path id="Vector_76" d="M120.681 9.64384C120.925 9.64384 121.126 9.44629 121.126 9.20265V7.99432C121.126 7.74739 120.925 7.54984 120.681 7.54984H120.346C120.102 7.54984 119.904 7.74739 119.904 7.99432V9.20265C119.904 9.44629 120.102 9.64384 120.346 9.64384H120.681ZM120.346 7.11523H120.681C121.165 7.11523 121.56 7.51033 121.56 7.99432V9.20265C121.56 9.68664 121.165 10.0784 120.681 10.0784H120.346C119.862 10.0784 119.47 9.68664 119.47 9.20265V7.99432C119.47 7.51033 119.862 7.11523 120.346 7.11523Z" fill="#A5401E"/>
<path id="Vector_77" d="M120.514 4.83984C120.636 4.83984 120.734 4.93532 120.734 5.06044V7.58904C120.734 7.71087 120.636 7.80964 120.514 7.80964C120.395 7.80964 120.296 7.71087 120.296 7.58904V5.06044C120.296 4.93532 120.395 4.83984 120.514 4.83984Z" fill="#C04B24"/>
<path id="Vector_78" d="M120.681 14.1642C120.925 14.1642 121.126 13.9634 121.126 13.7164V12.5114C121.126 12.2678 120.925 12.0669 120.681 12.0669H120.346C120.102 12.0669 119.904 12.2678 119.904 12.5114V13.7164C119.904 13.9634 120.102 14.1642 120.346 14.1642H120.681ZM120.346 11.6323H120.681C121.165 11.6323 121.56 12.0241 121.56 12.5114V13.7164C121.56 14.2037 121.165 14.5988 120.681 14.5988H120.346C119.862 14.5988 119.47 14.2037 119.47 13.7164V12.5114C119.47 12.0241 119.862 11.6323 120.346 11.6323Z" fill="#A5401E"/>
<path id="Vector_79" d="M120.514 9.36035C120.636 9.36035 120.734 9.45583 120.734 9.57436V12.1063C120.734 12.2281 120.636 12.3236 120.514 12.3236C120.395 12.3236 120.296 12.2281 120.296 12.1063V9.57436C120.296 9.45583 120.395 9.36035 120.514 9.36035Z" fill="#C04B24"/>
<path id="Vector_80" d="M120.681 18.6813C120.925 18.6813 121.126 18.4805 121.126 18.2368V17.0318C121.126 16.7849 120.925 16.584 120.681 16.584H120.346C120.102 16.584 119.904 16.7849 119.904 17.0318V18.2368C119.904 18.4805 120.102 18.6813 120.346 18.6813H120.681ZM120.346 16.1494H120.681C121.165 16.1494 121.56 16.5445 121.56 17.0318V18.2368C121.56 18.7241 121.165 19.1159 120.681 19.1159H120.346C119.862 19.1159 119.47 18.7241 119.47 18.2368V17.0318C119.47 16.5445 119.862 16.1494 120.346 16.1494Z" fill="#A5401E"/>
<path id="Vector_81" d="M120.514 13.8745C120.636 13.8745 120.734 13.9733 120.734 14.0951V16.627C120.734 16.7488 120.636 16.8443 120.514 16.8443C120.395 16.8443 120.296 16.7488 120.296 16.627V14.0951C120.296 13.9733 120.395 13.8745 120.514 13.8745Z" fill="#C04B24"/>
<path id="Vector_82" d="M120.681 23.1985C120.925 23.1985 121.126 22.9977 121.126 22.754V21.5457C121.126 21.3021 120.925 21.1012 120.681 21.1012H120.346C120.102 21.1012 119.904 21.3021 119.904 21.5457V22.754C119.904 22.9977 120.102 23.1985 120.346 23.1985H120.681ZM120.346 20.6699H120.681C121.165 20.6699 121.56 21.0617 121.56 21.5457V22.754C121.56 23.238 121.165 23.6364 120.681 23.6364H120.346C119.862 23.6364 119.47 23.238 119.47 22.754V21.5457C119.47 21.0617 119.862 20.6699 120.346 20.6699Z" fill="#A5401E"/>
<path id="Vector_83" d="M120.514 18.395C120.636 18.395 120.734 18.4938 120.734 18.6123V21.1442C120.734 21.266 120.636 21.3582 120.514 21.3582C120.395 21.3582 120.296 21.266 120.296 21.1442V18.6123C120.296 18.4938 120.395 18.395 120.514 18.395Z" fill="#C04B24"/>
<path id="Vector_84" d="M120.514 22.9121C120.636 22.9121 120.734 23.0109 120.734 23.1294V25.6613C120.734 25.7831 120.636 25.8786 120.514 25.8786C120.395 25.8786 120.296 25.7831 120.296 25.6613V23.1294C120.296 23.0109 120.395 22.9121 120.514 22.9121Z" fill="#C04B24"/>
<path id="Vector_85" d="M121.982 79.1804H94.1836V74.4458H121.982V79.1804Z" fill="#BF935B"/>
<path id="Vector_86" d="M151.801 61.8881C151.801 61.3185 151.344 60.8608 150.781 60.8608H136.35C135.78 60.8608 135.323 61.3185 135.323 61.8881V70.7053C135.326 70.7777 135.333 70.8436 135.349 70.9127C135.596 72.8717 139.175 74.4258 143.564 74.4258C147.949 74.4258 151.528 72.8717 151.778 70.9127C151.792 70.8436 151.798 70.7777 151.801 70.7053V61.8881Z" fill="#34968C"/>
<path id="Vector_87" d="M137.019 45.5085C137.262 45.5085 137.46 45.3076 137.46 45.064V43.8556C137.46 43.612 137.262 43.4112 137.019 43.4112H136.683C136.436 43.4112 136.238 43.612 136.238 43.8556V45.064C136.238 45.3076 136.436 45.5085 136.683 45.5085H137.019ZM136.683 42.9766H137.019C137.503 42.9766 137.898 43.3717 137.898 43.8556V45.064C137.898 45.548 137.503 45.9431 137.019 45.9431H136.683C136.199 45.9431 135.804 45.548 135.804 45.064V43.8556C135.804 43.3717 136.199 42.9766 136.683 42.9766Z" fill="#A5401E"/>
<path id="Vector_88" d="M137.019 50.0256C137.262 50.0256 137.46 49.8247 137.46 49.5844V48.3727C137.46 48.1291 137.262 47.9315 137.019 47.9315H136.683C136.436 47.9315 136.238 48.1291 136.238 48.3727V49.5844C136.238 49.8247 136.436 50.0256 136.683 50.0256H137.019ZM136.683 47.4937H137.019C137.503 47.4937 137.898 47.892 137.898 48.3727V49.5844C137.898 50.0651 137.503 50.4602 137.019 50.4602H136.683C136.199 50.4602 135.804 50.0651 135.804 49.5844V48.3727C135.804 47.892 136.199 47.4937 136.683 47.4937Z" fill="#A5401E"/>
<path id="Vector_89" d="M136.851 45.2217C136.969 45.2217 137.068 45.3172 137.068 45.439V47.9709C137.068 48.0894 136.969 48.1882 136.851 48.1882C136.732 48.1882 136.633 48.0894 136.633 47.9709V45.439C136.633 45.3172 136.732 45.2217 136.851 45.2217Z" fill="#C04B24"/>
<path id="Vector_90" d="M137.019 54.5426C137.262 54.5426 137.46 54.3451 137.46 54.0982V52.8931C137.46 52.6462 137.262 52.4486 137.019 52.4486H136.683C136.436 52.4486 136.238 52.6462 136.238 52.8931V54.0982C136.238 54.3451 136.436 54.5426 136.683 54.5426H137.019ZM136.683 52.0107H137.019C137.503 52.0107 137.898 52.4058 137.898 52.8931V54.0982C137.898 54.5854 137.503 54.9805 137.019 54.9805H136.683C136.199 54.9805 135.804 54.5854 135.804 54.0982V52.8931C135.804 52.4058 136.199 52.0107 136.683 52.0107Z" fill="#A5401E"/>
<path id="Vector_91" d="M136.851 49.7393C136.969 49.7393 137.068 49.838 137.068 49.9566V52.4918C137.068 52.6103 136.969 52.7058 136.851 52.7058C136.732 52.7058 136.633 52.6103 136.633 52.4918V49.9566C136.633 49.838 136.732 49.7393 136.851 49.7393Z" fill="#C04B24"/>
<path id="Vector_92" d="M137.019 59.0599C137.262 59.0599 137.46 58.8623 137.46 58.6187V57.4103C137.46 57.1634 137.262 56.9659 137.019 56.9659H136.683C136.436 56.9659 136.238 57.1634 136.238 57.4103V58.6187C136.238 58.8623 136.436 59.0599 136.683 59.0599H137.019ZM136.683 56.5312H137.019C137.503 56.5312 137.898 56.9263 137.898 57.4103V58.6187C137.898 59.106 137.503 59.4978 137.019 59.4978H136.683C136.199 59.4978 135.804 59.106 135.804 58.6187V57.4103C135.804 56.9263 136.199 56.5312 136.683 56.5312Z" fill="#A5401E"/>
<path id="Vector_93" d="M136.851 54.2563C136.969 54.2563 137.068 54.3551 137.068 54.4769V57.0088C137.068 57.1274 136.969 57.2261 136.851 57.2261C136.732 57.2261 136.633 57.1274 136.633 57.0088V54.4769C136.633 54.3551 136.732 54.2563 136.851 54.2563Z" fill="#C04B24"/>
<path id="Vector_94" d="M136.851 58.7734C136.969 58.7734 137.068 58.8755 137.068 58.994V61.5226C137.068 61.6445 136.969 61.7432 136.851 61.7432C136.732 61.7432 136.633 61.6445 136.633 61.5226V58.994C136.633 58.8755 136.732 58.7734 136.851 58.7734Z" fill="#C04B24"/>
<path id="Vector_95" d="M137.019 27.5745C137.262 27.5745 137.46 27.3802 137.46 27.1333V25.9217C137.46 25.6813 137.262 25.4838 137.019 25.4838H136.683C136.436 25.4838 136.238 25.6813 136.238 25.9217V27.1333C136.238 27.3802 136.436 27.5745 136.683 27.5745H137.019ZM136.683 25.0459H137.019C137.503 25.0459 137.898 25.4377 137.898 25.9217V27.1333C137.898 27.6173 137.503 28.0124 137.019 28.0124H136.683C136.199 28.0124 135.804 27.6173 135.804 27.1333V25.9217C135.804 25.4377 136.199 25.0459 136.683 25.0459Z" fill="#A5401E"/>
<path id="Vector_96" d="M137.019 32.0916C137.262 32.0916 137.46 31.8973 137.46 31.6504V30.4421C137.46 30.1951 137.262 30.0009 137.019 30.0009H136.683C136.436 30.0009 136.238 30.1951 136.238 30.4421V31.6504C136.238 31.8973 136.436 32.0916 136.683 32.0916H137.019ZM136.683 29.563H137.019C137.503 29.563 137.898 29.9581 137.898 30.4421V31.6504C137.898 32.1377 137.503 32.5295 137.019 32.5295H136.683C136.199 32.5295 135.804 32.1377 135.804 31.6504V30.4421C135.804 29.9581 136.199 29.563 136.683 29.563Z" fill="#A5401E"/>
<path id="Vector_97" d="M136.851 27.291C136.969 27.291 137.068 27.3898 137.068 27.5083V30.0369C137.068 30.1587 136.969 30.2575 136.851 30.2575C136.732 30.2575 136.633 30.1587 136.633 30.0369V27.5083C136.633 27.3898 136.732 27.291 136.851 27.291Z" fill="#C04B24"/>
<path id="Vector_98" d="M137.019 36.612C137.262 36.612 137.46 36.4144 137.46 36.1708V34.9592C137.46 34.7155 137.262 34.518 137.019 34.518H136.683C136.436 34.518 136.238 34.7155 136.238 34.9592V36.1708C136.238 36.4144 136.436 36.612 136.683 36.612H137.019ZM136.683 34.0801H137.019C137.503 34.0801 137.898 34.4785 137.898 34.9592V36.1708C137.898 36.6515 137.503 37.0466 137.019 37.0466H136.683C136.199 37.0466 135.804 36.6515 135.804 36.1708V34.9592C135.804 34.4785 136.199 34.0801 136.683 34.0801Z" fill="#A5401E"/>
<path id="Vector_99" d="M136.851 31.8086C136.969 31.8086 137.068 31.9074 137.068 32.0259V34.5578C137.068 34.6796 136.969 34.7751 136.851 34.7751C136.732 34.7751 136.633 34.6796 136.633 34.5578V32.0259C136.633 31.9074 136.732 31.8086 136.851 31.8086Z" fill="#C04B24"/>
<path id="Vector_100" d="M137.019 41.1328C137.262 41.1328 137.46 40.932 137.46 40.6884V39.48C137.46 39.2331 137.262 39.0356 137.019 39.0356H136.683C136.436 39.0356 136.238 39.2331 136.238 39.48V40.6884C136.238 40.932 136.436 41.1328 136.683 41.1328H137.019ZM136.683 38.5977H137.019C137.503 38.5977 137.898 38.9928 137.898 39.48V40.6884C137.898 41.1724 137.503 41.5675 137.019 41.5675H136.683C136.199 41.5675 135.804 41.1724 135.804 40.6884V39.48C135.804 38.9928 136.199 38.5977 136.683 38.5977Z" fill="#A5401E"/>
<path id="Vector_101" d="M136.851 36.3257C136.969 36.3257 137.068 36.4245 137.068 36.543V39.0749C137.068 39.1967 136.969 39.2922 136.851 39.2922C136.732 39.2922 136.633 39.1967 136.633 39.0749V36.543C136.633 36.4245 136.732 36.3257 136.851 36.3257Z" fill="#C04B24"/>
<path id="Vector_102" d="M136.851 40.8428C136.969 40.8428 137.068 40.9415 137.068 41.0634V43.592C137.068 43.7138 136.969 43.8093 136.851 43.8093C136.732 43.8093 136.633 43.7138 136.633 43.592V41.0634C136.633 40.9415 136.732 40.8428 136.851 40.8428Z" fill="#C04B24"/>
<path id="Vector_103" d="M137.019 9.64384C137.262 9.64384 137.46 9.44629 137.46 9.20265V7.99432C137.46 7.74739 137.262 7.54984 137.019 7.54984H136.683C136.436 7.54984 136.238 7.74739 136.238 7.99432V9.20265C136.238 9.44629 136.436 9.64384 136.683 9.64384H137.019ZM136.683 7.11523H137.019C137.503 7.11523 137.898 7.51033 137.898 7.99432V9.20265C137.898 9.68664 137.503 10.0784 137.019 10.0784H136.683C136.199 10.0784 135.804 9.68664 135.804 9.20265V7.99432C135.804 7.51033 136.199 7.11523 136.683 7.11523Z" fill="#A5401E"/>
<path id="Vector_104" d="M136.851 4.83984C136.969 4.83984 137.068 4.93532 137.068 5.06044V7.58904C137.068 7.71087 136.969 7.80964 136.851 7.80964C136.732 7.80964 136.633 7.71087 136.633 7.58904V5.06044C136.633 4.93532 136.732 4.83984 136.851 4.83984Z" fill="#C04B24"/>
<path id="Vector_105" d="M137.019 14.1642C137.262 14.1642 137.46 13.9634 137.46 13.7164V12.5114C137.46 12.2678 137.262 12.0669 137.019 12.0669H136.683C136.436 12.0669 136.238 12.2678 136.238 12.5114V13.7164C136.238 13.9634 136.436 14.1642 136.683 14.1642H137.019ZM136.683 11.6323H137.019C137.503 11.6323 137.898 12.0241 137.898 12.5114V13.7164C137.898 14.2037 137.503 14.5988 137.019 14.5988H136.683C136.199 14.5988 135.804 14.2037 135.804 13.7164V12.5114C135.804 12.0241 136.199 11.6323 136.683 11.6323Z" fill="#A5401E"/>
<path id="Vector_106" d="M136.851 9.36035C136.969 9.36035 137.068 9.45583 137.068 9.57436V12.1063C137.068 12.2281 136.969 12.3236 136.851 12.3236C136.732 12.3236 136.633 12.2281 136.633 12.1063V9.57436C136.633 9.45583 136.732 9.36035 136.851 9.36035Z" fill="#C04B24"/>
<path id="Vector_107" d="M137.019 18.6813C137.262 18.6813 137.46 18.4805 137.46 18.2368V17.0318C137.46 16.7849 137.262 16.584 137.019 16.584H136.683C136.436 16.584 136.238 16.7849 136.238 17.0318V18.2368C136.238 18.4805 136.436 18.6813 136.683 18.6813H137.019ZM136.683 16.1494H137.019C137.503 16.1494 137.898 16.5445 137.898 17.0318V18.2368C137.898 18.7241 137.503 19.1159 137.019 19.1159H136.683C136.199 19.1159 135.804 18.7241 135.804 18.2368V17.0318C135.804 16.5445 136.199 16.1494 136.683 16.1494Z" fill="#A5401E"/>
<path id="Vector_108" d="M136.851 13.8745C136.969 13.8745 137.068 13.9733 137.068 14.0951V16.627C137.068 16.7488 136.969 16.8443 136.851 16.8443C136.732 16.8443 136.633 16.7488 136.633 16.627V14.0951C136.633 13.9733 136.732 13.8745 136.851 13.8745Z" fill="#C04B24"/>
<path id="Vector_109" d="M137.019 23.1985C137.262 23.1985 137.46 22.9977 137.46 22.754V21.5457C137.46 21.3021 137.262 21.1012 137.019 21.1012H136.683C136.436 21.1012 136.238 21.3021 136.238 21.5457V22.754C136.238 22.9977 136.436 23.1985 136.683 23.1985H137.019ZM136.683 20.6699H137.019C137.503 20.6699 137.898 21.0617 137.898 21.5457V22.754C137.898 23.238 137.503 23.6364 137.019 23.6364H136.683C136.199 23.6364 135.804 23.238 135.804 22.754V21.5457C135.804 21.0617 136.199 20.6699 136.683 20.6699Z" fill="#A5401E"/>
<path id="Vector_110" d="M136.851 18.395C136.969 18.395 137.068 18.4938 137.068 18.6123V21.1442C137.068 21.266 136.969 21.3582 136.851 21.3582C136.732 21.3582 136.633 21.266 136.633 21.1442V18.6123C136.633 18.4938 136.732 18.395 136.851 18.395Z" fill="#C04B24"/>
<path id="Vector_111" d="M136.851 22.9121C136.969 22.9121 137.068 23.0109 137.068 23.1294V25.6613C137.068 25.7831 136.969 25.8786 136.851 25.8786C136.732 25.8786 136.633 25.7831 136.633 25.6613V23.1294C136.633 23.0109 136.732 22.9121 136.851 22.9121Z" fill="#C04B24"/>
<path id="Vector_112" d="M150.452 45.5085C150.695 45.5085 150.896 45.3076 150.896 45.064V43.8556C150.896 43.612 150.695 43.4112 150.452 43.4112H150.116C149.872 43.4112 149.671 43.612 149.671 43.8556V45.064C149.671 45.3076 149.872 45.5085 150.116 45.5085H150.452ZM150.116 42.9766H150.452C150.936 42.9766 151.331 43.3717 151.331 43.8556V45.064C151.331 45.548 150.936 45.9431 150.452 45.9431H150.116C149.632 45.9431 149.237 45.548 149.237 45.064V43.8556C149.237 43.3717 149.632 42.9766 150.116 42.9766Z" fill="#A5401E"/>
<path id="Vector_113" d="M150.452 50.0256C150.695 50.0256 150.896 49.8247 150.896 49.5844V48.3727C150.896 48.1291 150.695 47.9315 150.452 47.9315H150.116C149.872 47.9315 149.671 48.1291 149.671 48.3727V49.5844C149.671 49.8247 149.872 50.0256 150.116 50.0256H150.452ZM150.116 47.4937H150.452C150.936 47.4937 151.331 47.892 151.331 48.3727V49.5844C151.331 50.0651 150.936 50.4602 150.452 50.4602H150.116C149.632 50.4602 149.237 50.0651 149.237 49.5844V48.3727C149.237 47.892 149.632 47.4937 150.116 47.4937Z" fill="#A5401E"/>
<path id="Vector_114" d="M150.284 45.2217C150.406 45.2217 150.501 45.3172 150.501 45.439V47.9709C150.501 48.0894 150.406 48.1882 150.284 48.1882C150.162 48.1882 150.066 48.0894 150.066 47.9709V45.439C150.066 45.3172 150.162 45.2217 150.284 45.2217Z" fill="#C04B24"/>
<path id="Vector_115" d="M150.452 54.5426C150.695 54.5426 150.896 54.3451 150.896 54.0982V52.8931C150.896 52.6462 150.695 52.4486 150.452 52.4486H150.116C149.872 52.4486 149.671 52.6462 149.671 52.8931V54.0982C149.671 54.3451 149.872 54.5426 150.116 54.5426H150.452ZM150.116 52.0107H150.452C150.936 52.0107 151.331 52.4058 151.331 52.8931V54.0982C151.331 54.5854 150.936 54.9805 150.452 54.9805H150.116C149.632 54.9805 149.237 54.5854 149.237 54.0982V52.8931C149.237 52.4058 149.632 52.0107 150.116 52.0107Z" fill="#A5401E"/>
<path id="Vector_116" d="M150.284 49.7393C150.406 49.7393 150.501 49.838 150.501 49.9566V52.4918C150.501 52.6103 150.406 52.7058 150.284 52.7058C150.162 52.7058 150.066 52.6103 150.066 52.4918V49.9566C150.066 49.838 150.162 49.7393 150.284 49.7393Z" fill="#C04B24"/>
<path id="Vector_117" d="M150.452 59.0599C150.695 59.0599 150.896 58.8623 150.896 58.6187V57.4103C150.896 57.1634 150.695 56.9659 150.452 56.9659H150.116C149.872 56.9659 149.671 57.1634 149.671 57.4103V58.6187C149.671 58.8623 149.872 59.0599 150.116 59.0599H150.452ZM150.116 56.5312H150.452C150.936 56.5312 151.331 56.9263 151.331 57.4103V58.6187C151.331 59.106 150.936 59.4978 150.452 59.4978H150.116C149.632 59.4978 149.237 59.106 149.237 58.6187V57.4103C149.237 56.9263 149.632 56.5312 150.116 56.5312Z" fill="#A5401E"/>
<path id="Vector_118" d="M150.284 54.2563C150.406 54.2563 150.501 54.3551 150.501 54.4769V57.0088C150.501 57.1274 150.406 57.2261 150.284 57.2261C150.162 57.2261 150.066 57.1274 150.066 57.0088V54.4769C150.066 54.3551 150.162 54.2563 150.284 54.2563Z" fill="#C04B24"/>
<path id="Vector_119" d="M150.284 58.7734C150.406 58.7734 150.501 58.8755 150.501 58.994V61.5226C150.501 61.6445 150.406 61.7432 150.284 61.7432C150.162 61.7432 150.066 61.6445 150.066 61.5226V58.994C150.066 58.8755 150.162 58.7734 150.284 58.7734Z" fill="#C04B24"/>
<path id="Vector_120" d="M150.452 27.5745C150.695 27.5745 150.896 27.3802 150.896 27.1333V25.9217C150.896 25.6813 150.695 25.4838 150.452 25.4838H150.116C149.872 25.4838 149.671 25.6813 149.671 25.9217V27.1333C149.671 27.3802 149.872 27.5745 150.116 27.5745H150.452ZM150.116 25.0459H150.452C150.936 25.0459 151.331 25.4377 151.331 25.9217V27.1333C151.331 27.6173 150.936 28.0124 150.452 28.0124H150.116C149.632 28.0124 149.237 27.6173 149.237 27.1333V25.9217C149.237 25.4377 149.632 25.0459 150.116 25.0459Z" fill="#A5401E"/>
<path id="Vector_121" d="M150.452 32.0916C150.695 32.0916 150.896 31.8973 150.896 31.6504V30.4421C150.896 30.1951 150.695 30.0009 150.452 30.0009H150.116C149.872 30.0009 149.671 30.1951 149.671 30.4421V31.6504C149.671 31.8973 149.872 32.0916 150.116 32.0916H150.452ZM150.116 29.563H150.452C150.936 29.563 151.331 29.9581 151.331 30.4421V31.6504C151.331 32.1377 150.936 32.5295 150.452 32.5295H150.116C149.632 32.5295 149.237 32.1377 149.237 31.6504V30.4421C149.237 29.9581 149.632 29.563 150.116 29.563Z" fill="#A5401E"/>
<path id="Vector_122" d="M150.284 27.291C150.406 27.291 150.501 27.3898 150.501 27.5083V30.0369C150.501 30.1587 150.406 30.2575 150.284 30.2575C150.162 30.2575 150.066 30.1587 150.066 30.0369V27.5083C150.066 27.3898 150.162 27.291 150.284 27.291Z" fill="#C04B24"/>
<path id="Vector_123" d="M150.452 36.612C150.695 36.612 150.896 36.4144 150.896 36.1708V34.9592C150.896 34.7155 150.695 34.518 150.452 34.518H150.116C149.872 34.518 149.671 34.7155 149.671 34.9592V36.1708C149.671 36.4144 149.872 36.612 150.116 36.612H150.452ZM150.116 34.0801H150.452C150.936 34.0801 151.331 34.4785 151.331 34.9592V36.1708C151.331 36.6515 150.936 37.0466 150.452 37.0466H150.116C149.632 37.0466 149.237 36.6515 149.237 36.1708V34.9592C149.237 34.4785 149.632 34.0801 150.116 34.0801Z" fill="#A5401E"/>
<path id="Vector_124" d="M150.284 31.8086C150.406 31.8086 150.501 31.9074 150.501 32.0259V34.5578C150.501 34.6796 150.406 34.7751 150.284 34.7751C150.162 34.7751 150.066 34.6796 150.066 34.5578V32.0259C150.066 31.9074 150.162 31.8086 150.284 31.8086Z" fill="#C04B24"/>
<path id="Vector_125" d="M150.452 41.1328C150.695 41.1328 150.896 40.932 150.896 40.6884V39.48C150.896 39.2331 150.695 39.0356 150.452 39.0356H150.116C149.872 39.0356 149.671 39.2331 149.671 39.48V40.6884C149.671 40.932 149.872 41.1328 150.116 41.1328H150.452ZM150.116 38.5977H150.452C150.936 38.5977 151.331 38.9928 151.331 39.48V40.6884C151.331 41.1724 150.936 41.5675 150.452 41.5675H150.116C149.632 41.5675 149.237 41.1724 149.237 40.6884V39.48C149.237 38.9928 149.632 38.5977 150.116 38.5977Z" fill="#A5401E"/>
<path id="Vector_126" d="M150.284 36.3257C150.406 36.3257 150.501 36.4245 150.501 36.543V39.0749C150.501 39.1967 150.406 39.2922 150.284 39.2922C150.162 39.2922 150.066 39.1967 150.066 39.0749V36.543C150.066 36.4245 150.162 36.3257 150.284 36.3257Z" fill="#C04B24"/>
<path id="Vector_127" d="M150.284 40.8428C150.406 40.8428 150.501 40.9415 150.501 41.0634V43.592C150.501 43.7138 150.406 43.8093 150.284 43.8093C150.162 43.8093 150.066 43.7138 150.066 43.592V41.0634C150.066 40.9415 150.162 40.8428 150.284 40.8428Z" fill="#C04B24"/>
<path id="Vector_128" d="M150.452 9.64384C150.695 9.64384 150.896 9.44629 150.896 9.20265V7.99432C150.896 7.74739 150.695 7.54984 150.452 7.54984H150.116C149.872 7.54984 149.671 7.74739 149.671 7.99432V9.20265C149.671 9.44629 149.872 9.64384 150.116 9.64384H150.452ZM150.116 7.11523H150.452C150.936 7.11523 151.331 7.51033 151.331 7.99432V9.20265C151.331 9.68664 150.936 10.0784 150.452 10.0784H150.116C149.632 10.0784 149.237 9.68664 149.237 9.20265V7.99432C149.237 7.51033 149.632 7.11523 150.116 7.11523Z" fill="#A5401E"/>
<path id="Vector_129" d="M150.284 4.83984C150.406 4.83984 150.501 4.93532 150.501 5.06044V7.58904C150.501 7.71087 150.406 7.80964 150.284 7.80964C150.162 7.80964 150.066 7.71087 150.066 7.58904V5.06044C150.066 4.93532 150.162 4.83984 150.284 4.83984Z" fill="#C04B24"/>
<path id="Vector_130" d="M150.452 14.1642C150.695 14.1642 150.896 13.9634 150.896 13.7164V12.5114C150.896 12.2678 150.695 12.0669 150.452 12.0669H150.116C149.872 12.0669 149.671 12.2678 149.671 12.5114V13.7164C149.671 13.9634 149.872 14.1642 150.116 14.1642H150.452ZM150.116 11.6323H150.452C150.936 11.6323 151.331 12.0241 151.331 12.5114V13.7164C151.331 14.2037 150.936 14.5988 150.452 14.5988H150.116C149.632 14.5988 149.237 14.2037 149.237 13.7164V12.5114C149.237 12.0241 149.632 11.6323 150.116 11.6323Z" fill="#A5401E"/>
<path id="Vector_131" d="M150.284 9.36035C150.406 9.36035 150.501 9.45583 150.501 9.57436V12.1063C150.501 12.2281 150.406 12.3236 150.284 12.3236C150.162 12.3236 150.066 12.2281 150.066 12.1063V9.57436C150.066 9.45583 150.162 9.36035 150.284 9.36035Z" fill="#C04B24"/>
<path id="Vector_132" d="M150.452 18.6813C150.695 18.6813 150.896 18.4805 150.896 18.2368V17.0318C150.896 16.7849 150.695 16.584 150.452 16.584H150.116C149.872 16.584 149.671 16.7849 149.671 17.0318V18.2368C149.671 18.4805 149.872 18.6813 150.116 18.6813H150.452ZM150.116 16.1494H150.452C150.936 16.1494 151.331 16.5445 151.331 17.0318V18.2368C151.331 18.7241 150.936 19.1159 150.452 19.1159H150.116C149.632 19.1159 149.237 18.7241 149.237 18.2368V17.0318C149.237 16.5445 149.632 16.1494 150.116 16.1494Z" fill="#A5401E"/>
<path id="Vector_133" d="M150.284 13.8745C150.406 13.8745 150.501 13.9733 150.501 14.0951V16.627C150.501 16.7488 150.406 16.8443 150.284 16.8443C150.162 16.8443 150.066 16.7488 150.066 16.627V14.0951C150.066 13.9733 150.162 13.8745 150.284 13.8745Z" fill="#C04B24"/>
<path id="Vector_134" d="M150.452 23.1985C150.695 23.1985 150.896 22.9977 150.896 22.754V21.5457C150.896 21.3021 150.695 21.1012 150.452 21.1012H150.116C149.872 21.1012 149.671 21.3021 149.671 21.5457V22.754C149.671 22.9977 149.872 23.1985 150.116 23.1985H150.452ZM150.116 20.6699H150.452C150.936 20.6699 151.331 21.0617 151.331 21.5457V22.754C151.331 23.238 150.936 23.6364 150.452 23.6364H150.116C149.632 23.6364 149.237 23.238 149.237 22.754V21.5457C149.237 21.0617 149.632 20.6699 150.116 20.6699Z" fill="#A5401E"/>
<path id="Vector_135" d="M150.284 18.395C150.406 18.395 150.501 18.4938 150.501 18.6123V21.1442C150.501 21.266 150.406 21.3582 150.284 21.3582C150.162 21.3582 150.066 21.266 150.066 21.1442V18.6123C150.066 18.4938 150.162 18.395 150.284 18.395Z" fill="#C04B24"/>
<path id="Vector_136" d="M150.284 22.9121C150.406 22.9121 150.501 23.0109 150.501 23.1294V25.6613C150.501 25.7831 150.406 25.8786 150.284 25.8786C150.162 25.8786 150.066 25.7831 150.066 25.6613V23.1294C150.066 23.0109 150.162 22.9121 150.284 22.9121Z" fill="#C04B24"/>
<path id="Vector_137" d="M146.125 71.5053C145.437 71.0839 144.98 70.3826 144.98 69.5924C144.98 68.3018 146.175 67.2548 147.646 67.2548C149.115 67.2548 150.307 68.2952 150.313 69.576C149.605 70.4649 148.068 71.1695 146.125 71.5053ZM136.594 69.2434C136.781 68.1207 137.881 67.2548 139.221 67.2548C140.693 67.2548 141.888 68.3018 141.888 69.5924C141.888 70.2937 141.473 71.0642 140.917 71.4955C138.78 71.1103 137.147 70.274 136.594 69.2434ZM150.781 60.8608H150.754V63.0997C150.754 63.0997 149.691 65.3649 143.511 65.3649C137.331 65.3649 136.37 63.0997 136.37 63.0997V60.8608H136.35C135.78 60.8608 135.323 61.3185 135.323 61.8881V70.7053C135.326 70.7777 135.333 70.8436 135.349 70.9127C135.596 72.8717 139.175 74.4258 143.564 74.4258C147.949 74.4258 151.528 72.8717 151.778 70.9127C151.792 70.8436 151.798 70.7777 151.801 70.7053V61.8881C151.801 61.3185 151.344 60.8608 150.781 60.8608Z" fill="#41BDAF"/>
<path id="Vector_138" d="M161.699 5.76531H48.7349V-0.0195312H161.699V5.76531Z" fill="#6F4323"/>
<path id="Vector_139" d="M37.6029 101.553H32.0024L46.9304 -0.0195312H52.5342L37.6029 101.553Z" fill="#6F4323"/>
<path id="Vector_140" d="M172.824 101.553H178.431L163.5 -0.0195312H157.896L172.824 101.553Z" fill="#6F4323"/>
<path id="Vector_141" d="M24.7917 95.6392H24.6106C23.8896 95.6392 23.8896 96.7586 24.6106 96.7586H24.7917C25.5127 96.7586 25.5127 95.6392 24.7917 95.6392Z" fill="#435733"/>
<path id="Vector_142" d="M41.6428 103.719C40.9218 103.719 40.9218 104.841 41.6428 104.841C42.3672 104.841 42.3672 103.719 41.6428 103.719Z" fill="#435733"/>
<path id="Vector_143" d="M60.1101 106.416C59.3891 106.416 59.3891 107.535 60.1101 107.535C60.8312 107.535 60.8312 106.416 60.1101 106.416Z" fill="#435733"/>
<path id="Vector_144" d="M64.4133 92.9458C63.6923 92.9458 63.6923 94.0652 64.4133 94.0652C65.1377 94.0652 65.1377 92.9458 64.4133 92.9458Z" fill="#435733"/>
<path id="Vector_145" d="M79.2917 100.308C78.574 100.308 78.574 101.431 79.2917 101.431C80.0161 101.431 80.0161 100.308 79.2917 100.308Z" fill="#435733"/>
<path id="Vector_146" d="M102.062 110.903H101.885C101.16 110.903 101.16 112.026 101.885 112.026H102.062C102.787 112.026 102.787 110.903 102.062 110.903Z" fill="#435733"/>
<path id="Vector_147" d="M107.62 100.002C107.633 99.7118 107.462 99.4056 107.084 99.4122C106.932 99.4122 106.807 99.4386 106.669 99.5011C106.494 99.5801 106.392 99.804 106.392 99.9851C106.392 100.229 106.527 100.383 106.685 100.548C107.12 100.986 107.745 100.479 107.62 100.002Z" fill="#435733"/>
<path id="Vector_148" d="M127.523 108.928C126.799 108.928 126.799 110.05 127.523 110.05C128.244 110.05 128.244 108.928 127.523 108.928Z" fill="#435733"/>
<path id="Vector_149" d="M145.092 99.5903C144.371 99.5903 144.371 100.713 145.092 100.713C145.813 100.713 145.813 99.5903 145.092 99.5903Z" fill="#435733"/>
<path id="Vector_150" d="M162.123 104.795C161.402 104.795 161.402 105.918 162.123 105.918C162.844 105.918 162.844 104.795 162.123 104.795Z" fill="#435733"/>
<path id="Vector_151" d="M178.797 104.618C178.076 104.618 178.076 105.74 178.797 105.74C179.521 105.74 179.521 104.618 178.797 104.618Z" fill="#435733"/>
<path id="Vector_152" d="M186.508 94.5625C185.783 94.5625 185.783 95.6819 186.508 95.6819C187.229 95.6819 187.229 94.5625 186.508 94.5625Z" fill="#435733"/>
<path id="Vector_153" d="M160.151 97.2559C159.43 97.2559 159.43 98.3786 160.151 98.3786C160.875 98.3786 160.875 97.2559 160.151 97.2559Z" fill="#435733"/>
<path id="Vector_154" d="M141.865 111.802H141.687C140.963 111.802 140.963 112.921 141.687 112.921H141.865C142.589 112.921 142.589 111.802 141.865 111.802Z" fill="#435733"/>
<path id="Vector_155" d="M125.189 99.228C124.468 99.228 124.468 100.354 125.189 100.354C125.913 100.354 125.913 99.228 125.189 99.228Z" fill="#435733"/>
<path id="Vector_156" d="M116.586 106.053H116.405C115.684 106.053 115.684 107.176 116.405 107.176H116.586C117.307 107.176 117.307 106.053 116.586 106.053Z" fill="#435733"/>
<path id="Vector_157" d="M94.8918 103.719H94.7107C93.9897 103.719 93.9897 104.841 94.7107 104.841H94.8918C95.6128 104.841 95.6128 103.719 94.8918 103.719Z" fill="#435733"/>
<path id="Vector_158" d="M95.4285 94.5625C94.7074 94.5625 94.7074 95.6819 95.4285 95.6819C96.1528 95.6819 96.1528 94.5625 95.4285 94.5625Z" fill="#435733"/>
</g>
<defs>
<clipPath id="clip0_1975_3250">
<rect width="204" height="119.477" fill="white"/>
</clipPath>
</defs>
</svg>
