<svg width="204" height="120" viewBox="0 0 204 120" fill="none" xmlns="http://www.w3.org/2000/svg">
<g id="1">
<g id="Clip path group">
<mask id="mask0_1975_3189" style="mask-type:luminance" maskUnits="userSpaceOnUse" x="47" y="110" width="11" height="10">
<g id="d120456079">
<path id="Vector" d="M47.7402 110.416H57.0118V119.266H47.7402V110.416Z" fill="white"/>
</g>
</mask>
<g mask="url(#mask0_1975_3189)">
<g id="Group">
<path id="Vector_2" d="M55.2834 117.83C54.4406 118.779 53.3903 119.217 52.9392 118.812L48.0038 114.377C47.5527 113.972 47.8754 112.875 48.7183 111.93C49.5677 110.985 50.6147 110.544 51.0691 110.949L56.0012 115.384C56.4522 115.789 56.1329 116.886 55.2834 117.83Z" fill="#211D22"/>
</g>
</g>
</g>
<path id="Vector_3" d="M48.5898 110.857C48.5898 110.857 47.7766 112.888 51.1118 115.881C54.4405 118.874 56.3633 117.84 56.3633 117.84C56.3633 117.84 75.2686 94.9906 77.8334 92.1163C80.3982 89.2452 75.1632 83.4769 72.0683 86.9372C68.9734 90.4009 48.5898 110.857 48.5898 110.857Z" fill="#96D5D3"/>
<path id="Vector_4" d="M56.0868 116.777C56.044 116.717 55.9979 116.661 55.9551 116.602C55.9584 116.596 55.9617 116.589 55.965 116.586L56.1987 116.642C56.1625 116.688 56.123 116.731 56.0868 116.777ZM56.8605 115.845L56.4489 115.743C56.8605 115.061 57.4367 114.169 58.1413 113.135L58.9413 113.333C58.1446 114.291 57.44 115.144 56.8605 115.845ZM59.5998 112.533L58.701 112.312C59.4714 111.193 60.3604 109.942 61.3185 108.625L62.5828 108.937C61.5259 110.215 60.5151 111.43 59.5998 112.533ZM63.2479 108.141L61.9177 107.811C62.7935 106.619 63.722 105.385 64.6702 104.16L66.2341 104.545C65.2299 105.754 64.2224 106.965 63.2479 108.141ZM66.8992 103.748L65.2991 103.353C66.2671 102.112 67.2482 100.894 68.2096 99.7382L69.892 100.153C68.9274 101.309 67.9199 102.52 66.8992 103.748ZM70.5571 99.3596L68.8813 98.9415C69.9974 97.6278 71.0773 96.4195 72.0716 95.3955L73.5664 95.7675C72.6775 96.8244 71.6535 98.0459 70.5571 99.3596ZM74.2348 94.9708L72.8421 94.6251C74.429 93.0776 75.7362 92.1162 76.5099 92.1162C76.5626 92.1162 76.6152 92.1195 76.6646 92.1294L76.6185 92.1886C76.2004 92.6529 75.3575 93.6406 74.2348 94.9708Z" fill="#C4E8E7"/>
<path id="Vector_5" d="M56.3635 117.84C56.3635 117.84 56.4721 117.708 56.6795 117.461C56.4754 117.705 56.3635 117.84 56.3635 117.84Z" fill="#ADC6D0"/>
<path id="Vector_6" d="M55.4349 118.015C55.3394 118.015 55.2373 118.011 55.1254 118.001C54.2298 117.919 52.8635 117.458 51.1119 115.881C49.3537 114.304 48.7479 112.994 48.5701 112.108C48.5207 111.864 48.501 111.654 48.501 111.476C48.501 111.074 48.5899 110.857 48.5899 110.857C48.5899 110.857 48.873 110.574 49.3801 110.063C49.0179 110.425 48.771 110.676 48.6623 110.788L54.3615 112.197C54.3352 113.352 54.6677 114.436 55.2077 115.433L49.4262 114.001C49.6797 114.38 50.0056 114.785 50.4172 115.213L55.9353 116.576C55.9419 116.586 55.9485 116.592 55.9551 116.602C55.7872 116.925 55.718 117.122 55.7608 117.168C55.8596 117.05 55.9683 116.922 56.0868 116.777C56.2712 117.01 56.4687 117.241 56.6794 117.461C56.472 117.708 56.3634 117.84 56.3634 117.84C56.3634 117.84 56.044 118.015 55.4349 118.015ZM54.4537 111.258L49.4294 110.014C51.3819 108.055 56.4325 102.975 61.3086 98.0294L62.247 98.2632C61.1802 99.3859 60.2024 100.594 59.2904 101.862L57.868 101.51C57.6112 101.77 57.3544 102.03 57.1009 102.287L58.7142 102.685C58.0656 103.623 57.4532 104.591 56.8539 105.576C56.6827 105.859 56.5148 106.142 56.3502 106.432L53.6537 105.763C53.3936 106.03 53.1368 106.287 52.8898 106.537L55.8827 107.278C55.2242 108.536 54.6809 109.856 54.4537 111.258ZM61.358 97.9767C63.0174 96.2943 64.6538 94.6283 66.142 93.1105C65.9312 93.3278 65.7139 93.5484 65.4966 93.769L67.2318 94.2003C67.1824 94.2266 67.1363 94.2595 67.0869 94.2892C65.5822 95.2209 64.2389 96.2976 63.0141 97.4894L62.0725 97.2557C61.8354 97.496 61.5984 97.7364 61.358 97.9767ZM68.4039 93.5253L66.2539 92.9952C68.9932 90.1933 71.2058 87.9018 72.0684 86.9371C72.7466 86.1798 73.5269 85.8638 74.304 85.8638C74.5147 85.8638 74.7221 85.8868 74.9295 85.9296C75.2522 87.4507 76.6943 88.7117 78.2483 88.9356C78.6006 89.8542 78.6335 90.8354 78.1594 91.6618C77.3857 91.4939 76.612 91.4149 75.8382 91.4149C73.2504 91.4149 70.7086 92.2841 68.4039 93.5253ZM70.3958 88.7249C70.162 88.9686 69.9118 89.2287 69.6484 89.5019L78.1331 91.6025L76.6548 90.2724L70.3958 88.7249Z" fill="#66A9AE"/>
<path id="Vector_7" d="M55.7609 117.169C55.7181 117.123 55.7872 116.925 55.9552 116.603C55.998 116.662 56.0441 116.718 56.0869 116.777C55.9683 116.922 55.8597 117.05 55.7609 117.169Z" fill="#85B5BE"/>
<path id="Vector_8" d="M57.1599 116.879L56.1985 116.642C56.3961 116.405 56.6167 116.135 56.8603 115.845L57.8217 116.082C57.7855 116.122 57.7526 116.161 57.7197 116.201C57.5122 116.454 57.3246 116.681 57.1599 116.879ZM55.9648 116.586L55.9352 116.576C55.8924 116.514 55.8463 116.454 55.8035 116.392C55.5862 116.082 55.3853 115.763 55.2075 115.434L56.4488 115.743C56.2446 116.076 56.0833 116.359 55.9648 116.586Z" fill="#C4E8E7"/>
<path id="Vector_9" d="M56.1986 116.642L55.9648 116.586C56.0834 116.359 56.2447 116.076 56.4488 115.743L56.8604 115.845C56.6168 116.135 56.3962 116.405 56.1986 116.642Z" fill="#E0F3F2"/>
<path id="Vector_10" d="M55.9355 116.576L50.4173 115.213C50.0057 114.785 49.6798 114.38 49.4263 114.001L55.2078 115.434C55.3856 115.763 55.5865 116.082 55.8038 116.392C55.8466 116.454 55.8927 116.514 55.9355 116.576Z" fill="#A1CCD1"/>
<path id="Vector_11" d="M59.919 113.547C60.1265 113.297 60.3438 113.037 60.5644 112.773C60.3438 113.037 60.1298 113.297 59.919 113.547Z" fill="white"/>
<path id="Vector_12" d="M59.9025 113.57L58.9411 113.333C59.1551 113.076 59.3757 112.806 59.5996 112.533L60.5643 112.773C60.3437 113.037 60.1264 113.297 59.919 113.547C59.9124 113.554 59.9058 113.564 59.9025 113.57ZM58.1411 113.135L54.3613 112.197C54.3646 112.026 54.3745 111.855 54.3975 111.68C54.4107 111.539 54.4305 111.397 54.4535 111.259L58.7008 112.312C58.5065 112.596 58.3189 112.869 58.1411 113.135Z" fill="#C4E8E7"/>
<path id="Vector_13" d="M58.9412 113.333L58.1411 113.136C58.3189 112.869 58.5066 112.596 58.7008 112.312L59.5997 112.533C59.3758 112.806 59.1552 113.076 58.9412 113.333Z" fill="#E0F3F2"/>
<path id="Vector_14" d="M54.3614 112.197L48.6621 110.788C48.7708 110.676 49.0177 110.426 49.3799 110.064C49.393 110.05 49.4095 110.031 49.4293 110.014L54.4535 111.259C54.4305 111.397 54.4107 111.539 54.3976 111.68C54.3745 111.855 54.3646 112.026 54.3614 112.197Z" fill="#A1CCD1"/>
<path id="Vector_15" d="M63.5472 109.178H63.5439C63.7645 108.915 63.9851 108.645 64.209 108.378C63.9851 108.645 63.7645 108.915 63.5472 109.178Z" fill="white"/>
<path id="Vector_16" d="M63.5444 109.178L62.583 108.938C62.8036 108.674 63.0241 108.408 63.248 108.141L64.2094 108.378C63.9855 108.645 63.765 108.915 63.5444 109.178ZM61.3187 108.625L55.8828 107.278C56.0343 106.992 56.189 106.712 56.3503 106.432L61.9179 107.812C61.717 108.085 61.5162 108.358 61.3187 108.625Z" fill="#C4E8E7"/>
<path id="Vector_17" d="M62.5827 108.938L61.3184 108.625C61.5159 108.358 61.7167 108.085 61.9176 107.812L63.2477 108.141C63.0239 108.407 62.8033 108.674 62.5827 108.938Z" fill="#E0F3F2"/>
<path id="Vector_18" d="M55.8825 107.278L52.8896 106.537C53.1366 106.287 53.3934 106.03 53.6535 105.764L56.35 106.432C56.1887 106.712 56.0339 106.992 55.8825 107.278Z" fill="#A1CCD1"/>
<path id="Vector_19" d="M67.1952 104.782L66.2338 104.545C66.4544 104.278 66.675 104.015 66.8989 103.748L67.8603 103.985C67.6397 104.252 67.4158 104.516 67.1952 104.782ZM64.6699 104.16L58.7139 102.685C58.9015 102.408 59.0925 102.135 59.29 101.862L65.2988 103.353C65.0881 103.62 64.8806 103.89 64.6699 104.16Z" fill="#C4E8E7"/>
<path id="Vector_20" d="M66.2338 104.545L64.6699 104.16C64.8806 103.89 65.0881 103.62 65.2988 103.354L66.8989 103.749C66.675 104.015 66.4544 104.279 66.2338 104.545Z" fill="#E0F3F2"/>
<path id="Vector_21" d="M58.7139 102.685L57.1006 102.287C57.3541 102.03 57.6109 101.77 57.8677 101.51L59.2901 101.862C59.0925 102.135 58.9016 102.409 58.7139 102.685Z" fill="#A1CCD1"/>
<path id="Vector_22" d="M70.8533 100.394C71.0574 100.147 71.2583 99.9064 71.4591 99.6661C71.2616 99.9064 71.0607 100.147 70.8533 100.394ZM61.3085 98.0297H61.3052C61.3249 98.0133 61.3414 97.9935 61.3579 97.9771C61.3414 97.9935 61.3249 98.0133 61.3085 98.0297Z" fill="white"/>
<path id="Vector_23" d="M70.8535 100.394L69.8922 100.153C70.116 99.8867 70.3399 99.62 70.5572 99.3599L71.5153 99.5969C71.4989 99.62 71.4791 99.643 71.4594 99.6661C71.2585 99.9064 71.0577 100.147 70.8535 100.394ZM68.2097 99.7385L62.2471 98.2635C62.4973 98.0001 62.7541 97.7433 63.0142 97.4897L68.8814 98.9417C68.6608 99.2018 68.4369 99.4685 68.2097 99.7385Z" fill="#C4E8E7"/>
<path id="Vector_24" d="M69.8919 100.153L68.2095 99.7382C68.4367 99.4682 68.6605 99.2015 68.8811 98.9414L70.557 99.3595C70.3397 99.6197 70.1158 99.8863 69.8919 100.153Z" fill="#E0F3F2"/>
<path id="Vector_25" d="M62.2469 98.2634L61.3086 98.0296C61.3251 98.0131 61.3415 97.9934 61.358 97.9769C61.5983 97.7366 61.8354 97.4962 62.0724 97.2559L63.0141 97.4896C62.754 97.7431 62.4972 98 62.2469 98.2634Z" fill="#A1CCD1"/>
<path id="Vector_26" d="M66.1421 93.1108C66.1783 93.0713 66.2178 93.0318 66.254 92.9956C66.2178 93.0318 66.1783 93.0746 66.1421 93.1108Z" fill="white"/>
<path id="Vector_27" d="M74.5242 96.0046L73.5661 95.7676C73.7966 95.491 74.0205 95.2243 74.2345 94.9708L75.1926 95.2078C75.0115 95.4218 74.8271 95.6424 74.6362 95.8729C74.6 95.9157 74.5605 95.9585 74.5242 96.0046ZM72.0714 95.3955L67.2314 94.2003C67.6134 93.9666 68.0052 93.7394 68.4036 93.5254L72.8418 94.6251C72.5916 94.8687 72.3348 95.1255 72.0714 95.3955Z" fill="#C4E8E7"/>
<path id="Vector_28" d="M73.5666 95.7675L72.0718 95.3954C72.3352 95.1255 72.592 94.8686 72.8422 94.625L74.2349 94.9707C74.0209 95.2242 73.797 95.4909 73.5666 95.7675Z" fill="#E0F3F2"/>
<path id="Vector_29" d="M67.2317 94.2006L65.4966 93.7693C65.7139 93.5487 65.9312 93.3281 66.1419 93.1108C66.1781 93.0746 66.2176 93.0318 66.2538 92.9956L68.4038 93.5257C68.0054 93.7397 67.6136 93.9669 67.2317 94.2006Z" fill="#A1CCD1"/>
<path id="Vector_30" d="M78.1331 91.6027L69.6484 89.5021C69.9118 89.2288 70.1621 88.9687 70.3958 88.7251L76.6548 90.2726L78.1331 91.6027Z" fill="#A1CCD1"/>
<path id="Vector_31" d="M81.1126 87.8824C83.9737 84.6788 112.829 75.3579 120.727 72.984C118.508 71.4135 100.433 71.5353 100.433 71.5353C100.433 71.5353 104.637 73.6326 99.9487 75.4698C93.5251 77.9886 85.9624 80.695 84.461 81.2316C82.0641 82.0877 81.4155 80.9057 81.9126 78.9664C82.2155 77.7877 84.0857 69.8825 86.0513 62.9815C87.0357 59.5179 89.9693 62.1881 89.9693 62.1881C89.9693 62.1881 88.4712 37.2971 86.2488 42.002C85.0767 51.5534 78.8869 79.6052 75.7755 83.0853C72.6674 86.5654 78.2547 91.0827 81.1126 87.8824Z" fill="#42A3AB"/>
<path id="Vector_32" d="M148.401 31.9993L146.175 34.4884L143.689 32.2561L145.915 29.767L148.401 31.9993ZM143.577 37.3989L141.091 35.1634L143.317 32.6743L145.803 34.9066L143.577 37.3989ZM140.976 40.3062L138.49 38.0739L140.719 35.5815L143.205 37.8138L140.976 40.3062ZM138.378 43.2134L135.893 40.9811L138.122 38.4855L140.607 40.7177L138.378 43.2134ZM135.781 46.1207L133.295 43.8851L135.524 41.396L138.006 43.6283L135.781 46.1207ZM133.183 49.0246L130.697 46.7923L132.923 44.2999L135.409 46.5355L133.183 49.0246ZM130.582 51.9351L128.099 49.6996L130.325 47.2105L132.811 49.4428L130.582 51.9351ZM127.984 54.8424L125.498 52.6101L127.727 50.1144L130.213 52.35L127.984 54.8424ZM125.386 57.7496L122.901 55.514L125.13 53.0249L127.615 55.2572L125.386 57.7496ZM122.789 60.6569L120.303 58.4246L122.532 55.9322L125.014 58.1645L122.789 60.6569ZM120.188 63.5641L117.705 61.3318L119.931 58.8394L122.417 61.0717L120.188 63.5641ZM117.593 66.4713L115.104 64.2391L117.333 61.7467L119.819 63.9789L117.593 66.4713ZM115.216 69.1283L112.73 66.8961L114.735 64.6506L117.218 66.8862L115.216 69.1283ZM120.234 64.351L122.716 66.5833L120.49 69.0757L118.005 66.8434L120.234 64.351ZM122.831 61.4438L125.317 63.676L123.088 66.1684L120.602 63.9361L122.831 61.4438ZM125.429 58.5365L127.915 60.7688L125.689 63.2612L123.203 61.0256L125.429 58.5365ZM128.027 55.6293L130.513 57.8649L128.287 60.354L125.801 58.1217L128.027 55.6293ZM130.628 52.722L133.114 54.9543L130.885 57.45L128.399 55.2144L130.628 52.722ZM133.226 49.8148L135.708 52.0504L133.482 54.5395L130.997 52.3072L133.226 49.8148ZM135.823 46.9076L138.309 49.1398L136.08 51.6322L133.598 49.4L135.823 46.9076ZM138.421 44.0003L140.907 46.2326L138.678 48.725L136.195 46.4927L138.421 44.0003ZM141.022 41.0931L143.505 43.3254L141.279 45.8178L138.793 43.5855L141.022 41.0931ZM143.62 38.1858L146.102 40.4181L143.877 42.9105L141.391 40.6782L143.62 38.1858ZM146.214 35.2786L148.703 37.5109L146.475 40.0033L143.992 37.771L146.214 35.2786ZM128.33 61.1409L130.565 63.1525L128.34 65.6449L126.104 63.6332L128.33 61.1409ZM130.928 58.2336L133.163 60.2453L130.937 62.7377L128.699 60.726L130.928 58.2336ZM133.525 55.3264L135.761 57.3381L133.535 59.8305L131.3 57.8188L133.525 55.3264ZM136.123 52.4191L138.362 54.4308L136.133 56.9232L133.897 54.9115L136.123 52.4191ZM138.721 49.5152L140.96 51.5236L138.734 54.0127L136.495 52.0043L138.721 49.5152ZM141.319 46.6047L143.561 48.6163L141.332 51.1087L139.093 49.1003L141.319 46.6047ZM143.92 43.6974L146.158 45.7091L143.929 48.1982L141.694 46.1898L143.92 43.6974ZM145.872 28.9768L143.389 26.7446L145.615 24.2555L148.098 26.4877L145.872 28.9768ZM143.274 31.8874L140.788 29.6518L143.017 27.1594L145.503 29.395L143.274 31.8874ZM140.676 34.7913L138.194 32.559L140.416 30.0666L142.902 32.3022L140.676 34.7913ZM138.079 37.6986L135.593 35.4663L137.819 32.9739L140.304 35.2095L138.079 37.6986ZM135.481 40.6091L132.995 38.3735L135.221 35.8811L137.707 38.1134L135.481 40.6091ZM132.88 43.513L130.394 41.2808L132.623 38.7884L135.109 41.0239L132.88 43.513ZM130.282 46.4203L127.8 44.188L130.025 41.6956L132.508 43.9312L130.282 46.4203ZM127.684 49.3308L125.199 47.0952L127.428 44.6061L129.91 46.8384L127.684 49.3308ZM125.083 52.238L122.601 50.0025L124.827 47.5101L127.312 49.7457L125.083 52.238ZM122.489 55.1453L120.003 52.9097L122.229 50.4206L124.715 52.6496L122.489 55.1453ZM119.888 58.0492L117.405 55.8169L119.631 53.3246L122.117 55.5568L119.888 58.0492ZM117.29 60.9598L114.804 58.7242L117.033 56.2351L119.516 58.4641L117.29 60.9598ZM114.689 63.8637L112.207 61.6347L114.432 59.139L116.918 61.3746L114.689 63.8637ZM112.315 66.524L109.829 64.2884L111.835 62.0463L114.32 64.2819L112.315 66.524ZM109.718 69.4313L107.232 67.199L109.461 64.7066L111.947 66.9389L109.718 69.4313ZM142.975 26.3725L140.489 24.1402L142.715 21.6478L145.2 23.8801L142.975 26.3725ZM140.377 29.2798L137.888 27.0475L140.117 24.5551L142.603 26.7874L140.377 29.2798ZM137.776 32.187L135.29 29.9547L137.519 27.4623L140.005 29.6979L137.776 32.187ZM135.178 35.0942L132.696 32.8619L134.921 30.3696L137.407 32.6018L135.178 35.0942ZM132.58 38.0015L130.095 35.7692L132.324 33.2768L134.806 35.5091L132.58 38.0015ZM129.979 40.9087L127.497 38.6764L129.726 36.184L132.208 38.4163L129.979 40.9087ZM127.382 43.8159L124.899 41.5837L127.125 39.0913L129.611 41.3236L127.382 43.8159ZM124.784 46.7232L122.301 44.4909L124.527 41.9985L127.013 44.2308L124.784 46.7232ZM122.186 49.6304L119.7 47.3981L121.929 44.9058L124.412 47.1413L122.186 49.6304ZM119.588 52.5377L117.103 50.3054L119.328 47.813L121.814 50.0453L119.588 52.5377ZM116.991 55.4449L114.505 53.2126L116.734 50.7202L119.22 52.9525L116.991 55.4449ZM114.39 58.3521L111.904 56.1199L114.133 53.6275L116.619 55.8597L114.39 58.3521ZM111.795 61.2594L109.306 59.0271L111.535 56.5347L114.021 58.767L111.795 61.2594ZM109.418 63.9197L106.932 61.6841L108.937 59.4419L111.42 61.6775L109.418 63.9197ZM106.817 66.8236L104.334 64.5946L106.56 62.099L109.046 64.3345L106.817 66.8236ZM142.672 20.8609L140.186 18.6287L142.415 16.133L144.901 18.3686L142.672 20.8609ZM140.074 23.7682L137.588 21.5326L139.817 19.0435L142.303 21.2725L140.074 23.7682ZM137.476 26.6754L134.99 24.4431L137.216 21.9507L139.702 24.183L137.476 26.6754ZM134.878 29.5794L132.393 27.3471L134.618 24.8547L137.104 27.0903L134.878 29.5794ZM132.277 32.4899L129.792 30.2543L132.021 27.7652L134.506 29.9975L132.277 32.4899ZM129.68 35.3971L127.197 33.1649L129.423 30.6692L131.909 32.9047L129.68 35.3971ZM127.082 38.3044L124.596 36.0721L126.822 33.5797L129.311 35.812L127.082 38.3044ZM124.484 41.2116L121.998 38.976L124.224 36.4869L126.71 38.7192L124.484 41.2116ZM121.886 44.1156L119.397 41.8833L121.63 39.3942L124.112 41.6265L121.886 44.1156ZM119.285 47.0261L116.803 44.7938L119.029 42.3014L121.514 44.5337L119.285 47.0261ZM116.688 49.9333L114.205 47.701L116.431 45.2054L118.913 47.4409L116.688 49.9333ZM114.09 52.8406L111.604 50.605L113.833 48.1159L116.316 50.3482L114.09 52.8406ZM111.489 55.7478L109.006 53.5122L111.235 51.0198L113.718 53.2554L111.489 55.7478ZM108.894 58.655L106.409 56.4195L108.634 53.9271L111.12 56.1627L108.894 58.655ZM106.517 61.3121L104.031 59.0798L106.037 56.8343L108.519 59.0699L106.517 61.3121ZM103.92 64.2193L101.434 61.9837L103.663 59.4946L106.145 61.7269L103.92 64.2193ZM101.318 67.1265L98.8327 64.8942L101.062 62.4019L103.547 64.6341L101.318 67.1265ZM139.774 18.2566L137.289 16.021L139.514 13.5286L142 15.7609L139.774 18.2566ZM137.173 21.1606L134.691 18.9283L136.917 16.4359L139.399 18.6682L137.173 21.1606ZM134.576 24.0678L132.09 21.8355L134.319 19.3431L136.801 21.5754L134.576 24.0678ZM131.978 26.975L129.495 24.7427L131.721 22.2537L134.204 24.4826L131.978 26.975ZM129.38 29.8823L126.894 27.65L129.123 25.1609L131.606 27.3932L129.38 29.8823ZM126.782 32.7928L124.293 30.5572L126.522 28.0648L129.008 30.2971L126.782 32.7928ZM124.181 35.6967L121.695 33.4645L123.924 30.9721L126.41 33.2044L124.181 35.6967ZM121.584 38.604L119.101 36.3717L121.327 33.8793L123.813 36.1149L121.584 38.604ZM118.986 41.5112L116.5 39.2789L118.729 36.7866L121.211 39.0221L118.986 41.5112ZM116.388 44.4185L113.902 42.1862L116.128 39.6971L118.614 41.9294L116.388 44.4185ZM113.79 47.3257L111.304 45.0934L113.53 42.601L116.016 44.8333L113.79 47.3257ZM111.189 50.2329L108.707 48.0039L110.932 45.5083L113.418 47.7406L111.189 50.2329ZM108.592 53.1402L106.106 50.9079L108.335 48.4155L110.82 50.6478L108.592 53.1402ZM105.994 56.0507L103.508 53.8151L105.737 51.3227L108.219 53.5583L105.994 56.0507ZM103.617 58.7044L101.131 56.4754L103.139 54.2333L105.622 56.4623L103.617 58.7044ZM101.019 61.615L98.5363 59.3827L100.762 56.8903L103.248 59.1226L101.019 61.615ZM98.4211 64.5189L95.9386 62.2866L98.1643 59.7975L100.647 62.0298L98.4211 64.5189ZM136.874 15.649L134.388 13.4134L136.614 10.9243L139.099 13.1566L136.874 15.649ZM134.276 18.5562L131.79 16.3239L134.016 13.8315L136.502 16.0671L134.276 18.5562ZM131.678 21.4635L129.192 19.2312L131.418 16.7388L133.904 18.9711L131.678 21.4635ZM129.08 24.3707L126.591 22.1384L128.82 19.6427L131.306 21.8783L129.08 24.3707ZM126.479 27.2779L123.994 25.0457L126.223 22.5533L128.708 24.7888L126.479 27.2779ZM123.882 30.1852L121.396 27.9496L123.622 25.4605L126.107 27.6961L123.882 30.1852ZM121.284 33.0924L118.798 30.8601L121.024 28.3677L123.513 30.6L121.284 33.0924ZM118.686 35.9997L116.197 33.7674L118.426 31.275L120.912 33.5073L118.686 35.9997ZM116.088 38.9069L113.603 36.6713L115.825 34.1789L118.314 36.4145L116.088 38.9069ZM113.487 41.8141L111.002 39.5818L113.231 37.0895L115.716 39.3217L113.487 41.8141ZM110.89 44.7214L108.404 42.4891L110.633 39.9967L113.115 42.229L110.89 44.7214ZM108.292 47.6286L105.806 45.3963L108.035 42.9006L110.518 45.1362L108.292 47.6286ZM105.691 50.5358L103.208 48.3036L105.434 45.8112L107.92 48.0435L105.691 50.5358ZM103.093 53.4431L100.607 51.2108L102.836 48.7151L105.319 50.9507L103.093 53.4431ZM100.719 56.1034L98.2334 53.8678L100.239 51.6257L102.721 53.8612L100.719 56.1034ZM98.1182 59.0073L95.6357 56.7751L97.8614 54.2827L100.347 56.5182L98.1182 59.0073ZM95.5237 61.9179L93.0379 59.6823L95.2636 57.1899L97.7494 59.4255L95.5237 61.9179ZM131.375 15.9519L128.889 13.7196L131.118 11.2272L133.604 13.4595L131.375 15.9519ZM128.778 18.8591L126.292 16.6236L128.517 14.1312L131.007 16.3667L128.778 18.8591ZM126.18 21.7664L123.694 19.5308L125.92 17.0384L128.406 19.274L126.18 21.7664ZM123.582 24.6703L121.096 22.438L123.322 19.9456L125.808 22.1812L123.582 24.6703ZM120.981 27.5808L118.495 25.3486L120.724 22.8562L123.21 25.0885L120.981 27.5808ZM118.383 30.4881L115.901 28.2525L118.126 25.7634L120.612 27.9957L118.383 30.4881ZM115.786 33.3953L113.3 31.163L115.529 28.6706L118.011 30.9029L115.786 33.3953ZM113.184 36.3026L110.702 34.0703L112.928 31.5779L115.413 33.8102L113.184 36.3026ZM110.587 39.2098L108.104 36.9742L110.33 34.4818L112.816 36.7174L110.587 39.2098ZM107.989 42.117L105.506 39.8848L107.732 37.3924L110.218 39.6246L107.989 42.117ZM105.391 45.021L102.905 42.7887L105.134 40.2963L107.62 42.5319L105.391 45.021ZM102.793 47.9315L100.308 45.6992L102.533 43.2035L105.022 45.4391L102.793 47.9315ZM100.192 50.8388L97.7066 48.6065L99.9356 46.1108L102.421 48.3464L100.192 50.8388ZM97.8186 53.4958L95.3328 51.2635L97.3379 49.0213L99.8237 51.2536L97.8186 53.4958ZM95.2208 56.403L92.735 54.1707L94.9607 51.6783L97.4498 53.9139L95.2208 56.403ZM128.475 13.3476L125.992 11.112L128.218 8.61959L130.704 10.8519L128.475 13.3476ZM125.88 16.2548L123.391 14.0192L125.62 11.5268L128.106 13.7624L125.88 16.2548ZM123.282 19.162L120.793 16.9265L123.022 14.4374L125.508 16.6664L123.282 19.162ZM120.681 22.066L118.196 19.8337L120.425 17.3413L122.91 19.5769L120.681 22.066ZM118.084 24.9732L115.598 22.7409L117.827 20.2518L120.313 22.4808L118.084 24.9732ZM115.486 27.8805L113 25.6482L115.229 23.1558L117.712 25.3881L115.486 27.8805ZM112.885 30.7877L110.399 28.5554L112.628 26.063L115.114 28.2953L112.885 30.7877ZM110.287 33.6949L107.805 31.4627L110.03 28.9703L112.513 31.2058L110.287 33.6949ZM107.689 36.6055L105.204 34.3699L107.429 31.8775L109.918 34.1098L107.689 36.6055ZM105.092 39.5094L102.606 37.2771L104.832 34.7847L107.317 37.0203L105.092 39.5094ZM102.494 42.4199L100.008 40.1844L102.234 37.692L104.72 39.9276L102.494 42.4199ZM99.8928 45.3239L97.407 43.0916L99.636 40.5992L102.122 42.8315L99.8928 45.3239ZM97.2984 48.2311L94.8093 45.9988L97.0383 43.5065L99.5241 45.7387L97.2984 48.2311ZM94.9179 50.8914L92.4354 48.6591L94.4405 46.4137L96.923 48.646L94.9179 50.8914ZM122.98 13.6472L120.494 11.4149L122.719 8.9225L125.209 11.1548L122.98 13.6472ZM120.382 16.5544L117.893 14.3221L120.122 11.8297L122.607 14.062L120.382 16.5544ZM117.784 19.4616L115.295 17.2294L117.524 14.737L120.01 16.9693L117.784 19.4616ZM115.183 22.3689L112.697 20.1333L114.923 17.6442L117.409 19.8765L115.183 22.3689ZM112.585 25.2761L110.099 23.0438L112.328 20.5515L114.814 22.7837L112.585 25.2761ZM109.988 28.1834L107.502 25.9478L109.727 23.4587L112.213 25.691L109.988 28.1834ZM107.39 31.0906L104.901 28.8583L107.13 26.3659L109.615 28.5982L107.39 31.0906ZM104.789 33.9978L102.306 31.7656L104.532 29.2732L107.018 31.5055L104.789 33.9978ZM102.191 36.9051L99.7052 34.6728L101.934 32.1804L104.42 34.4127L102.191 36.9051ZM99.5932 39.8123L97.1074 37.58L99.3331 35.0876L101.822 37.3199L99.5932 39.8123ZM96.9955 42.7229L94.5097 40.4873L96.7387 37.9949L99.2212 40.2272L96.9955 42.7229ZM94.3977 45.6268L91.9119 43.3945L94.1376 40.8988L96.6234 43.1344L94.3977 45.6268ZM92.0206 48.2871L89.5348 46.0515L91.5399 43.8094L94.0257 46.0416L92.0206 48.2871ZM114.88 16.8573L112.401 14.625L114.623 12.1326L117.109 14.3616L114.88 16.8573ZM112.286 19.7613L109.8 17.529L112.026 15.0366L114.511 17.2722L112.286 19.7613ZM109.685 22.6718L107.202 20.4395L109.424 17.9471L111.914 20.1794L109.685 22.6718ZM107.087 25.579L104.601 23.3435L106.83 20.8544L109.316 23.0866L107.087 25.579ZM104.486 28.4863L102.003 26.254L104.232 23.7616L106.715 25.9939L104.486 28.4863ZM101.891 31.3935L99.4056 29.1579L101.635 26.6688L104.117 28.9011L101.891 31.3935ZM99.2936 34.2975L96.8078 32.0652L99.0335 29.5728L101.519 31.8084L99.2936 34.2975ZM96.6926 37.208L94.2101 34.9757L96.4358 32.4833L98.9183 34.7156L96.6926 37.208ZM94.0948 40.1152L91.609 37.8829L93.838 35.3906L96.3238 37.6228L94.0948 40.1152ZM106.787 20.0642L104.301 17.8319L106.527 15.3395L109.013 17.5718L106.787 20.0642ZM104.189 22.9747L101.7 20.7391L103.929 18.2467L106.415 20.4823L104.189 22.9747ZM101.592 25.8786L99.1059 23.6464L101.332 21.154L103.817 23.3895L101.592 25.8786ZM98.9907 28.7892L96.5082 26.5536L98.7339 24.0612L101.22 26.2935L98.9907 28.7892ZM96.393 31.6931L93.9071 29.4608L96.1361 26.9684L98.6187 29.204L96.393 31.6931ZM149.026 25.4506L148.47 26.0729L145.987 23.8373L147.775 21.8388C147.693 21.6511 147.61 21.4668 147.522 21.2824L145.572 23.4653L143.087 21.233L145.312 18.7406L147.014 20.2683C146.731 19.7316 146.425 19.2114 146.102 18.6978L145.684 18.3258L145.786 18.2138C145.678 18.0558 145.572 17.8977 145.46 17.743L145.269 17.9537L142.787 15.7214L143.294 15.1485C143.166 15.0168 143.034 14.8851 142.899 14.7567L142.372 15.3461L139.886 13.1138L140.337 12.6133C140.183 12.5014 140.031 12.396 139.876 12.2907L139.475 12.7417L137.295 10.786C136.752 10.516 136.202 10.2724 135.639 10.0452L136.202 10.5523L133.973 13.0414L131.487 10.8124L132.962 9.16285C132.758 9.11017 132.557 9.05749 132.353 9.0081L131.072 10.437L128.843 8.43192C128.468 8.399 128.089 8.36936 127.711 8.34961L125.577 10.7399L123.091 8.50765L123.105 8.49118C122.825 8.52082 122.548 8.55703 122.268 8.59654L120.079 11.0428L118.265 9.40978C118.054 9.46575 117.84 9.52502 117.629 9.58757L119.707 11.4577L117.478 13.9501L114.995 11.7145L116.619 9.90036C116.26 10.0156 115.901 10.1374 115.542 10.2658L114.58 11.3425L114.034 10.8486C113.846 10.9276 113.655 11.0099 113.464 11.0889L114.208 11.7573L111.983 14.253L110.234 12.6792C110.063 12.7747 109.892 12.8702 109.721 12.9689L111.614 14.6678L109.385 17.1569L106.899 14.9246L107.304 14.4703C106.6 14.9444 105.898 15.4481 105.213 15.9782L103.887 17.4598L103.646 17.2425C103.508 17.3644 103.363 17.4862 103.222 17.6113L103.515 17.8747L101.289 20.3671L100.788 19.916C100.657 20.0477 100.528 20.186 100.4 20.321L100.917 20.7819L98.6911 23.2743L98.1939 22.8298C98.0754 22.9747 97.9602 23.1196 97.8449 23.2611L98.319 23.6892L96.09 26.1816L95.8662 25.9807C95.7608 26.1355 95.6587 26.2935 95.5567 26.4515L95.7213 26.5964L94.8653 27.5512C94.3977 28.3249 93.9631 29.1053 93.5549 29.8921L96.0209 32.108L93.7952 34.6004L92.0831 33.0661C92.0107 33.2505 91.9383 33.4348 91.8658 33.6192L93.4232 35.0185L91.1942 37.5076L90.7003 37.0664C90.6443 37.2673 90.5884 37.4681 90.5357 37.6656L90.8254 37.9257L90.3348 38.4756C90.2426 38.8443 90.1603 39.2131 90.0879 39.5851L91.2403 38.2978L93.7228 40.5301L91.4971 43.0225L89.7554 41.4553C89.7224 41.6758 89.6895 41.8997 89.6632 42.1203L91.125 43.4373L89.4097 45.3568C89.3965 45.8013 89.3932 46.2392 89.3998 46.6804L91.6485 48.702L89.7619 50.8124C89.7982 51.0462 89.8377 51.2799 89.8838 51.5104L92.0634 49.0707L94.5492 51.303L92.3202 53.7987L89.9035 51.6257C89.9628 51.9351 90.0319 52.2479 90.1011 52.5541L91.9481 54.2135L90.9209 55.3659C90.9933 55.5634 91.0625 55.7577 91.1382 55.9552L92.3663 54.5856L94.8488 56.8179L92.6922 59.2279C93.1268 59.9819 93.6075 60.7128 94.1277 61.4141L95.1517 62.3327L94.997 62.5072C95.1155 62.6488 95.2406 62.7904 95.3624 62.9319L95.5633 62.7048L98.0491 64.937L97.7692 65.2498C97.9141 65.3684 98.0589 65.4869 98.2005 65.5988L98.4639 65.3091L100.624 67.2484C101.272 67.6336 101.934 67.9793 102.616 68.2921L101.737 67.4986L103.962 65.0095L106.448 67.2418L104.746 69.1448C104.934 69.2107 105.128 69.2732 105.322 69.3358L106.863 67.6138L109.345 69.8461L109.039 70.1885C109.263 70.2214 109.484 70.2511 109.704 70.2774L109.76 70.2182L109.849 70.2972C110.159 70.3334 110.475 70.3663 110.788 70.3927L110.132 69.8033L112.358 67.3109L114.844 69.5432L114.021 70.4651C114.281 70.4552 114.541 70.4453 114.801 70.4289L115.255 69.9152L115.746 70.3564C115.993 70.3334 116.243 70.307 116.493 70.2774L115.631 69.5004L117.636 67.2582L120.122 69.4905L119.967 69.6617C120.286 69.586 120.609 69.507 120.928 69.4214L123.131 66.9553L124.56 68.2361C124.751 68.1604 124.945 68.0879 125.136 68.0089L123.503 66.5405L125.732 64.0481L127.968 66.0598L126.93 67.2187C127.378 67.008 127.826 66.7874 128.271 66.5536L128.382 66.4318L128.429 66.4746C128.6 66.3824 128.778 66.287 128.949 66.1915L128.751 66.017L130.98 63.5246L131.935 64.3806C132.093 64.2753 132.251 64.1699 132.412 64.058L131.352 63.1097L133.578 60.6173L135.129 62.0101C135.274 61.8882 135.418 61.773 135.563 61.6512L133.95 60.2025L136.179 57.7101L138.039 59.3827C138.171 59.251 138.299 59.1193 138.431 58.9876L136.548 57.2953L138.773 54.8029L140.676 56.5117C140.798 56.3701 140.917 56.2285 141.035 56.0836L139.149 54.388L141.374 51.8956L143.057 53.4069C143.162 53.2554 143.268 53.0974 143.37 52.9426L141.747 51.4808L143.972 48.9884L145.154 50.0486C145.246 49.8806 145.339 49.716 145.428 49.5481L144.344 48.5735L146.573 46.0779L146.949 46.4203C147.028 46.2392 147.103 46.0581 147.176 45.877L146.945 45.663L147.525 45.0144C147.706 44.5469 147.874 44.076 148.035 43.6052L146.527 45.2943L144.292 43.2826L146.517 40.7902L148.401 42.4825C148.46 42.285 148.519 42.0874 148.578 41.8899L146.889 40.3753L149.118 37.8862L149.434 38.1727C149.474 37.9521 149.51 37.7348 149.543 37.5175L149.487 37.4714L149.563 37.3825C149.612 37.0565 149.658 36.7273 149.698 36.4013L149.076 37.096L146.59 34.8638L148.815 32.3714L149.918 33.3624C149.922 33.1122 149.928 32.8685 149.928 32.6216L149.187 31.9565L149.892 31.1663C149.879 30.9062 149.862 30.6428 149.843 30.386L148.769 31.5845L146.29 29.3489L148.516 26.8598L149.527 27.7685C149.477 27.4656 149.418 27.166 149.355 26.8664L148.885 26.4417L149.187 26.1058C149.138 25.8852 149.082 25.6679 149.026 25.4506Z" fill="#D3D2D2"/>
<path id="Vector_33" d="M97.0842 64.6607C87.5822 56.1234 86.9829 40.7279 94.763 27.726L94.8058 27.6502C94.9211 27.4626 95.0363 27.2782 95.1482 27.0938C95.1812 27.0477 95.2075 27.0016 95.2338 26.9588C95.3458 26.781 95.4577 26.6065 95.5697 26.4287C95.6059 26.3793 95.6421 26.3234 95.6783 26.2674C95.787 26.0995 95.9022 25.9283 96.0174 25.7637V25.7604C96.0504 25.7077 96.0899 25.655 96.1261 25.599C96.238 25.4377 96.35 25.2764 96.4652 25.115L96.5113 25.0459C96.6595 24.8385 96.8076 24.6343 96.9591 24.4269C96.9821 24.394 97.0052 24.3644 97.0282 24.3314C97.1896 24.1174 97.3542 23.8968 97.5188 23.6828L97.5649 23.6236C97.7427 23.3964 97.9238 23.1659 98.1049 22.9387L98.1246 22.9157C98.3156 22.6786 98.5131 22.4416 98.7107 22.2078C98.9708 21.8983 99.2342 21.5921 99.5074 21.2859C111.976 7.33578 131.108 4.13222 142.24 14.1347C151.588 22.537 152.318 37.5737 144.927 50.4406C144.838 50.5987 144.749 50.7501 144.657 50.9049C144.601 50.997 144.548 51.0925 144.492 51.1847C144.397 51.3395 144.305 51.4909 144.209 51.6457C144.153 51.7346 144.097 51.8234 144.041 51.9156C143.939 52.077 143.834 52.2383 143.732 52.3963C143.676 52.4786 143.626 52.5577 143.57 52.64C143.422 52.8672 143.267 53.0943 143.113 53.3215C143.053 53.4104 142.988 53.496 142.928 53.5849C142.823 53.7331 142.718 53.8845 142.609 54.0327C142.527 54.1479 142.441 54.2632 142.359 54.3751C142.296 54.4607 142.234 54.5463 142.171 54.6286C142.138 54.6681 142.109 54.7109 142.079 54.7537C141.993 54.8657 141.908 54.9776 141.822 55.0863C141.75 55.1818 141.681 55.2739 141.608 55.3628C141.529 55.4682 141.45 55.567 141.368 55.669C141.243 55.8238 141.118 55.9785 140.992 56.1333C140.61 56.5975 140.222 57.0584 139.817 57.5095C127.345 71.4597 108.213 74.6632 97.0842 64.6607ZM143.564 57.9408V57.9441C143.62 57.875 143.672 57.8091 143.725 57.74C143.814 57.6313 143.903 57.5227 143.989 57.4173C144.061 57.3218 144.133 57.233 144.206 57.1408C144.252 57.0782 144.298 57.0189 144.347 56.9597C144.453 56.8181 144.561 56.6798 144.667 56.5382L144.677 56.5218C144.703 56.4889 144.726 56.4592 144.752 56.4263L144.805 56.3539C145.012 56.074 145.213 55.7974 145.414 55.5143L145.45 55.4682H145.447C146.27 54.3158 147.031 53.1404 147.725 51.9486L147.722 51.9453C156.105 37.5408 155.334 20.634 144.851 11.2143C132.435 0.0528665 111.087 3.62518 97.1731 19.1886C96.3664 20.0973 95.6026 21.0225 94.8815 21.9642L94.8387 22.0201C94.6906 22.2144 94.5457 22.4053 94.4008 22.6029C94.3613 22.6556 94.3218 22.7115 94.279 22.7642C94.1605 22.9289 94.0387 23.0968 93.9201 23.2647L93.8773 23.3239V23.3207L93.8411 23.3733C93.8082 23.4194 93.7753 23.4655 93.7424 23.5116C93.66 23.6269 93.5843 23.7454 93.502 23.8573C93.446 23.9429 93.3868 24.0285 93.3275 24.1108C93.2946 24.1635 93.2617 24.2129 93.2254 24.2623C93.1563 24.3644 93.0937 24.4631 93.0279 24.5652C92.9587 24.6607 92.8962 24.7595 92.8336 24.8549C92.7974 24.9109 92.7612 24.9603 92.725 25.0163L92.7085 25.0459V25.0492C92.6624 25.115 92.6229 25.1809 92.5801 25.25C92.5044 25.3686 92.4287 25.4871 92.3529 25.6089C92.2772 25.7307 92.2015 25.8558 92.1225 25.981C92.0467 26.1061 91.9677 26.2312 91.8953 26.3563C91.8591 26.4156 91.8229 26.4715 91.7899 26.5308H91.7932C83.2098 41.0044 83.9078 58.0923 94.4733 67.5811C106.889 78.7426 128.234 75.1702 142.151 59.6068C142.635 59.057 143.106 58.5038 143.564 57.9408Z" fill="#42A3AB"/>
<path id="Vector_34" d="M141.562 55.7313C153.109 41.8667 153.764 23.1129 142.807 13.2717C138.339 9.25495 132.607 7.31569 126.539 7.31569C119.285 7.31569 111.558 10.0912 104.95 15.4053C100.627 18.8788 95.6061 25.4769 94.2661 27.1857C97.2063 22.6816 99.8765 19.5208 102.771 16.663C109.164 10.3579 118.528 6.40039 127.434 6.40039C133.417 6.40039 139.192 8.18819 143.716 12.2544C154.969 22.3688 154.755 41.0107 142.55 54.6645C142.224 55.03 141.895 55.3823 141.562 55.7313Z" fill="#7EC3CB"/>
<path id="Vector_35" d="M100.693 71.6832C98.5132 70.6889 96.4587 69.3719 94.5985 67.6993C94.4734 67.5874 94.3483 67.4722 94.2231 67.3569C94.3055 67.4327 94.3878 67.5084 94.4734 67.5808C96.2941 69.2205 98.3124 70.5407 100.469 71.5548C100.512 71.5746 100.591 71.6207 100.693 71.6832Z" fill="#918F8F"/>
<path id="Vector_36" d="M106.636 73.5504C104.588 73.1652 102.593 72.5462 100.693 71.6836C100.591 71.621 100.512 71.5749 100.469 71.5552C102.422 72.4738 104.493 73.1356 106.636 73.5504Z" fill="#25595F"/>
<path id="Vector_37" d="M91.7571 64.7164C91.0821 63.8867 90.4631 63.0241 89.9001 62.1286C89.9462 62.1648 89.9693 62.1878 89.9693 62.1878C89.9693 62.1878 89.9693 62.1878 89.9693 62.1845C90.5092 63.0636 91.1084 63.9098 91.7571 64.7164ZM85.7812 45.2053C85.9097 43.3089 86.2093 41.3993 86.6867 39.4995C86.5122 40.3325 86.3673 41.1655 86.2521 41.9952C86.2521 41.9985 86.2488 41.9985 86.2488 42.0018C86.2455 42.0347 86.2422 42.0676 86.2356 42.0973C86.2093 42.2948 86.1862 42.4924 86.1599 42.6866C86.0611 43.4406 85.9327 44.2835 85.7812 45.2053Z" fill="#918F8F"/>
<path id="Vector_38" d="M89.9695 62.1877C89.9695 62.1877 89.9465 62.1647 89.9004 62.1285C86.7725 57.1536 85.3831 51.2502 85.7815 45.2053C85.9329 44.2834 86.0614 43.4405 86.1601 42.6865C85.2975 49.7785 86.5453 56.6367 89.9695 62.1845C89.9695 62.1877 89.9695 62.1877 89.9695 62.1877ZM86.2359 42.0972C86.2424 42.0676 86.2457 42.0346 86.249 42.0017C86.249 41.9984 86.2523 41.9984 86.2523 41.9951C86.2457 42.0313 86.2424 42.0643 86.2359 42.0972Z" fill="#25595F"/>
<path id="Vector_39" d="M112.137 74.0571C110.284 74.0571 108.44 73.8925 106.636 73.55C104.492 73.1352 102.421 72.4734 100.469 71.5548C98.3123 70.5407 96.2941 69.2205 94.4733 67.5808C94.3877 67.5084 94.3054 67.4327 94.2231 67.3569C93.3341 66.5239 92.511 65.6416 91.7571 64.7164C91.1084 63.9097 90.5092 63.0636 89.9692 62.1845C86.5451 56.6367 85.2973 49.7785 86.1599 42.6866C86.1862 42.4923 86.2093 42.2948 86.2356 42.0972C86.2422 42.0643 86.2455 42.0314 86.2521 41.9951C86.3673 41.1654 86.5122 40.3325 86.6867 39.4995C87.0686 37.9948 87.5592 36.4934 88.1617 35.0151C87.0653 41.0436 84.0461 56.3832 95.5039 66.6853C100.219 70.9194 106.57 72.3812 112.707 72.4174C113.257 72.9739 113.849 73.4974 114.475 73.9715C113.695 74.0274 112.914 74.0571 112.137 74.0571Z" fill="#25595F"/>
<path id="Vector_40" d="M81.794 88.4949C81.445 88.89 80.7931 88.8801 80.342 88.4751L75.4066 84.0402C74.9555 83.6352 74.8765 82.9866 75.2288 82.5915C75.5811 82.1997 76.233 82.2096 76.6808 82.6112L81.6195 87.0462C82.0672 87.4545 82.1496 88.0998 81.794 88.4949Z" fill="#211D22"/>
<path id="Vector_41" d="M72.707 86.2262L78.4721 91.4053L80.9513 88.6297L75.1863 83.4507L72.707 86.2262Z" fill="#120F10"/>
<path id="Vector_42" d="M78.8706 91.7641C78.5183 92.1592 77.8697 92.1493 77.4187 91.7443L72.4833 87.3094C72.0322 86.9077 71.9532 86.2558 72.3055 85.864C72.6578 85.4689 73.3097 85.4788 73.7607 85.8837L78.6928 90.3187C79.1472 90.7236 79.2229 91.369 78.8706 91.7641Z" fill="#211D22"/>
<path id="Vector_43" d="M140.196 61.1247C140.196 70.011 133.008 77.2182 124.145 77.2182C115.278 77.2182 108.091 70.011 108.091 61.1247C108.091 52.235 115.278 45.0278 124.145 45.0278C133.008 45.0278 140.196 52.235 140.196 61.1247Z" fill="#C0E026"/>
<path id="Vector_44" d="M124.191 77.218H124.194C124.194 77.218 124.194 77.218 124.191 77.218ZM108.094 60.9796C108.094 60.9763 108.094 60.9763 108.094 60.973C108.094 60.973 108.094 60.9763 108.094 60.9796ZM108.361 58.1744C108.565 57.0681 108.881 56.0047 109.299 54.9873C108.881 56.0014 108.565 57.0714 108.361 58.1744Z" fill="#B3C6AB"/>
<path id="Vector_45" d="M108.252 58.8295C108.285 58.6122 108.322 58.3916 108.361 58.1743C108.322 58.3916 108.285 58.6089 108.252 58.8295Z" fill="#95A48E"/>
<path id="Vector_46" d="M124.145 77.2182C120.513 77.2182 117.165 76.0098 114.475 73.9718C113.849 73.4977 113.257 72.9742 112.707 72.4178C111.838 71.5288 111.07 70.5444 110.422 69.4776C110.32 69.313 110.224 69.1418 110.129 68.9739C109.53 67.9005 109.049 66.7547 108.707 65.5497C108.647 65.3357 108.588 65.1217 108.535 64.9044C108.246 63.6895 108.091 62.4252 108.091 61.1246C108.091 61.1213 108.091 61.1148 108.091 61.1115C108.091 61.1082 108.091 61.1082 108.091 61.1049C108.091 61.1016 108.091 61.0983 108.091 61.0983C108.091 61.095 108.091 61.0917 108.091 61.0917C108.091 61.0884 108.094 61.0851 108.094 61.0818C108.094 61.0818 108.094 61.0785 108.094 61.0753C108.094 61.0753 108.094 61.072 108.094 61.0687C108.094 61.0654 108.094 61.0654 108.094 61.0621C108.094 61.0621 108.094 61.0588 108.094 61.0555C108.094 61.0522 108.094 61.0522 108.094 61.0489C108.094 61.0456 108.094 61.0423 108.094 61.0423C108.094 61.039 108.094 61.039 108.094 61.0357C108.094 61.0325 108.094 61.0292 108.094 61.0292C108.094 61.0259 108.094 61.0226 108.094 61.0193C108.094 61.0193 108.094 61.016 108.094 61.0127C108.094 61.0094 108.094 61.0094 108.094 61.0061C108.094 61.0028 108.094 60.9995 108.094 60.9929C108.094 60.9929 108.094 60.9896 108.094 60.9864C108.094 60.9864 108.094 60.9831 108.094 60.9798C108.094 60.9765 108.094 60.9732 108.094 60.9732C108.094 60.9699 108.094 60.9699 108.094 60.9666C108.094 60.9633 108.094 60.96 108.094 60.96C108.094 60.9567 108.094 60.9534 108.094 60.9534C108.094 60.9501 108.094 60.9468 108.094 60.9468C108.094 60.9436 108.094 60.9403 108.094 60.9403C108.094 60.937 108.094 60.9337 108.094 60.9304V60.9271C108.094 60.9238 108.094 60.9205 108.094 60.9172V60.9139C108.094 60.9106 108.094 60.9073 108.094 60.904V60.9008C108.094 60.8843 108.094 60.8678 108.094 60.8547C108.094 60.8514 108.094 60.8514 108.094 60.8514C108.094 60.8481 108.094 60.8448 108.094 60.8415C108.094 60.8382 108.094 60.8382 108.094 60.8382C108.094 60.8349 108.094 60.8283 108.094 60.8283C108.094 60.825 108.094 60.825 108.094 60.825C108.094 60.8217 108.094 60.8152 108.094 60.8119C108.094 60.8086 108.094 60.802 108.094 60.7987C108.097 60.6538 108.104 60.5122 108.111 60.3674C108.124 60.0612 108.147 59.755 108.176 59.4554C108.199 59.2446 108.226 59.0372 108.252 58.8298C108.285 58.6092 108.321 58.3919 108.361 58.1746C108.565 57.0716 108.881 56.0016 109.299 54.9875C109.299 54.9875 109.302 54.9842 109.302 54.9809C109.302 54.9809 109.302 54.9809 109.302 54.9776C110.307 52.5445 111.887 50.4143 113.876 48.7549C113.26 50.1673 112.802 51.6457 112.473 53.1602C111.541 57.5194 111.732 62.4317 113.909 66.3992C117.053 72.1247 123.602 75.2954 130.028 75.2954C130.664 75.2954 131.299 75.2624 131.925 75.2032C129.647 76.4708 127.029 77.2017 124.244 77.2182C124.237 77.2182 124.234 77.2182 124.227 77.2182C124.221 77.2182 124.217 77.2182 124.211 77.2182C124.204 77.2182 124.201 77.2182 124.194 77.2182H124.191C124.188 77.2182 124.184 77.2182 124.178 77.2182C124.178 77.2182 124.178 77.2182 124.174 77.2182C124.171 77.2182 124.168 77.2182 124.165 77.2182C124.161 77.2182 124.161 77.2182 124.161 77.2182C124.155 77.2182 124.151 77.2182 124.145 77.2182Z" fill="#86B123"/>
<path id="Vector_47" d="M126.871 69.7442C120.365 69.7442 115.091 64.4532 115.091 57.9309C115.091 52.0868 119.318 47.237 124.869 46.2822C124.896 46.832 124.866 47.4148 124.751 48.0041C121.468 49.3442 119.127 52.528 119.009 56.2748C117.745 58.5169 117.392 60.8645 119.104 63.3305C120.253 64.9899 121.63 65.9085 123.309 66.139C123.599 66.1785 123.888 66.1949 124.181 66.1949C125.093 66.1949 126.015 66.0139 126.901 65.7274C127.332 65.79 127.777 65.8229 128.224 65.8229C131.919 65.8229 135.106 63.6433 136.577 60.5023C137.068 60.4101 137.542 60.3706 137.99 60.3706C138.131 60.3706 138.266 60.3739 138.405 60.3805C137.275 65.7307 132.544 69.7442 126.871 69.7442ZM135.267 63.8079C135.007 63.966 134.737 64.1536 134.47 64.3742C134.157 64.6343 133.759 64.9504 133.288 65.2961C134.082 64.7561 134.737 64.2458 135.204 63.8606L135.267 63.8079ZM124.754 65.6747C124.517 65.6747 124.28 65.6583 124.043 65.6254C122.364 65.3949 120.988 64.4763 119.839 62.8202C118.772 61.2826 118.683 59.745 119.15 58.2272C119.796 61.8061 122.496 64.6705 125.979 65.5463C125.574 65.6286 125.166 65.6747 124.754 65.6747ZM136.946 59.587C137.272 58.6421 137.45 57.628 137.45 56.5711C137.45 54.9775 137.048 53.4795 136.34 52.1724C135.675 50.4669 134.319 49.1071 132.62 48.4387C131.313 47.7276 129.815 47.3259 128.224 47.3259C127.303 47.3259 126.414 47.4609 125.574 47.7111C125.63 47.1942 125.623 46.6806 125.581 46.1834C126.005 46.1373 126.437 46.1143 126.871 46.1143C133.384 46.1143 138.658 51.4052 138.658 57.9309C138.658 58.4478 138.622 58.9581 138.559 59.4586C138.49 59.4586 138.421 59.4586 138.352 59.4586C137.911 59.4586 137.44 59.4948 136.946 59.587Z" fill="#CCE532"/>
<path id="Vector_48" d="M128.224 65.8227C127.777 65.8227 127.332 65.7898 126.901 65.7272C129.568 64.8646 131.932 63.0472 132.794 62.336C134.085 61.2626 135.382 60.7227 136.577 60.5021C135.106 63.6431 131.919 65.8227 128.224 65.8227ZM125.979 65.5461C122.495 64.6703 119.796 61.8059 119.15 58.227C119.954 55.6194 122.4 53.0809 124.339 50.7136C125.11 49.772 125.462 48.7316 125.574 47.7109C126.414 47.4607 127.302 47.3257 128.224 47.3257C129.815 47.3257 131.313 47.7274 132.62 48.4385C131.876 48.1455 131.066 47.9842 130.216 47.9842C126.591 47.9842 123.648 50.9342 123.648 54.5724C123.648 58.2138 126.591 61.1639 130.216 61.1639C133.848 61.1639 136.791 58.2138 136.791 54.5724C136.791 53.7262 136.63 52.9163 136.34 52.1722C137.048 53.4793 137.45 54.9774 137.45 56.5709C137.45 57.6278 137.272 58.6419 136.946 59.5868C135.833 59.7942 134.595 60.2716 133.265 61.1639C132.149 61.9146 129.186 64.8876 125.979 65.5461ZM119.009 56.2746C119.127 52.5278 121.468 49.344 124.751 48.0039C124.557 49.0246 124.106 50.0716 123.246 51.0165C123.042 51.2437 122.812 51.4873 122.571 51.7475C121.198 53.2093 119.885 54.7172 119.009 56.2746Z" fill="#D6E946"/>
<path id="Vector_49" d="M136.34 52.1721C135.487 50.595 134.19 49.2945 132.62 48.4385C134.319 49.1068 135.675 50.4666 136.34 52.1721Z" fill="#D6E946"/>
<path id="Vector_50" d="M130.216 61.1641C126.591 61.1641 123.648 58.214 123.648 54.5726C123.648 50.9344 126.591 47.9844 130.216 47.9844C131.066 47.9844 131.876 48.1457 132.62 48.4387C134.19 49.2948 135.488 50.5953 136.34 52.1724C136.63 52.9165 136.791 53.7264 136.791 54.5726C136.791 58.214 133.848 61.1641 130.216 61.1641Z" fill="#DEEC5D"/>
<path id="Vector_51" d="M133.288 65.2958C133.759 64.9501 134.157 64.634 134.47 64.3739C134.737 64.1533 135.007 63.9657 135.267 63.8076L135.204 63.8603C134.737 64.2455 134.082 64.7558 133.288 65.2958Z" fill="#8FB42A"/>
<path id="Vector_52" d="M140.182 60.6699C139.669 60.5284 139.066 60.4164 138.405 60.3802C138.467 60.0773 138.516 59.7711 138.559 59.4583C139.132 59.4748 139.656 59.5571 140.123 59.6756C140.156 60.0016 140.173 60.3374 140.182 60.6699ZM124.869 46.2819C124.853 45.8473 124.8 45.4292 124.731 45.0439C124.961 45.0505 125.189 45.067 125.416 45.0835C125.488 45.4325 125.544 45.8012 125.58 46.1831C125.34 46.2095 125.106 46.2424 124.869 46.2819Z" fill="#86B123"/>
<path id="Vector_53" d="M124.181 66.1947C123.888 66.1947 123.599 66.1782 123.309 66.1387C121.63 65.9082 120.253 64.9896 119.104 63.3302C117.392 60.8642 117.745 58.5166 119.009 56.2745C119.006 56.3733 119.002 56.472 119.002 56.5708C119.002 57.1371 119.055 57.6902 119.151 58.2269C118.683 59.7447 118.772 61.2823 119.839 62.8199C120.988 64.476 122.364 65.3946 124.043 65.6251C124.28 65.658 124.517 65.6744 124.754 65.6744C125.166 65.6744 125.574 65.6284 125.979 65.546C126.282 65.6218 126.588 65.681 126.901 65.7271C126.015 66.0136 125.093 66.1947 124.181 66.1947ZM136.577 60.502C136.716 60.2057 136.841 59.8995 136.946 59.5867C137.44 59.4945 137.911 59.4583 138.352 59.4583C138.421 59.4583 138.49 59.4583 138.56 59.4583C138.517 59.7711 138.467 60.0773 138.405 60.3802C138.267 60.3736 138.132 60.3703 137.99 60.3703C137.542 60.3703 137.068 60.4098 136.577 60.502ZM124.751 48.0038C124.866 47.4145 124.896 46.8317 124.87 46.2819C125.107 46.2424 125.34 46.2094 125.581 46.1831C125.623 46.6803 125.63 47.1939 125.574 47.7108C125.294 47.7964 125.021 47.8952 124.751 48.0038Z" fill="#8FB42A"/>
<path id="Vector_54" d="M126.901 65.7273C126.588 65.6812 126.282 65.6219 125.979 65.5462C129.186 64.8877 132.149 61.9146 133.265 61.1639C134.596 60.2717 135.833 59.7943 136.946 59.5868C136.841 59.8996 136.716 60.2058 136.578 60.5021C135.382 60.7227 134.085 61.2627 132.795 62.336C131.932 63.0472 129.568 64.8646 126.901 65.7273ZM119.151 58.227C119.055 57.6904 119.002 57.1372 119.002 56.5709C119.002 56.4722 119.006 56.3734 119.009 56.2746C119.885 54.7173 121.199 53.2093 122.571 51.7475C122.812 51.4874 123.042 51.2437 123.246 51.0166C124.106 50.0716 124.557 49.0246 124.751 48.004C125.021 47.8953 125.294 47.7965 125.574 47.7109C125.462 48.7316 125.11 49.772 124.34 50.7137C122.4 53.0809 119.954 55.6194 119.151 58.227Z" fill="#96B737"/>
<path id="Vector_55" d="M121.297 49.2323C121.099 49.4529 120.879 49.6867 120.645 49.9369C119.236 51.4415 117.306 53.5026 116.187 55.9752C114.775 59.1031 115.028 62.086 116.938 64.8418C118.511 67.1103 120.536 68.4273 122.953 68.7599C123.358 68.8158 123.766 68.8422 124.174 68.8422C127.753 68.8422 131.21 66.8107 133.288 65.2962C133.759 64.9505 134.157 64.6344 134.47 64.3743C134.737 64.1537 135.007 63.966 135.267 63.808C137.242 62.6293 139.102 63.0474 140.031 63.3964C140.136 62.6556 140.196 61.8951 140.196 61.1246C140.196 60.9732 140.186 60.8217 140.186 60.6703C138.414 60.1863 135.589 60.0184 132.794 62.3363C131.55 63.3602 127.197 66.6757 123.309 66.1391C121.629 65.9086 120.253 64.99 119.104 63.3306C116.207 59.1525 119.226 55.3168 122.571 51.7477C122.811 51.4876 123.042 51.244 123.246 51.0168C124.994 49.0973 125.044 46.763 124.731 45.0443C124.533 45.0377 124.339 45.0278 124.145 45.0278C123.437 45.0278 122.742 45.0805 122.057 45.1694C122.324 46.3284 122.423 47.9976 121.297 49.2323Z" fill="white"/>
</g>
</svg>
