<?xml version="1.0" encoding="utf-8"?>
<!-- Generator: Adobe Illustrator 27.5.0, SVG Export Plug-In . SVG Version: 6.00 Build 0)  -->
<svg version="1.1" xmlns="http://www.w3.org/2000/svg" xmlns:xlink="http://www.w3.org/1999/xlink" x="0px" y="0px"
	 viewBox="0 0 500 500" style="enable-background:new 0 0 500 500;" xml:space="preserve">
<g id="Background_Complete">
	<g>
		<g>
			<path style="fill:#E0E0E0;" d="M368.598,24.698L339.347,39.37c-2.187,0.932-3.606,3.079-3.606,5.456v13.683
				c0,12.224,3.412,24.338,10.431,35.033c5.269,8.028,12.257,18.289,23.884,24.156h5.248c12.943-3.947,22.604-14.469,28.51-23.469
				c7.019-10.695,10.43-22.808,10.43-35.033V44.827c0-2.377-1.419-4.525-3.606-5.456l-33.321-14.198
				C375.832,24.54,370.083,24.065,368.598,24.698z"/>
			<path style="fill:#F5F5F5;" d="M367.419,25.173L334.099,39.37c-2.187,0.932-3.606,3.079-3.606,5.456v13.683
				c0,12.224,3.412,24.338,10.43,35.033c5.906,8.999,15.052,18.266,29.132,24.156c12.943-3.947,22.604-14.469,28.51-23.469
				c7.019-10.695,10.43-22.808,10.43-35.033V44.827c0-2.377-1.419-4.525-3.606-5.456l-33.32-14.198
				C370.584,24.54,368.905,24.54,367.419,25.173z"/>
			<g>
				<path style="fill:#E0E0E0;" d="M408.889,55.49c0.018-0.001,0.039,0.216,0.064,0.63c0.021,0.47,0.048,1.07,0.081,1.812
					c0.031,0.788,0.077,1.752,0.023,2.871c-0.057,1.118-0.01,2.399-0.173,3.801c-0.135,1.404-0.228,2.949-0.517,4.584
					c-0.133,0.819-0.236,1.672-0.406,2.539c-0.186,0.865-0.376,1.755-0.572,2.667c-0.871,3.626-2.079,7.568-3.842,11.505
					c-1.77,3.934-3.86,7.485-5.977,10.559c-1.111,1.501-2.134,2.951-3.233,4.197c-0.539,0.63-1.03,1.265-1.557,1.827
					c-0.528,0.559-1.035,1.096-1.521,1.61c-0.945,1.049-1.915,1.882-2.724,2.656c-0.805,0.78-1.547,1.396-2.163,1.887
					c-0.579,0.466-1.047,0.843-1.413,1.138c-0.326,0.255-0.503,0.383-0.514,0.369c-0.011-0.014,0.144-0.169,0.448-0.45
					c0.349-0.313,0.795-0.714,1.347-1.21c0.594-0.514,1.314-1.15,2.096-1.946c0.787-0.79,1.735-1.638,2.657-2.697
					c0.475-0.518,0.971-1.06,1.487-1.623c0.516-0.565,0.996-1.203,1.525-1.835c1.078-1.25,2.081-2.7,3.173-4.197
					c2.08-3.066,4.14-6.595,5.895-10.496c1.749-3.905,2.96-7.81,3.851-11.403c0.201-0.904,0.398-1.785,0.589-2.643
					c0.177-0.86,0.288-1.706,0.429-2.518c0.306-1.622,0.42-3.156,0.577-4.55c0.187-1.392,0.164-2.666,0.249-3.778
					c0.082-1.114,0.066-2.074,0.066-2.86c0.007-0.742,0.013-1.342,0.017-1.811C408.857,55.709,408.871,55.491,408.889,55.49z"/>
			</g>
		</g>
		<g>
			<polygon style="fill:#FFFFFF;" points="367.263,85.234 348.149,70.037 353.452,63.368 366.269,73.558 384.986,52.612 
				391.339,58.29 			"/>
		</g>
	</g>
	<g>
		<g>
			<g>
				<g>
					<g>
						<path style="fill:#EBEBEB;" d="M457.536,99.558h-3.616V79.874c0-4.633-3.769-8.402-8.402-8.402
							c-4.633,0-8.402,3.769-8.402,8.402v19.684h-3.616V79.874c0-6.627,5.392-12.019,12.019-12.019
							c6.627,0,12.019,5.392,12.019,12.019V99.558z"/>
					</g>
				</g>
				<g>
					<g>
						<path style="fill:#EBEBEB;" d="M458.637,111.585h-26.24c-1.699,0-3.077-1.378-3.077-3.077V89.274
							c0-1.699,1.378-3.077,3.077-3.077h26.24c1.699,0,3.077,1.378,3.077,3.077v19.234
							C461.714,110.207,460.337,111.585,458.637,111.585z"/>
					</g>
				</g>
				<g>
					<path style="fill:#FAFAFA;" d="M448.004,99.552c0.634-0.638,1.026-1.515,1.026-2.487c0-1.968-1.595-3.563-3.563-3.563
						c-1.967,0-3.563,1.595-3.563,3.563c0,1.628,1.099,2.986,2.591,3.411l-0.766,3.385h3.391l-0.681-3.385
						C447.039,100.305,447.577,99.983,448.004,99.552"/>
				</g>
			</g>
		</g>
	</g>
	<g>
		<g>
			<g>
				<path style="fill:#E0E0E0;" d="M46.431,386.943c-3.865-2.427-8.292-3.951-12.832-4.417c-2.097-0.215-4.388-0.154-6.07,1.116
					c-0.357,0.27-0.705,0.668-0.625,1.108c0.059,0.324,0.332,0.559,0.594,0.758C32.719,389.492,40.616,389.995,46.431,386.943"/>
			</g>
			<g>
				<path style="fill:#E0E0E0;" d="M46.102,386.58c-2.905-2.267-5.827-4.55-8.288-7.292c-2.461-2.743-4.461-5.999-5.196-9.61
					c-0.223-1.095-0.292-2.346,0.411-3.216C39.635,371.622,44.825,378.296,46.102,386.58"/>
			</g>
			<g>
				<path style="fill:#E0E0E0;" d="M46.363,386.894c-0.497-3.614-0.676-7.329,0.154-10.882c0.83-3.552,2.762-6.953,5.796-8.979
					c1.142,2.668,0.651,5.742-0.153,8.531c-1.243,4.31-3.193,8.414-5.747,12.1"/>
			</g>
			<g>
				<path style="fill:#E0E0E0;" d="M52.839,398.498c-3.931,0.478-7.355,2.55-10.291,5.208c-2.936,2.658-5.022,6.24-5.886,10.105
					c3.856-0.238,7.128-2.958,9.5-6.007c2.373-3.049,4.017-6.395,6.623-9.247"/>
			</g>
			<g>
				<path style="fill:#E0E0E0;" d="M54.246,400.354c-3.167-7.8-2.019-17.199,2.931-24.008
					C59.416,384.313,58.594,393.312,54.246,400.354"/>
			</g>
			<g>
				<path style="fill:#E0E0E0;" d="M62.803,410.543c-3.568-0.221-7.195,0.628-10.293,2.412c-3.098,1.783-5.655,4.493-7.255,7.69
					c-0.218,0.435-0.409,0.987-0.118,1.376c0.253,0.338,0.742,0.37,1.164,0.342c3.458-0.224,6.524-2.305,9.053-4.674
					c2.529-2.369,4.733-5.107,7.528-7.156"/>
			</g>
			<g>
				<path style="fill:#E0E0E0;" d="M62.53,409.989c-1.84-5.889-1.955-12.306-0.326-18.257c0.643-2.35,1.723-4.824,3.896-5.926
					c0.185-0.094,0.401-0.178,0.596-0.105c0.185,0.07,0.292,0.259,0.377,0.436c0.773,1.615,0.998,3.449,0.919,5.238
					c-0.079,1.789-0.451,3.55-0.821,5.302c-0.684,3.241-1.049,6.723-2.826,9.518c-0.422,0.664-0.794,1.38-1.13,2.091
					c-0.337,0.71-0.339,0.96-0.647,1.525"/>
			</g>
			<g>
				<path style="fill:#E0E0E0;" d="M85.181,413.363c-1.678-6.383,0.103-14.122,4.126-19.355c0.296-0.385,0.689-0.798,1.173-0.754
					c0.741,0.068,0.933,1.056,0.9,1.799C91.088,401.577,88.912,408.005,85.181,413.363"/>
			</g>
			<g>
				<path style="fill:#E0E0E0;" d="M87.223,414.759c7.755,2.018,16.653,0.056,23.103-4.699c-3.823-1.937-8.329-2.49-12.507-1.535
					C93.641,409.481,89.823,411.353,87.223,414.759"/>
			</g>
			<g>
				<path style="fill:#E0E0E0;" d="M88.945,410.509c4.344-7.081,12.671-11.704,20.968-12.124c-0.956,3.375-3.729,5.997-6.858,7.582
					c-3.129,1.585-6.622,2.275-10.065,2.943C91.65,409.171,89.813,409.457,88.945,410.509"/>
			</g>
			<g>
				<path style="fill:#E0E0E0;" d="M85.612,389.885c1.176-4.03,2.359-8.095,2.682-12.28c0.323-4.185-0.274-8.554-2.446-12.147
					c-4.057,7.851-4.468,17.024-0.358,24.847"/>
			</g>
			<g>
				<path style="fill:#E0E0E0;" d="M99.272,382.981c4.745-8.623,14.425-15.511,24.22-16.477
					C119.713,375.912,109.408,383.183,99.272,382.981"/>
			</g>
			<g>
				<path style="fill:#E0E0E0;" d="M96.287,384.671c7.076,1.078,13.105,5.597,19.717,8.337c1.414,0.586,2.94,1.053,4.457,0.854
					c1.518-0.199,3.015-1.217,3.356-2.71c0.283-1.239-0.282-2.555-1.171-3.463c-0.889-0.908-2.064-1.475-3.238-1.964
					c-7.202-2.999-14.926-3.074-22.513-1.255"/>
			</g>
			<g>
				<path style="fill:#E0E0E0;" d="M92.192,389.634c1.602,0.459,2.149,1.288,3.418,2.368c4.304,3.666,9.466,6.317,14.952,7.681
					c0.571,0.142,1.321,0.198,1.604-0.318c0.247-0.451-0.066-0.997-0.387-1.398c-2.299-2.876-5.577-4.843-9.028-6.129
					c-3.451-1.285-6.44-2.834-10.559-2.502"/>
			</g>
			<g>
				<path style="fill:#E0E0E0;" d="M87.571,359.659c5.754,5.371,13.859,8.128,21.694,7.381c0.357-0.034,0.745-0.091,0.988-0.354
					c0.546-0.594-0.109-1.511-0.745-2.007C103.13,359.706,95.404,357.644,87.571,359.659"/>
			</g>
			<g>
				<path style="fill:#E0E0E0;" d="M93.05,357.654c7.606-5.702,18.036-7.423,27.07-4.467c-3.409,3.36-8.139,5.167-12.9,5.663
					C102.46,359.346,97.693,358.818,93.05,357.654"/>
			</g>
			<g>
				<path style="fill:#E0E0E0;" d="M90.872,343.88c-0.626-6.366-0.22-11.392-0.662-17.788c-0.035-0.511-0.145-1.126-0.623-1.31
					c-0.666-0.256-1.22,0.562-1.439,1.241c-1.896,5.896-0.859,12.658,2.715,17.717"/>
			</g>
			<g>
				<path style="fill:#E0E0E0;" d="M90.414,344.583c4.315-2.668,7.552-6.153,10.546-10.249c2.083-2.85,3.839-6.264,3.366-9.762
					c-2.925-0.059-5.705,1.555-7.607,3.777c-1.903,2.223-3.034,5.001-3.878,7.802C91.996,338.952,91.405,341.831,90.414,344.583"/>
			</g>
			<g>
				<path style="fill:#E0E0E0;" d="M100.775,341.705c9.47-3.502,18.305-8.712,25.953-15.303c-3.1-1.249-6.649-0.501-9.749,0.75
					c-7.081,2.858-12.867,7.683-16.339,14.484"/>
			</g>
			<g>
				<path style="fill:#E0E0E0;" d="M93.328,348.066c4.791,0.524,9.657,0.865,14.411,0.07c4.672-0.781,9.087-2.633,13.453-4.47
					c0.362-0.152,0.756-0.335,0.914-0.694c0.172-0.39-0.011-0.865-0.328-1.151c-0.316-0.286-0.737-0.423-1.147-0.538
					c-4.746-1.327-9.868-0.706-14.539,0.869C101.422,343.727,97.593,345.598,93.328,348.066"/>
			</g>
			<g>
				<path style="fill:#E0E0E0;" d="M65.972,359.876c-3.269-6.598-3.056-14.297-0.233-21.097c1.988,3.028,2.23,6.885,1.867,10.49
					c-0.363,3.604-1.461,7.314-1.532,10.936"/>
			</g>
			<g>
				<path style="fill:#E0E0E0;" d="M52.914,353.291c-8.161-0.156-16.324,3.322-21.866,9.315c4.073,0.64,8.268-0.411,11.973-2.22
					c3.705-1.809,6.997-4.347,10.26-6.867"/>
			</g>
			<g>
				<path style="fill:#E0E0E0;" d="M44.135,350.355c-3.992-0.324-7.834-0.818-11.672,0.358c-3.839,1.176-7.332,3.846-8.897,7.543
					c3.734,0.421,7.52-0.515,10.943-2.066C37.932,354.639,41.044,352.491,44.135,350.355"/>
			</g>
			<g>
				<path style="fill:#E0E0E0;" d="M57.133,350.489c-3.591-2.354-7.279-4.75-11.461-5.725c-4.182-0.975-9.028-0.254-11.944,2.897
					c3.385,1.987,7.492,2.221,11.417,2.218c3.925-0.003,8.737-0.048,12.437,1.262"/>
			</g>
			<g>
				<path style="fill:#E0E0E0;" d="M57.155,350.679c-6.14-6.029-8.468-16.86-5.997-25.103
					C55.983,332.909,58.145,341.956,57.155,350.679"/>
			</g>
			<g>
				<path style="fill:#E0E0E0;" d="M74.038,333.596c1.158-2.692,1.972-5.518,3.011-8.258c1.039-2.74,2.33-5.437,4.293-7.613
					c1.963-2.176,4.678-3.796,7.604-3.941c-1.832,8.296-7.343,15.709-14.759,19.854"/>
			</g>
			<g>
				<path style="fill:#E0E0E0;" d="M70.983,337.155c-1.916-2.638-4.13-6.218-6.729-8.187c-2.599-1.969-5.982-3.16-9.154-2.404
					C58.325,332.33,64.42,336.395,70.983,337.155"/>
			</g>
			<g>
				<path style="fill:#E0E0E0;" d="M71.594,333.815c-1.256-3.192-2.521-6.417-3.029-9.809c-0.508-3.392-0.199-7.015,1.536-9.974
					c3.371,6.371,4.456,13.21,1.665,19.856"/>
			</g>
			<g>
				<path style="fill:#E0E0E0;" d="M74.069,314.032c1.909-6.316,7.692-10.966,13.936-13.1c0.787-0.269,1.621-0.493,2.443-0.366
					c0.822,0.127,1.628,0.689,1.801,1.503c0.228,1.074-0.66,2.037-1.495,2.751C85.893,308.977,80.178,312.132,74.069,314.032"/>
			</g>
			<g>
				<path style="fill:#E0E0E0;" d="M74.138,308.866c0.243-4.072,0.497-8.203,1.821-12.062c1.325-3.858,3.877-7.478,7.591-9.167
					c0.632,4.113-1.183,8.205-3.371,11.744c-2.188,3.539-4.826,6.88-6.141,10.828"/>
			</g>
			<g>
				<path style="fill:#E0E0E0;" d="M74.038,311.67c-1.578-4.603-1.741-10.449-4.497-14.459c-1.927-2.803-5.012-4.713-6.672-7.681
					c-1.103,2.773-0.765,5.968,0.388,8.72c1.153,2.752,3.059,5.121,5.099,7.3C70.395,307.727,72.142,309.365,74.038,311.67"/>
			</g>
			<g>
				<g>
					<path style="fill:#E0E0E0;" d="M74.069,447.222c-0.123,0-0.229-30.706-0.237-68.575c-0.008-37.882,0.084-68.581,0.206-68.581
						c0.123,0,0.229,30.699,0.237,68.581C74.284,416.516,74.191,447.222,74.069,447.222z"/>
				</g>
			</g>
			<g>
				<g>
					<path style="fill:#E0E0E0;" d="M100.902,355.243c0.009,0.029-0.403,0.182-1.154,0.434c-0.829,0.28-1.897,0.64-3.177,1.072
						c-2.679,0.913-6.359,2.234-10.353,3.871c-3.955,1.696-7.685,3.074-9.809,4.914c-1.061,0.908-1.67,1.891-1.971,2.607
						c-0.305,0.721-0.359,1.162-0.4,1.154c-0.015-0.002-0.01-0.112,0.013-0.322c0.035-0.207,0.089-0.516,0.226-0.895
						c0.259-0.757,0.851-1.808,1.924-2.78c1.068-0.973,2.554-1.848,4.256-2.644c1.702-0.794,3.589-1.623,5.593-2.446
						c4.006-1.642,7.715-2.921,10.424-3.759c1.354-0.422,2.459-0.734,3.225-0.939C100.465,355.31,100.894,355.214,100.902,355.243z"
						/>
				</g>
			</g>
			<g>
				<g>
					<path style="fill:#E0E0E0;" d="M109.698,333.639c0.01,0.012-0.102,0.13-0.323,0.345c-0.262,0.246-0.587,0.552-0.985,0.926
						c-0.915,0.831-2.16,1.963-3.678,3.341c-3.176,2.828-7.483,6.663-12.243,10.901c-4.779,4.254-8.909,8.319-11.771,11.379
						c-1.433,1.528-2.562,2.794-3.332,3.678c-0.359,0.411-0.653,0.746-0.89,1.016c-0.206,0.23-0.32,0.347-0.332,0.337
						c-0.012-0.01,0.079-0.145,0.263-0.393c0.186-0.247,0.456-0.615,0.826-1.071c0.731-0.92,1.826-2.221,3.233-3.78
						c2.811-3.123,6.918-7.235,11.707-11.498c4.796-4.244,9.16-8.057,12.331-10.805c1.556-1.335,2.833-2.431,3.772-3.236
						c0.42-0.349,0.764-0.634,1.04-0.863C109.556,333.723,109.687,333.627,109.698,333.639z"/>
				</g>
			</g>
			<g>
				<g>
					<path style="fill:#E0E0E0;" d="M87.308,353.478c-0.125-0.056,0.873-2.361,1.868-5.276c1.004-2.915,1.477-5.375,1.604-5.354
						c0.116,0.012-0.167,2.544-1.183,5.496c-0.5,1.474-1.052,2.77-1.486,3.69C87.675,352.954,87.363,353.502,87.308,353.478z"/>
				</g>
			</g>
			<g>
				<g>
					<path style="fill:#E0E0E0;" d="M74.097,372.063c-0.025,0.018-0.286-0.287-0.737-0.855c-0.5-0.641-1.132-1.452-1.886-2.419
						c-1.585-2.049-3.776-4.876-6.231-7.97c-2.457-3.095-4.714-5.871-6.349-7.879c-0.771-0.954-1.417-1.754-1.928-2.386
						c-0.45-0.568-0.688-0.891-0.665-0.911c0.023-0.02,0.306,0.266,0.797,0.799c0.492,0.533,1.188,1.317,2.037,2.297
						c1.698,1.958,3.996,4.706,6.456,7.805c2.458,3.098,4.613,5.96,6.134,8.058c0.761,1.049,1.367,1.905,1.775,2.505
						C73.908,371.705,74.122,372.045,74.097,372.063z"/>
				</g>
			</g>
			<g>
				<g>
					<path style="fill:#E0E0E0;" d="M68.213,364.51c-0.072,0.078-1.642-1.785-2.465-4.614c-0.607-1.994-0.634-3.818-0.559-4.652
						l0.196,0.016c-0.088,0.356-0.152,0.543-0.187,0.537c-0.035-0.006-0.037-0.204-0.008-0.569l0.196,0.016
						c0.072,0.827,0.197,2.588,0.787,4.526C66.968,362.511,68.332,364.435,68.213,364.51z"/>
				</g>
			</g>
			<g>
				<g>
					<path style="fill:#E0E0E0;" d="M60.618,354.955c-0.057,0.062-0.562-0.575-1.721-1c-1.15-0.445-2.88-0.543-4.778-0.38
						c-1.9,0.14-3.597,0.478-4.811,0.777c-1.215,0.301-1.957,0.537-1.98,0.475c-0.02-0.052,0.687-0.394,1.896-0.777
						c1.207-0.38,2.928-0.775,4.862-0.917c1.92-0.166,3.741-0.018,4.929,0.531C60.219,354.198,60.657,354.944,60.618,354.955z"/>
				</g>
			</g>
			<g>
				<g>
					<path style="fill:#E0E0E0;" d="M58.817,352.639c-0.034,0.069-1.002-0.402-2.636-0.96c-1.631-0.561-3.955-1.15-6.578-1.354
						c-2.625-0.196-5.011,0.034-6.708,0.341c-1.7,0.304-2.728,0.623-2.751,0.549c-0.009-0.029,0.239-0.133,0.699-0.298
						c0.458-0.171,1.139-0.366,1.991-0.559c1.703-0.391,4.131-0.676,6.804-0.476c2.671,0.208,5.028,0.858,6.652,1.502
						c0.813,0.32,1.457,0.616,1.883,0.854C58.601,352.471,58.831,352.612,58.817,352.639z"/>
				</g>
			</g>
			<g>
				<g>
					<path style="fill:#E0E0E0;" d="M74.038,342.847c-0.119,0.03-0.98-2.96-1.923-6.679c-0.943-3.72-1.612-6.758-1.493-6.788
						c0.119-0.03,0.979,2.96,1.923,6.679C73.488,339.778,74.157,342.817,74.038,342.847z"/>
				</g>
			</g>
			<g>
				<g>
					<path style="fill:#E0E0E0;" d="M74.16,342.847c-0.132,0.043-0.686-1.955-2.131-3.999c-1.407-2.087-3.202-3.134-3.137-3.237
						c0.023-0.047,0.519,0.135,1.211,0.624c0.693,0.482,1.55,1.3,2.289,2.358C73.893,340.72,74.268,342.84,74.16,342.847z"/>
				</g>
			</g>
			<g>
				<g>
					<path style="fill:#E0E0E0;" d="M74.069,430.853c-0.048,0.007-0.138-0.738-0.484-2.042c-0.342-1.304-0.986-3.153-2.052-5.316
						c-2.121-4.335-5.982-9.832-10.887-15.338c-2.431-2.777-4.789-5.397-6.79-7.905c-2.005-2.505-3.652-4.892-4.855-7.003
						c-1.207-2.11-1.993-3.92-2.451-5.197c-0.225-0.641-0.391-1.14-0.481-1.486c-0.097-0.344-0.141-0.526-0.126-0.53
						c0.04-0.013,0.263,0.703,0.769,1.954c0.505,1.251,1.329,3.027,2.561,5.101c1.229,2.075,2.89,4.426,4.903,6.905
						c2.009,2.482,4.371,5.088,6.806,7.869c4.918,5.52,8.769,11.087,10.835,15.493c1.039,2.199,1.644,4.084,1.937,5.411
						c0.142,0.665,0.238,1.183,0.272,1.54C74.068,430.664,74.084,430.851,74.069,430.853z"/>
				</g>
			</g>
			<g>
				<g>
					<path style="fill:#E0E0E0;" d="M98.316,403.465c0.014,0.033-0.45,0.268-1.271,0.713c-0.815,0.458-1.972,1.163-3.296,2.179
						c-1.325,1.014-2.807,2.347-4.329,3.948c-1.519,1.605-3.084,3.469-4.682,5.466c-3.194,4.007-6.181,7.553-7.969,10.383
						c-0.908,1.404-1.568,2.588-2.001,3.418c-0.436,0.829-0.667,1.294-0.7,1.28c-0.014-0.006,0.027-0.13,0.118-0.361
						c0.095-0.228,0.223-0.572,0.427-0.995c0.387-0.858,1.01-2.073,1.891-3.509c1.737-2.899,4.7-6.493,7.888-10.494
						c1.601-2.001,3.185-3.869,4.733-5.471c1.551-1.6,3.072-2.923,4.436-3.917c1.364-0.995,2.558-1.667,3.404-2.081
						c0.421-0.211,0.765-0.341,0.992-0.439C98.187,403.493,98.31,403.451,98.316,403.465z"/>
				</g>
			</g>
			<g>
				<g>
					<path style="fill:#E0E0E0;" d="M98.791,412.35c0.005,0.065-1.026,0.189-2.686,0.39c-1.654,0.214-3.958,0.49-6.37,1.255
						c-2.404,0.783-4.402,1.976-5.704,2.993c-1.315,1.016-1.935,1.857-1.996,1.807c-0.021-0.016,0.107-0.245,0.398-0.618
						c0.287-0.376,0.758-0.879,1.399-1.432c1.281-1.104,3.298-2.369,5.766-3.172c2.472-0.782,4.806-1.009,6.475-1.145
						C97.749,412.307,98.786,412.293,98.791,412.35z"/>
				</g>
			</g>
			<g>
				<g>
					<path style="fill:#E0E0E0;" d="M82.819,417.82c-0.14-0.079,1.07-1.928,2.009-4.415c0.881-2.51,1.087-4.71,1.245-4.685
						c0.057,0.007,0.055,0.557-0.045,1.441c-0.105,0.881-0.317,2.105-0.784,3.395c-0.469,1.288-1.085,2.364-1.558,3.114
						C83.209,417.418,82.869,417.85,82.819,417.82z"/>
				</g>
			</g>
			<g>
				<g>
					<path style="fill:#E0E0E0;" d="M106.169,379.612c0.006,0.014-0.143,0.093-0.43,0.229c-0.333,0.151-0.751,0.341-1.262,0.574
						c-0.553,0.237-1.224,0.538-1.98,0.936c-0.759,0.391-1.644,0.795-2.566,1.349c-0.468,0.266-0.957,0.544-1.465,0.833
						c-0.508,0.292-1.011,0.639-1.546,0.974c-1.08,0.655-2.162,1.462-3.317,2.286c-2.26,1.715-4.637,3.746-6.925,6.09
						c-2.266,2.368-4.215,4.813-5.852,7.131c-0.784,1.183-1.554,2.292-2.172,3.394c-0.316,0.546-0.646,1.06-0.921,1.578
						c-0.271,0.518-0.533,1.016-0.783,1.493c-0.522,0.94-0.895,1.839-1.26,2.611c-0.373,0.769-0.65,1.45-0.868,2.011
						c-0.215,0.519-0.39,0.943-0.53,1.281c-0.126,0.292-0.199,0.442-0.214,0.437c-0.014-0.005,0.03-0.166,0.129-0.467
						c0.12-0.347,0.27-0.781,0.453-1.313c0.194-0.572,0.449-1.265,0.802-2.048c0.345-0.785,0.7-1.698,1.207-2.653
						c0.243-0.484,0.498-0.99,0.762-1.515c0.268-0.525,0.593-1.047,0.904-1.601c0.609-1.118,1.372-2.242,2.153-3.44
						c1.631-2.348,3.585-4.821,5.869-7.207c2.306-2.363,4.71-4.401,7-6.111c1.17-0.821,2.268-1.622,3.364-2.268
						c0.543-0.33,1.053-0.672,1.569-0.958c0.516-0.282,1.013-0.553,1.489-0.813c0.937-0.539,1.837-0.925,2.61-1.297
						c0.77-0.379,1.454-0.658,2.019-0.871c0.526-0.202,0.955-0.367,1.297-0.498C106.005,379.649,106.164,379.598,106.169,379.612z"
						/>
				</g>
			</g>
			<g>
				<g>
					<path style="fill:#E0E0E0;" d="M86.979,392.47c-0.039-0.006,0.174-0.752,1.055-1.571c0.859-0.818,2.427-1.576,4.252-1.631
						c1.819-0.048,3.397,0.461,4.474,0.874c1.083,0.425,1.713,0.77,1.691,0.822c-0.025,0.062-0.7-0.181-1.795-0.526
						c-1.091-0.334-2.633-0.774-4.357-0.727c-1.718,0.053-3.201,0.715-4.061,1.425C87.36,391.845,87.05,392.513,86.979,392.47z"/>
				</g>
			</g>
			<g>
				<g>
					<path style="fill:#E0E0E0;" d="M84.111,395.429c-0.122-0.068,0.961-1.654,1.207-3.928c0.284-2.27-0.405-4.063-0.271-4.1
						c0.049-0.02,0.29,0.397,0.499,1.144c0.21,0.743,0.348,1.826,0.213,3.008c-0.14,1.181-0.524,2.203-0.899,2.878
						C84.484,395.11,84.153,395.46,84.111,395.429z"/>
				</g>
			</g>
		</g>
		<g>
			<path style="fill:#E0E0E0;" d="M52.862,435.253c0.662,11.735,4.198,23.669,9.637,35.734H86.15
				c5.187-11.946,8.479-23.862,9.064-35.734H52.862z"/>
		</g>
		<g>
			<g>
				<path style="fill:#FAFAFA;" d="M91.381,454.241c0,0.123-7.787,0.222-17.392,0.222c-9.607,0-17.393-0.099-17.393-0.222
					c0-0.122,7.786-0.222,17.393-0.222C83.594,454.019,91.381,454.119,91.381,454.241z"/>
			</g>
		</g>
		<g>
			<g>
				<path style="fill:#FAFAFA;" d="M90.853,458.492c0,0.123-7.301,0.222-16.304,0.222c-9.007,0-16.306-0.099-16.306-0.222
					c0-0.122,7.299-0.222,16.306-0.222C83.552,458.27,90.853,458.37,90.853,458.492z"/>
			</g>
		</g>
		<g>
			<g>
				<path style="fill:#FAFAFA;" d="M62.88,442.957c0.123,0,0.222,2.439,0.222,5.448c0,3.009-0.099,5.448-0.222,5.448
					c-0.123,0-0.222-2.439-0.222-5.448C62.658,445.397,62.757,442.957,62.88,442.957z"/>
			</g>
		</g>
		<g>
			<g>
				<path style="fill:#FAFAFA;" d="M75.553,442.957c0.123,0,0.222,2.526,0.222,5.642c0,3.117-0.099,5.642-0.222,5.642
					s-0.222-2.526-0.222-5.642C75.331,445.483,75.43,442.957,75.553,442.957z"/>
			</g>
		</g>
		<g>
			<g>
				<path style="fill:#FAFAFA;" d="M87.449,442.862c0.123,0,0.222,2.577,0.222,5.754c0,3.179-0.099,5.755-0.222,5.755
					c-0.122,0-0.222-2.576-0.222-5.755C87.227,445.438,87.327,442.862,87.449,442.862z"/>
			</g>
		</g>
		<g>
			<g>
				<path style="fill:#FAFAFA;" d="M94.463,442.957c0,0.123-9.134,0.222-20.398,0.222c-11.268,0-20.4-0.099-20.4-0.222
					c0-0.122,9.132-0.222,20.4-0.222C85.33,442.735,94.463,442.835,94.463,442.957z"/>
			</g>
		</g>
	</g>
	<g>
		<g>
			<g>
				<g>
					<path style="fill:#EBEBEB;" d="M461.392,333.529c4.196-1.76,7.18-6.087,7.205-11.186c0.027-6.679-5.027-12.118-11.291-12.147
						c-6.261-0.029-11.361,5.362-11.389,12.042c-0.021,5.146,2.984,9.525,7.226,11.291c-17.451,2.629-16.66,21.596-16.66,21.596
						l41.267,0.19C477.751,355.315,478.692,336.141,461.392,333.529z"/>
				</g>
			</g>
		</g>
	</g>
	<g>
		<g>
			<g>
				<g>
					<path style="fill:#EBEBEB;" d="M275.874,57.806c2.938-0.503,5.482-2.823,6.252-6.073c1.005-4.258-1.416-8.477-5.409-9.421
						c-3.991-0.944-8.043,1.742-9.049,6c-0.774,3.281,0.496,6.52,2.941,8.274c-11.525-0.903-13.825,11.317-13.825,11.317
						l26.306,6.224C283.091,74.128,286.527,62.031,275.874,57.806z"/>
				</g>
			</g>
		</g>
	</g>
	<g>
		<g>
			<g>
				<g>
					<path style="fill:#F5F5F5;" d="M462.517,159.612c2.451-1.472,3.917-4.43,3.474-7.602c-0.583-4.155-4.215-7.082-8.112-6.537
						c-3.895,0.545-6.582,4.355-5.998,8.51c0.449,3.201,2.711,5.654,5.507,6.371c-10.613,3.203-8.417,14.924-8.417,14.924
						l25.674-3.591C474.645,171.687,473.507,159.682,462.517,159.612z"/>
				</g>
			</g>
		</g>
	</g>
	<g>
		<polygon style="fill:#F5F5F5;" points="50.477,163.238 36.607,152.211 40.455,147.371 49.756,154.765 63.337,139.566 
			67.947,143.686 		"/>
	</g>
</g>
<g id="Background_Simple" style="display:none;">
	<path style="display:inline;fill:#F5F5F5;" d="M363.956,20.754l-1.357,0.951c-11.436,8.017-17.754,21.562-15.972,35.285
		c0.229,1.764,0.585,3.512,1.073,5.228c3.51,12.353,13.705,22.629,26.139,26.346c7.312,2.186,15.578,2.386,21.576,7.055
		c7.806,6.077,8.774,17.205,9.116,27.023c0.342,9.818,1.339,20.952,9.172,26.995c4.906,3.785,11.583,4.649,17.769,3.909
		c16.378-1.959,30.317-14.383,36.659-29.43c6.342-15.047,5.864-32.239,1.597-47.966c-5.977-22.033-19.741-42.452-39.678-53.955
		C410.115,10.692,383.889,9.18,363.956,20.754z"/>
	<circle style="display:inline;fill:#F5F5F5;" cx="292.752" cy="44.659" r="22.776"/>
	
		<ellipse transform="matrix(0.7071 -0.7071 0.7071 0.7071 -220.7494 138.3658)" style="display:inline;fill:#F5F5F5;" cx="56.648" cy="335.651" rx="35.537" ry="35.537"/>
</g>
<g id="Floor">
	<g>
		<path style="fill:#263238;" d="M470.658,471.344c0,0.144-100.143,0.26-223.647,0.26c-123.547,0-223.669-0.117-223.669-0.26
			c0-0.144,100.122-0.26,223.669-0.26C370.515,471.084,470.658,471.201,470.658,471.344z"/>
	</g>
</g>
<g id="User_Icon">
	<g>
		<path style="fill:#FF725E;" d="M69.403,179.214L38.728,194.6c-2.293,0.977-3.782,3.229-3.782,5.722v14.349
			c0,12.819,3.578,25.523,10.938,36.738c5.525,8.419,12.853,19.18,25.046,25.331h5.504c13.573-4.139,23.704-15.174,29.898-24.611
			c7.361-11.215,10.938-23.918,10.938-36.738v-15.069c0-2.493-1.488-4.745-3.782-5.722l-34.942-14.889
			C76.989,179.048,70.96,178.55,69.403,179.214z"/>
		<path style="opacity:0.3;" d="M69.403,179.214L38.728,194.6c-2.293,0.977-3.782,3.229-3.782,5.722v14.349
			c0,12.819,3.578,25.523,10.938,36.738c5.525,8.419,12.853,19.18,25.046,25.331h5.504c13.573-4.139,23.704-15.174,29.898-24.611
			c7.361-11.215,10.938-23.918,10.938-36.738v-15.069c0-2.493-1.488-4.745-3.782-5.722l-34.942-14.889
			C76.989,179.048,70.96,178.55,69.403,179.214z"/>
		<path style="fill:#FF725E;" d="M68.167,179.712L33.224,194.6c-2.293,0.977-3.782,3.229-3.782,5.722v14.349
			c0,12.819,3.578,25.523,10.938,36.738c6.194,9.438,15.785,19.155,30.55,25.331c13.573-4.139,23.704-15.174,29.898-24.611
			c7.361-11.215,10.938-23.918,10.938-36.738v-15.069c0-2.493-1.488-4.745-3.782-5.722l-34.942-14.889
			C71.485,179.048,69.724,179.048,68.167,179.712z"/>
		<g>
			
				<ellipse transform="matrix(0.9323 -0.3616 0.3616 0.9323 -76.0135 40.6455)" style="opacity:0.3;" cx="70.605" cy="223.443" rx="22.906" ry="22.906"/>
			<circle style="fill:#FFFFFF;" cx="70.605" cy="215.198" r="9.509"/>
			<path style="fill:#FFFFFF;" d="M53.238,238.373c0,0,4.427-10.562,17.017-10.562s17.718,10.562,17.718,10.562
				s-5.616,8.297-18.04,7.976C58.684,246.058,53.238,238.373,53.238,238.373z"/>
		</g>
		<g>
			<path style="fill:#263238;" d="M93.51,223.443c-0.009,0-0.024-0.126-0.045-0.371c-0.02-0.271-0.047-0.63-0.081-1.086
				c-0.016-0.241-0.034-0.508-0.053-0.799c-0.033-0.293-0.097-0.61-0.15-0.955c-0.112-0.689-0.219-1.489-0.486-2.357
				c-0.409-1.764-1.241-3.848-2.548-6.055c-1.318-2.197-3.215-4.492-5.796-6.438c-2.572-1.928-5.816-3.567-9.559-4.227
				c-3.718-0.637-7.913-0.519-11.908,1c-1.017,0.326-1.972,0.829-2.955,1.301c-0.931,0.563-1.911,1.082-2.777,1.787
				c-0.921,0.632-1.726,1.424-2.569,2.185c-0.762,0.844-1.562,1.669-2.219,2.626c-1.348,1.872-2.525,3.952-3.236,6.24
				c-0.738,2.273-1.136,4.688-1.168,7.145c0.033,2.458,0.429,4.873,1.167,7.148c0.712,2.288,1.889,4.369,3.236,6.242
				c0.657,0.958,1.457,1.784,2.219,2.627c0.843,0.762,1.648,1.553,2.569,2.186c0.866,0.705,1.847,1.224,2.778,1.787
				c0.983,0.472,1.938,0.975,2.955,1.301c3.996,1.52,8.192,1.637,11.91,1c3.743-0.661,6.987-2.3,9.56-4.228
				c2.58-1.946,4.478-4.241,5.795-6.438c1.307-2.207,2.139-4.29,2.548-6.054c0.267-0.869,0.373-1.668,0.485-2.357
				c0.053-0.345,0.118-0.662,0.15-0.955c0.019-0.292,0.037-0.558,0.053-0.799c0.034-0.456,0.061-0.815,0.081-1.086
				C93.486,223.569,93.501,223.443,93.51,223.443c0.009,0,0.012,0.126,0.008,0.371c-0.007,0.272-0.017,0.633-0.029,1.092
				c-0.008,0.243-0.018,0.511-0.028,0.805c-0.025,0.295-0.081,0.615-0.126,0.964c-0.097,0.696-0.189,1.505-0.442,2.385
				c-0.382,1.787-1.194,3.904-2.494,6.154c-1.311,2.24-3.214,4.585-5.822,6.582c-2.599,1.978-5.892,3.667-9.703,4.359
				c-3.785,0.669-8.066,0.565-12.153-0.973c-1.039-0.331-2.018-0.84-3.022-1.321c-0.953-0.572-1.956-1.101-2.843-1.819
				c-0.942-0.645-1.768-1.451-2.63-2.229c-0.781-0.86-1.6-1.704-2.273-2.682c-1.381-1.913-2.586-4.041-3.317-6.381
				c-0.757-2.326-1.163-4.798-1.196-7.311c0.033-2.513,0.44-4.983,1.197-7.309c0.731-2.339,1.936-4.467,3.317-6.379
				c0.673-0.977,1.492-1.821,2.273-2.681c0.863-0.778,1.688-1.584,2.63-2.229c0.887-0.717,1.89-1.247,2.842-1.818
				c1.005-0.48,1.983-0.99,3.022-1.321c4.086-1.538,8.366-1.642,12.151-0.973c3.811,0.692,7.104,2.381,9.703,4.358
				c2.608,1.997,4.512,4.342,5.823,6.582c1.3,2.249,2.112,4.367,2.495,6.154c0.254,0.88,0.345,1.689,0.442,2.385
				c0.045,0.348,0.102,0.668,0.126,0.964c0.01,0.294,0.02,0.562,0.028,0.805c0.012,0.459,0.022,0.82,0.029,1.092
				C93.522,223.318,93.519,223.443,93.51,223.443z"/>
		</g>
		<g>
			<path style="fill:#263238;" d="M111.654,211.505c0.018-0.001,0.039,0.227,0.064,0.66c0.021,0.488,0.048,1.119,0.082,1.9
				c0.032,0.826,0.079,1.837,0.022,3.01c-0.017,0.59-0.036,1.217-0.055,1.88c-0.007,0.667-0.049,1.369-0.129,2.105
				c-0.142,1.472-0.24,3.092-0.544,4.806c-0.139,0.859-0.248,1.753-0.426,2.662c-0.195,0.907-0.395,1.84-0.601,2.796
				c-0.914,3.802-2.18,7.935-4.029,12.062c-1.856,4.125-4.047,7.848-6.266,11.071c-1.164,1.574-2.237,3.094-3.389,4.402
				c-0.565,0.661-1.08,1.327-1.632,1.916c-0.553,0.586-1.085,1.149-1.594,1.688c-0.99,1.1-2.007,1.975-2.855,2.786
				c-0.843,0.818-1.621,1.464-2.267,1.981c-0.609,0.491-1.1,0.888-1.48,1.195c-0.342,0.268-0.527,0.403-0.538,0.388
				c-0.011-0.014,0.152-0.175,0.471-0.47c0.363-0.326,0.832-0.746,1.414-1.267c0.624-0.538,1.379-1.204,2.2-2.039
				c0.826-0.828,1.82-1.716,2.788-2.827c0.498-0.543,1.019-1.111,1.561-1.702c0.542-0.592,1.045-1.261,1.6-1.924
				c1.131-1.31,2.183-2.831,3.329-4.401c2.182-3.216,4.343-6.916,6.184-11.009c1.835-4.096,3.104-8.191,4.038-11.961
				c0.211-0.948,0.417-1.873,0.618-2.772c0.185-0.902,0.301-1.789,0.449-2.641c0.32-1.701,0.439-3.31,0.604-4.772
				c0.092-0.731,0.145-1.429,0.165-2.092c0.034-0.66,0.065-1.284,0.095-1.871c0.085-1.168,0.067-2.176,0.067-2.999
				c0.007-0.781,0.012-1.411,0.016-1.899C111.623,211.734,111.636,211.506,111.654,211.505z"/>
		</g>
	</g>
</g>
<g id="Device">
	<g>
		<g>
			<g>
				<g>
					<g>
						<g>
							<g>
								<g>
									<g>
										<g>
											<g>
												<g>
													<g>
														<g>
															<g>
																<g>
																	<g>
																		<g>
																			<g>
																				<g>
																					<g>
																						<path style="fill:#263238;" d="M354.805,471.344l-236.454,0c-6.399,0-11.587-5.366-11.587-11.986l0-361.435
																							c0-6.619,5.188-11.986,11.587-11.986l236.455,0c6.4,0,11.587,5.366,11.587,11.986l0,361.434
																							C366.393,465.978,361.205,471.344,354.805,471.344z"/>
																					</g>
																				</g>
																			</g>
																		</g>
																	</g>
																</g>
															</g>
														</g>
													</g>
												</g>
											</g>
										</g>
										<g>
											<g>
												<g>
													<g>
														<g>
															<g>
																<g>
																	<g>
																		<g>
																			<g>
																				<g>
																					<path style="fill:#455A64;" d="M241.107,453.811c0,5.971-4.93,10.811-11.011,10.811
																						c-6.082,0-11.011-4.841-11.011-10.811c0-5.971,4.929-10.812,11.011-10.812
																						C236.177,443,241.107,447.84,241.107,453.811z"/>
																				</g>
																			</g>
																		</g>
																	</g>
																</g>
															</g>
														</g>
													</g>
												</g>
											</g>
										</g>
									</g>
								</g>
							</g>
						</g>
					</g>
					<g>
						<g>
							<g>
								<path style="fill:#455A64;" d="M263.18,106.305h-53.024c-2.042,0-3.698-1.712-3.698-3.825l0,0
									c0-2.112,1.656-3.825,3.698-3.825h53.024c2.042,0,3.698,1.713,3.698,3.825l0,0
									C266.878,104.592,265.222,106.305,263.18,106.305z"/>
							</g>
						</g>
					</g>
				</g>
			</g>
			<g>
				<g>
					<g>
						<g>
							<g>
								<g>
									<g>
										<g>
											<g>
												<g>
													<g>
														<g>
															<rect x="114.726" y="113.434" style="fill:#FFFFFF;" width="243.256" height="321.861"/>
														</g>
													</g>
												</g>
											</g>
										</g>
									</g>
								</g>
							</g>
						</g>
					</g>
				</g>
			</g>
			<rect x="347.605" y="113.434" style="fill:#F5F5F5;" width="10.377" height="321.861"/>
			<path style="fill:#E0E0E0;" d="M352.793,229.069L352.793,229.069c-1.787,0-3.235-1.448-3.235-3.235v-71.197
				c0-1.786,1.448-3.235,3.235-3.235l0,0c1.786,0,3.235,1.448,3.235,3.235v71.197C356.028,227.621,354.58,229.069,352.793,229.069z"
				/>
		</g>
		<path style="fill:#E0E0E0;" d="M326.26,186.682H146.897c-2.849,0-5.159-2.31-5.159-5.159l0,0c0-2.849,2.31-5.159,5.159-5.159
			H326.26c2.849,0,5.159,2.31,5.159,5.159l0,0C331.419,184.372,329.109,186.682,326.26,186.682z"/>
		<path style="fill:#FF725E;" d="M298.674,149.035h-112.83c-2.849,0-5.159-2.31-5.159-5.159l0,0c0-2.849,2.31-5.159,5.159-5.159
			h112.83c2.849,0,5.159,2.31,5.159,5.159l0,0C303.833,146.726,301.523,149.035,298.674,149.035z"/>
		<path style="fill:#E0E0E0;" d="M300.792,207.448H172.366c-2.849,0-5.159-2.31-5.159-5.159l0,0c0-2.849,2.31-5.159,5.159-5.159
			h128.426c2.849,0,5.159,2.31,5.159,5.159l0,0C305.95,205.139,303.641,207.448,300.792,207.448z"/>
		<path style="fill:#E0E0E0;" d="M242.81,297.979h-98.809c-2.849,0-5.159-2.31-5.159-5.159l0,0c0-2.849,2.31-5.159,5.159-5.159
			h98.809c2.849,0,5.159,2.31,5.159,5.159l0,0C247.969,295.669,245.659,297.979,242.81,297.979z"/>
		<path style="fill:#E0E0E0;" d="M323.364,276.373H144.001c-2.849,0-5.159-2.31-5.159-5.159l0,0c0-2.849,2.31-5.159,5.159-5.159
			h179.363c2.849,0,5.159,2.31,5.159,5.159l0,0C328.523,274.063,326.214,276.373,323.364,276.373z"/>
		<path style="fill:#E0E0E0;" d="M323.364,345.969H166.368c-2.849,0-5.159-2.31-5.159-5.159v0c0-2.849,2.31-5.159,5.159-5.159
			h156.996c2.849,0,5.159,2.31,5.159,5.159v0C328.523,343.659,326.214,345.969,323.364,345.969z"/>
		<path style="fill:#E0E0E0;" d="M323.364,368.02H144.001c-2.849,0-5.159-2.31-5.159-5.159l0,0c0-2.849,2.31-5.159,5.159-5.159
			h179.363c2.849,0,5.159,2.31,5.159,5.159l0,0C328.523,365.711,326.214,368.02,323.364,368.02z"/>
		<path style="fill:#E0E0E0;" d="M323.364,390.415H144.001c-2.849,0-5.159-2.31-5.159-5.159l0,0c0-2.849,2.31-5.159,5.159-5.159
			h179.363c2.849,0,5.159,2.31,5.159,5.159l0,0C328.523,388.105,326.214,390.415,323.364,390.415z"/>
		<path style="fill:#FF725E;" d="M152.074,340.81c0,2.96-2.399,5.359-5.359,5.359s-5.359-2.399-5.359-5.359
			c0-2.96,2.399-5.359,5.359-5.359S152.074,337.85,152.074,340.81z"/>
		<path style="fill:#E0E0E0;" d="M323.364,256.223H166.368c-2.849,0-5.159-2.31-5.159-5.159l0,0c0-2.849,2.31-5.159,5.159-5.159
			h156.996c2.849,0,5.159,2.31,5.159,5.159l0,0C328.523,253.913,326.214,256.223,323.364,256.223z"/>
		<circle style="fill:#FF725E;" cx="146.715" cy="251.064" r="5.359"/>
		<path style="fill:#FF725E;" d="M318.351,423.229h-40.247c-4.541,0-8.222-3.681-8.222-8.222l0,0c0-4.541,3.681-8.222,8.222-8.222
			h40.247c4.541,0,8.222,3.681,8.222,8.222l0,0C326.573,419.548,322.892,423.229,318.351,423.229z"/>
	</g>
</g>
<g id="Padlock_Icon">
	<g>
		<g>
			<path style="fill:#FF725E;" d="M110.999,35.352L69.277,56.28c-3.119,1.329-5.144,4.392-5.144,7.783v19.517
				c0,17.436,4.866,34.715,14.878,49.969c7.515,11.451,17.482,26.087,34.066,34.455h7.486c18.461-5.63,32.241-20.639,40.666-33.475
				c10.012-15.254,14.878-32.532,14.878-49.969V64.063c0-3.391-2.024-6.454-5.144-7.783l-47.527-20.251
				C121.318,35.127,113.118,34.45,110.999,35.352z"/>
			<path style="opacity:0.3;" d="M110.999,35.352L69.277,56.28c-3.119,1.329-5.144,4.392-5.144,7.783v19.517
				c0,17.436,4.866,34.715,14.878,49.969c7.515,11.451,17.482,26.087,34.066,34.455h7.486c18.461-5.63,32.241-20.639,40.666-33.475
				c10.012-15.254,14.878-32.532,14.878-49.969V64.063c0-3.391-2.024-6.454-5.144-7.783l-47.527-20.251
				C121.318,35.127,113.118,34.45,110.999,35.352z"/>
			<path style="fill:#FF725E;" d="M109.318,36.029L61.791,56.28c-3.119,1.329-5.144,4.392-5.144,7.783v19.517
				c0,17.436,4.866,34.715,14.878,49.969c8.425,12.837,21.47,26.054,41.553,34.455c18.461-5.63,32.241-20.639,40.666-33.475
				c10.012-15.254,14.878-32.532,14.878-49.969V64.063c0-3.391-2.024-6.454-5.144-7.783L115.95,36.029
				C113.832,35.127,111.437,35.127,109.318,36.029z"/>
			<g>
				<path style="fill:#263238;" d="M168.468,79.272c0.009,0,0.019,0.077,0.031,0.228c0.01,0.182,0.023,0.403,0.038,0.671
					c0.023,0.636,0.055,1.498,0.094,2.585c0.038,1.123,0.097,2.497,0.014,4.093c-0.026,0.8-0.053,1.653-0.082,2.556
					c-0.015,0.453-0.031,0.918-0.047,1.396c-0.044,0.476-0.089,0.965-0.135,1.465c-0.197,2-0.335,4.201-0.751,6.531
					c-0.191,1.166-0.341,2.382-0.584,3.618c-0.266,1.232-0.539,2.499-0.82,3.799c-1.247,5.165-2.97,10.78-5.482,16.388
					c-2.521,5.604-5.496,10.664-8.508,15.047c-1.58,2.14-3.036,4.208-4.599,5.987c-0.767,0.899-1.465,1.806-2.215,2.607
					c-0.751,0.799-1.473,1.566-2.162,2.299c-1.343,1.498-2.722,2.69-3.872,3.797c-0.586,0.542-1.114,1.065-1.632,1.51
					c-0.523,0.434-1.003,0.833-1.439,1.194c-0.842,0.689-1.509,1.235-2.001,1.638c-0.211,0.166-0.385,0.303-0.528,0.416
					c-0.121,0.091-0.185,0.135-0.191,0.128c-0.006-0.007,0.048-0.064,0.158-0.169c0.135-0.124,0.297-0.273,0.495-0.455
					c0.476-0.421,1.121-0.991,1.935-1.71c0.426-0.371,0.895-0.78,1.406-1.226c0.507-0.455,1.024-0.988,1.598-1.538
					c1.127-1.123,2.484-2.329,3.804-3.838c0.679-0.737,1.389-1.509,2.129-2.312c0.739-0.805,1.425-1.714,2.182-2.615
					c1.542-1.782,2.977-3.85,4.538-5.986c2.975-4.376,5.919-9.413,8.426-14.985c2.498-5.576,4.224-11.154,5.491-16.287
					c0.286-1.291,0.566-2.551,0.837-3.775c0.25-1.228,0.407-2.437,0.607-3.596c0.433-2.316,0.591-4.506,0.81-6.497
					c0.052-0.498,0.103-0.984,0.153-1.458c0.022-0.475,0.044-0.939,0.065-1.39c0.043-0.899,0.084-1.749,0.122-2.546
					c0.111-1.59,0.081-2.961,0.075-4.082c0.002-1.086,0.003-1.948,0.004-2.583c0.006-0.269,0.01-0.49,0.014-0.673
					C168.452,79.351,168.459,79.273,168.468,79.272z"/>
			</g>
		</g>
		<g>
			<g>
				<g>
					<g>
						<g>
							<path style="fill:#F5F5F5;" d="M131.461,105.502h-5.068V77.915c0-6.493-5.283-11.776-11.776-11.776
								c-6.493,0-11.776,5.283-11.776,11.776v27.587h-5.068V77.915c0-9.288,7.557-16.844,16.844-16.844s16.844,7.557,16.844,16.844
								V105.502z"/>
						</g>
					</g>
					<g>
						<g>
							<g>
								<path style="fill:#FFFFFF;" d="M131.506,122.358H97.727c-3.209,0-5.811-2.602-5.811-5.811V92.586
									c0-3.209,2.602-5.811,5.811-5.811h33.779c3.209,0,5.811,2.602,5.811,5.811v23.961
									C137.317,119.756,134.715,122.358,131.506,122.358z"/>
								<g>
									<path style="fill:#263238;" d="M131.506,122.358c-0.004-0.038,0.541,0.005,1.511-0.26c0.941-0.262,2.393-0.957,3.373-2.605
										c0.493-0.806,0.804-1.844,0.803-2.993c-0.007-1.172-0.014-2.442-0.021-3.806c-0.011-2.736-0.024-5.845-0.039-9.279
										c-0.016-3.436-0.033-7.195-0.052-11.23c-0.119-1.942-1.382-3.864-3.298-4.691c-0.959-0.442-1.987-0.523-3.111-0.483
										c-1.107,0.002-2.23,0.003-3.366,0.005c-9.094,0.006-19.086,0.013-29.576,0.02c-1.253,0.012-2.495,0.429-3.46,1.211
										c-0.959,0.777-1.675,1.86-1.94,3.054c-0.143,0.6-0.167,1.19-0.157,1.836c0,0.634-0.001,1.266-0.001,1.895
										c-0.001,1.258-0.002,2.506-0.002,3.743c-0.005,4.947-0.01,9.719-0.015,14.266c0.095,2.256-0.377,4.588,0.788,6.373
										c1.058,1.802,3.091,2.827,5.06,2.729c4.041,0.011,7.806,0.022,11.246,0.032c6.854,0.035,12.411,0.063,16.285,0.083
										c1.9,0.021,3.386,0.037,4.428,0.049c0.485,0.011,0.867,0.019,1.151,0.026C131.373,122.34,131.506,122.349,131.506,122.358
										c0,0.009-0.133,0.018-0.392,0.027c-0.285,0.006-0.666,0.015-1.151,0.026c-1.041,0.011-2.528,0.028-4.428,0.049
										c-3.874,0.02-9.43,0.048-16.285,0.083c-3.44,0.01-7.206,0.02-11.246,0.032c-2.076,0.115-4.311-0.98-5.452-2.925
										c-0.593-0.949-0.879-2.105-0.87-3.242c-0.002-1.107-0.003-2.23-0.005-3.366c-0.005-4.547-0.01-9.319-0.015-14.266
										c-0.001-1.237-0.001-2.485-0.002-3.743c0-0.629-0.001-1.26-0.001-1.895c-0.012-0.62,0.012-1.312,0.169-1.956
										c0.291-1.307,1.071-2.492,2.12-3.341c1.053-0.855,2.416-1.314,3.784-1.326c10.489,0.007,20.482,0.014,29.576,0.021
										c1.136,0.002,2.258,0.003,3.366,0.005c1.08-0.04,2.291,0.052,3.298,0.535c2.07,0.904,3.423,2.985,3.541,5.078
										c0.034,4.072-0.008,7.816-0.01,11.261c-0.014,3.434-0.027,6.543-0.039,9.279c-0.008,1.364-0.015,2.635-0.021,3.806
										c-0.013,1.194-0.354,2.273-0.878,3.098c-1.043,1.689-2.553,2.367-3.519,2.602
										C132.048,122.436,131.506,122.358,131.506,122.358z"/>
								</g>
							</g>
						</g>
					</g>
					<g>
						<path style="fill:#FF725E;" d="M118.101,105.494c0.888-0.895,1.437-2.123,1.437-3.486c0-2.757-2.236-4.993-4.993-4.993
							c-2.757,0-4.993,2.236-4.993,4.993c0,2.282,1.54,4.185,3.631,4.781l-1.073,4.744h4.753l-0.955-4.744
							C116.75,106.549,117.502,106.097,118.101,105.494"/>
					</g>
				</g>
			</g>
		</g>
	</g>
</g>
<g id="Character_00000096044227544677116470000018280563347007973306_">
	<g>
		<g>
			<g>
				<g>
					<g>
						<g>
							<g>
								<g>
									<g>
										<g>
											<g>
												<g>
													<g>
														<g>
															<g>
																<g>
																	<g>
																		<g>
																			<g>
																				<g>
																					<g>
																						<g>
																							<g>
																								<g>
																									<path style="fill:#FFBF9D;" d="M427.825,141.169v40.525c0.087,7.008,1.117,18.006-9.97,17.638l0,0
																										c-9.595-1.044-12.141-10.128-12.215-16.668c-0.035-3.102-0.071-5.69-0.096-6.008
																										c0,0-10.504-0.857-11.391-11.231c-0.428-5.013-0.47-15.412-0.399-24.819
																										c0.077-10.104,7.911-18.45,17.988-19.185l1.002-0.073C423.594,121.188,427.967,130.319,427.825,141.169z"
																										/>
																								</g>
																							</g>
																						</g>
																					</g>
																				</g>
																			</g>
																		</g>
																	</g>
																</g>
															</g>
														</g>
													</g>
												</g>
											</g>
										</g>
									</g>
								</g>
							</g>
							<g>
								<g>
									<g>
										<g>
											<g>
												<g>
													<g>
														<g>
															<g>
																<g>
																	<g>
																		<g>
																			<g>
																				<g>
																					<g>
																						<g>
																							<g>
																								<g>
																									<path style="fill:#FF9A6C;" d="M405.543,176.656c0,0,6.573-0.094,13.228-4.985
																										c0,0-2.744,7.826-13.174,7.647L405.543,176.656z"/>
																								</g>
																							</g>
																						</g>
																					</g>
																				</g>
																			</g>
																		</g>
																	</g>
																</g>
															</g>
														</g>
													</g>
												</g>
											</g>
										</g>
									</g>
								</g>
							</g>
						</g>
					</g>
				</g>
				<g>
					<g>
						<g>
							<g>
								<g>
									<g>
										<g>
											<g>
												<g>
													<g>
														<g>
															<g>
																<g>
																	<g>
																		<g>
																			<g>
																				<g>
																					<g>
																						<g>
																							<g>
																								<g>
																									<g>
																										<g>
																											<g>
																												<g>
																													<path style="fill:#263238;" d="M411.492,144.856c0.206,0.21,1.404-0.754,3.143-0.801
																														c1.736-0.073,3.036,0.806,3.219,0.582c0.09-0.1-0.125-0.483-0.691-0.881
																														c-0.558-0.396-1.502-0.77-2.584-0.733c-1.083,0.038-1.982,0.473-2.494,0.907
																														C411.561,144.367,411.39,144.763,411.492,144.856z"/>
																												</g>
																											</g>
																										</g>
																									</g>
																								</g>
																							</g>
																						</g>
																					</g>
																				</g>
																			</g>
																		</g>
																	</g>
																</g>
															</g>
														</g>
													</g>
												</g>
											</g>
										</g>
									</g>
									<g>
										<g>
											<g>
												<g>
													<g>
														<g>
															<g>
																<g>
																	<g>
																		<g>
																			<g>
																				<g>
																					<g>
																						<g>
																							<g>
																								<g>
																									<g>
																										<g>
																											<g>
																												<path style="fill:#263238;" d="M411.465,149.774c0.028,0.743,0.68,1.331,1.456,1.316
																													c0.774-0.015,1.381-0.628,1.353-1.37c-0.028-0.742-0.68-1.332-1.455-1.318
																													C412.043,148.417,411.437,149.031,411.465,149.774z"/>
																											</g>
																										</g>
																									</g>
																								</g>
																							</g>
																						</g>
																					</g>
																				</g>
																			</g>
																		</g>
																	</g>
																</g>
															</g>
														</g>
													</g>
												</g>
											</g>
										</g>
									</g>
									<g>
										<g>
											<g>
												<g>
													<g>
														<g>
															<g>
																<g>
																	<g>
																		<g>
																			<g>
																				<g>
																					<g>
																						<g>
																							<g>
																								<g>
																									<g>
																										<g>
																											<g>
																												<path style="fill:#263238;" d="M407.137,156.947c0.001-0.091-1.003-0.19-2.626-0.278
																													c-0.411-0.012-0.802-0.065-0.891-0.338c-0.117-0.287,0.021-0.739,0.184-1.228
																													c0.311-1.014,0.636-2.077,0.978-3.191c1.351-4.54,2.297-8.261,2.114-8.314
																													c-0.184-0.053-1.427,3.584-2.778,8.124c-0.323,1.119-0.633,2.185-0.927,3.205
																													c-0.12,0.474-0.347,1.019-0.094,1.615c0.132,0.296,0.447,0.495,0.713,0.546
																													c0.267,0.061,0.497,0.048,0.699,0.046C406.134,157.105,407.138,157.039,407.137,156.947z"/>
																											</g>
																										</g>
																									</g>
																								</g>
																							</g>
																						</g>
																					</g>
																				</g>
																			</g>
																		</g>
																	</g>
																</g>
															</g>
														</g>
													</g>
												</g>
											</g>
										</g>
									</g>
								</g>
							</g>
						</g>
						<g>
							<g>
								<g>
									<g>
										<g>
											<g>
												<g>
													<g>
														<g>
															<g>
																<g>
																	<g>
																		<g>
																			<g>
																				<g>
																					<g>
																						<g>
																							<g>
																								<path style="fill:#263238;" d="M412.231,137.46c0.168,0.386,1.559,0.095,3.226,0.181
																									c1.668,0.05,3.036,0.453,3.229,0.082c0.085-0.177-0.174-0.532-0.74-0.876
																									c-0.562-0.344-1.44-0.645-2.439-0.687c-0.999-0.04-1.895,0.189-2.478,0.486
																									C412.44,136.943,412.158,137.277,412.231,137.46z"/>
																							</g>
																						</g>
																					</g>
																				</g>
																			</g>
																		</g>
																	</g>
																</g>
															</g>
														</g>
													</g>
												</g>
											</g>
										</g>
									</g>
								</g>
							</g>
						</g>
						<g>
							<g>
								<g>
									<g>
										<g>
											<g>
												<g>
													<g>
														<g>
															<g>
																<g>
																	<g>
																		<g>
																			<g>
																				<g>
																					<g>
																						<g>
																							<g>
																								<path style="fill:#263238;" d="M395.723,140.063c0.183,0.314,1.539-0.035,3.183-0.085
																									c1.644-0.08,3.008,0.16,3.181-0.169c0.076-0.157-0.195-0.438-0.768-0.688
																									c-0.568-0.25-1.446-0.44-2.431-0.402c-0.985,0.04-1.856,0.301-2.417,0.596
																									C395.905,139.61,395.642,139.913,395.723,140.063z"/>
																							</g>
																						</g>
																					</g>
																				</g>
																			</g>
																		</g>
																	</g>
																</g>
															</g>
														</g>
													</g>
												</g>
											</g>
										</g>
									</g>
								</g>
							</g>
						</g>
					</g>
				</g>
				<g>
					<g>
						<g>
							<g>
								<path style="fill:#263238;" d="M379.977,131.292c0.113-0.418,0.417-0.761,0.789-0.981c0.812-0.479,1.748-0.416,2.652-0.43
									c2.754-0.044,5.486-0.885,7.802-2.372c1.085-1.564,2.306-3.034,3.631-4.4c3.145-3.243,5.732-5.45,8.409-6.527
									c3.462-1.394,9.252-1.959,12.862-1.012c3.61,0.947,6.852,3.876,7.354,7.574c2.025-1.712,5.064-1.697,7.529-0.706
									l0.062-0.027c2.746,0.979,4.306,3.88,5.116,6.68c0.81,2.8,1.156,5.795,2.639,8.304c0.31,0.525,0.678,1.154,0.408,1.7
									c-0.21,0.422-0.746,0.596-1.212,0.528c-0.466-0.069-0.88-0.326-1.278-0.579c0.306,0.733,0.612,1.467,0.919,2.2
									c-0.994,0.173-2.022,0.093-2.987-0.199c-0.583,2.619-1.279,5.609-1.953,7.384c-1.148-0.003-2.199,0.079-2.906,0.715
									c-0.962,0.865-1.392,2.491-2.99,1.874c-0.813-0.314-1.555-2.021-1.828-2.849c-1.806-5.499-2.406-11.389-1.753-17.139
									c-1.137-1.212-2.51-2.203-4.019-2.901l0.123,0.111c-2.9-1.007-6.179-1.998-8.93-0.636c-2.134,1.056-3.388,3.27-4.984,5.037
									c-3.024,3.349-7.102,5.169-11.61,5.363c-0.153,2.921,0.092,7.05-0.061,9.972l-2.457-4.68l-0.002,0.023
									c-0.201-0.343-0.368-0.688-0.529-1.034l-0.055-0.105v-0.013c-0.256-0.556-0.499-1.112-0.822-1.662
									c-0.009,0.008-0.019,0.017-0.028,0.025c-1.583,1.396-3.915-0.739-2.667-2.441c0.247-0.338,0.544-0.639,0.882-0.887
									c-0.723,0.679-1.802,1.005-2.751,0.713c-0.949-0.292-1.685-1.251-1.602-2.24c0.056-0.675,0.539-1.278,1.148-1.545
									c-1.279,0.098-2.586-0.18-3.701-0.816C380.446,132.897,379.729,132.21,379.977,131.292z"/>
							</g>
						</g>
					</g>
				</g>
				<g>
					<g>
						<g>
							<g>
								<path style="fill:#455A64;" d="M420.21,124.335c-0.021,0.027,0.435,0.274,1.041,0.952c0.601,0.674,1.275,1.848,1.593,3.446
									c0.163,0.794,0.266,1.682,0.265,2.638c0.004,0.956-0.073,1.979-0.146,3.058c-0.07,1.078-0.147,2.218-0.078,3.403
									c0.035,0.592,0.106,1.194,0.234,1.795c0.131,0.591,0.286,1.233,0.732,1.742c0.356,0.414,0.95,0.598,1.465,0.492
									c0.519-0.092,0.98-0.368,1.318-0.744c0.668-0.78,0.834-1.768,1-2.639l-0.218,0.026c0.356,0.783,0.721,1.557,1.263,2.174
									c0.532,0.621,1.27,1.033,2.019,1.1c0.373,0.034,0.749-0.026,1.07-0.188c0.327-0.159,0.564-0.43,0.727-0.716
									c0.155-0.292,0.236-0.611,0.22-0.92c-0.018-0.308-0.138-0.6-0.333-0.807l-0.11,0.098c0.8,0.911,1.645,1.401,2.229,1.673
									c0.295,0.136,0.531,0.217,0.691,0.269c0.161,0.048,0.246,0.068,0.248,0.061c0.002-0.007-0.078-0.04-0.234-0.1
									c-0.155-0.063-0.384-0.156-0.67-0.301c-0.567-0.29-1.385-0.793-2.152-1.697l-0.11,0.098c0.349,0.37,0.369,1.02,0.069,1.542
									c-0.151,0.257-0.37,0.499-0.657,0.634c-0.286,0.14-0.629,0.193-0.97,0.158c-0.688-0.069-1.376-0.454-1.874-1.045
									c-0.511-0.59-0.865-1.343-1.216-2.128l-0.149-0.333l-0.069,0.359c-0.166,0.87-0.343,1.819-0.952,2.521
									c-0.302,0.337-0.725,0.587-1.179,0.666c-0.455,0.088-0.935-0.062-1.245-0.417c-0.39-0.44-0.549-1.048-0.676-1.629
									c-0.126-0.587-0.197-1.176-0.233-1.759c-0.071-1.165,0-2.297,0.064-3.375c0.067-1.078,0.137-2.106,0.124-3.074
									c-0.008-0.968-0.122-1.868-0.299-2.672c-0.345-1.618-1.057-2.806-1.69-3.473C420.682,124.554,420.21,124.335,420.21,124.335
									z"/>
							</g>
						</g>
					</g>
				</g>
				<g>
					<g>
						<g>
							<g>
								<path style="fill:#455A64;" d="M388.104,134.433c-0.003,0.003,0.026,0.027,0.083,0.071c0.07,0.051,0.155,0.113,0.259,0.189
									c0.113,0.085,0.257,0.184,0.44,0.282c0.18,0.103,0.383,0.228,0.632,0.332c0.964,0.458,2.51,0.913,4.442,0.799
									c1.914-0.108,4.212-0.786,6.264-2.313c2.073-1.491,3.893-3.687,5.381-6.202c0.755-1.257,1.37-2.545,2.048-3.735
									c0.674-1.19,1.418-2.291,2.319-3.159c0.891-0.873,1.925-1.519,2.99-1.815c0.531-0.158,1.066-0.194,1.577-0.182
									c0.512,0.027,0.997,0.131,1.444,0.277c0.895,0.3,1.616,0.794,2.164,1.303c0.55,0.513,0.918,1.055,1.171,1.519
									c0.472,0.954,0.498,1.566,0.536,1.556c0.004,0,0.001-0.037-0.008-0.109c-0.013-0.086-0.029-0.19-0.049-0.318
									c-0.051-0.278-0.17-0.681-0.394-1.172c-0.244-0.48-0.609-1.041-1.162-1.575c-0.551-0.529-1.284-1.047-2.202-1.367
									c-0.459-0.157-0.959-0.269-1.49-0.302c-0.528-0.018-1.09,0.016-1.641,0.175c-1.107,0.299-2.177,0.959-3.092,1.848
									c-0.927,0.885-1.689,2.005-2.37,3.203c-0.687,1.198-1.302,2.483-2.05,3.728c-1.477,2.496-3.27,4.668-5.304,6.145
									c-2.014,1.514-4.257,2.193-6.143,2.323c-1.901,0.134-3.428-0.288-4.392-0.714
									C388.585,134.788,388.123,134.404,388.104,134.433z"/>
							</g>
						</g>
					</g>
				</g>
				<g>
					<g>
						<g>
							<g>
								<path style="fill:#455A64;" d="M387.16,129.873c-0.009,0.015,0.124,0.106,0.372,0.259c0.246,0.158,0.622,0.353,1.102,0.56
									c0.478,0.211,1.072,0.408,1.745,0.573c0.675,0.153,1.432,0.266,2.231,0.296c0.801,0.021,1.563-0.043,2.246-0.153
									c0.682-0.121,1.287-0.28,1.778-0.46c0.492-0.176,0.88-0.346,1.136-0.488c0.257-0.137,0.395-0.22,0.388-0.235
									c-0.02-0.041-0.593,0.254-1.577,0.56c-0.491,0.157-1.089,0.295-1.76,0.402c-0.673,0.095-1.419,0.151-2.203,0.131
									c-0.784-0.03-1.525-0.134-2.19-0.271c-0.663-0.15-1.251-0.326-1.73-0.514C387.736,130.164,387.182,129.833,387.16,129.873z"
									/>
							</g>
						</g>
					</g>
				</g>
				<g>
					<g>
						<g>
							<g>
								<g>
									<g>
										<g>
											<g>
												<g>
													<g>
														<g>
															<g>
																<path style="fill:#263238;" d="M395.645,144.856c0.206,0.21,1.404-0.754,3.143-0.801
																	c1.736-0.072,3.036,0.806,3.219,0.582c0.09-0.1-0.125-0.483-0.691-0.881c-0.558-0.396-1.502-0.77-2.584-0.733
																	c-1.082,0.038-1.982,0.473-2.493,0.907C395.714,144.367,395.544,144.763,395.645,144.856z"/>
															</g>
														</g>
													</g>
												</g>
											</g>
										</g>
									</g>
								</g>
							</g>
						</g>
					</g>
				</g>
				<g>
					<g>
						<g>
							<g>
								<g>
									<g>
										<g>
											<g>
												<g>
													<g>
														<g>
															<path style="fill:#263238;" d="M397.417,149.774c0.028,0.743,0.68,1.331,1.456,1.316
																c0.774-0.015,1.381-0.628,1.353-1.37c-0.028-0.742-0.68-1.332-1.455-1.317
																C397.996,148.417,397.389,149.031,397.417,149.774z"/>
														</g>
													</g>
												</g>
											</g>
										</g>
									</g>
								</g>
							</g>
						</g>
					</g>
				</g>
				<g>
					<g>
						<g>
							<g>
								<g>
									<g>
										<g>
											<g>
												<g>
													<g>
														<g>
															<g>
																<g>
																	<g>
																		<g>
																			<g>
																				<g>
																					<path style="fill:#FFBF9D;" d="M427.553,148.922c0.171-0.09,6.973-2.628,7.264,4.479
																						c0.291,7.107-6.904,5.934-6.925,5.73C427.871,158.928,427.553,148.922,427.553,148.922z"/>
																				</g>
																			</g>
																		</g>
																	</g>
																</g>
															</g>
														</g>
													</g>
												</g>
											</g>
										</g>
									</g>
								</g>
							</g>
						</g>
					</g>
					<g>
						<g>
							<g>
								<g>
									<g>
										<g>
											<g>
												<g>
													<g>
														<g>
															<g>
																<g>
																	<g>
																		<g>
																			<g>
																				<g>
																					<g>
																						<path style="fill:#FF9A6C;" d="M429.953,156.35c0.03-0.024,0.127,0.082,0.341,0.169
																							c0.208,0.085,0.562,0.135,0.926-0.019c0.739-0.307,1.323-1.524,1.305-2.807
																							c-0.008-0.648-0.169-1.258-0.419-1.758c-0.238-0.511-0.589-0.861-0.97-0.912
																							c-0.38-0.071-0.638,0.166-0.717,0.369c-0.087,0.203-0.036,0.343-0.073,0.356
																							c-0.019,0.019-0.157-0.113-0.112-0.409c0.023-0.142,0.1-0.313,0.261-0.457
																							c0.165-0.145,0.413-0.227,0.677-0.209c0.55,0.016,1.064,0.5,1.339,1.049c0.305,0.551,0.501,1.236,0.511,1.963
																							c0.013,1.434-0.665,2.804-1.681,3.144c-0.494,0.151-0.918,0.017-1.14-0.142
																							C429.972,156.521,429.929,156.363,429.953,156.35z"/>
																					</g>
																				</g>
																			</g>
																		</g>
																	</g>
																</g>
															</g>
														</g>
													</g>
												</g>
											</g>
										</g>
									</g>
								</g>
							</g>
						</g>
					</g>
				</g>
			</g>
			<g>
				<path style="fill:#263238;" d="M412.204,158.422c0.059,0.011,0.06,0.417-0.186,1.019c-0.247,0.592-0.787,1.362-1.635,1.897
					c-0.842,0.544-1.776,0.716-2.423,0.651c-0.654-0.058-1.007-0.274-0.985-0.329c0.024-0.08,0.401,0,0.988-0.04
					c0.586-0.032,1.387-0.237,2.139-0.721c0.757-0.478,1.279-1.122,1.588-1.625C411.997,158.765,412.123,158.402,412.204,158.422z"
					/>
			</g>
		</g>
		<g>
			<g>
				<g>
					<g>
						<g>
							<g>
								<g>
									<g>
										<path style="fill:#455A64;" d="M448.01,439.586l2.124,24.036l7.511,18.556c0.542,1.337-0.235,2.826-1.691,3.243l0,0
											c-0.815,0.233-1.694,0.086-2.368-0.405c-4.29-3.122-19.755-14.596-19.927-16.091c-0.224-1.935-4.165-25.57-4.165-25.57
											L448.01,439.586z"/>
									</g>
								</g>
							</g>
						</g>
					</g>
				</g>
				<g>
					<g>
						<g>
							<g>
								<g>
									<g>
										<path style="fill:#263238;" d="M455.954,485.422l-22.72-19.234l0.222,1.781c0.153,0.974,0.17,1.503,0.851,2.111
											c1.822,1.628,7.147,6.613,19.037,15.345C454.037,485.932,455.122,485.683,455.954,485.422L455.954,485.422z"/>
									</g>
								</g>
							</g>
						</g>
					</g>
				</g>
				<g>
					<g>
						<g>
							<g>
								<g>
									<g>
										<g>
											<path style="fill:#FFFFFF;" d="M437.705,458.692c0.686,0.352,0.997,1.24,0.652,1.899
												c-0.346,0.659-1.304,0.964-1.996,0.624c-0.693-0.34-1.101-1.396-0.68-2.014c0.422-0.618,1.568-0.919,2.153-0.433"/>
										</g>
									</g>
								</g>
							</g>
						</g>
					</g>
				</g>
				<g>
					<g>
						<g>
							<g>
								<g>
									<g>
										<g>
											<path style="fill:#263238;" d="M448.939,475.524c0.152,0.052,0.585-1.262,2.027-2.089
												c1.414-0.867,2.862-0.67,2.878-0.821c0.016-0.061-0.329-0.215-0.935-0.235c-0.601-0.023-1.455,0.142-2.244,0.608
												c-0.787,0.469-1.313,1.123-1.549,1.642C448.874,475.153,448.874,475.511,448.939,475.524z"/>
										</g>
									</g>
								</g>
							</g>
						</g>
					</g>
				</g>
				<g>
					<g>
						<g>
							<g>
								<g>
									<g>
										<g>
											<path style="fill:#263238;" d="M451.119,478.555c0.133,0.091,0.864-0.77,2.144-1.257
												c1.268-0.514,2.433-0.397,2.457-0.551c0.06-0.13-1.226-0.516-2.675,0.062
												C451.59,477.372,450.979,478.503,451.119,478.555z"/>
										</g>
									</g>
								</g>
							</g>
						</g>
					</g>
				</g>
				<g>
					<g>
						<g>
							<g>
								<g>
									<g>
										<g>
											<path style="fill:#263238;" d="M445.091,471.745c0.132,0.102,1.249-1.228,3.169-2.15c1.904-0.95,3.704-1.047,3.691-1.207
												c0.027-0.132-1.906-0.276-3.951,0.737C445.945,470.119,444.961,471.69,445.091,471.745z"/>
										</g>
									</g>
								</g>
							</g>
						</g>
					</g>
				</g>
				<g>
					<g>
						<g>
							<g>
								<g>
									<g>
										<g>
											<path style="fill:#263238;" d="M443.796,464.489c0.085,0.137,1.431-0.557,3.259-0.803
												c1.824-0.269,3.328,0.024,3.366-0.13c0.057-0.124-1.488-0.678-3.449-0.394
												C445.008,463.431,443.703,464.386,443.796,464.489z"/>
										</g>
									</g>
								</g>
							</g>
						</g>
					</g>
				</g>
				<g>
					<g>
						<g>
							<g>
								<g>
									<g>
										<g>
											<path style="fill:#263238;" d="M442.983,457.448c0.095,0.131,1.422-0.81,3.368-0.92c1.944-0.151,3.399,0.603,3.473,0.461
												c0.036-0.054-0.276-0.328-0.901-0.588c-0.619-0.262-1.565-0.469-2.613-0.401c-1.047,0.072-1.952,0.404-2.525,0.746
												C443.207,457.087,442.939,457.399,442.983,457.448z"/>
										</g>
									</g>
								</g>
							</g>
						</g>
					</g>
				</g>
				<g>
					<g>
						<g>
							<g>
								<g>
									<g>
										<g>
											<path style="fill:#263238;" d="M446.154,455.192c0.033-0.003,0.054-0.331-0.068-0.911
												c-0.122-0.575-0.398-1.412-1.035-2.3c-0.326-0.418-0.678-0.962-1.426-1.207c-0.372-0.124-0.893-0.01-1.16,0.338
												c-0.265,0.339-0.315,0.742-0.281,1.123c0.199,1.52,1.755,2.854,3.601,2.891c1.85,0.006,3.396-1.141,3.972-2.528
												c0.121-0.356,0.183-0.785-0.061-1.17c-0.241-0.389-0.778-0.5-1.137-0.405c-0.746,0.182-1.177,0.64-1.588,0.989
												c-0.804,0.752-1.27,1.505-1.531,2.037c-0.262,0.536-0.329,0.858-0.298,0.868c0.097,0.054,0.512-1.243,2.103-2.633
												c0.404-0.324,0.867-0.728,1.407-0.83c0.263-0.051,0.503,0.025,0.621,0.217c0.12,0.184,0.1,0.49-0.008,0.771
												c-0.491,1.137-1.906,2.182-3.471,2.154c-1.556-0.016-2.923-1.191-3.095-2.412c-0.037-0.295,0.013-0.6,0.161-0.792
												c0.146-0.189,0.391-0.261,0.637-0.195c0.518,0.138,0.908,0.609,1.227,1.001
												C446.001,453.853,446.044,455.228,446.154,455.192z"/>
										</g>
									</g>
								</g>
							</g>
						</g>
					</g>
				</g>
			</g>
		</g>
		<g>
			<g>
				<g>
					<g>
						<g>
							<g>
								<g>
									<g>
										<g>
											<g>
												<path style="fill:#455A64;" d="M387.457,440.827l0.947,20.355c0,0-21.692,7.741-21.906,11.518l42.05-0.308
													l-0.091-31.772L387.457,440.827z"/>
											</g>
										</g>
									</g>
								</g>
							</g>
						</g>
					</g>
					<g>
						<g>
							<g>
								<g>
									<g>
										<g>
											<g>
												<g>
													<path style="fill:#E0E0E0;" d="M401.392,459.374c0.816,0.203,1.385,1.059,1.203,1.833
														c-0.182,0.774-1.103,1.326-1.923,1.136c-0.819-0.189-1.536-1.197-1.263-1.948c0.273-0.75,1.393-1.343,2.14-0.974"/>
												</g>
											</g>
										</g>
									</g>
								</g>
							</g>
						</g>
					</g>
					<g>
						<g>
							<g>
								<g>
									<g>
										<g>
											<g>
												<path style="fill:#263238;" d="M408.548,472.392l-0.142-3.202l-40.264,1.493c0,0-1.866,0.779-1.644,2.018
													L408.548,472.392z"/>
											</g>
										</g>
									</g>
								</g>
							</g>
						</g>
					</g>
					<g>
						<g>
							<g>
								<g>
									<g>
										<g>
											<g>
												<g>
													<path style="fill:#263238;" d="M387.72,460.985c0.008,0.193,1.036,0.273,2.051,0.886
														c1.033,0.588,1.56,1.421,1.749,1.343c0.189-0.039-0.127-1.19-1.37-1.913
														C388.914,460.569,387.674,460.809,387.72,460.985z"/>
												</g>
											</g>
										</g>
									</g>
								</g>
							</g>
						</g>
					</g>
					<g>
						<g>
							<g>
								<g>
									<g>
										<g>
											<g>
												<g>
													<path style="fill:#263238;" d="M383.324,462.733c-0.045,0.187,0.847,0.509,1.551,1.32
														c0.729,0.792,0.913,1.673,1.117,1.663c0.193,0.029,0.326-1.103-0.57-2.096
														C384.536,462.62,383.327,462.548,383.324,462.733z"/>
												</g>
											</g>
										</g>
									</g>
								</g>
							</g>
						</g>
					</g>
					<g>
						<g>
							<g>
								<g>
									<g>
										<g>
											<g>
												<g>
													<path style="fill:#263238;" d="M380.86,467.713c0.187,0.04,0.465-0.927-0.071-1.98c-0.528-1.057-1.5-1.467-1.585-1.305
														c-0.115,0.159,0.513,0.722,0.939,1.593C380.59,466.882,380.656,467.695,380.86,467.713z"/>
												</g>
											</g>
										</g>
									</g>
								</g>
							</g>
						</g>
					</g>
					<g>
						<g>
							<g>
								<g>
									<g>
										<g>
											<g>
												<g>
													<path style="fill:#263238;" d="M388.052,456.324c0.087,0.175,1.027-0.098,2.188-0.032
														c1.163,0.044,2.069,0.403,2.174,0.237c0.118-0.14-0.77-0.848-2.139-0.908
														C388.908,455.552,387.95,456.173,388.052,456.324z"/>
												</g>
											</g>
										</g>
									</g>
								</g>
							</g>
						</g>
					</g>
				</g>
			</g>
		</g>
		<g>
			<g>
				<g>
					<g>
						<path style="fill:#263238;" d="M380.137,294.676c0.024,1.178,4.885,163.85,4.885,163.85h25.992l5.266-139.154
							c0,0,6.148,72.757,6.148,74.329c0,1.572,5.425,65.608,5.425,65.608l24.098-1.849l-1.58-146.508l-2.945-21.48L380.137,294.676z
							"/>
					</g>
				</g>
				<g>
					<g>
						<g>
							<path style="fill:#455A64;" d="M418.983,314.224c0.012,0.032-0.365,0.18-1.055,0.417c-0.69,0.238-1.694,0.565-2.935,0.959
								l-0.236,0.075l-0.017-0.23c-0.144-1.957-0.308-4.574-0.461-7.442c-0.165-3.109-0.286-5.925-0.348-7.964
								c-0.031-1.02-0.047-1.845-0.046-2.416c0-0.571,0.017-0.887,0.053-0.889c0.035-0.002,0.086,0.312,0.147,0.88
								c0.061,0.568,0.133,1.392,0.21,2.409c0.155,2.035,0.333,4.849,0.499,7.958c0.153,2.868,0.267,5.487,0.331,7.448l-0.253-0.155
								c1.256-0.354,2.278-0.633,2.989-0.815C418.571,314.277,418.971,314.191,418.983,314.224z"/>
						</g>
					</g>
				</g>
				<g>
					<g>
						<g>
							<path style="fill:#455A64;" d="M417.01,297.307c-0.017-0.021,0.084-0.13,0.345-0.213c0.256-0.082,0.689-0.105,1.148,0.094
								c0.448,0.174,0.944,0.69,0.87,1.337c-0.053,0.611-0.551,1.276-1.383,1.439c-0.834,0.136-1.578-0.291-1.916-0.816
								c-0.368-0.548-0.235-1.176,0.021-1.544c0.256-0.387,0.608-0.592,0.859-0.676c0.256-0.085,0.409-0.071,0.414-0.045
								c0.039,0.068-0.586,0.186-0.951,0.871c-0.172,0.328-0.224,0.79,0.062,1.175c0.267,0.383,0.852,0.683,1.41,0.584
								c0.553-0.099,0.959-0.588,1.012-1.03c0.074-0.454-0.229-0.827-0.574-1.012C417.598,297.08,417.027,297.377,417.01,297.307z"
								/>
						</g>
					</g>
				</g>
				<g>
					<g>
						<g>
							<path style="fill:#455A64;" d="M428.941,298.975c-0.141,0.013-0.338-0.692-0.44-1.575c-0.102-0.883-0.069-1.609,0.072-1.622
								c0.141-0.013,0.338,0.692,0.44,1.575C429.115,298.236,429.083,298.962,428.941,298.975z"/>
						</g>
					</g>
				</g>
				<g>
					<g>
						<g>
							<path style="fill:#455A64;" d="M430.744,298.812c-0.142,0.001-0.261-0.751-0.266-1.678c-0.005-0.927,0.106-1.679,0.248-1.68
								c0.142-0.001,0.261,0.75,0.266,1.678C430.997,298.059,430.886,298.811,430.744,298.812z"/>
						</g>
					</g>
				</g>
				<g>
					<g>
						<g>
							<path style="fill:#455A64;" d="M399.413,299.935c-0.141,0.014-0.361-0.832-0.491-1.888c-0.13-1.057-0.121-1.924,0.021-1.938
								c0.141-0.014,0.361,0.831,0.491,1.888C399.563,299.053,399.554,299.92,399.413,299.935z"/>
						</g>
					</g>
				</g>
				<g>
					<g>
						<g>
							<path style="fill:#455A64;" d="M401.597,300.091c-0.126,0.044-0.586-0.82-0.635-1.979c-0.057-1.159,0.323-2.054,0.453-2.019
								c0.145,0.031,0.006,0.917,0.061,2C401.52,299.176,401.738,300.049,401.597,300.091z"/>
						</g>
					</g>
				</g>
			</g>
			<g>
				<g>
					<g>
						<path style="fill:#455A64;" d="M393.376,297.917c0.031,0.005-0.001,0.26-0.087,0.717c-0.078,0.458-0.253,1.113-0.523,1.907
							c-0.534,1.588-1.571,3.721-3.219,5.797c-1.656,2.072-3.572,3.646-5.077,4.618c-0.751,0.488-1.386,0.85-1.846,1.066
							c-0.455,0.222-0.714,0.333-0.73,0.308c-0.042-0.063,0.943-0.584,2.376-1.606c1.434-1.017,3.274-2.593,4.899-4.625
							c1.616-2.037,2.679-4.106,3.285-5.65C393.067,298.905,393.296,297.902,393.376,297.917z"/>
					</g>
				</g>
			</g>
			<g>
				<g>
					<g>
						<path style="fill:#455A64;" d="M449.576,308.879c0.003,0.025-0.276,0.077-0.788,0.116c-0.512,0.04-1.259,0.048-2.176-0.038
							c-1.824-0.16-4.369-0.806-6.658-2.315c-2.289-1.51-3.729-3.494-4.437-5.004c-0.361-0.758-0.573-1.398-0.681-1.847
							c-0.109-0.449-0.136-0.702-0.108-0.707c0.082-0.019,0.303,0.979,1.086,2.432c0.768,1.446,2.204,3.334,4.414,4.793
							c2.21,1.457,4.653,2.128,6.425,2.358C448.44,308.908,449.572,308.803,449.576,308.879z"/>
					</g>
				</g>
			</g>
			<g>
				<g>
					<g>
						<path style="fill:#455A64;" d="M407.231,391.256c-0.033,0.11-4.341-0.821-9.621-2.08c-5.282-1.259-9.536-2.369-9.503-2.479
							c0.033-0.11,4.34,0.821,9.622,2.08C403.009,390.036,407.264,391.146,407.231,391.256z"/>
					</g>
				</g>
			</g>
			<g>
				<g>
					<g>
						<path style="fill:#455A64;" d="M449.111,385.336c0.062,0.1-3.687,2.058-8.373,4.373c-4.687,2.316-8.536,4.112-8.598,4.012
							c-0.062-0.1,3.687-2.058,8.374-4.374C445.199,387.032,449.049,385.236,449.111,385.336z"/>
					</g>
				</g>
			</g>
		</g>
		<g>
			<g>
				<g>
					<g>
						<path style="fill:#FFBF9D;" d="M367.518,239.593l3.554,4.443v-7.645h11.195c0,0,1.244,17.508,0.977,21.24
							c-0.093,1.306-0.665,3.461-1.37,5.711c-1.46,4.664-7.347,6.122-10.852,2.717c-1.177-1.144-2.375-2.445-3.505-3.897
							c-4.976-6.397-13.242-21.981-13.242-21.981l8.622-5.208L367.518,239.593z"/>
					</g>
				</g>
				<g>
					<g>
						<g>
							<path style="fill:#FF9A6C;" d="M366.81,238.772c-0.055,0.05,0.522,0.78,1.463,1.953c0.943,1.171,2.253,2.784,3.748,4.529
								c1.498,1.743,2.908,3.281,4.005,4.322c1.09,1.049,1.86,1.594,1.902,1.541c0.05-0.061-0.625-0.696-1.636-1.802
								c-1.019-1.098-2.377-2.665-3.872-4.404C369.459,241.412,366.937,238.655,366.81,238.772z"/>
						</g>
					</g>
				</g>
			</g>
			<g>
				<g>
					<g>
						<polygon style="fill:#FFBF9D;" points="393.059,185.796 404.865,181.165 426.615,179.934 436.837,183.821 422.828,191.6 
							410.751,191.157 						"/>
					</g>
				</g>
				<g>
					<path style="fill:#455A64;" d="M379.133,296.901c1.068,0.184,72.329,3.211,72.329,3.211l-2.503-64.074l-0.206-12.581
						l-4.048-38.111c0,0-10.651-3.662-16.086-5.411c0,0-5.72,5.961-16.596,5.8c-10.633-0.158-12.854-2.555-12.854-2.555
						l-14.865,5.699c0,0-10.57,3.79-12.389,8.467c-1.77,4.552-5.015,30.553-5.015,30.553h15.408l-0.291,45.93L379.133,296.901z"/>
				</g>
				<g style="opacity:0.2;">
					<polyline points="423.938,211.385 426.147,227.538 436.837,232.312 444.738,225.578 444.738,210.583 423.938,211.385 					"/>
				</g>
				<g>
					<g>
						<path style="fill:#263238;" d="M444.458,215.967c0,0.134-4.442,0.243-9.921,0.243c-5.481,0-9.923-0.109-9.923-0.243
							c0-0.134,4.442-0.243,9.923-0.243C440.016,215.724,444.458,215.833,444.458,215.967z"/>
					</g>
				</g>
				<g>
					<g>
						<g>
							<g>
								<g>
									<g>
										<path style="fill:#263238;" d="M374.332,204.021c0.012-0.002,0.051,0.144,0.114,0.425
											c0.073,0.318,0.167,0.728,0.285,1.238c0.268,1.075,0.7,2.637,1.418,4.546c0.71,1.914,1.713,4.158,2.939,6.681
											c1.16,2.57,2.21,5.527,3.307,8.732l0.011,0.033l0,0.037c-0.026,3.838-0.054,8.04-0.083,12.428
											c-0.104,9.799-0.197,18.666-0.266,25.14c-0.056,3.181-0.101,5.771-0.133,7.616c-0.025,0.865-0.045,1.554-0.06,2.07
											c-0.019,0.473-0.036,0.721-0.052,0.721c-0.016,0-0.03-0.25-0.041-0.724c-0.007-0.517-0.016-1.207-0.027-2.073
											c-0.003-1.846-0.008-4.437-0.014-7.62c0.034-6.473,0.079-15.34,0.13-25.137c0.04-4.388,0.078-8.588,0.112-12.425
											l0.011,0.069c-1.077-3.197-2.107-6.166-3.228-8.715c-1.197-2.528-2.18-4.808-2.857-6.743
											c-0.688-1.933-1.081-3.516-1.307-4.606c-0.106-0.547-0.182-0.968-0.218-1.256
											C374.334,204.173,374.319,204.024,374.332,204.021z"/>
									</g>
								</g>
							</g>
							<g>
								<g>
									<g>
										<path style="fill:#263238;" d="M449.881,196.525c0.033,0.003,0.021,0.49-0.013,1.368c-0.036,0.962-0.082,2.213-0.139,3.72
											c-0.127,3.223-0.297,7.521-0.485,12.273c-0.215,4.752-0.41,9.051-0.555,12.273c-0.087,1.506-0.159,2.756-0.214,3.718
											c-0.06,0.878-0.108,1.362-0.14,1.361c-0.032-0.001-0.045-0.488-0.039-1.368c0.017-0.963,0.04-2.215,0.067-3.723
											c0.078-3.143,0.221-7.485,0.42-12.28c0.199-4.793,0.418-9.132,0.621-12.27c0.102-1.569,0.201-2.839,0.285-3.715
											C449.778,197.004,449.851,196.522,449.881,196.525z"/>
									</g>
								</g>
							</g>
							<g style="opacity:0.3;">
								<g>
									<g>
										<path d="M374.371,206.349c-0.346,7.031,2.304,13.842,6.997,19.089C379.918,218.828,376.298,212.675,374.371,206.349z"/>
									</g>
								</g>
							</g>
							<g style="opacity:0.3;">
								<g>
									<g>
										<path d="M405.67,269.782c3.331-0.283,6.334-2.257,8.552-4.759c2.217-2.501,4.225-5.339,5.744-8.316
											c2.066-4.05,3.091-8.459,3.368-13.075C419.182,254.758,413.096,263.565,405.67,269.782z"/>
									</g>
								</g>
							</g>
							<g>
								<g>
									<g>
										<path style="fill:#263238;" d="M424.646,238.779c0.016,0.004-0.005,0.145-0.059,0.41
											c-0.071,0.318-0.155,0.699-0.257,1.157c-0.109,0.504-0.264,1.114-0.48,1.813c-0.208,0.701-0.429,1.505-0.749,2.369
											c-0.577,1.75-1.422,3.779-2.459,5.984c-1.074,2.188-2.373,4.536-3.921,6.887c-1.567,2.339-3.228,4.449-4.834,6.283
											c-1.639,1.805-3.189,3.364-4.593,4.558c-0.678,0.624-1.342,1.13-1.914,1.586c-0.566,0.463-1.075,0.835-1.503,1.122
											c-0.387,0.264-0.71,0.484-0.979,0.667c-0.227,0.148-0.35,0.22-0.359,0.207c-0.009-0.013,0.096-0.11,0.305-0.283
											c0.254-0.202,0.559-0.445,0.925-0.736c0.41-0.308,0.9-0.698,1.448-1.178c0.554-0.472,1.199-0.992,1.859-1.628
											c1.368-1.218,2.883-2.79,4.492-4.596c1.576-1.836,3.213-3.936,4.768-6.257c1.536-2.333,2.836-4.657,3.923-6.818
											c1.051-2.179,1.921-4.181,2.534-5.907c0.338-0.852,0.579-1.645,0.81-2.335c0.239-0.688,0.418-1.289,0.553-1.784
											c0.135-0.448,0.247-0.822,0.34-1.132C424.579,238.909,424.63,238.775,424.646,238.779z"/>
									</g>
								</g>
							</g>
						</g>
						<g>
							<g>
								<g>
									<path style="fill:#263238;" d="M422.587,218.725c0.016,0.003-0.013,0.228-0.083,0.654c-0.083,0.47-0.192,1.088-0.328,1.861
										c-0.138,0.809-0.328,1.796-0.618,2.925c-0.281,1.132-0.552,2.434-0.995,3.834c-0.208,0.705-0.426,1.443-0.653,2.211
										c-0.231,0.767-0.529,1.547-0.806,2.365c-0.536,1.643-1.254,3.344-1.981,5.145c-1.544,3.563-3.454,7.393-5.779,11.228
										c-2.358,3.817-4.9,7.261-7.37,10.258c-1.274,1.467-2.461,2.881-3.681,4.105c-0.602,0.619-1.161,1.239-1.739,1.794
										c-0.581,0.551-1.138,1.081-1.672,1.587c-1.046,1.032-2.082,1.866-2.961,2.63c-0.874,0.772-1.666,1.39-2.324,1.881
										c-0.626,0.472-1.127,0.851-1.508,1.138c-0.348,0.256-0.535,0.384-0.544,0.371c-0.009-0.013,0.159-0.166,0.488-0.445
										c0.367-0.304,0.849-0.705,1.452-1.205c0.639-0.512,1.412-1.148,2.267-1.937c0.861-0.781,1.878-1.629,2.905-2.672
										c0.525-0.511,1.073-1.046,1.644-1.602c0.569-0.559,1.119-1.183,1.712-1.805c1.202-1.231,2.373-2.647,3.632-4.114
										c2.44-2.998,4.958-6.43,7.304-10.227c2.313-3.815,4.224-7.618,5.782-11.155c0.733-1.788,1.462-3.475,2.011-5.106
										c0.284-0.811,0.589-1.585,0.828-2.346c0.236-0.761,0.462-1.493,0.679-2.193c0.461-1.389,0.754-2.681,1.058-3.803
										c0.313-1.121,0.528-2.098,0.693-2.9c0.171-0.764,0.308-1.376,0.412-1.841C422.512,218.942,422.572,218.722,422.587,218.725
										z"/>
								</g>
							</g>
						</g>
					</g>
				</g>
			</g>
			<g>
				<g>
					<g>
						<g>
							<g>
								<path style="fill:#E0E0E0;" d="M366.283,198.793c4.393,6.676,22.177,33.719,27.436,41.716
									c0.58,0.882-0.143,2.035-1.19,1.903l-31.595-3.975c-0.337-0.042-0.643-0.222-0.844-0.497l-30.178-41.216
									c-0.623-0.851,0.037-2.042,1.089-1.964l32.508,2.405C364.637,197.248,365.661,197.848,366.283,198.793z"/>
							</g>
						</g>
						<g>
							<g>
								<g>
									<path style="fill:#263238;" d="M366.283,198.793c0,0-0.065-0.142-0.252-0.379c-0.189-0.232-0.504-0.568-1.022-0.861
										c-0.505-0.312-1.258-0.481-2.105-0.511c-0.856-0.07-1.838-0.151-2.94-0.242c-4.451-0.349-10.847-0.851-18.74-1.47
										c-1.979-0.152-4.051-0.311-6.211-0.476c-1.08-0.083-2.182-0.167-3.304-0.252c-0.292-0.017-0.537-0.054-0.871-0.054
										c-0.333,0.007-0.663,0.15-0.909,0.377c-0.507,0.444-0.636,1.28-0.24,1.856c2.752,3.775,5.692,7.806,8.785,12.048
										c6.195,8.472,13.004,17.783,20.151,27.556c0.459,0.619,0.867,1.202,1.364,1.845c0.155,0.167,0.348,0.299,0.562,0.38
										c0.223,0.088,0.442,0.097,0.613,0.121l1.115,0.14c1.484,0.186,2.957,0.371,4.42,0.555c2.926,0.367,5.809,0.728,8.643,1.083
										c5.666,0.707,11.132,1.39,16.34,2.04c0.339,0.036,0.62,0.09,1.003,0.112c0.387,0.005,0.781-0.158,1.047-0.436
										c0.274-0.273,0.428-0.653,0.432-1.039c0.015-0.379-0.206-0.784-0.38-1.012c-0.704-1.067-1.399-2.119-2.083-3.157
										c-1.369-2.074-2.699-4.088-3.985-6.035c-2.573-3.891-4.97-7.516-7.16-10.828c-4.38-6.596-7.929-11.94-10.399-15.659
										c-1.226-1.826-2.183-3.251-2.849-4.243c-0.32-0.466-0.569-0.83-0.752-1.096
										C366.382,198.911,366.29,198.788,366.283,198.793c-0.008,0.005,0.069,0.138,0.226,0.393
										c0.172,0.273,0.407,0.646,0.708,1.125c0.647,1.004,1.576,2.448,2.767,4.297c2.436,3.741,5.938,9.116,10.259,15.751
										c2.173,3.323,4.553,6.96,7.106,10.864c1.279,1.952,2.601,3.971,3.963,6.05c0.682,1.04,1.373,2.094,2.074,3.163
										c0.202,0.283,0.291,0.475,0.299,0.751c-0.004,0.257-0.109,0.518-0.296,0.702c-0.182,0.189-0.44,0.294-0.703,0.291
										c-0.268-0.015-0.632-0.075-0.945-0.11c-5.206-0.66-10.671-1.353-16.336-2.071c-2.833-0.358-5.716-0.722-8.642-1.091
										c-1.463-0.184-2.937-0.37-4.42-0.557l-1.115-0.14c-0.199-0.027-0.362-0.036-0.49-0.09
										c-0.138-0.052-0.263-0.139-0.364-0.247c-0.44-0.597-0.882-1.197-1.325-1.798c-7.159-9.765-13.979-19.067-20.184-27.532
										c-3.102-4.225-6.05-8.24-8.81-11.999c-0.28-0.401-0.193-0.983,0.165-1.304c0.174-0.16,0.399-0.262,0.636-0.267
										c0.234-0.003,0.552,0.034,0.821,0.049c1.123,0.08,2.225,0.159,3.305,0.237c2.16,0.154,4.233,0.301,6.213,0.443
										c7.898,0.549,14.299,0.994,18.753,1.303c1.104,0.073,2.087,0.137,2.943,0.194c0.861,0.017,1.555,0.159,2.066,0.448
										C365.977,198.212,366.251,198.832,366.283,198.793z"/>
								</g>
							</g>
						</g>
					</g>
					<g>
						<g>
							<g>
								<path style="fill:#263238;" d="M329.911,196.724c-0.001,0.016,0.226,0.049,0.662,0.098c0.482,0.049,1.118,0.113,1.918,0.194
									c1.723,0.153,4.141,0.368,7.14,0.634c6.125,0.5,14.609,1.193,24.28,1.982l-0.193-0.112c1.52,2.258,3.088,4.602,4.662,7.024
									c6.407,9.849,12.004,18.902,16.231,25.343c2.101,3.228,3.848,5.811,5.065,7.588c0.598,0.851,1.073,1.528,1.426,2.03
									c0.331,0.461,0.512,0.698,0.527,0.687c0.015-0.01-0.137-0.267-0.439-0.747c-0.332-0.516-0.78-1.211-1.343-2.085
									c-1.19-1.856-2.865-4.467-4.923-7.676c-4.145-6.489-9.69-15.57-16.103-25.429c-1.575-2.424-3.149-4.769-4.676-7.026
									l-0.07-0.103l-0.124-0.009c-9.677-0.718-18.166-1.348-24.294-1.803c-3.004-0.202-5.426-0.364-7.152-0.48
									c-0.802-0.044-1.441-0.079-1.924-0.106C330.142,196.71,329.912,196.708,329.911,196.724z"/>
							</g>
						</g>
					</g>
					<g>
						<g>
							<g>
								<path style="fill:#FFFFFF;" d="M349.5,202.618c0,0-0.001,0-0.001,0c-0.005-0.001-0.008-0.003-0.012-0.004L349.5,202.618z"/>
							</g>
						</g>
						<g>
							<g>
								<path style="fill:#FFFFFF;" d="M348.718,203.089c0.079-0.375,0.433-0.532,0.781-0.471c0.374,0.111,0.566,0.199,0.847,0.476
									c0.285,0.281,0.406,0.771,0.154,1.082c-0.315,0.39-0.964,0.247-1.345-0.081
									C348.865,203.844,348.639,203.465,348.718,203.089z"/>
							</g>
						</g>
					</g>
				</g>
				<g>
					<g>
						<path style="fill:#FFBF9D;" d="M363.476,226.469c0,0,1.247-2.973-1.918-3.356c-3.164-0.383-11.472,0-11.472,0
							s-4.542,0.479-3.583,3.74c0,0-2.685,2.397-1.247,4.986c1.438,2.589,2.014,1.822,2.014,1.822s-0.384,3.164,2.014,3.644
							c0,0,2.599,3.068,4.992,2.877c2.392-0.192,12.557-5.082,13.228-6.041c0.671-0.959,1.63-1.504,1.055-2.574
							c0,0,1.247-2.806-1.438-3.233C367.12,228.333,366.928,225.989,363.476,226.469z"/>
					</g>
				</g>
				<g>
					<g>
						<g>
							<path style="fill:#FF9A6C;" d="M349.058,227.542c0.001,0.073,0.818,0.126,2.138,0.154c1.32,0.027,3.142,0.029,5.155-0.001
								c2.009-0.067,3.836,0.011,5.178-0.308c1.365-0.316,1.9-1.117,1.836-1.134c-0.056-0.068-0.631,0.571-1.913,0.77
								c-1.256,0.211-3.099,0.081-5.109,0.146c-2.013,0.031-3.834,0.088-5.153,0.156
								C349.872,227.391,349.057,227.47,349.058,227.542z"/>
						</g>
					</g>
				</g>
				<g>
					<g>
						<g>
							<path style="fill:#FF9A6C;" d="M351.324,232.336c-0.008,0.028,0.229,0.14,0.688,0.237c0.457,0.099,1.139,0.175,1.977,0.122
								c0.838-0.049,1.825-0.226,2.884-0.523c1.062-0.293,2.19-0.701,3.382-1.067c1.191-0.368,2.342-0.633,3.403-0.702
								c1.036-0.047,2.156-0.019,2.899-0.586c0.367-0.261,0.619-0.62,0.692-0.988c0.07-0.361-0.003-0.677-0.12-0.898
								c-0.251-0.457-0.59-0.483-0.581-0.458c-0.026,0.041,0.245,0.137,0.394,0.541c0.165,0.388,0.078,1.098-0.594,1.494
								c-0.646,0.441-1.604,0.391-2.717,0.41c-1.118,0.045-2.321,0.309-3.531,0.683c-1.182,0.388-2.309,0.758-3.364,1.104
								c-1.031,0.317-1.977,0.524-2.781,0.618C352.342,232.524,351.342,232.245,351.324,232.336z"/>
						</g>
					</g>
				</g>
				<g>
					<g>
						<g>
							<path style="fill:#FF9A6C;" d="M354.722,236.391c0.019,0.069,0.835-0.085,2.135-0.413c1.299-0.328,3.08-0.836,5.023-1.472
								c1.944-0.637,3.681-1.28,4.922-1.784c1.242-0.504,1.991-0.863,1.966-0.929c-0.054-0.14-3.177,0.947-7.052,2.212
								C357.845,235.275,354.683,236.246,354.722,236.391z"/>
						</g>
					</g>
				</g>
				<g>
					<g>
						<g>
							<path style="fill:#FF9A6C;" d="M353.907,240.153c0.009,0.064,0.694,0.037,1.771-0.204c1.078-0.235,2.527-0.729,4.048-1.425
								c1.524-0.693,2.854-1.401,3.817-1.912c0.961-0.514,1.548-0.85,1.517-0.918c-0.067-0.157-2.554,0.938-5.551,2.35
								C356.518,239.479,353.888,240.016,353.907,240.153z"/>
						</g>
					</g>
				</g>
			</g>
			<g>
				<g>
					<g>
						<path style="fill:#FFBF9D;" d="M454.931,211.559c0,0-6.46,25.882-14.532,35.435c-7.817,9.252-20.068,4.999-24.31-6.971
							c-4.242-11.97-11.801-39.311-11.801-39.311l9.283-7.098l16.039,31.083l7.227-21.189L454.931,211.559z"/>
					</g>
				</g>
				<g>
					<g>
						<g>
							<g>
								<path style="fill:#FFBF9D;" d="M404.718,201.43l-6.807-9.866c0,0-2.26-0.525-2.9-0.9c-0.772-0.451-1.531-4.37-1.515-5.135
									c0.016-0.765-1.32-2.553-0.779-3.057c0.541-0.503,2.366-0.541,2.267-1.276c-0.021-0.157-1.353-1.792-0.297-2.992
									c0.382-0.433,1.919-0.815,1.919-0.815l-0.11-3.765c0,0,2.033-4.445,4.111-2.836c0,0,7.835,6.018,8.624,6.98
									c0.789,0.962,3.804,13.495,4.338,15.846"/>
							</g>
						</g>
						<g>
							<g>
								<g>
									<path style="fill:#FF9A6C;" d="M413.57,193.615c0.016-0.004-0.02-0.232-0.105-0.665c-0.102-0.476-0.236-1.102-0.403-1.885
										c-0.367-1.634-0.915-3.996-1.657-6.907c-0.376-1.455-0.789-3.048-1.311-4.746c-0.139-0.424-0.272-0.854-0.453-1.291
										c-0.169-0.496-0.585-0.827-0.924-1.136c-0.713-0.628-1.464-1.244-2.239-1.872c-1.55-1.255-3.196-2.55-4.913-3.884
										c-0.442-0.313-0.807-0.718-1.434-0.947c-0.633-0.207-1.306,0.059-1.767,0.42c-0.944,0.752-1.556,1.761-2.087,2.82
										l-0.024,0.047l0.002,0.061c0.01,0.364,0.022,0.757,0.033,1.152c0.026,0.881,0.052,1.754,0.077,2.613l0.183-0.24
										c-0.474,0.125-0.928,0.265-1.38,0.465c-0.224,0.108-0.453,0.206-0.669,0.436c-0.162,0.207-0.315,0.435-0.379,0.696
										c-0.158,0.518-0.049,1.05,0.119,1.498c0.085,0.229,0.193,0.442,0.308,0.647l0.173,0.296l0.035,0.062
										c-0.009-0.012-0.003-0.039-0.007-0.014c0,0.023,0.003,0.046-0.011,0.064c-0.02,0.086-0.203,0.201-0.387,0.275
										c-0.189,0.079-0.398,0.141-0.608,0.206c-0.211,0.065-0.426,0.127-0.644,0.213c-0.216,0.103-0.444,0.153-0.653,0.459
										c-0.156,0.322-0.068,0.58-0.018,0.801c0.063,0.225,0.144,0.433,0.23,0.632c0.17,0.399,0.36,0.777,0.499,1.149
										c0.068,0.191,0.118,0.356,0.118,0.529c0.004,0.235,0.035,0.434,0.061,0.643c0.059,0.411,0.135,0.811,0.217,1.206
										c0.173,0.786,0.362,1.549,0.639,2.275c0.153,0.361,0.268,0.721,0.598,1.049c0.377,0.284,0.713,0.335,1.062,0.466
										c0.69,0.215,1.361,0.383,2.016,0.535l-0.109-0.074c2.101,2.986,3.818,5.425,5.041,7.165c0.584,0.811,1.05,1.457,1.398,1.94
										c0.325,0.441,0.503,0.667,0.518,0.657c0.015-0.01-0.134-0.257-0.43-0.717c-0.328-0.497-0.767-1.162-1.317-1.996
										c-1.192-1.762-2.863-4.232-4.909-7.256l-0.038-0.057l-0.071-0.017c-0.642-0.158-1.31-0.333-1.979-0.55
										c-0.314-0.112-0.714-0.225-0.918-0.397c-0.199-0.192-0.35-0.56-0.477-0.893c-0.257-0.692-0.439-1.446-0.603-2.217
										c-0.077-0.387-0.149-0.781-0.203-1.178c-0.025-0.195-0.053-0.404-0.053-0.582c0.002-0.243-0.069-0.48-0.141-0.682
										c-0.151-0.41-0.34-0.788-0.501-1.173c-0.082-0.192-0.155-0.385-0.207-0.573c-0.054-0.183-0.073-0.39-0.02-0.463
										c0.031-0.065,0.24-0.185,0.419-0.249c0.19-0.074,0.398-0.134,0.61-0.198c0.212-0.065,0.43-0.127,0.653-0.219
										c0.211-0.102,0.483-0.188,0.643-0.529c0.04-0.084,0.047-0.173,0.045-0.264c0.006-0.033-0.012-0.113-0.044-0.176
										l-0.047-0.085l-0.168-0.29c-0.106-0.19-0.203-0.384-0.276-0.583c-0.147-0.395-0.223-0.823-0.104-1.197
										c0.045-0.192,0.161-0.357,0.283-0.516c0.102-0.114,0.306-0.223,0.504-0.312c0.406-0.179,0.856-0.319,1.299-0.435
										l0.188-0.049l-0.006-0.191c-0.025-0.859-0.05-1.732-0.075-2.613c-0.012-0.395-0.023-0.787-0.034-1.152l-0.022,0.107
										c0.493-0.994,1.112-1.988,1.936-2.638c0.411-0.317,0.901-0.493,1.341-0.348c0.42,0.136,0.852,0.548,1.284,0.864
										c1.719,1.327,3.37,2.612,4.924,3.855c0.776,0.621,1.531,1.232,2.238,1.844c0.355,0.319,0.698,0.587,0.827,0.982
										c0.173,0.407,0.311,0.835,0.451,1.249c0.534,1.677,0.967,3.265,1.362,4.711c0.752,2.865,1.364,5.195,1.803,6.864
										c0.203,0.774,0.366,1.393,0.489,1.863C413.488,193.397,413.554,193.618,413.57,193.615z"/>
								</g>
							</g>
						</g>
					</g>
					<g>
						<g>
							<g>
								<path style="fill:#FF9A6C;" d="M396.607,177.389c0.003,0.083,0.795,0.02,2.031,0.139c0.625,0.047,1.297,0.28,2.142,0.49
									c0.868,0.191,1.823,0.093,2.771,0.024c1.905-0.259,3.512,0.546,4.364,1.415c0.876,0.871,0.964,1.706,1.052,1.676
									c0.042,0.021,0.082-0.891-0.803-1.908c-0.433-0.494-1.068-0.984-1.874-1.316c-0.797-0.362-1.812-0.433-2.773-0.349
									c-0.969,0.072-1.868,0.172-2.65,0.022c-0.78-0.169-1.556-0.392-2.204-0.394C397.373,177.154,396.603,177.34,396.607,177.389
									z"/>
							</g>
						</g>
					</g>
					<g>
						<g>
							<g>
								<path style="fill:#FF9A6C;" d="M399.379,177.184c0.116,0.059,0.432-0.399,0.391-1.049c-0.037-0.651-0.406-1.068-0.514-0.995
									c-0.119,0.068,0.006,0.499,0.031,1.024C399.325,176.687,399.253,177.13,399.379,177.184z"/>
							</g>
						</g>
					</g>
					<g>
						<g>
							<g>
								<path style="fill:#FF9A6C;" d="M394.742,181.339c-0.007,0.123,2.681,0.239,5.901-0.462c0.805-0.174,1.541-0.399,2.17-0.275
									c0.625,0.113,1.104,0.532,1.405,0.927c0.593,0.83,0.689,1.525,0.775,1.497c0.039,0.001,0.083-0.713-0.494-1.692
									c-0.299-0.466-0.819-0.994-1.597-1.168c-0.78-0.173-1.585,0.077-2.36,0.239
									C397.379,181.094,394.737,181.195,394.742,181.339z"/>
							</g>
						</g>
					</g>
					<g>
						<g>
							<g>
								<path style="fill:#FF9A6C;" d="M393.701,184.899c0,0.062,0.559,0.118,1.451,0.007c0.892-0.099,2.087-0.406,3.392-0.662
									c0.655-0.12,1.279-0.221,1.826-0.182c0.55,0.031,1.008,0.21,1.315,0.475c0.645,0.543,0.569,1.16,0.641,1.151
									c0.028,0.005,0.095-0.131,0.081-0.399c-0.017-0.264-0.15-0.655-0.489-1.001c-0.331-0.354-0.892-0.613-1.51-0.669
									c-0.623-0.068-1.284,0.03-1.953,0.151c-1.343,0.264-2.505,0.619-3.362,0.8C394.24,184.763,393.699,184.828,393.701,184.899z
									"/>
							</g>
						</g>
					</g>
					<g>
						<g>
							<g>
								<path style="fill:#FF9A6C;" d="M396.035,187.723c-0.082,0.061,0.582,0.758,1.804,0.755l-0.241-0.208
									c0.025,0.215,0.048,0.42,0.072,0.631c0.177,1.393,0.427,2.507,0.559,2.487c0.132-0.02,0.096-1.158-0.079-2.542
									c-0.029-0.21-0.057-0.413-0.087-0.626l-0.031-0.221l-0.211,0.013C396.798,188.074,396.096,187.618,396.035,187.723z"/>
							</g>
						</g>
					</g>
				</g>
			</g>
			<g>
				<g>
					<g>
						<path style="fill:#455A64;" d="M444.706,185.346c0,0,13.232,3.206,13.204,20.752c-0.028,17.478-3.996,26.214-3.996,26.214
							l-24.391-13.275l5.443-13.665L444.706,185.346z"/>
					</g>
				</g>
			</g>
			<g>
				<g>
					<path style="fill:#263238;" d="M453.913,232.312c-0.008,0.014-0.182-0.062-0.507-0.221c-0.369-0.187-0.837-0.425-1.415-0.719
						c-1.278-0.674-3.036-1.6-5.199-2.74c-4.441-2.393-10.531-5.674-17.392-9.37l-0.197-0.106l0.079-0.208
						c0.418-1.093,0.86-2.249,1.308-3.42c1.559-4.049,3.043-7.904,4.397-11.42c0.679-1.75,1.326-3.416,1.932-4.978
						c0.585-1.57,1.228-3.012,1.931-4.258c1.372-2.512,2.995-4.286,4.402-5.094c0.692-0.418,1.301-0.606,1.715-0.687
						c0.209-0.038,0.368-0.06,0.477-0.061c0.108-0.006,0.164-0.004,0.164,0.005c0.021,0.064-0.922,0.05-2.25,0.914
						c-1.333,0.837-2.873,2.596-4.188,5.098c-0.674,1.244-1.285,2.662-1.85,4.233c-0.593,1.568-1.224,3.238-1.888,4.995
						c-1.342,3.521-2.813,7.38-4.359,11.434c-0.449,1.171-0.892,2.326-1.312,3.419l-0.117-0.314
						c6.83,3.755,12.891,7.087,17.312,9.518c2.132,1.197,3.865,2.17,5.124,2.878c0.56,0.326,1.014,0.59,1.372,0.798
						C453.763,232.193,453.921,232.297,453.913,232.312z"/>
				</g>
			</g>
		</g>
	</g>
</g>
</svg>
