<svg width="200" height="209" viewBox="0 0 200 209" fill="none" xmlns="http://www.w3.org/2000/svg">
<path d="M130.463 103.31C130.463 102.417 130.423 101.527 130.343 100.637C130.264 99.7468 130.144 98.8625 129.985 97.9838C129.826 97.1052 129.627 96.238 129.388 95.3764C129.149 94.5149 128.873 93.6675 128.56 92.8315C128.248 91.9956 127.895 91.1738 127.508 90.3691C127.119 89.5673 126.698 88.7797 126.237 88.0148C125.779 87.247 125.288 86.5021 124.762 85.7827C124.238 85.0604 123.681 84.361 123.092 83.6899C122.504 83.0189 121.887 82.3734 121.241 81.7564C120.596 81.1394 119.922 80.5536 119.225 79.9963C118.526 79.4418 117.804 78.9186 117.056 78.4267C116.311 77.9348 115.546 77.477 114.758 77.0562C113.971 76.6325 113.166 76.2458 112.344 75.8961C111.523 75.5463 110.687 75.2336 109.836 74.9606C108.986 74.6848 108.127 74.4488 107.257 74.2497C106.384 74.0535 105.506 73.8943 104.622 73.7777C103.737 73.6583 102.847 73.5787 101.954 73.5417C101.062 73.5019 100.172 73.5019 99.2787 73.5446C98.3859 73.5872 97.4959 73.6668 96.6116 73.7891C95.7273 73.9114 94.8486 74.0706 93.9786 74.2725C93.1085 74.4715 92.2498 74.7104 91.3996 74.989C90.5522 75.2648 89.7163 75.5805 88.8945 75.933C88.0756 76.2856 87.2709 76.6752 86.4861 77.0988C85.7013 77.5225 84.9365 77.9832 84.1915 78.4751C83.4465 78.9698 82.7271 79.4959 82.0276 80.0532C81.331 80.6133 80.6599 81.2019 80.0173 81.8189C79.3719 82.4388 78.7577 83.0843 78.1719 83.7582C77.5862 84.4321 77.0317 85.1315 76.5085 85.8538C75.9853 86.5788 75.4963 87.3238 75.0385 88.0915C74.5835 88.8593 74.1627 89.6469 73.776 90.4516C73.3921 91.2591 73.0424 92.078 72.7325 92.9168C72.4197 93.7528 72.1467 94.603 71.9107 95.4646C71.6775 96.3261 71.4813 97.1962 71.325 98.0748C71.1686 98.9534 71.0491 99.8377 70.9724 100.728C70.8956 101.618 70.8586 102.508 70.8615 103.401C70.8643 104.293 70.907 105.186 70.9894 106.076C71.0719 106.963 71.197 107.848 71.3591 108.726C71.5212 109.605 71.723 110.472 71.9619 111.334C72.2036 112.192 72.4822 113.04 72.8007 113.876C73.1163 114.709 73.4689 115.528 73.8613 116.332C74.2508 117.134 74.6774 117.919 75.138 118.684C75.5986 119.449 76.0934 120.191 76.6223 120.91C77.1483 121.633 77.7085 122.326 78.2999 122.997C78.8885 123.669 79.5083 124.311 80.1566 124.925C80.805 125.54 81.4788 126.122 82.1783 126.677C82.8807 127.231 83.6057 127.752 84.3507 128.241C85.0985 128.73 85.8663 129.185 86.6567 129.603C87.4444 130.024 88.2491 130.407 89.0736 130.754V144.69C89.0736 145.071 89.0907 145.449 89.1277 145.827C89.1646 146.203 89.2215 146.578 89.2954 146.951C89.3694 147.323 89.4604 147.69 89.5712 148.054C89.6821 148.418 89.8101 148.773 89.9551 149.123C90.1001 149.475 90.2622 149.817 90.4413 150.152C90.6205 150.488 90.8138 150.812 91.0271 151.128C91.2375 151.443 91.4621 151.747 91.7038 152.04C91.9455 152.333 92.1986 152.615 92.4659 152.882C92.736 153.152 93.0175 153.405 93.3104 153.647C93.6032 153.888 93.9075 154.113 94.2231 154.324C94.5387 154.534 94.8629 154.73 95.1984 154.909C95.5339 155.088 95.8751 155.25 96.2277 155.396C96.5775 155.541 96.9357 155.668 97.2968 155.777C97.6608 155.887 98.0276 155.981 98.4001 156.055C98.7726 156.129 99.1479 156.183 99.5261 156.22C99.9043 156.257 100.282 156.277 100.663 156.277C101.042 156.277 101.42 156.257 101.798 156.22C102.176 156.183 102.551 156.129 102.924 156.055C103.296 155.981 103.663 155.887 104.027 155.777C104.388 155.668 104.747 155.541 105.096 155.396C105.449 155.25 105.79 155.088 106.126 154.909C106.461 154.73 106.785 154.534 107.101 154.324C107.417 154.113 107.721 153.888 108.014 153.647C108.307 153.405 108.588 153.152 108.858 152.882C109.126 152.615 109.379 152.333 109.62 152.04C109.862 151.747 110.087 151.443 110.297 151.128C110.51 150.812 110.704 150.488 110.883 150.152C111.062 149.817 111.224 149.475 111.369 149.123C111.514 148.773 111.642 148.418 111.753 148.054C111.864 147.69 111.955 147.323 112.029 146.951C112.103 146.578 112.159 146.203 112.196 145.827C112.233 145.449 112.25 145.071 112.25 144.69V130.754C113.593 130.189 114.886 129.526 116.132 128.77C117.377 128.013 118.56 127.172 119.683 126.242C120.803 125.312 121.853 124.305 122.825 123.222C123.8 122.139 124.69 120.99 125.495 119.776C126.3 118.562 127.014 117.296 127.633 115.98C128.253 114.661 128.774 113.304 129.194 111.911C129.615 110.515 129.931 109.099 130.144 107.657C130.357 106.216 130.463 104.768 130.463 103.31Z" fill="#FFCA4F"/>
<path d="M103.974 139.725H97.3516V120.856L84.6699 101.822C84.4822 101.546 84.3372 101.247 84.2377 100.929C84.141 100.61 84.0898 100.283 84.0898 99.9508C84.0898 99.6152 84.141 99.2911 84.2377 98.9698C84.3372 98.6513 84.4822 98.3556 84.6699 98.0798C84.8576 97.7954 85.085 97.5452 85.3495 97.332C85.6139 97.1187 85.904 96.9481 86.2224 96.8258C86.538 96.7007 86.8679 96.6268 87.2062 96.6041C87.5475 96.5813 87.883 96.6097 88.2128 96.6894L100.664 99.9991L113.113 96.6894C113.428 96.6097 113.75 96.5785 114.074 96.5927C114.398 96.6069 114.714 96.6694 115.021 96.7775C115.328 96.8855 115.612 97.0363 115.877 97.2268C116.138 97.4201 116.368 97.6447 116.565 97.9035C116.761 98.1651 116.914 98.4466 117.028 98.7508C117.139 99.0579 117.207 99.3707 117.227 99.6949C117.247 100.022 117.219 100.34 117.145 100.659C117.071 100.974 116.951 101.273 116.789 101.554L110.167 113.141L104.403 109.832L107.287 105.097L101.458 106.621C100.929 106.752 100.397 106.752 99.868 106.621L94.9347 105.396L103.411 118.14C103.761 118.661 103.948 119.235 103.974 119.86V139.725Z" fill="#B38D37"/>
<path d="M112.25 136.415V144.689C112.25 145.07 112.233 145.449 112.196 145.827C112.159 146.202 112.102 146.577 112.028 146.95C111.954 147.322 111.863 147.689 111.752 148.053C111.642 148.417 111.514 148.773 111.369 149.122C111.224 149.475 111.061 149.816 110.882 150.152C110.703 150.487 110.51 150.811 110.297 151.127C110.086 151.443 109.862 151.747 109.62 152.04C109.378 152.333 109.125 152.614 108.858 152.881C108.588 153.151 108.306 153.405 108.013 153.646C107.72 153.888 107.416 154.113 107.101 154.323C106.785 154.533 106.461 154.73 106.125 154.909C105.79 155.088 105.449 155.25 105.096 155.395C104.746 155.54 104.388 155.668 104.027 155.776C103.663 155.887 103.296 155.981 102.924 156.055C102.551 156.129 102.176 156.183 101.798 156.22C101.419 156.256 101.041 156.276 100.663 156.276C100.282 156.276 99.9039 156.256 99.5257 156.22C99.1475 156.183 98.7722 156.129 98.3997 156.055C98.0272 155.981 97.6604 155.887 97.2964 155.776C96.9353 155.668 96.5771 155.54 96.2273 155.395C95.8747 155.25 95.5335 155.088 95.198 154.909C94.8625 154.73 94.5383 154.533 94.2227 154.323C93.9071 154.113 93.6028 153.888 93.31 153.646C93.0171 153.405 92.7356 153.151 92.4655 152.881C92.1982 152.614 91.9451 152.333 91.7034 152.04C91.4617 151.747 91.2371 151.443 91.0267 151.127C90.8134 150.811 90.6201 150.487 90.4409 150.152C90.2618 149.816 90.0997 149.475 89.9547 149.122C89.8097 148.773 89.6817 148.417 89.5708 148.053C89.4599 147.689 89.369 147.322 89.295 146.95C89.2211 146.577 89.1642 146.202 89.1273 145.827C89.0903 145.449 89.0732 145.07 89.0732 144.689V136.415H112.25Z" fill="#596C80"/>
<path d="M27.8136 79.8395C27.8136 80.2746 27.7937 80.7068 27.7511 81.139C27.7084 81.5683 27.643 81.9977 27.5605 82.4242C27.4752 82.8479 27.37 83.2687 27.2449 83.6838C27.117 84.099 26.972 84.5056 26.807 84.9065C26.6393 85.3074 26.4544 85.6998 26.2497 86.0808C26.045 86.4647 25.8232 86.8372 25.5815 87.1955C25.3398 87.5566 25.0839 87.9063 24.8081 88.239C24.5323 88.5745 24.2423 88.8958 23.9352 89.2029C23.6281 89.51 23.3068 89.8 22.9712 90.0758C22.6357 90.3517 22.2888 90.6076 21.9277 90.8493C21.5666 91.091 21.1969 91.3127 20.8131 91.5175C20.4292 91.7222 20.0397 91.907 19.6387 92.0719C19.2378 92.2397 18.8284 92.3847 18.4132 92.5098C17.9981 92.6378 17.5801 92.743 17.1536 92.8254C16.7271 92.9107 16.3006 92.9761 15.8684 93.0188C15.4362 93.0615 15.004 93.0814 14.5689 93.0814C14.1367 93.0814 13.7017 93.0615 13.2723 93.0188C12.8401 92.9761 12.4108 92.9107 11.9842 92.8254C11.5606 92.743 11.1397 92.6378 10.7246 92.5098C10.3095 92.3847 9.90284 92.2397 9.50192 92.0719C9.101 91.907 8.7086 91.7222 8.32474 91.5175C7.94372 91.3127 7.57123 91.091 7.21012 90.8493C6.849 90.6076 6.5021 90.3517 6.16658 90.0758C5.83105 89.8 5.50975 89.51 5.20266 89.2029C4.89841 88.8958 4.60554 88.5745 4.32972 88.239C4.05675 87.9063 3.798 87.5566 3.55631 87.1955C3.31462 86.8372 3.09283 86.4647 2.8881 86.0808C2.68338 85.6998 2.49855 85.3074 2.33364 84.9065C2.16587 84.5056 2.02086 84.099 1.89575 83.6838C1.76779 83.2687 1.66259 82.8479 1.58013 82.4242C1.49482 81.9977 1.43227 81.5683 1.38962 81.139C1.34697 80.7068 1.32422 80.2746 1.32422 79.8395C1.32422 79.4073 1.34697 78.9723 1.38962 78.5429C1.43227 78.1107 1.49482 77.6813 1.58013 77.2577C1.66259 76.8312 1.76779 76.4103 1.89575 75.9952C2.02086 75.58 2.16587 75.1734 2.33364 74.7725C2.49855 74.3716 2.68338 73.9792 2.8881 73.5982C3.09283 73.2143 3.31462 72.8447 3.55631 72.4836C3.798 72.1224 4.05675 71.7755 4.32972 71.44C4.60554 71.1045 4.89841 70.7832 5.20266 70.4761C5.50975 70.169 5.83105 69.879 6.16658 69.6032C6.5021 69.3302 6.849 69.0714 7.21012 68.8297C7.57123 68.5881 7.94372 68.3663 8.32474 68.1615C8.7086 67.9568 9.101 67.772 9.50192 67.6071C9.90284 67.4393 10.3095 67.2943 10.7246 67.1692C11.1397 67.0441 11.5606 66.936 11.9842 66.8536C12.4108 66.7683 12.8401 66.7057 13.2723 66.6631C13.7017 66.6204 14.1367 66.5977 14.5689 66.5977C15.004 66.5977 15.4362 66.6204 15.8684 66.6631C16.3006 66.7057 16.7271 66.7683 17.1536 66.8536C17.5801 66.936 17.9981 67.0441 18.4132 67.1692C18.8284 67.2943 19.2378 67.4393 19.6387 67.6071C20.0397 67.772 20.4292 67.9568 20.8131 68.1615C21.1969 68.3663 21.5666 68.5881 21.9277 68.8297C22.2888 69.0714 22.6357 69.3302 22.9712 69.6032C23.3068 69.879 23.6281 70.169 23.9352 70.4761C24.2423 70.7832 24.5323 71.1045 24.8081 71.44C25.0839 71.7755 25.3398 72.1224 25.5815 72.4836C25.8232 72.8447 26.045 73.2143 26.2497 73.5982C26.4544 73.9792 26.6393 74.3716 26.807 74.7725C26.972 75.1734 27.117 75.58 27.2449 75.9952C27.37 76.4103 27.4752 76.8312 27.5605 77.2577C27.643 77.6813 27.7084 78.1107 27.7511 78.5429C27.7937 78.9723 27.8136 79.4073 27.8136 79.8395Z" fill="#E6676D"/>
<mask id="mask0_2016_2743" style="mask-type:luminance" maskUnits="userSpaceOnUse" x="172" y="66" width="29" height="28">
<path d="M172.889 66.2173H200.001V93.8782H172.889V66.2173Z" fill="white"/>
</mask>
<g mask="url(#mask0_2016_2743)">
<path d="M199.998 80.1383C199.998 80.5705 199.975 81.0056 199.933 81.4349C199.893 81.8671 199.828 82.2965 199.742 82.7202C199.66 83.1467 199.555 83.5675 199.427 83.9827C199.302 84.3978 199.157 84.8044 198.989 85.2053C198.824 85.6062 198.639 85.9986 198.434 86.3797C198.23 86.7635 198.008 87.1332 197.766 87.4943C197.524 87.8554 197.266 88.2023 196.993 88.5378C196.717 88.8733 196.424 89.1947 196.12 89.5017C195.813 89.8088 195.491 90.0989 195.156 90.3747C194.82 90.6476 194.473 90.9064 194.112 91.1481C193.751 91.3898 193.379 91.6116 192.998 91.8163C192.614 92.021 192.221 92.2058 191.82 92.3708C191.42 92.5385 191.013 92.6835 190.598 92.8087C190.183 92.9366 189.762 93.0418 189.338 93.1243C188.912 93.2096 188.482 93.2721 188.05 93.3148C187.621 93.3574 187.186 93.3802 186.753 93.3802C186.318 93.3802 185.886 93.3574 185.454 93.3148C185.022 93.2721 184.595 93.2096 184.169 93.1243C183.742 93.0418 183.324 92.9366 182.909 92.8087C182.494 92.6835 182.085 92.5385 181.684 92.3708C181.283 92.2058 180.893 92.021 180.509 91.8163C180.125 91.6116 179.756 91.3898 179.395 91.1481C179.034 90.9064 178.687 90.6476 178.351 90.3747C178.016 90.0989 177.694 89.8088 177.387 89.5017C177.08 89.1947 176.79 88.8733 176.514 88.5378C176.238 88.2023 175.983 87.8554 175.741 87.4943C175.499 87.1332 175.277 86.7635 175.073 86.3797C174.868 85.9986 174.683 85.6062 174.515 85.2053C174.35 84.8044 174.205 84.3978 174.077 83.9827C173.952 83.5675 173.847 83.1467 173.762 82.7202C173.679 82.2965 173.614 81.8671 173.571 81.4349C173.529 81.0056 173.509 80.5705 173.509 80.1383C173.509 79.7033 173.529 79.2711 173.571 78.8389C173.614 78.4095 173.679 77.9802 173.762 77.5537C173.847 77.13 173.952 76.7092 174.077 76.294C174.205 75.8789 174.35 75.4723 174.515 75.0713C174.683 74.6704 174.868 74.278 175.073 73.897C175.277 73.5131 175.499 73.1407 175.741 72.7824C175.983 72.4213 176.238 72.0744 176.514 71.7388C176.79 71.4033 177.08 71.082 177.387 70.7749C177.694 70.4678 178.016 70.1778 178.351 69.902C178.687 69.6262 179.034 69.3703 179.395 69.1286C179.756 68.8869 180.125 68.6651 180.509 68.4604C180.893 68.2556 181.283 68.0708 181.684 67.9059C182.085 67.7381 182.494 67.5931 182.909 67.468C183.324 67.3401 183.742 67.2349 184.169 67.1524C184.595 67.0671 185.022 67.0017 185.454 66.959C185.886 66.9192 186.318 66.8965 186.753 66.8965C187.186 66.8965 187.621 66.9192 188.05 66.959C188.482 67.0017 188.912 67.0671 189.338 67.1524C189.762 67.2349 190.183 67.3401 190.598 67.468C191.013 67.5931 191.42 67.7381 191.82 67.9059C192.221 68.0708 192.614 68.2556 192.998 68.4604C193.379 68.6651 193.751 68.8869 194.112 69.1286C194.473 69.3703 194.82 69.6262 195.156 69.902C195.491 70.1778 195.813 70.4678 196.12 70.7749C196.424 71.082 196.717 71.4033 196.993 71.7388C197.266 72.0744 197.524 72.4213 197.766 72.7824C198.008 73.1407 198.23 73.5131 198.434 73.897C198.639 74.278 198.824 74.6704 198.989 75.0713C199.157 75.4723 199.302 75.8789 199.427 76.294C199.555 76.7092 199.66 77.13 199.742 77.5537C199.828 77.9802 199.893 78.4095 199.933 78.8389C199.975 79.2711 199.998 79.7033 199.998 80.1383Z" fill="#E6676D"/>
</g>
<path d="M111.907 13.2418C111.907 13.6741 111.885 14.1063 111.842 14.5385C111.799 14.9707 111.737 15.4 111.651 15.8237C111.566 16.2502 111.461 16.671 111.336 17.0862C111.211 17.5013 111.063 17.9079 110.898 18.3088C110.733 18.7098 110.545 19.1022 110.343 19.4832C110.139 19.867 109.914 20.2367 109.675 20.5978C109.433 20.9589 109.175 21.3058 108.899 21.6413C108.623 21.9769 108.333 22.2982 108.026 22.6053C107.719 22.9124 107.398 23.2024 107.065 23.4782C106.729 23.7512 106.38 24.0099 106.019 24.2516C105.66 24.4933 105.288 24.7151 104.904 24.9198C104.523 25.1245 104.13 25.3094 103.73 25.4743C103.329 25.642 102.922 25.7871 102.507 25.9122C102.092 26.0373 101.671 26.1425 101.244 26.2278C100.821 26.3131 100.391 26.3756 99.9592 26.4183C99.527 26.461 99.0948 26.4837 98.6626 26.4837C98.2275 26.4837 97.7953 26.461 97.3631 26.4183C96.9309 26.3756 96.5016 26.3131 96.0779 26.2278C95.6514 26.1425 95.2306 26.0373 94.8154 25.9122C94.4003 25.7871 93.9937 25.642 93.5927 25.4743C93.1918 25.3094 92.7994 25.1245 92.4184 24.9198C92.0345 24.7151 91.6621 24.4933 91.3038 24.2516C90.9427 24.0099 90.5929 23.7512 90.2574 23.4782C89.9247 23.2024 89.6034 22.9124 89.2963 22.6053C88.9892 22.2982 88.6992 21.9769 88.4234 21.6413C88.1476 21.3058 87.8888 20.9589 87.6471 20.5978C87.4083 20.2367 87.1837 19.867 86.9789 19.4832C86.777 19.1022 86.5894 18.7098 86.4245 18.3088C86.2595 17.9079 86.1117 17.5013 85.9866 17.0862C85.8615 16.671 85.7563 16.2502 85.6709 15.8237C85.5856 15.4 85.5231 14.9707 85.4804 14.5385C85.4378 14.1063 85.415 13.6741 85.415 13.2418C85.415 12.8068 85.4378 12.3746 85.4804 11.9424C85.5231 11.513 85.5856 11.0837 85.6709 10.6572C85.7563 10.2335 85.8615 9.81267 85.9866 9.39753C86.1117 8.98239 86.2595 8.57578 86.4245 8.17486C86.5894 7.77394 86.777 7.38154 86.9789 7.00052C87.1837 6.61666 87.4083 6.24417 87.6471 5.8859C87.8888 5.52478 88.1476 5.17504 88.4234 4.84236C88.6992 4.50683 88.9892 4.18553 89.2963 3.87844C89.6034 3.57135 89.9247 3.28132 90.2574 3.0055C90.5929 2.72969 90.9427 2.47094 91.3038 2.23209C91.6621 1.9904 92.0345 1.76861 92.4184 1.56389C92.7994 1.35916 93.1918 1.17434 93.5927 1.00657C93.9937 0.841655 94.4003 0.69664 94.8154 0.568686C95.2306 0.443575 95.6514 0.338368 96.0779 0.253065C96.5016 0.170606 96.9309 0.105207 97.3631 0.0625554C97.7953 0.0199045 98.2275 0 98.6626 0C99.0948 0 99.527 0.0199045 99.9592 0.0625554C100.391 0.105207 100.821 0.170606 101.244 0.253065C101.671 0.338368 102.092 0.443575 102.507 0.568686C102.922 0.69664 103.329 0.841655 103.73 1.00657C104.13 1.17434 104.523 1.35916 104.904 1.56389C105.288 1.76861 105.66 1.9904 106.019 2.23209C106.38 2.47094 106.729 2.72969 107.065 3.0055C107.398 3.28132 107.719 3.57135 108.026 3.87844C108.333 4.18553 108.623 4.50683 108.899 4.84236C109.175 5.17504 109.433 5.52478 109.675 5.8859C109.914 6.24417 110.139 6.61666 110.343 7.00052C110.545 7.38154 110.733 7.77394 110.898 8.17486C111.063 8.57578 111.211 8.98239 111.336 9.39753C111.461 9.81267 111.566 10.2335 111.651 10.6572C111.737 11.0837 111.799 11.513 111.842 11.9424C111.885 12.3746 111.907 12.8068 111.907 13.2418Z" fill="#E6676D"/>
<path d="M60.9259 182.76C60.9259 183.193 60.906 183.625 60.8634 184.057C60.8207 184.489 60.7582 184.919 60.6728 185.342C60.5875 185.769 60.4823 186.187 60.3572 186.602C60.2293 187.017 60.0843 187.426 59.9193 187.827C59.7516 188.228 59.5668 188.618 59.362 189.002C59.1573 189.383 58.9355 189.755 58.6938 190.116C58.455 190.477 58.1962 190.824 57.9204 191.16C57.6446 191.495 57.3546 191.817 57.0475 192.121C56.7404 192.428 56.4191 192.721 56.0836 192.994C55.748 193.27 55.4011 193.528 55.04 193.77C54.6789 194.009 54.3092 194.234 53.9254 194.438C53.5444 194.64 53.152 194.828 52.7511 194.993C52.3501 195.158 51.9407 195.306 51.5255 195.431C51.1104 195.556 50.6924 195.661 50.2659 195.746C49.8394 195.832 49.4129 195.894 48.9807 195.937C48.5485 195.98 48.1163 195.999 47.6812 195.999C47.249 195.999 46.8168 195.98 46.3846 195.937C45.9524 195.894 45.5231 195.832 45.0994 195.746C44.6729 195.661 44.252 195.556 43.8369 195.431C43.4218 195.306 43.0152 195.158 42.6142 194.993C42.2133 194.828 41.8209 194.64 41.4399 194.438C41.056 194.234 40.6835 194.009 40.3224 193.77C39.9641 193.528 39.6144 193.27 39.2789 192.994C38.9434 192.721 38.6221 192.428 38.3178 192.121C38.0107 191.817 37.7178 191.495 37.4449 191.16C37.1691 190.824 36.9103 190.477 36.6686 190.116C36.4298 189.755 36.2051 189.383 36.0004 189.002C35.7957 188.618 35.6109 188.228 35.4459 187.827C35.2782 187.426 35.1332 187.017 35.0081 186.602C34.8829 186.187 34.7777 185.769 34.6924 185.342C34.6071 184.919 34.5446 184.489 34.5019 184.057C34.4593 183.625 34.4365 183.193 34.4365 182.76C34.4365 182.325 34.4593 181.893 34.5019 181.461C34.5446 181.029 34.6071 180.602 34.6924 180.176C34.7777 179.752 34.8829 179.331 35.0081 178.916C35.1332 178.501 35.2782 178.091 35.4459 177.691C35.6109 177.292 35.7957 176.9 36.0004 176.516C36.2051 176.135 36.4298 175.763 36.6686 175.402C36.9103 175.043 37.1691 174.694 37.4449 174.358C37.7178 174.023 38.0107 173.704 38.3178 173.397C38.6221 173.09 38.9434 172.8 39.2789 172.524C39.6144 172.248 39.9641 171.989 40.3224 171.751C40.6835 171.509 41.056 171.287 41.4399 171.082C41.8209 170.878 42.2133 170.693 42.6142 170.525C43.0152 170.36 43.4218 170.215 43.8369 170.087C44.252 169.962 44.6729 169.857 45.0994 169.772C45.5231 169.686 45.9524 169.624 46.3846 169.581C46.8168 169.538 47.249 169.519 47.6812 169.519C48.1163 169.519 48.5485 169.538 48.9807 169.581C49.4129 169.624 49.8394 169.686 50.2659 169.772C50.6924 169.857 51.1104 169.962 51.5255 170.087C51.9407 170.215 52.3501 170.36 52.7511 170.525C53.152 170.693 53.5444 170.878 53.9254 171.082C54.3092 171.287 54.6789 171.509 55.04 171.751C55.4011 171.989 55.748 172.248 56.0836 172.524C56.4191 172.8 56.7404 173.09 57.0475 173.397C57.3546 173.704 57.6446 174.023 57.9204 174.358C58.1962 174.694 58.455 175.043 58.6938 175.402C58.9355 175.763 59.1573 176.135 59.362 176.516C59.5668 176.9 59.7516 177.292 59.9193 177.691C60.0843 178.091 60.2293 178.501 60.3572 178.916C60.4823 179.331 60.5875 179.752 60.6728 180.176C60.7582 180.602 60.8207 181.029 60.8634 181.461C60.906 181.893 60.9259 182.325 60.9259 182.76Z" fill="#E6676D"/>
<path d="M166.887 182.76C166.887 183.193 166.864 183.625 166.821 184.057C166.779 184.489 166.716 184.919 166.631 185.342C166.546 185.769 166.44 186.187 166.315 186.602C166.19 187.017 166.045 187.426 165.877 187.827C165.713 188.228 165.528 188.618 165.323 189.002C165.118 189.383 164.894 189.755 164.655 190.116C164.413 190.477 164.154 190.824 163.878 191.16C163.606 191.495 163.313 191.817 163.006 192.121C162.701 192.428 162.38 192.721 162.044 192.994C161.709 193.27 161.359 193.528 161.001 193.77C160.64 194.009 160.267 194.234 159.883 194.438C159.502 194.64 159.11 194.828 158.709 194.993C158.308 195.158 157.902 195.306 157.486 195.431C157.071 195.556 156.651 195.661 156.224 195.746C155.8 195.832 155.371 195.894 154.939 195.937C154.507 195.98 154.074 195.999 153.642 195.999C153.207 195.999 152.775 195.98 152.343 195.937C151.911 195.894 151.484 195.832 151.057 195.746C150.631 195.661 150.213 195.556 149.798 195.431C149.383 195.306 148.973 195.158 148.572 194.993C148.171 194.828 147.779 194.64 147.398 194.438C147.014 194.234 146.644 194.009 146.283 193.77C145.922 193.528 145.575 193.27 145.24 192.994C144.904 192.721 144.583 192.428 144.276 192.121C143.969 191.817 143.679 191.495 143.403 191.16C143.127 190.824 142.868 190.477 142.63 190.116C142.388 189.755 142.166 189.383 141.961 189.002C141.757 188.618 141.572 188.228 141.404 187.827C141.239 187.426 141.094 187.017 140.966 186.602C140.841 186.187 140.736 185.769 140.651 185.342C140.565 184.919 140.503 184.489 140.46 184.057C140.417 183.625 140.397 183.193 140.397 182.76C140.397 182.325 140.417 181.893 140.46 181.461C140.503 181.029 140.565 180.602 140.651 180.176C140.736 179.752 140.841 179.331 140.966 178.916C141.094 178.501 141.239 178.091 141.404 177.691C141.572 177.292 141.757 176.9 141.961 176.516C142.166 176.135 142.388 175.763 142.63 175.402C142.868 175.043 143.127 174.694 143.403 174.358C143.679 174.023 143.969 173.704 144.276 173.397C144.583 173.09 144.904 172.8 145.24 172.524C145.575 172.248 145.922 171.989 146.283 171.751C146.644 171.509 147.014 171.287 147.398 171.082C147.779 170.878 148.171 170.693 148.572 170.525C148.973 170.36 149.383 170.215 149.798 170.087C150.213 169.962 150.631 169.857 151.057 169.772C151.484 169.686 151.911 169.624 152.343 169.581C152.775 169.538 153.207 169.519 153.642 169.519C154.074 169.519 154.507 169.538 154.939 169.581C155.371 169.624 155.8 169.686 156.224 169.772C156.651 169.857 157.071 169.962 157.486 170.087C157.902 170.215 158.308 170.36 158.709 170.525C159.11 170.693 159.502 170.878 159.883 171.082C160.267 171.287 160.64 171.509 161.001 171.751C161.359 171.989 161.709 172.248 162.044 172.524C162.38 172.8 162.701 173.09 163.006 173.397C163.313 173.704 163.606 174.023 163.878 174.358C164.154 174.694 164.413 175.043 164.655 175.402C164.894 175.763 165.118 176.135 165.323 176.516C165.528 176.9 165.713 177.292 165.877 177.691C166.045 178.091 166.19 178.501 166.315 178.916C166.44 179.331 166.546 179.752 166.631 180.176C166.716 180.602 166.779 181.029 166.821 181.461C166.864 181.893 166.887 182.325 166.887 182.76Z" fill="#E6676D"/>
<path d="M140.397 99.9995H150.33V106.622H140.397V99.9995Z" fill="#FFCA4F"/>
<path d="M50.9941 99.9995H60.9262V106.622H50.9941V99.9995Z" fill="#FFCA4F"/>
<path d="M126.421 72.8573L133.447 65.834L138.13 70.5171L131.104 77.5375L126.421 72.8573Z" fill="#FFCA4F"/>
<path d="M63.2129 136.092L70.2362 129.069L74.9193 133.749L67.896 140.772L63.2129 136.092Z" fill="#FFCA4F"/>
<path d="M126.44 133.731L131.124 129.048L138.147 136.071L133.467 140.751L126.44 133.731Z" fill="#FFCA4F"/>
<path d="M63.1914 70.5333L67.8745 65.853L74.8978 72.8763L70.2147 77.5566L63.1914 70.5333Z" fill="#FFCA4F"/>
<path d="M97.3506 53.6548H103.973V63.5869H97.3506V53.6548Z" fill="#FFCA4F"/>
<path d="M56.3575 25.2516C50.173 28.6125 44.4435 32.6274 39.1718 37.2935C33.9001 41.9624 29.2198 47.1602 25.1338 52.8925L30.4965 56.734C34.3209 51.3884 38.6969 46.5432 43.6275 42.2012C48.558 37.8593 53.9178 34.1287 59.7014 31.0123L64.6376 39.4858L73.2446 19.1609L51.3246 16.5791L56.3575 25.2516Z" fill="#8E9FB3"/>
<path d="M175.229 55.6732L172.977 33.793L165.562 40.5803C160.304 35.3939 154.509 30.8984 148.18 27.091C141.847 23.2865 135.16 20.2782 128.111 18.0688L126.191 24.3898C132.674 26.4371 138.83 29.2066 144.662 32.704C150.491 36.2014 155.837 40.3272 160.694 45.0814L153.542 51.7009L175.229 55.6732Z" fill="#8E9FB3"/>
<mask id="mask1_2016_2743" style="mask-type:luminance" maskUnits="userSpaceOnUse" x="0" y="106" width="32" height="57">
<path d="M0 106.98H31.6701V162.302H0V106.98Z" fill="white"/>
</mask>
<g mask="url(#mask1_2016_2743)">
<path d="M26.2591 123.174L10.9273 107.185L-0.03125 126.483L9.90085 125.258C11.2174 131.843 13.2333 138.207 15.946 144.349C18.6615 150.49 22.011 156.265 25.9947 161.674L31.3261 157.767C27.6666 152.791 24.5843 147.482 22.0764 141.838C19.5685 136.194 17.6975 130.348 16.4578 124.3L26.2591 123.174Z" fill="#8E9FB3"/>
</g>
<path d="M193.376 106.622H186.754C186.754 113.244 185.992 119.781 184.471 126.23C182.949 132.676 180.709 138.864 177.746 144.789L169.369 140.121L172.349 162.004L192.515 152.967L183.609 148C186.822 141.576 189.253 134.872 190.905 127.88C192.554 120.89 193.379 113.805 193.376 106.622Z" fill="#8E9FB3"/>
<path d="M92.8148 192.26L94.4697 182.891L74.7676 192.823L89.8349 208.945L91.6206 199.013C94.6346 199.312 97.6487 199.477 100.663 199.477C110.032 199.491 119.193 198.109 128.144 195.34L126.157 189.016C120.76 190.637 115.255 191.723 109.645 192.269C104.035 192.815 98.4249 192.812 92.8148 192.26Z" fill="#8E9FB3"/>
</svg>
